<svg width="100" height="120" viewBox="0 0 100 120" fill="none" xmlns="http://www.w3.org/2000/svg">
<g filter="url(#filter0_bd_1_835)">
<rect x="35" y="33" width="50" height="50" rx="25" fill="#2F3037" fill-opacity="0.7" shape-rendering="crispEdges"/>
</g>
<path d="M59.3227 76.9874C59.2514 76.9875 59.1819 76.9646 59.1247 76.922C59.0675 76.8795 59.0255 76.8196 59.0051 76.7513C58.9846 76.683 58.9867 76.6099 59.0112 76.5429C59.0356 76.4759 59.081 76.4186 59.1406 76.3795L67.5552 70.8648L57.318 76.7755C57.2431 76.8194 57.1539 76.8321 57.0697 76.8109C56.9855 76.7897 56.913 76.7362 56.8678 76.662C56.8226 76.5878 56.8084 76.4989 56.8282 76.4143C56.848 76.3297 56.9002 76.2563 56.9737 76.2099L65.789 70.5662L55.5842 76.4576C55.509 76.5029 55.4188 76.5165 55.3335 76.4953C55.2483 76.4741 55.1749 76.42 55.1296 76.3447C55.0843 76.2694 55.0707 76.1792 55.0919 76.094C55.1131 76.0087 55.1673 75.9354 55.2425 75.8901L63.2757 70.8436L54.2048 76.0808C54.1298 76.1248 54.0405 76.1373 53.9563 76.1156C53.8721 76.0939 53.8 76.0397 53.7557 75.9649C53.7108 75.8908 53.6968 75.8019 53.7168 75.7176C53.7367 75.6332 53.789 75.5601 53.8624 75.5139L63.7459 69.2979L52.8345 75.5973C52.7591 75.6423 52.6689 75.6555 52.5838 75.6339C52.4986 75.6124 52.4255 75.5579 52.3806 75.4824C52.3356 75.407 52.3224 75.3168 52.344 75.2316C52.3655 75.1465 52.42 75.0734 52.4955 75.0285L58.0306 71.6278L51.8743 75.1814C51.7989 75.2267 51.7087 75.2401 51.6234 75.2188C51.5382 75.1975 51.4649 75.1432 51.4196 75.0679C51.3744 74.9925 51.361 74.9023 51.3823 74.817C51.4036 74.7318 51.4579 74.6584 51.5332 74.6132L61.7545 68.2529L50.7425 74.6106C50.5849 74.702 50.3849 74.6496 50.2921 74.4934C50.1994 74.3371 50.2498 74.1364 50.4041 74.041L56.824 70.1105L49.8795 74.1198C49.8043 74.1652 49.7141 74.1787 49.6288 74.1575C49.5436 74.1364 49.4702 74.0822 49.4249 74.0069C49.3796 73.9317 49.366 73.8415 49.3872 73.7562C49.4084 73.671 49.4626 73.5976 49.5378 73.5523L63.0605 65.0833L44.9649 75.5304C44.8896 75.5756 44.7994 75.5889 44.7142 75.5676C44.629 75.5462 44.5558 75.4919 44.5106 75.4165C44.4655 75.3412 44.4521 75.251 44.4735 75.1658C44.4948 75.0806 44.5492 75.0074 44.6245 74.9622L61.0684 64.7469L42.4477 75.502C42.3722 75.5469 42.282 75.5601 42.1969 75.5385C42.1118 75.517 42.0387 75.4625 41.9937 75.3871C41.9487 75.3116 41.9356 75.2214 41.9571 75.1363C41.9787 75.0511 42.0332 74.9781 42.1086 74.9331L58.1783 65.0429L43.3676 73.5933C43.2923 73.6329 43.2046 73.6421 43.1227 73.6189C43.0409 73.5957 42.9711 73.542 42.9277 73.4688C42.8843 73.3955 42.8708 73.3085 42.8898 73.2256C42.9088 73.1426 42.9589 73.0702 43.0298 73.0231L52.7822 67.0973L44.2331 72.0331C44.1576 72.0779 44.0673 72.091 43.9822 72.0693C43.8971 72.0476 43.824 71.993 43.7792 71.9175C43.7343 71.842 43.7212 71.7517 43.7429 71.6666C43.7646 71.5814 43.8192 71.5084 43.8947 71.4635L54.7611 64.827L44.8351 70.5575C44.76 70.5971 44.6726 70.6063 44.5909 70.5833C44.5092 70.5603 44.4394 70.5069 44.3958 70.434C44.3523 70.3611 44.3384 70.2743 44.3569 70.1915C44.3754 70.1087 44.425 70.0361 44.4954 69.9887L57.6611 61.8747L44.6669 69.3767C44.5913 69.4214 44.501 69.4343 44.4159 69.4124C44.3309 69.3906 44.258 69.3358 44.2133 69.2602C44.1686 69.1846 44.1557 69.0943 44.1776 69.0092C44.1995 68.9242 44.2542 68.8512 44.3298 68.8065L48.5875 66.2337L44.2146 68.7582C44.1393 68.7978 44.0516 68.8069 43.9698 68.7837C43.8879 68.7606 43.8181 68.7068 43.7747 68.6336C43.7314 68.5604 43.7178 68.4733 43.7368 68.3904C43.7558 68.3075 43.8059 68.235 43.8768 68.188L51.4087 63.6111L43.7351 68.041C43.6596 68.0858 43.5693 68.0989 43.4842 68.0772C43.3991 68.0555 43.326 68.0009 43.2811 67.9254C43.2363 67.8499 43.2232 67.7596 43.2449 67.6745C43.2666 67.5893 43.3212 67.5163 43.3967 67.4714L52.7637 61.7575L43.2563 67.2463C43.1808 67.2911 43.0905 67.3042 43.0054 67.2825C42.9202 67.2608 42.8472 67.2062 42.8023 67.1307C42.7574 67.0552 42.7444 66.9649 42.7661 66.8798C42.7878 66.7946 42.8424 66.7216 42.9179 66.6767L53.0418 60.4892L42.8013 66.4012C42.6437 66.4926 42.4437 66.4403 42.351 66.284C42.2583 66.1277 42.3086 65.927 42.4629 65.8317L53.4584 59.0945L42.3722 65.4992C42.297 65.5426 42.2078 65.5547 42.1238 65.5329C42.0398 65.5112 41.9677 65.4573 41.923 65.3829C41.8783 65.3085 41.8645 65.2196 41.8848 65.1352C41.905 65.0508 41.9576 64.9777 42.0311 64.9317L57.9637 54.9846L41.8762 64.2734C41.8008 64.3185 41.7106 64.3319 41.6254 64.3105C41.5402 64.2892 41.467 64.2348 41.4218 64.1595C41.3767 64.0841 41.3633 63.9939 41.3847 63.9087C41.4061 63.8235 41.4604 63.7503 41.5358 63.7052L56.073 54.6706L41.4973 63.0866C41.4222 63.13 41.333 63.1421 41.249 63.1203C41.1649 63.0986 41.0928 63.0447 41.0481 62.9703C41.0034 62.8959 40.9897 62.807 41.0099 62.7226C41.0302 62.6382 41.0827 62.5651 41.1563 62.5191L56.3816 53.0037L41.1702 61.7866C41.0947 61.8315 41.0044 61.8445 40.9193 61.8228C40.8341 61.8012 40.7611 61.7466 40.7162 61.671C40.6713 61.5955 40.6583 61.5053 40.68 61.4201C40.7016 61.335 40.7563 61.2619 40.8318 61.2171L48.6451 56.4475L40.9973 60.8628C40.922 60.9079 40.8318 60.9213 40.7466 60.8999C40.6614 60.8785 40.5882 60.8242 40.543 60.7488C40.4979 60.6735 40.4845 60.5833 40.5059 60.4981C40.5273 60.4129 40.5816 60.3397 40.6569 60.2945L52.4816 52.9739L40.8417 59.6952C40.7664 59.7405 40.6763 59.7541 40.591 59.7329C40.5057 59.7117 40.4324 59.6575 40.3871 59.5823C40.3418 59.507 40.3282 59.4168 40.3494 59.3316C40.3705 59.2463 40.4247 59.173 40.5 59.1276L53.8703 50.7613L40.7596 58.3309C40.6846 58.373 40.5961 58.3842 40.513 58.3622C40.4299 58.3402 40.3585 58.2867 40.3141 58.213C40.2697 58.1394 40.2557 58.0513 40.2751 57.9675C40.2945 57.8837 40.3457 57.8108 40.4179 57.764L53.5061 49.5355L40.7656 56.8919C40.6902 56.937 40.6 56.9504 40.5148 56.929C40.4296 56.9076 40.3564 56.8533 40.3112 56.7779C40.2661 56.7026 40.2527 56.6124 40.2741 56.5272C40.2955 56.442 40.3498 56.3688 40.4251 56.3236L49.8266 50.4845L40.8649 55.6587C40.7073 55.7501 40.5073 55.6978 40.4146 55.5422C40.3218 55.3865 40.3715 55.1852 40.5252 55.0898L47.2775 50.9196L41.0205 54.5322C40.9452 54.5774 40.855 54.5907 40.7698 54.5694C40.6846 54.548 40.6114 54.4937 40.5662 54.4183C40.5211 54.343 40.5077 54.2528 40.5291 54.1676C40.5504 54.0824 40.6048 54.0091 40.6801 53.964L47.3722 49.811L41.2609 53.3388C41.2236 53.3612 41.1823 53.376 41.1392 53.3823C41.0962 53.3887 41.0524 53.3866 41.0102 53.376C40.968 53.3654 40.9283 53.3466 40.8934 53.3207C40.8584 53.2948 40.829 53.2622 40.8066 53.2249C40.7843 53.1876 40.7695 53.1463 40.7631 53.1033C40.7567 53.0602 40.7589 53.0164 40.7695 52.9742C40.7801 52.932 40.7988 52.8923 40.8248 52.8574C40.8507 52.8225 40.8832 52.793 40.9205 52.7706L46.6603 49.2017L41.5901 52.1289C41.5153 52.1688 41.4282 52.1787 41.3464 52.1564C41.2647 52.1341 41.1945 52.0814 41.1504 52.0091C41.1063 51.9367 41.0915 51.8503 41.1091 51.7674C41.1267 51.6845 41.1753 51.6115 41.245 51.5633L50.4113 45.6706L42.2079 50.4064C42.1328 50.4497 42.0436 50.4618 41.9596 50.4401C41.8755 50.4183 41.8034 50.3644 41.7587 50.2901C41.714 50.2157 41.7003 50.1267 41.7205 50.0423C41.7408 49.9579 41.7933 49.8848 41.8669 49.8388L44.4643 48.2176L42.7629 49.1991C42.726 49.2219 42.6849 49.2373 42.642 49.2443C42.5991 49.2513 42.5552 49.2497 42.5129 49.2398C42.4706 49.2298 42.4306 49.2116 42.3954 49.1862C42.3601 49.1608 42.3302 49.1287 42.3073 49.0918C42.2844 49.0548 42.269 49.0137 42.2621 48.9708C42.2551 48.9279 42.2566 48.8841 42.2666 48.8417C42.2765 48.7994 42.2947 48.7595 42.3201 48.7242C42.3455 48.6889 42.3776 48.659 42.4146 48.6361L49.2252 44.1394L43.9106 47.2077C43.8366 47.251 43.7487 47.2637 43.6654 47.2432C43.5822 47.2227 43.5103 47.1705 43.4649 47.0977C43.4192 47.0253 43.4034 46.938 43.4207 46.8542C43.438 46.7704 43.4871 46.6965 43.5576 46.648L48.557 43.2063L45.7822 44.8083C45.7083 44.8483 45.6221 44.8588 45.5409 44.8378C45.4596 44.8167 45.3893 44.7657 45.3442 44.6948C45.2991 44.624 45.2825 44.5388 45.2978 44.4562C45.3131 44.3737 45.3591 44.3 45.4265 44.25L47.8914 42.5255C47.8468 42.4931 47.811 42.45 47.7872 42.4002C47.7635 42.3504 47.7527 42.2954 47.7557 42.2404C47.7588 42.1853 47.7756 42.1318 47.8046 42.0849C47.8336 42.038 47.874 41.9991 47.9219 41.9718L52.2869 39.4519C52.3607 39.4119 52.4469 39.4014 52.5282 39.4225C52.6094 39.4435 52.6797 39.4946 52.7248 39.5654C52.7699 39.6362 52.7865 39.7215 52.7712 39.804C52.7559 39.8866 52.7099 39.9603 52.6425 40.0102L52.0484 40.4255L55.4511 38.4612C55.5252 38.4189 55.6128 38.4067 55.6956 38.4274C55.7784 38.448 55.85 38.4999 55.8955 38.572C55.941 38.6442 55.957 38.7312 55.9399 38.8148C55.9229 38.8984 55.8742 38.9722 55.8041 39.0208L50.8014 42.4652L58.4618 38.0453C58.5363 38.0021 58.6248 37.9896 58.7084 38.0106C58.7919 38.0315 58.8641 38.0842 58.9094 38.1575C58.9548 38.2308 58.9698 38.3189 58.9512 38.403C58.9327 38.4872 58.882 38.5608 58.8101 38.6082L52.0041 43.1023L60.7585 38.0473C60.8337 38.0021 60.9239 37.9886 61.0091 38.0098C61.0943 38.0311 61.1675 38.0853 61.2128 38.1605C61.258 38.2358 61.2715 38.326 61.2502 38.4112C61.229 38.4964 61.1748 38.5696 61.0995 38.6149L58.4942 40.2414L62.0817 38.1705C62.1564 38.1305 62.2436 38.1207 62.3253 38.143C62.4071 38.1653 62.4772 38.218 62.5213 38.2903C62.5654 38.3626 62.5802 38.4491 62.5626 38.532C62.545 38.6149 62.4964 38.6879 62.4267 38.736L53.2637 44.6268L63.8909 38.4903C63.9283 38.468 63.9696 38.4532 64.0126 38.4468C64.0556 38.4405 64.0995 38.4426 64.1417 38.4532C64.1839 38.4638 64.2236 38.4826 64.2585 38.5085C64.2934 38.5344 64.3229 38.5669 64.3453 38.6043C64.3676 38.6416 64.3824 38.6829 64.3888 38.7259C64.3951 38.769 64.393 38.8128 64.3824 38.855C64.3718 38.8972 64.353 38.9369 64.3271 38.9718C64.3012 39.0067 64.2687 39.0362 64.2313 39.0586L58.4829 42.6328L65.0982 38.8129C65.1736 38.7677 65.2638 38.7544 65.349 38.7757C65.4342 38.7971 65.5074 38.8514 65.5525 38.9268C65.5977 39.0021 65.611 39.0923 65.5897 39.1775C65.5683 39.2627 65.514 39.3359 65.4386 39.3811L58.7392 43.5381L66.2592 39.1963C66.3344 39.1523 66.424 39.1398 66.5084 39.1617C66.5928 39.1835 66.6651 39.2379 66.7095 39.3129C66.754 39.3877 66.7673 39.4771 66.7466 39.5616C66.726 39.6462 66.6729 39.7193 66.5989 39.7652L59.8479 43.9348L67.3115 39.6261C67.3869 39.581 67.4771 39.5676 67.5623 39.589C67.6475 39.6103 67.7207 39.6647 67.7658 39.74C67.811 39.8154 67.8243 39.9056 67.803 39.9908C67.7816 40.076 67.7273 40.1492 67.6519 40.1943L58.2598 46.0275L68.4241 40.1599C68.4991 40.1179 68.5876 40.1067 68.6707 40.1287C68.7538 40.1507 68.8252 40.2042 68.8695 40.2778C68.9139 40.3515 68.9279 40.4395 68.9086 40.5233C68.8892 40.6071 68.838 40.6801 68.7658 40.7268L55.6717 48.9593L69.6811 40.8712C69.7563 40.8259 69.8465 40.8123 69.9318 40.8335C70.017 40.8546 70.0904 40.9088 70.1357 40.9841C70.181 41.0593 70.1946 41.1495 70.1734 41.2348C70.1522 41.32 70.0981 41.3934 70.0228 41.4387L56.6604 49.7997L70.8115 41.6295C70.8489 41.6071 70.8902 41.5923 70.9332 41.5859C70.9762 41.5796 71.0201 41.5817 71.0623 41.5923C71.1045 41.6029 71.1442 41.6217 71.1791 41.6476C71.214 41.6735 71.2435 41.7061 71.2659 41.7434C71.2882 41.7807 71.303 41.822 71.3094 41.865C71.3157 41.9081 71.3136 41.9519 71.303 41.9941C71.2924 42.0363 71.2736 42.076 71.2477 42.1109C71.2218 42.1458 71.1893 42.1753 71.1519 42.1977L59.3174 49.5242L71.7493 42.3467C71.7867 42.3245 71.8281 42.3098 71.8712 42.3036C71.9142 42.2974 71.9581 42.2997 72.0002 42.3104C72.0424 42.3212 72.082 42.3401 72.1168 42.3661C72.1517 42.3922 72.1811 42.4248 72.2033 42.4622C72.2255 42.4996 72.2401 42.541 72.2464 42.5841C72.2526 42.6272 72.2502 42.671 72.2395 42.7132C72.2288 42.7553 72.2099 42.795 72.1838 42.8298C72.1578 42.8646 72.1251 42.894 72.0877 42.9162L64.2817 47.6812L72.4619 42.9586C72.5371 42.9153 72.6263 42.9032 72.7103 42.9249C72.7943 42.9467 72.8664 43.0005 72.9111 43.0749C72.9558 43.1493 72.9695 43.2383 72.9493 43.3226C72.9291 43.407 72.8765 43.4801 72.803 43.5262L57.577 53.0415L73.4215 43.8944C73.4969 43.8492 73.587 43.8359 73.6722 43.8572C73.7574 43.8786 73.8307 43.9329 73.8758 44.0083C73.921 44.0836 73.9343 44.1738 73.9129 44.259C73.8916 44.3442 73.8373 44.4175 73.7619 44.4626L59.2247 53.4971L74.2566 44.8189C74.3318 44.7755 74.421 44.7634 74.505 44.7852C74.589 44.8069 74.6611 44.8608 74.7058 44.9352C74.7505 45.0096 74.7643 45.0985 74.744 45.1829C74.7238 45.2673 74.6712 45.3404 74.5977 45.3864L58.6631 55.3342L75.0765 45.858C75.1518 45.814 75.2415 45.8016 75.3259 45.8236C75.4102 45.8456 75.4825 45.9001 75.5268 45.9752C75.5712 46.0502 75.5843 46.1396 75.5634 46.2242C75.5424 46.3088 75.4891 46.3818 75.4149 46.4275L64.4188 53.1647L75.6474 46.6825C75.8043 46.5904 76.005 46.6441 76.0977 46.7997C76.1904 46.9553 76.1401 47.1573 75.9858 47.252L65.8671 53.4362L76.1533 47.4977C76.2288 47.4528 76.3191 47.4398 76.4042 47.4615C76.4894 47.4832 76.5624 47.5378 76.6073 47.6133C76.6522 47.6888 76.6652 47.7791 76.6435 47.8642C76.6219 47.9493 76.5673 48.0224 76.4917 48.0673L67.1248 53.7812L76.603 48.309C76.6784 48.2649 76.7683 48.2525 76.8529 48.2746C76.9374 48.2967 77.0098 48.3515 77.054 48.4269C77.0982 48.502 77.1111 48.5916 77.09 48.6762C77.0688 48.7608 77.0152 48.8337 76.9407 48.8792L69.3996 53.4614L76.9864 49.0818C77.0239 49.0597 77.0653 49.0452 77.1084 49.039C77.1514 49.0329 77.1953 49.0353 77.2374 49.0462C77.2795 49.057 77.3191 49.076 77.3539 49.1021C77.3887 49.1282 77.4179 49.161 77.4401 49.1984C77.4622 49.2358 77.4768 49.2773 77.4829 49.3203C77.489 49.3634 77.4866 49.4072 77.4758 49.4494C77.4649 49.4915 77.4459 49.5311 77.4198 49.5658C77.3937 49.6006 77.361 49.6299 77.3235 49.652L73.1016 52.2037L77.299 49.7805C77.3741 49.741 77.4616 49.7318 77.5433 49.7548C77.625 49.7778 77.6948 49.8312 77.7383 49.9041C77.7818 49.9769 77.7958 50.0637 77.7772 50.1466C77.7587 50.2294 77.7092 50.302 77.6388 50.3494L64.4605 58.472L77.6997 50.8282C77.7752 50.7833 77.8655 50.7703 77.9506 50.792C78.0357 50.8137 78.1088 50.8683 78.1537 50.9438C78.1985 51.0193 78.2116 51.1096 78.1899 51.1947C78.1682 51.2798 78.1136 51.3529 78.0381 51.3978L67.1771 58.0309L78.0063 51.7792C78.0818 51.7351 78.1716 51.7227 78.2562 51.7448C78.3408 51.7669 78.4131 51.8217 78.4573 51.8971C78.5015 51.9723 78.5145 52.0618 78.4933 52.1464C78.4721 52.2311 78.4185 52.304 78.3441 52.3494L68.5784 58.2839L78.252 52.6984C78.3275 52.6535 78.4177 52.6403 78.5028 52.6619C78.5879 52.6834 78.661 52.7379 78.706 52.8133C78.751 52.8888 78.7641 52.979 78.7426 53.0641C78.721 53.1493 78.6665 53.2224 78.5911 53.2673L62.524 63.1562L78.505 53.9296C78.5803 53.8844 78.6705 53.8711 78.7557 53.8924C78.8409 53.9138 78.9142 53.9681 78.9593 54.0435C79.0044 54.1188 79.0178 54.209 78.9964 54.2942C78.9751 54.3794 78.9207 54.4527 78.8454 54.4978L62.4062 64.7105L78.6951 55.3064C78.7703 55.2611 78.8605 55.2475 78.9458 55.2687C79.031 55.2899 79.1044 55.3441 79.1497 55.4193C79.195 55.4946 79.2086 55.5848 79.1874 55.67C79.1662 55.7553 79.112 55.8286 79.0368 55.874L65.5082 64.3469L78.7759 56.6872C78.8511 56.6431 78.9408 56.6306 79.0253 56.6526C79.1097 56.6746 79.182 56.7292 79.2262 56.8044C79.2705 56.8795 79.2837 56.9689 79.2627 57.0535C79.2418 57.1381 79.1885 57.2111 79.1143 57.2568L72.6924 61.1886L78.7785 57.6746C78.8539 57.6294 78.9441 57.616 79.0294 57.6373C79.1146 57.6586 79.1879 57.7129 79.2331 57.7882C79.2784 57.8636 79.2918 57.9538 79.2705 58.0391C79.2492 58.1243 79.1949 58.1976 79.1196 58.2429L68.9062 64.5986L78.7123 58.9369C78.7877 58.8919 78.8779 58.8788 78.9631 58.9003C79.0482 58.9219 79.1213 58.9764 79.1663 59.0518C79.2112 59.1272 79.2244 59.2175 79.2028 59.3026C79.1813 59.3877 79.1268 59.4608 79.0514 59.5058L73.5189 62.9045L78.5871 59.9786C78.6621 59.9348 78.7514 59.9224 78.8355 59.9441C78.9196 59.9658 78.9917 60.0199 79.0361 60.0945C79.0811 60.1687 79.0951 60.2575 79.0751 60.3419C79.0552 60.4262 79.0029 60.4994 78.9295 60.5455L69.046 66.7615L78.3275 61.4032C78.4028 61.3578 78.493 61.3443 78.5782 61.3655C78.6635 61.3866 78.7368 61.4408 78.7822 61.5161C78.8275 61.5913 78.841 61.6815 78.8199 61.7668C78.7987 61.852 78.7445 61.9254 78.6692 61.9707L70.6347 67.0178L77.9606 62.7879C78.0356 62.744 78.1247 62.7313 78.209 62.7525C78.2932 62.7738 78.3657 62.8272 78.4109 62.9014C78.456 62.9756 78.4702 63.0646 78.4504 63.1491C78.4306 63.2337 78.3784 63.3071 78.305 63.3535L69.4943 68.9946L77.3725 64.4462C77.4472 64.4015 77.5365 64.388 77.6211 64.4086C77.7057 64.4292 77.7788 64.4824 77.8245 64.5565C77.8702 64.6306 77.8849 64.7197 77.8654 64.8045C77.8459 64.8894 77.7937 64.9631 77.7202 65.0098L69.3009 70.5271L76.4454 66.4025C76.52 66.3563 76.61 66.3415 76.6955 66.3616C76.781 66.3816 76.8551 66.4349 76.9013 66.5095C76.9476 66.5841 76.9624 66.6741 76.9423 66.7596C76.9222 66.8451 76.869 66.9192 76.7944 66.9655L70.8751 70.8834L75.1871 68.394C75.2609 68.3508 75.3486 68.3379 75.4318 68.358C75.5149 68.3781 75.5871 68.4295 75.6331 68.5016C75.6792 68.5737 75.6956 68.6608 75.6788 68.7446C75.6621 68.8285 75.6136 68.9027 75.5434 68.9516L71.2712 71.9562L72.942 70.992C72.9796 70.9701 73.0212 70.9558 73.0644 70.9501C73.1075 70.9443 73.1514 70.9471 73.1934 70.9584C73.2355 70.9696 73.2749 70.9891 73.3094 71.0157C73.3438 71.0423 73.3727 71.0754 73.3943 71.1132C73.4163 71.1508 73.4305 71.1924 73.4363 71.2355C73.4421 71.2787 73.4392 71.3225 73.428 71.3646C73.4167 71.4066 73.3972 71.446 73.3706 71.4805C73.3441 71.515 73.3109 71.5439 73.2732 71.5655L65.1929 76.2311C65.1191 76.2743 65.0314 76.2871 64.9483 76.2671C64.8651 76.247 64.793 76.1956 64.7469 76.1235C64.7008 76.0514 64.6845 75.9643 64.7012 75.8804C64.7179 75.7965 64.7665 75.7224 64.8366 75.6735L69.1122 72.6662L61.8267 76.8722C61.752 76.9185 61.6621 76.9332 61.5766 76.9131C61.491 76.8931 61.417 76.8399 61.3707 76.7652C61.3244 76.6906 61.3097 76.6006 61.3298 76.5151C61.3498 76.4296 61.403 76.3555 61.4777 76.3093L67.3956 72.3927L59.4916 76.9556C59.4413 76.9849 59.3841 77.0002 59.326 77L59.3227 76.9874Z" fill="#46A0DD"/>
<path d="M51.1061 69.7132C51.0347 69.7134 50.9651 69.6904 50.9077 69.6478C50.8504 69.6052 50.8084 69.5451 50.788 69.4767C50.7676 69.4082 50.7699 69.335 50.7945 69.2679C50.8191 69.2009 50.8648 69.1436 50.9246 69.1046L60.1764 63.0555L49.6213 69.149C49.5459 69.1939 49.4557 69.2071 49.3705 69.1855C49.2854 69.164 49.2123 69.1095 49.1673 69.0341C49.1224 68.9586 49.1092 68.8684 49.1308 68.7833C49.1523 68.6981 49.2068 68.625 49.2822 68.5801L50.2895 67.9595L49.3657 68.4927C49.2905 68.535 49.2017 68.5464 49.1182 68.5242C49.0348 68.5021 48.9633 68.4482 48.9189 68.3741C48.8746 68.3 48.861 68.2115 48.881 68.1275C48.901 68.0435 48.953 67.9707 49.0259 67.9244L51.6379 66.3085L49.3544 67.6264C49.2792 67.6688 49.1904 67.6801 49.1069 67.658C49.0235 67.6358 48.952 67.582 48.9077 67.5079C48.8634 67.4338 48.8498 67.3453 48.8698 67.2613C48.8897 67.1773 48.9417 67.1044 49.0147 67.0582L51.7266 65.38L49.3544 66.7489C49.2791 66.7941 49.1889 66.8074 49.1037 66.7861C49.0185 66.7647 48.9453 66.7104 48.9001 66.635C48.855 66.5597 48.8416 66.4695 48.863 66.3843C48.8843 66.2991 48.9387 66.2259 49.014 66.1807L52.1591 64.2317L49.3538 65.8509C49.2786 65.8943 49.1894 65.9064 49.1054 65.8846C49.0213 65.8629 48.9492 65.809 48.9045 65.7346C48.8598 65.6602 48.8461 65.5713 48.8663 65.4869C48.8866 65.4025 48.9391 65.3294 49.0127 65.2834L53.5472 62.4562L49.3531 64.8774C49.2779 64.9228 49.1878 64.9365 49.1025 64.9154C49.0173 64.8944 48.9439 64.8403 48.8985 64.7651C48.8531 64.69 48.8394 64.5998 48.8604 64.5146C48.8815 64.4293 48.9355 64.3559 49.0107 64.3105L55.5902 60.1555L49.3531 63.7562C49.1975 63.8482 48.9975 63.7959 48.9041 63.6416C48.8107 63.4873 48.8577 63.2873 49.0094 63.19L55.971 58.7581L49.3524 62.5794C49.2776 62.6219 49.1892 62.6337 49.1059 62.6122C49.0226 62.5907 48.9509 62.5376 48.906 62.4642C48.8612 62.3907 48.8467 62.3027 48.8656 62.2188C48.8845 62.1348 48.9354 62.0616 49.0074 62.0145L56.5207 57.174L49.3518 61.3131C49.2771 61.3579 49.1878 61.3714 49.1032 61.3507C49.0186 61.3301 48.9455 61.277 48.8998 61.2029C48.8541 61.1288 48.8394 61.0397 48.8589 60.9548C48.8785 60.87 48.9306 60.7962 49.0041 60.7495L57.4181 55.2177L49.3504 59.8747C49.2753 59.9201 49.1851 59.9338 49.0999 59.9127C49.0146 59.8917 48.9412 59.8376 48.8958 59.7624C48.8504 59.6873 48.8367 59.5971 48.8578 59.5119C48.8788 59.4266 48.9329 59.3532 49.0081 59.3078L52.016 57.4104L49.3498 58.9495C49.2753 58.9938 49.1864 59.0071 49.1022 58.9865C49.018 58.966 48.9453 58.9133 48.8995 58.8397C48.8537 58.7661 48.8386 58.6775 48.8574 58.5929C48.8763 58.5084 48.9275 58.4345 49.0001 58.3873L56.7333 53.2322L49.3491 57.4959C49.2744 57.5406 49.1851 57.5541 49.1005 57.5335C49.016 57.5129 48.9429 57.4597 48.8972 57.3856C48.8515 57.3115 48.8368 57.2224 48.8563 57.1376C48.8758 57.0527 48.9279 56.979 49.0014 56.9323L54.622 53.2495L49.3485 56.2945C49.2736 56.3403 49.1835 56.3544 49.0982 56.3338C49.0129 56.3132 48.9392 56.2595 48.8935 56.1846C48.8477 56.1097 48.8336 56.0197 48.8542 55.9343C48.8748 55.849 48.9285 55.7754 49.0034 55.7296L52.3823 53.5521L49.3478 55.3038C49.1922 55.3952 48.9922 55.3435 48.8988 55.1892C48.8054 55.0349 48.8524 54.8349 49.0041 54.7376L50.4054 53.8448L49.3465 54.4554C49.2719 54.4954 49.1849 54.5054 49.1032 54.4833C49.0216 54.4613 48.9514 54.4089 48.9071 54.3368C48.8628 54.2648 48.8477 54.1785 48.8648 54.0957C48.882 54.0128 48.9301 53.9397 48.9995 53.8912L52.2392 51.7786L49.3465 53.4488C49.272 53.4931 49.1831 53.5063 49.0989 53.4858C49.0147 53.4653 48.9419 53.4126 48.8962 53.339C48.8504 53.2654 48.8353 53.1768 48.8541 53.0922C48.8729 53.0076 48.9242 52.9338 48.9968 52.8865L52.9737 50.2422L49.3452 52.3362C49.2712 52.378 49.184 52.3897 49.1016 52.369C49.0192 52.3483 48.9479 52.2967 48.9025 52.2249C48.8571 52.1531 48.841 52.0666 48.8576 51.9833C48.8741 51.9 48.9221 51.8262 48.9915 51.7773L54.0796 48.256L53.928 48.3435C53.8559 48.3873 53.7698 48.402 53.6873 48.3844C53.6047 48.3669 53.5321 48.3184 53.4841 48.2489C53.4362 48.1795 53.4166 48.0943 53.4295 48.011C53.4423 47.9276 53.4865 47.8522 53.5531 47.8004L58.7433 43.562C58.7357 43.4978 58.7472 43.4328 58.7763 43.3751C58.8054 43.3174 58.8508 43.2696 58.9068 43.2374L59.732 42.7606C59.804 42.7195 59.8889 42.7069 59.9697 42.7253C60.0506 42.7437 60.1216 42.7918 60.1687 42.8601C60.2159 42.9283 60.2356 43.0118 60.2242 43.0939C60.2127 43.1761 60.1708 43.2509 60.1068 43.3037L57.1472 45.7203L60.7572 43.6361C60.8312 43.5944 60.9184 43.5826 61.0007 43.6033C61.0831 43.624 61.1544 43.6756 61.1998 43.7474C61.2452 43.8192 61.2613 43.9057 61.2448 43.989C61.2282 44.0723 61.1803 44.1461 61.1108 44.1951L56.0174 47.7203L61.7002 44.4401C61.7747 44.3959 61.8636 44.3826 61.9478 44.4031C62.032 44.4236 62.1048 44.4763 62.1505 44.5499C62.1963 44.6235 62.2114 44.7121 62.1926 44.7967C62.1738 44.8813 62.1225 44.9551 62.0499 45.0024L58.0817 47.6415L62.4784 45.103C62.5529 45.0631 62.64 45.0531 62.7216 45.0751C62.8033 45.0972 62.8735 45.1496 62.9178 45.2216C62.9621 45.2937 62.9772 45.3799 62.96 45.4628C62.9429 45.5456 62.8947 45.6188 62.8254 45.6673L59.5784 47.7845L63.1824 45.7037C63.2575 45.6581 63.3476 45.6442 63.4329 45.6651C63.5182 45.686 63.5918 45.7399 63.6373 45.815C63.6829 45.89 63.6968 45.9802 63.6759 46.0655C63.6551 46.1508 63.6012 46.2243 63.5261 46.2699L62.136 47.1554L63.7758 46.209C63.8505 46.1664 63.939 46.1546 64.0223 46.1761C64.1056 46.1976 64.1773 46.2507 64.2222 46.3242C64.267 46.3976 64.2815 46.4856 64.2626 46.5696C64.2437 46.6535 64.1928 46.7268 64.1208 46.7739L60.74 48.9534L64.4698 46.8004C64.5445 46.7557 64.6338 46.7421 64.7184 46.7628C64.803 46.7834 64.876 46.8365 64.9217 46.9106C64.9675 46.9847 64.9821 47.0738 64.9626 47.1587C64.9431 47.2435 64.891 47.3173 64.8175 47.364L59.1916 51.0494L65.3102 47.517C65.3847 47.4727 65.4736 47.4594 65.5578 47.4799C65.642 47.5005 65.7147 47.5532 65.7605 47.6268C65.8063 47.7004 65.8214 47.789 65.8025 47.8735C65.7837 47.9581 65.7325 48.032 65.6599 48.0792L57.9267 53.2342L66.3274 48.3845C66.4026 48.3391 66.4927 48.3254 66.578 48.3465C66.6633 48.3675 66.7367 48.4216 66.7821 48.4968C66.8275 48.5719 66.8412 48.6621 66.8201 48.7473C66.7991 48.8326 66.745 48.906 66.6698 48.9514L63.6645 50.8468L66.9745 48.9362C67.0492 48.8914 67.1385 48.8779 67.223 48.8986C67.3076 48.9192 67.3807 48.9723 67.4264 49.0464C67.4721 49.1205 67.4868 49.2096 67.4673 49.2945C67.4478 49.3793 67.3956 49.4531 67.3221 49.4998L58.9101 55.0309L67.9798 49.7945C68.0546 49.7519 68.143 49.7401 68.2263 49.7616C68.3096 49.7831 68.3813 49.8362 68.4262 49.9096C68.471 49.9831 68.4855 50.0711 68.4666 50.155C68.4477 50.239 68.3968 50.3123 68.3248 50.3594L60.8122 55.1992L68.8652 50.5494C68.9403 50.5039 69.0304 50.49 69.1157 50.5108C69.2011 50.5317 69.2746 50.5856 69.3202 50.6607C69.3658 50.7358 69.3796 50.8259 69.3588 50.9112C69.3379 50.9966 69.284 51.0701 69.2089 51.1157L62.2446 55.5495L69.6884 51.2521C69.7636 51.2067 69.8537 51.193 69.939 51.2141C70.0242 51.2351 70.0976 51.2892 70.143 51.3643C70.1884 51.4395 70.2021 51.5297 70.1811 51.6149C70.16 51.7002 70.106 51.7736 70.0308 51.819L63.4559 55.972L70.1771 52.0918C70.2523 52.0485 70.3415 52.0364 70.4255 52.0581C70.5096 52.0799 70.5817 52.1337 70.6264 52.2081C70.6711 52.2825 70.6848 52.3715 70.6646 52.4559C70.6443 52.5403 70.5918 52.6134 70.5182 52.6594L65.9791 55.4886L70.1771 53.0654C70.2525 53.0202 70.3427 53.0069 70.4279 53.0282C70.5131 53.0496 70.5863 53.1039 70.6315 53.1793C70.6766 53.2546 70.69 53.3448 70.6686 53.43C70.6472 53.5152 70.5929 53.5884 70.5175 53.6336L67.3665 55.5866L70.1771 53.964C70.2524 53.9217 70.3412 53.9103 70.4246 53.9325C70.5081 53.9546 70.5796 54.0085 70.6239 54.0826C70.6682 54.1567 70.6818 54.2452 70.6618 54.3292C70.6418 54.4132 70.5898 54.4861 70.5169 54.5323L67.8188 56.2018L70.1778 54.8402C70.253 54.7978 70.3418 54.7865 70.4253 54.8087C70.5087 54.8308 70.5802 54.8847 70.6245 54.9588C70.6688 55.0329 70.6825 55.1214 70.6625 55.2054C70.6425 55.2894 70.5905 55.3622 70.5175 55.4084L67.9029 57.0263L70.1785 55.7131C70.2539 55.6681 70.3441 55.6549 70.4293 55.6765C70.5144 55.698 70.5875 55.7525 70.6324 55.828C70.6774 55.9034 70.6906 55.9936 70.669 56.0788C70.6475 56.1639 70.593 56.237 70.5175 56.2819L69.4957 56.9111L70.1785 56.517C70.253 56.4771 70.34 56.4671 70.4217 56.4891C70.5034 56.5112 70.5735 56.5636 70.6179 56.6357C70.6622 56.7077 70.6773 56.794 70.6601 56.8768C70.643 56.9596 70.5948 57.0328 70.5255 57.0813L61.2751 63.1297L70.1785 57.9892C70.2531 57.943 70.3431 57.9282 70.4286 57.9483C70.5141 57.9683 70.5882 58.0216 70.6344 58.0962C70.6807 58.1708 70.6954 58.2608 70.6754 58.3463C70.6553 58.4318 70.6021 58.5059 70.5275 58.5522L62.6453 63.7827L70.1791 59.4336C70.2541 59.3897 70.3433 59.377 70.4275 59.3982C70.5117 59.4195 70.5842 59.4729 70.6294 59.5471C70.6745 59.6213 70.6888 59.7103 70.669 59.7948C70.6492 59.8794 70.5969 59.9528 70.5235 59.9992L67.5255 61.9198L70.1798 60.3879C70.254 60.3456 70.3418 60.3337 70.4247 60.3545C70.5075 60.3754 70.5791 60.4275 70.6245 60.5C70.6698 60.5724 70.6854 60.6596 70.6679 60.7433C70.6504 60.8269 70.6013 60.9006 70.5308 60.9489L65.4148 64.4052L70.1791 61.6548C70.2527 61.6072 70.3423 61.5907 70.428 61.609C70.5138 61.6273 70.5887 61.6789 70.6364 61.7525C70.6841 61.8261 70.7006 61.9156 70.6823 62.0014C70.664 62.0872 70.6123 62.1621 70.5387 62.2098L65.495 65.8536L70.1791 63.1496C70.2529 63.1077 70.34 63.0957 70.4224 63.1162C70.5047 63.1367 70.5761 63.188 70.6217 63.2595C70.6673 63.3311 70.6838 63.4174 70.6676 63.5007C70.6514 63.584 70.6039 63.6579 70.5348 63.7072L68.189 65.3536L70.1791 64.2052C70.2519 64.164 70.3376 64.1519 70.419 64.1713C70.5004 64.1907 70.5714 64.2402 70.6178 64.3098C70.6642 64.3794 70.6825 64.464 70.669 64.5466C70.6556 64.6291 70.6114 64.7036 70.5454 64.7549L68.2619 66.4933L70.1798 65.3867C70.2526 65.3455 70.3383 65.3334 70.4197 65.3528C70.501 65.3722 70.5721 65.4216 70.6184 65.4913C70.6648 65.5609 70.6831 65.6455 70.6697 65.728C70.6563 65.8106 70.6121 65.885 70.546 65.9363L69.8162 66.492L70.1798 66.2827C70.2486 66.2429 70.3294 66.2291 70.4075 66.2439C70.4855 66.2588 70.5557 66.3012 70.6051 66.3634C70.6545 66.4257 70.6799 66.5036 70.6766 66.583C70.6733 66.6625 70.6415 66.738 70.5871 66.796L69.4798 67.9741L70.1805 67.5701C70.2479 67.5314 70.3268 67.5177 70.4034 67.5313C70.48 67.5449 70.5493 67.5851 70.5993 67.6447C70.6492 67.7044 70.6765 67.7797 70.6765 67.8575C70.6764 67.9353 70.649 68.0106 70.599 68.0701L70.2844 68.4423C70.3416 68.4659 70.391 68.5051 70.427 68.5555C70.463 68.6058 70.4841 68.6652 70.4879 68.727C70.4917 68.7887 70.478 68.8503 70.4485 68.9046C70.4189 68.959 70.3747 69.004 70.3209 69.0344L69.2228 69.6682C69.1554 69.7069 69.0764 69.7207 68.9999 69.707C68.9233 69.6934 68.854 69.6532 68.804 69.5936C68.7541 69.5339 68.7268 69.4586 68.7268 69.3808C68.7269 69.303 68.7543 69.2278 68.8043 69.1682L68.8692 69.0913L67.8672 69.6695C67.7984 69.7093 67.7176 69.7231 67.6395 69.7083C67.5614 69.6934 67.4913 69.651 67.4419 69.5888C67.3925 69.5265 67.3671 69.4486 67.3704 69.3692C67.3737 69.2897 67.4055 69.2142 67.4599 69.1562L68.5665 67.9788L65.6367 69.6702C65.5639 69.7114 65.4782 69.7235 65.3968 69.7041C65.3155 69.6847 65.2444 69.6352 65.1981 69.5656C65.1517 69.496 65.1334 69.4114 65.1468 69.3288C65.1602 69.2462 65.2044 69.1718 65.2705 69.1205L66.0003 68.5648L64.085 69.6702C64.0122 69.7114 63.9265 69.7235 63.8452 69.7041C63.7638 69.6847 63.6928 69.6352 63.6464 69.5656C63.6 69.496 63.5817 69.4114 63.5951 69.3288C63.6086 69.2462 63.6527 69.1718 63.7188 69.1205L66.0016 67.3821L62.0387 69.6702C61.9648 69.712 61.8778 69.724 61.7954 69.7035C61.7131 69.6831 61.6417 69.6318 61.5961 69.5602C61.5504 69.4887 61.534 69.4023 61.5502 69.319C61.5664 69.2357 61.6139 69.1618 61.683 69.1125L64.0314 67.4642L60.2095 69.6702C60.136 69.7123 60.0491 69.7247 59.9668 69.7048C59.8844 69.6849 59.8129 69.6341 59.7668 69.563C59.7207 69.4919 59.7036 69.4059 59.7191 69.3225C59.7346 69.2392 59.7814 69.165 59.8499 69.1152L64.8943 65.4714L57.6207 69.6702C57.5463 69.7167 57.4565 69.7318 57.371 69.7121C57.2855 69.6924 57.2113 69.6396 57.1648 69.5652C57.1182 69.4908 57.1031 69.401 57.1228 69.3155C57.1425 69.23 57.1953 69.1558 57.2697 69.1092L62.3844 65.6536L55.428 69.6695C55.3531 69.7134 55.2639 69.7261 55.1796 69.7049C55.0954 69.6837 55.0229 69.6302 54.9777 69.556C54.9326 69.4818 54.9184 69.3929 54.9382 69.3083C54.958 69.2237 55.0102 69.1503 55.0836 69.1039L58.0823 67.1827L53.775 69.6695C53.738 69.6924 53.6969 69.7078 53.654 69.7148C53.6111 69.7219 53.5672 69.7204 53.5249 69.7105C53.4825 69.7005 53.4426 69.6823 53.4072 69.657C53.3719 69.6316 53.3419 69.5995 53.319 69.5625C53.2961 69.5256 53.2807 69.4845 53.2737 69.4415C53.2666 69.3986 53.2681 69.3547 53.2781 69.3124C53.2981 69.2269 53.3513 69.1529 53.426 69.1066L61.3062 63.8774L51.2736 69.6695C51.2234 69.6987 51.1662 69.7141 51.1081 69.7139L51.1061 69.7132Z" fill="#D9E1E5"/>
<path d="M68.1387 50.3362C68.0909 50.3362 68.0436 50.3258 68.0001 50.3058C67.9566 50.2858 67.918 50.2566 67.8869 50.2202C67.8558 50.1838 67.833 50.1411 67.82 50.095C67.807 50.049 67.8041 50.0006 67.8116 49.9534L67.9195 49.2726L67.444 49.5467C67.3793 49.5848 67.3034 49.5994 67.2291 49.5882C67.1549 49.577 67.0867 49.5406 67.0361 49.4852C66.9849 49.4304 66.9539 49.3598 66.9483 49.285C66.9426 49.2102 66.9626 49.1358 67.0049 49.0739L67.2672 48.6871L66.7778 48.9699C66.7116 49.008 66.6343 49.022 66.559 49.0095C66.4836 48.9971 66.4149 48.9591 66.3644 48.9018C66.3139 48.8445 66.2848 48.7716 66.2819 48.6953C66.279 48.619 66.3026 48.5441 66.3486 48.4832L67.1023 47.4884L65.8818 48.1924C65.8133 48.2307 65.7335 48.2434 65.6566 48.2285C65.5796 48.2135 65.5105 48.1718 65.4613 48.1107C65.4122 48.0496 65.3863 47.973 65.3882 47.8947C65.3902 47.8163 65.4198 47.7411 65.4718 47.6825L66.5619 46.4951L64.9764 47.4103C64.9072 47.4503 64.8258 47.4638 64.7474 47.4484C64.6689 47.4331 64.5986 47.3899 64.5496 47.3267C64.5005 47.2636 64.4759 47.1849 64.4804 47.105C64.4848 47.0252 64.518 46.9497 64.5738 46.8924L65.0486 46.4063L64.5864 46.6725C64.5254 46.7076 64.4548 46.7225 64.3849 46.715C64.3149 46.7075 64.2492 46.678 64.197 46.6308C64.1452 46.5832 64.1099 46.5203 64.0962 46.4512C64.0825 46.3822 64.0911 46.3105 64.1208 46.2467L64.4049 45.6361C64.3342 45.631 64.267 45.6033 64.2133 45.557C64.1595 45.5107 64.1222 45.4483 64.1067 45.3791C64.0912 45.3099 64.0985 45.2375 64.1274 45.1727C64.1563 45.108 64.2053 45.0543 64.2672 45.0196L64.938 44.6321C64.9991 44.5972 65.0696 44.5824 65.1395 44.5899C65.2094 44.5974 65.2752 44.6268 65.3274 44.6739C65.4334 44.7712 65.4645 44.9268 65.4036 45.058L65.1639 45.5745L66.7977 44.6315C66.8669 44.5915 66.9483 44.578 67.0267 44.5933C67.1052 44.6087 67.1755 44.6519 67.2245 44.715C67.2736 44.7782 67.2982 44.8569 67.2937 44.9367C67.2893 45.0166 67.2561 45.0921 67.2003 45.1494L66.7255 45.6355L68.103 44.8407C68.1714 44.8025 68.2512 44.7897 68.3281 44.8047C68.4051 44.8197 68.4743 44.8614 68.5234 44.9225C68.5725 44.9836 68.5984 45.0601 68.5965 45.1385C68.5946 45.2169 68.565 45.2921 68.5129 45.3507L67.4222 46.5381L68.1904 46.0951C68.2566 46.057 68.3339 46.043 68.4092 46.0554C68.4845 46.0679 68.5533 46.1059 68.6037 46.1632C68.6542 46.2204 68.6834 46.2934 68.6863 46.3697C68.6891 46.446 68.6656 46.5209 68.6195 46.5818L67.8659 47.5765L68.1897 47.3898C68.2545 47.3518 68.3303 47.3371 68.4046 47.3483C68.4789 47.3596 68.547 47.3959 68.5977 47.4514C68.703 47.5639 68.7162 47.7355 68.6288 47.8626L68.3261 48.3083C68.3763 48.3039 68.4267 48.3109 68.4737 48.3289C68.5207 48.3469 68.563 48.3754 68.5974 48.4121C68.6317 48.4489 68.6572 48.493 68.672 48.5411C68.6867 48.5892 68.6903 48.6401 68.6824 48.6898L68.5374 49.6024C68.5846 49.6334 68.6231 49.676 68.6492 49.7262C68.6753 49.7763 68.6881 49.8323 68.6865 49.8888C68.6848 49.9453 68.6687 50.0004 68.6397 50.0489C68.6107 50.0974 68.5698 50.1377 68.5209 50.166L68.3043 50.2911C68.2537 50.3202 68.1964 50.3355 68.1381 50.3355L68.1387 50.3362Z" fill="#D9E1E5"/>
<path d="M55.8166 69.7317C55.7466 69.7319 55.6784 69.71 55.6217 69.669C55.565 69.628 55.5227 69.5701 55.501 69.5036C55.4792 69.4372 55.479 69.3655 55.5005 69.2989C55.522 69.2323 55.564 69.1743 55.6205 69.1331L59.2954 66.4403L55.3152 68.7377C55.242 68.7846 55.1532 68.8007 55.0682 68.7825C54.9832 68.7644 54.9087 68.7135 54.8609 68.6408C54.8132 68.5681 54.796 68.4796 54.8131 68.3943C54.8302 68.3091 54.8802 68.234 54.9523 68.1854L59.5835 64.7449L55.3152 67.2092C55.2414 67.2511 55.1544 67.263 55.072 67.2425C54.9897 67.2221 54.9183 67.1708 54.8727 67.0992C54.827 67.0277 54.8106 66.9414 54.8268 66.8581C54.843 66.7747 54.8905 66.7008 54.9596 66.6516L58.0888 64.4542L55.3152 66.0549C55.241 66.0972 55.1533 66.1092 55.0704 66.0883C54.9875 66.0674 54.9159 66.0153 54.8706 65.9428C54.8253 65.8704 54.8097 65.7832 54.8271 65.6996C54.8446 65.6159 54.8937 65.5422 54.9643 65.4939L56.4364 64.4992L55.3159 65.1463C55.2417 65.1886 55.1539 65.2005 55.071 65.1797C54.9882 65.1588 54.9166 65.1067 54.8713 65.0342C54.8259 64.9618 54.8103 64.8746 54.8278 64.7909C54.8453 64.7073 54.8944 64.6336 54.9649 64.5853L56.4239 63.5959L55.3159 64.235C55.243 64.2774 55.1566 64.2904 55.0744 64.2713C54.9923 64.2522 54.9205 64.2025 54.8737 64.1322C54.827 64.062 54.8088 63.9766 54.8229 63.8934C54.8371 63.8102 54.8824 63.7355 54.9497 63.6847L58.3802 61.0807L55.3159 62.8495C55.2425 62.8891 55.1568 62.8996 55.076 62.8788C54.9952 62.858 54.9251 62.8076 54.8799 62.7375C54.8346 62.6674 54.8174 62.5828 54.8317 62.5006C54.846 62.4184 54.8907 62.3446 54.957 62.2939L55.6623 61.7873L55.3159 61.9873C55.243 62.0282 55.1572 62.04 55.0759 62.0203C54.9946 62.0007 54.9238 61.9509 54.8776 61.8811C54.8315 61.8113 54.8135 61.7267 54.8272 61.6442C54.841 61.5616 54.8854 61.4874 54.9517 61.4363L55.2861 61.1846C55.213 61.2171 55.1306 61.2221 55.0541 61.1985C54.9777 61.175 54.9123 61.1245 54.8702 61.0565C54.828 60.9885 54.8119 60.9076 54.8248 60.8286C54.8377 60.7496 54.8788 60.678 54.9404 60.627L55.2225 60.3946C55.1579 60.4092 55.0903 60.404 55.0286 60.3798C54.9669 60.3555 54.9139 60.3132 54.8765 60.2584C54.8392 60.2036 54.8192 60.1389 54.8191 60.0726C54.819 60.0063 54.8389 59.9415 54.8762 59.8866L55.3888 59.1257C55.3119 59.139 55.2328 59.1246 55.1655 59.0851C55.0982 59.0455 55.0471 58.9834 55.0213 58.9098C54.9955 58.8362 54.9966 58.7558 55.0245 58.6829C55.0524 58.61 55.1052 58.5494 55.1735 58.5118L56.2702 57.8786C56.3349 57.8408 56.4105 57.8263 56.4846 57.8374C56.5587 57.8484 56.6267 57.8845 56.6775 57.9396C56.7828 58.0521 56.7967 58.223 56.71 58.3502L56.2265 59.0681L58.2894 57.8773C58.3613 57.8372 58.4455 57.8253 58.5256 57.8439C58.6058 57.8625 58.6761 57.9102 58.723 57.9778C58.7698 58.0454 58.7899 58.1281 58.7791 58.2096C58.7684 58.2912 58.7277 58.3658 58.6649 58.419L58.4557 58.5919L59.6941 57.8773C59.8444 57.7879 60.0391 57.8349 60.1358 57.9813C60.2325 58.1276 60.1987 58.3237 60.0583 58.4283L59.7358 58.6714L61.1113 57.8773C61.1849 57.8346 61.2721 57.8219 61.3548 57.8418C61.4375 57.8617 61.5094 57.9126 61.5556 57.9841C61.6017 58.0555 61.6186 58.142 61.6027 58.2256C61.5869 58.3092 61.5394 58.3834 61.4703 58.4329L60.765 58.9396L62.6047 57.8773C62.6776 57.8349 62.764 57.8219 62.8462 57.841C62.9284 57.8601 63.0002 57.9098 63.0469 57.9801C63.0936 58.0503 63.1118 58.1358 63.0977 58.2189C63.0836 58.3021 63.0382 58.3768 62.971 58.4277L59.5398 61.0323L63.9955 58.4601C64.0323 58.4371 64.0733 58.4215 64.1162 58.4143C64.159 58.4071 64.2028 58.4084 64.2452 58.4182C64.2875 58.4279 64.3275 58.4459 64.3629 58.4711C64.3983 58.4963 64.4284 58.5282 64.4514 58.5651C64.4745 58.6019 64.49 58.6429 64.4972 58.6858C64.5044 58.7286 64.5031 58.7725 64.4934 58.8148C64.4836 58.8571 64.4656 58.8971 64.4404 58.9325C64.4152 58.9679 64.3833 58.998 64.3465 59.021L62.8968 60.0045L64.2167 59.2429C64.2909 59.2006 64.3786 59.1886 64.4615 59.2095C64.5444 59.2304 64.616 59.2825 64.6613 59.3549C64.7067 59.4274 64.7222 59.5146 64.7048 59.5982C64.6873 59.6819 64.6382 59.7555 64.5677 59.8038L63.0915 60.8018L64.2186 60.1515C64.2925 60.1096 64.3795 60.0977 64.4619 60.1182C64.5442 60.1386 64.6156 60.1899 64.6612 60.2615C64.7069 60.333 64.7233 60.4193 64.7071 60.5026C64.6909 60.586 64.6434 60.6599 64.5743 60.7091L61.4438 62.9078L64.2206 61.3045C64.2938 61.2629 64.38 61.2507 64.4618 61.2704C64.5436 61.2901 64.6148 61.3402 64.661 61.4105C64.7072 61.4808 64.7249 61.5661 64.7105 61.649C64.6961 61.7319 64.6507 61.8062 64.5836 61.8568L59.9504 65.2986L64.2239 62.8317C64.2973 62.7893 64.384 62.7766 64.4664 62.7963C64.5488 62.8159 64.6205 62.8664 64.6668 62.9373C64.7131 63.0082 64.7305 63.0942 64.7154 63.1775C64.7003 63.2608 64.6538 63.3352 64.5855 63.3853L60.9133 66.0761L64.2266 64.1635C64.2996 64.1222 64.3856 64.1102 64.4672 64.1299C64.5487 64.1496 64.6197 64.1995 64.6659 64.2696C64.7121 64.3396 64.7299 64.4246 64.7159 64.5073C64.7018 64.59 64.6569 64.6643 64.5902 64.7151L62.4723 66.2959L64.2286 65.2827C64.3009 65.2422 64.3858 65.2303 64.4664 65.2493C64.5471 65.2683 64.6177 65.3169 64.6643 65.3854C64.7109 65.454 64.7301 65.5375 64.7181 65.6195C64.706 65.7015 64.6637 65.7761 64.5994 65.8284L63.2935 66.8655L64.2299 66.3251C64.2969 66.2874 64.3749 66.2742 64.4506 66.2877C64.5263 66.3012 64.595 66.3405 64.6448 66.399C64.6947 66.4575 64.7228 66.5315 64.7241 66.6084C64.7255 66.6852 64.7002 66.7602 64.6524 66.8204L63.5292 68.1999L64.2332 67.794C64.2896 67.7614 64.3542 67.7462 64.4192 67.7502C64.4841 67.7542 64.5465 67.7772 64.5984 67.8164C64.6503 67.8556 64.6896 67.9093 64.7112 67.9707C64.7328 68.032 64.7359 68.0984 64.72 68.1615L64.5365 68.8887C64.592 68.9139 64.6394 68.9539 64.6737 69.0042C64.7079 69.0545 64.7277 69.1133 64.7309 69.1741C64.734 69.2349 64.7204 69.2955 64.6915 69.3491C64.6626 69.4027 64.6195 69.4473 64.567 69.4781L64.2352 69.6695C64.1789 69.7027 64.1141 69.7185 64.0488 69.7148C63.9836 69.7111 63.9209 69.6881 63.8687 69.6487C63.8166 69.6093 63.7773 69.5553 63.7559 69.4936C63.7345 69.4319 63.7319 69.3651 63.7484 69.3019L63.8855 68.7602L62.3007 69.6748C62.2337 69.7133 62.1553 69.7273 62.0792 69.7141C62.003 69.7009 61.9338 69.6615 61.8836 69.6027C61.8335 69.5439 61.8054 69.4693 61.8045 69.392C61.8035 69.3147 61.8296 69.2395 61.8782 69.1794L63.0014 67.7999L59.7444 69.6801C59.6721 69.7206 59.5872 69.7325 59.5066 69.7135C59.4259 69.6945 59.3553 69.6459 59.3087 69.5773C59.2621 69.5088 59.243 69.4252 59.255 69.3432C59.267 69.2612 59.3093 69.1867 59.3736 69.1344L60.6815 68.096L57.9298 69.6841C57.8568 69.7253 57.7708 69.7373 57.6893 69.7176C57.6077 69.6979 57.5367 69.648 57.4905 69.5779C57.4444 69.5079 57.4265 69.4229 57.4406 69.3402C57.4546 69.2575 57.4996 69.1833 57.5663 69.1324L59.6828 67.5522L55.9821 69.6887C55.9319 69.718 55.8747 69.7333 55.8166 69.7331V69.7317Z" fill="#60433C"/>
<path d="M60.4373 55.0706C60.3714 55.0711 60.3069 55.0519 60.252 55.0153C60.1971 54.9788 60.1545 54.9267 60.1295 54.8657C60.1046 54.8046 60.0985 54.7375 60.112 54.673C60.1256 54.6085 60.1582 54.5496 60.2055 54.5037L60.9036 53.8156L58.9486 54.9441C58.878 54.9846 58.795 54.9977 58.7154 54.9808C58.6357 54.964 58.5651 54.9184 58.517 54.8528C58.4688 54.7872 58.4465 54.7062 58.4543 54.6252C58.4621 54.5442 58.4994 54.4689 58.5592 54.4137L60.5393 52.5944L57.7095 54.2282C57.6386 54.2695 57.5549 54.2828 57.4747 54.2657C57.3945 54.2486 57.3235 54.2021 57.2757 54.1355C57.2279 54.0689 57.2063 53.9869 57.2152 53.9054C57.2242 53.8238 57.2629 53.7485 57.3241 53.6938L59.781 51.5097L56.9327 53.1541C56.86 53.1964 56.7739 53.2095 56.6919 53.1907C56.6099 53.1719 56.5382 53.1226 56.4912 53.0528C56.4443 52.983 56.4256 52.8979 56.4391 52.8149C56.4526 52.7319 56.4972 52.6571 56.5638 52.6057L57.7777 51.6646L56.6817 52.2971C56.6101 52.3385 56.5256 52.3517 56.4448 52.334C56.364 52.3163 56.2928 52.269 56.2451 52.2014C56.1974 52.1338 56.1768 52.0508 56.1872 51.9687C56.1977 51.8867 56.2384 51.8115 56.3015 51.758L57.779 50.5024L56.7168 51.1156C56.6472 51.1552 56.5656 51.1683 56.4871 51.1524C56.4086 51.1365 56.3386 51.0926 56.2899 51.029C56.2413 50.9654 56.2173 50.8864 56.2225 50.8065C56.2277 50.7265 56.2616 50.6512 56.3181 50.5944L57.2658 49.6534C57.198 49.6428 57.1353 49.6115 57.0862 49.5636C57.0371 49.5158 57.0041 49.4538 56.9919 49.3863C56.9796 49.3189 56.9887 49.2493 57.0179 49.1872C57.047 49.1252 57.0948 49.0738 57.1545 49.0401L58.9307 48.0149C59.0003 47.9753 59.0819 47.9622 59.1604 47.9782C59.2388 47.9941 59.3089 48.0379 59.3575 48.1015C59.4062 48.1651 59.4301 48.2442 59.425 48.3241C59.4198 48.404 59.3858 48.4793 59.3294 48.5361L58.593 49.2679L60.6095 48.1037C60.6811 48.0622 60.7656 48.049 60.8464 48.0668C60.9272 48.0845 60.9984 48.1318 61.0461 48.1994C61.0938 48.267 61.1144 48.35 61.104 48.432C61.0935 48.5141 61.0527 48.5892 60.9897 48.6427L59.5128 49.8984L61.6552 48.662C61.7279 48.6196 61.814 48.6065 61.896 48.6253C61.978 48.6441 62.0497 48.6934 62.0967 48.7632C62.1436 48.833 62.1623 48.9181 62.1488 49.0011C62.1353 49.0842 62.0907 49.1589 62.0241 49.2103L60.8102 50.152L62.2672 49.3103C62.3382 49.267 62.423 49.2522 62.5045 49.2687C62.5861 49.2851 62.6584 49.3318 62.7071 49.3993C62.7557 49.4667 62.7771 49.5501 62.767 49.6327C62.7569 49.7152 62.7161 49.791 62.6526 49.8447L60.1956 52.0282L62.8129 50.5176C62.8835 50.4771 62.9665 50.4641 63.0461 50.4809C63.1257 50.4978 63.1963 50.5433 63.2445 50.6089C63.2926 50.6745 63.3149 50.7556 63.3071 50.8366C63.2994 50.9175 63.262 50.9928 63.2023 51.0481L61.2215 52.868L62.8135 51.9487C62.8833 51.909 62.965 51.896 63.0436 51.9121C63.1223 51.9281 63.1924 51.9722 63.2409 52.0361C63.2895 52.0999 63.3132 52.1793 63.3077 52.2593C63.3022 52.3394 63.2678 52.4147 63.2109 52.4713L62.2797 53.3898C62.3461 53.4025 62.407 53.4353 62.4541 53.4837C62.5013 53.5321 62.5324 53.5938 62.5433 53.6605C62.5542 53.7272 62.5444 53.7956 62.5151 53.8565C62.4859 53.9174 62.4386 53.9679 62.3797 54.0011L60.6036 55.0263C60.5534 55.0556 60.4955 55.071 60.4373 55.0706Z" fill="#46A0DD"/>
<path d="M41.7437 74.6947C41.2212 76.8371 48.4418 74.6774 49.4451 74.1105C77.5805 88.3517 93.5442 43.9884 62.1247 38.1943C47.8305 36.2492 35.4781 51.7997 41.6119 65.1369C44.0272 70.2847 45.8318 69.2118 41.7437 74.6947ZM44.6305 68.5323C35.235 56.3945 45.4835 36.934 60.9598 38.5228C84.7706 40.8606 83.7342 76.2218 59.6419 76.4934C56.1352 76.5477 52.8875 75.1264 49.8371 73.6569C48.6848 73.9993 47.5987 74.6569 46.3742 74.8549C37.6244 76.6556 47.6166 71.4615 44.6298 68.5317L44.6305 68.5323Z" fill="#262626"/>
<path d="M60.4711 54.9454C64.0307 54.4163 64.691 49.1566 61.0929 48.1434C55.0909 46.5334 54.0438 56.0355 60.4711 54.9454ZM57.3531 49.8235C58.7929 47.093 62.734 48.8884 62.5969 51.65C62.285 56.9733 55.0511 54.0958 57.3531 49.8235Z" fill="#262626"/>
<path d="M46.2921 54.7938L48.6902 52.7116C48.7312 57.872 48.6239 63.0429 48.6902 68.1972C49.1537 70.6986 52.916 69.2608 54.7227 69.6184C57.7114 69.6714 60.9294 69.582 63.9943 69.6184C65.8354 69.5105 68.3281 70.0721 70.1043 69.233C71.2533 68.478 70.842 66.3144 70.842 65.1469V52.9282C71.7851 53.4335 73.1262 55.8203 74.1262 54.6699L68.8612 50.0984C68.7334 48.3791 69.1261 46.5063 68.6937 44.8612C67.6711 44.1963 66.2029 44.701 65.0208 44.5566C64.3115 44.552 63.8234 45.1109 63.9175 45.8056C62.1525 44.6732 60.3592 41.1062 58.2929 43.699C57.5075 44.7255 42.8444 56.2984 46.2928 54.7938H46.2921ZM56.3386 58.4547C67.2844 58.0753 63.1579 58.2879 63.9188 69.1853H55.6127C55.979 67.2489 54.7505 58.8395 56.3386 58.4547ZM67.7976 45.2394H67.8135C67.8447 45.2361 67.8228 45.2467 67.7976 45.2394ZM64.8863 45.7242C64.8897 45.5612 64.8605 45.3977 64.9155 45.2394C65.8619 45.2705 66.8195 45.2208 67.7692 45.2394C68.0943 46.4553 67.7864 47.9533 67.889 49.256L64.8863 46.6487V45.7242ZM58.2081 44.4467C58.634 44.0765 59.277 43.6784 59.687 43.2274C63.0473 46.2089 66.4963 49.1321 69.8818 52.0957C69.852 57.4071 69.9301 62.723 69.8818 68.0323C69.7255 70.1708 66.3559 68.8482 64.8844 69.186C64.3585 66.8032 66.34 57.7349 63.2439 57.8329C50.9783 57.0256 55.4445 59.3706 54.6472 69.186C53.1001 68.9125 50.9273 69.8588 49.7981 68.5568C49.3816 63.0634 49.7869 57.4196 49.6498 51.8785L58.2081 44.4467Z" fill="#262626"/>
<defs>
<filter id="filter0_bd_1_835" x="0.5" y="0.5" width="119" height="119" filterUnits="userSpaceOnUse" color-interpolation-filters="sRGB">
<feFlood flood-opacity="0" result="BackgroundImageFix"/>
<feGaussianBlur in="BackgroundImageFix" stdDeviation="2"/>
<feComposite in2="SourceAlpha" operator="in" result="effect1_backgroundBlur_1_835"/>
<feColorMatrix in="SourceAlpha" type="matrix" values="0 0 0 0 0 0 0 0 0 0 0 0 0 0 0 0 0 0 127 0" result="hardAlpha"/>
<feOffset dy="2"/>
<feGaussianBlur stdDeviation="17.25"/>
<feComposite in2="hardAlpha" operator="out"/>
<feColorMatrix type="matrix" values="0 0 0 0 0 0 0 0 0 0 0 0 0 0 0 0 0 0 1 0"/>
<feBlend mode="normal" in2="effect1_backgroundBlur_1_835" result="effect2_dropShadow_1_835"/>
<feBlend mode="normal" in="SourceGraphic" in2="effect2_dropShadow_1_835" result="shape"/>
</filter>
</defs>
</svg>
