<svg width="36" height="54" viewBox="0 0 36 54" fill="none" xmlns="http://www.w3.org/2000/svg">
<path d="M8.09329 44.121C8.18429 44.225 8.23629 44.316 8.26229 44.42C8.28829 44.641 8.21029 44.81 8.00229 44.901C7.89829 44.94 7.76829 44.966 7.62529 44.966C7.58629 44.966 7.54729 44.966 7.50829 44.966C7.46929 44.966 7.43029 44.966 7.39129 44.953C7.33929 44.953 7.30029 44.953 7.26129 44.94C7.10529 44.94 6.93629 44.953 6.78029 44.979C6.61129 45.005 6.44229 45.018 6.28629 45.005C6.31229 45.122 6.33829 45.226 6.35129 45.343C6.36429 45.46 6.37729 45.577 6.39029 45.681C6.44229 46.136 6.46829 46.591 6.45529 47.046C6.45529 47.501 6.45529 47.93 6.44229 48.333C6.42929 48.463 6.42929 48.606 6.44229 48.788C6.45529 48.97 6.45529 49.165 6.46829 49.386C6.49429 49.646 6.52029 49.919 6.54629 50.218C6.57229 50.517 6.58529 50.816 6.59829 51.102C6.61129 51.401 6.61129 51.687 6.61129 51.947C6.59829 52.22 6.55929 52.467 6.50729 52.662C6.46829 52.779 6.42929 52.857 6.37729 52.922C6.32529 52.987 6.23429 53.026 6.13029 53.026C6.03929 53.026 5.96129 53.026 5.87029 53.026C5.79229 53.026 5.72729 52.987 5.67529 52.922C5.66229 52.909 5.64929 52.831 5.63629 52.701C5.62329 52.571 5.59729 52.415 5.59729 52.22C5.58429 52.025 5.57129 51.817 5.55829 51.583C5.54529 51.349 5.53229 51.115 5.51929 50.881C5.51929 50.647 5.50629 50.426 5.50629 50.218C5.49329 50.01 5.49329 49.828 5.49329 49.685C5.49329 49.49 5.48029 49.334 5.46729 49.178C5.44129 49.035 5.44129 48.905 5.44129 48.801C5.46729 48.372 5.48029 47.956 5.49329 47.566C5.49329 47.176 5.49329 46.786 5.46729 46.409V46.37C5.45429 46.214 5.45429 46.058 5.44129 45.902C5.42829 45.733 5.40229 45.577 5.37629 45.421L5.36329 45.343C5.35029 45.291 5.33729 45.239 5.33729 45.2C5.32429 45.148 5.31129 45.109 5.28529 45.07C5.27229 45.044 5.25929 45.018 5.23329 45.005V44.992C5.20729 44.992 5.18129 44.966 5.16829 44.94C5.09029 44.94 4.99929 44.94 4.90829 44.927C4.81729 44.927 4.72629 44.927 4.62229 44.927C4.38829 44.927 4.19329 44.94 4.02429 44.966C3.85529 44.992 3.69929 45.031 3.56929 45.083C3.42629 45.135 3.29629 45.122 3.19229 45.044C3.07529 44.979 2.99729 44.862 2.97129 44.706C2.95829 44.589 2.97129 44.485 3.01029 44.368C3.06229 44.251 3.15329 44.16 3.29629 44.108C3.60829 43.991 4.02429 43.939 4.53129 43.939C4.66129 43.939 4.79129 43.939 4.92129 43.926C5.05129 43.926 5.16829 43.926 5.28529 43.939C5.36329 43.939 5.44129 43.939 5.50629 43.939C5.58429 43.939 5.64929 43.952 5.71429 43.952C5.97429 43.965 6.22129 43.952 6.45529 43.939C6.68929 43.926 6.91029 43.926 7.09229 43.939H7.19629C7.26129 43.939 7.32629 43.952 7.37829 43.952C7.43029 43.952 7.49529 43.952 7.56029 43.952H7.57329C7.59929 43.952 7.62529 43.952 7.65129 43.952C7.67729 43.952 7.69029 43.952 7.70329 43.952L7.72929 43.939C7.74229 43.939 7.76829 43.952 7.79429 43.978C7.91129 43.991 8.01529 44.03 8.09329 44.121ZM13.5769 51.856C13.6679 51.921 13.7329 52.012 13.7849 52.116C13.8499 52.298 13.7979 52.467 13.6419 52.597C13.5249 52.688 13.3949 52.766 13.2519 52.805C13.1089 52.857 12.9529 52.896 12.7839 52.922C12.6279 52.948 12.4589 52.961 12.2899 52.961C12.1209 52.974 11.9649 52.974 11.8219 52.974C11.7699 52.974 11.7179 52.974 11.6789 52.974C11.6269 52.974 11.5879 52.974 11.5359 52.974C11.5099 52.974 11.4709 52.974 11.4449 52.974C11.4059 52.974 11.3669 52.987 11.3279 52.987C11.2759 52.987 11.2109 52.987 11.1459 52.987C11.0809 53 11.0029 53 10.9379 53C10.8209 53 10.6909 52.987 10.5609 52.974C10.4309 52.974 10.3139 52.935 10.1969 52.896C10.0799 52.857 9.96285 52.792 9.87185 52.701C9.78085 52.623 9.71585 52.506 9.67685 52.376C9.59885 52.064 9.55985 51.752 9.57285 51.44C9.58585 51.115 9.59885 50.803 9.63785 50.491C9.65085 50.335 9.65085 50.192 9.66385 50.049C9.67685 49.906 9.68985 49.763 9.68985 49.62C9.68985 49.464 9.68985 49.295 9.68985 49.126C9.68985 48.97 9.70285 48.801 9.70285 48.645C9.71585 48.008 9.72885 47.371 9.72885 46.734C9.72885 46.097 9.70285 45.447 9.65085 44.81C9.65085 44.784 9.65085 44.758 9.63785 44.706C9.62485 44.654 9.62485 44.602 9.62485 44.537C9.61185 44.459 9.62485 44.394 9.62485 44.316C9.63785 44.238 9.66385 44.173 9.70285 44.108C9.74185 44.03 9.81985 43.991 9.93685 43.952C10.0539 43.926 10.1839 43.913 10.3139 43.913C10.4569 43.913 10.5869 43.913 10.7169 43.926C10.8469 43.926 10.9509 43.939 11.0289 43.939C11.0939 43.939 11.2239 43.926 11.4189 43.926C11.6009 43.913 11.8089 43.913 12.0169 43.913C12.2249 43.913 12.4199 43.9 12.6279 43.9C12.8229 43.9 12.9659 43.9 13.0569 43.913C13.2129 43.913 13.3429 43.978 13.4209 44.095C13.4989 44.199 13.5379 44.316 13.5379 44.446C13.5249 44.563 13.4859 44.667 13.4079 44.771C13.3299 44.862 13.2129 44.914 13.0439 44.901C12.8489 44.888 12.6539 44.888 12.4589 44.901C12.2509 44.914 12.0559 44.927 11.8609 44.94C11.7049 44.953 11.5619 44.966 11.4059 44.979C11.2499 44.992 11.0939 45.005 10.9379 45.005C10.8859 45.005 10.8339 44.992 10.7949 44.992C10.7429 44.992 10.7039 44.992 10.6519 44.992C10.6909 45.525 10.7169 46.058 10.7169 46.552C10.7169 47.059 10.7039 47.514 10.6909 47.93C10.8469 47.904 11.0029 47.878 11.1719 47.865C11.3409 47.865 11.5229 47.852 11.7309 47.852C11.8349 47.852 11.9519 47.852 12.0689 47.865C12.1729 47.865 12.2899 47.865 12.4069 47.865C12.5109 47.878 12.6019 47.878 12.6929 47.878C12.7839 47.878 12.8749 47.878 12.9659 47.878C13.1349 47.878 13.2519 47.943 13.3299 48.047C13.4079 48.151 13.4599 48.268 13.4599 48.398C13.4599 48.515 13.4209 48.632 13.3299 48.736C13.2519 48.827 13.1349 48.879 12.9789 48.879C12.8749 48.879 12.7709 48.879 12.6799 48.879C12.5759 48.879 12.4719 48.866 12.3679 48.866C12.2639 48.866 12.1469 48.853 12.0299 48.853C11.9259 48.853 11.8089 48.853 11.6919 48.853C11.4969 48.853 11.3019 48.853 11.1329 48.866C10.9769 48.892 10.8209 48.918 10.6649 48.944L10.6519 49.464C10.6389 49.789 10.6259 50.127 10.6129 50.452C10.5999 50.79 10.5999 51.115 10.5869 51.44C10.5869 51.466 10.5869 51.479 10.5869 51.492C10.5869 51.518 10.5739 51.531 10.5739 51.557C10.5739 51.622 10.5739 51.687 10.5739 51.752C10.5739 51.83 10.5869 51.895 10.5999 51.96C10.7299 51.973 10.8859 51.986 11.0809 51.986C11.1329 51.986 11.1849 51.986 11.2369 51.986C11.2889 51.986 11.3409 51.986 11.3929 51.973C11.6269 51.973 11.8349 51.96 12.0039 51.96C12.1859 51.947 12.3549 51.934 12.5109 51.908C12.5759 51.908 12.6409 51.895 12.6929 51.882C12.7579 51.882 12.8099 51.869 12.8749 51.856C12.9139 51.856 12.9399 51.843 12.9659 51.817C13.0049 51.804 13.0309 51.791 13.0569 51.791H13.0829C13.1349 51.778 13.1999 51.765 13.2779 51.765C13.3819 51.765 13.4859 51.791 13.5769 51.856ZM18.943 52.168C19.021 52.246 19.06 52.324 19.086 52.428C19.099 52.545 19.073 52.649 19.008 52.753C18.956 52.844 18.878 52.909 18.761 52.935C18.735 52.948 18.67 52.961 18.579 52.961C18.475 52.974 18.371 52.987 18.267 52.987C18.163 53 18.059 53 17.981 53C17.89 53.013 17.838 53.013 17.812 53.013C17.76 53.026 17.695 53.026 17.643 53.026C17.578 53.026 17.526 53.026 17.448 53.026C17.37 53.013 17.279 53.013 17.188 53C17.097 52.987 16.993 52.974 16.889 52.961C16.668 52.922 16.447 52.857 16.252 52.766C16.044 52.675 15.849 52.506 15.667 52.285C15.563 52.155 15.472 52.012 15.407 51.869C15.342 51.726 15.303 51.583 15.264 51.44C15.238 51.284 15.212 51.141 15.199 50.998C15.199 50.855 15.186 50.712 15.186 50.569C15.186 50.296 15.186 50.023 15.173 49.737C15.16 49.451 15.147 49.139 15.134 48.801C15.121 48.489 15.108 48.164 15.108 47.852C15.095 47.527 15.121 47.215 15.147 46.903C15.186 46.591 15.251 46.279 15.329 45.967C15.42 45.668 15.537 45.369 15.706 45.083C15.823 44.862 15.979 44.654 16.161 44.446C16.356 44.251 16.603 44.095 16.941 44.017C17.045 43.991 17.149 43.978 17.24 43.952C17.331 43.939 17.435 43.939 17.526 43.926C17.63 43.926 17.734 43.926 17.851 43.939C17.955 43.952 18.098 43.965 18.254 43.991C18.397 44.004 18.501 44.069 18.579 44.173C18.644 44.277 18.67 44.394 18.657 44.498C18.644 44.615 18.592 44.719 18.501 44.784C18.423 44.862 18.306 44.888 18.176 44.875C18.124 44.862 18.085 44.862 18.059 44.849C18.033 44.849 18.007 44.849 17.981 44.836C17.955 44.836 17.929 44.836 17.903 44.823C17.877 44.823 17.838 44.823 17.786 44.823C17.656 44.81 17.552 44.81 17.448 44.823C17.344 44.836 17.253 44.862 17.162 44.875C16.941 44.953 16.772 45.07 16.655 45.252C16.538 45.434 16.434 45.629 16.356 45.824C16.265 46.058 16.187 46.305 16.148 46.552C16.096 46.799 16.057 47.059 16.044 47.306C16.031 47.553 16.018 47.813 16.031 48.06C16.031 48.307 16.044 48.554 16.057 48.788V48.996C16.07 49.204 16.083 49.425 16.096 49.633C16.109 49.854 16.109 50.062 16.109 50.283L16.096 50.426C16.096 50.647 16.109 50.855 16.122 51.063C16.135 51.284 16.2 51.466 16.304 51.622C16.408 51.791 16.538 51.908 16.655 51.973C16.785 52.025 16.941 52.077 17.123 52.103C17.266 52.129 17.396 52.129 17.526 52.129C17.656 52.129 17.786 52.129 17.942 52.116C17.955 52.116 18.007 52.116 18.072 52.103C18.15 52.103 18.228 52.09 18.319 52.09C18.397 52.077 18.475 52.077 18.54 52.064C18.605 52.064 18.657 52.064 18.67 52.064C18.761 52.064 18.852 52.103 18.943 52.168ZM25.5113 44.121C25.6023 44.225 25.6543 44.316 25.6803 44.42C25.7063 44.641 25.6283 44.81 25.4203 44.901C25.3163 44.94 25.1863 44.966 25.0433 44.966C25.0043 44.966 24.9653 44.966 24.9263 44.966C24.8873 44.966 24.8483 44.966 24.8093 44.953C24.7573 44.953 24.7183 44.953 24.6793 44.94C24.5233 44.94 24.3543 44.953 24.1983 44.979C24.0293 45.005 23.8603 45.018 23.7043 45.005C23.7303 45.122 23.7563 45.226 23.7693 45.343C23.7823 45.46 23.7953 45.577 23.8083 45.681C23.8603 46.136 23.8863 46.591 23.8733 47.046C23.8733 47.501 23.8733 47.93 23.8603 48.333C23.8473 48.463 23.8473 48.606 23.8603 48.788C23.8733 48.97 23.8733 49.165 23.8863 49.386C23.9123 49.646 23.9383 49.919 23.9643 50.218C23.9903 50.517 24.0033 50.816 24.0163 51.102C24.0293 51.401 24.0293 51.687 24.0293 51.947C24.0163 52.22 23.9773 52.467 23.9253 52.662C23.8863 52.779 23.8473 52.857 23.7953 52.922C23.7433 52.987 23.6523 53.026 23.5483 53.026C23.4573 53.026 23.3793 53.026 23.2883 53.026C23.2103 53.026 23.1453 52.987 23.0933 52.922C23.0803 52.909 23.0673 52.831 23.0543 52.701C23.0413 52.571 23.0153 52.415 23.0153 52.22C23.0023 52.025 22.9893 51.817 22.9763 51.583C22.9633 51.349 22.9503 51.115 22.9373 50.881C22.9373 50.647 22.9243 50.426 22.9243 50.218C22.9113 50.01 22.9113 49.828 22.9113 49.685C22.9113 49.49 22.8983 49.334 22.8853 49.178C22.8593 49.035 22.8593 48.905 22.8593 48.801C22.8853 48.372 22.8983 47.956 22.9113 47.566C22.9113 47.176 22.9113 46.786 22.8853 46.409V46.37C22.8723 46.214 22.8723 46.058 22.8593 45.902C22.8463 45.733 22.8203 45.577 22.7943 45.421L22.7813 45.343C22.7683 45.291 22.7553 45.239 22.7553 45.2C22.7423 45.148 22.7293 45.109 22.7033 45.07C22.6903 45.044 22.6773 45.018 22.6513 45.005V44.992C22.6253 44.992 22.5993 44.966 22.5863 44.94C22.5083 44.94 22.4173 44.94 22.3263 44.927C22.2353 44.927 22.1443 44.927 22.0403 44.927C21.8063 44.927 21.6113 44.94 21.4423 44.966C21.2733 44.992 21.1173 45.031 20.9873 45.083C20.8443 45.135 20.7143 45.122 20.6103 45.044C20.4933 44.979 20.4153 44.862 20.3893 44.706C20.3763 44.589 20.3893 44.485 20.4283 44.368C20.4803 44.251 20.5713 44.16 20.7143 44.108C21.0263 43.991 21.4423 43.939 21.9493 43.939C22.0793 43.939 22.2093 43.939 22.3393 43.926C22.4693 43.926 22.5863 43.926 22.7033 43.939C22.7813 43.939 22.8593 43.939 22.9243 43.939C23.0023 43.939 23.0673 43.952 23.1323 43.952C23.3923 43.965 23.6393 43.952 23.8733 43.939C24.1073 43.926 24.3283 43.926 24.5103 43.939H24.6143C24.6793 43.939 24.7443 43.952 24.7963 43.952C24.8483 43.952 24.9133 43.952 24.9783 43.952H24.9913C25.0173 43.952 25.0433 43.952 25.0693 43.952C25.0953 43.952 25.1083 43.952 25.1213 43.952L25.1473 43.939C25.1603 43.939 25.1863 43.952 25.2123 43.978C25.3293 43.991 25.4333 44.03 25.5113 44.121ZM30.9428 49.984C31.0338 50.153 31.0858 50.309 31.1118 50.452C31.1378 50.647 31.1508 50.855 31.1508 51.076C31.1508 51.284 31.1248 51.492 31.0858 51.687C31.0598 51.882 31.0078 52.064 30.9428 52.233C30.8778 52.402 30.8128 52.532 30.7218 52.636C30.6438 52.727 30.5138 52.792 30.3188 52.844C30.1238 52.883 29.9028 52.922 29.6558 52.961C29.4088 52.987 29.1488 53 28.8758 53.013C28.6028 53.013 28.3428 53.026 28.1088 53.026C27.8748 53.026 27.6668 53.026 27.5108 53.013C27.3418 53.013 27.2508 53 27.2248 53C27.1728 53 27.1338 52.987 27.1078 52.948C27.0688 52.909 27.0558 52.857 27.0298 52.805C27.0038 52.753 26.9908 52.688 26.9908 52.636C26.9778 52.571 26.9778 52.519 26.9908 52.48C27.0298 52.311 27.0428 52.168 27.0298 52.051C27.0298 51.934 27.0298 51.817 27.0298 51.687C27.0428 51.661 27.0428 51.609 27.0428 51.544C27.0428 51.466 27.0558 51.388 27.0558 51.323C27.0558 51.245 27.0688 51.167 27.0688 51.089C27.0818 50.972 27.0948 50.868 27.0948 50.751C27.1078 50.647 27.1078 50.53 27.1208 50.426C27.1208 50.036 27.1338 49.659 27.1338 49.282C27.1468 48.905 27.1338 48.528 27.1338 48.151V48.06C27.1338 47.761 27.1338 47.462 27.1338 47.15C27.1468 46.851 27.1468 46.539 27.1728 46.214C27.1728 46.175 27.1728 46.123 27.1728 46.071C27.1728 46.032 27.1858 45.98 27.1858 45.941C27.2118 45.707 27.2118 45.473 27.2118 45.226C27.2118 44.979 27.1728 44.771 27.0818 44.576C27.0428 44.511 27.0298 44.433 27.0298 44.355C27.0428 44.277 27.0688 44.212 27.1208 44.147C27.1598 44.082 27.2248 44.03 27.3028 43.991C27.3808 43.939 27.4588 43.926 27.5368 43.926C27.7058 43.926 27.8358 44.004 27.9138 44.147C28.0438 44.42 28.1088 44.706 28.1348 44.979C28.1478 45.265 28.1478 45.538 28.1478 45.811C28.1348 45.928 28.1348 46.032 28.1348 46.149C28.1218 46.266 28.1218 46.383 28.1218 46.5C28.1088 46.721 28.1088 46.942 28.0958 47.163C28.0958 47.397 28.0828 47.631 28.0828 47.852V48.255C28.1218 48.255 28.1478 48.242 28.1868 48.242C28.2128 48.242 28.2518 48.242 28.2908 48.242C28.4728 48.242 28.6808 48.268 28.8888 48.346C29.0968 48.411 29.2918 48.502 29.4998 48.619C29.6948 48.736 29.8898 48.866 30.0848 49.022C30.2668 49.165 30.4358 49.334 30.5788 49.49C30.7218 49.659 30.8518 49.828 30.9428 49.984ZM28.0048 52.077C27.9918 52.194 27.9788 52.298 27.9788 52.376C27.9788 52.376 28.0308 52.376 28.1348 52.376C28.2258 52.389 28.3558 52.389 28.4988 52.389C28.6418 52.389 28.7978 52.389 28.9798 52.389C29.1488 52.389 29.3048 52.376 29.4608 52.376C29.6168 52.363 29.7468 52.35 29.8508 52.337C29.9678 52.311 30.0328 52.285 30.0588 52.259C30.1238 52.181 30.1628 52.064 30.2018 51.882C30.2278 51.713 30.2538 51.518 30.2538 51.323C30.2668 51.128 30.2668 50.946 30.2668 50.764C30.2538 50.582 30.2538 50.452 30.2408 50.361C30.2278 50.27 30.1758 50.153 30.0718 50.023C29.9678 49.88 29.8248 49.75 29.6428 49.62C29.4738 49.49 29.2658 49.386 29.0318 49.295C28.7978 49.204 28.5508 49.152 28.2778 49.139C28.2128 49.139 28.1478 49.152 28.0828 49.165C28.0828 49.451 28.0828 49.711 28.0828 49.945C28.0828 50.179 28.0698 50.413 28.0568 50.634C28.0568 50.699 28.0568 50.764 28.0568 50.829C28.0568 50.894 28.0568 50.959 28.0568 51.037C28.0568 51.102 28.0438 51.206 28.0438 51.323C28.0308 51.44 28.0308 51.57 28.0178 51.7C28.0178 51.83 28.0048 51.96 28.0048 52.077ZM32.7498 51.505C32.7888 51.83 32.8668 52.142 32.9838 52.454C33.0358 52.584 33.0228 52.701 32.9578 52.805C32.8928 52.896 32.8018 52.961 32.6848 52.987C32.5808 53.013 32.4638 53 32.3598 52.961C32.2428 52.922 32.1518 52.831 32.1128 52.688C31.9828 52.363 31.9048 52.025 31.8528 51.687C31.8008 51.336 31.7618 50.985 31.7488 50.634C31.7228 50.283 31.7228 49.932 31.7228 49.568C31.7228 49.217 31.7228 48.866 31.7228 48.528C31.7098 48.164 31.7098 47.813 31.7098 47.475C31.6968 47.137 31.6968 46.812 31.6968 46.474C31.6968 46.136 31.6838 45.811 31.6838 45.473C31.6838 45.135 31.6838 44.784 31.6838 44.42C31.6838 44.277 31.7358 44.16 31.8268 44.095C31.9308 44.017 32.0348 43.978 32.1388 43.978C32.2558 43.978 32.3598 44.017 32.4638 44.095C32.5548 44.16 32.5938 44.277 32.5938 44.42C32.5938 44.784 32.5938 45.135 32.5938 45.473C32.5938 45.811 32.5938 46.136 32.5938 46.474C32.5938 46.812 32.6068 47.137 32.6068 47.475C32.6068 47.813 32.6198 48.164 32.6328 48.528C32.6328 48.853 32.6328 49.178 32.6328 49.516C32.6328 49.841 32.6328 50.179 32.6458 50.517C32.6588 50.842 32.6978 51.18 32.7498 51.505Z" fill="#70727A"/>
<path d="M4.34489 34.799C4.28182 34.799 4.22045 34.7786 4.16982 34.741C4.1192 34.7034 4.08202 34.6505 4.06376 34.5902C4.04551 34.5298 4.04715 34.4652 4.06845 34.4058C4.08975 34.3465 4.12958 34.2955 4.18205 34.2605L8.24192 31.5487L2.6812 34.7579C2.61529 34.7939 2.5381 34.8033 2.46549 34.7841C2.39287 34.765 2.33032 34.7188 2.29069 34.655C2.25105 34.5913 2.23733 34.5147 2.25233 34.4411C2.26734 34.3676 2.30994 34.3025 2.37139 34.2594L8.06733 30.4664L1.17271 34.4487C1.10632 34.4864 1.02783 34.4969 0.953862 34.4778C0.879896 34.4587 0.816264 34.4116 0.776446 34.3464C0.736629 34.2812 0.723754 34.2031 0.740549 34.1286C0.757344 34.0541 0.802489 33.989 0.866422 33.9472L6.06031 30.5845L0.799991 33.6215C0.733253 33.66 0.654075 33.6707 0.579495 33.6514C0.504916 33.6321 0.440897 33.5843 0.401216 33.5183C0.361535 33.4522 0.349363 33.3733 0.367321 33.2984C0.385279 33.2234 0.43193 33.1586 0.497235 33.1177L2.20208 32.0489L0.798228 32.8584C0.731709 32.8974 0.652538 32.9087 0.577776 32.8899C0.503015 32.871 0.438649 32.8236 0.398552 32.7577C0.358454 32.6919 0.345836 32.6129 0.363415 32.5378C0.380995 32.4628 0.427365 32.3976 0.492532 32.3564L5.50242 29.1319L0.799404 31.8479C0.733397 31.883 0.656503 31.8916 0.584369 31.872C0.512234 31.8524 0.450277 31.806 0.411104 31.7424C0.371932 31.6787 0.358487 31.6025 0.373504 31.5293C0.388522 31.456 0.430874 31.3913 0.491944 31.3482L5.4889 28.109L0.798228 30.8191C0.731921 30.8541 0.654732 30.8625 0.58246 30.8425C0.510188 30.8225 0.448299 30.7756 0.409462 30.7114C0.370625 30.6473 0.357777 30.5707 0.373548 30.4974C0.389318 30.4241 0.432515 30.3596 0.494296 30.3171L2.73881 28.892L0.798816 30.0119C0.732509 30.047 0.65532 30.0553 0.583048 30.0353C0.510776 30.0153 0.448887 29.9684 0.41005 29.9043C0.371213 29.8401 0.358365 29.7636 0.374135 29.6902C0.389906 29.6169 0.433103 29.5524 0.494883 29.5099L2.33494 28.3406L0.798228 29.2242C0.732367 29.2607 0.655019 29.2705 0.582133 29.2516C0.509248 29.2327 0.446382 29.1866 0.406499 29.1228C0.366617 29.0589 0.352758 28.9822 0.367781 28.9084C0.382804 28.8346 0.425563 28.7694 0.487241 28.7263L6.16319 24.9098L0.798228 28.0073C0.732365 28.0455 0.654239 28.0567 0.580303 28.0384C0.506368 28.0202 0.442394 27.974 0.401856 27.9095C0.361319 27.8451 0.347381 27.7674 0.362979 27.6929C0.378577 27.6183 0.422493 27.5527 0.485477 27.5099L6.09559 23.677L0.798228 26.7339C0.732416 26.771 0.654886 26.7812 0.58171 26.7626C0.508534 26.744 0.445324 26.698 0.405185 26.634C0.365045 26.5701 0.351054 26.4931 0.366112 26.4191C0.381171 26.3451 0.424123 26.2798 0.486065 26.2366L4.57828 23.4495L0.798228 25.6317C0.732113 25.6687 0.654275 25.6787 0.580947 25.6597C0.507619 25.6406 0.444465 25.5941 0.404657 25.5296C0.364849 25.4651 0.351461 25.3878 0.367286 25.3137C0.38311 25.2397 0.426926 25.1745 0.489592 25.132L1.68239 24.343L0.800579 24.8533C0.735399 24.8913 0.65809 24.9028 0.584664 24.8854C0.511238 24.868 0.447318 24.8231 0.406142 24.7598C0.364966 24.6966 0.349688 24.6199 0.363472 24.5457C0.377256 24.4715 0.419045 24.4055 0.480186 24.3613L3.33786 22.2761L0.795876 23.7458C0.731689 23.7817 0.656351 23.7923 0.584742 23.7754C0.513134 23.7585 0.450463 23.7154 0.409108 23.6545C0.367754 23.5937 0.350723 23.5195 0.361379 23.4467C0.372035 23.374 0.409604 23.3078 0.466665 23.2614L2.66356 21.5224L0.798228 22.5982C0.734627 22.633 0.660412 22.6431 0.589844 22.6265C0.519276 22.6099 0.457333 22.5678 0.415917 22.5083C0.374501 22.4488 0.356533 22.3761 0.365466 22.3041C0.374399 22.2322 0.409603 22.1661 0.464314 22.1185L1.48369 21.2784L0.798228 21.6741C0.735605 21.711 0.661529 21.7234 0.590304 21.7089C0.519079 21.6944 0.455757 21.654 0.412566 21.5955C0.369375 21.537 0.349379 21.4647 0.356439 21.3923C0.363499 21.32 0.397114 21.2528 0.450793 21.2038L0.874652 20.8105L0.798228 20.854C0.738231 20.8887 0.667901 20.9011 0.59966 20.889C0.531419 20.8768 0.469655 20.841 0.425278 20.7878C0.3809 20.7345 0.356763 20.6673 0.357129 20.598C0.357495 20.5287 0.38234 20.4617 0.427278 20.409L0.700052 20.0892C0.650666 20.067 0.60835 20.0317 0.577766 19.987C0.547182 19.9424 0.529519 19.8902 0.526722 19.8361C0.523926 19.7821 0.536105 19.7283 0.561917 19.6807C0.587729 19.6332 0.626172 19.5937 0.67301 19.5665L1.6483 19.0028C1.70822 18.9688 1.77819 18.9569 1.84597 18.9692C1.91376 18.9816 1.97506 19.0173 2.01917 19.0702C2.06328 19.1232 2.08739 19.1899 2.0873 19.2588C2.08721 19.3277 2.06291 19.3944 2.01866 19.4472L1.98162 19.4913L2.83111 19.0028C2.89373 18.9659 2.9678 18.9535 3.03903 18.968C3.11025 18.9825 3.17358 19.0229 3.21677 19.0814C3.25996 19.1398 3.27995 19.2122 3.27289 19.2846C3.26584 19.3569 3.23222 19.4241 3.17854 19.4731L2.75468 19.8664L4.25142 19.0028C4.31522 18.966 4.39053 18.9544 4.46242 18.9705C4.53431 18.9866 4.59755 19.0291 4.63961 19.0895C4.68168 19.15 4.69951 19.2241 4.68956 19.2971C4.67962 19.37 4.64263 19.4366 4.58592 19.4837L3.56713 20.3208L5.85691 18.9992C5.9211 18.9633 5.99643 18.9527 6.06804 18.9696C6.13965 18.9865 6.20232 19.0296 6.24368 19.0905C6.28503 19.1513 6.30206 19.2255 6.29141 19.2983C6.28075 19.3711 6.24318 19.4372 6.18612 19.4837L3.98981 21.222L7.84217 18.9981C7.90735 18.96 7.98466 18.9485 8.05808 18.966C8.13151 18.9834 8.19543 19.0283 8.2366 19.0916C8.27778 19.1548 8.29306 19.2315 8.27927 19.3057C8.26549 19.3798 8.2237 19.4459 8.16256 19.4901L5.29784 21.5771L9.7657 18.9975C9.83171 18.961 9.9092 18.9514 9.98215 18.9704C10.0551 18.9895 10.1179 19.0359 10.1576 19.1C10.1973 19.1641 10.2109 19.241 10.1955 19.3148C10.1801 19.3886 10.1369 19.4537 10.0749 19.4966L8.8833 20.2849L11.1172 18.9969C11.183 18.9599 11.2606 18.9496 11.3337 18.9682C11.4069 18.9868 11.4701 19.0329 11.5103 19.0968C11.5504 19.1608 11.5644 19.2377 11.5493 19.3117C11.5343 19.3857 11.4913 19.4511 11.4294 19.4942L7.33542 22.2814L12.5087 19.2938C12.5744 19.2572 12.6517 19.2473 12.7245 19.2659C12.7974 19.2846 12.8603 19.3304 12.9003 19.3941C12.9404 19.4577 12.9546 19.5343 12.9399 19.608C12.9252 19.6817 12.8828 19.7471 12.8215 19.7905L7.21079 23.6247L13.3165 20.0974C13.3823 20.0609 13.4597 20.0511 13.5326 20.07C13.6055 20.0888 13.6683 20.135 13.7082 20.1988C13.7481 20.2627 13.7619 20.3394 13.7469 20.4132C13.7319 20.487 13.6891 20.5522 13.6275 20.5953L7.95092 24.4124L14.096 20.8705C14.1625 20.8339 14.2405 20.8245 14.3138 20.8441C14.3871 20.8638 14.4499 20.911 14.4892 20.9759C14.5284 21.0408 14.5411 21.1184 14.5244 21.1925C14.5078 21.2665 14.4632 21.3312 14.3999 21.3731L12.564 22.5394L14.5933 21.3678C14.6599 21.3298 14.7387 21.3192 14.8129 21.3385C14.8871 21.3577 14.9509 21.4051 14.9906 21.4707C15.0303 21.5363 15.0428 21.6147 15.0255 21.6894C15.0082 21.7641 14.9624 21.8291 14.8979 21.8704L12.6481 23.2984L15.106 21.8793C15.1725 21.8386 15.2524 21.826 15.3282 21.8442C15.404 21.8624 15.4694 21.9101 15.5101 21.9765C15.5508 22.043 15.5634 22.123 15.5452 22.1988C15.5269 22.2746 15.4793 22.34 15.4128 22.3807L10.4159 25.617L15.7538 22.5347C15.8203 22.4958 15.8995 22.4845 15.9743 22.5033C16.049 22.5222 16.1134 22.5696 16.1535 22.6355C16.1936 22.7013 16.2062 22.7803 16.1886 22.8554C16.171 22.9304 16.1247 22.9956 16.0595 23.0368L11.0496 26.2613L15.7526 23.5453C15.8194 23.5068 15.8986 23.4961 15.9731 23.5154C16.0477 23.5347 16.1117 23.5825 16.1514 23.6485C16.1911 23.7146 16.2033 23.7935 16.1853 23.8685C16.1674 23.9434 16.1207 24.0082 16.0554 24.0491L14.3594 25.1132L15.7526 24.309C15.819 24.2712 15.8975 24.2607 15.9715 24.2798C16.0454 24.2989 16.1091 24.346 16.1489 24.4112C16.1887 24.4764 16.2016 24.5545 16.1848 24.629C16.168 24.7035 16.1229 24.7686 16.0589 24.8104L10.8627 28.1737L15.752 25.3518C15.8181 25.3143 15.8962 25.3037 15.9698 25.3225C16.0435 25.3412 16.107 25.3877 16.1471 25.4523C16.1872 25.5169 16.2007 25.5945 16.1848 25.6688C16.1689 25.7431 16.1249 25.8084 16.0619 25.851L10.3653 29.6433L15.7538 26.5335C15.8199 26.4959 15.8979 26.4854 15.9716 26.5041C16.0453 26.5228 16.1088 26.5694 16.1489 26.634C16.189 26.6985 16.2025 26.7761 16.1866 26.8504C16.1707 26.9248 16.1266 26.9901 16.0636 27.0326L12.0037 29.7439L15.7538 27.5787C15.8195 27.5422 15.8967 27.5322 15.9696 27.5509C16.0424 27.5695 16.1054 27.6154 16.1454 27.679C16.1855 27.7426 16.1996 27.8192 16.185 27.8929C16.1703 27.9667 16.1279 28.032 16.0666 28.0755L12.6151 30.4411L15.7538 28.6293C15.8191 28.5932 15.8956 28.5833 15.9679 28.6015C16.0402 28.6197 16.1028 28.6647 16.1432 28.7274C16.1835 28.7901 16.1985 28.8658 16.1852 28.9391C16.1718 29.0125 16.1311 29.078 16.0713 29.1225L13.2001 31.1671L15.7538 29.6933C15.8192 29.656 15.8964 29.6452 15.9695 29.6632C16.0426 29.6811 16.106 29.7264 16.1467 29.7897C16.1874 29.853 16.2023 29.9295 16.1882 30.0035C16.1742 30.0774 16.1323 30.1431 16.0713 30.1871L14.7074 31.1577L15.7538 30.554C15.8172 30.517 15.892 30.505 15.9638 30.5204C16.0355 30.5358 16.0988 30.5775 16.1414 30.6372C16.184 30.6969 16.2027 30.7704 16.1938 30.8432C16.185 30.9161 16.1492 30.9829 16.0936 31.0307L14.1477 32.7191L15.7538 31.792C15.8143 31.7571 15.8853 31.7449 15.954 31.7575C16.0228 31.7702 16.0847 31.8069 16.1288 31.8611C16.1729 31.9153 16.1963 31.9835 16.1947 32.0533C16.1931 32.1232 16.1666 32.1902 16.1201 32.2423L15.1442 33.3382L15.7538 32.9854C15.821 32.9503 15.8991 32.9425 15.972 32.9636C16.0448 32.9847 16.1066 33.0331 16.1445 33.0988C16.1825 33.1644 16.1936 33.2422 16.1756 33.3158C16.1575 33.3894 16.1117 33.4533 16.0478 33.4939L13.8609 34.7579C13.8004 34.7924 13.7296 34.8044 13.6612 34.7917C13.5927 34.779 13.531 34.7423 13.487 34.6883C13.443 34.6343 13.4197 34.5665 13.4211 34.4968C13.4224 34.4272 13.4485 34.3603 13.4946 34.3081L14.4711 33.2118L11.7898 34.7579C11.7265 34.7947 11.6517 34.8066 11.5801 34.7913C11.5086 34.7759 11.4453 34.7344 11.4027 34.6748C11.3601 34.6152 11.3413 34.5419 11.3499 34.4692C11.3586 34.3965 11.394 34.3296 11.4494 34.2817L13.3953 32.5933L9.6446 34.7579C9.57935 34.7939 9.50283 34.8039 9.43054 34.7856C9.35826 34.7674 9.29559 34.7224 9.25524 34.6597C9.2149 34.597 9.19988 34.5213 9.21323 34.448C9.22657 34.3746 9.2673 34.3091 9.32714 34.2646L10.6916 33.2929L8.15374 34.7579C8.08849 34.7939 8.01198 34.8039 7.93969 34.7856C7.8674 34.7674 7.80474 34.7224 7.76439 34.6597C7.72404 34.597 7.70902 34.5213 7.72237 34.448C7.73572 34.3746 7.77644 34.3091 7.83629 34.2646L10.7069 32.22L6.31016 34.7579C6.24458 34.7932 6.16804 34.8023 6.09599 34.7834C6.02395 34.7645 5.96178 34.7189 5.92206 34.6559C5.88234 34.5928 5.86803 34.5171 5.88201 34.4439C5.896 34.3708 5.93725 34.3056 5.99741 34.2617L9.44707 31.8973L4.49186 34.7579C4.44735 34.7843 4.39665 34.7985 4.34489 34.799ZM6.04738 15.987C5.9842 15.987 5.92269 15.9666 5.87198 15.929C5.82127 15.8913 5.78405 15.8382 5.76584 15.7777C5.74764 15.7172 5.7494 15.6525 5.77089 15.5931C5.79238 15.5337 5.83243 15.4827 5.88513 15.4479L7.75046 14.2133L4.74523 15.9458C4.67913 15.9813 4.60195 15.9902 4.52952 15.9706C4.4571 15.951 4.3949 15.9045 4.35567 15.8405C4.31644 15.7766 4.30315 15.7 4.31852 15.6266C4.3339 15.5532 4.37677 15.4884 4.43836 15.4455L6.35308 14.2016L3.3308 15.9458C3.26453 15.9828 3.1865 15.9928 3.11306 15.9736C3.03961 15.9544 2.97645 15.9075 2.93679 15.8428C2.89713 15.778 2.88405 15.7005 2.9003 15.6263C2.91654 15.5522 2.96084 15.4872 3.02393 15.4449L6.01269 13.5108L1.81467 15.9358C1.74836 15.9755 1.66909 15.9875 1.594 15.9692C1.51892 15.9509 1.45406 15.9038 1.41349 15.838C1.37291 15.7722 1.35987 15.6931 1.37719 15.6178C1.39451 15.5424 1.4408 15.477 1.50603 15.4355L7.17023 11.7172L0.927561 15.3209C0.861042 15.3599 0.781871 15.3712 0.707109 15.3523C0.632347 15.3335 0.567982 15.286 0.527885 15.2202C0.487787 15.1543 0.475169 15.0753 0.492748 15.0003C0.510327 14.9252 0.556698 14.8601 0.621865 14.8189L4.90278 12.0793L0.798228 14.4491C0.732318 14.4851 0.655134 14.4945 0.582517 14.4753C0.509899 14.4562 0.447354 14.41 0.407716 14.3462C0.368079 14.2825 0.354356 14.2059 0.369363 14.1323C0.384369 14.0588 0.426968 13.9937 0.488417 13.9506L8.07203 8.9007L0.798228 13.1005C0.731185 13.1406 0.650938 13.1525 0.575143 13.1335C0.499347 13.1145 0.434211 13.0661 0.394063 12.9991C0.353915 12.932 0.342044 12.8518 0.361062 12.776C0.380079 12.7002 0.428428 12.6351 0.495471 12.5949L2.17092 11.5438L0.798228 12.338C0.732162 12.3756 0.654107 12.3861 0.580446 12.3674C0.506785 12.3487 0.443245 12.3021 0.40316 12.2375C0.363075 12.173 0.349563 12.0954 0.365459 12.021C0.381356 11.9467 0.425424 11.8814 0.488417 11.8389L8.09966 6.76906L0.798228 10.9841C0.731185 11.0244 0.650907 11.0363 0.575057 11.0173C0.499206 10.9984 0.433995 10.9501 0.393769 10.883C0.353543 10.816 0.341597 10.7357 0.36056 10.6598C0.379522 10.584 0.42784 10.5188 0.494883 10.4786L2.66121 9.11469L0.798228 10.1923C0.731814 10.2278 0.65431 10.2364 0.581704 10.2164C0.509098 10.1965 0.446928 10.1494 0.408018 10.0849C0.369109 10.0204 0.356427 9.94349 0.37259 9.86994C0.388753 9.79639 0.432527 9.73185 0.494883 9.68963L2.28262 8.56385L0.798228 9.42038C0.732266 9.45736 0.654592 9.46749 0.581352 9.44868C0.508112 9.42986 0.444941 9.38354 0.404972 9.31935C0.365003 9.25515 0.351311 9.17803 0.366742 9.104C0.382174 9.02997 0.425541 8.96474 0.487829 8.92186L6.2355 5.06598L0.798228 8.20465C0.731909 8.24113 0.654077 8.25061 0.58094 8.23114C0.507802 8.21166 0.444996 8.16472 0.405599 8.1001C0.366203 8.03547 0.353253 7.95814 0.369447 7.88421C0.38564 7.81027 0.429729 7.74543 0.492532 7.70319L1.72413 6.91191L0.798228 7.44629C0.732169 7.48224 0.654845 7.4915 0.582167 7.47216C0.509489 7.45283 0.446986 7.40637 0.40752 7.34235C0.368055 7.27833 0.354629 7.20162 0.370005 7.12801C0.385381 7.05439 0.42839 6.98947 0.49018 6.9466L2.2979 5.75791L0.798228 6.62326C0.732813 6.66165 0.655091 6.67327 0.58131 6.65569C0.507529 6.6381 0.443401 6.59268 0.402332 6.52891C0.361263 6.46515 0.346434 6.38797 0.360943 6.31353C0.375452 6.23908 0.418177 6.17312 0.480186 6.12945L3.82285 3.74384L0.798228 5.48925C0.734093 5.52567 0.658611 5.53664 0.58676 5.52C0.51491 5.50336 0.451941 5.46031 0.41035 5.3994C0.368758 5.3385 0.351584 5.26418 0.362233 5.1912C0.372883 5.11822 0.410579 5.05191 0.467841 5.00543L3.4325 2.63099L0.798228 4.15124C0.735692 4.18522 0.662953 4.19535 0.593513 4.17976C0.524073 4.16417 0.462647 4.12391 0.420638 4.06646C0.378629 4.00901 0.35889 3.93828 0.365084 3.86738C0.371278 3.79648 0.402985 3.73023 0.45432 3.68094L2.21795 2.08779L0.798228 2.90494C0.735593 2.94303 0.660986 2.95634 0.589043 2.94226C0.517101 2.92818 0.453017 2.88773 0.409363 2.82884C0.365709 2.76994 0.345637 2.69686 0.353084 2.62394C0.360531 2.55101 0.39496 2.48349 0.449617 2.43464L0.952839 1.96434L0.798228 2.0537C0.738351 2.08808 0.66828 2.10029 0.600303 2.08818C0.532326 2.07607 0.470782 2.04042 0.426462 1.98747C0.382142 1.93452 0.357875 1.86767 0.357917 1.79862C0.357958 1.72957 0.382306 1.66274 0.42669 1.60985L0.705931 1.27946C0.646822 1.25479 0.5976 1.21115 0.566016 1.15542C0.527177 1.08803 0.516629 1.008 0.536683 0.932852C0.556738 0.857703 0.605759 0.793566 0.67301 0.75449L1.6483 0.190716C1.7081 0.157009 1.77782 0.145297 1.84535 0.157612C1.91289 0.169927 1.97398 0.205491 2.01804 0.258137C2.0621 0.310783 2.08634 0.37719 2.08656 0.445838C2.08678 0.514487 2.06297 0.581048 2.01925 0.633975L1.96046 0.700993L2.84992 0.190716C2.91255 0.153237 2.98688 0.140399 3.05845 0.154701C3.13003 0.169004 3.19372 0.209423 3.23714 0.268094C3.28055 0.326765 3.30059 0.39949 3.29334 0.472118C3.2861 0.544745 3.25209 0.612079 3.19794 0.661018L2.69413 1.13132L4.32725 0.190716C4.38979 0.156741 4.46253 0.146609 4.53197 0.162201C4.60141 0.177792 4.66283 0.218048 4.70484 0.275496C4.74685 0.332944 4.76659 0.403683 4.7604 0.474582C4.7542 0.545481 4.72249 0.611725 4.67116 0.661018L2.90753 2.25358L6.48535 0.190716C6.54951 0.153609 6.62531 0.142107 6.69759 0.158514C6.76986 0.174922 6.83327 0.218027 6.87512 0.279198C6.91697 0.34037 6.93416 0.415091 6.92326 0.4884C6.91235 0.561709 6.87416 0.628193 6.81632 0.674539L3.85166 3.04839L8.80511 0.190716C8.87052 0.152327 8.94825 0.140709 9.02203 0.158293C9.09581 0.175876 9.15994 0.221299 9.20101 0.285066C9.24207 0.348832 9.2569 0.426006 9.2424 0.500453C9.22789 0.574899 9.18516 0.640856 9.12315 0.684533L5.77931 3.07131L10.7674 0.190716C10.8336 0.153736 10.9114 0.14371 10.9847 0.162727C11.0581 0.181745 11.1212 0.228339 11.161 0.29279C11.2008 0.357241 11.2142 0.434573 11.1984 0.508655C11.1826 0.582737 11.1387 0.64785 11.0761 0.690412L9.27071 1.87616L12.193 0.190716C12.2594 0.152927 12.3379 0.142466 12.4119 0.16155C12.4859 0.180634 12.5495 0.227763 12.5893 0.292953C12.6291 0.358144 12.642 0.436274 12.6252 0.510794C12.6084 0.585313 12.5633 0.650367 12.4993 0.692175L11.2671 1.48405L13.5081 0.190716C13.574 0.154237 13.6513 0.144421 13.7242 0.163292C13.7971 0.182163 13.86 0.228282 13.8999 0.29214C13.9397 0.355997 13.9536 0.432724 13.9386 0.506499C13.9235 0.580274 13.8808 0.645471 13.8191 0.688648L8.06733 4.54571L15.2524 0.397061C15.3191 0.356757 15.3991 0.344613 15.4748 0.3633C15.5505 0.381987 15.6156 0.429975 15.6559 0.496706C15.6962 0.563438 15.7084 0.643447 15.6897 0.719132C15.671 0.794818 15.623 0.85998 15.5563 0.900284L13.7791 2.01725L15.6709 0.925562C15.7374 0.889004 15.8154 0.879567 15.8887 0.899224C15.962 0.91888 16.0248 0.966109 16.0641 1.03103C16.1033 1.09595 16.116 1.17354 16.0993 1.24756C16.0827 1.32158 16.0381 1.38631 15.9749 1.4282L13.8062 2.79501L15.7538 1.67099C15.8199 1.63341 15.8979 1.62288 15.9716 1.64162C16.0453 1.66035 16.1088 1.70689 16.1489 1.77147C16.189 1.83604 16.2025 1.91364 16.1866 1.98796C16.1707 2.06229 16.1266 2.12757 16.0636 2.1701L8.45238 7.23995L15.7538 3.02487C15.8203 2.98883 15.8982 2.97984 15.9712 2.99975C16.0442 3.01967 16.1067 3.06696 16.1457 3.13179C16.1847 3.19662 16.1972 3.274 16.1806 3.34781C16.164 3.42163 16.1196 3.4862 16.0566 3.52809L14.3805 4.57922L15.7538 3.78735C15.8197 3.75136 15.8969 3.74197 15.9695 3.76109C16.0421 3.78021 16.1047 3.82641 16.1443 3.89019C16.184 3.95397 16.1977 4.0305 16.1827 4.10408C16.1677 4.17766 16.1251 4.2427 16.0636 4.28587L8.48001 9.33573L15.7538 5.13652C15.8201 5.10105 15.8974 5.09231 15.9699 5.11209C16.0424 5.13187 16.1046 5.17867 16.1437 5.24288C16.1827 5.30708 16.1957 5.38381 16.1799 5.4573C16.1642 5.53079 16.1209 5.59544 16.0589 5.63798L11.7751 8.37925L15.7538 6.08301C15.82 6.04536 15.8983 6.03489 15.9721 6.05381C16.0459 6.07273 16.1094 6.11955 16.1494 6.18442C16.1893 6.24929 16.2025 6.32713 16.1862 6.40153C16.1699 6.47594 16.1253 6.5411 16.0619 6.58329L10.3924 10.3022L15.7538 7.20997C15.8202 7.17218 15.8987 7.16172 15.9727 7.1808C16.0466 7.19988 16.1103 7.24701 16.1501 7.3122C16.1899 7.37739 16.2028 7.45552 16.186 7.53004C16.1692 7.60456 16.124 7.66962 16.0601 7.71142L13.076 9.6426L15.7538 8.09648C15.8199 8.061 15.8971 8.05214 15.9695 8.07172C16.0419 8.0913 16.1042 8.13783 16.1434 8.20178C16.1826 8.26574 16.1959 8.34227 16.1805 8.41571C16.1651 8.48914 16.1223 8.55392 16.0607 8.59677L14.143 9.84306L15.7538 8.91363C15.8198 8.87719 15.8973 8.86751 15.9703 8.88659C16.0432 8.90567 16.106 8.95206 16.1457 9.01616C16.1855 9.08025 16.199 9.15716 16.1836 9.23097C16.1682 9.30478 16.1251 9.36986 16.063 9.41274L14.1983 10.6473L15.7538 9.74959C15.8199 9.71201 15.8979 9.70149 15.9716 9.72022C16.0453 9.73896 16.1088 9.78549 16.1489 9.85007C16.189 9.91465 16.2025 9.99224 16.1866 10.0666C16.1707 10.1409 16.1266 10.2062 16.0636 10.2487L15.1318 10.8701L15.7538 10.5109C15.8184 10.4746 15.8942 10.4639 15.9663 10.4812C16.0383 10.4984 16.1012 10.5422 16.1424 10.6037C16.1835 10.6653 16.1999 10.7402 16.1882 10.8133C16.1766 10.8865 16.1378 10.9525 16.0795 10.9982L13.1989 13.2116L15.752 11.7378C15.8172 11.6998 15.8945 11.6883 15.968 11.7057C16.0414 11.7231 16.1053 11.7681 16.1465 11.8313C16.1877 11.8945 16.2029 11.9712 16.1892 12.0454C16.1754 12.1196 16.1336 12.1856 16.0724 12.2298L15.4687 12.669L15.752 12.5061C15.8166 12.4698 15.8925 12.4592 15.9645 12.4764C16.0366 12.4936 16.0994 12.5374 16.1406 12.599C16.1818 12.6606 16.1981 12.7354 16.1865 12.8086C16.1748 12.8817 16.136 12.9478 16.0777 12.9935L15.7762 13.2257C15.8392 13.1968 15.9105 13.1911 15.9773 13.2096C16.0442 13.2282 16.1024 13.2698 16.1415 13.3271C16.1806 13.3844 16.1982 13.4537 16.1912 13.5227C16.1842 13.5917 16.1529 13.656 16.103 13.7042L15.5422 14.2469L15.752 14.1263C15.8192 14.0912 15.8974 14.0834 15.9702 14.1045C16.043 14.1256 16.1048 14.1741 16.1428 14.2397C16.1807 14.3053 16.1918 14.3831 16.1738 14.4567C16.1558 14.5304 16.11 14.5942 16.046 14.6348L13.7744 15.9458C13.7123 15.9826 13.6388 15.9953 13.568 15.9814C13.4971 15.9675 13.4338 15.928 13.3902 15.8705C13.3466 15.8129 13.3257 15.7413 13.3315 15.6693C13.3373 15.5974 13.3694 15.53 13.4217 15.4802L13.982 14.9382L12.2371 15.9458C12.1726 15.9821 12.0967 15.9928 12.0247 15.9755C11.9526 15.9583 11.8897 15.9146 11.8486 15.853C11.8074 15.7914 11.791 15.7165 11.8027 15.6434C11.8144 15.5703 11.8532 15.5042 11.9115 15.4585L12.2054 15.2321L10.9685 15.9458C10.9033 15.9838 10.826 15.9953 10.7526 15.9779C10.6792 15.9605 10.6152 15.9155 10.5741 15.8523C10.5329 15.7891 10.5176 15.7124 10.5314 15.6382C10.5452 15.564 10.587 15.498 10.6481 15.4538L11.2542 15.0123L9.63696 15.9458C9.57241 15.9821 9.49652 15.9928 9.42448 15.9755C9.35244 15.9583 9.28956 15.9146 9.24841 15.853C9.20725 15.7914 9.19086 15.7165 9.20252 15.6434C9.21418 15.5703 9.25302 15.5042 9.31127 15.4585L12.1883 13.2469L7.51178 15.9458C7.44587 15.9818 7.36869 15.9912 7.29607 15.9721C7.22345 15.9529 7.16091 15.9068 7.12127 15.843C7.08163 15.7792 7.06791 15.7027 7.08292 15.6291C7.09792 15.5555 7.14052 15.4905 7.20197 15.4473L8.13611 14.8288L6.19611 15.9493C6.15074 15.9748 6.09941 15.9878 6.04738 15.987Z" fill="#E6EBEF"/>
<path d="M31.4643 8.42097C31.4059 8.42096 31.3489 8.40357 31.3004 8.37101C31.2519 8.33846 31.2143 8.29221 31.1922 8.23817C31.1701 8.18412 31.1647 8.12473 31.1765 8.06756C31.1883 8.01039 31.2168 7.95803 31.2585 7.91716L32.8458 6.35635L30.6706 7.61323C30.608 7.64907 30.5344 7.66065 30.4639 7.64575C30.3933 7.63084 30.3307 7.59051 30.2879 7.53242C30.2451 7.47433 30.2252 7.40254 30.2319 7.33072C30.2387 7.2589 30.2716 7.19206 30.3244 7.14293L32.0292 5.57271L29.8723 6.81783C29.809 6.85468 29.7343 6.86659 29.6627 6.85123C29.5911 6.83587 29.5278 6.79433 29.4852 6.73477C29.4427 6.6752 29.4238 6.60188 29.4325 6.52917C29.4411 6.45646 29.4766 6.38959 29.5319 6.34165L31.0116 5.04832L29.1686 6.11238C29.106 6.14986 29.0317 6.1627 28.9601 6.14839C28.8885 6.13409 28.8248 6.09367 28.7814 6.035C28.738 5.97633 28.718 5.9036 28.7252 5.83098C28.7324 5.75835 28.7664 5.69102 28.8206 5.64208L30.5889 3.98603L28.3409 5.28994C28.2771 5.32675 28.2018 5.33827 28.1299 5.3222C28.058 5.30614 27.9948 5.26366 27.9527 5.20319C27.9106 5.14271 27.8928 5.06865 27.9027 4.99566C27.9127 4.92267 27.9497 4.85607 28.0064 4.80906L29.1545 3.86081L27.7319 4.68384C27.6674 4.72115 27.5912 4.73262 27.5186 4.71592C27.4461 4.69923 27.3825 4.65561 27.3409 4.59388C27.2992 4.53215 27.2826 4.45691 27.2942 4.38337C27.3059 4.30982 27.3451 4.24345 27.4038 4.19766L28.0252 3.71325L27.2404 4.16592C27.1773 4.20185 27.1032 4.21319 27.0323 4.19775C26.9614 4.18231 26.8987 4.14118 26.8563 4.08228C26.8139 4.02339 26.7948 3.95088 26.8026 3.87874C26.8105 3.80659 26.8447 3.7399 26.8988 3.6915L28.3909 2.37289L27.1687 3.07835C27.1048 3.11605 27.029 3.1282 26.9565 3.11235C26.884 3.09651 26.8202 3.05384 26.7779 2.99291C26.7356 2.93198 26.7178 2.8573 26.7283 2.78384C26.7387 2.71039 26.7765 2.6436 26.8342 2.59687L28.4267 1.28473C28.3929 1.21739 28.3863 1.13965 28.4082 1.06756C28.4301 0.995467 28.4788 0.934527 28.5443 0.897323L29.7483 0.198338C29.8122 0.160633 29.888 0.148484 29.9604 0.164331C30.0329 0.180177 30.0967 0.222845 30.1391 0.283775C30.1814 0.344705 30.1991 0.419389 30.1887 0.492842C30.1782 0.566295 30.1404 0.633084 30.0828 0.679809L29.9393 0.797384L30.6313 0.397628C30.6944 0.361026 30.7689 0.349218 30.8402 0.364502C30.9116 0.379787 30.9747 0.42107 31.0173 0.48032C31.0599 0.53957 31.079 0.612551 31.0707 0.685063C31.0625 0.757576 31.0276 0.824435 30.9728 0.872632L29.4808 2.18948L31.3902 1.08721C31.4546 1.04989 31.5309 1.03842 31.6034 1.05512C31.676 1.07182 31.7395 1.11544 31.7812 1.17717C31.8228 1.2389 31.8395 1.31413 31.8278 1.38768C31.8161 1.46122 31.777 1.52759 31.7182 1.57338L31.0974 2.0572L31.8987 1.59513C31.9625 1.5584 32.0378 1.54696 32.1097 1.56307C32.1815 1.57918 32.2447 1.62167 32.2867 1.68214C32.3288 1.74268 32.3467 1.81685 32.3366 1.88992C32.3266 1.96299 32.2895 2.02963 32.2326 2.0766L31.0857 3.0272L32.5084 2.20417C32.571 2.16669 32.6453 2.15386 32.7169 2.16816C32.7885 2.18246 32.8522 2.22288 32.8956 2.28155C32.939 2.34022 32.959 2.41295 32.9518 2.48557C32.9445 2.5582 32.9105 2.62554 32.8564 2.67447L31.0857 4.33111L33.3331 3.03367C33.3963 2.99752 33.4707 2.9861 33.5418 3.00164C33.6129 3.01717 33.6758 3.05854 33.7181 3.11774C33.7605 3.17693 33.7794 3.24975 33.7711 3.32208C33.7629 3.39441 33.7281 3.46111 33.6735 3.50926L32.1956 4.79965L34.038 3.73677C34.1006 3.70092 34.1742 3.68935 34.2448 3.70425C34.3154 3.71915 34.378 3.75949 34.4208 3.81758C34.4635 3.87567 34.4835 3.94746 34.4767 4.01928C34.47 4.0911 34.4371 4.15794 34.3843 4.20707L32.6794 5.7767L34.5542 4.69559C34.6161 4.66036 34.6886 4.64879 34.7584 4.66305C34.8282 4.6773 34.8904 4.71642 34.9336 4.77311C34.9767 4.82981 34.9977 4.90023 34.9928 4.97128C34.9879 5.04234 34.9574 5.1092 34.9069 5.15943L33.3196 6.71966L33.4219 6.66087C33.4894 6.6225 33.5693 6.61239 33.6442 6.63272C33.7191 6.65306 33.7829 6.7022 33.8217 6.76942C33.8606 6.83664 33.8712 6.91648 33.8514 6.99152C33.8315 7.06657 33.7828 7.13071 33.7158 7.16997L31.6136 8.38335C31.5682 8.40921 31.5165 8.42221 31.4643 8.42097Z" fill="#F25362"/>
<path d="M14.6151 22.9732C14.5558 22.9731 14.498 22.9552 14.4491 22.9217C14.4003 22.8882 14.3627 22.8408 14.3412 22.7855C14.3198 22.7303 14.3156 22.6699 14.3291 22.6122C14.3426 22.5546 14.3732 22.5023 14.4169 22.4623L16.4269 20.627L13.9061 22.082C13.8424 22.1186 13.7672 22.1301 13.6954 22.114C13.6237 22.098 13.5606 22.0556 13.5185 21.9953C13.4764 21.935 13.4585 21.8612 13.4682 21.7883C13.4779 21.7154 13.5146 21.6488 13.571 21.6017L15.1453 20.2854L13.2183 21.3977C13.1551 21.4343 13.0806 21.4461 13.0093 21.4308C12.9379 21.4155 12.8748 21.3742 12.8322 21.315C12.7896 21.2557 12.7705 21.1828 12.7788 21.1103C12.787 21.0377 12.8219 20.9709 12.8767 20.9227L14.7509 19.269L12.4276 20.6099C12.363 20.647 12.2868 20.6582 12.2143 20.6412C12.1418 20.6242 12.0784 20.5804 12.037 20.5185C11.9956 20.4567 11.9792 20.3814 11.9911 20.3079C12.003 20.2344 12.0424 20.1682 12.1013 20.1226L12.8797 19.5253L12.4358 19.7816C12.3733 19.816 12.3003 19.8265 12.2306 19.8111C12.1609 19.7956 12.0992 19.7554 12.057 19.6978C12.0148 19.6402 11.995 19.5692 12.0013 19.4981C12.0076 19.427 12.0396 19.3606 12.0913 19.3113L13.6327 17.9157L12.9972 18.2825C12.9397 18.3158 12.8726 18.3285 12.8069 18.3187C12.7412 18.309 12.6807 18.2772 12.6354 18.2286C12.59 18.1801 12.5625 18.1176 12.5572 18.0514C12.5519 17.9851 12.5692 17.9191 12.6063 17.864L13.5669 16.4384C13.5206 16.4137 13.4817 16.3772 13.4543 16.3325C13.4269 16.2878 13.412 16.2366 13.411 16.1842C13.4101 16.1318 13.4231 16.0801 13.4489 16.0344C13.4746 15.9888 13.5121 15.9508 13.5575 15.9246L14.1988 15.5542C14.2564 15.521 14.3235 15.5082 14.3892 15.518C14.4549 15.5278 14.5154 15.5595 14.5607 15.6081C14.606 15.6566 14.6336 15.7191 14.6389 15.7853C14.6442 15.8516 14.6269 15.9176 14.5898 15.9728L13.8061 17.1356L15.7297 16.0251C15.7922 15.9907 15.8652 15.9802 15.9349 15.9956C16.0046 16.011 16.0663 16.0513 16.1085 16.1089C16.1507 16.1665 16.1705 16.2375 16.1642 16.3086C16.1578 16.3797 16.1259 16.4461 16.0742 16.4954L14.531 17.8934L16.4757 16.7687C16.5403 16.7317 16.6165 16.7205 16.689 16.7375C16.7615 16.7544 16.8249 16.7983 16.8663 16.8601C16.9077 16.922 16.9241 16.9973 16.9122 17.0708C16.9002 17.1443 16.8608 17.2105 16.802 17.2561L16.0248 17.8516L16.9989 17.2896C17.062 17.253 17.1365 17.2412 17.2079 17.2565C17.2793 17.2718 17.3424 17.313 17.385 17.3723C17.4276 17.4315 17.4466 17.5045 17.4384 17.577C17.4302 17.6496 17.3953 17.7164 17.3405 17.7646L15.4669 19.4183L17.7884 18.0779C17.8522 18.0413 17.9273 18.0299 17.9991 18.0459C18.0708 18.0619 18.1339 18.1043 18.176 18.1646C18.2181 18.2249 18.236 18.2987 18.2263 18.3716C18.2166 18.4445 18.1799 18.5111 18.1235 18.5582L16.5474 19.8786L18.4757 18.7675C18.5382 18.7327 18.6114 18.7218 18.6814 18.7371C18.7514 18.7523 18.8134 18.7926 18.8557 18.8504C18.8981 18.9081 18.9179 18.9794 18.9115 19.0507C18.9051 19.1221 18.8728 19.1886 18.8207 19.2378L16.8114 21.072L19.274 19.6493C19.334 19.6146 19.4043 19.6023 19.4726 19.6144C19.5408 19.6265 19.6026 19.6623 19.6469 19.7156C19.6913 19.7688 19.7155 19.836 19.7151 19.9053C19.7147 19.9746 19.6899 20.0416 19.6449 20.0944L18.8219 21.0661L19.1699 20.8657C19.2034 20.8444 19.2408 20.8301 19.2799 20.8237C19.319 20.8172 19.3591 20.8188 19.3976 20.8282C19.4361 20.8377 19.4723 20.8548 19.504 20.8786C19.5357 20.9023 19.5623 20.9323 19.5821 20.9666C19.6019 21.0009 19.6146 21.0389 19.6194 21.0783C19.6242 21.1176 19.621 21.1575 19.6099 21.1956C19.5989 21.2337 19.5802 21.2691 19.5551 21.2998C19.53 21.3305 19.499 21.3558 19.4639 21.3742L17.6456 22.4241C17.5856 22.4588 17.5152 22.4712 17.447 22.4591C17.3788 22.447 17.317 22.4111 17.2726 22.3579C17.2282 22.3046 17.2041 22.2374 17.2045 22.1681C17.2048 22.0988 17.2297 22.0319 17.2746 21.9791L18.1006 21.0073L14.765 22.9326C14.7197 22.9597 14.6678 22.9737 14.6151 22.9732Z" fill="#FBDEB4"/>
<path d="M19.2382 21.3401C19.1792 21.3401 19.1216 21.3222 19.0728 21.289C19.0241 21.2557 18.9865 21.2085 18.965 21.1536C18.9434 21.0987 18.9389 21.0386 18.9519 20.981C18.965 20.9235 18.9951 20.8712 19.0383 20.831L20.224 19.7258L18.692 20.6076C18.6268 20.6442 18.5502 20.6545 18.4776 20.6365C18.4051 20.6186 18.3421 20.5736 18.3015 20.5109C18.2609 20.4481 18.2458 20.3722 18.2591 20.2987C18.2725 20.2252 18.3133 20.1595 18.3734 20.115L19.314 19.4389L18.1759 20.0968C18.1103 20.1334 18.0332 20.1436 17.9604 20.1251C17.8876 20.1067 17.8246 20.0611 17.7843 19.9977C17.7441 19.9343 17.7296 19.8578 17.744 19.7841C17.7583 19.7104 17.8003 19.6449 17.8614 19.6012L20.6955 17.63L17.5322 19.456C17.4663 19.4941 17.3881 19.5052 17.3142 19.4869C17.2403 19.4686 17.1764 19.4223 17.1359 19.3578C17.0954 19.2933 17.0815 19.2155 17.0972 19.1409C17.1129 19.0664 17.1569 19.0008 17.22 18.9581L22.7096 15.2292L16.745 18.6723C16.6785 18.7089 16.6005 18.7183 16.5272 18.6987C16.4539 18.679 16.3911 18.6318 16.3518 18.5669C16.3126 18.502 16.2999 18.4244 16.3166 18.3503C16.3332 18.2763 16.3778 18.2116 16.4411 18.1697L17.4528 17.533L16.277 18.2109C16.2107 18.2459 16.1335 18.2543 16.0613 18.2342C15.989 18.2142 15.9271 18.1673 15.8883 18.1032C15.8494 18.039 15.8366 17.9625 15.8524 17.8892C15.8681 17.8158 15.9113 17.7513 15.9731 17.7088L17.6292 16.6565L15.785 17.7212C15.7185 17.7572 15.6406 17.7662 15.5676 17.7463C15.4946 17.7264 15.4321 17.6791 15.3931 17.6142C15.3541 17.5494 15.3416 17.472 15.3582 17.3982C15.3748 17.3244 15.4192 17.2598 15.4822 17.2179L15.6968 17.0827L15.3441 17.285C15.2779 17.3233 15.1994 17.3344 15.1252 17.3158C15.051 17.2972 14.9869 17.2504 14.9467 17.1853C14.9064 17.1203 14.8931 17.0421 14.9096 16.9674C14.9261 16.8927 14.971 16.8274 15.0349 16.7853L20.3216 13.2815L14.6263 16.5701C14.5601 16.6113 14.4802 16.6246 14.4043 16.607C14.3283 16.5893 14.2625 16.5422 14.2212 16.476C14.18 16.4099 14.1667 16.33 14.1844 16.254C14.202 16.1781 14.2491 16.1122 14.3153 16.071L20.1129 12.191L15.2224 15.0128C15.1564 15.0511 15.0781 15.0622 15.004 15.0437C14.93 15.0253 14.866 14.9788 14.8256 14.9141C14.7852 14.8493 14.7716 14.7714 14.7876 14.6968C14.8036 14.6222 14.848 14.5568 14.9114 14.5143L19.5997 11.365L17.8784 12.3597C17.8128 12.3964 17.7357 12.4065 17.6629 12.3881C17.5901 12.3697 17.5271 12.3241 17.4869 12.2606C17.4466 12.1972 17.4322 12.1208 17.4465 12.0471C17.4608 11.9733 17.5028 11.9079 17.5639 11.8641L20.4239 9.87359L20.2822 9.95531C20.2176 9.99266 20.1411 10.004 20.0684 9.98704C19.9957 9.97007 19.9322 9.92607 19.8907 9.86397C19.8493 9.80187 19.833 9.72632 19.8452 9.65266C19.8575 9.579 19.8973 9.51275 19.9566 9.46737L22.4962 7.52326C22.4384 7.50317 22.3881 7.46583 22.3522 7.41627C22.3097 7.35695 22.2908 7.28396 22.2992 7.21148C22.3076 7.13901 22.3426 7.07224 22.3974 7.02416L23.9923 5.62912C23.9774 5.56739 23.9828 5.50246 24.0078 5.44407C24.0328 5.38567 24.0761 5.33695 24.1311 5.3052L24.8406 4.89369C24.9037 4.85819 24.9777 4.84722 25.0484 4.8629C25.1191 4.87858 25.1815 4.9198 25.2237 4.97865C25.2659 5.03751 25.2848 5.10986 25.277 5.18184C25.2691 5.25381 25.2349 5.32035 25.181 5.36869L25.0452 5.48627L25.5044 5.22173C25.569 5.18516 25.6451 5.1744 25.7173 5.19163C25.7895 5.20885 25.8526 5.25277 25.8937 5.31457C25.9349 5.37637 25.9512 5.45146 25.9392 5.52475C25.9273 5.59804 25.8881 5.6641 25.8295 5.70966L23.9059 7.18641L26.1628 5.88368C26.2283 5.84704 26.3055 5.83689 26.3783 5.85532C26.4511 5.87374 26.5141 5.91935 26.5543 5.98277C26.5946 6.04619 26.609 6.12261 26.5947 6.19634C26.5804 6.27007 26.5384 6.33552 26.4773 6.37925L23.6196 8.36628L26.8047 6.52681C26.8708 6.48855 26.9491 6.47746 27.0231 6.49589C27.0972 6.51431 27.1611 6.56081 27.2015 6.62555C27.2419 6.69029 27.2555 6.7682 27.2395 6.8428C27.2235 6.91741 27.1791 6.98286 27.1157 7.02533L22.4245 10.1764L27.5161 7.23697C27.5821 7.1987 27.6604 7.18761 27.7345 7.20604C27.8085 7.22447 27.8725 7.27098 27.9129 7.33573C27.9534 7.40052 27.9672 7.47856 27.9511 7.5533C27.9351 7.62804 27.8906 7.6936 27.8271 7.73607L22.0282 11.6161L28.2844 8.00473C28.3504 7.96829 28.4279 7.95861 28.5009 7.97769C28.5738 7.99678 28.6366 8.04316 28.6764 8.10726C28.7161 8.17135 28.7296 8.24826 28.7142 8.32207C28.6988 8.39589 28.6557 8.46096 28.5937 8.50384L23.3122 12.007L29.0034 8.72136C29.0701 8.68287 29.1493 8.67213 29.2239 8.69144C29.2985 8.71074 29.3625 8.75856 29.4022 8.82459C29.4419 8.89062 29.454 8.9696 29.4361 9.04451C29.4181 9.11943 29.3715 9.1843 29.3062 9.22517L29.0869 9.36155L29.4396 9.15756C29.506 9.12159 29.5836 9.11254 29.6565 9.13227C29.7294 9.152 29.7918 9.19901 29.831 9.26355C29.8701 9.32809 29.8829 9.40522 29.8668 9.47895C29.8506 9.55268 29.8067 9.61737 29.7441 9.65961L28.0893 10.7101L29.8599 9.68841C29.9264 9.65186 30.0045 9.64242 30.0777 9.66207C30.151 9.68173 30.2138 9.72896 30.2531 9.79388C30.2924 9.8588 30.305 9.93639 30.2884 10.0104C30.2717 10.0844 30.2271 10.1492 30.1639 10.191L29.1545 10.8312L29.3708 10.7066C29.4368 10.6675 29.5154 10.6558 29.5899 10.6738C29.6645 10.6919 29.729 10.7384 29.7697 10.8034C29.8104 10.8683 29.8242 10.9467 29.808 11.0216C29.7918 11.0965 29.7469 11.1622 29.683 11.2045L24.1928 14.934L26.4561 13.6278C26.5217 13.5911 26.5988 13.581 26.6716 13.5994C26.7444 13.6178 26.8074 13.6634 26.8477 13.7269C26.8879 13.7903 26.9024 13.8667 26.8881 13.9404C26.8737 14.0142 26.8317 14.0796 26.7706 14.1234L23.9371 16.0939L24.0746 16.0151C24.1398 15.9786 24.2165 15.9683 24.2891 15.9862C24.3616 16.0042 24.4246 16.0492 24.4652 16.1119C24.5058 16.1747 24.5209 16.2505 24.5076 16.3241C24.4942 16.3976 24.4533 16.4633 24.3933 16.5078L22.4374 17.9187C22.481 17.9391 22.5189 17.9698 22.5479 18.0083C22.5768 18.0467 22.5959 18.0917 22.6033 18.1393C22.6108 18.1868 22.6065 18.2355 22.5908 18.2809C22.5751 18.3264 22.5485 18.3674 22.5132 18.4002L20.0336 20.7046C20.0435 20.7637 20.0352 20.8245 20.0096 20.8787C19.9841 20.9329 19.9426 20.978 19.8907 21.008L19.3828 21.3019C19.3388 21.3271 19.2889 21.3403 19.2382 21.3401Z" fill="#FBAC2E"/>
<path d="M11.1595 24.8027C11.1011 24.8027 11.0441 24.7853 10.9956 24.7527C10.9471 24.7202 10.9095 24.6739 10.8874 24.6199C10.8653 24.5658 10.8599 24.5064 10.8717 24.4493C10.8835 24.3921 10.912 24.3397 10.9537 24.2989L12.3864 22.8927L10.9578 23.7157C10.8962 23.7513 10.8237 23.7632 10.7539 23.7494C10.6841 23.7356 10.6217 23.6969 10.5782 23.6405C10.5348 23.5841 10.5132 23.5139 10.5177 23.4429C10.5221 23.3718 10.5521 23.3048 10.6022 23.2542L11.7191 22.1302L11.5052 22.2537C11.4504 22.286 11.3866 22.2997 11.3234 22.2927C11.2602 22.2857 11.2009 22.2584 11.1545 22.2149C11.1082 22.1713 11.0772 22.1139 11.0662 22.0513C11.0552 21.9886 11.0648 21.9241 11.0936 21.8674L11.7497 20.5623C11.7367 20.5474 11.7251 20.5312 11.715 20.5141C11.6761 20.4466 11.6655 20.3664 11.6857 20.2911C11.7058 20.2158 11.7551 20.1516 11.8226 20.1126L12.1165 19.9433C12.1713 19.911 12.2351 19.8973 12.2983 19.9042C12.3615 19.9112 12.4208 19.9386 12.4672 19.9821C12.5135 20.0256 12.5445 20.083 12.5555 20.1457C12.5665 20.2083 12.5569 20.2728 12.5281 20.3295L12.0636 21.2531L13.344 20.5141C13.4057 20.4786 13.4782 20.4666 13.548 20.4804C13.6178 20.4943 13.6802 20.533 13.7237 20.5893C13.7671 20.6457 13.7886 20.7159 13.7842 20.787C13.7798 20.858 13.7498 20.925 13.6997 20.9756L12.5798 22.1002L14.0983 21.2237C14.1602 21.1885 14.2328 21.1769 14.3025 21.1911C14.3723 21.2054 14.4346 21.2445 14.4777 21.3012C14.5208 21.3579 14.5419 21.4283 14.537 21.4994C14.532 21.5704 14.5015 21.6373 14.451 21.6875L13.0172 23.0943L14.6515 22.1537C14.7186 22.1186 14.7968 22.1107 14.8696 22.1319C14.9424 22.153 15.0043 22.2014 15.0422 22.2671C15.0801 22.3327 15.0913 22.4105 15.0732 22.4841C15.0552 22.5577 15.0094 22.6216 14.9454 22.6622L11.3065 24.7639C11.2618 24.7897 11.2111 24.8031 11.1595 24.8027Z" fill="#5B696B"/>
<path d="M29.9197 10.6584C29.8631 10.6584 29.8077 10.6421 29.7602 10.6114C29.7126 10.5807 29.6749 10.5369 29.6516 10.4853C29.6284 10.4338 29.6205 10.3765 29.6289 10.3206C29.6374 10.2646 29.6618 10.2123 29.6993 10.1698L30.4976 9.26393L29.3618 9.91941C29.3021 9.95385 29.2321 9.96617 29.1641 9.95422C29.0962 9.94227 29.0346 9.90681 28.9902 9.85404C28.9458 9.80128 28.9213 9.73457 28.9211 9.6656C28.9209 9.59662 28.945 9.52977 28.9891 9.47674L29.8621 8.43209L28.5993 9.16046C28.5391 9.19507 28.4685 9.2072 28.4001 9.19469C28.3317 9.18218 28.27 9.14585 28.2259 9.09214C28.1817 9.03843 28.1581 8.97082 28.1591 8.90132C28.1601 8.83182 28.1857 8.76492 28.2313 8.7125L29.0397 7.79306L27.8915 8.4556C27.8311 8.49018 27.7604 8.50221 27.692 8.48955C27.6236 8.47689 27.5618 8.44036 27.5178 8.38646C27.4738 8.33256 27.4503 8.26478 27.4516 8.1952C27.4528 8.12561 27.4788 8.05873 27.5247 8.00646L28.3177 7.11289L27.1943 7.75955C27.1341 7.79456 27.0634 7.80703 26.9948 7.79475C26.9262 7.78247 26.8643 7.74623 26.8199 7.6925C26.7756 7.63877 26.7518 7.57104 26.7527 7.50138C26.7537 7.43173 26.7793 7.36467 26.8251 7.31218L27.6482 6.36335L26.4724 7.04176C26.4126 7.07616 26.3426 7.08843 26.2746 7.0764C26.2067 7.06437 26.1451 7.02881 26.1007 6.97596C26.0564 6.9231 26.032 6.85632 26.0319 6.78731C26.0318 6.7183 26.056 6.65146 26.1003 6.5985L26.9703 5.56442L25.7152 6.28927C25.6526 6.32675 25.5783 6.33959 25.5067 6.32529C25.4351 6.31099 25.3714 6.27057 25.328 6.2119C25.2846 6.15323 25.2645 6.0805 25.2718 6.00787C25.279 5.93524 25.313 5.86791 25.3672 5.81897L25.7011 5.50681L25.2126 5.78781C25.1537 5.82144 25.0849 5.83365 25.018 5.82238C24.9511 5.8111 24.8902 5.77704 24.8456 5.72596C24.8009 5.67488 24.7753 5.60993 24.7731 5.54213C24.7709 5.47433 24.7922 5.40785 24.8334 5.35396L26.1779 3.61796C26.1687 3.60647 26.1605 3.59429 26.1532 3.58151C26.1144 3.51405 26.1039 3.43397 26.1241 3.35881C26.1443 3.28365 26.1934 3.21956 26.2608 3.18058L26.7728 2.88664C26.8317 2.85302 26.9005 2.84081 26.9674 2.85208C27.0343 2.86335 27.0952 2.89742 27.1398 2.9485C27.1845 2.99958 27.2101 3.06453 27.2123 3.13233C27.2145 3.20013 27.1932 3.26661 27.152 3.3205L26.2114 4.53623L27.617 3.72437C27.6796 3.68689 27.754 3.67405 27.8255 3.68835C27.8971 3.70265 27.9608 3.74307 28.0042 3.80174C28.0476 3.86042 28.0677 3.93314 28.0604 4.00577C28.0532 4.0784 28.0192 4.14573 27.965 4.19467L27.634 4.50566L28.119 4.22524C28.1789 4.19083 28.2489 4.17857 28.3168 4.1906C28.3848 4.20263 28.4464 4.23818 28.4907 4.29104C28.5351 4.34389 28.5595 4.41068 28.5595 4.47969C28.5596 4.5487 28.5354 4.61554 28.4912 4.6685L27.6223 5.70434L28.8774 4.97948C28.9376 4.94448 29.0083 4.93201 29.0769 4.94429C29.1455 4.95657 29.2075 4.99281 29.2518 5.04654C29.2961 5.10027 29.32 5.168 29.319 5.23765C29.3181 5.30731 29.2924 5.37436 29.2466 5.42686L28.4236 6.3751L29.5993 5.69669C29.6597 5.66211 29.7304 5.65008 29.7989 5.66274C29.8673 5.6754 29.929 5.71194 29.973 5.76584C30.0171 5.81974 30.0405 5.88751 30.0393 5.9571C30.038 6.02668 30.0121 6.09356 29.9662 6.14583L29.1725 7.03999L30.2965 6.39333C30.3569 6.35835 30.4277 6.34598 30.4963 6.35841C30.565 6.37084 30.6269 6.40728 30.6712 6.4612C30.7154 6.51512 30.739 6.58302 30.7378 6.65276C30.7366 6.72249 30.7106 6.78953 30.6646 6.84188L29.8568 7.76073L31.0049 7.09819C31.0647 7.06376 31.1347 7.05144 31.2026 7.06339C31.2705 7.07534 31.3321 7.1108 31.3765 7.16356C31.421 7.21633 31.4454 7.28303 31.4456 7.35201C31.4458 7.42099 31.4218 7.48784 31.3776 7.54086L30.5058 8.58493L31.7668 7.85714C31.8272 7.82255 31.8978 7.81047 31.9662 7.82305C32.0346 7.83564 32.0963 7.87207 32.1404 7.92588C32.1845 7.97968 32.2081 8.04737 32.2069 8.11691C32.2058 8.18646 32.18 8.25335 32.1342 8.30569L30.6851 9.94587C30.7186 10.0131 30.725 10.0905 30.7031 10.1624C30.6813 10.2342 30.6328 10.2949 30.5676 10.3321L30.0661 10.6213C30.0215 10.6465 29.9709 10.6593 29.9197 10.6584Z" fill="#E6EBEF"/>
<path d="M33.5388 2.76498C32.1437 1.22239 30.1179 -1.08973 28.2302 1.19829C24.2676 5.16018 20.3055 9.12208 16.344 13.084C16.518 -4.61288 17.9983 1.08247 1.68173 0.223586C-1.34525 1.07248 0.82931 9.25455 0.206748 12.0505C0.206748 13.365 -0.292359 15.8623 1.6541 15.9358C5.59288 16.0839 9.56869 15.9358 13.5133 15.9358C12.7556 16.7588 12.4657 17.8893 12.0777 18.9204C-4.61796 18.4031 1.20202 18.3566 0.214979 33.5586C0.515971 36.1917 11.4858 34.304 14.0836 34.8384C18.2193 35.5803 15.7026 25.5217 16.3498 22.8333C22.1763 20.6382 25.586 14.4978 30.2972 10.5879C32.0891 8.20754 37.658 5.61559 33.5388 2.76498ZM26.7312 3.47043L31.6858 8.42506L30.1032 10.0082L25.148 5.05299L26.7312 3.47043ZM24.4461 5.75551L24.586 5.61559L26.8628 7.89185L16.7326 18.0221L14.4557 15.7453C17.7437 12.3774 21.1146 9.08407 24.4461 5.75551ZM3.01562 15.4855C-0.542207 16.3391 1.60942 8.8013 1.05858 6.63967C1.43071 5.03124 -0.130693 0.549269 2.33016 0.650384C18.6079 0.838505 15.2687 -2.25314 15.4927 13.9364C14.976 14.4526 14.4586 14.9717 13.9407 15.486L3.01562 15.4855ZM11.4111 24.263C11.3791 24.268 11.3476 24.2759 11.317 24.2866C11.2751 24.2697 11.2309 24.2588 11.1859 24.2542C10.9055 23.0579 12.0448 21.7264 12.3029 20.5053C12.8617 20.7172 13.36 21.063 13.754 21.5123C14.148 21.9617 14.4257 22.5009 14.5627 23.0826C13.501 23.4283 12.4734 23.9603 11.4111 24.263ZM14.6444 34.2076C10.3964 34.2076 6.12608 34.217 1.88279 34.2076C1.07975 34.09 1.06681 33.4063 1.06681 32.7914C2.08737 17.9951 -3.58564 19.4142 11.8514 19.553C11.5816 21.1338 9.76915 23.1426 10.5146 24.6087L5.9362 30.4369C5.45414 30.0066 4.03912 28.1148 3.76811 29.4081C4.53999 29.8749 5.28718 31.7261 6.27364 31.0936L11.3041 24.694C12.705 24.2101 14.113 23.6693 15.4868 23.1478C15.0365 25.3518 16.5297 33.6126 14.6427 34.2076H14.6444ZM16.1535 22.4965C16.0358 22.456 15.9077 22.4572 15.7908 22.5001C15.6739 22.5429 15.5753 22.6247 15.5115 22.7316L15.394 22.7751C15.2091 22.0906 14.8446 21.468 14.3381 20.9718C13.8316 20.4756 13.2016 20.124 12.5134 19.9533C12.9207 18.7216 13.41 17.5185 13.9778 16.352L18.8571 21.2314C18.1152 21.8945 17.06 22.1296 16.1535 22.4965ZM19.5467 20.5659L19.4127 20.6999L17.1364 18.4237C20.5112 15.0473 23.8872 11.6707 27.2644 8.29396L29.5406 10.5702L19.5467 20.5659ZM33.8962 6.21523L32.2319 7.87892C30.58 6.22777 28.9284 4.57623 27.2773 2.92429C28.3355 2.09186 29.6047 -0.416612 30.9645 1.30352C31.9597 2.75792 35.283 4.18823 33.8962 6.21523Z" fill="#262626"/>
</svg>
