<svg width="41" height="54" viewBox="0 0 41 54" fill="none" xmlns="http://www.w3.org/2000/svg">
<path d="M4.86238 44.082C4.95338 44.134 5.00538 44.212 5.03138 44.316C5.18738 45.005 5.27838 45.681 5.29138 46.357C5.30438 47.033 5.29138 47.709 5.26538 48.398C5.23938 49.087 5.21338 49.789 5.21338 50.478C5.20038 51.167 5.20038 51.856 5.20038 52.558C5.20038 52.701 5.14838 52.818 5.05738 52.883C4.96638 52.961 4.84938 53 4.73238 53C4.61538 53 4.51138 52.961 4.40738 52.883C4.31638 52.818 4.26438 52.701 4.26438 52.558C4.26438 51.856 4.26438 51.167 4.27738 50.478C4.29038 49.789 4.30338 49.087 4.34238 48.398C4.36838 47.8 4.36838 47.215 4.36838 46.63C4.35538 46.045 4.30338 45.46 4.19938 44.875C3.82238 44.849 3.44538 44.836 3.08138 44.823C2.70438 44.81 2.32738 44.81 1.95038 44.823C1.97638 45.512 1.97638 46.201 1.93738 46.89C1.91138 47.566 1.91138 48.255 1.92438 48.944C1.92438 49.334 1.93738 49.711 1.93738 50.075C1.93738 50.452 1.95038 50.829 1.96338 51.206C1.97638 51.349 1.97638 51.479 1.97638 51.596C1.97638 51.713 1.97638 51.83 1.96338 51.947C1.96338 52.064 1.95038 52.181 1.93738 52.298C1.92438 52.415 1.91138 52.545 1.89838 52.688C1.88538 52.805 1.82038 52.896 1.71638 52.935C1.61238 52.987 1.50838 52.987 1.39138 52.961C1.27438 52.948 1.18338 52.883 1.09238 52.792C1.01438 52.701 0.975379 52.584 0.988379 52.441C1.01438 52.272 1.02738 52.116 1.04038 51.986C1.05338 51.843 1.05338 51.713 1.05338 51.583C1.04038 51.453 1.02738 51.336 1.02738 51.206C1.01438 51.076 1.01438 50.933 1.01438 50.79C1.00138 50.439 0.988379 50.088 0.988379 49.724C0.988379 49.373 0.988379 49.022 0.988379 48.671C0.975379 47.956 0.988379 47.241 1.01438 46.539C1.04038 45.824 1.04038 45.109 1.00138 44.394C1.00138 44.264 1.04038 44.147 1.14438 44.069C1.24838 43.991 1.35238 43.952 1.46938 43.939C1.98938 43.9 2.50938 43.887 3.02938 43.913C3.54938 43.939 4.05638 43.965 4.58938 43.991C4.69338 44.004 4.78438 44.03 4.86238 44.082ZM9.87571 44.173C10.0707 44.238 10.1877 44.303 10.2527 44.394C10.3437 44.511 10.4087 44.654 10.4607 44.823C10.5127 44.992 10.5387 45.187 10.5647 45.382C10.5907 45.59 10.5907 45.811 10.5907 46.032C10.5777 46.266 10.5647 46.487 10.5387 46.708C10.5127 46.929 10.4087 47.189 10.2267 47.462C10.0447 47.735 9.82371 47.982 9.55071 48.229C9.29071 48.463 9.00471 48.671 8.69271 48.827C8.38071 48.983 8.09471 49.061 7.82171 49.061C7.79571 49.061 7.75671 49.061 7.73071 49.061C7.70471 49.061 7.66571 49.061 7.63971 49.048L7.62671 49.477C7.62671 49.724 7.63971 49.958 7.63971 50.205C7.63971 50.452 7.65271 50.699 7.66571 50.933C7.66571 51.05 7.66571 51.18 7.66571 51.297C7.67871 51.427 7.67871 51.544 7.67871 51.674C7.67871 51.804 7.69171 51.921 7.69171 52.012C7.70471 52.103 7.70471 52.181 7.70471 52.246C7.70471 52.311 7.70471 52.376 7.70471 52.454C7.70471 52.519 7.69171 52.61 7.67871 52.727C7.67871 52.805 7.65271 52.87 7.61371 52.922C7.57471 52.974 7.50971 53 7.41871 53C7.39271 53 7.34071 52.987 7.27571 52.974C7.22371 52.961 7.15871 52.948 7.09371 52.935C7.04171 52.909 6.98971 52.896 6.93771 52.857C6.88571 52.831 6.84671 52.792 6.82071 52.766C6.76871 52.688 6.75571 52.623 6.75571 52.545C6.76871 52.467 6.76871 52.376 6.78171 52.298C6.79471 52.181 6.79471 52.103 6.80771 52.051C6.80771 51.999 6.80771 51.96 6.80771 51.921C6.80771 51.882 6.79471 51.843 6.79471 51.791C6.78171 51.739 6.78171 51.648 6.76871 51.531C6.76871 51.479 6.76871 51.427 6.75571 51.375C6.75571 51.323 6.75571 51.271 6.75571 51.219C6.74271 50.881 6.72971 50.556 6.72971 50.218C6.71671 49.893 6.71671 49.581 6.71671 49.269V49.152C6.72971 48.749 6.72971 48.346 6.72971 47.943C6.71671 47.527 6.71671 47.124 6.70371 46.721C6.69071 46.604 6.69071 46.474 6.69071 46.37C6.67771 46.253 6.67771 46.136 6.66471 46.006L6.63871 45.525C6.63871 45.499 6.62571 45.473 6.62571 45.447C6.62571 45.421 6.62571 45.395 6.62571 45.369C6.62571 45.304 6.62571 45.213 6.62571 45.096C6.61271 44.992 6.61271 44.875 6.59971 44.758C6.59971 44.654 6.59971 44.537 6.59971 44.446C6.59971 44.355 6.59971 44.277 6.59971 44.238C6.62571 44.017 6.72971 43.9 6.91171 43.9C6.93771 43.9 7.02871 43.9 7.18471 43.9C7.34071 43.9 7.52271 43.9 7.74371 43.913C7.97771 43.913 8.22471 43.926 8.48471 43.939C8.75771 43.965 9.00471 43.991 9.23871 44.03C9.48571 44.069 9.69371 44.121 9.87571 44.173ZM9.58971 46.76C9.66771 46.656 9.70671 46.565 9.71971 46.5C9.74571 46.396 9.77171 46.279 9.78471 46.149C9.79771 46.019 9.79771 45.876 9.79771 45.746C9.78471 45.616 9.77171 45.486 9.74571 45.369C9.70671 45.239 9.66771 45.148 9.60271 45.07C9.56371 45.018 9.45971 44.992 9.29071 44.953C9.12171 44.927 8.92671 44.914 8.71871 44.901C8.49771 44.875 8.28971 44.875 8.09471 44.862C7.88671 44.862 7.73071 44.849 7.62671 44.849H7.49671C7.50971 44.94 7.52271 45.031 7.53571 45.135C7.54871 45.252 7.54871 45.356 7.56171 45.46C7.57471 45.577 7.57471 45.681 7.58771 45.798C7.58771 45.902 7.58771 45.993 7.58771 46.071C7.58771 46.149 7.60071 46.214 7.60071 46.292C7.60071 46.37 7.60071 46.435 7.60071 46.5C7.61371 46.734 7.62671 46.968 7.62671 47.228C7.62671 47.488 7.63971 47.761 7.63971 48.06C7.66571 48.073 7.70471 48.086 7.73071 48.099C7.75671 48.099 7.78271 48.099 7.80871 48.099C7.93871 48.099 8.06871 48.073 8.19871 48.008C8.34171 47.956 8.47171 47.878 8.60171 47.774C8.73171 47.683 8.86171 47.566 8.99171 47.449C9.12171 47.332 9.23871 47.215 9.34271 47.098C9.44671 46.981 9.52471 46.864 9.58971 46.76ZM15.8977 51.856C15.9887 51.921 16.0537 52.012 16.1057 52.116C16.1707 52.298 16.1187 52.467 15.9627 52.597C15.8457 52.688 15.7157 52.766 15.5727 52.805C15.4297 52.857 15.2737 52.896 15.1047 52.922C14.9487 52.948 14.7797 52.961 14.6107 52.961C14.4417 52.974 14.2857 52.974 14.1427 52.974C14.0907 52.974 14.0387 52.974 13.9997 52.974C13.9477 52.974 13.9087 52.974 13.8567 52.974C13.8307 52.974 13.7917 52.974 13.7657 52.974C13.7267 52.974 13.6877 52.987 13.6487 52.987C13.5967 52.987 13.5317 52.987 13.4667 52.987C13.4017 53 13.3237 53 13.2587 53C13.1417 53 13.0117 52.987 12.8817 52.974C12.7517 52.974 12.6347 52.935 12.5177 52.896C12.4007 52.857 12.2837 52.792 12.1927 52.701C12.1017 52.623 12.0367 52.506 11.9977 52.376C11.9197 52.064 11.8807 51.752 11.8937 51.44C11.9067 51.115 11.9197 50.803 11.9587 50.491C11.9717 50.335 11.9717 50.192 11.9847 50.049C11.9977 49.906 12.0107 49.763 12.0107 49.62C12.0107 49.464 12.0107 49.295 12.0107 49.126C12.0107 48.97 12.0237 48.801 12.0237 48.645C12.0367 48.008 12.0497 47.371 12.0497 46.734C12.0497 46.097 12.0237 45.447 11.9717 44.81C11.9717 44.784 11.9717 44.758 11.9587 44.706C11.9457 44.654 11.9457 44.602 11.9457 44.537C11.9327 44.459 11.9457 44.394 11.9457 44.316C11.9587 44.238 11.9847 44.173 12.0237 44.108C12.0627 44.03 12.1407 43.991 12.2577 43.952C12.3747 43.926 12.5047 43.913 12.6347 43.913C12.7777 43.913 12.9077 43.913 13.0377 43.926C13.1677 43.926 13.2717 43.939 13.3497 43.939C13.4147 43.939 13.5447 43.926 13.7397 43.926C13.9217 43.913 14.1297 43.913 14.3377 43.913C14.5457 43.913 14.7407 43.9 14.9487 43.9C15.1437 43.9 15.2867 43.9 15.3777 43.913C15.5337 43.913 15.6637 43.978 15.7417 44.095C15.8197 44.199 15.8587 44.316 15.8587 44.446C15.8457 44.563 15.8067 44.667 15.7287 44.771C15.6507 44.862 15.5337 44.914 15.3647 44.901C15.1697 44.888 14.9747 44.888 14.7797 44.901C14.5717 44.914 14.3767 44.927 14.1817 44.94C14.0257 44.953 13.8827 44.966 13.7267 44.979C13.5707 44.992 13.4147 45.005 13.2587 45.005C13.2067 45.005 13.1547 44.992 13.1157 44.992C13.0637 44.992 13.0247 44.992 12.9727 44.992C13.0117 45.525 13.0377 46.058 13.0377 46.552C13.0377 47.059 13.0247 47.514 13.0117 47.93C13.1677 47.904 13.3237 47.878 13.4927 47.865C13.6617 47.865 13.8437 47.852 14.0517 47.852C14.1557 47.852 14.2727 47.852 14.3897 47.865C14.4937 47.865 14.6107 47.865 14.7277 47.865C14.8317 47.878 14.9227 47.878 15.0137 47.878C15.1047 47.878 15.1957 47.878 15.2867 47.878C15.4557 47.878 15.5727 47.943 15.6507 48.047C15.7287 48.151 15.7807 48.268 15.7807 48.398C15.7807 48.515 15.7417 48.632 15.6507 48.736C15.5727 48.827 15.4557 48.879 15.2997 48.879C15.1957 48.879 15.0917 48.879 15.0007 48.879C14.8967 48.879 14.7927 48.866 14.6887 48.866C14.5847 48.866 14.4677 48.853 14.3507 48.853C14.2467 48.853 14.1297 48.853 14.0127 48.853C13.8177 48.853 13.6227 48.853 13.4537 48.866C13.2977 48.892 13.1417 48.918 12.9857 48.944L12.9727 49.464C12.9597 49.789 12.9467 50.127 12.9337 50.452C12.9207 50.79 12.9207 51.115 12.9077 51.44C12.9077 51.466 12.9077 51.479 12.9077 51.492C12.9077 51.518 12.8947 51.531 12.8947 51.557C12.8947 51.622 12.8947 51.687 12.8947 51.752C12.8947 51.83 12.9077 51.895 12.9207 51.96C13.0507 51.973 13.2067 51.986 13.4017 51.986C13.4537 51.986 13.5057 51.986 13.5577 51.986C13.6097 51.986 13.6617 51.986 13.7137 51.973C13.9477 51.973 14.1557 51.96 14.3247 51.96C14.5067 51.947 14.6757 51.934 14.8317 51.908C14.8967 51.908 14.9617 51.895 15.0137 51.882C15.0787 51.882 15.1307 51.869 15.1957 51.856C15.2347 51.856 15.2607 51.843 15.2867 51.817C15.3257 51.804 15.3517 51.791 15.3777 51.791H15.4037C15.4557 51.778 15.5207 51.765 15.5987 51.765C15.7027 51.765 15.8067 51.791 15.8977 51.856ZM21.9008 46.565C21.9658 47.28 22.0308 48.034 22.1218 48.801C22.1608 49.152 22.2128 49.477 22.2518 49.776C22.3038 50.075 22.3558 50.374 22.3948 50.673C22.4338 50.959 22.4728 51.258 22.4988 51.557C22.5248 51.856 22.5378 52.181 22.5248 52.545C22.5248 52.688 22.4858 52.779 22.3948 52.857C22.3168 52.922 22.2128 52.948 22.1088 52.948C22.0048 52.948 21.9138 52.909 21.8358 52.844C21.7448 52.779 21.7058 52.675 21.7058 52.532C21.7058 52.155 21.6928 51.804 21.6668 51.492C21.6408 51.167 21.6018 50.855 21.5498 50.543C21.5108 50.231 21.4588 49.919 21.4068 49.594C21.3548 49.282 21.3158 48.931 21.2768 48.554C21.2508 48.411 21.2378 48.255 21.2248 48.112C21.2118 47.956 21.1988 47.813 21.1858 47.657C21.1598 47.774 21.1338 47.904 21.1078 48.021C21.0818 48.138 21.0688 48.268 21.0428 48.385L20.2238 52.701C20.1978 52.805 20.1588 52.883 20.0808 52.935C20.0028 52.987 19.9248 53 19.8338 52.987C19.7558 52.987 19.6648 52.948 19.5868 52.896C19.5088 52.844 19.4568 52.779 19.4308 52.688C19.3008 52.324 19.2098 51.96 19.1318 51.583C19.0538 51.206 18.9888 50.829 18.9368 50.452C18.8848 50.062 18.8328 49.685 18.7808 49.308C18.7288 48.918 18.6768 48.541 18.6118 48.164C18.5728 47.891 18.5208 47.618 18.4688 47.345C18.4168 47.072 18.3648 46.786 18.3128 46.513C18.2608 47.501 18.2478 48.489 18.2478 49.516C18.2608 50.543 18.2608 51.544 18.2608 52.519C18.2608 52.649 18.2218 52.753 18.1308 52.818C18.0528 52.883 17.9618 52.909 17.8448 52.909C17.7408 52.909 17.6498 52.883 17.5588 52.805C17.4808 52.74 17.4288 52.636 17.4288 52.493C17.4288 51.83 17.4288 51.154 17.4288 50.465C17.4158 49.776 17.4158 49.1 17.4288 48.411C17.4418 47.722 17.4548 47.046 17.4938 46.357C17.5198 45.681 17.5718 45.005 17.6368 44.329C17.6498 44.225 17.6758 44.134 17.7408 44.069C17.7928 44.004 17.8708 43.965 17.9488 43.939C18.0268 43.913 18.1048 43.926 18.1958 43.952C18.2738 43.978 18.3518 44.043 18.4038 44.121C18.5728 44.355 18.7028 44.602 18.7808 44.875C18.8718 45.148 18.9368 45.421 18.9888 45.694C19.0538 46.045 19.1318 46.383 19.1968 46.708C19.2618 47.046 19.3268 47.384 19.3788 47.735C19.4568 48.203 19.5218 48.684 19.5868 49.152C19.6388 49.633 19.7038 50.114 19.7818 50.582C19.8598 50.179 19.9378 49.776 20.0158 49.373C20.0938 48.97 20.1588 48.554 20.2368 48.151C20.3018 47.826 20.3668 47.501 20.4318 47.189C20.5098 46.864 20.5878 46.552 20.6528 46.24C20.7178 45.928 20.7828 45.603 20.8348 45.278C20.8868 44.966 20.9258 44.628 20.9518 44.303C20.9648 44.16 21.0038 44.069 21.0948 44.004C21.1858 43.926 21.2768 43.9 21.3808 43.9C21.4848 43.9 21.5758 43.939 21.6538 44.004C21.7318 44.069 21.7838 44.173 21.7838 44.303C21.8098 45.083 21.8488 45.837 21.9008 46.565ZM23.8529 51.505C23.8399 51.284 23.8269 51.063 23.8399 50.842C23.8399 50.608 23.8529 50.387 23.8529 50.166C23.8789 49.893 23.8789 49.633 23.8789 49.386C23.8789 49.113 23.8919 48.853 23.8789 48.58C23.8789 48.294 23.8919 48.008 23.9049 47.722C23.9179 47.163 23.9049 46.591 23.9049 46.032C23.9179 45.46 23.9439 44.914 23.8789 44.381C23.8659 44.277 23.8919 44.186 23.9699 44.121C24.0609 44.03 24.1779 43.991 24.3339 44.004C24.5159 44.03 24.6329 44.121 24.6589 44.277C24.7109 44.823 24.6849 45.382 24.6589 45.954C24.6719 46.513 24.6979 47.098 24.7109 47.683V47.696C24.6979 47.904 24.6849 48.125 24.6849 48.333C24.6849 48.554 24.6849 48.762 24.6849 48.957C24.6849 49.269 24.6719 49.581 24.6589 49.893C24.6589 50.114 24.6589 50.335 24.6589 50.556C24.7369 50.27 24.8279 50.01 24.8929 49.815C25.1269 49.178 25.3739 48.541 25.6209 47.891C25.8679 47.254 26.1279 46.617 26.3879 45.98C26.6349 45.343 26.8819 44.706 27.1289 44.069C27.1809 43.926 27.2589 43.848 27.3759 43.809C27.4409 43.783 27.4929 43.783 27.5579 43.783C27.5839 43.783 27.6229 43.783 27.6489 43.783C27.7399 43.783 27.8179 43.822 27.8959 43.874C27.9609 43.926 28.0129 43.991 28.0519 44.069C28.1819 44.368 28.2469 44.68 28.2859 44.992C28.3119 45.317 28.3249 45.629 28.3249 45.941C28.3249 46.11 28.3379 46.279 28.3379 46.448C28.3509 46.604 28.3639 46.773 28.3639 46.929C28.3769 47.124 28.3899 47.319 28.3899 47.527C28.4029 47.722 28.4029 47.93 28.4029 48.125C28.4029 48.32 28.3899 48.515 28.3899 48.71C28.3769 48.918 28.3769 49.113 28.3639 49.308C28.3639 49.477 28.3509 49.672 28.3379 49.854C28.3379 50.049 28.3379 50.231 28.3379 50.426C28.3379 50.699 28.3379 50.985 28.3509 51.271C28.3769 51.544 28.3899 51.83 28.4029 52.116C28.4029 52.194 28.4159 52.272 28.4159 52.35C28.4289 52.428 28.4289 52.519 28.4419 52.597C28.4419 52.688 28.4029 52.766 28.3509 52.818C28.2729 52.883 28.1819 52.909 28.0519 52.896C27.9479 52.883 27.8569 52.844 27.7659 52.779C27.7399 52.753 27.7139 52.727 27.6879 52.688C27.6619 52.649 27.6359 52.597 27.6359 52.532C27.6229 52.441 27.6229 52.363 27.6229 52.272C27.6099 52.194 27.6099 52.116 27.5969 52.025V51.973C27.5839 51.7 27.5579 51.427 27.5449 51.167C27.5319 50.894 27.5319 50.621 27.5319 50.348C27.5319 50.192 27.5319 50.036 27.5449 49.893C27.5579 49.737 27.5579 49.581 27.5579 49.438C27.5709 49.243 27.5709 49.048 27.5839 48.84C27.5969 48.645 27.5969 48.437 27.5969 48.242C27.5969 48.034 27.5969 47.826 27.5839 47.631C27.5839 47.423 27.5709 47.228 27.5579 47.02C27.5579 46.877 27.5579 46.721 27.5449 46.552C27.5319 46.383 27.5319 46.227 27.5319 46.058L27.5189 45.577C27.4279 45.811 27.3369 46.058 27.2329 46.305C26.9859 46.942 26.7259 47.579 26.4789 48.216C26.2319 48.853 25.9849 49.503 25.7509 50.14C25.5169 50.777 25.1529 52.064 24.9449 52.714C24.9059 52.857 24.8279 52.948 24.7239 52.987C24.6459 53 24.5809 53.013 24.5159 53C24.4899 53 24.4639 53 24.4509 53C24.2949 52.987 24.2039 52.922 24.1519 52.805C24.1389 52.792 24.1389 52.779 24.1259 52.753C24.0999 52.714 24.0869 52.675 24.0739 52.623C24.0219 52.467 23.9829 52.324 23.9439 52.168C23.8919 51.947 23.8659 51.726 23.8529 51.505ZM33.0323 45.824C33.2273 45.265 33.4743 44.706 33.7603 44.16C33.8383 44.043 33.9293 43.965 34.0333 43.952C34.1503 43.939 34.2543 43.952 34.3583 44.004C34.4493 44.069 34.5273 44.147 34.5793 44.251C34.6183 44.368 34.6183 44.485 34.5533 44.615C34.3063 45.057 34.1113 45.512 33.9423 45.98C33.7733 46.448 33.6173 46.916 33.4873 47.397C33.3443 47.878 33.2013 48.346 33.0713 48.827C32.9283 49.308 32.7853 49.776 32.6163 50.244C32.4993 50.543 32.3823 50.842 32.2523 51.167C32.1223 51.479 31.9793 51.778 31.7973 52.038C31.6153 52.311 31.3943 52.532 31.1343 52.714C30.8613 52.896 30.5493 53 30.1723 53.026C30.0293 53.039 29.9123 53 29.8473 52.909C29.7693 52.818 29.7433 52.727 29.7433 52.61C29.7433 52.506 29.7693 52.402 29.8473 52.311C29.9123 52.22 30.0293 52.155 30.1723 52.155C30.3543 52.142 30.5103 52.09 30.6403 51.999C30.7703 51.908 30.8873 51.791 30.9783 51.661C31.0823 51.518 31.1603 51.375 31.2253 51.232C31.2903 51.076 31.3553 50.92 31.4333 50.79C31.5893 50.426 31.7323 50.062 31.8493 49.685C31.9793 49.321 32.0833 48.944 32.1873 48.567C32.2003 48.554 32.2003 48.554 32.2003 48.554C31.9273 48.294 31.6933 47.995 31.4983 47.67C31.2903 47.345 31.1083 46.994 30.9523 46.643C30.7833 46.279 30.6273 45.928 30.4843 45.564C30.3283 45.213 30.1723 44.875 30.0033 44.563C29.9383 44.433 29.9253 44.329 29.9643 44.225C30.0033 44.121 30.0813 44.043 30.1723 43.991C30.2633 43.939 30.3673 43.913 30.4843 43.939C30.6013 43.952 30.7053 44.017 30.7963 44.134C30.9653 44.368 31.1213 44.628 31.2513 44.927C31.3813 45.239 31.5113 45.538 31.6283 45.85C31.7453 46.162 31.8753 46.461 32.0183 46.76C32.1483 47.059 32.3043 47.319 32.4863 47.553C32.6683 46.968 32.8373 46.396 33.0323 45.824ZM40.3725 46.565C40.4375 47.28 40.5025 48.034 40.5935 48.801C40.6325 49.152 40.6845 49.477 40.7235 49.776C40.7755 50.075 40.8275 50.374 40.8665 50.673C40.9055 50.959 40.9445 51.258 40.9705 51.557C40.9965 51.856 41.0095 52.181 40.9965 52.545C40.9965 52.688 40.9575 52.779 40.8665 52.857C40.7885 52.922 40.6845 52.948 40.5805 52.948C40.4765 52.948 40.3855 52.909 40.3075 52.844C40.2165 52.779 40.1775 52.675 40.1775 52.532C40.1775 52.155 40.1645 51.804 40.1385 51.492C40.1125 51.167 40.0735 50.855 40.0215 50.543C39.9825 50.231 39.9305 49.919 39.8785 49.594C39.8265 49.282 39.7875 48.931 39.7485 48.554C39.7225 48.411 39.7095 48.255 39.6965 48.112C39.6835 47.956 39.6705 47.813 39.6575 47.657C39.6315 47.774 39.6055 47.904 39.5795 48.021C39.5535 48.138 39.5405 48.268 39.5145 48.385L38.6955 52.701C38.6695 52.805 38.6305 52.883 38.5525 52.935C38.4745 52.987 38.3965 53 38.3055 52.987C38.2275 52.987 38.1365 52.948 38.0585 52.896C37.9805 52.844 37.9285 52.779 37.9025 52.688C37.7725 52.324 37.6815 51.96 37.6035 51.583C37.5255 51.206 37.4605 50.829 37.4085 50.452C37.3565 50.062 37.3045 49.685 37.2525 49.308C37.2005 48.918 37.1485 48.541 37.0835 48.164C37.0445 47.891 36.9925 47.618 36.9405 47.345C36.8885 47.072 36.8365 46.786 36.7845 46.513C36.7325 47.501 36.7195 48.489 36.7195 49.516C36.7325 50.543 36.7325 51.544 36.7325 52.519C36.7325 52.649 36.6935 52.753 36.6025 52.818C36.5245 52.883 36.4335 52.909 36.3165 52.909C36.2125 52.909 36.1215 52.883 36.0305 52.805C35.9525 52.74 35.9005 52.636 35.9005 52.493C35.9005 51.83 35.9005 51.154 35.9005 50.465C35.8875 49.776 35.8875 49.1 35.9005 48.411C35.9135 47.722 35.9265 47.046 35.9655 46.357C35.9915 45.681 36.0435 45.005 36.1085 44.329C36.1215 44.225 36.1475 44.134 36.2125 44.069C36.2645 44.004 36.3425 43.965 36.4205 43.939C36.4985 43.913 36.5765 43.926 36.6675 43.952C36.7455 43.978 36.8235 44.043 36.8755 44.121C37.0445 44.355 37.1745 44.602 37.2525 44.875C37.3435 45.148 37.4085 45.421 37.4605 45.694C37.5255 46.045 37.6035 46.383 37.6685 46.708C37.7335 47.046 37.7985 47.384 37.8505 47.735C37.9285 48.203 37.9935 48.684 38.0585 49.152C38.1105 49.633 38.1755 50.114 38.2535 50.582C38.3315 50.179 38.4095 49.776 38.4875 49.373C38.5655 48.97 38.6305 48.554 38.7085 48.151C38.7735 47.826 38.8385 47.501 38.9035 47.189C38.9815 46.864 39.0595 46.552 39.1245 46.24C39.1895 45.928 39.2545 45.603 39.3065 45.278C39.3585 44.966 39.3975 44.628 39.4235 44.303C39.4365 44.16 39.4755 44.069 39.5665 44.004C39.6575 43.926 39.7485 43.9 39.8525 43.9C39.9565 43.9 40.0475 43.939 40.1255 44.004C40.2035 44.069 40.2555 44.173 40.2555 44.303C40.2815 45.083 40.3205 45.837 40.3725 46.565Z" fill="#70727A"/>
<path d="M26.1443 35.8147C26.0799 35.815 26.0172 35.7947 25.9651 35.7569C25.9131 35.7191 25.8744 35.6657 25.8547 35.6044C25.835 35.5432 25.8352 35.4773 25.8555 35.4162C25.8757 35.3551 25.9148 35.3021 25.9672 35.2647L26.9248 34.5764L24.8501 35.7723C24.783 35.8107 24.7038 35.8221 24.6287 35.804C24.5535 35.786 24.4881 35.74 24.4457 35.6753C24.4034 35.6107 24.3873 35.5323 24.4008 35.4562C24.4143 35.3801 24.4564 35.312 24.5184 35.2659L25.9023 34.2447L23.2558 35.7723C23.1893 35.8108 23.1107 35.8226 23.0358 35.8054C22.9609 35.7882 22.8954 35.7432 22.8524 35.6795C22.8095 35.6158 22.7923 35.5382 22.8043 35.4623C22.8164 35.3865 22.8568 35.318 22.9174 35.2708L24.898 33.7255L21.3515 35.7723C21.2848 35.81 21.2064 35.8211 21.1319 35.8033C21.0573 35.7856 20.9923 35.7403 20.9498 35.6765C20.9074 35.6128 20.8906 35.5353 20.9029 35.4597C20.9152 35.3841 20.9557 35.3159 21.0162 35.2689L22.7694 33.9348L19.5849 35.7723C19.5188 35.8104 19.4408 35.8221 19.3664 35.8052C19.292 35.7883 19.2268 35.744 19.1836 35.6811C19.1405 35.6182 19.1226 35.5413 19.1336 35.4658C19.1446 35.3903 19.1836 35.3218 19.2429 35.2738L21.4146 33.5303L17.5333 35.7741C17.4664 35.8122 17.3874 35.8233 17.3125 35.8053C17.2376 35.7873 17.1724 35.7414 17.1301 35.677C17.0878 35.6126 17.0715 35.5346 17.0847 35.4587C17.0979 35.3827 17.1395 35.3147 17.201 35.2683L18.6759 34.1725L15.8971 35.7723C15.8304 35.8111 15.7513 35.823 15.676 35.8055C15.6008 35.7881 15.535 35.7425 15.4922 35.6782C15.4494 35.6139 15.4328 35.5356 15.4457 35.4595C15.4586 35.3833 15.5002 35.3149 15.5618 35.2683L17.3011 33.9463L14.1372 35.7723C14.0701 35.8102 13.9911 35.8211 13.9162 35.8028C13.8414 35.7845 13.7763 35.7384 13.7342 35.6738C13.6921 35.6093 13.6762 35.5311 13.6896 35.4552C13.7031 35.3793 13.745 35.3114 13.8067 35.2653L15.0257 34.3775L12.6066 35.7723C12.5394 35.8105 12.4601 35.8216 12.385 35.8034C12.3098 35.7851 12.2445 35.7388 12.2024 35.674C12.1603 35.6091 12.1445 35.5307 12.1583 35.4546C12.1721 35.3785 12.2144 35.3106 12.2767 35.2647L13.4137 34.4381L11.0989 35.7723C11.0336 35.8092 10.9569 35.8207 10.8837 35.8044C10.8104 35.788 10.7459 35.7451 10.7024 35.684C10.659 35.6228 10.6397 35.5477 10.6485 35.4731C10.6572 35.3986 10.6932 35.33 10.7496 35.2805L13.2015 33.1646L8.68528 35.7723C8.61979 35.8103 8.54247 35.8223 8.46852 35.8062C8.39456 35.79 8.32933 35.7468 8.28564 35.685C8.24195 35.623 8.22307 35.5469 8.23272 35.4717C8.24238 35.3965 8.27986 35.3276 8.33779 35.2786L10.7387 33.2434L6.87444 35.4751C6.80851 35.5122 6.73112 35.5232 6.65746 35.5061C6.5838 35.489 6.51918 35.4451 6.47628 35.3828C6.43337 35.3205 6.41528 35.2445 6.42555 35.1696C6.43582 35.0946 6.47372 35.0263 6.53179 34.9779L8.40147 33.4551L6.46084 34.574C6.39624 34.612 6.31982 34.6248 6.24635 34.6098C6.17287 34.5949 6.10755 34.5532 6.063 34.4929C6.01844 34.4326 5.99781 34.3579 6.0051 34.2833C6.01238 34.2086 6.04706 34.1394 6.10243 34.0888L7.38446 32.8971L6.46327 33.429C6.40191 33.464 6.33028 33.4764 6.26073 33.4642C6.19118 33.452 6.12806 33.4159 6.08228 33.3621C6.03649 33.3084 6.01091 33.2403 6.00994 33.1697C6.00897 33.0991 6.03267 33.0304 6.07696 32.9754L7.22921 31.5551C7.21229 31.4908 7.21695 31.4228 7.24248 31.3614C7.26801 31.3 7.31299 31.2488 7.37051 31.2155L7.67373 31.0402C7.73509 31.0049 7.80688 30.9921 7.87664 31.0042C7.94641 31.0163 8.00975 31.0524 8.0557 31.1062C8.10164 31.1601 8.12729 31.2283 8.12819 31.2991C8.1291 31.3699 8.1052 31.4388 8.06065 31.4938L7.58337 32.0809L9.38937 31.042C9.45397 31.0039 9.53038 30.9912 9.60386 31.0061C9.67733 31.0211 9.74266 31.0628 9.78721 31.1231C9.83177 31.1834 9.8524 31.2581 9.84511 31.3327C9.83783 31.4073 9.80315 31.4766 9.74778 31.5272L8.46696 32.7164L11.3779 31.0378C11.4438 31.0007 11.5212 30.9897 11.5949 31.0068C11.6685 31.0239 11.7332 31.0678 11.7761 31.1301C11.819 31.1924 11.8371 31.2684 11.8268 31.3433C11.8165 31.4183 11.7786 31.4866 11.7205 31.5351L9.85087 33.0578L13.3531 31.0366C13.4186 30.9992 13.4957 30.9876 13.5693 31.0041C13.6429 31.0205 13.7078 31.0638 13.7512 31.1255C13.7946 31.1871 13.8135 31.2628 13.8041 31.3376C13.7948 31.4125 13.7578 31.4811 13.7006 31.5302L11.2997 33.5654L15.6837 31.0347C15.749 30.9972 15.826 30.9853 15.8996 31.0014C15.9732 31.0175 16.0381 31.0605 16.0818 31.1219C16.1255 31.1833 16.1447 31.2587 16.1358 31.3335C16.1269 31.4083 16.0905 31.4772 16.0336 31.5266L13.5817 33.6419L18.1004 31.0341C18.1676 30.9959 18.2468 30.9848 18.322 31.0031C18.3971 31.0213 18.4624 31.0676 18.5045 31.1325C18.5467 31.1973 18.5624 31.2758 18.5486 31.3518C18.5348 31.4279 18.4925 31.4958 18.4303 31.5417L17.2908 32.3707L19.6068 31.0366C19.6739 30.9987 19.7529 30.9878 19.8278 31.0061C19.9026 31.0244 19.9677 31.0705 20.0098 31.135C20.0519 31.1996 20.0678 31.2778 20.0544 31.3536C20.0409 31.4295 19.999 31.4974 19.9373 31.5435L18.7195 32.4338L21.1417 31.0353C21.2085 30.9965 21.2876 30.9846 21.3628 31.0021C21.4381 31.0196 21.5038 31.0651 21.5466 31.1295C21.5894 31.1938 21.606 31.272 21.5931 31.3482C21.5802 31.4243 21.5387 31.4927 21.4771 31.5393L19.7384 32.8614L22.904 31.0341C22.971 30.9961 23.05 30.9849 23.1249 31.0029C23.1998 31.021 23.265 31.0668 23.3073 31.1312C23.3496 31.1956 23.3658 31.2737 23.3526 31.3496C23.3395 31.4255 23.2979 31.4935 23.2364 31.5399L21.7621 32.6358L24.539 31.0329C24.6051 30.9955 24.6828 30.9843 24.7567 31.0015C24.8307 31.0186 24.8955 31.0629 24.9384 31.1255C24.9813 31.1881 24.9992 31.2646 24.9884 31.3398C24.9777 31.4149 24.9392 31.4833 24.8804 31.5314L22.7081 33.2756L26.5967 31.0317C26.6633 30.9947 26.7414 30.9842 26.8155 31.0022C26.8896 31.0202 26.9541 31.0654 26.9963 31.1289C27.0386 31.1924 27.0553 31.2694 27.0433 31.3447C27.0313 31.4199 26.9913 31.4879 26.9314 31.5351L25.1788 32.8692L28.3651 31.0305C28.4315 30.9928 28.5098 30.9815 28.5842 30.999C28.6585 31.0165 28.7236 31.0614 28.7663 31.1248C28.809 31.1882 28.8261 31.2653 28.8144 31.3408C28.8026 31.4163 28.7628 31.4846 28.7029 31.532L26.724 33.0766L30.2711 31.0287C30.3382 30.9903 30.4174 30.9789 30.4925 30.9969C30.5677 31.0149 30.6331 31.061 30.6755 31.1256C30.7178 31.1903 30.7339 31.2687 30.7204 31.3448C30.7069 31.4209 30.6649 31.4889 30.6029 31.5351L29.2165 32.5527L31.8649 31.0232C31.9323 30.9841 32.0121 30.9725 32.0878 30.9907C32.1636 31.0089 32.2294 31.0556 32.2717 31.121C32.3139 31.1864 32.3294 31.2656 32.3149 31.3421C32.3003 31.4187 32.2569 31.4867 32.1936 31.532L31.2336 32.2228L33.3125 31.0226C33.3792 30.9858 33.4574 30.9756 33.5314 30.9938C33.6054 31.0121 33.6698 31.0576 33.7118 31.1212C33.7538 31.1849 33.7703 31.262 33.758 31.3372C33.7457 31.4124 33.7055 31.4802 33.6454 31.5272L32.0401 32.7334L34.0335 31.5811C34.0998 31.5432 34.1781 31.5316 34.2525 31.5488C34.327 31.566 34.3922 31.6107 34.4351 31.674C34.4781 31.7372 34.4955 31.8143 34.484 31.8899C34.4725 31.9654 34.4329 32.0339 34.3731 32.0815L33.022 33.147L34.925 32.0487C34.9914 32.011 35.0697 31.9997 35.1441 32.0172C35.2185 32.0347 35.2835 32.0796 35.3262 32.143C35.3689 32.2064 35.3861 32.2836 35.3743 32.3591C35.3626 32.4346 35.3227 32.5029 35.2628 32.5502L34.6012 33.0657L35.2203 32.7091C35.285 32.6692 35.3622 32.6549 35.4368 32.6692C35.5115 32.6835 35.578 32.7253 35.6233 32.7863C35.6686 32.8473 35.6893 32.923 35.6814 32.9986C35.6735 33.0742 35.6375 33.144 35.5806 33.1943L34.7685 33.9627L35.2313 33.6964C35.2935 33.6611 35.3662 33.649 35.4365 33.6621C35.5069 33.6752 35.5703 33.7128 35.6156 33.7682C35.6609 33.8236 35.6851 33.8932 35.6841 33.9648C35.683 34.0363 35.6566 34.1052 35.6097 34.1592L35.3325 34.4727C35.3949 34.4818 35.4528 34.5102 35.4983 34.5537C35.5438 34.5973 35.5746 34.654 35.5864 34.7159C35.5982 34.7778 35.5904 34.8418 35.5642 34.8991C35.5379 34.9564 35.4945 35.004 35.4399 35.0355L34.1591 35.7723C34.0968 35.8076 34.0241 35.8198 33.9538 35.8066C33.8834 35.7935 33.82 35.7559 33.7747 35.7005C33.7294 35.6451 33.7052 35.5755 33.7062 35.504C33.7073 35.4324 33.7337 35.3636 33.7806 35.3096L33.9219 35.1501L32.8425 35.7723C32.7778 35.8116 32.7009 35.8253 32.6267 35.8108C32.5525 35.7963 32.4863 35.7545 32.4413 35.6938C32.3963 35.633 32.3756 35.5576 32.3833 35.4824C32.3909 35.4072 32.4265 35.3375 32.4828 35.2871L33.2937 34.5194L31.1274 35.7723C31.061 35.81 30.9827 35.8213 30.9083 35.8038C30.834 35.7863 30.7689 35.7414 30.7262 35.678C30.6835 35.6146 30.6664 35.5375 30.6781 35.462C30.6899 35.3864 30.7297 35.3182 30.7896 35.2708L31.4519 34.7541L29.6877 35.7723C29.6214 35.8096 29.5435 35.8206 29.4695 35.8032C29.3955 35.7857 29.3307 35.7411 29.288 35.6781C29.2454 35.6151 29.2279 35.5384 29.2392 35.4632C29.2504 35.388 29.2895 35.3197 29.3487 35.272L30.6993 34.2065L27.9866 35.7723C27.9199 35.8091 27.8417 35.8193 27.7677 35.8011C27.6937 35.7828 27.6293 35.7373 27.5873 35.6737C27.5453 35.6101 27.5288 35.533 27.5411 35.4577C27.5534 35.3825 27.5936 35.3147 27.6537 35.2677L29.259 34.0621L26.2959 35.7723C26.25 35.7997 26.1977 35.8144 26.1443 35.8147Z" fill="#B58137"/>
<path d="M29.8276 14.7457C29.7666 14.7458 29.7071 14.7274 29.6566 14.6931C29.6062 14.6587 29.5674 14.61 29.5451 14.5532C29.5228 14.4964 29.5182 14.4342 29.5318 14.3748C29.5454 14.3153 29.5767 14.2614 29.6214 14.2199L32.0236 11.9919C32.0116 11.9299 32.0192 11.8658 32.0454 11.8084C32.0716 11.751 32.1151 11.7032 32.1697 11.6717L32.7234 11.3527C32.788 11.3151 32.8642 11.3028 32.9373 11.318C33.0104 11.3331 33.0754 11.3748 33.1197 11.4349C33.1641 11.495 33.1847 11.5694 33.1775 11.6437C33.1704 11.7181 33.1361 11.7872 33.0812 11.8378L32.006 12.8324L33.604 11.9106C33.6385 11.8886 33.6771 11.8739 33.7174 11.8673C33.7578 11.8606 33.7991 11.8622 33.8388 11.872C33.8785 11.8817 33.9159 11.8994 33.9486 11.9239C33.9813 11.9484 34.0087 11.9793 34.0292 12.0147C34.0496 12.0501 34.0627 12.0893 34.0677 12.1299C34.0726 12.1705 34.0693 12.2117 34.0579 12.251C34.0465 12.2902 34.0273 12.3268 34.0014 12.3585C33.9755 12.3901 33.9434 12.4162 33.9072 12.4352L29.9793 14.7045C29.9333 14.7315 29.881 14.7457 29.8276 14.7457ZM16.0698 16.3801C16.0051 16.38 15.942 16.3592 15.89 16.3206C15.8379 16.2821 15.7996 16.228 15.7805 16.1661C15.7615 16.1042 15.7627 16.0378 15.7841 15.9767C15.8055 15.9156 15.8459 15.8629 15.8994 15.8264L16.7484 15.246L16.6678 15.2921C16.5999 15.3309 16.5197 15.342 16.4439 15.3231C16.3681 15.3042 16.3025 15.2567 16.2608 15.1907C16.2191 15.1246 16.2046 15.0449 16.2202 14.9684C16.2358 14.8918 16.2803 14.8242 16.3445 14.7797L16.9443 14.3673C16.8855 14.38 16.8242 14.3749 16.7682 14.3527C16.7123 14.3304 16.6642 14.292 16.6302 14.2424C16.5871 14.1793 16.5694 14.1023 16.5806 14.0267C16.5919 13.9512 16.6312 13.8826 16.6908 13.8348L19.6145 11.5006L17.6842 12.6153C17.6185 12.6529 17.5411 12.6646 17.4672 12.6481C17.3934 12.6316 17.3283 12.5881 17.285 12.526C17.2416 12.464 17.2229 12.388 17.2327 12.313C17.2425 12.2379 17.28 12.1692 17.3379 12.1204L19.6951 10.1434L18.3246 10.9354C18.2577 10.9732 18.179 10.9842 18.1043 10.9661C18.0296 10.9481 17.9646 10.9024 17.9223 10.8383C17.88 10.7741 17.8637 10.6963 17.8765 10.6206C17.8894 10.5449 17.9305 10.4768 17.9916 10.4303L18.4683 10.0743C18.4281 10.0688 18.3894 10.0553 18.3546 10.0344C18.3198 10.0136 18.2895 9.98586 18.2657 9.95298C18.222 9.89126 18.2029 9.81543 18.2123 9.74037C18.2216 9.6653 18.2586 9.59643 18.3161 9.54727L18.871 9.07242C18.8198 9.06804 18.7705 9.05073 18.7279 9.0221C18.6852 8.99347 18.6505 8.95447 18.6271 8.90876C18.6036 8.86305 18.5921 8.81212 18.5937 8.76077C18.5954 8.70941 18.61 8.65931 18.6363 8.61516L19.1214 7.80131C19.1055 7.78444 19.0917 7.76571 19.0802 7.74552C19.04 7.67587 19.0291 7.59311 19.0499 7.51543C19.0707 7.43775 19.1215 7.37153 19.1912 7.33131L19.5817 7.10572C19.6398 7.07222 19.7073 7.05891 19.7738 7.06786C19.8402 7.07682 19.9018 7.10753 19.9489 7.15521C19.996 7.20289 20.026 7.26484 20.0342 7.33138C20.0424 7.39791 20.0283 7.46528 19.9941 7.52295L19.7515 7.92503L21.1821 7.09905C21.2476 7.06123 21.3249 7.04924 21.3987 7.06542C21.4726 7.08161 21.5377 7.1248 21.5814 7.18653C21.625 7.24826 21.644 7.32407 21.6347 7.3991C21.6254 7.47412 21.5883 7.54295 21.5309 7.59209L21.2003 7.8753L22.1767 7.3113C22.2436 7.27353 22.3223 7.26256 22.397 7.28059C22.4717 7.29863 22.5367 7.34434 22.579 7.40848C22.6213 7.47262 22.6376 7.55041 22.6248 7.62614C22.6119 7.70187 22.5707 7.7699 22.5097 7.81647L22.449 7.86196C22.516 7.83886 22.589 7.83997 22.6552 7.86507C22.7215 7.89018 22.7769 7.9377 22.8118 7.99938C22.8466 8.06107 22.8588 8.13302 22.8462 8.20275C22.8335 8.27247 22.7969 8.33557 22.7425 8.38107L20.3859 10.3575L22.8056 8.96266C22.8718 8.92509 22.9496 8.91377 23.0238 8.93093C23.0979 8.9481 23.1628 8.99251 23.2057 9.05534C23.2486 9.11817 23.2664 9.19484 23.2554 9.27012C23.2444 9.34541 23.2055 9.41381 23.1464 9.46176L20.2215 11.7966L23.2283 10.0591C23.2961 10.0203 23.3763 10.0092 23.4521 10.0281C23.528 10.0471 23.5936 10.0945 23.6352 10.1606C23.6769 10.2267 23.6915 10.3063 23.6759 10.3829C23.6603 10.4594 23.6157 10.527 23.5515 10.5716L23.104 10.879L23.4624 10.6722C23.5301 10.6354 23.6093 10.6258 23.6839 10.6453C23.7585 10.6649 23.8229 10.7121 23.8639 10.7773C23.9049 10.8426 23.9195 10.9211 23.9047 10.9967C23.89 11.0724 23.847 11.1396 23.7844 11.1847L22.9317 11.7663L23.7086 11.3181C23.7779 11.2818 23.8585 11.2738 23.9336 11.2956C24.0087 11.3173 24.0725 11.3673 24.1117 11.435C24.1508 11.5027 24.1623 11.583 24.1437 11.6589C24.1251 11.7349 24.0778 11.8007 24.0118 11.8427L16.2214 16.3389C16.1754 16.3657 16.1231 16.3799 16.0698 16.3801Z" fill="#E2AC4D"/>
<path d="M9.09752 29.7685C9.03142 29.7687 8.96707 29.7472 8.91428 29.7075C8.86149 29.6677 8.82315 29.6117 8.80509 29.5481C8.78703 29.4846 8.79024 29.4168 8.81424 29.3552C8.83824 29.2936 8.88171 29.2416 8.93803 29.207L16.9164 24.2947L8.28185 29.2761C8.21301 29.3129 8.13262 29.3217 8.05743 29.3007C7.98224 29.2798 7.91804 29.2306 7.87819 29.1635C7.83834 29.0963 7.82591 29.0164 7.84349 28.9404C7.86107 28.8643 7.9073 28.798 7.97256 28.7552L13.5222 25.3663L8.26972 28.3986C8.20102 28.4371 8.12003 28.4473 8.0439 28.4272C7.96777 28.407 7.90247 28.358 7.86181 28.2906C7.82116 28.2231 7.80834 28.1425 7.82606 28.0658C7.84379 27.989 7.89067 27.9222 7.9568 27.8794L12.5179 25.0134L8.17269 27.5204C8.10409 27.5624 8.02163 27.5754 7.94344 27.5566C7.86525 27.5378 7.79774 27.4887 7.75576 27.4201C7.71378 27.3515 7.70077 27.269 7.71959 27.1908C7.73842 27.1126 7.78753 27.0451 7.85613 27.0031L15.1862 22.268L8.0514 26.3876C7.98265 26.4255 7.9019 26.4352 7.82612 26.4147C7.75034 26.3943 7.68545 26.3453 7.64508 26.2779C7.60471 26.2106 7.59201 26.1303 7.60966 26.0538C7.6273 25.9773 7.67391 25.9107 7.73969 25.8679L10.4796 24.1547L7.96832 25.6053C7.89947 25.645 7.81779 25.6561 7.74086 25.6361C7.66392 25.6162 7.59788 25.5669 7.55695 25.4988C7.51601 25.4307 7.50346 25.3492 7.52198 25.2719C7.54051 25.1946 7.58863 25.1277 7.656 25.0855L9.71185 23.8035L7.88766 24.8563C7.81946 24.8945 7.73916 24.9048 7.66352 24.8852C7.58787 24.8656 7.52272 24.8175 7.48166 24.751C7.44059 24.6845 7.42678 24.6048 7.44311 24.5283C7.45943 24.4519 7.50463 24.3847 7.56928 24.3408L15.769 18.9435L7.74818 23.5737C7.68014 23.6103 7.60067 23.6196 7.52602 23.5996C7.45136 23.5796 7.38715 23.5319 7.34651 23.4662C7.30586 23.4005 7.29185 23.3217 7.30733 23.246C7.32281 23.1703 7.36661 23.1033 7.42979 23.0588L15.4955 17.7378L7.61173 22.2904C7.54414 22.3288 7.46441 22.3397 7.38899 22.321C7.31358 22.3022 7.24823 22.2553 7.20645 22.1898C7.16466 22.1242 7.14962 22.0452 7.16444 21.9689C7.17926 21.8926 7.22279 21.8249 7.28607 21.7798L9.17818 20.4547L7.51652 21.4135C7.44862 21.4537 7.36772 21.4659 7.291 21.4475C7.21427 21.429 7.14776 21.3814 7.1056 21.3146C7.06344 21.2479 7.04895 21.1674 7.06521 21.0902C7.08147 21.013 7.1272 20.9451 7.19267 20.9011L7.5808 20.6342L7.44132 20.7143C7.37478 20.7523 7.29634 20.7636 7.22176 20.7461C7.14718 20.7286 7.08199 20.6836 7.03928 20.62C6.99658 20.5564 6.97953 20.479 6.99156 20.4033C7.00359 20.3277 7.04381 20.2594 7.10413 20.2121L9.47898 18.3807L7.32367 19.6245C7.25617 19.6624 7.17673 19.6731 7.10163 19.6543C7.02652 19.6355 6.96144 19.5888 6.91972 19.5235C6.878 19.4583 6.86281 19.3796 6.87725 19.3036C6.89169 19.2275 6.93468 19.1599 6.9974 19.1145L7.17933 18.9853C7.11271 19.004 7.04171 18.9993 6.97811 18.972C6.91452 18.9448 6.86216 18.8966 6.82973 18.8355C6.79729 18.7743 6.78673 18.704 6.7998 18.636C6.81287 18.5681 6.84879 18.5067 6.90158 18.4619L9.24004 16.4692L7.11566 17.6966C7.04949 17.7342 6.97163 17.7455 6.89751 17.7283C6.82339 17.7112 6.75843 17.6668 6.71553 17.6039C6.67262 17.5411 6.6549 17.4644 6.66589 17.3891C6.67688 17.3139 6.71576 17.2455 6.77483 17.1975L8.04837 16.175L7.01741 16.7712C6.95114 16.8078 6.87357 16.8183 6.79994 16.8007C6.7263 16.783 6.66195 16.7384 6.61953 16.6757C6.5771 16.613 6.55968 16.5366 6.57069 16.4617C6.5817 16.3868 6.62034 16.3187 6.67901 16.2709L7.30062 15.7821L6.93372 15.9931C6.86965 16.0311 6.79382 16.0442 6.72072 16.0298C6.64762 16.0155 6.58235 15.9748 6.53737 15.9154C6.49238 15.856 6.47083 15.7821 6.47682 15.7079C6.48282 15.6336 6.51593 15.5642 6.56985 15.5128L8.03867 14.0919L6.80455 14.8045C6.7388 14.8423 6.66127 14.8541 6.58726 14.8375C6.51325 14.821 6.44812 14.7773 6.40473 14.7151C6.36133 14.6529 6.34282 14.5767 6.35284 14.5015C6.36287 14.4263 6.4007 14.3577 6.45887 14.309L6.66446 14.1386C6.60397 14.156 6.53958 14.1544 6.48002 14.1341C6.42046 14.1137 6.36862 14.0754 6.33152 14.0246C6.28768 13.9636 6.268 13.8886 6.27629 13.814C6.28458 13.7394 6.32025 13.6705 6.3764 13.6207L6.62868 13.3969C6.55802 13.4296 6.4775 13.4338 6.4038 13.4087C6.33011 13.3837 6.26888 13.3312 6.23279 13.2622C6.1967 13.1932 6.18853 13.113 6.20996 13.0382C6.23138 12.9634 6.28077 12.8996 6.34789 12.8602L8.91134 11.3805C8.97632 11.3435 9.05266 11.3318 9.12571 11.3477C9.19876 11.3636 9.26336 11.4059 9.30713 11.4665C9.35089 11.5271 9.37072 11.6018 9.36282 11.6761C9.35491 11.7504 9.31982 11.8192 9.26429 11.8693L9.01504 12.0906L9.39953 11.8687C9.46535 11.8307 9.54304 11.8188 9.6172 11.8354C9.69136 11.852 9.7566 11.8958 9.79999 11.9582C9.84339 12.0205 9.86177 12.0969 9.85152 12.1722C9.84126 12.2475 9.8031 12.3162 9.7446 12.3647L9.58025 12.5012L9.8671 12.3362C9.93118 12.2982 10.007 12.2852 10.0801 12.2995C10.1532 12.3138 10.2185 12.3546 10.2635 12.4139C10.3084 12.4733 10.33 12.5472 10.324 12.6214C10.318 12.6957 10.2849 12.7651 10.231 12.8165L8.76094 14.2387L10.6688 13.1373C10.7351 13.1007 10.8127 13.0902 10.8863 13.1079C10.9599 13.1255 11.0243 13.1701 11.0667 13.2328C11.1091 13.2956 11.1266 13.3719 11.1155 13.4468C11.1045 13.5217 11.0659 13.5898 11.0072 13.6377L10.3886 14.1228L11.1916 13.6589C11.2578 13.6206 11.336 13.6087 11.4105 13.6257C11.4851 13.6426 11.5505 13.6871 11.5937 13.7502C11.6368 13.8133 11.6546 13.8904 11.6433 13.966C11.6321 14.0416 11.5927 14.1102 11.533 14.158L10.2546 15.1829L11.8114 14.2853C11.8768 14.2481 11.9538 14.2366 12.0273 14.253C12.1007 14.2694 12.1655 14.3126 12.2089 14.3741C12.2523 14.4356 12.2713 14.511 12.2622 14.5858C12.253 14.6605 12.2164 14.7292 12.1595 14.7784L9.82162 16.7706L12.658 15.1332C12.7256 15.0937 12.8059 15.0819 12.882 15.1002C12.9582 15.1186 13.0243 15.1657 13.0664 15.2317C13.1086 15.2977 13.1236 15.3775 13.1083 15.4543C13.093 15.5311 13.0485 15.599 12.9842 15.6438L12.8914 15.7087L13.1079 15.5838C13.1745 15.5458 13.2529 15.5344 13.3275 15.5519C13.4021 15.5694 13.4673 15.6145 13.51 15.6781C13.5527 15.7417 13.5697 15.8191 13.5577 15.8947C13.5457 15.9704 13.5055 16.0387 13.4451 16.0859L11.0685 17.9192L13.8951 16.2878C13.9628 16.2505 14.0422 16.2405 14.117 16.2598C14.1919 16.2791 14.2565 16.3262 14.2978 16.3915C14.339 16.4569 14.3538 16.5355 14.339 16.6114C14.3243 16.6872 14.2811 16.7546 14.2184 16.7997L13.8296 17.0677L14.8763 16.4613C14.9438 16.4242 15.0228 16.4142 15.0974 16.4333C15.1719 16.4523 15.2365 16.499 15.2779 16.5639C15.3193 16.6287 15.3345 16.7069 15.3204 16.7826C15.3063 16.8582 15.264 16.9257 15.202 16.9713L13.3123 18.2952L24.0149 12.1209C24.0831 12.0828 24.1634 12.0725 24.239 12.0921C24.3147 12.1117 24.3798 12.1598 24.4209 12.2262C24.462 12.2927 24.4758 12.3725 24.4594 12.4489C24.4431 12.5253 24.3979 12.5925 24.3333 12.6364L16.2675 17.9568L24.4412 13.2386C24.5095 13.1998 24.5903 13.189 24.6664 13.2085C24.7425 13.228 24.8081 13.2763 24.8493 13.3432C24.8905 13.4102 24.9041 13.4905 24.8872 13.5672C24.8704 13.644 24.8244 13.7112 24.759 13.7547L16.5611 19.1521L24.8694 14.3569C24.938 14.3197 25.0183 14.3105 25.0936 14.331C25.1689 14.3515 25.2334 14.4003 25.2736 14.4672C25.3139 14.5341 25.3267 14.6139 25.3096 14.6901C25.2925 14.7662 25.2467 14.8328 25.1817 14.876L23.1143 16.1653L25.1156 15.0088C25.1844 14.9691 25.2661 14.9581 25.343 14.978C25.42 14.9979 25.486 15.0472 25.527 15.1153C25.5679 15.1835 25.5804 15.2649 25.5619 15.3422C25.5434 15.4195 25.4953 15.4864 25.4279 15.5286L22.691 17.2363L25.3879 15.6796C25.4562 15.6414 25.5367 15.6311 25.6125 15.6509C25.6883 15.6707 25.7534 15.7191 25.7943 15.7859C25.8352 15.8526 25.8487 15.9327 25.832 16.0092C25.8152 16.0857 25.7695 16.1527 25.7044 16.1963L18.3737 20.9326L26.2314 16.3958C26.2656 16.3752 26.3034 16.3616 26.3428 16.3557C26.3822 16.3498 26.4224 16.3517 26.461 16.3613C26.4997 16.3709 26.5361 16.388 26.5681 16.4116C26.6002 16.4353 26.6272 16.4651 26.6478 16.4992C26.6683 16.5333 26.6819 16.5711 26.6879 16.6105C26.6938 16.6499 26.6919 16.6901 26.6823 16.7288C26.6727 16.7674 26.6556 16.8038 26.6319 16.8358C26.6082 16.8679 26.5785 16.895 26.5444 16.9155L21.9869 19.7791L34.5658 12.517C34.6348 12.4788 34.7158 12.4691 34.7918 12.4896C34.8679 12.5102 34.9329 12.5596 34.9731 12.6273C35.0134 12.695 35.0258 12.7757 35.0076 12.8523C34.9894 12.929 34.9421 12.9955 34.8757 13.0379L29.334 16.4213L35.0025 13.1519C35.0714 13.1131 35.1527 13.1027 35.2291 13.123C35.3055 13.1433 35.371 13.1926 35.4116 13.2605C35.4521 13.3283 35.4646 13.4094 35.4463 13.4863C35.428 13.5632 35.3804 13.6299 35.3136 13.6722L27.3364 18.5863L34.8903 14.2247C34.9591 14.183 35.0417 14.1704 35.1198 14.1897C35.198 14.2089 35.2652 14.2584 35.3069 14.3272C35.3486 14.396 35.3612 14.4786 35.342 14.5567C35.3227 14.6349 35.2733 14.7022 35.2044 14.7438L24.3042 21.6318L34.7411 15.6062C34.8102 15.565 34.8928 15.553 34.9707 15.5727C35.0487 15.5924 35.1156 15.6423 35.1568 15.7114C35.198 15.7805 35.21 15.8631 35.1903 15.9411C35.1706 16.019 35.1207 16.086 35.0516 16.1271L32.1485 17.9083L34.6495 16.4649C34.6837 16.4444 34.7215 16.4309 34.7609 16.4251C34.8003 16.4192 34.8405 16.4212 34.8791 16.4309C34.9178 16.4406 34.9541 16.4578 34.9861 16.4815C35.0181 16.5053 35.0451 16.5351 35.0655 16.5692C35.086 16.6034 35.0995 16.6413 35.1054 16.6806C35.1112 16.72 35.1092 16.7602 35.0996 16.7988C35.0899 16.8375 35.0727 16.8738 35.0489 16.9058C35.0252 16.9378 34.9954 16.9648 34.9612 16.9852L30.3438 19.8543L34.5458 17.4286C34.6148 17.3872 34.6974 17.375 34.7754 17.3946C34.8535 17.4141 34.9205 17.4639 34.9618 17.5329C35.0032 17.6019 35.0154 17.6845 34.9958 17.7625C34.9763 17.8405 34.9265 17.9076 34.8575 17.9489L32.4693 19.428L34.4549 18.2824C34.5231 18.2448 34.6032 18.235 34.6785 18.2549C34.7539 18.2748 34.8187 18.3229 34.8595 18.3893C34.9003 18.4557 34.9139 18.5352 34.8977 18.6114C34.8814 18.6876 34.8364 18.7546 34.772 18.7985L27.3673 23.6277L34.3105 19.6203C34.3789 19.5821 34.4594 19.5718 34.5351 19.5916C34.6109 19.6114 34.6761 19.6598 34.717 19.7266C34.7579 19.7933 34.7714 19.8733 34.7546 19.9498C34.7379 20.0263 34.6922 20.0934 34.6271 20.1369L30.0114 23.1176L34.1959 20.7034C34.2641 20.6668 34.3437 20.6576 34.4184 20.6778C34.4931 20.698 34.5573 20.746 34.5978 20.812C34.6382 20.878 34.6519 20.9569 34.6361 21.0327C34.6202 21.1084 34.576 21.1753 34.5125 21.2195L31.029 23.4863L34.0867 21.7204C34.1554 21.6802 34.237 21.6685 34.3142 21.688C34.3913 21.7074 34.4577 21.7564 34.499 21.8243C34.5404 21.8922 34.5534 21.9737 34.5353 22.0511C34.5172 22.1286 34.4693 22.1958 34.4021 22.2383L33.7829 22.6349L34.0024 22.5082C34.0708 22.4672 34.1526 22.4548 34.2301 22.4737C34.3075 22.4926 34.3744 22.5412 34.4163 22.6091C34.4582 22.6769 34.4716 22.7586 34.4537 22.8363C34.4359 22.9139 34.3881 22.9815 34.3208 23.0242L32.9594 23.9187L33.9103 23.3693C33.9776 23.3312 34.057 23.3204 34.1321 23.3389C34.2072 23.3574 34.2724 23.404 34.3143 23.469C34.3562 23.534 34.3717 23.6126 34.3576 23.6886C34.3435 23.7647 34.3008 23.8325 34.2383 23.8781L31.1509 26.0892L33.7817 24.5701C33.849 24.5314 33.9285 24.5201 34.0039 24.5383C34.0794 24.5566 34.1449 24.6031 34.1871 24.6682C34.2293 24.7333 34.2449 24.8121 34.2308 24.8884C34.2166 24.9647 34.1737 25.0326 34.111 25.0783L32.4736 26.2639L33.6725 25.5713C33.7387 25.533 33.8169 25.5212 33.8915 25.5381C33.966 25.555 34.0315 25.5995 34.0746 25.6626C34.1178 25.7257 34.1355 25.8028 34.1243 25.8784C34.113 25.954 34.0736 26.0226 34.014 26.0704L32.607 27.1984L33.5573 26.6496C33.6218 26.615 33.6966 26.6049 33.768 26.6211C33.8394 26.6373 33.9024 26.6789 33.9456 26.738C33.9887 26.7971 34.0091 26.8698 34.0028 26.9427C33.9965 27.0157 33.9641 27.0839 33.9115 27.1347L33.2523 27.7254L33.4542 27.609C33.5157 27.5734 33.5877 27.5605 33.6578 27.5725C33.7278 27.5846 33.7913 27.6209 33.8373 27.6751C33.8833 27.7292 33.9088 27.7978 33.9094 27.8689C33.91 27.9399 33.8856 28.0089 33.8405 28.0638L33.5506 28.4162C33.6191 28.4113 33.6872 28.4298 33.7437 28.4686C33.8003 28.5075 33.842 28.5643 33.8621 28.6299C33.8822 28.6956 33.8794 28.766 33.8542 28.8299C33.829 28.8937 33.7829 28.9471 33.7235 28.9814L32.4663 29.7091C32.4048 29.7447 32.3328 29.7576 32.2628 29.7455C32.1928 29.7334 32.1292 29.6972 32.0832 29.643C32.0372 29.5888 32.0117 29.5203 32.0111 29.4492C32.0105 29.3782 32.0349 29.3092 32.08 29.2543L32.3147 28.9692L31.0296 29.7103C30.9652 29.7449 30.8903 29.755 30.819 29.7388C30.7476 29.7225 30.6845 29.681 30.6414 29.6219C30.5982 29.5628 30.5779 29.4901 30.5842 29.4171C30.5904 29.3442 30.6229 29.276 30.6755 29.2251L31.3347 28.6339L29.4644 29.7133C29.3982 29.7509 29.3204 29.7622 29.2463 29.7451C29.1721 29.7279 29.1072 29.6835 29.0643 29.6207C29.0214 29.5578 29.0037 29.4812 29.0146 29.4059C29.0256 29.3306 29.0645 29.2622 29.1236 29.2142L30.5281 28.0887L27.7094 29.7139C27.6421 29.7526 27.5625 29.7639 27.4871 29.7457C27.4117 29.7274 27.3461 29.681 27.304 29.6158C27.2618 29.5507 27.2461 29.4719 27.2603 29.3956C27.2744 29.3193 27.3173 29.2514 27.3801 29.2057L29.0175 28.0195L26.0798 29.7176C26.0125 29.7556 25.9331 29.7665 25.858 29.748C25.7829 29.7295 25.7177 29.6829 25.6758 29.6179C25.6339 29.5529 25.6184 29.4743 25.6325 29.3983C25.6466 29.3222 25.6893 29.2544 25.7517 29.2088L28.8404 26.9977L24.1265 29.7188C24.0582 29.7576 23.9774 29.7684 23.9013 29.7489C23.8252 29.7294 23.7596 29.6811 23.7184 29.6142C23.6772 29.5473 23.6636 29.467 23.6804 29.3902C23.6973 29.3135 23.7433 29.2462 23.8087 29.2027L25.1708 28.3088L22.7274 29.7176C22.659 29.7552 22.5787 29.765 22.5032 29.7449C22.4278 29.7248 22.363 29.6764 22.3224 29.6097C22.2817 29.5431 22.2684 29.4633 22.2851 29.387C22.3018 29.3107 22.3473 29.2439 22.412 29.2003L23.0306 28.8043L21.4472 29.7182C21.3788 29.7564 21.2983 29.7667 21.2226 29.7468C21.1468 29.727 21.0816 29.6787 21.0407 29.6119C20.9998 29.5451 20.9863 29.4651 21.0031 29.3886C21.0198 29.3121 21.0655 29.2451 21.1306 29.2015L24.6171 26.9334L19.7916 29.7194C19.723 29.7614 19.6405 29.7744 19.5623 29.7556C19.4841 29.7367 19.4166 29.6876 19.3747 29.619C19.3327 29.5504 19.3197 29.468 19.3385 29.3898C19.3573 29.3116 19.4064 29.2441 19.475 29.2021L24.0925 26.2202L18.028 29.7206C17.9595 29.7628 17.8771 29.776 17.7988 29.7573C17.7206 29.7386 17.653 29.6897 17.6108 29.6212C17.5687 29.5526 17.5555 29.4702 17.5741 29.3919C17.5928 29.3137 17.6418 29.2461 17.7103 29.2039L25.1089 24.3778L15.8503 29.7224C15.7813 29.7638 15.6987 29.776 15.6207 29.7564C15.5427 29.7369 15.4756 29.6871 15.4343 29.6181C15.3929 29.5491 15.3807 29.4665 15.4003 29.3885C15.4198 29.3105 15.4696 29.2434 15.5386 29.2021L17.925 27.7242L14.4615 29.7255C14.3925 29.7668 14.3099 29.779 14.2319 29.7595C14.1539 29.7399 14.0869 29.6902 14.0455 29.6212C14.0042 29.5522 13.9919 29.4696 14.0115 29.3915C14.0311 29.3135 14.0808 29.2465 14.1498 29.2051L18.774 26.3318L12.8945 29.7279C12.8254 29.7691 12.7428 29.7811 12.6648 29.7614C12.5869 29.7416 12.5199 29.6918 12.4788 29.6227C12.4376 29.5536 12.4255 29.471 12.4453 29.393C12.465 29.3151 12.5149 29.2481 12.584 29.207L15.487 27.4252L11.4966 29.7297C11.4625 29.7503 11.4247 29.7641 11.3853 29.7701C11.346 29.7761 11.3058 29.7743 11.2671 29.7648C11.2284 29.7552 11.192 29.7382 11.1599 29.7146C11.1278 29.691 11.1006 29.6613 11.08 29.6272C11.0594 29.5931 11.0457 29.5553 11.0396 29.5159C11.0336 29.4766 11.0354 29.4364 11.045 29.3977C11.0545 29.359 11.0715 29.3226 11.0951 29.2905C11.1187 29.2584 11.1484 29.2312 11.1825 29.2106L22.0779 22.3208L9.24913 29.7273C9.20316 29.7543 9.15083 29.7685 9.09752 29.7685Z" fill="#E2AC4D"/>
<path d="M20.8372 7.91765C20.775 7.9176 20.7143 7.89842 20.6634 7.86271C20.6124 7.827 20.5737 7.77649 20.5525 7.71803C20.5312 7.65957 20.5284 7.59599 20.5445 7.53591C20.5607 7.47582 20.5949 7.42215 20.6425 7.38216L21.5692 6.60227L19.7498 7.65082C19.6837 7.68773 19.6061 7.69855 19.5324 7.68116C19.4587 7.66376 19.3942 7.61941 19.3515 7.55683C19.3088 7.49424 19.2911 7.41796 19.3019 7.34299C19.3126 7.26802 19.3511 7.19978 19.4096 7.15171L21.0725 5.82602L18.8098 7.13534C18.7436 7.17441 18.6651 7.18687 18.59 7.17021C18.515 7.15355 18.4491 7.10901 18.4056 7.0456C18.3621 6.98219 18.3444 6.90465 18.3559 6.82865C18.3675 6.75265 18.4075 6.68388 18.4678 6.63623L20.8936 4.68105L18.0342 6.3318C17.9668 6.37087 17.887 6.38251 17.8112 6.3643C17.7355 6.3461 17.6697 6.29944 17.6274 6.23402C17.5851 6.16859 17.5697 6.0894 17.5842 6.01288C17.5987 5.93635 17.6422 5.86836 17.7055 5.82299L18.6643 5.13225L17.6788 5.70109C17.6117 5.73897 17.5327 5.74987 17.4578 5.73158C17.3829 5.71329 17.3178 5.66718 17.2758 5.60262C17.2337 5.53806 17.2177 5.45989 17.2312 5.38401C17.2447 5.30813 17.2865 5.24023 17.3483 5.19411L18.4617 4.38268L17.4514 4.96487C17.3844 5.00215 17.3059 5.0127 17.2315 4.9944C17.1571 4.9761 17.0923 4.93032 17.0503 4.86625C17.0083 4.80218 16.9921 4.72457 17.0049 4.64904C17.0178 4.5735 17.0588 4.50564 17.1197 4.45909L18.1506 3.69376L17.3877 4.13343C17.321 4.17196 17.2422 4.18366 17.1671 4.16616C17.0921 4.14866 17.0266 4.10327 16.9838 4.03921C16.9411 3.97514 16.9243 3.8972 16.9369 3.82122C16.9495 3.74523 16.9906 3.6769 17.0517 3.63008L17.7849 3.06972L17.5351 3.21345C17.4705 3.25342 17.3932 3.26767 17.3186 3.25339C17.2439 3.23911 17.1774 3.19734 17.1321 3.13634C17.0868 3.07534 17.0661 2.99956 17.074 2.92399C17.0819 2.84843 17.1179 2.77859 17.1748 2.7283L18.1621 1.79619C18.1024 1.78313 18.048 1.75233 18.0061 1.70783C17.9642 1.66332 17.9368 1.6072 17.9273 1.5468C17.9179 1.48641 17.9269 1.42458 17.9532 1.36941C17.9796 1.31424 18.0219 1.26831 18.0748 1.23765L19.8547 0.206692C19.9193 0.166725 19.9966 0.152471 20.0712 0.166752C20.1459 0.181032 20.2124 0.222807 20.2577 0.283807C20.303 0.344808 20.3237 0.420589 20.3158 0.496152C20.3079 0.571716 20.2719 0.641556 20.215 0.691849L19.4715 1.39593L21.5249 0.210937C21.5916 0.17241 21.6704 0.160708 21.7454 0.178208C21.8205 0.195708 21.886 0.241098 21.9288 0.305163C21.9715 0.369227 21.9883 0.447164 21.9757 0.523149C21.9631 0.599134 21.922 0.667472 21.8609 0.714287L21.1277 1.27525L22.4012 0.539631C22.4682 0.501555 22.5471 0.4904 22.622 0.508433C22.6969 0.526466 22.7622 0.572335 22.8045 0.636722C22.8468 0.701108 22.863 0.779185 22.8498 0.855092C22.8366 0.931 22.7951 0.999045 22.7335 1.04541L21.7056 1.81135L23.0828 1.0169C23.15 0.978676 23.2293 0.967565 23.3044 0.985841C23.3796 1.00412 23.4449 1.0504 23.487 1.11523C23.5291 1.18006 23.5449 1.25853 23.5311 1.3346C23.5173 1.41068 23.475 1.47861 23.4127 1.5245L22.2993 2.33714L23.6038 1.58393C23.671 1.54623 23.7501 1.53557 23.825 1.55412C23.8998 1.57266 23.9648 1.61902 24.0066 1.68376C24.0485 1.7485 24.0642 1.82676 24.0504 1.90263C24.0366 1.97849 23.9944 2.04625 23.9325 2.09213L22.9731 2.78166L23.9737 2.20372C24.0398 2.16566 24.1178 2.15391 24.1922 2.17082C24.2666 2.18773 24.3319 2.23205 24.375 2.29495C24.4182 2.35784 24.4361 2.4347 24.4251 2.51018C24.4141 2.58567 24.375 2.65424 24.3157 2.70222L21.89 4.65801L24.2836 3.27592C24.3498 3.23835 24.4276 3.22703 24.5018 3.2442C24.5759 3.26136 24.6408 3.30577 24.6837 3.3686C24.7266 3.43143 24.7444 3.5081 24.7334 3.58338C24.7224 3.65867 24.6835 3.72707 24.6244 3.77502L22.9597 5.10071L24.26 4.35054C24.3254 4.31391 24.4021 4.30283 24.4752 4.31943C24.5483 4.33604 24.6127 4.37915 24.6559 4.44045C24.6991 4.50174 24.7181 4.57687 24.7091 4.65132C24.7002 4.72577 24.6639 4.79427 24.6074 4.84358L23.6796 5.62408L23.8324 5.53553C23.9017 5.49928 23.9823 5.49121 24.0574 5.513C24.1326 5.53479 24.1963 5.58476 24.2355 5.65247C24.2746 5.72018 24.2861 5.80039 24.2675 5.87636C24.2489 5.95232 24.2016 6.01815 24.1356 6.06011L20.9888 7.87581C20.9429 7.90304 20.8905 7.91749 20.8372 7.91765ZM6.9071 13.3096C6.84696 13.3096 6.78817 13.2917 6.73823 13.2582C6.68828 13.2246 6.64943 13.177 6.62661 13.1214C6.60379 13.0657 6.59803 13.0046 6.61008 12.9456C6.62212 12.8867 6.65142 12.8327 6.69424 12.7904L7.32009 12.1749L5.55109 13.1962C5.4845 13.2336 5.40622 13.2446 5.33191 13.2268C5.25759 13.2091 5.19272 13.1639 5.15027 13.1004C5.10781 13.0369 5.09091 12.9596 5.10293 12.8842C5.11496 12.8087 5.15502 12.7406 5.21512 12.6934L5.46437 12.5018L4.83063 12.8656C4.76394 12.9042 4.68508 12.9159 4.61007 12.8984C4.53506 12.8809 4.46952 12.8355 4.42676 12.7714C4.384 12.7074 4.36722 12.6294 4.37983 12.5534C4.39244 12.4775 4.4335 12.4091 4.49466 12.3623L5.23695 11.7959L4.24117 12.3702C4.17447 12.4087 4.09561 12.4204 4.0206 12.4029C3.94559 12.3854 3.88005 12.34 3.83729 12.276C3.79453 12.2119 3.77775 12.134 3.79036 12.058C3.80298 11.982 3.84403 11.9136 3.9052 11.8668L4.95859 11.0633L3.78815 11.7389C3.72268 11.7767 3.64544 11.7887 3.57159 11.7725C3.49774 11.7563 3.43259 11.7131 3.38893 11.6514C3.34528 11.5897 3.32625 11.5138 3.3356 11.4388C3.34494 11.3638 3.38198 11.295 3.43945 11.2458L5.40312 9.5678L3.454 10.6934C3.38833 10.731 3.31095 10.7427 3.23708 10.7262C3.16321 10.7097 3.09818 10.6661 3.05479 10.6041C3.01139 10.5421 2.99276 10.4661 3.00255 10.391C3.01235 10.316 3.04986 10.2473 3.10772 10.1985L4.32364 9.17906L3.50616 9.65027C3.44223 9.68714 3.36705 9.69943 3.29471 9.68484C3.22237 9.67024 3.15783 9.62977 3.1132 9.571C3.06856 9.51223 3.04689 9.4392 3.05225 9.3656C3.0576 9.29199 3.08962 9.22287 3.14229 9.17118L3.98343 8.34641C3.92413 8.33273 3.87032 8.30153 3.82899 8.25686C3.78767 8.21218 3.76074 8.15611 3.75171 8.09593C3.74268 8.03575 3.75198 7.97424 3.77838 7.91941C3.80477 7.86458 3.84706 7.81896 3.89974 7.78848L5.52623 6.84849C5.59016 6.81162 5.66533 6.79933 5.73768 6.81393C5.81002 6.82852 5.87455 6.869 5.91919 6.92776C5.96382 6.98653 5.98549 7.05956 5.98014 7.13317C5.97478 7.20677 5.94277 7.27589 5.89009 7.32758L5.27819 7.92675L7.02476 6.91884C7.09043 6.8812 7.1678 6.86948 7.24168 6.886C7.31555 6.90251 7.38057 6.94605 7.42397 7.00807C7.46737 7.07009 7.486 7.1461 7.47621 7.22116C7.46641 7.29621 7.4289 7.36489 7.37104 7.4137L6.15814 8.43192L7.95626 7.39369C8.02173 7.35587 8.09896 7.34388 8.17282 7.36006C8.24667 7.37625 8.31182 7.41944 8.35547 7.48117C8.39913 7.5429 8.41815 7.61871 8.40881 7.69374C8.39947 7.76876 8.36243 7.83759 8.30496 7.88673L6.33886 9.56658L8.69976 8.2039C8.76643 8.16617 8.8449 8.15508 8.91942 8.17285C8.99393 8.19062 9.05896 8.23593 9.10143 8.29967C9.1439 8.36342 9.16067 8.44088 9.14837 8.51649C9.13607 8.5921 9.09561 8.66025 9.03512 8.70725L7.98476 9.51322L9.01875 8.91586C9.08545 8.87734 9.1643 8.86564 9.23931 8.88314C9.31432 8.90064 9.37986 8.94603 9.42263 9.01009C9.46539 9.07416 9.48216 9.15209 9.46955 9.22808C9.45694 9.30406 9.41588 9.3724 9.35472 9.41922L8.61425 9.98442L9.14792 9.67635C9.21454 9.63811 9.29318 9.62658 9.36797 9.64408C9.44276 9.66158 9.50811 9.70681 9.55084 9.77064C9.59357 9.83446 9.61049 9.91213 9.59818 9.98794C9.58586 10.0638 9.54523 10.1321 9.4845 10.1791L9.16005 10.4283C9.22456 10.4125 9.29249 10.4182 9.3534 10.4447C9.41431 10.4712 9.46484 10.517 9.49722 10.575C9.52959 10.633 9.54203 10.7 9.53261 10.7658C9.52319 10.8315 9.49244 10.8924 9.44508 10.939L8.59727 11.771C8.65724 11.7838 8.71193 11.8144 8.75412 11.8589C8.79632 11.9034 8.82404 11.9596 8.83363 12.0202C8.84322 12.0807 8.83423 12.1428 8.80784 12.1981C8.78145 12.2534 8.7389 12.2995 8.68581 12.3302L7.05872 13.2689C7.01275 13.2958 6.96037 13.3099 6.9071 13.3096ZM35.9668 13.3187C35.9082 13.3187 35.8509 13.3017 35.8018 13.2698C35.7526 13.2379 35.7138 13.1925 35.6899 13.139C35.666 13.0855 35.6582 13.0262 35.6673 12.9683C35.6764 12.9105 35.7021 12.8565 35.7412 12.8129L36.9104 11.5072L34.2542 13.0403C34.1897 13.0758 34.1144 13.0866 34.0425 13.0707C33.9706 13.0548 33.9069 13.0132 33.8634 12.9538C33.8199 12.8944 33.7995 12.8212 33.806 12.7478C33.8125 12.6744 33.8455 12.606 33.8988 12.5551L35.9407 10.7L33.2445 12.2544C33.1779 12.2918 33.0996 12.3028 33.0253 12.285C32.951 12.2673 32.8861 12.2221 32.8436 12.1586C32.8012 12.0951 32.7843 12.0178 32.7963 11.9424C32.8083 11.8669 32.8484 11.7988 32.9085 11.7516L34.0286 10.8905L32.8212 11.5879C32.7547 11.6264 32.6761 11.6382 32.6012 11.621C32.5263 11.6037 32.4608 11.5587 32.4178 11.4951C32.3749 11.4314 32.3577 11.3538 32.3697 11.2779C32.3818 11.202 32.4222 11.1336 32.4828 11.0863L33.7217 10.116L32.578 10.7764C32.511 10.8151 32.4319 10.8267 32.3567 10.8089C32.2815 10.7912 32.2159 10.7454 32.1734 10.6809C32.1308 10.6164 32.1144 10.5381 32.1276 10.462C32.1409 10.3859 32.1826 10.3176 32.2444 10.2713L32.4761 10.0978C32.4134 10.1131 32.3475 10.108 32.2879 10.0833C32.2283 10.0586 32.1782 10.0155 32.1448 9.96029C32.1114 9.9051 32.0964 9.8407 32.1021 9.77643C32.1078 9.71217 32.1339 9.65141 32.1765 9.60297L33.3227 8.3076L33.313 8.31366C33.2785 8.3356 33.2399 8.35034 33.1995 8.35697C33.1592 8.36361 33.1179 8.36202 33.0782 8.35229C33.0385 8.34256 33.0011 8.32489 32.9684 8.30036C32.9357 8.27582 32.9083 8.24492 32.8878 8.20952C32.8673 8.17411 32.8542 8.13493 32.8493 8.09433C32.8444 8.05374 32.8477 8.01256 32.8591 7.97329C32.8705 7.93401 32.8897 7.89744 32.9156 7.86579C32.9415 7.83413 32.9735 7.80804 33.0098 7.78909L34.6362 6.8491C34.6986 6.81304 34.7718 6.80037 34.8427 6.81335C34.9135 6.82633 34.9774 6.86412 35.023 6.91995C35.0685 6.97577 35.0927 7.04599 35.0912 7.11802C35.0896 7.19004 35.0625 7.25918 35.0147 7.31303L33.8673 8.6084L36.5308 7.07045C36.5977 7.03268 36.6764 7.0217 36.7511 7.03974C36.8257 7.05778 36.8908 7.10348 36.9331 7.16762C36.9753 7.23176 36.9917 7.30956 36.9788 7.38529C36.9659 7.46102 36.9248 7.52904 36.8637 7.57562L36.7133 7.68842L37.1378 7.44584C37.2043 7.40648 37.2834 7.39399 37.3587 7.41093C37.4341 7.42787 37.5002 7.47295 37.5435 7.53697C37.5868 7.60099 37.604 7.67912 37.5916 7.7554C37.5792 7.83167 37.5382 7.90034 37.4768 7.94737L36.2385 8.91768L37.7146 8.06866C37.7812 8.03119 37.8594 8.02023 37.9337 8.03799C38.0081 8.05575 38.0729 8.1009 38.1154 8.16443C38.1578 8.22796 38.1748 8.30517 38.1627 8.38063C38.1507 8.45608 38.1106 8.52422 38.0505 8.5714L36.9292 9.43377L38.0815 8.76668C38.146 8.73118 38.2212 8.72037 38.2932 8.73629C38.3651 8.7522 38.4287 8.79375 38.4723 8.85316C38.5158 8.91258 38.5362 8.98581 38.5297 9.05917C38.5232 9.13254 38.4902 9.20102 38.4368 9.25184L36.3962 11.107L38.2525 10.0329C38.315 9.9969 38.3883 9.98431 38.4592 9.99745C38.5301 10.0106 38.5941 10.0486 38.6395 10.1046C38.6849 10.1606 38.7089 10.231 38.7071 10.3032C38.7053 10.3753 38.6779 10.4444 38.6297 10.4981L37.4605 11.8038L37.5308 11.7637C37.6001 11.7275 37.6807 11.7194 37.7558 11.7412C37.831 11.763 37.8947 11.813 37.9339 11.8807C37.973 11.9484 37.9845 12.0286 37.9659 12.1046C37.9473 12.1805 37.9 12.2464 37.834 12.2883L36.1202 13.278C36.0737 13.3053 36.0207 13.3193 35.9668 13.3187Z" fill="#F7BC5C"/>
<path d="M16.5641 32.1762C16.4998 32.1763 16.4372 32.1561 16.3852 32.1183C16.3333 32.0806 16.2946 32.0273 16.2748 31.9662C16.2551 31.9051 16.2552 31.8393 16.2753 31.7783C16.2953 31.7173 16.3342 31.6642 16.3864 31.6267L16.5398 31.5157L15.467 32.1337C15.4004 32.1719 15.3217 32.1835 15.247 32.166C15.1722 32.1485 15.1068 32.1032 15.0641 32.0394C15.0213 31.9756 15.0044 31.8979 15.0167 31.8221C15.0291 31.7463 15.0697 31.678 15.1304 31.631L16.1656 30.8359L13.9169 32.1337C13.8518 32.1709 13.7752 32.1826 13.702 32.1666C13.6287 32.1507 13.564 32.1081 13.5202 32.0472C13.4765 31.9863 13.4569 31.9113 13.4652 31.8368C13.4735 31.7623 13.5091 31.6935 13.5652 31.6437L15.3609 30.0669L11.781 32.1337C11.7164 32.1724 11.6397 32.1856 11.5659 32.1709C11.4921 32.1561 11.4264 32.1144 11.3816 32.0539C11.3368 31.9934 11.3161 31.9183 11.3236 31.8434C11.3311 31.7685 11.3661 31.699 11.422 31.6485L13.3432 29.851L9.39041 32.1337C9.32382 32.1712 9.24554 32.1821 9.17123 32.1644C9.09691 32.1466 9.03204 32.1015 8.98959 32.0379C8.94713 31.9744 8.93023 31.8972 8.94225 31.8217C8.95428 31.7463 8.99434 31.6781 9.05444 31.631L10.0945 30.8317L7.83852 32.1337C7.77212 32.1719 7.69371 32.1836 7.61905 32.1664C7.54439 32.1492 7.47902 32.1043 7.43608 32.0409C7.39313 31.9774 7.3758 31.9001 7.38757 31.8244C7.39934 31.7486 7.43933 31.6802 7.49951 31.6328L8.7124 30.6855L6.8118 31.782C6.74587 31.819 6.66848 31.83 6.59482 31.813C6.52116 31.7959 6.45654 31.7519 6.41364 31.6896C6.37074 31.6274 6.35265 31.5513 6.36292 31.4764C6.37319 31.4015 6.41108 31.3331 6.46916 31.2847L7.51467 30.4357L6.47037 31.0379C6.40576 31.0771 6.3288 31.0909 6.25458 31.0764C6.18037 31.0618 6.11426 31.0201 6.06922 30.9593C6.02419 30.8986 6.00349 30.8232 6.01117 30.748C6.01885 30.6727 6.05437 30.6031 6.11075 30.5527L6.87245 29.8359L6.46249 30.0718C6.40183 30.1062 6.33114 30.1187 6.26235 30.1071C6.19356 30.0955 6.13087 30.0606 6.08485 30.0081C6.03883 29.9557 6.0123 29.889 6.00973 29.8193C6.00715 29.7496 6.0287 29.6811 6.07072 29.6254L6.43459 29.1494C6.37322 29.1389 6.31657 29.1097 6.27235 29.0659C6.22812 29.022 6.19846 28.9657 6.1874 28.9044C6.17634 28.8431 6.18441 28.7799 6.21051 28.7234C6.23662 28.6669 6.27949 28.6197 6.33332 28.5884L7.33941 28.0099C7.40007 27.9754 7.47076 27.9629 7.53955 27.9745C7.60834 27.9861 7.67103 28.0211 7.71705 28.0735C7.76306 28.1259 7.7896 28.1926 7.79217 28.2623C7.79474 28.3321 7.7732 28.4005 7.73117 28.4562L7.47768 28.7879L8.82824 28.0099C8.89284 27.9712 8.96953 27.958 9.04336 27.9727C9.11719 27.9875 9.1829 28.0292 9.22768 28.0897C9.27247 28.1502 9.29314 28.2252 9.28567 28.3002C9.27819 28.3751 9.24311 28.4445 9.18725 28.495L8.42616 29.2082L10.5045 28.0099C10.5704 27.9722 10.6481 27.9607 10.7221 27.9775C10.7962 27.9944 10.8612 28.0384 10.9044 28.1009C10.9475 28.1634 10.9656 28.2399 10.9552 28.3151C10.9447 28.3903 10.9063 28.4588 10.8477 28.5072L9.80219 29.3562L12.137 28.0093C12.2034 27.9718 12.2814 27.9606 12.3556 27.9781C12.4299 27.9956 12.4948 28.0403 12.5374 28.1035C12.5801 28.1667 12.5974 28.2436 12.5859 28.319C12.5744 28.3943 12.535 28.4626 12.4754 28.5102L11.2625 29.4581L13.7732 28.0093C13.8398 27.971 13.9185 27.9595 13.9932 27.977C14.068 27.9945 14.1334 28.0397 14.1761 28.1035C14.2188 28.1674 14.2358 28.245 14.2235 28.3209C14.2111 28.3967 14.1705 28.465 14.1098 28.512L13.0703 29.3101L15.3287 28.0099C15.3933 27.9712 15.47 27.958 15.5439 27.9727C15.6177 27.9875 15.6834 28.0292 15.7282 28.0897C15.773 28.1502 15.7936 28.2252 15.7862 28.3002C15.7787 28.3751 15.7436 28.4445 15.6877 28.495L13.7641 30.2901L17.7169 28.0099C17.782 27.9727 17.8586 27.961 17.9319 27.9769C18.0051 27.9929 18.0699 28.0355 18.1136 28.0964C18.1573 28.1573 18.1769 28.2322 18.1686 28.3068C18.1603 28.3813 18.1247 28.4501 18.0687 28.4999L16.273 30.0766L19.851 28.0099C19.9176 27.9716 19.9963 27.9601 20.071 27.9776C20.1458 27.9951 20.2112 28.0403 20.2539 28.1042C20.2966 28.168 20.3136 28.2456 20.3013 28.3215C20.2889 28.3973 20.2483 28.4656 20.1876 28.5126L19.1512 29.3083L21.4035 28.0099C21.4708 27.9712 21.5503 27.9599 21.6257 27.9781C21.7012 27.9964 21.7667 28.0429 21.8089 28.108C21.8511 28.1731 21.8667 28.2519 21.8526 28.3282C21.8384 28.4045 21.7955 28.4724 21.7328 28.5181L21.5788 28.629L22.6522 28.0099C22.7168 27.9729 22.7927 27.9609 22.8655 27.9763C22.9383 27.9917 23.0029 28.0333 23.047 28.0932C23.0911 28.1532 23.1117 28.2272 23.1047 28.3013C23.0978 28.3754 23.0639 28.4443 23.0094 28.495L21.0985 30.2701L25.0131 28.0099C25.0775 27.9757 25.1522 27.9659 25.2233 27.9823C25.2944 27.9987 25.3572 28.0402 25.4002 28.0992C25.4431 28.1582 25.4634 28.2306 25.4572 28.3034C25.4511 28.3761 25.4189 28.4441 25.3666 28.495L23.5267 30.1391L27.2217 28.0099C27.2883 27.9726 27.3663 27.9618 27.4405 27.9795C27.5146 27.9973 27.5793 28.0423 27.6218 28.1056C27.6642 28.1689 27.6813 28.2459 27.6695 28.3212C27.6577 28.3965 27.618 28.4646 27.5583 28.512L26.4625 29.361L28.8003 28.0099C28.8649 27.9739 28.9403 27.9627 29.0125 27.9785C29.0847 27.9942 29.1487 28.0358 29.1924 28.0953C29.2361 28.1549 29.2566 28.2284 29.2499 28.302C29.2433 28.3756 29.21 28.4442 29.1563 28.495L27.2763 30.2137L31.0963 28.0099C31.1627 27.9724 31.2408 27.9612 31.315 27.9787C31.3892 27.9962 31.4541 28.041 31.4968 28.1041C31.5394 28.1673 31.5567 28.2442 31.5452 28.3196C31.5338 28.3949 31.4943 28.4632 31.4347 28.5108L30.1952 29.4841L32.7471 28.0099C32.8123 27.973 32.8889 27.9616 32.962 27.9779C33.0351 27.9942 33.0997 28.037 33.1431 28.098C33.1866 28.159 33.2059 28.234 33.1974 28.3084C33.1889 28.3828 33.1531 28.4515 33.097 28.5011L31.3383 30.0281L34.5937 28.1481C34.6604 28.1096 34.7393 28.0979 34.8143 28.1154C34.8893 28.1329 34.9548 28.1783 34.9976 28.2424C35.0403 28.3064 35.0571 28.3844 35.0445 28.4603C35.0319 28.5363 34.9908 28.6047 34.9297 28.6515L34.1189 29.2713L35.1159 28.6958C35.1805 28.6551 35.2581 28.6402 35.3331 28.6543C35.4082 28.6683 35.4752 28.7101 35.5208 28.7714C35.5663 28.8326 35.5871 28.9088 35.5789 28.9848C35.5708 29.0607 35.5343 29.1307 35.4767 29.1809L34.2583 30.3398L35.2329 29.7777C35.2964 29.7415 35.3708 29.7295 35.4424 29.7438C35.514 29.7581 35.5781 29.7978 35.6228 29.8555C35.6675 29.9133 35.6899 29.9853 35.6858 30.0582C35.6816 30.1311 35.6513 30.2001 35.6004 30.2525L35.3136 30.5448C35.3755 30.5336 35.4394 30.5417 35.4967 30.5679C35.554 30.5942 35.6018 30.6373 35.6338 30.6916C35.6738 30.7612 35.6846 30.8438 35.6638 30.9213C35.643 30.9988 35.5923 31.065 35.5228 31.1052L33.7319 32.1361C33.6685 32.1723 33.5941 32.1843 33.5224 32.17C33.4508 32.1557 33.3867 32.116 33.342 32.0583C33.2973 32.0005 33.275 31.9285 33.2791 31.8556C33.2832 31.7826 33.3135 31.7136 33.3644 31.6613L33.607 31.412L32.3535 32.1337C32.2889 32.1744 32.2113 32.1892 32.1362 32.1752C32.0612 32.1612 31.9941 32.1194 31.9486 32.0581C31.903 31.9968 31.8822 31.9206 31.8904 31.8447C31.8986 31.7688 31.9351 31.6987 31.9927 31.6485L33.2116 30.4896L30.3686 32.1337C30.3019 32.1714 30.2234 32.1825 30.1489 32.1647C30.0744 32.147 30.0094 32.1017 29.9669 32.0379C29.9245 31.9742 29.9077 31.8967 29.92 31.8211C29.9323 31.7455 29.9727 31.6773 30.0332 31.6303L30.8404 31.0136L28.8998 32.1337C28.8345 32.1705 28.758 32.1819 28.6848 32.1656C28.6117 32.1494 28.5472 32.1066 28.5037 32.0456C28.4603 31.9846 28.4409 31.9096 28.4494 31.8352C28.458 31.7607 28.4937 31.6921 28.5499 31.6425L30.3086 30.1148L26.8106 32.1337C26.7442 32.1719 26.6658 32.1836 26.5911 32.1664C26.5165 32.1492 26.4511 32.1043 26.4081 32.0409C26.3652 31.9774 26.3479 31.9001 26.3596 31.8244C26.3714 31.7486 26.4114 31.6802 26.4716 31.6328L27.7099 30.6625L25.1568 32.1361C25.0923 32.1716 25.017 32.1824 24.9451 32.1665C24.8732 32.1506 24.8095 32.1091 24.766 32.0496C24.7225 31.9902 24.7021 31.917 24.7086 31.8436C24.7151 31.7703 24.7481 31.7018 24.8014 31.651L26.6814 29.9323L22.8608 32.1367C22.7943 32.174 22.7162 32.1848 22.6421 32.1671C22.5679 32.1493 22.5032 32.1043 22.4608 32.041C22.4183 31.9777 22.4013 31.9007 22.413 31.8254C22.4248 31.7501 22.4645 31.682 22.5242 31.6346L23.6213 30.7856L21.2852 32.1337C21.2208 32.1679 21.1461 32.1777 21.075 32.1613C21.0039 32.1448 20.9411 32.1034 20.8982 32.0444C20.8552 31.9854 20.8349 31.9129 20.8411 31.8402C20.8472 31.7675 20.8794 31.6994 20.9317 31.6485L22.7716 30.0045L19.0766 32.1337C19.012 32.1712 18.9358 32.1836 18.8627 32.1684C18.7895 32.1532 18.7246 32.1116 18.6803 32.0515C18.6359 31.9914 18.6153 31.917 18.6224 31.8426C18.6295 31.7683 18.6638 31.6992 18.7188 31.6485L20.6303 29.8735L16.7157 32.1337C16.6698 32.161 16.6175 32.1756 16.5641 32.1762Z" fill="#C99541"/>
<path d="M5.98966 6.68174C1.97134 7.02681 2.14721 13.3824 6.19767 13.4503L7.74835 27.9219C5.51966 27.9783 5.17095 30.9839 6.85869 31.9184C6.35252 32.2487 5.99519 32.7635 5.86268 33.3532C5.73017 33.9429 5.83295 34.561 6.14915 35.0762C8.19166 36.8773 14.7389 35.4079 17.7377 35.8585C23.1897 35.856 28.6424 35.856 34.096 35.8585C35.7468 35.5389 36.6613 32.671 34.945 31.7377C36.5279 30.6376 35.7334 27.7588 33.8868 28.0129L35.4472 13.4448C39.6868 13.4618 39.6432 6.67568 35.4144 6.67083C34.8603 6.67974 34.3169 6.82554 33.8327 7.09524C33.3486 7.36494 32.9386 7.75016 32.6393 8.21663C32.34 8.6831 32.1607 9.21633 32.1173 9.76886C32.0739 10.3214 32.1678 10.8761 32.3907 11.3835C24.6621 20.177 25.9993 15.3818 22.6421 7.55866C26.1649 5.82665 24.8707 -0.0595142 20.8227 0.00113042C16.7692 -0.0934752 15.5284 5.77692 19.0574 7.52106C15.9584 15.1489 16.7753 19.9611 9.31116 11.3502C10.3039 9.14937 8.46578 6.40338 5.98966 6.68174ZM3.54932 10.0311C3.60996 6.52649 8.80417 6.69569 9.04675 10.0791C8.81751 13.5079 3.4911 13.5079 3.54932 10.0311ZM34.2312 35.2023H10.5022C9.18987 35.2023 7.97637 35.5619 7.11643 34.568C5.63913 32.8614 6.89932 32.3932 8.21167 32.2659C13.3828 32.1792 18.5819 32.2313 23.7549 32.2186C27.0297 32.0761 30.2857 32.4739 33.5629 32.2513C34.6188 32.6025 36.3004 34.625 34.2312 35.2023ZM34.2713 31.5121C27.0236 31.5588 19.9591 31.5818 12.7236 31.5636C11.1432 31.5667 9.18866 31.2361 7.63494 31.5757C6.33594 31.013 6.17947 28.8953 7.82658 28.4744C7.91088 28.6509 8.1668 28.5666 8.3172 28.3943C11.458 28.5478 14.3289 28.5453 17.4327 28.5277C19.794 28.5837 20.2879 28.5837 24.1685 28.5277C27.2711 28.5532 30.2038 28.5278 33.3319 28.4119C33.3453 28.4561 33.3709 28.4957 33.4058 28.526C33.4406 28.5564 33.4832 28.5764 33.5289 28.5837C33.5745 28.5911 33.6212 28.5854 33.6638 28.5675C33.7064 28.5496 33.7431 28.52 33.7697 28.4823C34.0924 28.5535 34.3863 28.7197 34.6136 28.9595C34.8409 29.1993 34.9912 29.5016 35.0452 29.8276C35.0991 30.1535 35.0543 30.4882 34.9163 30.7884C34.7784 31.0886 34.5537 31.3407 34.2713 31.5121ZM38.1586 10.0099C37.9318 13.5795 32.5502 13.386 32.6466 10.1057C32.6308 6.67143 37.9712 6.53134 38.1586 10.0111V10.0099ZM17.5085 4.06189C17.5388 -0.16261 23.9411 -0.329383 24.2037 3.9406C23.9192 8.05777 17.477 8.39556 17.5085 4.06189ZM12.5666 15.6383C17.1337 20.6185 17.9324 10.3908 19.5801 7.75454C20.404 8.0613 21.3091 8.07095 22.1393 7.78183C25.6045 15.998 24.5469 21.3268 32.7339 11.996C32.9838 12.361 33.3044 12.6722 33.6767 12.911C34.049 13.1499 34.4654 13.3116 34.9014 13.3866L33.3404 27.9795C30.4658 27.971 27.5791 27.9795 24.7052 27.9795C20.2879 28.0129 19.5801 27.8728 16.9057 27.9771C13.9675 27.9771 11.4076 28.0147 8.40271 27.8728L6.8502 13.4012C7.27534 13.3239 7.68045 13.1613 8.04116 12.9234C8.40186 12.6855 8.71071 12.377 8.94911 12.0166L12.5666 15.6383Z" fill="#262626"/>
</svg>
