<svg width="35" height="54" viewBox="0 0 35 54" fill="none" xmlns="http://www.w3.org/2000/svg">
<path d="M5.83646 51.947C5.96646 51.934 6.05746 51.973 6.13546 52.038C6.21346 52.116 6.26546 52.207 6.26546 52.337C6.26546 52.389 6.25246 52.454 6.23946 52.519C6.22646 52.584 6.18746 52.649 6.14846 52.714C6.10946 52.779 6.07046 52.831 6.01846 52.87C5.95346 52.922 5.88846 52.948 5.82346 52.948C5.79746 52.948 5.70646 52.948 5.58946 52.961C5.45946 52.961 5.30346 52.974 5.12146 52.974C4.95246 52.974 4.75746 52.974 4.53646 52.987C4.32846 52.987 4.12046 52.987 3.92546 52.987C3.71746 53 3.53546 53 3.36646 53C3.19746 53 3.06746 53 2.96346 53C2.63846 53 2.33946 52.987 2.06646 52.974C1.78046 52.948 1.50746 52.922 1.24746 52.883C1.14346 52.87 1.06546 52.818 1.00046 52.753C0.935461 52.675 0.909461 52.584 0.922461 52.493C0.935461 52.363 0.987461 52.259 1.07846 52.155C1.18246 52.051 1.31246 52.012 1.46846 52.038C1.49446 52.038 1.50746 52.038 1.53346 52.051C1.55946 52.051 1.58546 52.051 1.61146 52.064C1.62446 51.843 1.65046 51.622 1.68946 51.414C1.71546 51.193 1.74146 50.985 1.78046 50.764C1.80646 50.569 1.83246 50.374 1.85846 50.179C1.88446 49.984 1.89746 49.789 1.92346 49.594C1.93646 49.451 1.94946 49.308 1.94946 49.178C1.96246 49.035 1.97546 48.892 1.98846 48.749C2.00146 48.541 2.01446 48.32 2.04046 48.099C2.05346 47.865 2.07946 47.644 2.10546 47.436C2.19646 46.643 2.39146 45.98 2.67746 45.447C2.96346 44.901 3.35346 44.446 3.86046 44.069C3.88646 44.043 3.92546 44.03 3.97746 44.004C4.02946 43.991 4.08146 43.978 4.14646 43.965C4.19846 43.939 4.25046 43.926 4.30246 43.913C4.35446 43.9 4.39346 43.9 4.41946 43.9C4.57546 43.9 4.69246 43.978 4.75746 44.134C4.86146 44.342 4.92646 44.55 4.93946 44.771C4.96546 44.992 4.97846 45.213 4.99146 45.434C4.99146 45.46 4.99146 45.499 4.99146 45.538C4.99146 45.577 4.99146 45.616 5.00446 45.655V45.798C5.01746 46.136 5.04346 46.474 5.05646 46.825C5.08246 47.163 5.10846 47.501 5.14746 47.839C5.18646 48.203 5.22546 48.58 5.23846 48.944C5.26446 49.308 5.29046 49.672 5.30346 50.036C5.31646 50.361 5.34246 50.686 5.35546 51.011C5.38146 51.336 5.39446 51.661 5.43346 51.986L5.83646 51.947ZM2.57346 51.089C2.53446 51.44 2.49546 51.778 2.48246 52.129C2.78146 52.129 3.09346 52.129 3.43146 52.129C3.75646 52.116 4.14646 52.09 4.56246 52.064C4.53646 51.765 4.51046 51.466 4.49746 51.167C4.48446 50.868 4.47146 50.582 4.45846 50.283C4.44546 49.971 4.43246 49.672 4.40646 49.347C4.39346 49.035 4.36746 48.723 4.34146 48.411C4.30246 48.086 4.26346 47.735 4.23746 47.358C4.19846 46.981 4.17246 46.604 4.14646 46.214V45.785C4.14646 45.655 4.14646 45.525 4.14646 45.382C4.13346 45.239 4.13346 45.109 4.10746 44.979C3.88646 45.187 3.69146 45.408 3.54846 45.655C3.40546 45.902 3.28846 46.175 3.19746 46.448C3.10646 46.734 3.04146 47.02 3.00246 47.319C2.96346 47.631 2.92446 47.93 2.89846 48.229C2.87246 48.541 2.84646 48.853 2.80746 49.152C2.76846 49.464 2.72946 49.776 2.69046 50.088C2.65146 50.413 2.61246 50.751 2.57346 51.089ZM10.8508 44.173C11.0458 44.238 11.1628 44.303 11.2278 44.394C11.3188 44.511 11.3838 44.654 11.4358 44.823C11.4878 44.992 11.5138 45.187 11.5398 45.382C11.5658 45.59 11.5658 45.811 11.5658 46.032C11.5528 46.266 11.5398 46.487 11.5138 46.708C11.4878 46.929 11.3838 47.189 11.2018 47.462C11.0198 47.735 10.7988 47.982 10.5258 48.229C10.2658 48.463 9.9798 48.671 9.6678 48.827C9.3558 48.983 9.0698 49.061 8.7968 49.061C8.7708 49.061 8.7318 49.061 8.7058 49.061C8.6798 49.061 8.6408 49.061 8.6148 49.048L8.6018 49.477C8.6018 49.724 8.6148 49.958 8.6148 50.205C8.6148 50.452 8.6278 50.699 8.6408 50.933C8.6408 51.05 8.6408 51.18 8.6408 51.297C8.6538 51.427 8.6538 51.544 8.6538 51.674C8.6538 51.804 8.6668 51.921 8.6668 52.012C8.6798 52.103 8.6798 52.181 8.6798 52.246C8.6798 52.311 8.6798 52.376 8.6798 52.454C8.6798 52.519 8.6668 52.61 8.6538 52.727C8.6538 52.805 8.6278 52.87 8.5888 52.922C8.5498 52.974 8.4848 53 8.3938 53C8.3678 53 8.3158 52.987 8.2508 52.974C8.1988 52.961 8.1338 52.948 8.0688 52.935C8.0168 52.909 7.9648 52.896 7.9128 52.857C7.8608 52.831 7.8218 52.792 7.7958 52.766C7.7438 52.688 7.7308 52.623 7.7308 52.545C7.7438 52.467 7.7438 52.376 7.7568 52.298C7.7698 52.181 7.7698 52.103 7.7828 52.051C7.7828 51.999 7.7828 51.96 7.7828 51.921C7.7828 51.882 7.7698 51.843 7.7698 51.791C7.7568 51.739 7.7568 51.648 7.7438 51.531C7.7438 51.479 7.7438 51.427 7.7308 51.375C7.7308 51.323 7.7308 51.271 7.7308 51.219C7.7178 50.881 7.7048 50.556 7.7048 50.218C7.6918 49.893 7.6918 49.581 7.6918 49.269V49.152C7.7048 48.749 7.7048 48.346 7.7048 47.943C7.6918 47.527 7.6918 47.124 7.6788 46.721C7.6658 46.604 7.6658 46.474 7.6658 46.37C7.6528 46.253 7.6528 46.136 7.6398 46.006L7.6138 45.525C7.6138 45.499 7.6008 45.473 7.6008 45.447C7.6008 45.421 7.6008 45.395 7.6008 45.369C7.6008 45.304 7.6008 45.213 7.6008 45.096C7.5878 44.992 7.5878 44.875 7.5748 44.758C7.5748 44.654 7.5748 44.537 7.5748 44.446C7.5748 44.355 7.5748 44.277 7.5748 44.238C7.6008 44.017 7.7048 43.9 7.8868 43.9C7.9128 43.9 8.0038 43.9 8.1598 43.9C8.3158 43.9 8.4978 43.9 8.7188 43.913C8.9528 43.913 9.1998 43.926 9.4598 43.939C9.7328 43.965 9.9798 43.991 10.2138 44.03C10.4608 44.069 10.6688 44.121 10.8508 44.173ZM10.5648 46.76C10.6428 46.656 10.6818 46.565 10.6948 46.5C10.7208 46.396 10.7468 46.279 10.7598 46.149C10.7728 46.019 10.7728 45.876 10.7728 45.746C10.7598 45.616 10.7468 45.486 10.7208 45.369C10.6818 45.239 10.6428 45.148 10.5778 45.07C10.5388 45.018 10.4348 44.992 10.2658 44.953C10.0968 44.927 9.9018 44.914 9.6938 44.901C9.4728 44.875 9.2648 44.875 9.0698 44.862C8.8618 44.862 8.7058 44.849 8.6018 44.849H8.4718C8.4848 44.94 8.4978 45.031 8.5108 45.135C8.5238 45.252 8.5238 45.356 8.5368 45.46C8.5498 45.577 8.5498 45.681 8.5628 45.798C8.5628 45.902 8.5628 45.993 8.5628 46.071C8.5628 46.149 8.5758 46.214 8.5758 46.292C8.5758 46.37 8.5758 46.435 8.5758 46.5C8.5888 46.734 8.6018 46.968 8.6018 47.228C8.6018 47.488 8.6148 47.761 8.6148 48.06C8.6408 48.073 8.6798 48.086 8.7058 48.099C8.7318 48.099 8.7578 48.099 8.7838 48.099C8.9138 48.099 9.0438 48.073 9.1738 48.008C9.3168 47.956 9.4468 47.878 9.5768 47.774C9.7068 47.683 9.8368 47.566 9.9668 47.449C10.0968 47.332 10.2138 47.215 10.3178 47.098C10.4218 46.981 10.4998 46.864 10.5648 46.76ZM16.1578 45.824C16.3528 45.265 16.5998 44.706 16.8858 44.16C16.9638 44.043 17.0548 43.965 17.1588 43.952C17.2758 43.939 17.3798 43.952 17.4838 44.004C17.5748 44.069 17.6528 44.147 17.7048 44.251C17.7438 44.368 17.7438 44.485 17.6788 44.615C17.4318 45.057 17.2368 45.512 17.0678 45.98C16.8988 46.448 16.7428 46.916 16.6128 47.397C16.4698 47.878 16.3268 48.346 16.1968 48.827C16.0538 49.308 15.9108 49.776 15.7418 50.244C15.6248 50.543 15.5078 50.842 15.3778 51.167C15.2478 51.479 15.1048 51.778 14.9228 52.038C14.7408 52.311 14.5198 52.532 14.2598 52.714C13.9868 52.896 13.6748 53 13.2978 53.026C13.1548 53.039 13.0378 53 12.9728 52.909C12.8948 52.818 12.8688 52.727 12.8688 52.61C12.8688 52.506 12.8948 52.402 12.9728 52.311C13.0378 52.22 13.1548 52.155 13.2978 52.155C13.4798 52.142 13.6358 52.09 13.7658 51.999C13.8958 51.908 14.0128 51.791 14.1038 51.661C14.2078 51.518 14.2858 51.375 14.3508 51.232C14.4158 51.076 14.4808 50.92 14.5588 50.79C14.7148 50.426 14.8578 50.062 14.9748 49.685C15.1048 49.321 15.2088 48.944 15.3128 48.567C15.3258 48.554 15.3258 48.554 15.3258 48.554C15.0528 48.294 14.8188 47.995 14.6238 47.67C14.4158 47.345 14.2338 46.994 14.0778 46.643C13.9088 46.279 13.7528 45.928 13.6098 45.564C13.4538 45.213 13.2978 44.875 13.1288 44.563C13.0638 44.433 13.0508 44.329 13.0898 44.225C13.1288 44.121 13.2068 44.043 13.2978 43.991C13.3888 43.939 13.4928 43.913 13.6098 43.939C13.7268 43.952 13.8308 44.017 13.9218 44.134C14.0908 44.368 14.2468 44.628 14.3768 44.927C14.5068 45.239 14.6368 45.538 14.7538 45.85C14.8708 46.162 15.0008 46.461 15.1438 46.76C15.2738 47.059 15.4298 47.319 15.6118 47.553C15.7938 46.968 15.9628 46.396 16.1578 45.824ZM22.692 46.825C22.822 46.994 22.913 47.228 22.965 47.514C23.03 47.943 23.069 48.359 23.069 48.788C23.082 49.204 23.069 49.633 23.043 50.062C23.03 50.205 23.017 50.361 23.017 50.517C23.017 50.686 23.004 50.842 22.991 51.011C22.978 51.167 22.952 51.323 22.913 51.492C22.887 51.648 22.835 51.791 22.77 51.921C22.627 52.22 22.432 52.454 22.185 52.623C21.951 52.805 21.691 52.909 21.418 52.961C21.132 53.013 20.846 53.013 20.56 52.948C20.287 52.896 20.027 52.779 19.793 52.623C19.559 52.454 19.377 52.246 19.234 51.999C19.078 51.739 19.013 51.44 19.026 51.102C19.026 50.959 19.065 50.842 19.169 50.777C19.26 50.699 19.377 50.66 19.481 50.66C19.598 50.647 19.702 50.686 19.793 50.751C19.884 50.829 19.936 50.933 19.936 51.076C19.936 51.232 19.962 51.375 20.014 51.518C20.066 51.648 20.144 51.765 20.248 51.856C20.339 51.947 20.456 52.012 20.599 52.064C20.729 52.103 20.885 52.129 21.054 52.116C21.236 52.09 21.405 52.051 21.535 51.986C21.652 51.908 21.756 51.817 21.834 51.7C21.925 51.596 21.977 51.453 22.016 51.31C22.055 51.167 22.081 50.998 22.094 50.816C22.107 50.582 22.133 50.335 22.159 50.075C22.185 49.815 22.198 49.555 22.211 49.295C22.211 49.035 22.211 48.775 22.198 48.515C22.198 48.268 22.159 48.021 22.107 47.787C22.055 47.579 21.99 47.436 21.899 47.332C21.808 47.228 21.691 47.163 21.561 47.124C21.444 47.072 21.301 47.046 21.145 47.046C20.976 47.033 20.82 47.02 20.638 47.007C20.495 46.994 20.391 46.942 20.313 46.851C20.235 46.76 20.196 46.656 20.196 46.552C20.196 46.448 20.222 46.357 20.3 46.266C20.365 46.175 20.469 46.123 20.625 46.097C20.755 46.084 20.911 46.058 21.093 45.993C21.262 45.941 21.418 45.863 21.548 45.759C21.665 45.668 21.73 45.551 21.743 45.421C21.756 45.291 21.652 45.135 21.444 44.953C21.34 44.875 21.236 44.823 21.106 44.797C20.989 44.771 20.859 44.758 20.716 44.758C20.586 44.758 20.456 44.771 20.313 44.784C20.183 44.797 20.053 44.81 19.936 44.81C19.793 44.81 19.676 44.771 19.611 44.68C19.533 44.589 19.494 44.485 19.494 44.381C19.494 44.264 19.533 44.16 19.598 44.069C19.663 43.965 19.78 43.913 19.923 43.913C20.222 43.9 20.508 43.9 20.781 43.913C21.054 43.913 21.301 43.965 21.535 44.043C21.769 44.121 21.964 44.251 22.133 44.433C22.315 44.615 22.445 44.862 22.536 45.2C22.614 45.473 22.627 45.707 22.549 45.915C22.471 46.123 22.367 46.292 22.198 46.435C22.393 46.526 22.549 46.656 22.692 46.825ZM28.3354 49.984C28.4264 50.153 28.4784 50.309 28.5044 50.452C28.5304 50.647 28.5434 50.855 28.5434 51.076C28.5434 51.284 28.5174 51.492 28.4784 51.687C28.4524 51.882 28.4004 52.064 28.3354 52.233C28.2704 52.402 28.2054 52.532 28.1144 52.636C28.0364 52.727 27.9064 52.792 27.7114 52.844C27.5164 52.883 27.2954 52.922 27.0484 52.961C26.8014 52.987 26.5414 53 26.2684 53.013C25.9954 53.013 25.7354 53.026 25.5014 53.026C25.2674 53.026 25.0594 53.026 24.9034 53.013C24.7344 53.013 24.6434 53 24.6174 53C24.5654 53 24.5264 52.987 24.5004 52.948C24.4614 52.909 24.4484 52.857 24.4224 52.805C24.3964 52.753 24.3834 52.688 24.3834 52.636C24.3704 52.571 24.3704 52.519 24.3834 52.48C24.4224 52.311 24.4354 52.168 24.4224 52.051C24.4224 51.934 24.4224 51.817 24.4224 51.687C24.4354 51.661 24.4354 51.609 24.4354 51.544C24.4354 51.466 24.4484 51.388 24.4484 51.323C24.4484 51.245 24.4614 51.167 24.4614 51.089C24.4744 50.972 24.4874 50.868 24.4874 50.751C24.5004 50.647 24.5004 50.53 24.5134 50.426C24.5134 50.036 24.5264 49.659 24.5264 49.282C24.5394 48.905 24.5264 48.528 24.5264 48.151V48.06C24.5264 47.761 24.5264 47.462 24.5264 47.15C24.5394 46.851 24.5394 46.539 24.5654 46.214C24.5654 46.175 24.5654 46.123 24.5654 46.071C24.5654 46.032 24.5784 45.98 24.5784 45.941C24.6044 45.707 24.6044 45.473 24.6044 45.226C24.6044 44.979 24.5654 44.771 24.4744 44.576C24.4354 44.511 24.4224 44.433 24.4224 44.355C24.4354 44.277 24.4614 44.212 24.5134 44.147C24.5524 44.082 24.6174 44.03 24.6954 43.991C24.7734 43.939 24.8514 43.926 24.9294 43.926C25.0984 43.926 25.2284 44.004 25.3064 44.147C25.4364 44.42 25.5014 44.706 25.5274 44.979C25.5404 45.265 25.5404 45.538 25.5404 45.811C25.5274 45.928 25.5274 46.032 25.5274 46.149C25.5144 46.266 25.5144 46.383 25.5144 46.5C25.5014 46.721 25.5014 46.942 25.4884 47.163C25.4884 47.397 25.4754 47.631 25.4754 47.852V48.255C25.5144 48.255 25.5404 48.242 25.5794 48.242C25.6054 48.242 25.6444 48.242 25.6834 48.242C25.8654 48.242 26.0734 48.268 26.2814 48.346C26.4894 48.411 26.6844 48.502 26.8924 48.619C27.0874 48.736 27.2824 48.866 27.4774 49.022C27.6594 49.165 27.8284 49.334 27.9714 49.49C28.1144 49.659 28.2444 49.828 28.3354 49.984ZM25.3974 52.077C25.3844 52.194 25.3714 52.298 25.3714 52.376C25.3714 52.376 25.4234 52.376 25.5274 52.376C25.6184 52.389 25.7484 52.389 25.8914 52.389C26.0344 52.389 26.1904 52.389 26.3724 52.389C26.5414 52.389 26.6974 52.376 26.8534 52.376C27.0094 52.363 27.1394 52.35 27.2434 52.337C27.3604 52.311 27.4254 52.285 27.4514 52.259C27.5164 52.181 27.5554 52.064 27.5944 51.882C27.6204 51.713 27.6464 51.518 27.6464 51.323C27.6594 51.128 27.6594 50.946 27.6594 50.764C27.6464 50.582 27.6464 50.452 27.6334 50.361C27.6204 50.27 27.5684 50.153 27.4644 50.023C27.3604 49.88 27.2174 49.75 27.0354 49.62C26.8664 49.49 26.6584 49.386 26.4244 49.295C26.1904 49.204 25.9434 49.152 25.6704 49.139C25.6054 49.139 25.5404 49.152 25.4754 49.165C25.4754 49.451 25.4754 49.711 25.4754 49.945C25.4754 50.179 25.4624 50.413 25.4494 50.634C25.4494 50.699 25.4494 50.764 25.4494 50.829C25.4494 50.894 25.4494 50.959 25.4494 51.037C25.4494 51.102 25.4364 51.206 25.4364 51.323C25.4234 51.44 25.4234 51.57 25.4104 51.7C25.4104 51.83 25.3974 51.96 25.3974 52.077ZM29.9074 47.059C29.8424 46.799 29.8164 46.539 29.8554 46.279C29.8684 46.097 29.9464 45.902 30.0764 45.72C30.0894 45.72 30.0894 45.707 30.1024 45.694C30.6354 44.251 32.1564 43.445 33.7164 43.783C33.9114 43.822 33.9894 43.978 33.9764 44.134C34.0024 44.186 34.0154 44.251 34.0154 44.329V44.407C34.0284 44.42 34.0414 44.576 34.0414 44.875C34.0414 45.174 34.0414 45.551 34.0284 46.019C34.0284 46.487 34.0154 47.007 34.0154 47.592C34.0154 48.177 34.0024 48.775 34.0024 49.386C34.0154 49.984 34.0154 50.569 34.0284 51.128C34.0414 51.687 34.0544 52.181 34.0804 52.61C34.0804 52.74 34.0414 52.844 33.9504 52.909C33.8464 52.974 33.7554 53.013 33.6384 53C33.5214 53 33.4174 52.974 33.3264 52.896C33.2224 52.831 33.1704 52.727 33.1574 52.584C33.1444 52.337 33.1314 52.077 33.1314 51.804C33.1184 51.531 33.1054 51.258 33.1054 50.972C33.0924 50.699 33.0924 50.426 33.0794 50.153C33.0794 49.88 33.0794 49.607 33.0664 49.36C32.9364 49.373 32.7934 49.386 32.6634 49.373C32.5334 49.36 32.3904 49.347 32.2604 49.321C32.1954 49.594 32.1304 49.867 32.0264 50.153C31.9354 50.439 31.8314 50.725 31.7274 50.998C31.6104 51.284 31.5064 51.57 31.4024 51.843C31.2854 52.129 31.1814 52.402 31.0904 52.662C31.0384 52.805 30.9604 52.883 30.8434 52.922C30.7264 52.974 30.6094 52.974 30.5054 52.935C30.4014 52.909 30.3104 52.844 30.2324 52.753C30.1674 52.662 30.1544 52.558 30.2064 52.428C30.2974 52.155 30.4014 51.869 30.5314 51.583C30.6484 51.31 30.7654 51.011 30.8694 50.725C30.9864 50.426 31.0904 50.14 31.1814 49.841C31.2724 49.555 31.3504 49.256 31.4024 48.97C31.1554 48.84 30.9344 48.671 30.7264 48.463C30.5184 48.268 30.3494 48.047 30.2064 47.813C30.0764 47.566 29.9724 47.319 29.9074 47.059ZM30.7524 46.474C30.7524 46.643 30.7784 46.812 30.8434 46.981C30.8954 47.163 30.9864 47.332 31.0904 47.501C31.1944 47.67 31.3244 47.826 31.4674 47.956C31.6104 48.099 31.7794 48.216 31.9484 48.307C32.0264 48.346 32.1174 48.385 32.2214 48.411C32.3254 48.437 32.4164 48.463 32.5204 48.489C32.6114 48.502 32.7024 48.515 32.7934 48.528C32.8714 48.541 32.9494 48.528 33.0144 48.528H33.0664C33.0664 47.93 33.0664 47.306 33.0794 46.656C33.0794 46.019 33.0924 45.395 33.0924 44.81C32.8454 44.797 32.5854 44.836 32.3124 44.914C32.0524 44.992 31.8054 45.096 31.5714 45.239C31.3504 45.382 31.1554 45.564 30.9994 45.772C30.8564 45.98 30.7654 46.214 30.7524 46.474Z" fill="#71727A"/>
<path d="M11.5315 10.8959C11.4681 10.8959 11.4063 10.8756 11.3553 10.838C11.3042 10.8003 11.2666 10.7473 11.2478 10.6867C11.2291 10.6261 11.2303 10.5611 11.2512 10.5012C11.2722 10.4413 11.3117 10.3898 11.3641 10.354L15.5858 7.46835L10.0424 10.6686C9.97592 10.7045 9.89828 10.7137 9.82526 10.6944C9.75224 10.6751 9.68935 10.6286 9.64939 10.5645C9.60943 10.5004 9.59542 10.4235 9.61021 10.3494C9.625 10.2753 9.66748 10.2097 9.72899 10.1659L13.556 7.59596L10.0424 9.62339C9.97621 9.65952 9.89879 9.66912 9.82581 9.65024C9.75284 9.63136 9.68978 9.58542 9.64945 9.52174C9.60911 9.45806 9.59452 9.38142 9.60863 9.30738C9.62274 9.23334 9.6645 9.16744 9.72543 9.12306L15.5359 5.10559L10.0424 8.27731C9.97535 8.31546 9.8961 8.32602 9.82143 8.30675C9.74675 8.28749 9.68251 8.23991 9.64231 8.17409C9.60211 8.10828 9.58911 8.0294 9.60607 7.95416C9.62303 7.87893 9.6686 7.81325 9.73315 7.77104L11.0757 6.90452L10.0424 7.49803C9.97651 7.53582 9.89866 7.54694 9.82486 7.52908C9.75106 7.51122 9.68691 7.46574 9.64561 7.40202C9.60432 7.33829 9.58903 7.26116 9.60288 7.1865C9.61674 7.11184 9.65868 7.04533 9.72009 7.00067L14.318 3.677L10.0726 6.1282C10.007 6.16528 9.92962 6.17594 9.85635 6.15804C9.78308 6.14014 9.71938 6.09501 9.67819 6.03183C9.637 5.96865 9.62141 5.89215 9.6346 5.81789C9.64778 5.74363 9.68875 5.67717 9.74917 5.63203L12.6253 3.53041L10.3385 4.84978C10.2725 4.88689 10.1947 4.89733 10.1212 4.87896C10.0477 4.86059 9.98403 4.8148 9.9432 4.75098C9.90237 4.68715 9.8875 4.61013 9.90163 4.5357C9.91577 4.46126 9.95784 4.39505 10.0192 4.35064L10.643 3.91144C10.5909 3.91559 10.5386 3.90611 10.4913 3.88395C10.4439 3.86179 10.4031 3.8277 10.373 3.78502C10.3306 3.72369 10.3129 3.64867 10.3234 3.57489C10.3338 3.50111 10.3717 3.43395 10.4293 3.38678L11.6692 2.37187C11.6204 2.34854 11.579 2.31234 11.5493 2.26718C11.5197 2.22202 11.5029 2.16962 11.5008 2.11563C11.4987 2.06164 11.5114 2.0081 11.5376 1.9608C11.5637 1.9135 11.6022 1.87422 11.649 1.84721L13.921 0.535552C13.9854 0.49886 14.0613 0.487646 14.1336 0.504118C14.206 0.520591 14.2695 0.563557 14.3117 0.624549C14.354 0.68554 14.3718 0.760135 14.3618 0.833634C14.3517 0.907133 14.3145 0.974207 14.2575 1.02164L13.6343 1.53206L15.8196 0.272033C15.8857 0.234924 15.9634 0.224485 16.0369 0.242856C16.1104 0.261227 16.1741 0.307017 16.2149 0.370839C16.2558 0.434662 16.2706 0.511684 16.2565 0.586118C16.2424 0.660552 16.2003 0.726762 16.1389 0.771175L15.7709 1.02995L17.085 0.272033C17.1506 0.235746 17.2276 0.225668 17.3004 0.243826C17.3731 0.261984 17.4363 0.30703 17.4773 0.369902C17.5182 0.432774 17.5337 0.508808 17.5209 0.582705C17.508 0.656603 17.4676 0.722882 17.4078 0.768208L14.5323 2.87102L19.0364 0.272033C19.1023 0.234236 19.1801 0.223124 19.2539 0.240984C19.3277 0.258843 19.3919 0.304316 19.4332 0.368042C19.4745 0.431767 19.4898 0.508898 19.4759 0.583558C19.4621 0.658218 19.4201 0.724727 19.3587 0.769395L14.762 4.09306L21.1754 0.390735C21.2423 0.353352 21.3211 0.343304 21.3953 0.362695C21.4694 0.382086 21.5332 0.429412 21.5732 0.494764C21.6133 0.560115 21.6265 0.638423 21.6101 0.71329C21.5937 0.788156 21.5489 0.853775 21.4853 0.896406L20.1392 1.76234L21.5606 0.942107C21.6269 0.904674 21.7051 0.894152 21.7789 0.912717C21.8527 0.931281 21.9166 0.977512 21.9573 1.04185C21.998 1.10618 22.0124 1.1837 21.9976 1.25837C21.9828 1.33304 21.9398 1.39915 21.8776 1.44303L16.0665 5.4611L20.884 2.67931C20.9506 2.64198 21.029 2.63175 21.103 2.65075C21.1769 2.66975 21.2407 2.71651 21.2811 2.78132C21.3214 2.84612 21.3352 2.92399 21.3197 2.99873C21.3041 3.07346 21.2603 3.13932 21.1974 3.18261L17.3728 5.74895L22.0515 3.04788C22.118 3.00929 22.1968 2.99801 22.2715 3.01642C22.3461 3.03483 22.4107 3.08149 22.4516 3.14657C22.4926 3.21165 22.5066 3.29008 22.4909 3.36533C22.4751 3.44058 22.4308 3.50678 22.3672 3.54999L18.145 6.43564L22.9138 3.68294C22.9799 3.64714 23.0571 3.63773 23.1298 3.65662C23.2025 3.6755 23.2654 3.72128 23.3057 3.7847C23.346 3.84812 23.3607 3.92447 23.3469 3.99833C23.3331 4.0722 23.2918 4.13808 23.2314 4.18268L19.4816 6.78819L23.5068 4.46459C23.5727 4.42636 23.6508 4.41497 23.725 4.43278C23.7991 4.4506 23.8635 4.49626 23.9049 4.56029C23.9462 4.62432 23.9614 4.70182 23.9471 4.77671C23.9329 4.85161 23.8904 4.91815 23.8284 4.96255L20.4864 7.36627L23.8694 5.41421C23.9356 5.37772 24.0133 5.36791 24.0866 5.38677C24.1598 5.40563 24.2231 5.45174 24.2635 5.51569C24.3039 5.57964 24.3183 5.6566 24.3038 5.73084C24.2894 5.80508 24.2472 5.871 24.1857 5.91513L23.2783 6.53832L23.9549 6.14838C24.0199 6.11146 24.0965 6.10046 24.1693 6.11757C24.2421 6.13468 24.3057 6.17865 24.3475 6.24067C24.3893 6.3027 24.4061 6.37822 24.3946 6.45211C24.3831 6.526 24.3441 6.59283 24.2854 6.63922L22.2907 8.19422L23.9614 7.23035C24.0235 7.19696 24.0955 7.18677 24.1644 7.20162C24.2333 7.21646 24.2947 7.25537 24.3376 7.31137C24.3804 7.36737 24.402 7.4368 24.3983 7.50722C24.3946 7.57764 24.366 7.64444 24.3175 7.69567L22.8052 9.22514L23.9638 8.55626C24.0212 8.52273 24.0883 8.50949 24.1542 8.51864C24.22 8.5278 24.2809 8.55883 24.3271 8.60674C24.3732 8.65466 24.4019 8.71669 24.4086 8.78288C24.4152 8.84907 24.3995 8.91557 24.3638 8.97172L23.889 9.73022L23.9691 9.68452C24.0029 9.66305 24.0406 9.64863 24.0801 9.64214C24.1196 9.63564 24.16 9.6372 24.1989 9.64672C24.2378 9.65625 24.2743 9.67353 24.3063 9.69754C24.3384 9.72156 24.3652 9.7518 24.3852 9.78645C24.4053 9.8211 24.4181 9.85944 24.4229 9.89917C24.4277 9.93891 24.4245 9.9792 24.4133 10.0176C24.4022 10.0561 24.3833 10.0919 24.358 10.1228C24.3327 10.1538 24.3013 10.1794 24.2659 10.1979L23.153 10.8395C23.0956 10.873 23.0285 10.8863 22.9626 10.8771C22.8967 10.868 22.8358 10.8369 22.7897 10.789C22.7436 10.7411 22.7149 10.6791 22.7082 10.6129C22.7015 10.5467 22.7173 10.4802 22.753 10.424L23.2278 9.66494L21.1903 10.8407C21.1282 10.8741 21.0562 10.8843 20.9873 10.8694C20.9183 10.8546 20.8569 10.8157 20.8141 10.7597C20.7712 10.7037 20.7497 10.6342 20.7534 10.5638C20.7571 10.4934 20.7857 10.4266 20.8342 10.3754L22.3458 8.84708L18.8875 10.8436C18.8224 10.8813 18.7455 10.8929 18.6722 10.876C18.5989 10.8592 18.5348 10.8151 18.4928 10.7528C18.4507 10.6905 18.4339 10.6145 18.4457 10.5403C18.4575 10.466 18.497 10.399 18.5563 10.3528L20.5511 8.79722L16.9983 10.8472C16.9319 10.8852 16.8534 10.896 16.7792 10.8775C16.705 10.859 16.6408 10.8126 16.6 10.7479C16.5593 10.6832 16.545 10.6053 16.5603 10.5303C16.5755 10.4554 16.6191 10.3893 16.682 10.3457L17.5918 9.72369L15.6427 10.8514C15.5768 10.8896 15.4987 10.901 15.4245 10.8832C15.3504 10.8654 15.286 10.8197 15.2446 10.7557C15.2033 10.6916 15.1881 10.6141 15.2023 10.5392C15.2166 10.4644 15.2591 10.3978 15.3211 10.3534L18.6601 7.94672L13.6284 10.8514C13.5622 10.8884 13.4843 10.8986 13.4108 10.88C13.3373 10.8614 13.2737 10.8153 13.233 10.7513C13.1924 10.6873 13.1778 10.6101 13.1923 10.5357C13.2068 10.4613 13.2492 10.3952 13.3108 10.351L17.06 7.74612L11.6775 10.8537C11.6334 10.8804 11.583 10.8949 11.5315 10.8959Z" fill="#AA6352"/>
<path d="M12.0573 35.2121C11.9931 35.2121 11.9307 35.1913 11.8793 35.1529C11.8279 35.1144 11.7904 35.0604 11.7723 34.9988C11.7543 34.9372 11.7567 34.8714 11.7792 34.8113C11.8016 34.7512 11.843 34.7001 11.897 34.6654L15.1459 32.5881L10.6738 35.1705C10.6071 35.2078 10.5285 35.218 10.4544 35.1988C10.3804 35.1796 10.3166 35.1325 10.2765 35.0675C10.2363 35.0024 10.2228 34.9243 10.2387 34.8495C10.2547 34.7747 10.2989 34.709 10.3622 34.666L17.3876 30.0562L8.75973 35.0393C8.69257 35.0787 8.61264 35.0901 8.53716 35.0711C8.46169 35.0521 8.3967 35.0041 8.35622 34.9377C8.31574 34.8712 8.303 34.7914 8.32075 34.7157C8.3385 34.6399 8.38531 34.5741 8.4511 34.5325L15.0563 30.2948L7.96798 34.3865C7.90082 34.4229 7.82222 34.432 7.74853 34.4118C7.67483 34.3917 7.61173 34.344 7.57236 34.2785C7.53298 34.2131 7.52035 34.135 7.53711 34.0604C7.55387 33.9859 7.59872 33.9207 7.66233 33.8784L11.551 31.4385L7.68785 33.6689C7.62091 33.7043 7.54298 33.7127 7.47001 33.6925C7.39705 33.6723 7.33457 33.625 7.29536 33.5602C7.25615 33.4955 7.24318 33.4182 7.2591 33.3441C7.27502 33.2701 7.31863 33.205 7.381 33.1621L12.7167 29.7755L7.66826 32.6896C7.60145 32.7284 7.52217 32.7395 7.44726 32.7208C7.37235 32.702 7.30771 32.6547 7.26707 32.5891C7.22643 32.5234 7.21299 32.4445 7.22961 32.3691C7.24623 32.2936 7.2916 32.2277 7.35608 32.1852L15.4367 26.8364L7.66826 31.3216C7.60105 31.3575 7.52261 31.3662 7.44918 31.3458C7.37575 31.3255 7.31297 31.2776 7.27383 31.2123C7.2347 31.1469 7.22221 31.0689 7.23895 30.9946C7.2557 30.9203 7.3004 30.8552 7.36379 30.813L7.6012 30.6658C7.53298 30.6848 7.46021 30.6787 7.39605 30.6488C7.33188 30.6188 7.28054 30.5669 7.2513 30.5024C7.22207 30.4379 7.21686 30.3651 7.23661 30.2971C7.25637 30.2291 7.2998 30.1704 7.35904 30.1316L12.2668 26.9266L7.66826 29.5779C7.60107 29.6163 7.52153 29.6269 7.44661 29.6075C7.37169 29.5881 7.30731 29.5402 7.26721 29.474C7.22711 29.4078 7.21445 29.3285 7.23194 29.2532C7.24943 29.1778 7.29568 29.1122 7.36082 29.0704L8.17215 28.5552L7.66826 28.8455C7.60142 28.8818 7.52319 28.891 7.44974 28.8713C7.37628 28.8515 7.3132 28.8044 7.27353 28.7395C7.23385 28.6746 7.2206 28.5969 7.23651 28.5226C7.25242 28.4482 7.29629 28.3828 7.35904 28.3398L8.94016 27.3148L7.66826 28.0484C7.60239 28.0848 7.52514 28.0948 7.45216 28.0764C7.37918 28.058 7.31591 28.0126 7.27518 27.9493C7.23444 27.886 7.21928 27.8096 7.23276 27.7355C7.24623 27.6615 7.28734 27.5953 7.34777 27.5504L11.3836 24.6761L7.66826 26.8216C7.60197 26.859 7.52382 26.8696 7.44999 26.851C7.37616 26.8324 7.31228 26.7862 7.27158 26.7219C7.23087 26.6575 7.21645 26.58 7.23129 26.5053C7.24614 26.4307 7.28911 26.3645 7.35133 26.3207L8.95025 25.2156L7.68369 25.9468C7.61949 25.9834 7.54391 25.9948 7.47175 25.9787C7.39958 25.9626 7.33604 25.9201 7.29356 25.8596C7.25108 25.7991 7.23273 25.7249 7.2421 25.6515C7.25147 25.5782 7.28788 25.511 7.34421 25.463L9.97286 23.2611L8.08491 24.3508C8.0209 24.3877 7.94545 24.3994 7.8733 24.3836C7.80114 24.3677 7.73748 24.3256 7.69474 24.2654C7.65201 24.2051 7.63327 24.1311 7.64221 24.0578C7.65114 23.9845 7.68709 23.9171 7.74304 23.8689L8.84401 22.9193C8.78078 22.8952 8.72791 22.8499 8.69444 22.7911C8.65504 22.723 8.64429 22.642 8.66454 22.566C8.6848 22.49 8.73441 22.4252 8.80246 22.3857L10.8281 21.2165C10.892 21.1803 10.9671 21.1691 11.0388 21.1851C11.1105 21.2011 11.1737 21.2431 11.2162 21.3029C11.2587 21.3628 11.2775 21.4363 11.269 21.5093C11.2605 21.5822 11.2252 21.6494 11.17 21.6978L10.5171 22.2605L12.6276 21.045C12.6918 21.0089 12.7671 20.9979 12.8389 21.0142C12.9107 21.0306 12.9739 21.073 13.0161 21.1333C13.0584 21.1936 13.0767 21.2675 13.0676 21.3406C13.0584 21.4136 13.0224 21.4807 12.9665 21.5287L10.3379 23.7306L14.991 21.045C15.0572 21.0088 15.1346 20.9992 15.2076 21.0181C15.2805 21.037 15.3436 21.0829 15.3839 21.1466C15.4243 21.2103 15.4388 21.2869 15.4247 21.361C15.4106 21.435 15.3689 21.5009 15.3079 21.5453L13.7108 22.6474L16.4908 21.045C16.5568 21.0073 16.6347 20.9964 16.7085 21.0145C16.7823 21.0326 16.8464 21.0783 16.8875 21.1422C16.9286 21.2062 16.9436 21.2834 16.9294 21.3581C16.9152 21.4327 16.8729 21.4991 16.8113 21.5435L12.7754 24.4173L18.6162 21.045C18.683 21.0087 18.7612 20.9994 18.8347 21.0192C18.9081 21.0389 18.9712 21.0861 19.0109 21.151C19.0506 21.2158 19.0638 21.2935 19.0479 21.3679C19.032 21.4422 18.9881 21.5077 18.9254 21.5506L17.3466 22.5738L19.9961 21.045C20.0631 21.0086 20.1415 20.9995 20.215 21.0194C20.2886 21.0393 20.3517 21.0868 20.3912 21.152C20.4307 21.2171 20.4437 21.295 20.4273 21.3694C20.411 21.4439 20.3667 21.5092 20.3035 21.5518L19.4904 22.0682L21.2638 21.045C21.3307 21.0069 21.4097 20.9964 21.4842 21.0155C21.5587 21.0346 21.6228 21.0819 21.6632 21.1473C21.7035 21.2128 21.7168 21.2914 21.7003 21.3665C21.6839 21.4417 21.6389 21.5074 21.5748 21.55L16.6712 24.755L22.8194 21.2052C22.8868 21.1672 22.9664 21.1571 23.0412 21.1769C23.116 21.1968 23.1801 21.2451 23.2198 21.3115C23.2595 21.3779 23.2717 21.4572 23.2538 21.5324C23.2358 21.6077 23.1892 21.673 23.1239 21.7144L23.1179 21.718L23.5506 21.4687C23.6173 21.4319 23.6955 21.4222 23.7691 21.4414C23.8428 21.4607 23.9062 21.5075 23.9463 21.5722C23.9864 21.6369 24.0001 21.7146 23.9845 21.7891C23.969 21.8636 23.9254 21.9293 23.8628 21.9726L15.7827 27.3196L24.6765 22.1851C24.7435 22.1488 24.8219 22.1396 24.8955 22.1596C24.969 22.1795 25.0321 22.2269 25.0716 22.2921C25.1111 22.3573 25.1241 22.4351 25.1078 22.5096C25.0914 22.584 25.0471 22.6493 24.9839 22.6919L19.6471 26.0797L25.2902 22.8219C25.3574 22.7855 25.436 22.7765 25.5097 22.7966C25.5833 22.8167 25.6464 22.8644 25.6858 22.9299C25.7252 22.9953 25.7378 23.0734 25.7211 23.148C25.7043 23.2225 25.6595 23.2877 25.5958 23.33L21.7137 25.7634L25.7175 23.4516C25.7847 23.4106 25.8655 23.398 25.942 23.4165C26.0185 23.4351 26.0846 23.4832 26.1256 23.5505C26.1666 23.6177 26.1792 23.6984 26.1607 23.7749C26.1421 23.8515 26.094 23.9175 26.0267 23.9585L19.4233 28.1968L26.1027 24.3389C26.1696 24.3009 26.2486 24.2904 26.3231 24.3095C26.3976 24.3286 26.4617 24.3758 26.5021 24.4413C26.5424 24.5068 26.5557 24.5854 26.5392 24.6605C26.5227 24.7356 26.4777 24.8014 26.4137 24.844L19.3836 29.4586L26.3164 25.4571C26.3835 25.4178 26.4635 25.4064 26.5389 25.4254C26.6144 25.4444 26.6794 25.4923 26.7199 25.5588C26.7604 25.6253 26.7731 25.705 26.7554 25.7808C26.7376 25.8566 26.6908 25.9224 26.625 25.964L23.3767 28.0413L26.3306 26.3361C26.3973 26.3007 26.4749 26.292 26.5477 26.3118C26.6205 26.3316 26.6831 26.3784 26.7226 26.4426C26.7622 26.5069 26.7758 26.5838 26.7606 26.6578C26.7454 26.7317 26.7027 26.7971 26.641 26.8406L22.7618 29.3778L26.3282 27.319C26.3951 27.2827 26.4733 27.2734 26.5468 27.2932C26.6202 27.3129 26.6833 27.3601 26.723 27.425C26.7627 27.4898 26.7759 27.5675 26.76 27.6419C26.7441 27.7162 26.7002 27.7817 26.6375 27.8246L25.1216 28.8063L26.3282 28.1077C26.3943 28.0706 26.472 28.0602 26.5455 28.0786C26.619 28.0969 26.6827 28.1427 26.7236 28.2065C26.7644 28.2704 26.7793 28.3474 26.7651 28.4218C26.751 28.4963 26.7089 28.5625 26.6475 28.6069L22.6983 31.3964L26.3282 29.3013C26.3945 29.2653 26.4721 29.2559 26.5451 29.275C26.618 29.2941 26.681 29.3403 26.7212 29.4042C26.7613 29.468 26.7756 29.5448 26.7612 29.6189C26.7467 29.6929 26.7046 29.7587 26.6434 29.8028L25.4012 30.6486L26.3282 30.1144C26.3944 30.0769 26.4724 30.0662 26.5462 30.0845C26.62 30.1028 26.684 30.1488 26.7249 30.2129C26.7658 30.2771 26.7805 30.3544 26.766 30.4291C26.7515 30.5037 26.7089 30.57 26.647 30.6141L25.6196 31.3364L26.3282 30.9275C26.3937 30.8897 26.4712 30.8783 26.5448 30.8957C26.6184 30.9131 26.6826 30.9579 26.7242 31.021C26.7659 31.0841 26.7819 31.1607 26.769 31.2353C26.756 31.3098 26.7152 31.3765 26.6547 31.4219L25.6237 32.1935L26.3282 31.7875C26.3911 31.7517 26.4648 31.7401 26.5356 31.7548C26.6063 31.7695 26.6693 31.8095 26.7127 31.8674C26.756 31.9252 26.7768 31.9969 26.771 32.069C26.7653 32.141 26.7334 32.2085 26.6814 32.2587L25.4635 33.422L26.3265 32.9241C26.3877 32.8888 26.4596 32.8766 26.5291 32.8896C26.5986 32.9026 26.6611 32.94 26.7055 32.995C26.7499 33.0501 26.7731 33.1191 26.7711 33.1898C26.7691 33.2605 26.7419 33.3281 26.6944 33.3805L26.2101 33.9146C26.2474 33.9247 26.2824 33.942 26.313 33.9656C26.3435 33.9893 26.3691 34.0187 26.3882 34.0523C26.4274 34.1204 26.438 34.2012 26.4178 34.277C26.3976 34.3529 26.3481 34.4177 26.2802 34.4571L25.0635 35.1598C25.0022 35.1951 24.9303 35.2073 24.8609 35.1943C24.7914 35.1813 24.7288 35.1439 24.6844 35.0889C24.6401 35.0338 24.6168 34.9648 24.6188 34.8941C24.6208 34.8234 24.648 34.7558 24.6955 34.7034L24.9828 34.3865L23.6177 35.1729C23.5549 35.2087 23.4811 35.2203 23.4104 35.2056C23.3396 35.1909 23.2766 35.1509 23.2332 35.093C23.1899 35.0352 23.1691 34.9635 23.1749 34.8914C23.1807 34.8194 23.2125 34.7519 23.2645 34.7016L24.4818 33.539L21.6514 35.1705C21.5859 35.2083 21.5084 35.2197 21.4348 35.2023C21.3612 35.1849 21.2971 35.1401 21.2554 35.077C21.2137 35.0139 21.1977 34.9373 21.2107 34.8628C21.2236 34.7883 21.2645 34.7215 21.3249 34.6761L22.3553 33.9046L20.1593 35.1717C20.0933 35.208 20.0159 35.2178 19.943 35.1991C19.87 35.1805 19.8068 35.1348 19.7663 35.0713C19.7258 35.0078 19.7109 34.9313 19.7247 34.8573C19.7385 34.7832 19.7799 34.7172 19.8406 34.6726L20.8679 33.9503L18.7509 35.1705C18.6846 35.2065 18.6071 35.2159 18.5341 35.1968C18.4611 35.1777 18.3981 35.1315 18.358 35.0676C18.3178 35.0038 18.3035 34.927 18.318 34.8529C18.3324 34.7789 18.3745 34.7131 18.4357 34.669L19.6774 33.8238L17.3437 35.1705C17.2778 35.2065 17.2006 35.2161 17.1279 35.1974C17.0552 35.1788 16.9922 35.1333 16.9517 35.07C16.9112 35.0068 16.8962 34.9306 16.9097 34.8567C16.9232 34.7828 16.9641 34.7168 17.0244 34.672L20.9748 31.8866L15.2818 35.1705C15.215 35.2068 15.1367 35.216 15.0633 35.1963C14.9898 35.1766 14.9268 35.1294 14.8871 35.0645C14.8474 34.9996 14.8342 34.922 14.8501 34.8476C14.866 34.7732 14.9098 34.7078 14.9726 34.6648L16.4908 33.6867L13.912 35.1705C13.8453 35.2068 13.7672 35.2162 13.6939 35.1966C13.6205 35.1771 13.5574 35.1302 13.5175 35.0656C13.4777 35.0009 13.4641 34.9235 13.4797 34.8492C13.4952 34.7749 13.5386 34.7093 13.601 34.666L17.4796 32.1252L12.2057 35.1705C12.1607 35.1972 12.1095 35.2115 12.0573 35.2121Z" fill="#5FC77D"/>
<path d="M16.3604 35.2174C16.2987 35.2175 16.2386 35.1983 16.1883 35.1627C16.138 35.127 16.1001 35.0765 16.0798 35.0183C16.0595 34.9601 16.0579 34.897 16.0751 34.8378C16.0923 34.7786 16.1275 34.7262 16.1758 34.688L17.2388 33.8482L15.6666 34.755C15.601 34.7926 15.5234 34.8038 15.4499 34.7861C15.3763 34.7685 15.3123 34.7234 15.2708 34.6602C15.2294 34.5969 15.2137 34.5202 15.2269 34.4457C15.2401 34.3712 15.2813 34.3046 15.3419 34.2595L17.4643 32.6938L15.1431 34.0333C15.0771 34.0704 14.9993 34.0809 14.9258 34.0625C14.8523 34.0441 14.7886 33.9984 14.7478 33.9345C14.707 33.8707 14.6921 33.7937 14.7062 33.7192C14.7203 33.6448 14.7624 33.5786 14.8238 33.5342L17.5979 31.5821L14.6137 33.3033C14.5476 33.3404 14.4699 33.3509 14.3964 33.3325C14.3229 33.3141 14.2592 33.2683 14.2184 33.2045C14.1775 33.1407 14.1627 33.0637 14.1768 32.9892C14.1909 32.9148 14.233 32.8486 14.2944 32.8042L18.5172 29.8289L13.9881 32.4439C13.9213 32.4855 13.8407 32.4989 13.764 32.4811C13.6873 32.4633 13.6208 32.4158 13.5792 32.349C13.5376 32.2821 13.5242 32.2015 13.542 32.1248C13.5598 32.0481 13.6073 31.9817 13.6742 31.94L16.0399 30.3589L13.5276 31.8089C13.4617 31.8445 13.3849 31.854 13.3123 31.8353C13.2398 31.8167 13.177 31.7713 13.1366 31.7083C13.0961 31.6453 13.0809 31.5694 13.0941 31.4957C13.1073 31.422 13.1479 31.356 13.2077 31.3109L17.9124 27.9694L12.8581 30.8871C12.7916 30.9265 12.7125 30.9384 12.6374 30.9204C12.5623 30.9023 12.4972 30.8557 12.4559 30.7904C12.4147 30.7251 12.4005 30.6463 12.4164 30.5707C12.4323 30.4951 12.4771 30.4287 12.5412 30.3856L16.5355 27.6329L12.28 30.09C12.213 30.129 12.1335 30.1402 12.0583 30.1213C11.9832 30.1024 11.9185 30.0548 11.8779 29.9888C11.8374 29.9227 11.8243 29.8435 11.8414 29.7679C11.8586 29.6923 11.9046 29.6265 11.9696 29.5844L12.8949 28.9837L11.8954 29.56C11.8286 29.5963 11.7503 29.6056 11.6769 29.5858C11.6034 29.5661 11.5404 29.5189 11.5007 29.454C11.461 29.3892 11.4478 29.3115 11.4637 29.2371C11.4796 29.1628 11.5234 29.0973 11.5862 29.0544L12.2503 28.6229L11.5197 29.0443C11.4535 29.0829 11.375 29.0945 11.3004 29.0765C11.2259 29.0585 11.1613 29.0124 11.12 28.9478C11.0787 28.8832 11.064 28.8052 11.079 28.73C11.094 28.6548 11.1375 28.5884 11.2004 28.5445L16.2132 25.0215L10.8485 28.119C10.7813 28.1602 10.7006 28.173 10.624 28.1546C10.5474 28.1362 10.4813 28.0882 10.4401 28.0211C10.399 27.9539 10.3862 27.8732 10.4045 27.7966C10.4229 27.72 10.4709 27.6539 10.5381 27.6127L11.0158 27.3035L10.4817 27.6121C10.415 27.654 10.3344 27.6677 10.2577 27.6502C10.181 27.6326 10.1143 27.5853 10.0724 27.5187C10.0306 27.452 10.0169 27.3714 10.0344 27.2947C10.052 27.2179 10.0993 27.1513 10.1659 27.1094L12.3779 25.6073L10.0579 26.9468C9.99146 26.9862 9.91229 26.9981 9.8372 26.98C9.76211 26.962 9.69702 26.9153 9.65576 26.8501C9.6145 26.7848 9.60032 26.706 9.61623 26.6304C9.63214 26.5548 9.67689 26.4884 9.74097 26.4453L11.3666 25.3283L10.4253 25.8714C10.3593 25.9076 10.2819 25.9174 10.209 25.8988C10.136 25.8801 10.0728 25.8345 10.0323 25.771C9.99178 25.7075 9.9769 25.631 9.99069 25.5569C10.0045 25.4829 10.0459 25.4169 10.1066 25.3722L10.852 24.8434C10.7866 24.8652 10.7156 24.8635 10.6513 24.8386C10.587 24.8138 10.5334 24.7673 10.4996 24.7072C10.4658 24.6471 10.454 24.5771 10.4662 24.5093C10.4785 24.4414 10.5139 24.3799 10.5665 24.3354L11.9287 23.1745L11.569 23.3822C11.5115 23.416 11.4444 23.4295 11.3783 23.4204C11.3122 23.4114 11.2511 23.3804 11.2049 23.3324C11.1586 23.2844 11.1298 23.2222 11.1232 23.1559C11.1166 23.0896 11.1325 23.0229 11.1684 22.9667L11.9399 21.7322C11.9245 21.7154 11.9108 21.6971 11.899 21.6776C11.8794 21.6438 11.8667 21.6065 11.8616 21.5678C11.8566 21.529 11.8592 21.4897 11.8693 21.452C11.8794 21.4143 11.8969 21.3789 11.9208 21.348C11.9446 21.317 11.9743 21.2911 12.0082 21.2717L12.4136 21.0384C12.471 21.0049 12.5381 20.9916 12.6039 21.0008C12.6698 21.01 12.7307 21.041 12.7769 21.0889C12.823 21.1368 12.8517 21.1989 12.8584 21.265C12.865 21.3312 12.8493 21.3977 12.8136 21.4539L12.302 22.2747L14.4445 21.0378C14.5086 21.0008 14.5842 20.9891 14.6565 21.0049C14.7288 21.0208 14.7925 21.063 14.8352 21.1234C14.878 21.1838 14.8966 21.258 14.8874 21.3315C14.8783 21.4049 14.8421 21.4723 14.7858 21.5203L13.4207 22.6818L16.2696 21.036C16.3357 20.9985 16.4138 20.9878 16.4876 21.0061C16.5614 21.0245 16.6253 21.0705 16.6662 21.1346C16.7071 21.1987 16.7218 21.2761 16.7073 21.3507C16.6928 21.4254 16.6502 21.4916 16.5883 21.5358L15.9028 22.0177L17.6062 21.0343C17.6726 20.9949 17.7518 20.983 17.8269 21.001C17.902 21.0191 17.9671 21.0657 18.0083 21.131C18.0496 21.1963 18.0638 21.2751 18.0479 21.3507C18.0319 21.4263 17.9872 21.4927 17.9231 21.5358L16.2981 22.6563L19.106 21.036C19.1726 20.9966 19.252 20.9847 19.3272 21.003C19.4024 21.0212 19.4676 21.0681 19.5087 21.1337C19.5498 21.1993 19.5637 21.2784 19.5473 21.354C19.5309 21.4297 19.4857 21.496 19.4211 21.5387L17.2103 23.0397L20.6847 21.0343C20.7519 20.9932 20.8326 20.9804 20.9091 20.9989C20.9856 21.0173 21.0517 21.0654 21.0928 21.1325C21.1338 21.1996 21.1466 21.2803 21.1282 21.3568C21.1097 21.4334 21.0617 21.4994 20.9945 21.5405L20.5197 21.8497L21.6581 21.1927C21.7241 21.1556 21.8019 21.1452 21.8754 21.1636C21.9489 21.1819 22.0126 21.2277 22.0534 21.2915C22.0942 21.3554 22.1091 21.4324 22.095 21.5068C22.0808 21.5812 22.0388 21.6475 21.9774 21.6919L16.9664 25.2173L22.1341 22.232C22.201 22.1946 22.2798 22.1845 22.3539 22.2039C22.428 22.2233 22.4918 22.2706 22.5319 22.336C22.5719 22.4013 22.5851 22.4797 22.5687 22.5545C22.5523 22.6294 22.5076 22.695 22.4439 22.7376L21.7851 23.1638L22.4 22.8077C22.4669 22.7703 22.5456 22.7602 22.6198 22.7796C22.6939 22.799 22.7577 22.8463 22.7977 22.9117C22.8378 22.9771 22.851 23.0554 22.8346 23.1302C22.8182 23.2051 22.7735 23.2707 22.7098 23.3133L21.7792 23.9175L22.6736 23.4018C22.74 23.3624 22.8192 23.3505 22.8943 23.3685C22.9694 23.3866 23.0345 23.4332 23.0757 23.4985C23.117 23.5638 23.1312 23.6426 23.1153 23.7182C23.0993 23.7938 23.0546 23.8602 22.9905 23.9033L18.9938 26.6572L23.0849 24.2956C23.1508 24.2589 23.2283 24.2486 23.3016 24.267C23.3748 24.2854 23.4383 24.331 23.479 24.3946C23.5198 24.4581 23.5348 24.5348 23.521 24.6091C23.5072 24.6833 23.4657 24.7495 23.4048 24.7942L18.6994 28.1356L23.5609 25.3295C23.6276 25.2898 23.7073 25.2779 23.7827 25.2963C23.8582 25.3147 23.9234 25.362 23.9644 25.4279C24.0054 25.4939 24.019 25.5733 24.0021 25.6491C23.9852 25.7249 23.9393 25.791 23.8742 25.8334L21.5091 27.4157L23.8867 26.0429C23.9526 26.007 24.0297 25.9973 24.1025 26.016C24.1752 26.0346 24.2382 26.0802 24.2787 26.1434C24.3192 26.2066 24.3342 26.2829 24.3207 26.3567C24.3072 26.4306 24.2662 26.4966 24.206 26.5414L19.985 29.5185L23.0368 27.757C23.103 27.7183 23.1816 27.7067 23.2561 27.7247C23.3306 27.7427 23.3953 27.7888 23.4365 27.8534C23.4778 27.918 23.4925 27.9961 23.4775 28.0712C23.4625 28.1464 23.419 28.2129 23.3561 28.2567L20.582 30.2088L21.7495 29.5351C21.8151 29.4975 21.8926 29.4864 21.9662 29.504C22.0397 29.5217 22.1038 29.5667 22.1452 29.63C22.1867 29.6933 22.2024 29.77 22.1892 29.8445C22.176 29.9189 22.1348 29.9855 22.0741 30.0307L19.9535 31.5958L20.474 31.2949C20.5389 31.2577 20.6155 31.2464 20.6884 31.2632C20.7612 31.2801 20.8251 31.3238 20.8671 31.3857C20.9091 31.4476 20.9262 31.5231 20.9149 31.597C20.9037 31.671 20.8649 31.7379 20.8064 31.7845L19.5007 32.8166C19.5574 32.8187 19.6124 32.837 19.659 32.8694C19.7057 32.9017 19.742 32.9468 19.7638 32.9992C19.7856 33.0516 19.792 33.1092 19.782 33.1651C19.7721 33.221 19.7463 33.2729 19.7078 33.3146L18.6988 34.4001V34.4043C18.7184 34.4381 18.7311 34.4754 18.7362 34.5141C18.7413 34.5529 18.7387 34.5922 18.7285 34.6299C18.7184 34.6676 18.7009 34.703 18.677 34.7339C18.6532 34.7649 18.6235 34.7908 18.5896 34.8102L17.9599 35.1735C17.8984 35.2087 17.8263 35.2208 17.7567 35.2075C17.687 35.1942 17.6244 35.1564 17.5802 35.101C17.5361 35.0455 17.5132 34.9761 17.5158 34.9052C17.5183 34.8344 17.5462 34.7668 17.5943 34.7147L17.9273 34.3544L16.5028 35.1776C16.4596 35.2029 16.4105 35.2166 16.3604 35.2174Z" fill="#4AA361"/>
<path d="M16.8607 32.1103C16.8024 32.1109 16.7452 32.0944 16.6963 32.0627C16.6474 32.031 16.6089 31.9856 16.5856 31.9322C16.5623 31.8788 16.5553 31.8197 16.5653 31.7623C16.5754 31.7049 16.6022 31.6517 16.6423 31.6094L17.8465 30.3161L16.1971 31.2658C16.1331 31.3022 16.0578 31.3135 15.9859 31.2974C15.9139 31.2814 15.8506 31.2391 15.8081 31.1789C15.7656 31.1187 15.747 31.0449 15.7559 30.9718C15.7649 30.8986 15.8007 30.8314 15.8565 30.7832L17.6085 29.2935L15.5431 30.4865C15.4784 30.5253 15.4013 30.538 15.3275 30.522C15.2538 30.5059 15.1889 30.4624 15.1461 30.4003C15.1033 30.3381 15.0858 30.262 15.0971 30.1873C15.1085 30.1127 15.1478 30.0452 15.2072 29.9986L17.8358 27.8703L14.8902 29.5707C14.8251 29.6067 14.7488 29.6169 14.6765 29.5993C14.6042 29.5817 14.5411 29.5375 14.4998 29.4756C14.4585 29.4137 14.442 29.3386 14.4535 29.265C14.465 29.1915 14.5038 29.125 14.562 29.0787L17.5355 26.8002L14.34 28.6448C14.2742 28.6826 14.1963 28.6937 14.1225 28.6759C14.0487 28.658 13.9846 28.6125 13.9433 28.5488C13.902 28.4851 13.8867 28.408 13.9006 28.3333C13.9144 28.2586 13.9564 28.1921 14.0178 28.1475L16.6939 26.2126L13.9222 27.8109C13.8567 27.8482 13.7794 27.8591 13.7061 27.8415C13.6328 27.8238 13.5689 27.7789 13.5275 27.7159C13.4861 27.6529 13.4703 27.5765 13.4832 27.5022C13.4961 27.4279 13.5367 27.3613 13.597 27.3159L17.4305 24.4671L13.4771 26.7491C13.4112 26.7864 13.3335 26.797 13.26 26.7789C13.1865 26.7608 13.1227 26.7152 13.0817 26.6516C13.0406 26.588 13.0255 26.5111 13.0393 26.4366C13.0531 26.3622 13.0949 26.2959 13.156 26.2512L15.4778 24.5894L13.1857 25.9117C13.1202 25.9501 13.0426 25.9619 12.9687 25.9448C12.8948 25.9277 12.8302 25.883 12.7883 25.8198C12.7463 25.7566 12.7302 25.6797 12.7432 25.605C12.7562 25.5302 12.7973 25.4633 12.858 25.4179L14.7852 23.9632L12.9346 25.0315C12.8697 25.068 12.7935 25.0788 12.721 25.0617C12.6486 25.0447 12.5852 25.001 12.5434 24.9393C12.5017 24.8777 12.4846 24.8026 12.4956 24.729C12.5066 24.6554 12.5449 24.5886 12.6028 24.5419L13.7869 23.6077L12.7429 24.2095C12.6791 24.2466 12.6038 24.2586 12.5316 24.2431C12.4594 24.2276 12.3956 24.1858 12.3526 24.1258C12.3096 24.0659 12.2905 23.992 12.299 23.9187C12.3076 23.8454 12.3431 23.7779 12.3987 23.7294L13.156 23.0658L12.5933 23.3905C12.5309 23.4256 12.4579 23.4369 12.3878 23.4224C12.3177 23.4079 12.2552 23.3686 12.2118 23.3116C12.1684 23.2546 12.1471 23.1839 12.1518 23.1124C12.1564 23.041 12.1868 22.9736 12.2372 22.9228L12.4622 22.6996C12.4158 22.7181 12.3655 22.7248 12.3158 22.719C12.2662 22.7132 12.2188 22.6951 12.1779 22.6664C12.1318 22.6334 12.0962 22.5879 12.0752 22.5354C12.0541 22.4828 12.0486 22.4253 12.0592 22.3696L12.1779 21.75C12.1098 21.7272 12.0526 21.68 12.017 21.6177C11.9779 21.5495 11.9673 21.4687 11.9877 21.3928C12.008 21.3169 12.0577 21.2522 12.1257 21.2129L12.4177 21.0443C12.4669 21.016 12.5231 21.0023 12.5799 21.005C12.6366 21.0077 12.6913 21.0266 12.7376 21.0594C12.7839 21.0923 12.8198 21.1378 12.8411 21.1904C12.8623 21.2431 12.868 21.3007 12.8575 21.3565L12.7643 21.8438L14.1495 21.0449C14.2119 21.0098 14.2849 20.9985 14.3551 21.013C14.4252 21.0275 14.4877 21.0668 14.5311 21.1238C14.5745 21.1808 14.5958 21.2515 14.5911 21.323C14.5864 21.3944 14.5561 21.4618 14.5056 21.5126L14.2878 21.728L15.4748 21.0449C15.5386 21.0085 15.6135 20.997 15.6852 21.0127C15.7569 21.0283 15.8203 21.07 15.863 21.1296C15.9058 21.1892 15.925 21.2625 15.9169 21.3355C15.9088 21.4084 15.8739 21.4757 15.8191 21.5245L15.0612 22.188L17.0393 21.0449C17.1042 21.0077 17.1808 20.9964 17.2537 21.0133C17.3265 21.0301 17.3904 21.0738 17.4324 21.1357C17.4744 21.1976 17.4915 21.2731 17.4802 21.347C17.469 21.421 17.4302 21.488 17.3717 21.5346L16.1847 22.4705L18.6537 21.0461C18.7191 21.0077 18.7968 20.9959 18.8707 21.013C18.9446 21.0301 19.0091 21.0748 19.0511 21.138C19.093 21.2012 19.1091 21.2781 19.0962 21.3529C19.0832 21.4276 19.0421 21.4945 18.9813 21.5399L17.0577 22.991L20.4289 21.0443C20.4948 21.0071 20.5724 20.9964 20.6459 21.0146C20.7195 21.0327 20.7832 21.0782 20.8243 21.1419C20.8653 21.2055 20.8805 21.2824 20.8666 21.3568C20.8528 21.4313 20.8111 21.4976 20.75 21.5423L18.4264 23.2041L21.5684 21.3939C21.634 21.3557 21.7117 21.3442 21.7855 21.3615C21.8594 21.3789 21.9238 21.4239 21.9655 21.4872C22.0072 21.5506 22.0231 21.6275 22.0098 21.7022C21.9966 21.7769 21.9552 21.8437 21.8942 21.8889L18.0619 24.7377L21.4165 22.8011C21.4822 22.7645 21.5594 22.7543 21.6324 22.7724C21.7054 22.7906 21.7688 22.8358 21.8097 22.8989C21.8507 22.962 21.8661 23.0383 21.8529 23.1124C21.8398 23.1865 21.7989 23.2528 21.7387 23.2979L19.0638 25.2321L21.1874 24.0065C21.2525 23.9705 21.3288 23.9603 21.4011 23.9779C21.4734 23.9955 21.5365 24.0397 21.5778 24.1016C21.6191 24.1635 21.6356 24.2387 21.6241 24.3122C21.6126 24.3857 21.5738 24.4522 21.5156 24.4986L18.5415 26.7794L20.7856 25.4838C20.8502 25.4467 20.9264 25.4353 20.999 25.4519C21.0716 25.4684 21.1354 25.5116 21.1776 25.573C21.2199 25.6344 21.2375 25.7094 21.227 25.7831C21.2165 25.8568 21.1786 25.9239 21.1209 25.9711L18.4958 28.1018L20.144 27.1474C20.208 27.111 20.2834 27.0997 20.3553 27.1158C20.4272 27.1318 20.4906 27.174 20.533 27.2342C20.5755 27.2944 20.5941 27.3683 20.5852 27.4414C20.5762 27.5145 20.5404 27.5817 20.4847 27.6299L18.7302 29.1214L19.2608 28.8152C19.3224 28.7791 19.395 28.7664 19.4652 28.7794C19.5353 28.7924 19.5985 28.8304 19.643 28.8862C19.6875 28.942 19.7104 29.012 19.7074 29.0833C19.7045 29.1547 19.676 29.2225 19.627 29.2745L17.8061 31.2331C17.8123 31.2412 17.8178 31.2497 17.8228 31.2586C17.8619 31.3267 17.8725 31.4076 17.8521 31.4835C17.8318 31.5594 17.7821 31.6241 17.7142 31.6634L17.0073 32.0723C16.9626 32.0977 16.912 32.1108 16.8607 32.1103Z" fill="white"/>
<path d="M16.0706 24.5336C16.0123 24.5337 15.9552 24.5166 15.9065 24.4845C15.8578 24.4523 15.8197 24.4065 15.7969 24.3528C15.7741 24.2991 15.7676 24.2399 15.7783 24.1825C15.789 24.1251 15.8164 24.0722 15.857 24.0303L16.2564 23.6148L15.5115 24.0445C15.4526 24.0783 15.3839 24.0909 15.3168 24.0801C15.2497 24.0693 15.1884 24.0358 15.143 23.9853C15.0976 23.9347 15.071 23.8701 15.0675 23.8022C15.0641 23.7344 15.084 23.6674 15.124 23.6125L16.4107 21.8598C16.403 21.8499 16.3961 21.8393 16.3899 21.8284C16.3704 21.7946 16.3576 21.7573 16.3525 21.7186C16.3474 21.6799 16.3499 21.6406 16.36 21.6029C16.3701 21.5651 16.3875 21.5298 16.4113 21.4988C16.4351 21.4679 16.4647 21.4419 16.4986 21.4224L16.9556 21.1595C17.0146 21.1254 17.0835 21.1127 17.1507 21.1234C17.218 21.1342 17.2795 21.1677 17.325 21.2185C17.3705 21.2692 17.3971 21.3341 17.4004 21.4021C17.4037 21.4701 17.3835 21.5372 17.3431 21.5922L16.4386 22.8255L17.7942 22.0426C17.8561 22.0073 17.9287 21.9954 17.9987 22.0092C18.0686 22.023 18.1313 22.0616 18.1751 22.1178C18.219 22.174 18.2412 22.2441 18.2376 22.3153C18.234 22.3865 18.2049 22.4541 18.1556 22.5056L17.7562 22.921L18.3183 22.597C18.3786 22.5626 18.4491 22.5504 18.5174 22.5626C18.5858 22.5748 18.6477 22.6106 18.6924 22.6638C18.7371 22.717 18.7618 22.7841 18.762 22.8536C18.7623 22.923 18.7382 22.9904 18.6939 23.0439L18.6109 23.1436L18.7575 23.0593C18.8253 23.0238 18.9042 23.0159 18.9777 23.0373C19.0512 23.0586 19.1136 23.1075 19.1519 23.1738C19.1902 23.24 19.2015 23.3185 19.1832 23.3929C19.165 23.4672 19.1188 23.5316 19.0542 23.5727L17.463 24.4915C17.4027 24.5262 17.332 24.5387 17.2634 24.5266C17.1949 24.5145 17.1327 24.4787 17.0879 24.4255C17.043 24.3722 17.0183 24.3048 17.0181 24.2352C17.0179 24.1656 17.0422 24.0981 17.0867 24.0445L17.1704 23.9442L16.2208 24.4938C16.1752 24.5202 16.1233 24.5339 16.0706 24.5336Z" fill="#CD4C60"/>
<path d="M19.2263 23.8986C19.1678 23.8985 19.1106 23.8812 19.0619 23.8488C19.0132 23.8164 18.9751 23.7703 18.9526 23.7163C18.93 23.6623 18.9238 23.6029 18.935 23.5455C18.9461 23.488 18.9739 23.4351 19.015 23.3935L19.8554 22.5436L18.72 23.1964C18.6601 23.2311 18.59 23.2437 18.5218 23.2322C18.4535 23.2206 18.3915 23.1856 18.3464 23.1332C18.3012 23.0807 18.2759 23.0141 18.2746 22.9449C18.2734 22.8757 18.2963 22.8083 18.3396 22.7543L19.3723 21.4551L17.8826 22.3163C17.8212 22.3511 17.7495 22.363 17.6802 22.3498C17.6109 22.3365 17.5486 22.299 17.5044 22.244C17.4603 22.189 17.4372 22.1201 17.4393 22.0496C17.4413 21.979 17.4685 21.9116 17.5158 21.8592L18.2582 21.0491L17.2386 21.6379C17.1705 21.6766 17.0898 21.6868 17.0142 21.6663C16.9385 21.6457 16.8741 21.5961 16.8349 21.5283C16.7957 21.4604 16.785 21.3798 16.805 21.304C16.8251 21.2283 16.8742 21.1635 16.9418 21.1239L19.6334 19.5701C19.6948 19.5344 19.767 19.5219 19.8368 19.5349C19.9066 19.5479 19.9694 19.5855 20.0139 19.6409C20.0583 19.6963 20.0815 19.7657 20.0791 19.8367C20.0767 19.9077 20.0489 19.9754 20.0008 20.0277L19.2583 20.8372L20.4311 20.16C20.491 20.125 20.5613 20.1121 20.6297 20.1235C20.6981 20.1349 20.7604 20.1699 20.8057 20.2225C20.851 20.275 20.8764 20.3418 20.8776 20.4112C20.8788 20.4805 20.8556 20.5481 20.8121 20.6022L19.7764 21.9038L21.4685 20.9262C21.5308 20.8899 21.6042 20.8775 21.6749 20.8912C21.7457 20.905 21.809 20.9441 21.8531 21.0012C21.8971 21.0583 21.9189 21.1294 21.9143 21.2014C21.9098 21.2733 21.8791 21.3411 21.8282 21.3922L20.186 23.054C20.2236 23.122 20.2331 23.2021 20.2123 23.277C20.1916 23.3519 20.1423 23.4157 20.075 23.4546L19.3723 23.8588C19.328 23.8847 19.2776 23.8984 19.2263 23.8986Z" fill="#E1EFFF"/>
<path d="M14.2278 23.6641C14.1669 23.6641 14.1075 23.6455 14.0576 23.6107C14.0078 23.5758 13.9698 23.5265 13.9489 23.4694C13.9279 23.4122 13.9251 23.3501 13.9407 23.2913C13.9563 23.2325 13.9896 23.1799 14.036 23.1406L16.054 21.4331L13.6247 22.835C13.5626 22.8708 13.4896 22.8829 13.4192 22.869C13.3488 22.8552 13.2859 22.8163 13.2419 22.7596C13.1979 22.7028 13.176 22.632 13.1803 22.5603C13.1846 22.4886 13.2147 22.4208 13.2651 22.3696L14.7429 20.8728L12.8176 21.9844C12.755 22.0205 12.6814 22.0326 12.6106 22.0183C12.5398 22.004 12.4767 21.9644 12.433 21.9069C12.3893 21.8493 12.3681 21.7779 12.3733 21.7058C12.3786 21.6338 12.4099 21.5662 12.4615 21.5156L13.4823 20.5173C13.4385 20.4904 13.4024 20.4526 13.3776 20.4076C13.3528 20.3626 13.3401 20.3119 13.3407 20.2605C13.3414 20.2091 13.3554 20.1588 13.3813 20.1144C13.4073 20.0701 13.4443 20.0332 13.4888 20.0075L14.7791 19.2644C14.8417 19.2283 14.9153 19.2163 14.9861 19.2306C15.0569 19.2448 15.12 19.2845 15.1637 19.342C15.2074 19.3995 15.2286 19.471 15.2233 19.543C15.2181 19.615 15.1868 19.6827 15.1352 19.7333L14.5613 20.2947L16.3454 19.2644C16.4076 19.2281 16.4809 19.2156 16.5516 19.2293C16.6223 19.2431 16.6856 19.282 16.7297 19.339C16.7738 19.3959 16.7956 19.467 16.7912 19.5389C16.7868 19.6108 16.7564 19.6786 16.7057 19.7297L15.2302 21.223L18.634 19.259C18.6981 19.2225 18.7735 19.2112 18.8456 19.2273C18.9176 19.2433 18.9811 19.2857 19.0236 19.3461C19.066 19.4064 19.0845 19.4804 19.0754 19.5537C19.0662 19.6269 19.0301 19.6941 18.9741 19.7422L16.1394 22.1388C16.1682 22.1616 16.1922 22.1898 16.2101 22.2219C16.2494 22.29 16.2601 22.371 16.2397 22.447C16.2194 22.5231 16.1696 22.5879 16.1015 22.6272L14.3761 23.6231C14.3312 23.6499 14.28 23.664 14.2278 23.6641Z" fill="#E1EFFF"/>
<path d="M16.3924 21.1043C16.3339 21.1041 16.2767 21.0867 16.228 21.0542C16.1794 21.0216 16.1415 20.9754 16.119 20.9214C16.0965 20.8673 16.0906 20.8078 16.1018 20.7504C16.1131 20.693 16.1411 20.6402 16.1823 20.5986L17.5747 19.1979L15.5817 20.3487C15.5166 20.3856 15.44 20.3966 15.3672 20.3795C15.2944 20.3624 15.2308 20.3185 15.189 20.2564C15.1472 20.1944 15.1304 20.1189 15.1419 20.045C15.1534 19.9711 15.1924 19.9043 15.2511 19.8579L15.6345 19.5611L15.0077 19.9226C14.946 19.9575 14.8739 19.9691 14.8044 19.9554C14.7349 19.9418 14.6725 19.9037 14.6287 19.848C14.5848 19.7924 14.5623 19.7229 14.5652 19.6521C14.5681 19.5813 14.5962 19.5139 14.6445 19.462L15.6012 18.453L14.7905 18.9213C14.741 18.9499 14.6844 18.9635 14.6274 18.9607C14.5703 18.9578 14.5153 18.9386 14.469 18.9052C14.4226 18.8719 14.3868 18.8259 14.366 18.7728C14.3451 18.7196 14.34 18.6616 14.3513 18.6056L14.5466 17.6358C14.4925 17.6175 14.4448 17.5839 14.4093 17.5392C14.3738 17.4945 14.352 17.4405 14.3464 17.3837C14.3408 17.3268 14.3518 17.2696 14.3779 17.2189C14.404 17.1681 14.4443 17.1259 14.4937 17.0975L14.7905 16.9248C14.84 16.8962 14.8966 16.8826 14.9536 16.8854C15.0107 16.8883 15.0657 16.9075 15.112 16.9408C15.1584 16.9742 15.1942 17.0202 15.215 17.0733C15.2359 17.1265 15.241 17.1845 15.2297 17.2405L15.0629 18.0774L17.0767 16.9147C17.1384 16.8798 17.2105 16.8681 17.28 16.8818C17.3496 16.8955 17.4119 16.9336 17.4558 16.9892C17.4997 17.0449 17.5222 17.1144 17.5193 17.1852C17.5164 17.256 17.4882 17.3234 17.4399 17.3752L16.4832 18.3842L19.0418 16.9075C19.1069 16.8699 19.1838 16.8583 19.2571 16.8752C19.3303 16.892 19.3945 16.936 19.4365 16.9984C19.4786 17.0607 19.4954 17.1366 19.4836 17.2109C19.4718 17.2851 19.4323 17.3522 19.373 17.3984L18.9937 17.6951L19.2086 17.5717C19.2708 17.5379 19.343 17.5274 19.4122 17.5422C19.4814 17.557 19.5431 17.596 19.5861 17.6522C19.629 17.7084 19.6505 17.7782 19.6466 17.8488C19.6427 17.9195 19.6136 17.9865 19.5647 18.0376L18.1729 19.4377L19.2092 18.8394C19.243 18.818 19.2807 18.8035 19.3202 18.797C19.3597 18.7905 19.4001 18.7921 19.439 18.8016C19.4779 18.8111 19.5144 18.8284 19.5464 18.8524C19.5785 18.8765 19.6053 18.9067 19.6253 18.9413C19.6453 18.976 19.6582 19.0143 19.663 19.0541C19.6678 19.0938 19.6645 19.1341 19.6534 19.1725C19.6422 19.211 19.6234 19.2468 19.5981 19.2777C19.5728 19.3087 19.5414 19.3343 19.5059 19.3528L16.5384 21.0669C16.4939 21.092 16.4435 21.1049 16.3924 21.1043Z" fill="#DAAB94"/>
<path d="M16.7134 31.9745C16.6545 31.9746 16.597 31.9572 16.548 31.9245C16.4991 31.8918 16.461 31.8453 16.4385 31.7909C16.4161 31.7366 16.4103 31.6767 16.4219 31.619C16.4336 31.5614 16.4621 31.5084 16.5039 31.467L16.7953 31.178L16.3549 31.432C16.294 31.4669 16.2228 31.4792 16.1537 31.4665C16.0847 31.4539 16.0224 31.4172 15.9778 31.363C15.9333 31.3088 15.9094 31.2405 15.9104 31.1704C15.9114 31.1002 15.9373 31.0327 15.9834 30.9797L17.117 29.6817L15.5976 30.5595C15.5343 30.5974 15.4593 30.6103 15.387 30.5959C15.3148 30.5814 15.2505 30.5406 15.2066 30.4814C15.1628 30.4222 15.1426 30.3488 15.1499 30.2754C15.1572 30.2021 15.1915 30.1341 15.2462 30.0847L16.3614 29.0372L15.5649 29.4971C15.5023 29.5338 15.4284 29.5462 15.3572 29.532C15.2861 29.5178 15.2226 29.4781 15.1787 29.4203C15.1349 29.3625 15.1137 29.2906 15.1193 29.2183C15.1248 29.1459 15.1567 29.0781 15.2088 29.0277L16.4398 27.8264L15.6682 28.2739C15.6063 28.3092 15.5337 28.3211 15.4637 28.3073C15.3938 28.2935 15.3311 28.255 15.2872 28.1988C15.2434 28.1426 15.2212 28.0725 15.2248 28.0012C15.2283 27.93 15.2574 27.8625 15.3067 27.811L16.5234 26.5646L15.7721 26.9991C15.7088 27.0375 15.6335 27.0509 15.5609 27.0367C15.4882 27.0225 15.4235 26.9817 15.3795 26.9222C15.3354 26.8628 15.3151 26.789 15.3227 26.7154C15.3302 26.6417 15.3649 26.5736 15.4201 26.5242L16.1199 25.8649L15.8522 26.0186C15.8011 26.048 15.7424 26.0615 15.6836 26.0574C15.6248 26.0534 15.5686 26.0319 15.522 25.9957C15.4755 25.9596 15.4408 25.9104 15.4223 25.8544C15.4038 25.7984 15.4025 25.7382 15.4183 25.6815L15.6913 24.7146C15.6413 24.6923 15.5985 24.6567 15.5675 24.6115C15.5365 24.5664 15.5186 24.5136 15.5158 24.4589C15.5129 24.4042 15.5253 24.3498 15.5515 24.3017C15.5776 24.2536 15.6166 24.2137 15.664 24.1864L15.9792 24.0048C16.0303 23.9752 16.089 23.9616 16.1479 23.9656C16.2068 23.9696 16.2632 23.9911 16.3098 24.0273C16.3564 24.0635 16.3912 24.1128 16.4097 24.1688C16.4282 24.2248 16.4296 24.2851 16.4136 24.3419L16.1881 25.1402L18.028 24.079C18.0912 24.0405 18.1666 24.0271 18.2392 24.0413C18.3118 24.0555 18.3765 24.0964 18.4206 24.1558C18.4647 24.2153 18.4849 24.2891 18.4774 24.3627C18.4699 24.4363 18.4351 24.5045 18.3799 24.5538L17.6802 25.2132L18.1022 24.9698C18.1642 24.934 18.2372 24.9219 18.3075 24.9357C18.3778 24.9494 18.4408 24.9882 18.4848 25.0447C18.5287 25.1013 18.5508 25.1719 18.5468 25.2434C18.5428 25.315 18.513 25.3826 18.463 25.434L17.2452 26.6803L18.1989 26.1302C18.2616 26.0935 18.3354 26.0811 18.4066 26.0953C18.4778 26.1095 18.5413 26.1492 18.5851 26.207C18.629 26.2648 18.6501 26.3367 18.6446 26.409C18.639 26.4814 18.6072 26.5492 18.555 26.5996L17.3247 27.7991L18.2921 27.2412C18.3553 27.2034 18.4304 27.1904 18.5026 27.2048C18.5749 27.2193 18.6392 27.2601 18.683 27.3193C18.7269 27.3786 18.7471 27.452 18.7398 27.5253C18.7325 27.5986 18.6981 27.6666 18.6435 27.716L17.5259 28.7606L18.374 28.2704C18.4349 28.2354 18.5061 28.2232 18.5752 28.2358C18.6442 28.2484 18.7065 28.2851 18.7511 28.3393C18.7956 28.3936 18.8195 28.4618 18.8185 28.532C18.8175 28.6021 18.7916 28.6697 18.7455 28.7226L17.6102 30.0206L18.4779 29.5197C18.5402 29.4851 18.6129 29.474 18.6828 29.4886C18.7526 29.5032 18.8148 29.5424 18.858 29.5992C18.9013 29.6559 18.9226 29.7263 18.9182 29.7975C18.9138 29.8686 18.8839 29.9358 18.834 29.9868L18.1609 30.6598C18.208 30.6844 18.2477 30.7212 18.2757 30.7664C18.3037 30.8115 18.3191 30.8633 18.3203 30.9165C18.3214 30.9696 18.3083 31.022 18.2823 31.0683C18.2562 31.1147 18.2182 31.1531 18.1722 31.1797L16.8617 31.9341C16.8167 31.9604 16.7655 31.9743 16.7134 31.9745Z" fill="#A53C50"/>
<path d="M17.9977 17.9035C17.9379 17.9034 17.8794 17.8853 17.83 17.8514C17.7806 17.8175 17.7427 17.7695 17.7211 17.7136C17.6995 17.6578 17.6953 17.5967 17.7091 17.5384C17.7229 17.4801 17.754 17.4274 17.7983 17.3871L19.8631 15.5093L15.8866 17.8067C15.8208 17.8445 15.7429 17.8556 15.6691 17.8378C15.5953 17.8199 15.5312 17.7745 15.4899 17.7107C15.4486 17.647 15.4333 17.5699 15.4471 17.4952C15.461 17.4206 15.5029 17.354 15.5643 17.3094L18.6921 15.0422L14.6877 17.3569C14.621 17.3965 14.5413 17.4084 14.4659 17.39C14.3904 17.3716 14.3252 17.3244 14.2842 17.2584C14.2432 17.1925 14.2296 17.1131 14.2465 17.0373C14.2634 16.9615 14.3093 16.8953 14.3744 16.853L16.1549 15.6659L13.9892 16.9165C13.9231 16.9536 13.8454 16.964 13.7719 16.9456C13.6984 16.9273 13.6347 16.8815 13.5938 16.8177C13.553 16.7538 13.5381 16.6768 13.5523 16.6024C13.5664 16.528 13.6085 16.4617 13.6699 16.4173L18.304 13.1429L13.1315 16.1289C13.0654 16.1655 12.9879 16.1755 12.9146 16.1569C12.8414 16.1382 12.778 16.0924 12.7375 16.0286C12.6969 15.9649 12.6821 15.8881 12.6963 15.8138C12.7104 15.7396 12.7523 15.6735 12.8134 15.6291L17.0665 12.6616L12.5273 15.2819C12.4611 15.32 12.3828 15.331 12.3086 15.3127C12.2344 15.2944 12.1702 15.2482 12.1292 15.1838C12.0882 15.1193 12.0737 15.0416 12.0886 14.9667C12.1035 14.8917 12.1467 14.8255 12.2092 14.7816L16.4635 11.8081L12.0976 14.3282C12.0308 14.3645 11.9526 14.3737 11.8791 14.354C11.8057 14.3342 11.7426 14.2871 11.7029 14.2222C11.6632 14.1573 11.65 14.0796 11.6659 14.0053C11.6818 13.9309 11.7257 13.8655 11.7884 13.8225L12.0852 13.6302L11.9356 13.7169C11.9025 13.7375 11.8657 13.7514 11.8273 13.7578C11.7888 13.7641 11.7495 13.7629 11.7115 13.7541C11.6735 13.7452 11.6377 13.729 11.6059 13.7064C11.5742 13.6837 11.5473 13.655 11.5267 13.6219C11.5061 13.5888 11.4922 13.552 11.4858 13.5135C11.4794 13.4751 11.4807 13.4357 11.4895 13.3978C11.4983 13.3598 11.5145 13.3239 11.5372 13.2922C11.5599 13.2605 11.5886 13.2336 11.6217 13.213L14.1019 11.5511L11.7825 12.8901C11.7158 12.928 11.637 12.9387 11.5626 12.9197C11.4883 12.9008 11.4241 12.8538 11.3836 12.7887C11.3432 12.7235 11.3295 12.6451 11.3456 12.5701C11.3616 12.495 11.4061 12.4291 11.4697 12.3862L13.0609 11.3321L11.097 12.4657C11.0305 12.5026 10.9524 12.5125 10.8788 12.4934C10.8052 12.4744 10.7418 12.4278 10.7015 12.3633C10.6612 12.2989 10.6473 12.2214 10.6624 12.1469C10.6776 12.0724 10.7208 12.0066 10.783 11.963L13.1262 10.3902L10.4239 11.95C10.3575 11.9873 10.2792 11.9977 10.2054 11.9789C10.1315 11.9601 10.0677 11.9136 10.0271 11.8491C9.98661 11.7845 9.97249 11.7068 9.98769 11.6321C10.0029 11.5574 10.0463 11.4915 10.1088 11.4479L12.7796 9.63409L10.0773 11.1938C10.0124 11.231 9.93588 11.2423 9.863 11.2255C9.79012 11.2086 9.72629 11.1649 9.68428 11.103C9.64227 11.0411 9.62518 10.9657 9.63644 10.8917C9.64769 10.8178 9.68645 10.7508 9.74497 10.7042L12.4359 8.58477L10.44 9.74211C10.375 9.77835 10.2987 9.78884 10.2263 9.77149C10.154 9.75415 10.0907 9.71024 10.0492 9.64848C10.0077 9.58671 9.99089 9.5116 10.0021 9.43803C10.0134 9.36446 10.0519 9.2978 10.11 9.25128L11.8246 7.91588C11.7677 7.9091 11.714 7.88598 11.6699 7.84932C11.6259 7.81265 11.5934 7.76401 11.5763 7.70928C11.5593 7.65454 11.5585 7.59605 11.5741 7.54087C11.5896 7.48569 11.6207 7.43619 11.6638 7.39834L12.5113 6.64873C12.4471 6.6247 12.3933 6.57892 12.3594 6.51935C12.32 6.45126 12.3092 6.37032 12.3295 6.29431C12.3497 6.21829 12.3993 6.15343 12.4674 6.11398L14.3666 5.01955C14.4303 4.98327 14.5051 4.97182 14.5767 4.98741C14.6483 5.003 14.7116 5.04452 14.7544 5.10398C14.7972 5.16344 14.8165 5.23664 14.8086 5.30948C14.8007 5.38232 14.7661 5.44965 14.7115 5.49851L14.2687 5.89023L14.9127 5.5181C14.9778 5.48014 15.0549 5.4684 15.1284 5.48526C15.2019 5.50212 15.2662 5.54631 15.3083 5.60886C15.3504 5.67142 15.3671 5.74764 15.355 5.82205C15.3429 5.89647 15.303 5.96349 15.2433 6.00952L13.8717 7.07784L15.7228 6.00952C15.7877 5.97303 15.8639 5.96225 15.9364 5.97932C16.0088 5.9964 16.0722 6.04008 16.114 6.10171C16.1557 6.16333 16.1728 6.2384 16.1618 6.31202C16.1508 6.38564 16.1125 6.45244 16.0546 6.49917L13.3636 8.618L19.5165 5.06347C19.5831 5.02401 19.6625 5.01213 19.7378 5.03038C19.813 5.04863 19.8781 5.09556 19.9192 5.16115C19.9604 5.22674 19.9742 5.3058 19.9579 5.38147C19.9415 5.45714 19.8962 5.52342 19.8317 5.56617L17.1609 7.37816L20.4406 5.48605C20.5071 5.45012 20.5847 5.44088 20.6577 5.46021C20.7308 5.47955 20.7937 5.526 20.8336 5.5901C20.8736 5.6542 20.8876 5.73112 20.8728 5.8052C20.858 5.87927 20.8155 5.94491 20.754 5.98875L18.4108 7.56215L21.119 5.99884C21.1857 5.96026 21.2649 5.94915 21.3396 5.96787C21.4144 5.98659 21.479 6.03367 21.5196 6.09914C21.5605 6.1647 21.5741 6.24359 21.5577 6.31906C21.5413 6.39453 21.4962 6.46063 21.4318 6.50332L19.8388 7.55859L21.5861 6.54962C21.6528 6.51099 21.7318 6.49979 21.8066 6.51839C21.8813 6.537 21.9459 6.58394 21.9867 6.6493C22.0275 6.71466 22.0412 6.79332 22.0251 6.86864C22.0089 6.94396 21.9641 7.01004 21.9001 7.05291L19.421 8.71118L21.9481 7.25233C22.0152 7.21418 22.0944 7.20362 22.1691 7.22289C22.2438 7.24216 22.308 7.28974 22.3482 7.35555C22.3884 7.42137 22.4014 7.50025 22.3844 7.57548C22.3675 7.65071 22.3219 7.71639 22.2574 7.7586L21.9606 7.9509L22.1131 7.86365C22.1792 7.82705 22.2568 7.81704 22.3301 7.83567C22.4033 7.8543 22.4667 7.90016 22.5072 7.9639C22.5478 8.02765 22.5625 8.10447 22.5484 8.1787C22.5343 8.25293 22.4924 8.31899 22.4313 8.36339L18.1764 11.3375L22.7767 8.6821C22.8428 8.64457 22.9209 8.63387 22.9947 8.65221C23.0685 8.67055 23.1324 8.71652 23.1733 8.78064C23.2142 8.84476 23.2289 8.92213 23.2144 8.99679C23.1999 9.07145 23.1573 9.13769 23.0954 9.18184L18.8429 12.1494L23.6592 9.36939C23.7253 9.33228 23.803 9.32184 23.8765 9.34021C23.95 9.35858 24.0137 9.40437 24.0546 9.46819C24.0954 9.53202 24.1103 9.60904 24.0961 9.68347C24.082 9.75791 24.0399 9.82412 23.9785 9.86853L19.3367 13.1423L23.9423 10.4804C24.0089 10.4441 24.0868 10.4346 24.1601 10.4539C24.2334 10.4732 24.2966 10.5199 24.3366 10.5843C24.3766 10.6487 24.3905 10.7259 24.3753 10.8002C24.3602 10.8745 24.3172 10.9402 24.2551 10.9837L22.4782 12.1666L23.3512 11.6627C23.4171 11.6249 23.4949 11.6138 23.5687 11.6317C23.6425 11.6495 23.7067 11.695 23.748 11.7587C23.7893 11.8224 23.8045 11.8996 23.7907 11.9742C23.7768 12.0489 23.7349 12.1154 23.6735 12.1601L20.5433 14.4285L21.9541 13.6142C22.0172 13.5794 22.0909 13.5689 22.1613 13.5844C22.2316 13.6 22.2939 13.6407 22.3365 13.6988C22.3791 13.757 22.3991 13.8286 22.3927 13.9004C22.3863 13.9722 22.3541 14.0393 22.3019 14.089L20.2376 15.9657L20.8691 15.6013C20.9029 15.5798 20.9407 15.5654 20.9802 15.5589C21.0197 15.5524 21.0601 15.5539 21.0989 15.5635C21.1378 15.573 21.1744 15.5903 21.2064 15.6143C21.2384 15.6383 21.2652 15.6685 21.2853 15.7032C21.3053 15.7378 21.3181 15.7762 21.3229 15.8159C21.3278 15.8556 21.3245 15.8959 21.3134 15.9344C21.3022 15.9728 21.2834 16.0086 21.258 16.0396C21.2327 16.0706 21.2014 16.0961 21.1659 16.1146L18.1437 17.8596C18.0998 17.8868 18.0494 17.902 17.9977 17.9035Z" fill="#EABEA3"/>
<path d="M7.21371 26.0779C6.42019 37.011 7.43865 35.2993 17.193 35.2684C19.7374 35.2684 26.1995 36.7124 26.7829 33.0416C27.1046 28.6864 27.8815 21.277 21.8141 20.9517C21.8056 20.9465 21.7969 20.9418 21.788 20.9375L19.7142 19.3831C19.7487 18.7231 19.7089 18.0073 19.7231 17.3361C20.7418 16.759 21.5572 15.8811 22.0574 14.8226C22.2568 14.3982 22.458 12.8901 22.8883 12.6456C23.2995 12.5094 23.6608 12.2537 23.9259 11.9111C24.1911 11.5686 24.3481 11.1548 24.3769 10.7226C24.5638 8.40789 25.1781 3.77198 22.1269 2.88112C22.1726 2.89358 21.036 2.57724 21.1565 2.77903C20.811 2.99032 20.8431 2.92286 21.2526 2.57664C22.5934 1.44126 22.2094 0.147404 20.4051 0.212691C12.1268 -0.7577 8.56573 2.52738 9.62633 10.8365C9.67889 11.2623 9.85384 11.6636 10.13 11.9918C10.4061 12.3201 10.7715 12.5612 11.1819 12.6859C12.068 14.3009 12.2953 16.501 14.2682 17.3628C14.2842 18.0554 14.2421 18.7279 14.2682 19.4235L12.2324 20.9535C10.9045 21.0193 9.65026 21.5834 8.71998 22.5333C7.78969 23.4832 7.25182 24.7489 7.21371 26.0779ZM14.5424 19.9054C15.2409 20.4241 15.8938 20.817 16.5467 21.3452C15.9312 21.9672 15.5377 22.4729 14.8706 23.2101C14.8223 23.2174 14.776 23.2344 14.7345 23.2601C14.693 23.2858 14.6571 23.3197 14.629 23.3596C13.9987 22.8255 13.3387 21.8462 12.7156 21.2752L14.5424 19.9054ZM19.3896 19.8911L21.2835 21.3108C20.7333 21.8396 19.859 22.9436 19.3783 23.4018C19.3658 23.3594 19.3423 23.3212 19.3102 23.2909C19.2781 23.2607 19.2385 23.2395 19.1955 23.2296C18.6298 22.5714 18.0467 21.9282 17.447 21.3007C18.0756 20.7933 18.7343 20.3968 19.3896 19.8911ZM18.9664 29.506L18.5438 24.3692C18.7384 24.2112 18.9147 24.032 19.0697 23.835C20.138 24.1644 20.703 22.6136 21.4396 22.0735C21.1031 24.8386 20.6104 26.4459 18.9664 29.5048V29.506ZM14.2682 27.9433C13.3446 26.1242 12.7663 24.1497 12.5624 22.1198C13.2859 22.645 13.8628 24.2339 14.9204 23.8321C15.0752 24.0264 15.2508 24.2034 15.4439 24.3597L15.0285 29.3944C14.7222 28.8555 14.4605 28.3142 14.2682 27.9433ZM16.9787 21.7215C17.5224 22.302 18.0275 22.826 18.5545 23.4427C18.3913 23.6154 18.2103 23.7691 18.05 23.9448C17.2684 23.9614 16.6992 23.9602 15.9662 23.9579C15.7882 23.7739 15.6018 23.6053 15.4243 23.4237C15.9401 22.8071 16.4434 22.2972 16.9787 21.7215ZM18.1658 23.9804C18.1323 23.9588 18.0939 23.9457 18.0542 23.9424C18.0747 23.9383 18.0959 23.9396 18.1157 23.9463C18.1355 23.953 18.1532 23.9647 18.167 23.9804H18.1658ZM18.0293 23.9674C17.8512 24.2261 17.9195 23.9727 18.0512 23.943C18.0429 23.9531 18.0334 23.9585 18.0275 23.9674H18.0293ZM15.6807 30.2052L16.1449 24.5561C16.718 24.5186 17.2929 24.5186 17.866 24.5561C18.0583 26.4856 18.1213 28.4555 18.3794 30.366C17.4245 31.6444 16.441 31.4972 15.6368 30.3257C15.6625 30.2906 15.6772 30.2486 15.679 30.2052H15.6807ZM7.7906 33.0416C7.38939 31.7697 7.7906 29.7114 7.7906 28.3766C7.7906 25.3497 8.10398 22.2248 11.7428 21.68C10.8383 23.397 9.08802 25.812 9.97947 27.4964C11.3261 30.0414 13.4628 32.3875 15.2136 34.7236C12.5149 34.9491 8.47492 35.2114 7.7906 33.0416ZM17.1004 34.5977C16.8274 34.5977 16.4624 34.6221 16.0446 34.6571L11.0318 27.7498C9.42335 26.0542 11.5018 24.1887 12.0407 22.4118C12.2962 25.2176 13.3126 27.9006 14.9804 30.1713C14.9861 30.2165 15.0035 30.2595 15.0307 30.296C15.058 30.3325 15.0942 30.3613 15.1359 30.3797C17.1081 32.8398 16.8897 32.7858 18.8525 30.3654C18.8904 30.3431 18.9235 30.3135 18.9498 30.2782C18.9761 30.2429 18.995 30.2028 19.0056 30.1601C20.6758 27.878 21.695 25.1852 21.9541 22.369L23.3139 25.3224C23.886 26.5652 23.7839 26.6655 23.0011 27.7445L17.9972 34.6363C17.6988 34.6138 17.3997 34.6009 17.1004 34.5977ZM26.2061 27.6727C27.0601 34.3336 25.8517 35.31 18.7789 34.6957C20.538 32.381 22.8432 29.9743 24.0516 27.4097C24.8232 25.7734 23.1732 23.3857 22.2598 21.6996C25.3324 22.2319 26.2061 24.7894 26.2061 27.6727ZM15.9894 0.806202C17.0773 0.730232 19.1908 0.441786 20.1974 0.806202C20.8852 1.05488 20.5036 0.331393 20.9262 1.36826C21.4396 2.62887 20.5339 1.67451 20.487 2.53154H18.7195C18.3747 2.53154 18.4821 3.23425 18.8382 3.23425C19.4489 3.21942 20.0733 3.26334 20.6781 3.21764C23.8308 3.6687 23.8985 6.53002 23.8237 9.11773C23.5566 8.68743 22.7667 8.66369 22.5666 8.21975C22.478 7.55487 22.2194 6.92408 21.8158 6.38833C21.4122 5.85259 20.8773 5.43 20.2626 5.16138C18.697 4.53404 18.25 6.44455 16.4048 6.03325C14.9982 5.72047 15.0012 4.5287 13.6112 5.23557C13.0355 5.52744 12.5378 5.95263 12.1596 6.47573C11.7815 6.99883 11.5338 7.6047 11.4371 8.24289C11.2051 8.70702 10.4982 8.64885 10.2103 9.11832C10.2418 5.1139 10.6786 1.17596 15.9894 0.806202ZM11.617 12.2254C11.1125 11.7577 10.224 11.4799 10.1462 10.7006C10.2596 10.535 10.1872 10.3184 10.2056 10.1285C10.4709 9.24652 11.6609 9.35691 11.9232 8.49573C12.1048 7.46539 12.7013 6.23623 13.7981 5.88013C14.4943 5.65519 14.3875 5.83324 14.9187 6.07005C15.7757 6.45227 16.3004 6.87544 17.3443 6.76505C18.2536 6.6689 18.7213 5.90565 19.4673 5.74421C20.8965 5.45933 21.874 7.57341 22.1168 8.65242C22.3257 9.14622 22.7631 9.1474 23.21 9.45781C23.4141 9.5968 23.5769 9.78823 23.6814 10.012C23.7858 10.2357 23.828 10.4834 23.8035 10.7291C23.7644 11.0264 23.6384 11.3055 23.4414 11.5315C23.2444 11.7575 22.9852 11.9204 22.696 11.9998C22.2367 12.2627 22.274 12.3363 22.055 12.7969C21.309 17.1479 16.5912 18.9237 13.3304 15.806C12.3043 14.7406 12.3689 13.3459 11.617 12.2254ZM16.9888 18.0726C17.6852 18.0707 18.3749 17.9369 19.0216 17.6785C18.9879 18.2477 18.9991 18.8186 19.0548 19.3861C18.4152 19.9353 17.7412 20.4432 17.0369 20.9066C16.3514 20.3909 15.6807 19.8454 14.9715 19.3671C14.9822 18.808 14.9715 18.2477 14.9745 17.688C15.6161 17.9405 16.2993 18.071 16.9888 18.0726Z" fill="#262626"/>
</svg>
