<svg width="44" height="64" viewBox="0 0 44 64" fill="none" xmlns="http://www.w3.org/2000/svg">
<path d="M6.02493 41.121C6.11593 41.225 6.16793 41.316 6.19393 41.42C6.21993 41.641 6.14193 41.81 5.93393 41.901C5.82993 41.94 5.69993 41.966 5.55693 41.966C5.51793 41.966 5.47893 41.966 5.43993 41.966C5.40093 41.966 5.36193 41.966 5.32293 41.953C5.27093 41.953 5.23193 41.953 5.19293 41.94C5.03693 41.94 4.86793 41.953 4.71193 41.979C4.54293 42.005 4.37393 42.018 4.21793 42.005C4.24393 42.122 4.26993 42.226 4.28293 42.343C4.29593 42.46 4.30893 42.577 4.32193 42.681C4.37393 43.136 4.39993 43.591 4.38693 44.046C4.38693 44.501 4.38693 44.93 4.37393 45.333C4.36093 45.463 4.36093 45.606 4.37393 45.788C4.38693 45.97 4.38693 46.165 4.39993 46.386C4.42593 46.646 4.45193 46.919 4.47793 47.218C4.50393 47.517 4.51693 47.816 4.52993 48.102C4.54293 48.401 4.54293 48.687 4.54293 48.947C4.52993 49.22 4.49093 49.467 4.43893 49.662C4.39993 49.779 4.36093 49.857 4.30893 49.922C4.25693 49.987 4.16593 50.026 4.06193 50.026C3.97093 50.026 3.89293 50.026 3.80193 50.026C3.72393 50.026 3.65893 49.987 3.60693 49.922C3.59393 49.909 3.58093 49.831 3.56793 49.701C3.55493 49.571 3.52893 49.415 3.52893 49.22C3.51593 49.025 3.50293 48.817 3.48993 48.583C3.47693 48.349 3.46393 48.115 3.45093 47.881C3.45093 47.647 3.43793 47.426 3.43793 47.218C3.42493 47.01 3.42493 46.828 3.42493 46.685C3.42493 46.49 3.41193 46.334 3.39893 46.178C3.37293 46.035 3.37293 45.905 3.37293 45.801C3.39893 45.372 3.41193 44.956 3.42493 44.566C3.42493 44.176 3.42493 43.786 3.39893 43.409V43.37C3.38593 43.214 3.38593 43.058 3.37293 42.902C3.35993 42.733 3.33393 42.577 3.30793 42.421L3.29493 42.343C3.28193 42.291 3.26893 42.239 3.26893 42.2C3.25593 42.148 3.24293 42.109 3.21693 42.07C3.20393 42.044 3.19093 42.018 3.16493 42.005V41.992C3.13893 41.992 3.11293 41.966 3.09993 41.94C3.02193 41.94 2.93093 41.94 2.83993 41.927C2.74893 41.927 2.65793 41.927 2.55393 41.927C2.31993 41.927 2.12493 41.94 1.95593 41.966C1.78693 41.992 1.63093 42.031 1.50093 42.083C1.35793 42.135 1.22793 42.122 1.12393 42.044C1.00693 41.979 0.92893 41.862 0.90293 41.706C0.88993 41.589 0.90293 41.485 0.94193 41.368C0.99393 41.251 1.08493 41.16 1.22793 41.108C1.53993 40.991 1.95593 40.939 2.46293 40.939C2.59293 40.939 2.72293 40.939 2.85293 40.926C2.98293 40.926 3.09993 40.926 3.21693 40.939C3.29493 40.939 3.37293 40.939 3.43793 40.939C3.51593 40.939 3.58093 40.952 3.64593 40.952C3.90593 40.965 4.15293 40.952 4.38693 40.939C4.62093 40.926 4.84193 40.926 5.02393 40.939H5.12793C5.19293 40.939 5.25793 40.952 5.30993 40.952C5.36193 40.952 5.42693 40.952 5.49193 40.952H5.50493C5.53093 40.952 5.55693 40.952 5.58293 40.952C5.60893 40.952 5.62193 40.952 5.63493 40.952L5.66093 40.939C5.67393 40.939 5.69993 40.952 5.72593 40.978C5.84293 40.991 5.94693 41.03 6.02493 41.121ZM11.7425 47.361C11.8985 48.037 12.1065 48.739 12.3405 49.467C12.3795 49.597 12.3535 49.714 12.2755 49.805C12.1975 49.883 12.0935 49.948 11.9765 49.974C11.8465 50.013 11.7295 50 11.5995 49.961C11.4825 49.922 11.3915 49.831 11.3525 49.701C11.3005 49.532 11.2485 49.363 11.1965 49.233C11.1445 49.09 11.1055 48.947 11.0535 48.804C11.0145 48.674 10.9755 48.531 10.9235 48.388C10.8845 48.245 10.8455 48.076 10.8065 47.907C10.4945 47.946 10.1825 47.972 9.85749 47.985C9.54549 47.998 9.23349 48.024 8.92149 48.076H8.88249C8.84349 48.206 8.80449 48.323 8.75249 48.44C8.71349 48.544 8.67449 48.648 8.63549 48.739C8.59649 48.843 8.57049 48.947 8.54449 49.051C8.53149 49.155 8.51849 49.285 8.51849 49.415C8.51849 49.558 8.46649 49.675 8.36249 49.766C8.25849 49.857 8.14149 49.922 8.01149 49.948C7.89449 49.974 7.76449 49.974 7.66049 49.935C7.55649 49.883 7.50449 49.805 7.50449 49.662C7.50449 49.493 7.51749 49.324 7.54349 49.155C7.58249 48.986 7.62149 48.817 7.67349 48.661C7.72549 48.492 7.76449 48.336 7.81649 48.167C7.86849 48.011 7.92049 47.842 7.94649 47.673C8.03749 47.296 8.11549 46.919 8.19349 46.529C8.27149 46.152 8.36249 45.775 8.45349 45.398C8.53149 45.034 8.63549 44.683 8.73949 44.358C8.84349 44.02 8.93449 43.695 9.02549 43.37C9.10349 43.045 9.18149 42.72 9.24649 42.382C9.29849 42.044 9.33749 41.693 9.35049 41.316C9.35049 41.199 9.38949 41.108 9.48049 41.043C9.58449 40.965 9.68849 40.926 9.79249 40.9C9.90949 40.887 10.0265 40.913 10.1305 40.952C10.2475 41.004 10.3125 41.095 10.3385 41.212C10.5465 41.94 10.7155 42.655 10.8585 43.331C11.0145 44.007 11.1445 44.683 11.2875 45.346C11.4305 46.009 11.5735 46.685 11.7425 47.361ZM9.49349 45.398C9.35049 45.996 9.20749 46.594 9.07749 47.205C9.33749 47.179 9.59749 47.153 9.84449 47.127C10.1045 47.114 10.3645 47.088 10.6245 47.075C10.5075 46.49 10.3905 45.918 10.2865 45.333C10.1825 44.761 10.0655 44.176 9.94849 43.591C9.87049 43.89 9.79249 44.202 9.71449 44.501C9.63649 44.8 9.55849 45.099 9.49349 45.398ZM17.3797 46.035C17.3927 46.243 17.4057 46.451 17.4057 46.646C17.4187 46.867 17.4187 47.088 17.4187 47.309C17.4187 47.543 17.4187 47.764 17.4317 47.985C17.4447 48.089 17.4577 48.206 17.4707 48.31C17.4837 48.427 17.4967 48.544 17.5097 48.661C17.5097 48.765 17.5097 48.882 17.4967 48.986C17.4837 49.103 17.4577 49.207 17.3927 49.311C17.2757 49.558 17.0807 49.727 16.8207 49.831C16.5607 49.922 16.2747 49.987 15.9497 50C15.6377 50.013 15.3257 50 15.0007 49.974C14.6757 49.948 14.3897 49.935 14.1427 49.935C14.0647 49.935 14.0127 49.922 13.9737 49.896C13.9347 49.857 13.8957 49.818 13.8697 49.779C13.8437 49.727 13.8307 49.675 13.8177 49.623C13.8177 49.558 13.8047 49.519 13.8047 49.48C13.8047 48.128 13.8047 46.802 13.7917 45.502C13.7787 44.202 13.7397 42.876 13.6617 41.524C13.6617 41.498 13.6617 41.459 13.6617 41.394C13.6617 41.329 13.6747 41.264 13.7007 41.199C13.7397 41.121 13.7917 41.056 13.8567 41.004C13.9347 40.952 14.0387 40.926 14.1687 40.926C14.6887 40.913 15.1957 40.9 15.7027 40.913C16.1967 40.913 16.7037 40.952 17.2107 41.017C17.3537 41.043 17.4577 41.108 17.5097 41.199C17.5617 41.303 17.5617 41.394 17.5357 41.498C17.4967 41.602 17.4317 41.693 17.3277 41.771C17.2367 41.836 17.1067 41.862 16.9637 41.836C16.5737 41.784 16.1837 41.745 15.7937 41.745C15.3907 41.745 15.0007 41.758 14.5977 41.758C14.6237 42.109 14.6367 42.434 14.6497 42.733C14.6627 43.032 14.6757 43.357 14.6887 43.708C14.8837 43.682 15.0787 43.656 15.2737 43.656C15.4687 43.656 15.6637 43.669 15.8457 43.708C16.0407 43.747 16.2097 43.812 16.3787 43.903C16.5347 43.994 16.6777 44.124 16.8077 44.28C16.9377 44.449 17.0417 44.631 17.1327 44.826C17.2107 45.021 17.2627 45.216 17.3017 45.411C17.3407 45.619 17.3667 45.827 17.3797 46.035ZM15.4817 49.168C15.7287 49.194 15.9757 49.168 16.1837 49.103C16.3007 49.064 16.3787 49.025 16.4437 48.973C16.4957 48.934 16.5347 48.882 16.5477 48.817C16.5737 48.765 16.5737 48.687 16.5737 48.609C16.5607 48.544 16.5607 48.453 16.5477 48.362C16.5087 48.063 16.4827 47.777 16.4827 47.478C16.4827 47.179 16.4827 46.893 16.4697 46.607C16.4697 46.464 16.4567 46.334 16.4567 46.178C16.4567 46.035 16.4437 45.892 16.4307 45.749C16.4177 45.606 16.3917 45.463 16.3527 45.32C16.3137 45.177 16.2617 45.047 16.1967 44.93C16.1057 44.787 16.0147 44.683 15.9107 44.618C15.7937 44.54 15.6767 44.488 15.5597 44.462C15.4297 44.436 15.2867 44.436 15.1437 44.449C15.0137 44.462 14.8577 44.488 14.7147 44.527C14.7277 45.294 14.7407 46.048 14.7407 46.815C14.7407 47.569 14.7407 48.323 14.7407 49.09C14.9747 49.129 15.2217 49.155 15.4817 49.168ZM23.0658 48.453C23.1568 48.791 23.2478 49.129 23.3518 49.454C23.4038 49.597 23.3908 49.701 23.3258 49.792C23.2608 49.883 23.1698 49.948 23.0528 49.974C22.9488 50.013 22.8318 50 22.7148 49.961C22.6108 49.922 22.5198 49.831 22.4808 49.701C22.3508 49.35 22.2468 48.999 22.1688 48.622C22.0778 48.258 21.9998 47.881 21.9218 47.504C21.8438 47.127 21.7658 46.75 21.6878 46.386C21.6098 46.009 21.5188 45.658 21.4148 45.307C21.3108 44.969 21.2068 44.657 21.1158 44.332C21.0118 44.007 20.9078 43.682 20.8038 43.357C20.6088 44.358 20.4138 45.385 20.2058 46.425C19.9978 47.478 19.8548 48.505 19.7768 49.532C19.7638 49.675 19.6988 49.779 19.6078 49.844C19.5038 49.922 19.3998 49.948 19.2828 49.948C19.1658 49.948 19.0748 49.922 18.9838 49.844C18.8928 49.779 18.8538 49.675 18.8668 49.532C18.9188 48.856 18.9968 48.167 19.1138 47.491C19.2308 46.802 19.3478 46.113 19.4778 45.424C19.6208 44.735 19.7508 44.046 19.8808 43.37C20.0238 42.681 20.1408 42.005 20.2318 41.329C20.2448 41.212 20.2968 41.121 20.3748 41.043C20.4528 40.978 20.5438 40.926 20.6478 40.913C20.7518 40.887 20.8428 40.9 20.9338 40.952C21.0248 41.004 21.0898 41.095 21.1288 41.212C21.2978 41.914 21.5058 42.603 21.7398 43.279C21.9738 43.942 22.1818 44.631 22.3768 45.333C22.4678 45.658 22.5458 45.996 22.6238 46.347C22.6888 46.698 22.7668 47.049 22.8318 47.4C22.9098 47.751 22.9878 48.102 23.0658 48.453ZM24.7069 48.505C24.6939 48.284 24.6809 48.063 24.6939 47.842C24.6939 47.608 24.7069 47.387 24.7069 47.166C24.7329 46.893 24.7329 46.633 24.7329 46.386C24.7329 46.113 24.7459 45.853 24.7329 45.58C24.7329 45.294 24.7459 45.008 24.7589 44.722C24.7719 44.163 24.7589 43.591 24.7589 43.032C24.7719 42.46 24.7979 41.914 24.7329 41.381C24.7199 41.277 24.7459 41.186 24.8239 41.121C24.9149 41.03 25.0319 40.991 25.1879 41.004C25.3699 41.03 25.4869 41.121 25.5129 41.277C25.5649 41.823 25.5389 42.382 25.5129 42.954C25.5259 43.513 25.5519 44.098 25.5649 44.683V44.696C25.5519 44.904 25.5389 45.125 25.5389 45.333C25.5389 45.554 25.5389 45.762 25.5389 45.957C25.5389 46.269 25.5259 46.581 25.5129 46.893C25.5129 47.114 25.5129 47.335 25.5129 47.556C25.5909 47.27 25.6819 47.01 25.7469 46.815C25.9809 46.178 26.2279 45.541 26.4749 44.891C26.7219 44.254 26.9819 43.617 27.2419 42.98C27.4889 42.343 27.7359 41.706 27.9829 41.069C28.0349 40.926 28.1129 40.848 28.2299 40.809C28.2949 40.783 28.3469 40.783 28.4119 40.783C28.4379 40.783 28.4769 40.783 28.5029 40.783C28.5939 40.783 28.6719 40.822 28.7499 40.874C28.8149 40.926 28.8669 40.991 28.9059 41.069C29.0359 41.368 29.1009 41.68 29.1399 41.992C29.1659 42.317 29.1789 42.629 29.1789 42.941C29.1789 43.11 29.1919 43.279 29.1919 43.448C29.2049 43.604 29.2179 43.773 29.2179 43.929C29.2309 44.124 29.2439 44.319 29.2439 44.527C29.2569 44.722 29.2569 44.93 29.2569 45.125C29.2569 45.32 29.2439 45.515 29.2439 45.71C29.2309 45.918 29.2309 46.113 29.2179 46.308C29.2179 46.477 29.2049 46.672 29.1919 46.854C29.1919 47.049 29.1919 47.231 29.1919 47.426C29.1919 47.699 29.1919 47.985 29.2049 48.271C29.2309 48.544 29.2439 48.83 29.2569 49.116C29.2569 49.194 29.2699 49.272 29.2699 49.35C29.2829 49.428 29.2829 49.519 29.2959 49.597C29.2959 49.688 29.2569 49.766 29.2049 49.818C29.1269 49.883 29.0359 49.909 28.9059 49.896C28.8019 49.883 28.7109 49.844 28.6199 49.779C28.5939 49.753 28.5679 49.727 28.5419 49.688C28.5159 49.649 28.4899 49.597 28.4899 49.532C28.4769 49.441 28.4769 49.363 28.4769 49.272C28.4639 49.194 28.4639 49.116 28.4509 49.025V48.973C28.4379 48.7 28.4119 48.427 28.3989 48.167C28.3859 47.894 28.3859 47.621 28.3859 47.348C28.3859 47.192 28.3859 47.036 28.3989 46.893C28.4119 46.737 28.4119 46.581 28.4119 46.438C28.4249 46.243 28.4249 46.048 28.4379 45.84C28.4509 45.645 28.4509 45.437 28.4509 45.242C28.4509 45.034 28.4509 44.826 28.4379 44.631C28.4379 44.423 28.4249 44.228 28.4119 44.02C28.4119 43.877 28.4119 43.721 28.3989 43.552C28.3859 43.383 28.3859 43.227 28.3859 43.058L28.3729 42.577C28.2819 42.811 28.1909 43.058 28.0869 43.305C27.8399 43.942 27.5799 44.579 27.3329 45.216C27.0859 45.853 26.8389 46.503 26.6049 47.14C26.3709 47.777 26.0069 49.064 25.7989 49.714C25.7599 49.857 25.6819 49.948 25.5779 49.987C25.4999 50 25.4349 50.013 25.3699 50C25.3439 50 25.3179 50 25.3049 50C25.1489 49.987 25.0579 49.922 25.0059 49.805C24.9929 49.792 24.9929 49.779 24.9799 49.753C24.9539 49.714 24.9409 49.675 24.9279 49.623C24.8759 49.467 24.8369 49.324 24.7979 49.168C24.7459 48.947 24.7199 48.726 24.7069 48.505ZM36.8633 49.246C36.9283 49.337 36.9543 49.428 36.9283 49.532C36.9023 49.649 36.8373 49.74 36.7203 49.844C36.6033 49.935 36.4733 49.987 36.2913 49.987C36.0053 50 35.7193 50.013 35.4333 50.013C35.3943 50.013 35.3553 50.026 35.3033 50.026C34.9913 50.013 34.6663 50.013 34.3413 50.026C34.3413 50.026 34.3413 50.013 34.3283 50.013C34.0163 50.039 33.7173 50.026 33.4053 49.987C33.0023 49.922 32.6253 49.805 32.2873 49.623C31.9493 49.441 31.6633 49.194 31.4293 48.895C31.1823 48.583 31.0263 48.219 30.9613 47.79C30.8703 47.296 30.8183 46.802 30.7923 46.295C30.7793 45.801 30.7403 45.307 30.7143 44.813C30.6753 44.254 30.6493 43.695 30.6233 43.136C30.5973 42.59 30.5973 42.031 30.5973 41.472C30.5973 41.329 30.6363 41.212 30.7273 41.147C30.8183 41.082 30.9223 41.043 31.0393 41.043C31.1433 41.043 31.2473 41.069 31.3383 41.147C31.4293 41.212 31.4813 41.329 31.4813 41.472C31.4813 42.356 31.5073 43.24 31.5593 44.111C31.6113 44.982 31.6633 45.866 31.7283 46.75C31.7413 46.971 31.7543 47.192 31.7933 47.413C31.8193 47.634 31.8843 47.855 31.9623 48.05C32.0403 48.258 32.1443 48.427 32.2873 48.596C32.4303 48.752 32.6123 48.869 32.8593 48.934C32.9763 48.973 33.1193 49.012 33.3013 49.064C33.4703 49.103 33.6523 49.142 33.8343 49.155C34.0163 49.181 34.1983 49.181 34.3673 49.155C34.5363 49.142 34.6793 49.09 34.7963 49.012C34.9913 48.882 35.1213 48.7 35.1863 48.453C35.2513 48.206 35.2773 47.933 35.2773 47.66C35.2773 47.374 35.2643 47.088 35.2383 46.815C35.2123 46.542 35.1863 46.308 35.1863 46.113C35.1733 45.723 35.1733 45.32 35.1733 44.93C35.1733 44.54 35.1863 44.137 35.1863 43.734C35.1863 43.344 35.1733 42.941 35.1733 42.551C35.1603 42.148 35.1343 41.758 35.0953 41.355C35.0823 41.212 35.1213 41.108 35.2123 41.03C35.3033 40.965 35.4073 40.926 35.5113 40.926C35.6153 40.926 35.7323 40.965 35.8233 41.043C35.9273 41.108 35.9793 41.225 35.9923 41.355C36.0443 41.849 36.0703 42.33 36.0833 42.811C36.0963 43.305 36.1093 43.786 36.1093 44.267C36.1093 44.761 36.1093 45.242 36.1093 45.736C36.1093 46.217 36.1093 46.698 36.1223 47.179C36.1353 47.465 36.1223 47.764 36.0963 48.076C36.0703 48.388 36.0053 48.674 35.9013 48.947C35.8753 49.012 35.8493 49.077 35.8103 49.142C36.0443 49.129 36.2653 49.129 36.4993 49.116C36.6813 49.116 36.7983 49.155 36.8633 49.246ZM42.4778 47.361C42.6338 48.037 42.8418 48.739 43.0758 49.467C43.1148 49.597 43.0888 49.714 43.0108 49.805C42.9328 49.883 42.8288 49.948 42.7118 49.974C42.5818 50.013 42.4648 50 42.3348 49.961C42.2178 49.922 42.1268 49.831 42.0878 49.701C42.0358 49.532 41.9838 49.363 41.9318 49.233C41.8798 49.09 41.8408 48.947 41.7888 48.804C41.7498 48.674 41.7108 48.531 41.6588 48.388C41.6198 48.245 41.5808 48.076 41.5418 47.907C41.2298 47.946 40.9178 47.972 40.5928 47.985C40.2808 47.998 39.9688 48.024 39.6568 48.076H39.6178C39.5788 48.206 39.5398 48.323 39.4878 48.44C39.4488 48.544 39.4098 48.648 39.3708 48.739C39.3318 48.843 39.3058 48.947 39.2798 49.051C39.2668 49.155 39.2538 49.285 39.2538 49.415C39.2538 49.558 39.2018 49.675 39.0978 49.766C38.9938 49.857 38.8768 49.922 38.7468 49.948C38.6298 49.974 38.4998 49.974 38.3958 49.935C38.2918 49.883 38.2398 49.805 38.2398 49.662C38.2398 49.493 38.2528 49.324 38.2788 49.155C38.3178 48.986 38.3568 48.817 38.4088 48.661C38.4608 48.492 38.4998 48.336 38.5518 48.167C38.6038 48.011 38.6558 47.842 38.6818 47.673C38.7728 47.296 38.8508 46.919 38.9288 46.529C39.0068 46.152 39.0978 45.775 39.1888 45.398C39.2668 45.034 39.3708 44.683 39.4748 44.358C39.5788 44.02 39.6698 43.695 39.7608 43.37C39.8388 43.045 39.9168 42.72 39.9818 42.382C40.0338 42.044 40.0728 41.693 40.0858 41.316C40.0858 41.199 40.1248 41.108 40.2158 41.043C40.3198 40.965 40.4238 40.926 40.5278 40.9C40.6448 40.887 40.7618 40.913 40.8658 40.952C40.9828 41.004 41.0478 41.095 41.0738 41.212C41.2818 41.94 41.4508 42.655 41.5938 43.331C41.7498 44.007 41.8798 44.683 42.0228 45.346C42.1658 46.009 42.3088 46.685 42.4778 47.361ZM40.2288 45.398C40.0858 45.996 39.9428 46.594 39.8128 47.205C40.0728 47.179 40.3328 47.153 40.5798 47.127C40.8398 47.114 41.0998 47.088 41.3598 47.075C41.2428 46.49 41.1258 45.918 41.0218 45.333C40.9178 44.761 40.8008 44.176 40.6838 43.591C40.6058 43.89 40.5278 44.202 40.4498 44.501C40.3718 44.8 40.2938 45.099 40.2288 45.398ZM6.06677 61.453C6.15777 61.791 6.24877 62.129 6.35277 62.454C6.40477 62.597 6.39177 62.701 6.32677 62.792C6.26177 62.883 6.17077 62.948 6.05377 62.974C5.94977 63.013 5.83277 63 5.71577 62.961C5.61177 62.922 5.52077 62.831 5.48177 62.701C5.35177 62.35 5.24777 61.999 5.16977 61.622C5.07877 61.258 5.00077 60.881 4.92277 60.504C4.84477 60.127 4.76677 59.75 4.68877 59.386C4.61077 59.009 4.51977 58.658 4.41577 58.307C4.31177 57.969 4.20777 57.657 4.11677 57.332C4.01277 57.007 3.90877 56.682 3.80477 56.357C3.60977 57.358 3.41477 58.385 3.20677 59.425C2.99877 60.478 2.85577 61.505 2.77777 62.532C2.76477 62.675 2.69977 62.779 2.60877 62.844C2.50477 62.922 2.40077 62.948 2.28377 62.948C2.16677 62.948 2.07577 62.922 1.98477 62.844C1.89377 62.779 1.85477 62.675 1.86777 62.532C1.91977 61.856 1.99777 61.167 2.11477 60.491C2.23177 59.802 2.34877 59.113 2.47877 58.424C2.62177 57.735 2.75177 57.046 2.88177 56.37C3.02477 55.681 3.14177 55.005 3.23277 54.329C3.24577 54.212 3.29777 54.121 3.37577 54.043C3.45377 53.978 3.54477 53.926 3.64877 53.913C3.75277 53.887 3.84377 53.9 3.93477 53.952C4.02577 54.004 4.09077 54.095 4.12977 54.212C4.29877 54.914 4.50677 55.603 4.74077 56.279C4.97477 56.942 5.18277 57.631 5.37777 58.333C5.46877 58.658 5.54677 58.996 5.62477 59.347C5.68977 59.698 5.76777 60.049 5.83277 60.4C5.91077 60.751 5.98877 61.102 6.06677 61.453ZM7.70792 61.505C7.69492 61.284 7.68192 61.063 7.69492 60.842C7.69492 60.608 7.70792 60.387 7.70792 60.166C7.73392 59.893 7.73392 59.633 7.73392 59.386C7.73392 59.113 7.74692 58.853 7.73392 58.58C7.73392 58.294 7.74692 58.008 7.75992 57.722C7.77292 57.163 7.75992 56.591 7.75992 56.032C7.77292 55.46 7.79892 54.914 7.73392 54.381C7.72092 54.277 7.74692 54.186 7.82492 54.121C7.91592 54.03 8.03292 53.991 8.18892 54.004C8.37092 54.03 8.48792 54.121 8.51392 54.277C8.56592 54.823 8.53992 55.382 8.51392 55.954C8.52692 56.513 8.55292 57.098 8.56592 57.683V57.696C8.55292 57.904 8.53992 58.125 8.53992 58.333C8.53992 58.554 8.53992 58.762 8.53992 58.957C8.53992 59.269 8.52692 59.581 8.51392 59.893C8.51392 60.114 8.51392 60.335 8.51392 60.556C8.59192 60.27 8.68292 60.01 8.74792 59.815C8.98192 59.178 9.22892 58.541 9.47592 57.891C9.72292 57.254 9.98292 56.617 10.2429 55.98C10.4899 55.343 10.7369 54.706 10.9839 54.069C11.0359 53.926 11.1139 53.848 11.2309 53.809C11.2959 53.783 11.3479 53.783 11.4129 53.783C11.4389 53.783 11.4779 53.783 11.5039 53.783C11.5949 53.783 11.6729 53.822 11.7509 53.874C11.8159 53.926 11.8679 53.991 11.9069 54.069C12.0369 54.368 12.1019 54.68 12.1409 54.992C12.1669 55.317 12.1799 55.629 12.1799 55.941C12.1799 56.11 12.1929 56.279 12.1929 56.448C12.2059 56.604 12.2189 56.773 12.2189 56.929C12.2319 57.124 12.2449 57.319 12.2449 57.527C12.2579 57.722 12.2579 57.93 12.2579 58.125C12.2579 58.32 12.2449 58.515 12.2449 58.71C12.2319 58.918 12.2319 59.113 12.2189 59.308C12.2189 59.477 12.2059 59.672 12.1929 59.854C12.1929 60.049 12.1929 60.231 12.1929 60.426C12.1929 60.699 12.1929 60.985 12.2059 61.271C12.2319 61.544 12.2449 61.83 12.2579 62.116C12.2579 62.194 12.2709 62.272 12.2709 62.35C12.2839 62.428 12.2839 62.519 12.2969 62.597C12.2969 62.688 12.2579 62.766 12.2059 62.818C12.1279 62.883 12.0369 62.909 11.9069 62.896C11.8029 62.883 11.7119 62.844 11.6209 62.779C11.5949 62.753 11.5689 62.727 11.5429 62.688C11.5169 62.649 11.4909 62.597 11.4909 62.532C11.4779 62.441 11.4779 62.363 11.4779 62.272C11.4649 62.194 11.4649 62.116 11.4519 62.025V61.973C11.4389 61.7 11.4129 61.427 11.3999 61.167C11.3869 60.894 11.3869 60.621 11.3869 60.348C11.3869 60.192 11.3869 60.036 11.3999 59.893C11.4129 59.737 11.4129 59.581 11.4129 59.438C11.4259 59.243 11.4259 59.048 11.4389 58.84C11.4519 58.645 11.4519 58.437 11.4519 58.242C11.4519 58.034 11.4519 57.826 11.4389 57.631C11.4389 57.423 11.4259 57.228 11.4129 57.02C11.4129 56.877 11.4129 56.721 11.3999 56.552C11.3869 56.383 11.3869 56.227 11.3869 56.058L11.3739 55.577C11.2829 55.811 11.1919 56.058 11.0879 56.305C10.8409 56.942 10.5809 57.579 10.3339 58.216C10.0869 58.853 9.83992 59.503 9.60592 60.14C9.37192 60.777 9.00792 62.064 8.79992 62.714C8.76092 62.857 8.68292 62.948 8.57892 62.987C8.50092 63 8.43592 63.013 8.37092 63C8.34492 63 8.31892 63 8.30592 63C8.14992 62.987 8.05892 62.922 8.00692 62.805C7.99392 62.792 7.99392 62.779 7.98092 62.753C7.95492 62.714 7.94192 62.675 7.92892 62.623C7.87692 62.467 7.83792 62.324 7.79892 62.168C7.74692 61.947 7.72092 61.726 7.70792 61.505ZM18.5122 61.947C18.6422 61.934 18.7332 61.973 18.8112 62.038C18.8892 62.116 18.9412 62.207 18.9412 62.337C18.9412 62.389 18.9282 62.454 18.9152 62.519C18.9022 62.584 18.8632 62.649 18.8242 62.714C18.7852 62.779 18.7462 62.831 18.6942 62.87C18.6292 62.922 18.5642 62.948 18.4992 62.948C18.4732 62.948 18.3822 62.948 18.2652 62.961C18.1352 62.961 17.9792 62.974 17.7972 62.974C17.6282 62.974 17.4332 62.974 17.2122 62.987C17.0042 62.987 16.7962 62.987 16.6012 62.987C16.3932 63 16.2112 63 16.0422 63C15.8732 63 15.7432 63 15.6392 63C15.3142 63 15.0152 62.987 14.7422 62.974C14.4562 62.948 14.1832 62.922 13.9232 62.883C13.8192 62.87 13.7412 62.818 13.6762 62.753C13.6112 62.675 13.5852 62.584 13.5982 62.493C13.6112 62.363 13.6632 62.259 13.7542 62.155C13.8582 62.051 13.9882 62.012 14.1442 62.038C14.1702 62.038 14.1832 62.038 14.2092 62.051C14.2352 62.051 14.2612 62.051 14.2872 62.064C14.3002 61.843 14.3262 61.622 14.3652 61.414C14.3912 61.193 14.4172 60.985 14.4562 60.764C14.4822 60.569 14.5082 60.374 14.5342 60.179C14.5602 59.984 14.5732 59.789 14.5992 59.594C14.6122 59.451 14.6252 59.308 14.6252 59.178C14.6382 59.035 14.6512 58.892 14.6642 58.749C14.6772 58.541 14.6902 58.32 14.7162 58.099C14.7292 57.865 14.7552 57.644 14.7812 57.436C14.8722 56.643 15.0672 55.98 15.3532 55.447C15.6392 54.901 16.0292 54.446 16.5362 54.069C16.5622 54.043 16.6012 54.03 16.6532 54.004C16.7052 53.991 16.7572 53.978 16.8222 53.965C16.8742 53.939 16.9262 53.926 16.9782 53.913C17.0302 53.9 17.0692 53.9 17.0952 53.9C17.2512 53.9 17.3682 53.978 17.4332 54.134C17.5372 54.342 17.6022 54.55 17.6152 54.771C17.6412 54.992 17.6542 55.213 17.6672 55.434C17.6672 55.46 17.6672 55.499 17.6672 55.538C17.6672 55.577 17.6672 55.616 17.6802 55.655V55.798C17.6932 56.136 17.7192 56.474 17.7322 56.825C17.7582 57.163 17.7842 57.501 17.8232 57.839C17.8622 58.203 17.9012 58.58 17.9142 58.944C17.9402 59.308 17.9662 59.672 17.9792 60.036C17.9922 60.361 18.0182 60.686 18.0312 61.011C18.0572 61.336 18.0702 61.661 18.1092 61.986L18.5122 61.947ZM15.2492 61.089C15.2102 61.44 15.1712 61.778 15.1582 62.129C15.4572 62.129 15.7692 62.129 16.1072 62.129C16.4322 62.116 16.8222 62.09 17.2382 62.064C17.2122 61.765 17.1862 61.466 17.1732 61.167C17.1602 60.868 17.1472 60.582 17.1342 60.283C17.1212 59.971 17.1082 59.672 17.0822 59.347C17.0692 59.035 17.0432 58.723 17.0172 58.411C16.9782 58.086 16.9392 57.735 16.9132 57.358C16.8742 56.981 16.8482 56.604 16.8222 56.214V55.785C16.8222 55.655 16.8222 55.525 16.8222 55.382C16.8092 55.239 16.8092 55.109 16.7832 54.979C16.5622 55.187 16.3672 55.408 16.2242 55.655C16.0812 55.902 15.9642 56.175 15.8732 56.448C15.7822 56.734 15.7172 57.02 15.6782 57.319C15.6392 57.631 15.6002 57.93 15.5742 58.229C15.5482 58.541 15.5222 58.853 15.4832 59.152C15.4442 59.464 15.4052 59.776 15.3662 60.088C15.3272 60.413 15.2882 60.751 15.2492 61.089ZM24.2546 61.856C24.3456 61.921 24.4106 62.012 24.4626 62.116C24.5276 62.298 24.4756 62.467 24.3196 62.597C24.2026 62.688 24.0726 62.766 23.9296 62.805C23.7866 62.857 23.6306 62.896 23.4616 62.922C23.3056 62.948 23.1366 62.961 22.9676 62.961C22.7986 62.974 22.6426 62.974 22.4996 62.974C22.4476 62.974 22.3956 62.974 22.3566 62.974C22.3046 62.974 22.2656 62.974 22.2136 62.974C22.1876 62.974 22.1486 62.974 22.1226 62.974C22.0836 62.974 22.0446 62.987 22.0056 62.987C21.9536 62.987 21.8886 62.987 21.8236 62.987C21.7586 63 21.6806 63 21.6156 63C21.4986 63 21.3686 62.987 21.2386 62.974C21.1086 62.974 20.9916 62.935 20.8746 62.896C20.7576 62.857 20.6406 62.792 20.5496 62.701C20.4586 62.623 20.3936 62.506 20.3546 62.376C20.2766 62.064 20.2376 61.752 20.2506 61.44C20.2636 61.115 20.2766 60.803 20.3156 60.491C20.3286 60.335 20.3286 60.192 20.3416 60.049C20.3546 59.906 20.3676 59.763 20.3676 59.62C20.3676 59.464 20.3676 59.295 20.3676 59.126C20.3676 58.97 20.3806 58.801 20.3806 58.645C20.3936 58.008 20.4066 57.371 20.4066 56.734C20.4066 56.097 20.3806 55.447 20.3286 54.81C20.3286 54.784 20.3286 54.758 20.3156 54.706C20.3026 54.654 20.3026 54.602 20.3026 54.537C20.2896 54.459 20.3026 54.394 20.3026 54.316C20.3156 54.238 20.3416 54.173 20.3806 54.108C20.4196 54.03 20.4976 53.991 20.6146 53.952C20.7316 53.926 20.8616 53.913 20.9916 53.913C21.1346 53.913 21.2646 53.913 21.3946 53.926C21.5246 53.926 21.6286 53.939 21.7066 53.939C21.7716 53.939 21.9016 53.926 22.0966 53.926C22.2786 53.913 22.4866 53.913 22.6946 53.913C22.9026 53.913 23.0976 53.9 23.3056 53.9C23.5006 53.9 23.6436 53.9 23.7346 53.913C23.8906 53.913 24.0206 53.978 24.0986 54.095C24.1766 54.199 24.2156 54.316 24.2156 54.446C24.2026 54.563 24.1636 54.667 24.0856 54.771C24.0076 54.862 23.8906 54.914 23.7216 54.901C23.5266 54.888 23.3316 54.888 23.1366 54.901C22.9286 54.914 22.7336 54.927 22.5386 54.94C22.3826 54.953 22.2396 54.966 22.0836 54.979C21.9276 54.992 21.7716 55.005 21.6156 55.005C21.5636 55.005 21.5116 54.992 21.4726 54.992C21.4206 54.992 21.3816 54.992 21.3296 54.992C21.3686 55.525 21.3946 56.058 21.3946 56.552C21.3946 57.059 21.3816 57.514 21.3686 57.93C21.5246 57.904 21.6806 57.878 21.8496 57.865C22.0186 57.865 22.2006 57.852 22.4086 57.852C22.5126 57.852 22.6296 57.852 22.7466 57.865C22.8506 57.865 22.9676 57.865 23.0846 57.865C23.1886 57.878 23.2796 57.878 23.3706 57.878C23.4616 57.878 23.5526 57.878 23.6436 57.878C23.8126 57.878 23.9296 57.943 24.0076 58.047C24.0856 58.151 24.1376 58.268 24.1376 58.398C24.1376 58.515 24.0986 58.632 24.0076 58.736C23.9296 58.827 23.8126 58.879 23.6566 58.879C23.5526 58.879 23.4486 58.879 23.3576 58.879C23.2536 58.879 23.1496 58.866 23.0456 58.866C22.9416 58.866 22.8246 58.853 22.7076 58.853C22.6036 58.853 22.4866 58.853 22.3696 58.853C22.1746 58.853 21.9796 58.853 21.8106 58.866C21.6546 58.892 21.4986 58.918 21.3426 58.944L21.3296 59.464C21.3166 59.789 21.3036 60.127 21.2906 60.452C21.2776 60.79 21.2776 61.115 21.2646 61.44C21.2646 61.466 21.2646 61.479 21.2646 61.492C21.2646 61.518 21.2516 61.531 21.2516 61.557C21.2516 61.622 21.2516 61.687 21.2516 61.752C21.2516 61.83 21.2646 61.895 21.2776 61.96C21.4076 61.973 21.5636 61.986 21.7586 61.986C21.8106 61.986 21.8626 61.986 21.9146 61.986C21.9666 61.986 22.0186 61.986 22.0706 61.973C22.3046 61.973 22.5126 61.96 22.6816 61.96C22.8636 61.947 23.0326 61.934 23.1886 61.908C23.2536 61.908 23.3186 61.895 23.3706 61.882C23.4356 61.882 23.4876 61.869 23.5526 61.856C23.5916 61.856 23.6176 61.843 23.6436 61.817C23.6826 61.804 23.7086 61.791 23.7346 61.791H23.7606C23.8126 61.778 23.8776 61.765 23.9556 61.765C24.0596 61.765 24.1636 61.791 24.2546 61.856ZM29.0617 54.173C29.2567 54.238 29.3737 54.303 29.4387 54.394C29.5297 54.511 29.5947 54.654 29.6467 54.823C29.6987 54.992 29.7247 55.187 29.7507 55.382C29.7767 55.59 29.7767 55.811 29.7767 56.032C29.7637 56.266 29.7507 56.487 29.7247 56.708C29.6987 56.929 29.5947 57.189 29.4127 57.462C29.2307 57.735 29.0097 57.982 28.7367 58.229C28.4767 58.463 28.1907 58.671 27.8787 58.827C27.5667 58.983 27.2807 59.061 27.0077 59.061C26.9817 59.061 26.9427 59.061 26.9167 59.061C26.8907 59.061 26.8517 59.061 26.8257 59.048L26.8127 59.477C26.8127 59.724 26.8257 59.958 26.8257 60.205C26.8257 60.452 26.8387 60.699 26.8517 60.933C26.8517 61.05 26.8517 61.18 26.8517 61.297C26.8647 61.427 26.8647 61.544 26.8647 61.674C26.8647 61.804 26.8777 61.921 26.8777 62.012C26.8907 62.103 26.8907 62.181 26.8907 62.246C26.8907 62.311 26.8907 62.376 26.8907 62.454C26.8907 62.519 26.8777 62.61 26.8647 62.727C26.8647 62.805 26.8387 62.87 26.7997 62.922C26.7607 62.974 26.6957 63 26.6047 63C26.5787 63 26.5267 62.987 26.4617 62.974C26.4097 62.961 26.3447 62.948 26.2797 62.935C26.2277 62.909 26.1757 62.896 26.1237 62.857C26.0717 62.831 26.0327 62.792 26.0067 62.766C25.9547 62.688 25.9417 62.623 25.9417 62.545C25.9547 62.467 25.9547 62.376 25.9677 62.298C25.9807 62.181 25.9807 62.103 25.9937 62.051C25.9937 61.999 25.9937 61.96 25.9937 61.921C25.9937 61.882 25.9807 61.843 25.9807 61.791C25.9677 61.739 25.9677 61.648 25.9547 61.531C25.9547 61.479 25.9547 61.427 25.9417 61.375C25.9417 61.323 25.9417 61.271 25.9417 61.219C25.9287 60.881 25.9157 60.556 25.9157 60.218C25.9027 59.893 25.9027 59.581 25.9027 59.269V59.152C25.9157 58.749 25.9157 58.346 25.9157 57.943C25.9027 57.527 25.9027 57.124 25.8897 56.721C25.8767 56.604 25.8767 56.474 25.8767 56.37C25.8637 56.253 25.8637 56.136 25.8507 56.006L25.8247 55.525C25.8247 55.499 25.8117 55.473 25.8117 55.447C25.8117 55.421 25.8117 55.395 25.8117 55.369C25.8117 55.304 25.8117 55.213 25.8117 55.096C25.7987 54.992 25.7987 54.875 25.7857 54.758C25.7857 54.654 25.7857 54.537 25.7857 54.446C25.7857 54.355 25.7857 54.277 25.7857 54.238C25.8117 54.017 25.9157 53.9 26.0977 53.9C26.1237 53.9 26.2147 53.9 26.3707 53.9C26.5267 53.9 26.7087 53.9 26.9297 53.913C27.1637 53.913 27.4107 53.926 27.6707 53.939C27.9437 53.965 28.1907 53.991 28.4247 54.03C28.6717 54.069 28.8797 54.121 29.0617 54.173ZM28.7757 56.76C28.8537 56.656 28.8927 56.565 28.9057 56.5C28.9317 56.396 28.9577 56.279 28.9707 56.149C28.9837 56.019 28.9837 55.876 28.9837 55.746C28.9707 55.616 28.9577 55.486 28.9317 55.369C28.8927 55.239 28.8537 55.148 28.7887 55.07C28.7497 55.018 28.6457 54.992 28.4767 54.953C28.3077 54.927 28.1127 54.914 27.9047 54.901C27.6837 54.875 27.4757 54.875 27.2807 54.862C27.0727 54.862 26.9167 54.849 26.8127 54.849H26.6827C26.6957 54.94 26.7087 55.031 26.7217 55.135C26.7347 55.252 26.7347 55.356 26.7477 55.46C26.7607 55.577 26.7607 55.681 26.7737 55.798C26.7737 55.902 26.7737 55.993 26.7737 56.071C26.7737 56.149 26.7867 56.214 26.7867 56.292C26.7867 56.37 26.7867 56.435 26.7867 56.5C26.7997 56.734 26.8127 56.968 26.8127 57.228C26.8127 57.488 26.8257 57.761 26.8257 58.06C26.8517 58.073 26.8907 58.086 26.9167 58.099C26.9427 58.099 26.9687 58.099 26.9947 58.099C27.1247 58.099 27.2547 58.073 27.3847 58.008C27.5277 57.956 27.6577 57.878 27.7877 57.774C27.9177 57.683 28.0477 57.566 28.1777 57.449C28.3077 57.332 28.4247 57.215 28.5287 57.098C28.6327 56.981 28.7107 56.864 28.7757 56.76ZM36.3707 56.552C36.4227 56.981 36.4747 57.397 36.5007 57.787C36.5137 58.021 36.5397 58.281 36.5657 58.58C36.5787 58.866 36.5917 59.191 36.5917 59.516C36.5787 59.841 36.5657 60.166 36.5267 60.504C36.4877 60.842 36.4227 61.154 36.3187 61.44C36.2277 61.726 36.0847 61.986 35.9157 62.22C35.7337 62.454 35.5127 62.623 35.2397 62.74C35.0187 62.831 34.7587 62.909 34.4727 62.948C34.1997 62.987 33.9137 63 33.6147 63C33.3287 62.987 33.0427 62.948 32.7697 62.87C32.4967 62.805 32.2497 62.714 32.0417 62.597C31.7817 62.454 31.5737 62.246 31.4437 61.986C31.3137 61.713 31.2227 61.427 31.1577 61.115C31.1057 60.816 31.0797 60.504 31.0797 60.192C31.0797 59.88 31.0797 59.594 31.0797 59.36C31.0797 58.944 31.0927 58.528 31.1187 58.125C31.1447 57.709 31.1577 57.306 31.1837 56.89C31.1967 56.63 31.2097 56.37 31.2357 56.11C31.2747 55.837 31.3137 55.59 31.3787 55.33C31.4437 55.096 31.5347 54.888 31.6647 54.732C31.7947 54.563 31.9377 54.433 32.0937 54.329C32.2497 54.225 32.4057 54.134 32.5747 54.082C32.7437 54.017 32.8997 53.978 33.0427 53.952C33.1857 53.926 33.3157 53.913 33.4197 53.9C33.5237 53.9 33.5887 53.9 33.6147 53.9C33.8747 53.913 34.1347 53.939 34.3817 53.991C34.6417 54.056 34.8757 54.147 35.0837 54.264C35.2917 54.381 35.4867 54.524 35.6557 54.706C35.8117 54.888 35.9547 55.096 36.0587 55.343C36.2017 55.733 36.3057 56.136 36.3707 56.552ZM34.8107 61.973C34.9667 61.895 35.0837 61.791 35.1747 61.635C35.3437 61.349 35.4607 61.05 35.5387 60.712C35.6167 60.374 35.6687 60.036 35.6817 59.685C35.7077 59.347 35.6947 58.996 35.6687 58.645C35.6557 58.294 35.6167 57.969 35.5907 57.644C35.5647 57.384 35.5257 57.111 35.4867 56.851C35.4607 56.591 35.4087 56.331 35.3437 56.071C35.1487 55.304 34.6807 54.875 33.9397 54.784C33.9267 54.797 33.8747 54.797 33.7837 54.797C33.7057 54.797 33.5887 54.797 33.4717 54.81C33.3417 54.823 33.2117 54.849 33.0557 54.901C32.9127 54.953 32.7697 55.044 32.6397 55.161C32.5097 55.278 32.3927 55.434 32.3017 55.629C32.1977 55.837 32.1327 56.097 32.1067 56.422C32.0547 56.955 32.0157 57.488 31.9897 58.008C31.9767 58.541 31.9637 59.074 31.9767 59.607C31.9897 59.88 32.0027 60.166 32.0157 60.452C32.0287 60.738 32.0807 61.024 32.1587 61.297C32.2367 61.583 32.3797 61.778 32.5747 61.882C32.7697 61.986 33.0167 62.051 33.3157 62.077C33.4587 62.09 33.6277 62.103 33.8097 62.116C33.9917 62.129 34.1737 62.116 34.3427 62.103C34.5117 62.077 34.6677 62.038 34.8107 61.973ZM42.0961 59.711C42.0831 59.984 42.0831 60.244 42.0831 60.491C42.0831 60.647 42.0961 60.842 42.1221 61.076C42.1351 61.297 42.1351 61.531 42.1091 61.752C42.0831 61.973 42.0181 62.194 41.9011 62.389C41.7971 62.584 41.6151 62.727 41.3681 62.831C41.1601 62.909 40.9521 62.961 40.7441 62.974C40.5231 63 40.3151 63.013 40.0811 63C39.8601 63 39.6391 63 39.4181 62.987C39.1971 62.974 38.9761 62.987 38.7421 63C38.6771 63 38.5991 63 38.5341 62.987C38.4561 62.974 38.4041 62.961 38.3391 62.922C38.2871 62.883 38.2481 62.844 38.2091 62.792C38.1831 62.74 38.1701 62.688 38.1701 62.623C38.2481 61.934 38.2871 61.245 38.2611 60.556C38.2481 59.88 38.2091 59.191 38.1571 58.502C38.1181 57.813 38.0661 57.137 38.0011 56.448C37.9491 55.759 37.9101 55.083 37.9101 54.394C37.8711 54.29 37.8971 54.186 37.9621 54.082C38.0401 53.978 38.1831 53.913 38.3781 53.913C38.6901 53.9 39.0021 53.913 39.3141 53.939C39.6261 53.965 39.9121 54.017 40.1721 54.095C40.4321 54.173 40.6531 54.303 40.8481 54.459C41.0301 54.615 41.1471 54.823 41.1991 55.096C41.2251 55.213 41.2381 55.33 41.2641 55.46C41.2771 55.59 41.2901 55.72 41.2901 55.863C41.2901 55.993 41.2771 56.123 41.2381 56.253C41.2121 56.37 41.1471 56.487 41.0691 56.578C40.9521 56.708 40.8351 56.812 40.7051 56.89C40.9261 56.916 41.1211 56.968 41.2901 57.046C41.4591 57.124 41.5891 57.241 41.6801 57.397C41.8231 57.631 41.9271 57.865 41.9791 58.125C42.0441 58.385 42.0701 58.645 42.0831 58.918C42.1091 59.178 42.1091 59.451 42.0961 59.711ZM39.3921 54.68C39.2361 54.654 39.0801 54.641 38.9111 54.641C38.9241 55.005 38.9371 55.369 38.9501 55.72C38.9761 56.084 39.0021 56.435 39.0281 56.799C39.1711 56.747 39.3011 56.695 39.4441 56.656C39.5741 56.604 39.7041 56.552 39.8341 56.487C39.9641 56.409 40.0681 56.331 40.1331 56.253C40.1981 56.175 40.2371 56.084 40.2501 55.993C40.2761 55.902 40.2761 55.811 40.2631 55.707C40.2501 55.603 40.2501 55.499 40.2371 55.408C40.2241 55.239 40.1721 55.122 40.0941 55.018C40.0161 54.927 39.9121 54.849 39.7951 54.797C39.6781 54.732 39.5481 54.706 39.3921 54.68ZM39.9771 62.298C40.2501 62.311 40.4841 62.285 40.6921 62.233C40.8091 62.207 40.9001 62.142 40.9651 62.051C41.0301 61.96 41.0821 61.856 41.1081 61.726C41.1341 61.609 41.1471 61.466 41.1471 61.323C41.1471 61.18 41.1471 61.037 41.1341 60.894C41.1211 60.764 41.1081 60.621 41.0951 60.504C41.0821 60.387 41.0691 60.283 41.0691 60.218C41.0821 59.997 41.0821 59.776 41.0821 59.555C41.0821 59.334 41.0691 59.113 41.0431 58.892C41.0431 58.814 41.0431 58.723 41.0431 58.619C41.0431 58.515 41.0301 58.411 41.0171 58.307C41.0041 58.203 40.9911 58.112 40.9521 58.021C40.9261 57.93 40.8741 57.839 40.8221 57.761C40.7571 57.696 40.6531 57.644 40.4971 57.605C40.3541 57.579 40.1981 57.553 40.0291 57.54C39.8601 57.54 39.6911 57.527 39.5221 57.54C39.3531 57.54 39.2101 57.54 39.0931 57.527C39.1581 58.32 39.2101 59.1 39.2491 59.88C39.2881 60.66 39.2751 61.453 39.2101 62.246C39.4701 62.259 39.7171 62.285 39.9771 62.298Z" fill="#70727A"/>
<path d="M9.57596 5.8867C9.51079 5.88683 9.4474 5.86543 9.39563 5.82584C9.34387 5.78624 9.30663 5.73065 9.2897 5.66772C9.27277 5.60478 9.27709 5.53802 9.302 5.47779C9.32691 5.41757 9.37101 5.36725 9.42745 5.33466L12.8432 3.36318C12.9005 3.32947 12.9675 3.31604 13.0333 3.32504C13.0992 3.33404 13.1601 3.36495 13.2062 3.4128C13.2524 3.46064 13.281 3.52263 13.2876 3.58877C13.2942 3.6549 13.2784 3.72134 13.2426 3.77736L12.6409 4.74653L12.9054 4.59388C12.939 4.57247 12.9767 4.5581 13.0161 4.55162C13.0554 4.54515 13.0957 4.5467 13.1345 4.5562C13.1732 4.56569 13.2096 4.58292 13.2416 4.60686C13.2735 4.6308 13.3002 4.66095 13.3202 4.69549C13.3402 4.73003 13.3529 4.76826 13.3578 4.80787C13.3626 4.84748 13.3593 4.88765 13.3482 4.92597C13.3371 4.96429 13.3183 4.99996 13.2931 5.03085C13.2678 5.06173 13.2366 5.08719 13.2012 5.10568L11.9178 5.84528C11.8606 5.87899 11.7936 5.89243 11.7277 5.88343C11.6619 5.87442 11.601 5.84351 11.5548 5.79566C11.5087 5.74782 11.48 5.68583 11.4734 5.6197C11.4668 5.55356 11.4827 5.48713 11.5185 5.43111L12.1202 4.46312L9.72329 5.84528C9.67879 5.87206 9.6279 5.88637 9.57596 5.8867Z" fill="#F4AA51"/>
<path d="M13.31 15.9452C13.2539 15.9454 13.199 15.9296 13.1516 15.8998C13.1041 15.87 13.0661 15.8273 13.042 15.7767C13.0179 15.7261 13.0087 15.6697 13.0153 15.6141C13.022 15.5584 13.0444 15.5058 13.0798 15.4624L13.9153 14.4352L11.5249 15.815C11.464 15.8502 11.3926 15.8626 11.3235 15.8499C11.2543 15.8372 11.192 15.8004 11.1475 15.7459C11.1031 15.6914 11.0795 15.6229 11.081 15.5527C11.0825 15.4824 11.109 15.4149 11.1557 15.3624L11.9361 14.4838L10.2681 15.4476C10.2105 15.4805 10.1435 15.4931 10.0778 15.4833C10.0122 15.4736 9.95175 15.442 9.90621 15.3937C9.86066 15.3455 9.83267 15.2833 9.82674 15.2172C9.8208 15.1511 9.83727 15.0849 9.87348 15.0293L10.5048 14.0607L9.16406 14.8352C9.10274 14.8707 9.03074 14.8829 8.96114 14.8698C8.89154 14.8566 8.82897 14.819 8.78479 14.7636C8.74049 14.7082 8.71762 14.6386 8.72033 14.5677C8.72305 14.4968 8.75117 14.4292 8.79958 14.3772L9.06643 14.0915L8.58362 14.3701C8.52577 14.4034 8.4584 14.4161 8.39243 14.4062C8.32646 14.3963 8.26577 14.3644 8.22021 14.3157C8.17464 14.267 8.14688 14.2043 8.14142 14.1378C8.13597 14.0713 8.15314 14.005 8.19015 13.9495L8.80372 13.0335L7.85703 13.5797C7.79653 13.6145 7.72564 13.6269 7.65691 13.6145C7.58817 13.6022 7.52603 13.5659 7.48146 13.5121C7.4369 13.4584 7.4128 13.3906 7.41342 13.3207C7.41404 13.2509 7.43935 13.1835 7.48486 13.1306L7.92744 12.6164L7.41623 12.9122C7.35714 12.9463 7.28812 12.9589 7.22083 12.9478C7.15354 12.9368 7.09211 12.9029 7.04695 12.8518C7.00178 12.8008 6.97565 12.7357 6.97296 12.6675C6.97028 12.5994 6.99122 12.5324 7.03223 12.478L7.79372 11.4662L6.97424 11.9395C6.9128 11.9747 6.84079 11.9867 6.77127 11.9733C6.70176 11.9598 6.63936 11.922 6.5954 11.8665C6.55144 11.811 6.52883 11.7416 6.53168 11.6708C6.53454 11.6001 6.56266 11.5327 6.61095 11.481L7.24168 10.8094L6.75118 11.0928C6.69061 11.1281 6.61951 11.1407 6.55052 11.1284C6.48153 11.1161 6.41914 11.0797 6.37447 11.0258C6.32979 10.9718 6.30572 10.9037 6.30655 10.8336C6.30739 10.7635 6.33306 10.6961 6.37901 10.6431L7.46475 9.38582L6.64704 9.85917C6.58613 9.89434 6.51468 9.90666 6.44551 9.89392C6.37634 9.88117 6.31397 9.8442 6.26959 9.78964C6.22521 9.73507 6.20172 9.66648 6.20334 9.59616C6.20496 9.52584 6.23158 9.4584 6.27842 9.40594L7.37954 8.17465L6.64704 8.59711C6.58197 8.6347 6.50503 8.64612 6.43185 8.62904C6.35866 8.61197 6.29472 8.56768 6.253 8.50518C6.21128 8.44267 6.19491 8.36663 6.20721 8.2925C6.21952 8.21836 6.25957 8.15169 6.31925 8.10601L9.15932 5.93395L6.64704 7.38357C6.58183 7.42093 6.50485 7.43207 6.43172 7.41474C6.3586 7.3974 6.29481 7.35288 6.25331 7.29022C6.21182 7.22757 6.19572 7.15146 6.2083 7.07737C6.22088 7.00328 6.26118 6.93675 6.32102 6.89129L7.60971 5.92034L6.64704 6.47593C6.58439 6.51427 6.50971 6.52793 6.43754 6.51426C6.36538 6.50058 6.30087 6.46055 6.25659 6.40195C6.21231 6.34334 6.19141 6.27036 6.19796 6.1972C6.20451 6.12404 6.23804 6.05594 6.29203 6.00613L7.6174 4.74289L6.64704 5.30262C6.58978 5.3352 6.52329 5.34774 6.4581 5.33824C6.39291 5.32875 6.33276 5.29777 6.28717 5.25021C6.24159 5.20265 6.21318 5.14124 6.20645 5.07571C6.19972 5.01018 6.21505 4.94427 6.25002 4.88845L6.74999 4.11393C6.68055 4.13378 6.60625 4.12755 6.54109 4.0964C6.47593 4.06525 6.42442 4.01134 6.39626 3.94484C6.3681 3.87833 6.36524 3.80382 6.38822 3.73535C6.4112 3.66688 6.45843 3.60919 6.52101 3.57314L7.50261 3.00512C7.55986 2.97282 7.62624 2.9605 7.69127 2.97012C7.75629 2.97973 7.81627 3.01073 7.86172 3.05821C7.90717 3.1057 7.93551 3.16697 7.94227 3.23236C7.94903 3.29775 7.93382 3.36352 7.89904 3.4193L7.41031 4.17902L9.45753 2.99566C9.52018 2.95731 9.59486 2.94365 9.66703 2.95733C9.7392 2.971 9.8037 3.01103 9.84798 3.06964C9.89227 3.12824 9.91317 3.20122 9.90661 3.27438C9.90006 3.34754 9.86653 3.41565 9.81254 3.46545L8.48658 4.73106L11.5042 2.99092C11.5694 2.95356 11.6464 2.94242 11.7195 2.95975C11.7926 2.97709 11.8564 3.02161 11.8979 3.08427C11.9394 3.14692 11.9555 3.22303 11.9429 3.29712C11.9303 3.37121 11.89 3.43774 11.8302 3.4832L10.5403 4.45297L12.8313 3.13056C12.8964 3.09297 12.9733 3.08155 13.0465 3.09863C13.1197 3.1157 13.1836 3.15999 13.2253 3.22249C13.2671 3.285 13.2834 3.36103 13.2711 3.43517C13.2588 3.5093 13.2188 3.57598 13.1591 3.62165L9.03152 6.77591C9.04159 6.78539 9.05107 6.79546 9.05992 6.80609C9.10437 6.86068 9.1279 6.92934 9.12628 6.99972C9.12465 7.07011 9.09797 7.13761 9.05105 7.19009L7.94933 8.42256L8.68243 7.99951C8.74299 7.96426 8.8141 7.95166 8.88309 7.96394C8.95207 7.97623 9.01446 8.0126 9.05914 8.06658C9.10382 8.12056 9.12788 8.18865 9.12705 8.25872C9.12622 8.32878 9.10054 8.39628 9.05459 8.44919L7.96945 9.70592L8.68243 9.29174C8.74394 9.25615 8.8162 9.24389 8.88601 9.2572C8.95581 9.27052 9.0185 9.30851 9.06259 9.36424C9.10669 9.41997 9.12925 9.48971 9.12615 9.56071C9.12305 9.6317 9.0945 9.69921 9.04572 9.75089L8.41558 10.4248L8.75875 10.2266C8.81778 10.1928 8.88663 10.1804 8.95372 10.1915C9.02081 10.2026 9.08205 10.2364 9.12712 10.2873C9.1722 10.3382 9.19836 10.4031 9.20121 10.471C9.20406 10.539 9.18341 10.6058 9.14276 10.6603L8.38067 11.6709L9.13802 11.2342C9.19852 11.1994 9.26941 11.187 9.33815 11.1993C9.40688 11.2117 9.46903 11.248 9.51359 11.3018C9.55815 11.3555 9.58225 11.4233 9.58163 11.4932C9.58101 11.563 9.5557 11.6304 9.51019 11.6833L9.06761 12.1981L9.609 11.8851C9.66685 11.8516 9.73435 11.8386 9.80049 11.8484C9.86663 11.8582 9.92751 11.89 9.97322 11.9388C10.0189 11.9876 10.0468 12.0505 10.0522 12.1171C10.0576 12.1837 10.0403 12.2502 10.0031 12.3058L9.38949 13.2217L10.4835 12.5904C10.5448 12.5552 10.6167 12.5432 10.6861 12.5564C10.7556 12.5697 10.818 12.6074 10.862 12.6627C10.9061 12.7179 10.9289 12.7872 10.9263 12.8578C10.9237 12.9284 10.8959 12.9958 10.848 13.0477L10.5817 13.3341L11.2876 12.9264C11.3452 12.8932 11.4124 12.8804 11.4782 12.8901C11.544 12.8997 11.6046 12.9313 11.6503 12.9796C11.696 13.028 11.7241 13.0903 11.73 13.1565C11.7359 13.2228 11.7193 13.2891 11.6828 13.3448L11.048 14.3133L13.22 13.059C13.2808 13.0242 13.352 13.0121 13.4209 13.0248C13.4897 13.0376 13.5519 13.0743 13.5962 13.1286C13.6405 13.1828 13.6641 13.251 13.6628 13.3211C13.6616 13.3911 13.6355 13.4584 13.5892 13.511L12.8124 14.3909L15.0087 13.1229C15.0686 13.0884 15.1386 13.076 15.2067 13.0878C15.2747 13.0995 15.3365 13.1347 15.3814 13.1873C15.4262 13.2399 15.4512 13.3064 15.4521 13.3755C15.453 13.4446 15.4297 13.5118 15.3862 13.5655L14.5507 14.5938L15.543 14.0211C15.5954 13.9911 15.6557 13.9778 15.7158 13.9831C15.7759 13.9884 15.833 14.0119 15.8793 14.0505C15.9257 14.0892 15.9591 14.1411 15.9752 14.1993C15.9912 14.2574 15.989 14.3191 15.969 14.3761L15.7453 14.9861L16.0228 14.8257C16.0565 14.8043 16.0942 14.79 16.1335 14.7835C16.1729 14.777 16.2132 14.7786 16.2519 14.7881C16.2907 14.7976 16.3271 14.8148 16.359 14.8387C16.391 14.8627 16.4177 14.8928 16.4377 14.9274C16.4576 14.9619 16.4704 15.0001 16.4752 15.0397C16.48 15.0793 16.4768 15.1195 16.4657 15.1578C16.4546 15.1962 16.4358 15.2318 16.4105 15.2627C16.3853 15.2936 16.354 15.3191 16.3187 15.3375L15.3353 15.905C15.2829 15.9347 15.2227 15.9478 15.1627 15.9425C15.1027 15.9371 15.0458 15.9135 14.9995 15.8749C14.9533 15.8363 14.9199 15.7845 14.9039 15.7265C14.8879 15.6684 14.89 15.6068 14.9099 15.55L15.1329 14.9411L13.4579 15.9038C13.4131 15.9304 13.3621 15.9447 13.31 15.9452ZM29.7883 15.9452C29.729 15.9452 29.6711 15.9274 29.6221 15.8942C29.573 15.8609 29.5351 15.8136 29.5132 15.7585C29.4914 15.7034 29.4865 15.643 29.4994 15.5852C29.5123 15.5273 29.5422 15.4746 29.5854 15.434L30.409 14.6559L28.2446 15.9038C28.1834 15.9385 28.1117 15.9503 28.0426 15.937C27.9734 15.9236 27.9113 15.886 27.8674 15.831C27.8234 15.776 27.8006 15.707 27.8029 15.6367C27.8053 15.5663 27.8327 15.499 27.8801 15.447L28.7085 14.5548L27.8872 15.0281C27.8277 15.0624 27.758 15.0749 27.6902 15.0634C27.6224 15.0519 27.5608 15.0171 27.5158 14.9651C27.4709 14.9131 27.4454 14.847 27.4439 14.7783C27.4424 14.7096 27.4648 14.6425 27.5074 14.5885L28.192 13.7264V13.7228C28.1724 13.6892 28.1598 13.652 28.1546 13.6134C28.1495 13.5748 28.1521 13.5356 28.1621 13.498C28.1722 13.4604 28.1896 13.4252 28.2133 13.3943C28.237 13.3635 28.2665 13.3376 28.3002 13.3181L28.7493 13.0596C28.809 13.0253 28.8787 13.0129 28.9465 13.0245C29.0143 13.0361 29.0759 13.0709 29.1208 13.123C29.1657 13.1751 29.191 13.2412 29.1925 13.31C29.1939 13.3788 29.1713 13.4459 29.1286 13.4998L28.9393 13.7365L30.112 13.0637C30.1732 13.0286 30.245 13.0165 30.3144 13.0297C30.3838 13.0429 30.4462 13.0804 30.4903 13.1356C30.5344 13.1908 30.5573 13.2599 30.5549 13.3305C30.5524 13.4011 30.5248 13.4685 30.477 13.5205L29.6487 14.4127L32.3018 12.8821C32.3648 12.8443 32.4396 12.8314 32.5117 12.8458C32.5837 12.8602 32.6478 12.9009 32.6915 12.9599C32.7352 13.019 32.7554 13.0922 32.7481 13.1653C32.7408 13.2384 32.7066 13.3062 32.6521 13.3554L31.8296 14.1287L36.8134 11.252C36.878 11.2158 36.9538 11.2051 37.0259 11.2221C37.0979 11.2391 37.161 11.2826 37.2026 11.3438C37.2442 11.405 37.2614 11.4797 37.2507 11.5529C37.2399 11.6262 37.2021 11.6928 37.1447 11.7395L35.088 13.3732L36.0536 12.8158C36.0873 12.7944 36.125 12.78 36.1643 12.7735C36.2037 12.7671 36.244 12.7686 36.2827 12.7781C36.3215 12.7876 36.3579 12.8048 36.3898 12.8288C36.4218 12.8527 36.4485 12.8829 36.4685 12.9174C36.4884 12.952 36.5012 12.9902 36.506 13.0298C36.5108 13.0694 36.5076 13.1096 36.4965 13.1479C36.4854 13.1862 36.4666 13.2219 36.4413 13.2528C36.4161 13.2837 36.3848 13.3091 36.3495 13.3276L31.9148 15.8878C31.8502 15.924 31.7744 15.9347 31.7023 15.9177C31.6302 15.9007 31.5672 15.8572 31.5256 15.796C31.4839 15.7348 31.4668 15.6601 31.4775 15.5869C31.4882 15.5136 31.526 15.447 31.5835 15.4003L33.6396 13.7666L29.9362 15.9038C29.8915 15.9306 29.8404 15.9449 29.7883 15.9452ZM34.6277 11.4111C34.5695 11.4111 34.5126 11.394 34.4641 11.3618C34.4156 11.3296 34.3777 11.2839 34.3551 11.2303C34.3325 11.1766 34.3262 11.1175 34.337 11.0604C34.3478 11.0032 34.3752 10.9505 34.4159 10.9088L35.5264 9.76864L35.0454 10.0461C34.9835 10.0814 34.911 10.0932 34.8412 10.0793C34.7714 10.0654 34.7089 10.0268 34.6652 9.97052C34.6215 9.91427 34.5996 9.84416 34.6035 9.77305C34.6074 9.70195 34.6368 9.63463 34.6863 9.58344L35.5146 8.73556L35.0478 9.00478C34.9848 9.03897 34.9116 9.04917 34.8417 9.03348C34.7718 9.01779 34.71 8.97727 34.6677 8.91945C34.6255 8.86163 34.6056 8.79043 34.6118 8.71907C34.6181 8.64772 34.65 8.58104 34.7016 8.53143L34.978 8.28233C34.9166 8.29915 34.8515 8.29574 34.7922 8.27261C34.7329 8.24948 34.6827 8.20786 34.6489 8.15392C34.6152 8.09999 34.5997 8.03661 34.6049 7.9732C34.61 7.90978 34.6354 7.84971 34.6774 7.80189L35.8288 6.48717L35.0484 6.93744C34.9869 6.97261 34.9148 6.98455 34.8452 6.97108C34.7757 6.9576 34.7133 6.91961 34.6693 6.86402C34.6254 6.80842 34.6029 6.73891 34.6059 6.66813C34.6089 6.59734 34.6372 6.52998 34.6857 6.4783L35.6004 5.51385L34.8058 5.97182C34.7466 6.00548 34.6777 6.01772 34.6106 6.0065C34.5435 5.99527 34.4823 5.96126 34.4374 5.91019C34.3924 5.85911 34.3664 5.79411 34.3638 5.72612C34.3612 5.65813 34.3821 5.59131 34.423 5.53693L35.343 4.32694L32.6929 5.85585C32.6299 5.89004 32.5567 5.90024 32.4868 5.88455C32.417 5.86885 32.3551 5.82834 32.3128 5.77052C32.2706 5.7127 32.2507 5.6415 32.2569 5.57014C32.2632 5.49879 32.2951 5.43211 32.3467 5.3825L32.8574 4.92217L31.2226 5.8659C31.1607 5.90158 31.0881 5.9137 31.0181 5.90005C30.948 5.88639 30.8853 5.84787 30.8414 5.79159C30.7975 5.73531 30.7754 5.66506 30.7793 5.5938C30.7831 5.52253 30.8126 5.45505 30.8622 5.4038L31.6628 4.57545L30.8386 5.04879C30.7886 5.07749 30.7313 5.09098 30.6738 5.08759C30.6163 5.08419 30.561 5.06408 30.5147 5.0297C30.4685 4.99533 30.4333 4.94819 30.4134 4.89409C30.3936 4.83999 30.39 4.78127 30.4031 4.72514L30.6397 3.70804C30.5876 3.68792 30.5422 3.65344 30.5089 3.60859C30.4756 3.56375 30.4556 3.51038 30.4513 3.45466C30.447 3.39895 30.4586 3.34316 30.4848 3.29376C30.5109 3.24436 30.5505 3.20336 30.5989 3.17553L30.9013 2.99802C30.9513 2.96914 31.0086 2.9555 31.0662 2.95881C31.1239 2.96211 31.1793 2.9822 31.2256 3.0166C31.272 3.05101 31.3073 3.09822 31.3271 3.15243C31.347 3.20664 31.3505 3.26547 31.3373 3.32167L31.1368 4.19677L33.2035 3.00512C33.2652 2.9699 33.3376 2.95808 33.4073 2.97183C33.4771 2.98559 33.5395 3.02399 33.5833 3.08002C33.627 3.13605 33.6491 3.20596 33.6456 3.27695C33.642 3.34794 33.613 3.41528 33.5638 3.46663L32.7633 4.29499L34.9945 3.00512C35.0575 2.97093 35.1307 2.96073 35.2006 2.97642C35.2705 2.99211 35.3323 3.03263 35.3746 3.09045C35.4168 3.14827 35.4367 3.21947 35.4305 3.29083C35.4242 3.36218 35.3923 3.42886 35.3407 3.47847L34.83 3.93939L36.3217 3.07849C36.3808 3.04483 36.4497 3.03258 36.5168 3.04381C36.5839 3.05503 36.6451 3.08905 36.6901 3.14012C36.735 3.19119 36.761 3.2562 36.7636 3.32419C36.7663 3.39218 36.7454 3.45899 36.7045 3.51338L35.7838 4.72396L37.0678 3.98317C37.1293 3.94758 37.2016 3.93532 37.2714 3.94863C37.3412 3.96195 37.4039 3.99994 37.4479 4.05567C37.492 4.1114 37.5146 4.18114 37.5115 4.25214C37.5084 4.32313 37.4799 4.39064 37.4311 4.44232L36.5169 5.40676L37.0832 5.07956C37.1438 5.04473 37.2149 5.03252 37.2837 5.04511C37.3525 5.0577 37.4146 5.09427 37.4591 5.14833C37.5035 5.20238 37.5273 5.27043 37.5263 5.34038C37.5253 5.41033 37.4995 5.47766 37.4536 5.53042L36.3021 6.84277L37.082 6.3925C37.1449 6.35831 37.2181 6.34811 37.288 6.3638C37.3579 6.37949 37.4197 6.42001 37.462 6.47783C37.5043 6.53565 37.5242 6.60685 37.5179 6.6782C37.5117 6.74956 37.4798 6.81623 37.4281 6.86585L37.1506 7.11613C37.2133 7.09885 37.2799 7.10268 37.3401 7.12702C37.4004 7.15137 37.4509 7.19488 37.484 7.25083C37.517 7.30678 37.5308 7.37205 37.523 7.43658C37.5153 7.5011 37.4865 7.56128 37.4411 7.60782L36.6128 8.45451L37.0814 8.18411C37.1433 8.14842 37.216 8.13631 37.2861 8.15004C37.3562 8.16376 37.4189 8.20239 37.4628 8.25878C37.5066 8.31517 37.5286 8.38553 37.5246 8.45685C37.5206 8.52817 37.491 8.59564 37.4411 8.64681L36.3317 9.78935L37.0832 9.35624C37.1508 9.32087 37.2294 9.31299 37.3027 9.33425C37.376 9.35551 37.4382 9.40426 37.4764 9.47032C37.5146 9.53639 37.5258 9.61465 37.5076 9.68876C37.4895 9.76287 37.4434 9.82711 37.379 9.86804L34.7756 11.3709C34.7308 11.3974 34.6797 11.4113 34.6277 11.4111ZM21.1551 25.8855C21.0943 25.8856 21.0349 25.8669 20.985 25.832C20.9352 25.7972 20.8973 25.7478 20.8765 25.6906C20.8558 25.6334 20.8532 25.5712 20.869 25.5125C20.8849 25.4538 20.9184 25.4014 20.9652 25.3624L21.0752 25.2701L20.3528 25.6873C20.289 25.7239 20.2139 25.7355 20.1421 25.7197C20.0703 25.704 20.0069 25.6621 19.9643 25.6022C19.9217 25.5423 19.9029 25.4687 19.9116 25.3957C19.9203 25.3227 19.9559 25.2556 20.0114 25.2074L21.0764 24.2826L19.025 25.466C18.9609 25.5033 18.8851 25.5153 18.8127 25.4994C18.7402 25.4835 18.6764 25.441 18.6338 25.3802C18.5912 25.3195 18.573 25.2449 18.5828 25.1714C18.5925 25.0978 18.6296 25.0307 18.6866 24.9831L20.5971 23.3767L19.8711 23.7956C19.8082 23.8294 19.7352 23.8393 19.6656 23.8234C19.596 23.8076 19.5344 23.7671 19.4923 23.7094C19.4502 23.6517 19.4304 23.5808 19.4365 23.5096C19.4426 23.4385 19.4743 23.3719 19.5256 23.3223L20.8865 22.0981L20.351 22.4076C20.2894 22.4432 20.217 22.4554 20.1471 22.4419C20.0772 22.4285 20.0144 22.3903 19.9704 22.3343C19.9264 22.2784 19.9041 22.2084 19.9075 22.1373C19.9108 22.0662 19.9397 21.9987 19.9889 21.9472L21.4509 20.4165L20.6516 20.8786C20.6004 20.9083 20.5415 20.9219 20.4825 20.9177C20.4235 20.9135 20.3671 20.8917 20.3206 20.8551C20.2741 20.8186 20.2396 20.7689 20.2216 20.7126C20.2036 20.6562 20.2029 20.5958 20.2196 20.539L20.5113 19.5438C20.4626 19.5206 20.4212 19.4845 20.3915 19.4394C20.3618 19.3944 20.345 19.342 20.3429 19.2881C20.3409 19.2341 20.3536 19.1807 20.3797 19.1335C20.4059 19.0862 20.4444 19.0471 20.4912 19.0202L20.803 18.8427C20.8543 18.813 20.9133 18.7993 20.9724 18.8035C21.0314 18.8077 21.0879 18.8296 21.1344 18.8662C21.181 18.9029 21.2154 18.9527 21.2333 19.0091C21.2513 19.0656 21.2518 19.1261 21.235 19.1829L20.9953 19.9994L22.9349 18.8799C22.9964 18.8448 23.0686 18.8329 23.1382 18.8464C23.2078 18.86 23.2702 18.898 23.3141 18.9537C23.3579 19.0094 23.3804 19.0791 23.3772 19.1499C23.3741 19.2207 23.3456 19.2881 23.297 19.3397L21.8408 20.868L23.0538 20.1639C23.1167 20.1301 23.1897 20.1203 23.2593 20.1361C23.329 20.152 23.3905 20.1925 23.4326 20.2501C23.4747 20.3078 23.4945 20.3788 23.4884 20.4499C23.4823 20.5211 23.4507 20.5876 23.3993 20.6372L22.0355 21.8614L23.2147 21.1804C23.2788 21.1423 23.3549 21.1299 23.4278 21.1455C23.5007 21.1612 23.565 21.2038 23.6079 21.2648C23.6507 21.3258 23.669 21.4007 23.6589 21.4746C23.6489 21.5485 23.6113 21.6158 23.5538 21.6632L21.642 23.2702L23.4644 22.2182C23.5282 22.1816 23.6032 22.17 23.6751 22.1857C23.7469 22.2014 23.8103 22.2433 23.8529 22.3032C23.8955 22.3631 23.9143 22.4367 23.9056 22.5097C23.8969 22.5827 23.8613 22.6499 23.8058 22.6981L22.7408 23.6229L23.7532 23.0389C23.8172 23.0028 23.8924 22.9918 23.9641 23.0081C24.0358 23.0244 24.0989 23.0669 24.141 23.1272C24.1831 23.1874 24.2013 23.2613 24.1919 23.3342C24.1826 23.4071 24.1464 23.474 24.0904 23.5217L23.9804 23.6134L24.0147 23.5939C24.0752 23.559 24.1462 23.5467 24.2149 23.5591C24.2837 23.5716 24.3458 23.6079 24.3904 23.6618C24.4349 23.7157 24.4589 23.7836 24.4581 23.8534C24.4574 23.9233 24.4319 23.9907 24.3863 24.0436L24.046 24.437L24.4229 24.2199C24.4694 24.193 24.5223 24.1793 24.5759 24.1802C24.6296 24.1811 24.682 24.1966 24.7275 24.225C24.773 24.2534 24.81 24.2936 24.8344 24.3414C24.8588 24.3892 24.8698 24.4427 24.8661 24.4962L24.8501 24.7275L24.9063 24.6962C24.974 24.6608 25.0526 24.6529 25.1259 24.6742C25.1992 24.6955 25.2614 24.7442 25.2996 24.8103C25.3378 24.8763 25.349 24.9546 25.3308 25.0287C25.3127 25.1028 25.2666 25.1671 25.2022 25.208L24.6649 25.518C24.6187 25.5452 24.5658 25.5591 24.5121 25.5581C24.4585 25.5572 24.4061 25.5415 24.3608 25.5127C24.3152 25.4844 24.2782 25.4442 24.2537 25.3965C24.2292 25.3487 24.2182 25.2952 24.2218 25.2417L24.2383 25.0098L22.8248 25.8251C22.7643 25.86 22.6933 25.8723 22.6245 25.8598C22.5558 25.8474 22.4936 25.811 22.4491 25.7572C22.4046 25.7033 22.3806 25.6354 22.3814 25.5656C22.3821 25.4957 22.4076 25.4283 22.4532 25.3754L22.7929 24.9826L21.303 25.844C21.2583 25.8709 21.2072 25.8852 21.1551 25.8855Z" fill="#F4AA51"/>
<path d="M22.6681 19.4338C22.6069 19.4337 22.5472 19.4146 22.4973 19.3791C22.4474 19.3437 22.4097 19.2936 22.3894 19.2358C22.3692 19.178 22.3673 19.1154 22.3842 19.0565C22.401 18.9977 22.4357 18.9455 22.4835 18.9072L25.4271 16.5487L20.6735 19.293C20.6079 19.3312 20.5301 19.3428 20.4562 19.3253C20.3823 19.3078 20.318 19.2625 20.2765 19.1989C20.2351 19.1352 20.2197 19.0581 20.2336 18.9834C20.2475 18.9087 20.2895 18.8422 20.3511 18.7977L24.8774 15.5044L19.2428 18.7587C19.1767 18.796 19.0988 18.8065 19.0252 18.788C18.9516 18.7695 18.8879 18.7234 18.8474 18.6592C18.8068 18.5951 18.7924 18.5178 18.8072 18.4434C18.822 18.3689 18.8648 18.303 18.9269 18.2593L23.9491 14.7932L18.2098 18.1066C18.1432 18.1433 18.065 18.1529 17.9915 18.1335C17.918 18.1141 17.8548 18.0672 17.815 18.0024C17.7752 17.9376 17.7618 17.86 17.7777 17.7857C17.7936 17.7113 17.8375 17.646 17.9003 17.6031L21.1315 15.4973L17.5518 17.5605C17.4855 17.5972 17.4077 17.6071 17.3343 17.5881C17.261 17.5691 17.1977 17.5227 17.1575 17.4584C17.1174 17.3942 17.1034 17.3169 17.1186 17.2427C17.1337 17.1684 17.1767 17.1028 17.2388 17.0594L23.684 12.7087L16.7311 16.7245C16.6643 16.7618 16.5855 16.7718 16.5115 16.7523C16.4374 16.7328 16.3738 16.6853 16.334 16.6199C16.2942 16.5544 16.2814 16.4761 16.2982 16.4013C16.315 16.3266 16.3601 16.2613 16.4241 16.2192L19.56 14.2187L16.2466 16.1322C16.1801 16.1689 16.1021 16.1786 16.0287 16.1594C15.9553 16.1402 15.8921 16.0935 15.8521 16.029C15.8121 15.9645 15.7985 15.8871 15.814 15.8128C15.8295 15.7385 15.8729 15.673 15.9353 15.6299L23.0485 10.9118L15.601 15.2121C15.534 15.2491 15.4552 15.2586 15.3812 15.2386C15.3073 15.2187 15.244 15.1708 15.2046 15.1052C15.1652 15.0395 15.1528 14.9611 15.17 14.8865C15.1872 14.8119 15.2327 14.7468 15.2969 14.7051L15.7584 14.4181L15.2851 14.6932C15.2184 14.7311 15.1397 14.7417 15.0654 14.7226C14.9911 14.7036 14.9271 14.6564 14.8869 14.5912C14.8467 14.5259 14.8335 14.4475 14.8499 14.3726C14.8663 14.2977 14.9112 14.2322 14.975 14.1897L22.529 9.22904L14.7585 13.7146C14.6919 13.7518 14.6136 13.7619 14.5398 13.7428C14.466 13.7236 14.4024 13.6767 14.3624 13.6119C14.3223 13.547 14.3088 13.4692 14.3247 13.3946C14.3407 13.32 14.3848 13.2545 14.4478 13.2117L22.5006 7.92557L14.2822 12.6709C14.215 12.7087 14.1356 12.7188 14.0611 12.699C13.9865 12.6793 13.9226 12.6311 13.883 12.5649C13.8435 12.4987 13.8313 12.4197 13.8492 12.3446C13.867 12.2696 13.9135 12.2045 13.9786 12.1632L14.5928 11.7833L14.052 12.0952C13.985 12.1334 13.9057 12.144 13.831 12.1247C13.7563 12.1053 13.6922 12.0576 13.6522 11.9916C13.6122 11.9256 13.5996 11.8466 13.617 11.7714C13.6345 11.6963 13.6806 11.6309 13.7455 11.5893L18.9298 8.30188L13.7633 11.2845C13.6965 11.3245 13.6167 11.3366 13.5412 11.3182C13.4656 11.2997 13.4003 11.2523 13.3595 11.1861C13.3186 11.1199 13.3055 11.0402 13.323 10.9644C13.3404 10.8886 13.387 10.8227 13.4526 10.781L21.2593 5.64759L13.4301 10.1645C13.3636 10.2012 13.2854 10.2108 13.2119 10.1914C13.1384 10.172 13.0752 10.125 13.0354 10.0603C12.9956 9.99549 12.9822 9.91788 12.9981 9.84354C13.014 9.76919 13.0579 9.70382 13.1207 9.66097L18.8801 5.8961L13.1858 9.18349C13.1201 9.21663 13.0444 9.2241 12.9735 9.20444C12.9026 9.18478 12.8415 9.1394 12.8023 9.07716C12.763 9.01492 12.7484 8.94029 12.7612 8.86783C12.774 8.79537 12.8134 8.73029 12.8716 8.68529L18.0583 5.23578L12.9751 8.17053C12.909 8.20901 12.8305 8.22038 12.7562 8.20223C12.6819 8.18409 12.6174 8.13785 12.5765 8.07322C12.5355 8.00859 12.5212 7.9306 12.5365 7.85563C12.5518 7.78066 12.5956 7.71454 12.6586 7.67115L17.7944 4.10567L12.7911 6.99367C12.7242 7.03463 12.6437 7.04732 12.5675 7.02896C12.4912 7.01059 12.4253 6.96267 12.3843 6.89575C12.3434 6.82882 12.3307 6.74836 12.3491 6.67208C12.3674 6.59579 12.4153 6.52992 12.4823 6.48897L12.8254 6.26649L12.7113 6.33276C12.6458 6.37024 12.5686 6.38132 12.4952 6.36374C12.4219 6.34616 12.3581 6.30124 12.3167 6.23817C12.2754 6.17509 12.2597 6.09862 12.2729 6.02438C12.2861 5.95013 12.3271 5.88372 12.3876 5.83871L15.9377 3.2288L12.6172 5.14585C12.552 5.18321 12.475 5.19435 12.4019 5.17701C12.3287 5.15968 12.2649 5.11516 12.2234 5.0525C12.182 4.98984 12.1659 4.91374 12.1784 4.83965C12.191 4.76556 12.2313 4.69903 12.2912 4.65357L14.5082 2.98443L12.5758 4.09798C12.5121 4.13392 12.4374 4.14502 12.3661 4.12915C12.2947 4.11328 12.2317 4.07155 12.1893 4.01201C12.1469 3.95248 12.1281 3.87935 12.1364 3.80673C12.1447 3.7341 12.1796 3.66713 12.2344 3.61872L13.9775 2.10993L12.5758 2.91876C12.5133 2.95526 12.4397 2.96762 12.3687 2.9535C12.2978 2.93939 12.2345 2.89977 12.1908 2.84214C12.147 2.78451 12.126 2.71287 12.1315 2.64075C12.137 2.56863 12.1688 2.50103 12.2207 2.45074L12.9456 1.74663L12.6118 1.93893C12.5516 1.97354 12.4811 1.98582 12.4126 1.97363C12.3442 1.96145 12.2823 1.92556 12.2377 1.87227C12.1931 1.81899 12.1686 1.75169 12.1687 1.6822C12.1687 1.61271 12.1932 1.54545 12.2379 1.49221L12.5337 1.1372C12.4736 1.11266 12.4234 1.06871 12.3912 1.01236C12.3521 0.944462 12.3416 0.863856 12.3619 0.788212C12.3822 0.712568 12.4316 0.648059 12.4994 0.608829L13.4763 0.0467314C13.5365 0.0120997 13.607 -0.000243212 13.6754 0.0118649C13.7438 0.023973 13.8057 0.05976 13.8504 0.112957C13.895 0.166154 13.9196 0.233369 13.9196 0.302827C13.9197 0.372285 13.8954 0.439557 13.8508 0.49286L13.7739 0.58457L14.7058 0.0467314C14.7683 0.0102285 14.8419 -0.00213281 14.9129 0.0119842C14.9838 0.0261013 15.0471 0.0657185 15.0908 0.123347C15.1345 0.180975 15.1556 0.252621 15.1501 0.324741C15.1446 0.396861 15.1128 0.464457 15.0608 0.514752L14.3378 1.21708L16.3678 0.0467314C16.4315 0.0102321 16.5065 -0.00130073 16.5782 0.0143732C16.6499 0.030047 16.7132 0.0718086 16.7558 0.131546C16.7984 0.191284 16.8173 0.264733 16.8088 0.337628C16.8003 0.410522 16.7651 0.477657 16.7098 0.525994L14.9673 2.03478L18.4115 0.0467314C18.4767 0.00937081 18.5537 -0.00177251 18.6268 0.0155642C18.7 0.0329009 18.7637 0.077418 18.8052 0.140076C18.8467 0.202734 18.8628 0.278836 18.8503 0.35293C18.8377 0.427023 18.7974 0.493553 18.7375 0.539011L16.5205 2.20696L20.2676 0.0467314C20.333 0.0100825 20.4099 -0.000372462 20.4827 0.0174798C20.5555 0.035332 20.6188 0.0801599 20.6599 0.142903C20.7009 0.205646 20.7166 0.281625 20.7037 0.355484C20.6909 0.429342 20.6505 0.495572 20.5907 0.540786L17.0447 3.1501L22.4178 0.0467314C22.4845 0.00946356 22.563 -0.000553517 22.6369 0.0187778C22.7109 0.0381092 22.7744 0.0852897 22.8144 0.15044C22.8543 0.21559 22.8674 0.293656 22.8511 0.368292C22.8347 0.442928 22.7901 0.508345 22.7267 0.550844L22.3746 0.778642L23.6438 0.0467314C23.7098 0.00985498 23.7874 -0.000358074 23.8607 0.0181891C23.9339 0.0367362 23.9973 0.0826362 24.0379 0.146466C24.0784 0.210295 24.0929 0.28721 24.0785 0.361421C24.0641 0.435631 24.0218 0.501505 23.9603 0.545519L18.8257 4.10981L25.8661 0.0467314C25.9324 0.0113581 26.0097 0.00253168 26.0822 0.0220436C26.1548 0.0415554 26.2172 0.0879436 26.2568 0.151793C26.2964 0.215642 26.3102 0.292169 26.2955 0.365841C26.2807 0.439512 26.2385 0.504809 26.1773 0.548478L20.9901 3.99739L27.8358 0.0467314C27.9024 0.0100579 27.9806 0.000426577 28.0541 0.0198354C28.1276 0.0392443 28.1908 0.0862035 28.2306 0.150972C28.2704 0.21574 28.2837 0.293345 28.2679 0.367689C28.252 0.442032 28.2081 0.507408 28.1453 0.550253L22.39 4.31098L29.7789 0.0467314C29.8454 0.0105527 29.9232 0.00123433 29.9964 0.0206938C30.0695 0.0401534 30.1324 0.0869104 30.1721 0.151343C30.2119 0.215776 30.2254 0.292983 30.2099 0.367077C30.1944 0.441171 30.1511 0.506514 30.089 0.549661L22.2841 5.68132L30.9664 0.668589C31.0333 0.631795 31.1119 0.622296 31.1856 0.64208C31.2594 0.661864 31.3226 0.709398 31.3621 0.77474C31.4016 0.840082 31.4144 0.91817 31.3976 0.992671C31.3809 1.06717 31.336 1.13232 31.2723 1.17448L26.085 4.46423L31.1262 1.55375C31.1934 1.51588 31.2727 1.50577 31.3473 1.52556C31.4218 1.54535 31.4857 1.59347 31.5253 1.65968C31.5649 1.72589 31.577 1.80494 31.5592 1.87998C31.5413 1.95503 31.4949 2.02013 31.4297 2.06141L30.8339 2.43003L31.154 2.24542C31.2207 2.20546 31.3005 2.19338 31.3761 2.21182C31.4516 2.23025 31.5169 2.2777 31.5578 2.3439C31.5986 2.4101 31.6117 2.48973 31.5943 2.56553C31.5769 2.64134 31.5303 2.70723 31.4646 2.74894L23.4095 8.03444L31.1546 3.56369C31.2213 3.52373 31.3011 3.51165 31.3767 3.53008C31.4522 3.54851 31.5175 3.59597 31.5583 3.66217C31.5992 3.72837 31.6123 3.80799 31.5949 3.8838C31.5774 3.95961 31.5309 4.0255 31.4652 4.06721L23.9094 9.02846L31.1001 4.87782C31.1672 4.84087 31.246 4.83138 31.3199 4.85133C31.3939 4.87128 31.4572 4.91912 31.4966 4.98479C31.536 5.05046 31.5483 5.12884 31.5311 5.20346C31.5139 5.27807 31.4684 5.34311 31.4043 5.38489L30.9398 5.67363L31.0362 5.6186C31.1027 5.58192 31.1807 5.57218 31.2541 5.59139C31.3275 5.61059 31.3907 5.65728 31.4307 5.72179C31.4707 5.7863 31.4843 5.8637 31.4688 5.93799C31.4533 6.01228 31.4099 6.07778 31.3475 6.12094L24.2319 10.8396L30.8587 7.0126C30.9258 6.97188 31.0063 6.95948 31.0826 6.97812C31.1588 6.99676 31.2245 7.04492 31.2652 7.11201C31.3059 7.17909 31.3183 7.25961 31.2997 7.33584C31.2811 7.41207 31.2329 7.47777 31.1658 7.51849L28.0299 9.5166L30.6871 7.98296C30.7533 7.9475 30.8304 7.93851 30.903 7.9578C30.9755 7.97709 31.038 8.02322 31.0778 8.08685C31.1175 8.15048 31.1317 8.22686 31.1173 8.30051C31.1028 8.37416 31.061 8.43958 31.0001 8.48353L24.5603 12.8336L30.3434 9.49412C30.4102 9.453 30.4907 9.44013 30.567 9.45833C30.6434 9.47653 30.7093 9.5243 30.7505 9.59115C30.7916 9.658 30.8044 9.73845 30.7862 9.81479C30.768 9.89113 30.7203 9.95712 30.6534 9.99823L27.4163 12.107L30.0197 10.6047C30.0858 10.5674 30.1637 10.5569 30.2373 10.5754C30.3109 10.5939 30.3746 10.64 30.4152 10.7041C30.4558 10.7683 30.4701 10.8456 30.4553 10.92C30.4406 10.9944 30.3977 11.0603 30.3357 11.1041L25.317 14.5684L29.4387 12.1892C29.5043 12.1519 29.5816 12.1411 29.6549 12.1589C29.7282 12.1768 29.7919 12.2219 29.833 12.2852C29.8741 12.3484 29.8895 12.425 29.8761 12.4992C29.8626 12.5734 29.8213 12.6397 29.7606 12.6845L25.2336 15.9784L28.5009 14.0927C28.5654 14.056 28.6414 14.045 28.7137 14.0617C28.786 14.0785 28.8494 14.1218 28.8913 14.1831C28.9331 14.2444 28.9504 14.3192 28.9397 14.3926C28.929 14.4661 28.891 14.5328 28.8334 14.5796L25.8886 16.9381L26.8519 16.3825C26.9195 16.3471 26.9981 16.3392 27.0714 16.3605C27.1447 16.3818 27.2069 16.4305 27.2451 16.4966C27.2833 16.5626 27.2945 16.6409 27.2763 16.715C27.2582 16.7891 27.2121 16.8533 27.1477 16.8943L22.816 19.3947C22.7711 19.4207 22.72 19.4342 22.6681 19.4338Z" fill="#F9C55D"/>
<path d="M18.4794 13.3756C18.4168 13.3756 18.3558 13.3558 18.3052 13.3189C18.2546 13.2821 18.217 13.2301 18.1978 13.1705C18.1786 13.1109 18.1787 13.0468 18.1983 12.9873C18.2179 12.9278 18.2558 12.8761 18.3067 12.8395L22.0467 10.1586L18.5711 12.1656C18.5054 12.2031 18.4277 12.214 18.3541 12.196C18.2805 12.1779 18.2167 12.1323 18.1757 12.0686C18.1347 12.0049 18.1198 11.9279 18.1339 11.8535C18.148 11.779 18.1902 11.7129 18.2516 11.6686L20.7959 9.86337L18.77 11.0331C18.7043 11.0719 18.6261 11.0838 18.5519 11.0663C18.4776 11.0489 18.413 11.0034 18.3715 10.9394C18.3299 10.8754 18.3147 10.7979 18.329 10.723C18.3433 10.648 18.3859 10.5815 18.4481 10.5373L20.0308 9.38825L18.9427 10.016C18.8778 10.0531 18.8013 10.0642 18.7285 10.0471C18.6558 10.03 18.5921 9.98605 18.5505 9.924C18.5088 9.86195 18.4922 9.78643 18.5039 9.71262C18.5157 9.63881 18.5549 9.57217 18.6137 9.52611L20.1036 8.37055L18.3877 9.35984C18.3224 9.39788 18.2449 9.40944 18.1713 9.39213C18.0976 9.37483 18.0334 9.32998 17.9918 9.2668C17.9502 9.20363 17.9344 9.12692 17.9477 9.05245C17.9609 8.97797 18.0021 8.91139 18.0629 8.86638L19.1037 8.09128L17.8457 8.81786C17.7855 8.85247 17.715 8.86476 17.6465 8.85257C17.5781 8.84038 17.5162 8.8045 17.4716 8.75121C17.427 8.69792 17.4025 8.63063 17.4026 8.56113C17.4026 8.49164 17.4271 8.42438 17.4718 8.37114L18.4185 7.24695L17.0635 8.03448C17.0112 8.06446 16.9509 8.0777 16.8907 8.07243C16.8306 8.06716 16.7736 8.04363 16.7272 8.00499C16.6808 7.96635 16.6474 7.91446 16.6314 7.85628C16.6153 7.79809 16.6175 7.73639 16.6375 7.67947L16.8275 7.15228L16.747 7.19843C16.6791 7.23704 16.5987 7.24723 16.5233 7.22676C16.4479 7.20629 16.3836 7.15683 16.3446 7.08917C16.3055 7.02152 16.2948 6.94116 16.3148 6.86563C16.3347 6.79011 16.3838 6.72554 16.4512 6.68603L17.2322 6.23576C17.2846 6.20578 17.3448 6.19254 17.405 6.19781C17.4651 6.20308 17.5222 6.22661 17.5685 6.26525C17.6149 6.30389 17.6483 6.35578 17.6644 6.41396C17.6804 6.47215 17.6782 6.53385 17.6582 6.59077L17.4683 7.11855L19.5835 5.89732C19.6438 5.86272 19.7143 5.85043 19.7827 5.86262C19.8511 5.87481 19.9131 5.91069 19.9577 5.96398C20.0023 6.01727 20.0267 6.08456 20.0267 6.15405C20.0266 6.22355 20.0021 6.29081 19.9575 6.34404L19.0108 7.46824L23.2088 5.04057C23.2741 5.00253 23.3516 4.99097 23.4252 5.00828C23.4989 5.02558 23.5631 5.07043 23.6046 5.13361C23.6462 5.19678 23.662 5.27349 23.6488 5.34796C23.6356 5.42244 23.5944 5.48902 23.5336 5.53403L22.4922 6.30972L23.5632 5.69142C23.6281 5.65358 23.705 5.64188 23.7783 5.65868C23.8515 5.67549 23.9156 5.71955 23.9576 5.7819C23.9995 5.84426 24.0162 5.92025 24.0041 5.99444C23.9921 6.06862 23.9523 6.13544 23.8927 6.18133L22.4029 7.33688L24.6874 6.01803C24.753 5.98124 24.8302 5.97084 24.9032 5.98893C24.9762 6.00703 25.0396 6.05226 25.0804 6.11542C25.1213 6.17859 25.1365 6.25495 25.1231 6.32896C25.1097 6.40298 25.0685 6.46909 25.0081 6.51385L23.4247 7.66172L25.9607 6.20026C26.0264 6.16364 26.1037 6.15346 26.1767 6.17179C26.2497 6.19013 26.313 6.2356 26.3536 6.29895C26.3943 6.3623 26.4092 6.43877 26.3955 6.51277C26.3817 6.58678 26.3403 6.65276 26.2796 6.69728L23.7353 8.50427L26.963 6.64047C27.0287 6.60334 27.1061 6.59272 27.1794 6.6108C27.2527 6.62888 27.3163 6.67428 27.3572 6.73771C27.3981 6.80114 27.4132 6.87781 27.3994 6.95202C27.3856 7.02623 27.344 7.09237 27.2831 7.1369L23.5454 9.81307L25.5199 8.67349C25.5848 8.63645 25.6613 8.62534 25.7341 8.64241C25.8068 8.65948 25.8704 8.70346 25.9121 8.76551C25.9538 8.82756 25.9704 8.90308 25.9587 8.97689C25.9469 9.05071 25.9077 9.11734 25.8488 9.16341L25.0507 9.78231C25.0994 9.79422 25.1443 9.81833 25.1811 9.85236C25.218 9.88639 25.2456 9.92923 25.2613 9.97686C25.277 10.0245 25.2804 10.0753 25.2711 10.1246C25.2618 10.1739 25.2401 10.22 25.208 10.2586L24.3069 11.342L25.0294 10.9278C25.0855 10.8955 25.1506 10.8825 25.2148 10.8908C25.2789 10.8991 25.3386 10.9282 25.3847 10.9737C25.4308 11.0191 25.4607 11.0784 25.4698 11.1425C25.4789 11.2066 25.4668 11.2719 25.4353 11.3284L24.9276 12.2354L25.2299 12.0615C25.2979 12.0229 25.3783 12.0127 25.4537 12.0331C25.5291 12.0536 25.5933 12.1031 25.6324 12.1707C25.6714 12.2384 25.6821 12.3187 25.6622 12.3943C25.6422 12.4698 25.5932 12.5344 25.5258 12.5739L24.2933 13.2839C24.2372 13.3164 24.172 13.3296 24.1076 13.3214C24.0433 13.3133 23.9834 13.2842 23.9372 13.2387C23.891 13.1932 23.8611 13.1337 23.852 13.0695C23.8429 13.0053 23.8551 12.9399 23.8868 12.8833L24.3945 11.9757L23.1673 12.6857C23.1072 12.7204 23.0369 12.7328 22.9685 12.7209C22.9002 12.7089 22.8382 12.6733 22.7934 12.6203C22.7486 12.5673 22.7239 12.5003 22.7236 12.4309C22.7233 12.3615 22.7474 12.2942 22.7916 12.2407L23.6927 11.158L22.065 12.0976C22.0001 12.1346 21.9236 12.1457 21.8508 12.1286C21.7781 12.1116 21.7145 12.0676 21.6728 12.0055C21.6311 11.9435 21.6145 11.868 21.6262 11.7942C21.638 11.7203 21.6772 11.6537 21.7361 11.6076L22.0579 11.358L18.6262 13.3389C18.5813 13.3636 18.5307 13.3763 18.4794 13.3756ZM20.5598 5.25771C20.5036 5.25769 20.4485 5.24166 20.4011 5.21148C20.3537 5.18131 20.3158 5.13825 20.292 5.08734C20.2681 5.03643 20.2593 4.97978 20.2665 4.92403C20.2737 4.86828 20.2966 4.81573 20.3326 4.77253L21.0521 3.91105C21.0284 3.88987 21.0084 3.86487 20.9929 3.83709C20.9537 3.76914 20.943 3.68839 20.9634 3.6126C20.9837 3.53682 21.0332 3.4722 21.1012 3.43297L21.8266 3.01406C21.8867 2.97975 21.957 2.96763 22.0252 2.9798C22.0933 2.99198 22.1551 3.02767 22.1996 3.08067C22.2442 3.13367 22.2687 3.20062 22.269 3.26986C22.2693 3.3391 22.2452 3.40624 22.2011 3.45959L21.8574 3.87377L22.4029 3.55899C22.4366 3.53759 22.4742 3.52322 22.5136 3.51674C22.5529 3.51027 22.5932 3.51182 22.632 3.52131C22.6707 3.53081 22.7072 3.54804 22.7391 3.57198C22.771 3.59592 22.7978 3.62606 22.8177 3.66061C22.8377 3.69515 22.8505 3.73338 22.8553 3.77299C22.8601 3.8126 22.8568 3.85277 22.8457 3.89109C22.8346 3.92941 22.8158 3.96508 22.7906 3.99597C22.7653 4.02685 22.7341 4.05231 22.6987 4.0708L20.7077 5.21807C20.6628 5.24428 20.6118 5.25797 20.5598 5.25771Z" fill="#F4AA51"/>
<path d="M16.8085 28.98C16.7491 28.9799 16.6911 28.9619 16.642 28.9285C16.593 28.895 16.5552 28.8475 16.5335 28.7922C16.5118 28.737 16.5072 28.6764 16.5204 28.6185C16.5335 28.5606 16.5638 28.508 16.6073 28.4676L18.4882 26.7221L16.1138 28.0924C16.0497 28.1293 15.974 28.1408 15.9018 28.1247C15.8296 28.1086 15.7661 28.0659 15.7237 28.0053C15.6814 27.9446 15.6633 27.8702 15.6731 27.7969C15.6829 27.7235 15.7198 27.6565 15.7766 27.609L16.3304 27.1481L16.1138 27.2736C16.0565 27.3076 15.9894 27.3212 15.9234 27.3124C15.8574 27.3035 15.7963 27.2726 15.75 27.2247C15.7037 27.1767 15.675 27.1146 15.6684 27.0483C15.6619 26.982 15.6779 26.9154 15.7138 26.8594L16.2505 25.9896C16.1813 26.0185 16.1036 26.02 16.0333 25.9938C15.963 25.9676 15.9053 25.9156 15.8719 25.8485C15.8384 25.7814 15.8317 25.704 15.8531 25.6321C15.8745 25.5602 15.9225 25.4991 15.9872 25.4612L16.967 24.8956C17.0243 24.8619 17.0913 24.8484 17.1571 24.8574C17.223 24.8664 17.2839 24.8974 17.33 24.9452C17.3762 24.9931 17.4048 25.055 17.4114 25.1212C17.418 25.1873 17.4022 25.2537 17.3664 25.3098L16.8339 26.176L19.0474 24.8974C19.1115 24.8605 19.1872 24.849 19.2594 24.8651C19.3316 24.8813 19.3951 24.9239 19.4375 24.9846C19.4798 25.0452 19.4979 25.1196 19.4881 25.1929C19.4783 25.2663 19.4414 25.3333 19.3846 25.3808L18.8296 25.8417L20.4662 24.895C20.5292 24.8584 20.6036 24.8463 20.6749 24.8612C20.7463 24.876 20.8096 24.9166 20.8529 24.9752C20.8962 25.0339 20.9162 25.1064 20.9093 25.179C20.9024 25.2515 20.8689 25.3189 20.8153 25.3683L18.935 27.1138L22.7762 24.8974C22.8407 24.8607 22.9167 24.8497 22.989 24.8664C23.0613 24.8832 23.1247 24.9265 23.1665 24.9878C23.2084 25.0491 23.2257 25.1239 23.215 25.1973C23.2043 25.2708 23.1663 25.3375 23.1087 25.3843L21.7744 26.4493L24.4607 24.8991C24.5251 24.8622 24.6011 24.8508 24.6735 24.8673C24.7459 24.8838 24.8094 24.9269 24.8515 24.9881C24.8936 25.0492 24.9112 25.124 24.9007 25.1975C24.8902 25.271 24.8525 25.3379 24.795 25.3849L23.3525 26.5541L26.2203 24.8974C26.2833 24.8627 26.3567 24.8522 26.4269 24.8677C26.497 24.8832 26.5591 24.9238 26.6016 24.9817C26.6441 25.0397 26.664 25.1112 26.6576 25.1827C26.6513 25.2543 26.6191 25.3211 26.5671 25.3707L24.7329 27.0404L27.4546 25.4689C27.5193 25.4302 27.5964 25.4178 27.6701 25.434C27.7437 25.4502 27.8084 25.494 27.8508 25.5563C27.8933 25.6187 27.9103 25.6949 27.8985 25.7693C27.8867 25.8438 27.8468 25.911 27.7871 25.9571L27.2031 26.4209L27.6209 26.1801C27.6798 26.1463 27.7485 26.1337 27.8156 26.1446C27.8827 26.1555 27.944 26.1891 27.9892 26.2399C28.0344 26.2906 28.0607 26.3554 28.0638 26.4233C28.0669 26.4912 28.0465 26.558 28.006 26.6126L27.196 27.6966L27.6262 27.4481C27.6775 27.4185 27.7365 27.405 27.7955 27.4093C27.8546 27.4136 27.911 27.4355 27.9574 27.4722C28.0039 27.5089 28.0383 27.5587 28.0561 27.6152C28.0739 27.6717 28.0744 27.7322 28.0575 27.7889L27.9232 28.2368C27.9706 28.263 28.0099 28.3017 28.0368 28.3486C28.0758 28.4165 28.0864 28.4971 28.0661 28.5728C28.0458 28.6484 27.9963 28.7129 27.9285 28.7522L27.6327 28.9226C27.5814 28.952 27.5225 28.9653 27.4636 28.9609C27.4046 28.9565 27.3483 28.9346 27.302 28.8979C27.2556 28.8612 27.2213 28.8115 27.2035 28.7552C27.1857 28.6988 27.1851 28.6384 27.2019 28.5818L27.2759 28.3333L26.2511 28.9249C26.1922 28.9588 26.1234 28.9713 26.0563 28.9605C25.9893 28.9496 25.928 28.9159 25.8828 28.8652C25.8376 28.8144 25.8112 28.7497 25.8082 28.6818C25.8051 28.6139 25.8255 28.547 25.8659 28.4924L26.673 27.4073L24.0382 28.9279C23.9736 28.9655 23.8971 28.9772 23.8242 28.9607C23.7512 28.9441 23.6873 28.9006 23.6451 28.8388C23.603 28.7771 23.5858 28.7016 23.5971 28.6277C23.6083 28.5538 23.6471 28.4868 23.7057 28.4404L24.2873 27.9788L22.6389 28.9303C22.5759 28.9654 22.5023 28.9763 22.4318 28.9609C22.3614 28.9455 22.299 28.905 22.2563 28.8469C22.2137 28.7887 22.1937 28.717 22.2002 28.6452C22.2067 28.5734 22.2392 28.5065 22.2916 28.4569L24.1293 26.7878L20.4088 28.9356C20.3444 28.9725 20.2685 28.9839 20.1961 28.9674C20.1236 28.9509 20.0601 28.9078 20.018 28.8467C19.9759 28.7855 19.9583 28.7107 19.9688 28.6372C19.9793 28.5637 20.017 28.4968 20.0745 28.4498L21.5177 27.2795L18.6439 28.9362C18.5791 28.9715 18.5036 28.9814 18.432 28.9639C18.3604 28.9464 18.2978 28.9029 18.2567 28.8417C18.2155 28.7806 18.1987 28.7062 18.2094 28.6333C18.2202 28.5604 18.2578 28.4941 18.3149 28.4475L19.6473 27.3824L16.954 28.9391C16.9099 28.9653 16.8597 28.9794 16.8085 28.98Z" fill="#F9C55D"/>
<path d="M13.8518 33.7136C13.7883 33.7136 13.7264 33.6931 13.6753 33.6552C13.6243 33.6172 13.5868 33.5639 13.5685 33.503C13.5502 33.4421 13.5519 33.3769 13.5736 33.3171C13.5952 33.2573 13.6355 33.2061 13.6885 33.171L14.2932 32.7716L13.7471 33.087C13.6815 33.1237 13.6043 33.1341 13.5313 33.1161C13.4583 33.098 13.3949 33.0527 13.3541 32.9896C13.3132 32.9264 13.2979 32.85 13.3114 32.776C13.3248 32.702 13.366 32.6359 13.4264 32.5911L15.9535 30.7788L13.7471 32.0527C13.6828 32.0893 13.6072 32.1005 13.5351 32.084C13.463 32.0676 13.3996 32.0248 13.3575 31.964C13.3155 31.9032 13.2977 31.8288 13.3077 31.7555C13.3177 31.6823 13.3548 31.6154 13.4116 31.5681L15.8328 29.5824L13.7471 30.7865C13.6854 30.8226 13.6126 30.8351 13.5423 30.8217C13.4721 30.8083 13.4091 30.7698 13.3649 30.7135C13.3208 30.6572 13.2986 30.5868 13.3024 30.5154C13.3062 30.4439 13.3358 30.3763 13.3856 30.325L14.8334 28.8209L13.7471 29.4481C13.689 29.4816 13.6212 29.4944 13.5549 29.4843C13.4886 29.4742 13.4277 29.4419 13.3822 29.3926C13.3366 29.3434 13.3092 29.2801 13.3043 29.2132C13.2995 29.1463 13.3175 29.0798 13.3554 29.0245L13.798 28.3801C13.7415 28.3844 13.6848 28.373 13.6344 28.3471C13.5839 28.3212 13.5417 28.2819 13.5122 28.2334C13.4732 28.1655 13.4626 28.0849 13.4829 28.0092C13.5032 27.9336 13.5527 27.8691 13.6205 27.8299L14.6003 27.2642C14.6584 27.231 14.726 27.2184 14.7921 27.2285C14.8582 27.2386 14.919 27.2708 14.9645 27.3199C15.0099 27.369 15.0374 27.4321 15.0424 27.4988C15.0474 27.5655 15.0296 27.6319 14.992 27.6873L14.5832 28.2825L16.3493 27.2642C16.411 27.2286 16.4835 27.2164 16.5534 27.2299C16.6234 27.2434 16.6861 27.2818 16.7301 27.3378C16.7741 27.3939 16.7963 27.4639 16.7928 27.5351C16.7892 27.6062 16.7602 27.6737 16.7108 27.7251L15.263 29.2286L18.6699 27.2642C18.7342 27.2276 18.8098 27.2165 18.8819 27.2329C18.954 27.2493 19.0174 27.2921 19.0595 27.3529C19.1016 27.4137 19.1194 27.4881 19.1094 27.5614C19.0993 27.6347 19.0623 27.7015 19.0054 27.7488L16.5848 29.7339L20.8591 27.2642C20.9249 27.2261 21.0028 27.2147 21.0767 27.2325C21.1506 27.2503 21.2148 27.2958 21.256 27.3596C21.2973 27.4235 21.3123 27.5007 21.2982 27.5754C21.284 27.65 21.2416 27.7164 21.1798 27.7606L18.6527 29.5718L22.6531 27.2642C22.7195 27.2285 22.797 27.2194 22.8699 27.2389C22.9427 27.2584 23.0053 27.305 23.045 27.3691C23.0847 27.4332 23.0983 27.5101 23.0832 27.5839C23.0681 27.6578 23.0254 27.7231 22.9637 27.7666L22.3608 28.1642L23.9211 27.2642C23.9867 27.2262 24.0644 27.2148 24.1382 27.2324C24.212 27.25 24.2762 27.2953 24.3175 27.3589C24.359 27.4225 24.3743 27.4997 24.3605 27.5744C24.3466 27.6491 24.3045 27.7155 24.243 27.76L20.726 30.3084L25.9997 27.2642C26.0659 27.227 26.1439 27.2166 26.2176 27.2354C26.2912 27.2541 26.3549 27.3004 26.3953 27.3648C26.4357 27.4292 26.4497 27.5066 26.4346 27.5811C26.4194 27.6555 26.3762 27.7213 26.3138 27.7648L24.5353 28.9665L27.486 27.2642C27.5517 27.2276 27.629 27.2174 27.702 27.2357C27.775 27.2541 27.8383 27.2996 27.8789 27.3629C27.9196 27.4263 27.9345 27.5027 27.9208 27.5767C27.907 27.6507 27.8656 27.7167 27.8049 27.7612L24.6435 30.0055L29.2474 27.3482C29.3138 27.311 29.392 27.3008 29.4657 27.3198C29.5394 27.3387 29.603 27.3853 29.6432 27.4499C29.6834 27.5145 29.6972 27.5922 29.6817 27.6667C29.6662 27.7412 29.6225 27.8068 29.5598 27.85L28.1694 28.7837L29.8172 27.8328C29.8833 27.7969 29.9606 27.7875 30.0333 27.8066C30.1061 27.8256 30.1689 27.8717 30.2089 27.9354C30.2489 27.9991 30.2632 28.0756 30.2488 28.1494C30.2344 28.2233 30.1924 28.2888 30.1314 28.3328L28.867 29.1949L29.9852 28.5499C30.051 28.5141 30.1278 28.5045 30.2003 28.5231C30.2728 28.5417 30.3356 28.5871 30.376 28.6501C30.4164 28.7132 30.4313 28.7892 30.4179 28.8628C30.4045 28.9364 30.3636 29.0022 30.3036 29.047L29.0664 29.9215L29.9888 29.3889C30.0529 29.3521 30.1286 29.3406 30.2008 29.3567C30.273 29.3728 30.3365 29.4155 30.3789 29.4761C30.4212 29.5368 30.4393 29.6112 30.4295 29.6845C30.4197 29.7579 30.3828 29.8249 30.326 29.8724L28.4676 31.4196L29.9923 30.5392C30.0532 30.5044 30.1245 30.4924 30.1935 30.5053C30.2624 30.5182 30.3245 30.5551 30.3687 30.6096C30.4129 30.664 30.4364 30.7324 30.4348 30.8025C30.4333 30.8726 30.4069 30.9399 30.3604 30.9924L29.261 32.2142L29.9977 31.7894C30.0476 31.7604 30.1049 31.7467 30.1626 31.7499C30.2203 31.7531 30.2757 31.7731 30.3222 31.8074C30.3686 31.8418 30.404 31.8889 30.4239 31.9432C30.4438 31.9974 30.4474 32.0562 30.4343 32.1125L30.2426 32.9361C30.2969 32.9539 30.3448 32.9871 30.3806 33.0315C30.4165 33.076 30.4387 33.1299 30.4445 33.1867C30.4504 33.2435 30.4397 33.3008 30.4138 33.3516C30.3878 33.4025 30.3477 33.4448 30.2982 33.4733L29.9793 33.6567C29.9293 33.6856 29.872 33.6993 29.8144 33.696C29.7567 33.6927 29.7013 33.6726 29.655 33.6382C29.6086 33.6038 29.5733 33.5565 29.5535 33.5023C29.5336 33.4481 29.5301 33.3893 29.5432 33.3331L29.7036 32.642L27.9427 33.6585C27.8818 33.6933 27.8106 33.7053 27.7416 33.6924C27.6727 33.6795 27.6106 33.6426 27.5664 33.5881C27.5222 33.5337 27.4987 33.4653 27.5003 33.3952C27.5018 33.3251 27.5282 33.2578 27.5747 33.2053L28.6693 31.9823L25.7624 33.6609C25.6983 33.6978 25.6226 33.7093 25.5504 33.6931C25.4782 33.677 25.4146 33.6344 25.3723 33.5737C25.33 33.513 25.3119 33.4387 25.3217 33.3653C25.3315 33.292 25.3684 33.225 25.4251 33.1775L27.2854 31.6291L23.7643 33.6627C23.6984 33.6997 23.6209 33.7101 23.5477 33.6918C23.4744 33.6734 23.4109 33.6278 23.3702 33.5642C23.3295 33.5005 23.3147 33.4238 23.3287 33.3495C23.3428 33.2753 23.3848 33.2093 23.446 33.1651L24.6796 32.2935L22.3046 33.6644C22.2383 33.7029 22.1597 33.7142 22.0853 33.6958C22.0109 33.6775 21.9465 33.6309 21.9057 33.5661C21.8649 33.5012 21.8508 33.423 21.8665 33.348C21.8822 33.273 21.9264 33.207 21.9898 33.1639L23.2519 32.3042L20.8917 33.665C20.8253 33.7022 20.7471 33.7124 20.6734 33.6935C20.5997 33.6746 20.5361 33.628 20.4959 33.5633C20.4556 33.4987 20.4419 33.4211 20.4574 33.3466C20.4729 33.2721 20.5166 33.2064 20.5793 33.1633L21.9739 32.2267L19.4805 33.6674C19.4148 33.704 19.3375 33.7142 19.2645 33.6959C19.1915 33.6775 19.1282 33.6321 19.0876 33.5687C19.0469 33.5054 19.0319 33.4289 19.0457 33.3549C19.0595 33.2809 19.1009 33.2149 19.1616 33.1704L22.3224 30.9261L17.5694 33.6698C17.503 33.7076 17.4247 33.7183 17.3506 33.6996C17.2766 33.681 17.2126 33.6344 17.1721 33.5697C17.1316 33.5049 17.1177 33.4271 17.1333 33.3523C17.1489 33.2776 17.1928 33.2117 17.2558 33.1686L19.0308 31.9675L16.0795 33.6715C16.0138 33.7103 15.9357 33.7222 15.8615 33.7047C15.7872 33.6873 15.7226 33.6418 15.681 33.5778C15.6395 33.5139 15.6243 33.4363 15.6386 33.3614C15.6528 33.2865 15.6955 33.2199 15.7576 33.1757L19.274 30.6267L13.9962 33.6739C13.9524 33.6995 13.9026 33.7132 13.8518 33.7136Z" fill="#416572"/>
<path d="M28.2445 34.8791C28.1836 34.8791 28.1241 34.8603 28.0742 34.8252C28.0244 34.7902 27.9865 34.7406 27.966 34.6832C27.9454 34.6258 27.943 34.5635 27.9592 34.5047C27.9754 34.4459 28.0093 34.3936 28.0564 34.3549L28.1398 34.2862L27.1813 34.8389C27.1201 34.874 27.0483 34.8861 26.979 34.873C26.9096 34.8599 26.8472 34.8224 26.8031 34.7673C26.7589 34.7123 26.7359 34.6432 26.7382 34.5727C26.7405 34.5022 26.768 34.4348 26.8156 34.3827L27.6499 33.4774L25.2902 34.8383C25.2288 34.8734 25.1568 34.8854 25.0873 34.872C25.0178 34.8586 24.9554 34.8207 24.9114 34.7652C24.8674 34.7097 24.8448 34.6403 24.8477 34.5696C24.8505 34.4988 24.8787 34.4315 24.927 34.3797L25.7429 33.5129L23.446 34.8377C23.3862 34.8722 23.3162 34.8847 23.2481 34.873C23.1801 34.8613 23.1183 34.8262 23.0734 34.7737C23.0285 34.7212 23.0034 34.6547 23.0024 34.5857C23.0014 34.5166 23.0245 34.4494 23.0679 34.3957L23.9513 33.3023L21.2887 34.8377C21.2279 34.8725 21.1566 34.8845 21.0877 34.8717C21.0188 34.8589 20.9567 34.822 20.9124 34.7677C20.8682 34.7133 20.8447 34.645 20.8461 34.575C20.8475 34.5049 20.8737 34.4376 20.9201 34.385L21.7751 33.4265L19.3308 34.8377C19.2715 34.8718 19.2022 34.8844 19.1347 34.8732C19.0671 34.862 19.0056 34.8277 18.9605 34.7762C18.9154 34.7247 18.8896 34.6591 18.8874 34.5907C18.8853 34.5223 18.9069 34.4553 18.9486 34.401L19.8326 33.2579L17.0954 34.8377C17.0325 34.8728 16.9588 34.8837 16.8884 34.8683C16.818 34.853 16.7555 34.8124 16.7129 34.7543C16.6702 34.6961 16.6503 34.6244 16.6568 34.5526C16.6633 34.4808 16.6958 34.4139 16.7481 34.3643L17.3019 33.8555L15.6003 34.8377C15.5399 34.8723 15.4694 34.8845 15.4009 34.8722C15.3325 34.8599 15.2706 34.824 15.226 34.7706C15.1815 34.7172 15.1571 34.6498 15.1573 34.5803C15.1575 34.5108 15.1821 34.4435 15.2269 34.3904L16.1008 33.3632L13.5459 34.8377C13.4839 34.8718 13.4116 34.8825 13.3423 34.8678C13.273 34.8532 13.2113 34.8142 13.1683 34.7579C13.1254 34.7016 13.104 34.6318 13.1082 34.5611C13.1123 34.4904 13.1417 34.4235 13.1909 34.3726L13.9341 33.6289L12.1407 34.6637C12.0795 34.6989 12.0077 34.711 11.9384 34.6979C11.869 34.6848 11.8067 34.6473 11.7625 34.5922C11.7184 34.5371 11.6954 34.4681 11.6977 34.3976C11.7 34.327 11.7274 34.2596 11.775 34.2075L12.4496 33.475L11.9762 33.7496C11.9198 33.7821 11.8543 33.7952 11.7897 33.7867C11.7251 33.7782 11.6652 33.7486 11.6191 33.7025C11.5731 33.6565 11.5435 33.5965 11.535 33.532C11.5265 33.4674 11.5395 33.4018 11.5721 33.3454L11.8088 32.9384C11.7491 32.9277 11.6942 32.8989 11.6514 32.8559C11.6086 32.813 11.5801 32.7579 11.5696 32.6982C11.5591 32.6385 11.5673 32.577 11.5929 32.5221C11.6185 32.4671 11.6604 32.4214 11.7129 32.3911L12.3981 31.9976C12.4545 31.9653 12.5199 31.9525 12.5843 31.9611C12.6488 31.9697 12.7085 31.9993 12.7544 32.0453C12.8004 32.0913 12.8299 32.1511 12.8384 32.2155C12.8469 32.2799 12.834 32.3454 12.8016 32.4017L12.6371 32.6875L13.8282 31.9976C13.8894 31.9624 13.9611 31.9503 14.0305 31.9634C14.0998 31.9766 14.1622 32.014 14.2064 32.0691C14.2505 32.1242 14.2735 32.1932 14.2712 32.2638C14.2689 32.3343 14.2415 32.4017 14.1938 32.4538L13.5223 33.1851L15.5796 31.9976C15.6416 31.9635 15.7139 31.9528 15.7832 31.9674C15.8525 31.9821 15.9142 32.0211 15.9572 32.0774C16.0002 32.1337 16.0215 32.2035 16.0174 32.2742C16.0132 32.3449 15.9838 32.4118 15.9346 32.4627L15.1914 33.207L17.2883 31.9976C17.3487 31.963 17.4192 31.9508 17.4877 31.9631C17.5561 31.9753 17.618 32.0113 17.6626 32.0647C17.7072 32.1181 17.7315 32.1854 17.7313 32.255C17.7311 32.3245 17.7065 32.3917 17.6617 32.4449L16.7878 33.4709L19.3427 31.9976C19.4056 31.962 19.4795 31.9508 19.5502 31.9659C19.621 31.9811 19.6837 32.0217 19.7265 32.08C19.7694 32.1383 19.7894 32.2102 19.7827 32.2823C19.7761 32.3543 19.7433 32.4214 19.6906 32.4709L19.1362 32.9798L20.8378 31.9976C20.8971 31.9634 20.9665 31.9509 21.034 31.9621C21.1015 31.9733 21.1631 32.0076 21.2081 32.0591C21.2532 32.1106 21.2791 32.1761 21.2812 32.2445C21.2834 32.3129 21.2618 32.38 21.2201 32.4343L20.3361 33.5774L23.0732 31.9976C23.1341 31.9628 23.2053 31.9507 23.2742 31.9636C23.3431 31.9764 23.4052 32.0132 23.4495 32.0676C23.4937 32.1219 23.5173 32.1902 23.5159 32.2603C23.5145 32.3304 23.4882 32.3977 23.4418 32.4502L22.5874 33.4088L25.0329 31.9976C25.0926 31.9631 25.1624 31.9506 25.2304 31.9622C25.2983 31.9737 25.3601 32.0087 25.405 32.0609C25.4501 32.1134 25.4753 32.1801 25.4762 32.2493C25.4772 32.3185 25.4539 32.3858 25.4104 32.4396L24.5276 33.5318L27.1901 31.9976C27.2516 31.9624 27.3236 31.9505 27.3931 31.9639C27.4626 31.9773 27.525 32.0152 27.569 32.0706C27.6129 32.1261 27.6355 32.1955 27.6327 32.2663C27.6298 32.337 27.6017 32.4044 27.5534 32.4562L26.7375 33.3224L29.032 31.9976C29.0932 31.9624 29.165 31.9503 29.2344 31.9634C29.3037 31.9766 29.3661 32.014 29.4102 32.0691C29.4544 32.1242 29.4774 32.1932 29.4751 32.2638C29.4728 32.3343 29.4453 32.4017 29.3977 32.4538L28.564 33.3585L30.9242 31.9976C30.9884 31.9612 31.0639 31.9501 31.1359 31.9665C31.2079 31.9829 31.2711 32.0256 31.3132 32.0862C31.3553 32.1468 31.3732 32.221 31.3634 32.2941C31.3536 32.3673 31.3169 32.4342 31.2603 32.4816L31.1757 32.5508L31.6668 32.268C31.7281 32.2324 31.8002 32.2201 31.8699 32.2332C31.9395 32.2463 32.0022 32.284 32.0464 32.3394C32.0907 32.3948 32.1135 32.4642 32.1108 32.5351C32.1082 32.6059 32.0801 32.6734 32.0319 32.7254L31.4568 33.3431L31.7579 33.1697C31.8152 33.136 31.8822 33.1226 31.948 33.1316C32.0139 33.1406 32.0748 33.1715 32.1209 33.2193C32.167 33.2672 32.1957 33.3292 32.2023 33.3953C32.2089 33.4614 32.1931 33.5279 32.1573 33.5839L31.9573 33.9064C32.013 33.9226 32.0626 33.9548 32.1001 33.999C32.1376 34.0432 32.1613 34.0974 32.1682 34.155C32.1751 34.2125 32.165 34.2708 32.1391 34.3227C32.1132 34.3745 32.0726 34.4176 32.0224 34.4466L31.3361 34.843C31.2788 34.8767 31.2118 34.8901 31.146 34.8811C31.0801 34.8721 31.0192 34.8412 30.9731 34.7934C30.9269 34.7455 30.8982 34.6835 30.8916 34.6174C30.885 34.5513 30.9009 34.4848 30.9367 34.4288L31.0349 34.2703L30.0462 34.8406C29.9849 34.8758 29.913 34.8878 29.8436 34.8746C29.7741 34.8613 29.7117 34.8236 29.6677 34.7683C29.6236 34.7131 29.6008 34.6438 29.6034 34.5732C29.606 34.5026 29.6338 34.4352 29.6817 34.3833L30.2574 33.765L28.3924 34.8377C28.3477 34.8644 28.2966 34.8787 28.2445 34.8791Z" fill="#324E56"/>
<path d="M16.9801 8.43151L18.3581 9.81013C18.3628 10.7811 17.2398 13.0768 18.4338 13.4857C19.6438 13.7223 20.6822 12.5703 21.7538 12.1538C22.904 12.5822 23.9897 13.8957 25.2849 13.3898C26.4813 12.7668 25.382 10.7397 25.3743 9.65748C28.5173 6.68131 28.6226 6.37719 24.185 5.89379C23.5123 5.02224 23.1969 3.00105 21.9242 3.00519C20.5201 3.20637 20.3432 4.94295 19.6166 5.92692C18.0504 6.14111 14.4394 6.25412 16.9801 8.43151ZM17.3818 6.70084C20.9083 6.31506 20.048 6.55055 21.6822 3.59747C22.01 3.35488 22.5466 4.67847 22.6525 4.87491C23.0484 5.37311 23.1312 6.44168 23.8826 6.39376C25.1607 6.68368 28.2155 6.40559 25.9399 8.25874C25.1778 9.04923 24.1258 9.51015 24.6755 10.7829C24.7447 11.6272 25.6766 13.8478 24.0247 12.591C23.4537 12.284 22.8886 11.9295 22.2975 11.6633C21.8307 11.4532 21.381 11.8082 20.9739 12.0272C20.3272 12.323 19.6977 12.81 19.0545 13.0579C18.2652 12.7431 19.2468 10.3953 19.2261 9.63026C19.093 9.05278 15.8003 6.94106 17.3818 6.70084Z" fill="#262626"/>
<path d="M6.24465 3.81342C5.77131 5.79083 6.14702 7.99425 6.05709 10.0397C6.34406 15.2287 11.2597 16.4506 15.6346 15.9234C16.7519 17.5084 18.354 18.6874 20.1995 19.283C20.0279 21.1846 19.8445 23.4247 18.4079 24.8241C16.7097 24.6418 15.2128 25.1761 15.5086 27.1784C12.5254 26.8346 13.2117 29.9338 13.1508 31.8751C12.0212 31.7686 11.2639 32.2538 11.3757 33.4455C11.3757 34.2271 11.4591 34.885 12.4076 34.9329C15.3861 35.0838 18.4114 34.9329 21.3929 34.9329H31.3036C32.3485 34.7767 32.4645 33.7934 32.3639 32.8218C32.3118 31.8426 31.3231 31.8846 30.5888 31.8976C30.4592 29.9184 31.3752 26.7015 28.2304 27.1979C28.5375 25.182 27.3221 24.6537 25.5394 24.8241C23.9188 23.5224 23.7596 21.1639 23.5525 19.2386C25.3715 18.6488 26.9508 17.4865 28.0546 15.9252C35.0294 16.6352 38.5032 13.4206 37.6849 6.3689C37.6778 5.07134 38.0505 2.99927 36.1731 2.99631C34.7093 2.94602 33.2372 2.98921 31.7716 2.99631C31.7828 1.79697 31.8852 0.160971 30.3445 0.0183759C28.557 -0.0123915 26.7719 0.0154175 24.9897 0.00595062C21.1627 0.0231094 17.3298 -0.0265919 13.5064 0.021926C11.9378 0.232565 11.9786 1.74195 11.968 2.98684C10.2474 3.23476 7.40612 2.29517 6.24465 3.81342ZM12.4768 15.4104C11.2148 15.3713 10.0008 14.9174 9.0228 14.1188C8.04476 13.3203 7.35719 12.2216 7.0665 10.9929C6.77733 8.6194 6.76978 6.22005 7.04402 3.84478C7.25051 3.50042 7.47594 3.49687 7.80788 3.49687H11.9733C11.9781 4.114 11.9982 4.73231 12.0431 5.35061C10.655 5.46895 7.98183 4.7258 8.41849 7.0162C8.01437 11.4597 9.24093 14.0874 14.1578 13.5608C14.481 14.2047 14.8495 14.8247 15.2607 15.4163C14.3329 15.421 13.404 15.4305 12.4745 15.411L12.4768 15.4104ZM13.7194 12.6005C13.7827 12.7508 13.8501 12.9011 13.9188 13.0508C8.96639 13.5241 9.10425 9.7693 9.293 6.04466C9.29951 5.81272 9.30957 5.86715 9.55334 5.86715H12.0976C12.2885 8.18132 12.8337 10.4524 13.714 12.6011L13.7194 12.6005ZM31.1503 32.5662C31.3527 32.6041 31.4142 32.6011 31.4882 32.8768C31.5278 33.0254 31.5805 34.2342 31.3651 34.2691C25.1264 34.2637 18.8806 34.2768 12.6437 34.2691C12.0905 34.2016 12.2419 33.5768 12.2419 33.1052C12.2419 32.6461 12.2958 32.5662 12.6934 32.5662C18.8422 32.5757 25.0128 32.5532 31.1503 32.5662ZM29.7155 29.5125V31.8923C24.4803 31.8988 19.2498 31.9355 14.0146 31.8769C14.2016 30.871 13.4401 27.9399 14.756 27.8038C15.043 27.77 15.3364 27.7541 15.6329 27.7446C15.712 27.7838 15.799 27.8044 15.8872 27.8049C15.9755 27.8054 16.0627 27.7858 16.1423 27.7476C19.9427 27.8511 23.7081 27.799 27.5067 27.7671C27.6365 27.8158 27.7792 27.8177 27.9103 27.7724C29.3315 27.6783 29.8125 28.0848 29.7155 29.5125ZM27.1423 25.7814C27.3725 26.2168 27.4492 26.7171 27.36 27.2014C23.6963 27.1931 20.0391 27.2263 16.3742 27.173C15.9311 24.6915 18.2085 25.5932 19.7587 25.4424H26.1488C26.3296 25.4082 26.516 25.4214 26.6901 25.4807C26.8642 25.54 27.02 25.6434 27.1423 25.7808V25.7814ZM23.62 23.7105C23.8061 24.1189 24.0555 24.4953 24.359 24.8258C22.6431 24.8258 20.9308 24.8134 19.2167 24.8175C20.6036 23.4295 20.8403 21.3095 21.029 19.4463C21.5795 19.5159 22.137 19.5091 22.6857 19.4261C22.7275 20.9011 23.0444 22.3554 23.62 23.7141V23.7105ZM35.1602 3.49155C35.8631 3.49155 36.6743 3.46078 36.8092 4.37907C36.8654 6.17719 36.8092 7.99543 36.8198 9.80125C36.5417 14.7986 32.7183 15.8003 28.4179 15.4163C28.8101 14.846 29.1635 14.25 29.4759 13.6324C33.9644 14.1057 35.7761 11.7153 35.3175 7.41973C35.7625 4.47966 33.6425 5.41925 31.6728 5.27961C31.7189 4.68419 31.7467 4.08749 31.7562 3.49037L35.1602 3.49155ZM31.6207 5.93638H33.7194C34.0383 5.93638 34.3821 5.83579 34.4466 6.2482C34.5874 10.0645 34.7827 13.5188 29.78 12.9727C30.7749 10.7439 31.3967 8.36681 31.6207 5.93638ZM13.2413 0.657984C18.7013 0.381669 24.2785 0.651476 29.7758 0.560948C31.148 0.609466 30.8959 2.30108 30.9 3.28269C31.455 11.2887 24.5927 25.6074 16.3222 15.5051C13.7779 11.9662 12.8602 7.49309 12.8313 3.19808C12.8295 2.56261 12.6141 1.06684 13.2413 0.657984Z" fill="#262626"/>
</svg>
