<svg width="23" height="22" viewBox="0 0 23 22" fill="none" xmlns="http://www.w3.org/2000/svg">
<path d="M17.8985 21.9085C17.8424 21.9085 17.7873 21.8935 17.739 21.8649C17.6907 21.8364 17.6509 21.7954 17.6238 21.7463C17.5967 21.6972 17.5832 21.6416 17.5849 21.5856C17.5866 21.5295 17.6033 21.4748 17.6332 21.4274L17.9048 20.9946L17.1321 21.4412C17.0697 21.4771 16.9968 21.4905 16.9257 21.4791C16.8546 21.4676 16.7896 21.4321 16.7416 21.3783C16.6937 21.3246 16.6656 21.256 16.6623 21.1841C16.6589 21.1122 16.6804 21.0413 16.7231 20.9833L17.5072 19.917L15.973 20.8027C15.9067 20.842 15.8283 20.8555 15.7527 20.8407C15.6771 20.8258 15.6096 20.7837 15.563 20.7223C15.5165 20.6609 15.4942 20.5845 15.5004 20.5077C15.5066 20.4309 15.5409 20.3591 15.5966 20.3059L16.4352 19.4968L15.0509 20.3009C14.9842 20.3391 14.9056 20.3515 14.8303 20.3356C14.755 20.3197 14.6882 20.2767 14.6426 20.2147C14.5969 20.1527 14.5757 20.0761 14.5829 19.9995C14.5901 19.9228 14.6252 19.8515 14.6815 19.7991L16.0213 18.566L14.0073 19.7282C13.9396 19.7672 13.8599 19.7795 13.7836 19.7628C13.7074 19.7461 13.6401 19.7016 13.5949 19.6379C13.5498 19.5743 13.53 19.496 13.5394 19.4186C13.5488 19.3411 13.5868 19.2699 13.646 19.2189L15.3646 17.7468L12.9429 19.1449C12.8736 19.1849 12.7918 19.1969 12.714 19.1785C12.6362 19.1601 12.5684 19.1128 12.5244 19.0461C12.4804 18.9794 12.4634 18.8984 12.4771 18.8197C12.4908 18.741 12.534 18.6704 12.5979 18.6224L13.6203 17.8547L12.1457 18.7059C12.077 18.746 11.9958 18.7585 11.9182 18.741C11.8407 18.7235 11.7728 18.6772 11.7281 18.6115C11.6834 18.5457 11.6653 18.4655 11.6775 18.387C11.6897 18.3084 11.7313 18.2375 11.7938 18.1884L15.0898 15.5767L5.27255 21.2455C5.20212 21.2844 5.11944 21.2947 5.04161 21.2743C4.96379 21.254 4.89676 21.2045 4.85439 21.1361C4.81202 21.0677 4.79755 20.9857 4.81397 20.9069C4.8304 20.8282 4.87646 20.7587 4.94263 20.713L12.9297 15.4343L5.37102 19.7991C5.30001 19.8397 5.21596 19.8509 5.13678 19.8304C5.0576 19.8099 4.98957 19.7593 4.94719 19.6893C4.90481 19.6194 4.89143 19.5356 4.90992 19.456C4.9284 19.3763 4.97727 19.307 5.04612 19.2628L9.63363 16.355L5.54727 18.714C5.47652 18.7529 5.39347 18.7631 5.31544 18.7423C5.23741 18.7215 5.1704 18.6714 5.12837 18.6025C5.08633 18.5335 5.07252 18.451 5.08979 18.3721C5.10707 18.2932 5.15411 18.2241 5.22112 18.179L10.7733 14.6101L5.74297 17.5148C5.67185 17.558 5.58647 17.5713 5.5056 17.5515C5.42473 17.5318 5.355 17.4808 5.31175 17.4097C5.2685 17.3386 5.25527 17.2532 5.27497 17.1723C5.29467 17.0915 5.3457 17.0217 5.41681 16.9785L8.75426 14.8459L5.90855 16.4886C5.83777 16.5298 5.75369 16.5416 5.67429 16.5216C5.59489 16.5016 5.52646 16.4514 5.48363 16.3816C5.44079 16.3118 5.42694 16.228 5.44505 16.1482C5.46315 16.0683 5.51177 15.9987 5.58052 15.9542L9.50505 13.3958L6.09107 15.3665C6.02097 15.4073 5.93778 15.4194 5.85897 15.4001C5.78017 15.3809 5.71189 15.3319 5.66846 15.2634C5.62503 15.1949 5.60984 15.1122 5.62607 15.0327C5.6423 14.9532 5.6887 14.8832 5.75551 14.8372L11.1496 11.0958L6.07351 14.0287C6.00329 14.0703 5.91962 14.0829 5.84027 14.0638C5.76091 14.0447 5.69212 13.9954 5.64852 13.9264C5.60492 13.8574 5.58993 13.7741 5.60675 13.6943C5.62356 13.6144 5.67085 13.5442 5.73857 13.4987L9.39654 10.9728L5.36161 13.3023C5.29166 13.3414 5.20939 13.3523 5.1317 13.3326C5.05401 13.3129 4.98679 13.2643 4.94385 13.1966C4.90091 13.129 4.8855 13.0474 4.90078 12.9688C4.91607 12.8901 4.96089 12.8203 5.02605 12.7736L8.97755 10.0245L4.6171 12.5422C4.5464 12.586 4.46119 12.5999 4.3802 12.5809C4.29921 12.5619 4.22909 12.5116 4.18526 12.4409C4.14143 12.3702 4.12747 12.2849 4.14647 12.204C4.16547 12.123 4.21586 12.0528 4.28656 12.009L6.49751 10.5394L4.04257 11.9563C3.97256 11.9965 3.88976 12.0081 3.8114 11.9888C3.73303 11.9695 3.66513 11.9207 3.62182 11.8526C3.57851 11.7845 3.56313 11.7023 3.57888 11.6231C3.59463 11.544 3.6403 11.4739 3.70637 11.4276L8.24997 8.25822L3.2485 11.1434C3.17767 11.1838 3.09393 11.1949 3.01501 11.1746C2.9361 11.1542 2.8682 11.1039 2.82572 11.0344C2.78324 10.9648 2.7695 10.8815 2.78742 10.8019C2.80534 10.7224 2.85351 10.653 2.92172 10.6084L3.49688 10.2371L2.77119 10.6561C2.70572 10.6944 2.6286 10.7076 2.55412 10.6934C2.47963 10.6791 2.41283 10.6384 2.36606 10.5787C2.3193 10.519 2.29575 10.4444 2.29978 10.3687C2.3038 10.293 2.33513 10.2213 2.38795 10.1669L3.95601 8.53608L1.87175 9.73909C1.81582 9.7713 1.75131 9.78547 1.68704 9.77966C1.62276 9.77386 1.56184 9.74836 1.51258 9.70666C1.46333 9.66495 1.42814 9.60906 1.41182 9.54662C1.39551 9.48417 1.39885 9.41821 1.4214 9.35774L1.79084 8.37426L1.60643 8.48089C1.53444 8.52182 1.44918 8.53261 1.36926 8.51091C1.28934 8.48922 1.22124 8.43679 1.17984 8.36507C1.13843 8.29335 1.12707 8.20816 1.14824 8.1281C1.1694 8.04803 1.22138 7.97959 1.29282 7.93771L2.23366 7.39328C2.28964 7.36096 2.35424 7.34673 2.41862 7.35254C2.483 7.35834 2.54402 7.3839 2.59332 7.42571C2.64261 7.46753 2.67779 7.52355 2.69402 7.58612C2.71025 7.64869 2.70675 7.71475 2.684 7.77526L2.31896 8.76L5.56797 6.88398C5.63344 6.84572 5.71056 6.83247 5.78504 6.8467C5.85952 6.86092 5.92633 6.90165 5.97309 6.96135C6.01985 7.02104 6.0434 7.09566 6.03938 7.17138C6.03535 7.24711 6.00403 7.31881 5.9512 7.37321L4.38315 9.00399L14.0148 3.44053C14.0857 3.39711 14.171 3.38365 14.2519 3.40312C14.3328 3.42259 14.4026 3.47338 14.446 3.54433C14.4894 3.61528 14.5029 3.70057 14.4834 3.78144C14.4639 3.86231 14.4131 3.93213 14.3422 3.97555L13.772 4.34373L14.2983 4.03952C14.3683 3.99793 14.4518 3.98522 14.5311 4.0041C14.6103 4.02299 14.6791 4.07197 14.7229 4.14069C14.7667 4.2094 14.782 4.29245 14.7656 4.37226C14.7492 4.45207 14.7024 4.52237 14.6351 4.56827L10.0915 7.73637L14.7693 5.03555C14.84 4.99164 14.9253 4.9776 15.0063 4.99654C15.0874 5.01548 15.1576 5.06584 15.2015 5.13653C15.2454 5.20723 15.2594 5.29248 15.2405 5.37353C15.2216 5.45457 15.1712 5.52478 15.1005 5.56869L12.8858 7.04016L15.1105 5.75623C15.1807 5.71354 15.2648 5.70007 15.3448 5.71873C15.4248 5.73739 15.4943 5.78668 15.5383 5.85602C15.5823 5.92535 15.5974 6.00919 15.5803 6.08952C15.5632 6.16985 15.5152 6.24025 15.4467 6.28561L11.4952 9.0341L15.8099 6.54214C15.8801 6.50053 15.9638 6.48793 16.0431 6.50703C16.1225 6.52612 16.1913 6.5754 16.2349 6.6444C16.2785 6.7134 16.2935 6.79668 16.2767 6.87655C16.2598 6.95642 16.2125 7.02658 16.1448 7.07214L12.4875 9.59671L17.3679 6.77923C17.438 6.73843 17.5212 6.72639 17.6 6.74562C17.6788 6.76486 17.7471 6.81387 17.7905 6.88239C17.8339 6.9509 17.8491 7.03357 17.8329 7.11304C17.8167 7.19252 17.7703 7.26261 17.7035 7.30861L12.3144 11.0494L19.2226 7.06085C19.2934 7.01969 19.3775 7.00784 19.4569 7.02785C19.5363 7.04785 19.6047 7.09811 19.6475 7.16789C19.6904 7.23768 19.7042 7.32144 19.6861 7.4013C19.668 7.48115 19.6194 7.55076 19.5506 7.59525L15.6217 10.1562L20.6157 7.27097C20.6865 7.23135 20.77 7.22077 20.8485 7.24145C20.9271 7.26213 20.9945 7.31246 21.0367 7.38185C21.0789 7.45124 21.0925 7.53428 21.0747 7.6135C21.0568 7.69273 21.009 7.76195 20.9412 7.80662L17.61 9.93353L21.8576 7.48109C21.9284 7.44077 22.0121 7.42961 22.0911 7.44997C22.17 7.47034 22.2379 7.52062 22.2803 7.59017C22.3228 7.65973 22.3366 7.74309 22.3186 7.82259C22.3007 7.9021 22.2526 7.97151 22.1843 8.01611L16.6309 11.5856L22.4522 8.22686C22.4874 8.20553 22.5265 8.19135 22.5673 8.18513C22.608 8.17891 22.6496 8.18077 22.6896 8.19062C22.7296 8.20046 22.7673 8.21809 22.8005 8.2425C22.8337 8.2669 22.8617 8.29761 22.8831 8.33286C22.9044 8.36811 22.9186 8.40722 22.9248 8.44796C22.931 8.48869 22.9292 8.53025 22.9193 8.57027C22.9095 8.61028 22.8918 8.64796 22.8674 8.68116C22.843 8.71436 22.8123 8.74243 22.7771 8.76376L18.1896 11.6722L21.5998 9.70083C21.6703 9.66138 21.7534 9.65068 21.8316 9.67097C21.9098 9.69126 21.9772 9.74097 22.0197 9.80974C22.0622 9.8785 22.0764 9.96101 22.0596 10.0401C22.0427 10.1191 21.9959 10.1886 21.9291 10.234L13.9445 15.512L18.4762 12.8997C18.5448 12.8604 18.6257 12.8484 18.7027 12.8662C18.7797 12.884 18.8472 12.9302 18.8916 12.9957C18.936 13.0611 18.954 13.1408 18.9422 13.219C18.9303 13.2971 18.8893 13.3679 18.8275 13.4171L15.532 16.0289L17.8477 14.6923C17.9169 14.6532 17.9983 14.6419 18.0756 14.6605C18.1528 14.6792 18.2201 14.7264 18.2638 14.7928C18.3075 14.8591 18.3244 14.9396 18.3111 15.0179C18.2978 15.0962 18.2553 15.1666 18.1921 15.2147L17.1697 15.9812L17.9851 15.512C18.0528 15.4723 18.133 15.4593 18.2098 15.4758C18.2866 15.4923 18.3544 15.5371 18.3998 15.6012C18.4452 15.6653 18.4649 15.7441 18.455 15.822C18.4452 15.8999 18.4064 15.9713 18.3464 16.022L16.6253 17.4916L18.1632 16.604C18.23 16.5663 18.3083 16.5544 18.3833 16.5705C18.4582 16.5866 18.5247 16.6296 18.5702 16.6914C18.6156 16.7532 18.6368 16.8295 18.6298 16.9058C18.6227 16.9822 18.588 17.0533 18.532 17.1058L17.1898 18.3389L18.3351 17.6772C18.4014 17.6373 18.4802 17.6233 18.5562 17.638C18.6323 17.6526 18.7002 17.6949 18.7469 17.7567C18.7937 17.8184 18.8159 17.8953 18.8093 17.9725C18.8028 18.0496 18.7679 18.1216 18.7114 18.1746L17.8734 18.9837L18.4931 18.6256C18.5557 18.5901 18.6285 18.577 18.6995 18.5884C18.7705 18.5998 18.8356 18.635 18.8839 18.6883C18.9319 18.7421 18.9598 18.8107 18.9632 18.8827C18.9665 18.9546 18.9449 19.0255 18.9021 19.0835L18.1187 20.1497L18.6882 19.8211C18.7489 19.7859 18.8197 19.7722 18.8891 19.782C18.9586 19.7918 19.0227 19.8246 19.0713 19.8752C19.12 19.9257 19.1502 19.9911 19.1573 20.0609C19.1643 20.1307 19.1478 20.2008 19.1103 20.2601L18.7967 20.7563C18.867 20.7529 18.9364 20.7733 18.9937 20.8141C19.0511 20.8549 19.093 20.9139 19.1128 20.9814C19.1325 21.049 19.129 21.1212 19.1027 21.1865C19.0765 21.2518 19.029 21.3064 18.968 21.3415L18.0553 21.8689C18.0074 21.8956 17.9534 21.9092 17.8985 21.9085Z" fill="#B5B5B5"/>
<path d="M8.57816 6.61673C8.51405 6.61673 8.45148 6.59709 8.39887 6.56044C8.34627 6.5238 8.30616 6.47191 8.28395 6.41177C8.26174 6.35163 8.25849 6.28612 8.27465 6.22408C8.29081 6.16204 8.32559 6.10644 8.37432 6.06477L10.6373 4.13293L9.60681 4.72754C9.54061 4.76623 9.46253 4.77934 9.38733 4.76437C9.31213 4.7494 9.24502 4.70741 9.19868 4.64632C9.15234 4.58523 9.12999 4.50928 9.13585 4.43283C9.1417 4.35638 9.17537 4.28472 9.23047 4.2314L10.9121 2.59122L10.5025 2.82768C10.4398 2.86405 10.3664 2.87758 10.2949 2.86597C10.2233 2.85435 10.158 2.81832 10.11 2.76398C10.0621 2.70965 10.0344 2.64037 10.0317 2.56794C10.0291 2.4955 10.0516 2.42438 10.0954 2.36667L11.0463 1.11223C10.9821 1.08609 10.9286 1.03901 10.8945 0.978627C10.8529 0.906673 10.8415 0.821131 10.8629 0.740801C10.8843 0.660471 10.9367 0.591927 11.0086 0.550234L11.8868 0.0421838C11.9495 0.00586292 12.0229 -0.00759061 12.0945 0.00411267C12.166 0.0158159 12.2313 0.0519529 12.2792 0.106374C12.3272 0.160795 12.3547 0.230137 12.3573 0.3026C12.3598 0.375063 12.3372 0.44617 12.2932 0.503819L11.5336 1.50738L12.7624 0.797987C12.8286 0.759291 12.9066 0.746188 12.9818 0.761153C13.057 0.776118 13.1242 0.818114 13.1705 0.879204C13.2168 0.940294 13.2392 1.01624 13.2333 1.0927C13.2275 1.16915 13.1938 1.2408 13.1387 1.29412L11.459 2.93368L13.2779 1.88308C13.3458 1.84236 13.4265 1.82878 13.5039 1.84504C13.5813 1.86131 13.6497 1.90623 13.6954 1.9708C13.7411 2.03537 13.7607 2.11482 13.7503 2.19324C13.7398 2.27165 13.7002 2.34323 13.6392 2.39364L11.3762 4.32611L13.7778 2.93932C13.8135 2.91841 13.853 2.90475 13.894 2.89915C13.9349 2.89355 13.9766 2.89611 14.0166 2.90668C14.0566 2.91725 14.0941 2.93563 14.1269 2.96075C14.1598 2.98587 14.1874 3.01724 14.208 3.05306C14.2287 3.08888 14.2421 3.12843 14.2474 3.16945C14.2528 3.21046 14.2499 3.25213 14.2391 3.29204C14.2283 3.33195 14.2096 3.36933 14.1843 3.40202C14.159 3.43471 14.1274 3.46206 14.0914 3.4825L8.73497 6.57533C8.68723 6.60264 8.63316 6.61692 8.57816 6.61673Z" fill="#B5B5B5"/>
<path fill-rule="evenodd" clip-rule="evenodd" d="M12.2706 1.00235L11.3958 1.50738L12.1554 0.503819C12.1994 0.44617 12.222 0.375063 12.2195 0.3026C12.2169 0.230137 12.1894 0.160795 12.1414 0.106374C12.0935 0.0519529 12.0282 0.0158159 11.9567 0.00411267C11.8851 -0.00759061 11.8117 0.00586292 11.749 0.0421838L10.8709 0.550234C10.7989 0.591927 10.7465 0.660471 10.7251 0.740801C10.7037 0.821131 10.7151 0.906673 10.7567 0.978627C10.7908 1.03901 10.8443 1.08609 10.9085 1.11223L9.95762 2.36667C9.91377 2.42438 9.89126 2.4955 9.89393 2.56794C9.89659 2.64037 9.92427 2.70965 9.97224 2.76398C10.0202 2.81832 10.0855 2.85435 10.1571 2.86597C10.2286 2.87758 10.302 2.86405 10.3647 2.82768L10.7743 2.59122L9.09268 4.2314C9.03758 4.28472 9.00391 4.35638 8.99805 4.43283C8.9922 4.50928 9.01455 4.58523 9.06089 4.64632C9.10723 4.70741 9.17434 4.7494 9.24954 4.76437C9.32474 4.77934 9.40282 4.76623 9.46902 4.72754L10.4995 4.13293L8.23652 6.06477C8.1878 6.10644 8.15302 6.16204 8.13686 6.22408C8.1207 6.28612 8.12395 6.35163 8.14616 6.41177C8.16837 6.47191 8.20848 6.5238 8.26108 6.56044C8.29876 6.58669 8.34155 6.60422 8.38636 6.61205L4.24545 9.00394L5.81351 7.37316C5.86633 7.31875 5.89766 7.24705 5.90168 7.17133C5.90571 7.09561 5.88216 7.02099 5.8354 6.9613C5.78863 6.9016 5.72183 6.86087 5.64734 6.84664C5.57286 6.83242 5.49574 6.84566 5.43027 6.88392L2.18126 8.75995L2.54631 7.77521C2.56906 7.7147 2.57256 7.64864 2.55632 7.58607C2.54009 7.5235 2.50492 7.46747 2.45562 7.42566C2.40632 7.38385 2.34531 7.35829 2.28093 7.35248C2.21655 7.34668 2.15194 7.36091 2.09596 7.39323L1.15513 7.93766C1.08368 7.97954 1.03171 8.04798 1.01054 8.12805C0.989373 8.20811 1.00073 8.29329 1.04214 8.36501C1.08355 8.43673 1.15164 8.48916 1.23157 8.51086C1.31149 8.53256 1.39675 8.52176 1.46874 8.48083L1.65314 8.37421L1.28371 9.35769C1.26116 9.41816 1.25781 9.48412 1.27413 9.54656C1.29045 9.60901 1.32563 9.66489 1.37489 9.7066C1.42414 9.74831 1.48506 9.7738 1.54934 9.77961C1.61362 9.78542 1.67812 9.77125 1.73405 9.73904L3.81831 8.53603L2.25026 10.1668C2.19743 10.2212 2.16611 10.2929 2.16208 10.3686C2.15806 10.4444 2.18161 10.519 2.22837 10.5787C2.27513 10.6384 2.34194 10.6791 2.41642 10.6933C2.49091 10.7075 2.56802 10.6943 2.63349 10.656L3.35919 10.2371L2.78402 10.6084C2.71581 10.653 2.66765 10.7224 2.64973 10.8019C2.63181 10.8814 2.64554 10.9648 2.68803 11.0343C2.73051 11.1039 2.7984 11.1542 2.87732 11.1745C2.95623 11.1949 3.03998 11.1837 3.11081 11.1434L8.11228 8.25817L3.56868 11.4275C3.5026 11.4739 3.45694 11.5439 3.44119 11.6231C3.42544 11.7022 3.44082 11.7844 3.48413 11.8525C3.52743 11.9207 3.59533 11.9694 3.6737 11.9888C3.75207 12.0081 3.83487 11.9964 3.90487 11.9563L6.35982 10.5394L4.14886 12.009C4.07816 12.0528 4.02777 12.1229 4.00877 12.2039C3.98978 12.2849 4.00373 12.3701 4.04756 12.4408C4.0914 12.5115 4.16152 12.5619 4.24251 12.5809C4.32349 12.5999 4.40871 12.5859 4.47941 12.5421L8.83986 10.0244L4.88835 12.7735C4.8232 12.8202 4.77838 12.89 4.76309 12.9687C4.7478 13.0474 4.76321 13.1289 4.80615 13.1966C4.8491 13.2642 4.91631 13.3129 4.994 13.3325C5.07169 13.3522 5.15396 13.3414 5.22392 13.3023L9.25884 10.9728L5.60088 13.4986C5.53316 13.5442 5.48587 13.6143 5.46905 13.6942C5.45224 13.7741 5.46722 13.8574 5.51083 13.9264C5.55443 13.9954 5.62321 14.0446 5.70257 14.0637C5.78193 14.0828 5.8656 14.0702 5.93582 14.0286L11.0119 11.0957L5.61781 14.8371C5.551 14.8831 5.50461 14.9532 5.48838 15.0327C5.47215 15.1121 5.48734 15.1948 5.53077 15.2633C5.57419 15.3318 5.64248 15.3809 5.72128 15.4001C5.80008 15.4193 5.88327 15.4073 5.95338 15.3665L9.36735 13.3957L5.44282 15.9542C5.37408 15.9987 5.32546 16.0683 5.30735 16.1481C5.28925 16.228 5.30309 16.3118 5.34593 16.3815C5.38877 16.4513 5.4572 16.5016 5.5366 16.5216C5.616 16.5416 5.70007 16.5297 5.77086 16.4886L8.61657 14.8459L5.27912 16.9784C5.208 17.0217 5.15698 17.0914 5.13728 17.1723C5.11757 17.2532 5.1308 17.3385 5.17405 17.4097C5.21731 17.4808 5.28704 17.5318 5.3679 17.5515C5.44877 17.5712 5.53416 17.558 5.60527 17.5147L10.6356 14.6101L5.08342 18.1789C5.01642 18.224 4.96938 18.2932 4.9521 18.3721C4.93482 18.451 4.94864 18.5335 4.99067 18.6024C5.0327 18.6714 5.09971 18.7214 5.17775 18.7422C5.25578 18.763 5.33882 18.7529 5.40958 18.714L9.49593 16.355L4.90843 19.2628C4.83958 19.3069 4.7907 19.3762 4.77222 19.4559C4.75374 19.5356 4.76711 19.6193 4.80949 19.6893C4.85188 19.7592 4.91991 19.8099 4.99908 19.8304C5.07826 19.8509 5.16232 19.8396 5.23333 19.7991L12.2706 15.7353V10.9951L12.1767 11.0493L12.2706 10.9841V8.5067L11.3575 9.03404L12.2706 8.39896V6.39868L9.9538 7.73632L12.2706 6.1209V3.73009L11.2384 4.32611L12.2706 3.4447V2.38533L11.3212 2.93368L12.2706 2.00698V1.00235ZM12.2706 18.5542V17.7014L11.6561 18.1884C11.5936 18.2374 11.552 18.3084 11.5398 18.3869C11.5276 18.4655 11.5457 18.5457 11.5904 18.6114C11.6351 18.6771 11.703 18.7234 11.7806 18.7409C11.8581 18.7585 11.9393 18.7459 12.008 18.7058L12.2706 18.5542ZM12.2706 17.125V15.7788L4.80493 20.7129C4.73876 20.7587 4.6927 20.8281 4.67628 20.9069C4.65985 20.9856 4.67432 21.0677 4.71669 21.1361C4.75906 21.2044 4.82609 21.2539 4.90392 21.2743C4.98175 21.2946 5.06442 21.2843 5.13485 21.2454L12.2706 17.125Z" fill="#F2A726"/>
<path d="M3.37915 11.792C4.08916 12.5942 4.98609 13.2942 5.64217 14.1127C4.00261 22.8531 3.70217 23.6597 11.8479 18.7686C20.02 23.6866 20.0482 22.7389 18.3252 13.9283C24.6451 7.72946 25.1877 7.65608 16.029 6.53648C12.4406 -2.08594 11.6008 -1.95172 8.00366 6.58478C4.12366 7.27535 -2.64971 6.99122 3.37915 11.792ZM16.0033 6.53711C15.8891 6.53711 15.928 6.47439 16.0033 6.53711V6.53711ZM2.14164 7.89003C9.09565 6.74221 8.37309 8.24692 11.2746 1.42964C11.5011 0.951697 11.836 0.0447329 12.3829 0.969886C13.3739 2.93058 14.1849 5.04683 15.2493 6.9423C24.2907 8.22622 23.6748 7.64165 17.4735 13.9515C18.1916 21.6237 20.8021 23.1397 12.3779 18.2574C10.2027 18.6676 8.31476 20.511 6.2581 21.3402C4.99362 21.6362 5.74566 18.8589 5.82845 18.3521C6.02038 16.2609 7.49561 13.7188 5.13286 12.3803C4.38521 11.1535 0.850815 9.35585 2.14227 7.89003H2.14164Z" fill="#262626"/>
</svg>
