<svg width="54" height="29" viewBox="0 0 54 29" fill="none" xmlns="http://www.w3.org/2000/svg">
<path d="M19.2415 22.6328C19.1416 22.633 19.0444 22.6002 18.965 22.5395C18.8856 22.4788 18.8285 22.3936 18.8026 22.2971C18.7766 22.2006 18.7832 22.0982 18.8214 22.0058C18.8596 21.9135 18.9272 21.8363 19.0138 21.7864L47.2494 5.48572C47.3515 5.42949 47.4713 5.41472 47.584 5.44448C47.6967 5.47424 47.7936 5.54624 47.8547 5.64556C47.9157 5.74487 47.9362 5.86386 47.9118 5.97786C47.8875 6.09185 47.8201 6.1921 47.7239 6.25779L36.7678 13.397L50.4674 5.49025C50.5704 5.43087 50.6926 5.41429 50.8077 5.44408C50.9228 5.47388 51.0216 5.54767 51.0828 5.64958C51.1441 5.75148 51.1628 5.87336 51.1351 5.98897C51.1074 6.10459 51.0354 6.2047 50.9346 6.26777L45.5773 9.63369L51.9036 5.98108C52.0061 5.92377 52.1269 5.90846 52.2404 5.93838C52.354 5.96829 52.4516 6.04109 52.5126 6.14146C52.5736 6.24183 52.5933 6.36195 52.5675 6.47654C52.5417 6.59113 52.4725 6.69127 52.3744 6.75588L41.5944 13.8325L52.888 7.31293C52.9907 7.25534 53.1119 7.24 53.2258 7.27015C53.3397 7.3003 53.4374 7.37358 53.4982 7.47448C53.559 7.57538 53.5782 7.69599 53.5517 7.81078C53.5252 7.92557 53.455 8.02554 53.3561 8.08954L49.9394 10.2461L53.0367 8.45788C53.1392 8.39957 53.2603 8.38342 53.3745 8.41287C53.4886 8.44232 53.5868 8.51506 53.6483 8.61566C53.7097 8.71627 53.7296 8.83685 53.7037 8.95185C53.6778 9.06686 53.6081 9.16725 53.5094 9.23177L47.8681 12.8835L53.0395 9.90042C53.1418 9.84413 53.2619 9.82949 53.3748 9.85955C53.4877 9.88961 53.5846 9.96204 53.6454 10.0618C53.7062 10.1615 53.7262 10.2809 53.7012 10.395C53.6762 10.5091 53.6082 10.6091 53.5112 10.6743L50.6597 12.5042L53.0377 11.1316C53.1403 11.0714 53.2625 11.054 53.3779 11.0831C53.4932 11.1121 53.5926 11.1854 53.6545 11.287C53.7163 11.3886 53.7358 11.5105 53.7087 11.6264C53.6816 11.7422 53.61 11.8428 53.5094 11.9064L53.0948 12.1722C53.199 12.1301 53.315 12.1283 53.4205 12.1669C53.526 12.2055 53.6134 12.2819 53.6658 12.3813C53.7182 12.4806 53.7319 12.5959 53.7042 12.7048C53.6764 12.8137 53.6093 12.9084 53.5158 12.9706L50.8802 14.7279L53.0377 13.4823C53.139 13.425 53.2584 13.409 53.3713 13.4373C53.4842 13.4657 53.5818 13.5364 53.644 13.6347C53.7063 13.7331 53.7283 13.8516 53.7056 13.9657C53.6829 14.0799 53.6172 14.1809 53.5221 14.248L50.7187 16.1859L53.0377 14.8477C53.1383 14.7899 53.2573 14.7729 53.3701 14.8002C53.483 14.8275 53.581 14.897 53.6441 14.9944C53.7073 15.0919 53.7306 15.2098 53.7095 15.3239C53.6883 15.438 53.6242 15.5397 53.5303 15.608L51.0934 17.3708L53.0367 16.2503C53.1376 16.1918 53.257 16.1744 53.3703 16.2017C53.4836 16.2289 53.5821 16.2987 53.6453 16.3966C53.7085 16.4945 53.7317 16.6129 53.7099 16.7274C53.6882 16.8419 53.6232 16.9436 53.5285 17.0115L53.1365 17.2918C53.2271 17.2667 53.3231 17.2698 53.4118 17.3008C53.5005 17.3317 53.5776 17.3891 53.6328 17.4651C53.6984 17.5569 53.7274 17.6699 53.7141 17.782C53.7009 17.894 53.6463 17.9971 53.5611 18.0712L52.0351 19.3948L53.0331 18.8169C53.125 18.7647 53.2322 18.7461 53.3363 18.7645C53.4404 18.7829 53.5348 18.837 53.6032 18.9176C53.6716 18.9982 53.7097 19.1001 53.711 19.2058C53.7123 19.3115 53.6766 19.4143 53.6101 19.4965L52.7029 20.6033C52.7866 20.5972 52.8704 20.6152 52.9442 20.6553C53.018 20.6953 53.0788 20.7557 53.1193 20.8292C53.1792 20.9332 53.1955 21.0567 53.1646 21.1727C53.1336 21.2887 53.058 21.3877 52.9542 21.448L51.0961 22.5212C51.0042 22.574 50.8968 22.593 50.7924 22.5748C50.688 22.5566 50.5932 22.5025 50.5246 22.4218C50.4559 22.3411 50.4177 22.2389 50.4166 22.1329C50.4154 22.0269 50.4514 21.9239 50.5182 21.8417L51.3347 20.8437L48.3916 22.5421C48.294 22.599 48.1786 22.6174 48.0681 22.5937C47.9576 22.5699 47.86 22.5058 47.7942 22.4139C47.7285 22.322 47.6995 22.2088 47.7128 22.0966C47.7262 21.9844 47.7809 21.8812 47.8663 21.8072L49.3923 20.4835L45.8241 22.5466C45.7233 22.6051 45.6038 22.6225 45.4905 22.5953C45.3772 22.568 45.2787 22.4982 45.2155 22.4004C45.1523 22.3025 45.1291 22.184 45.1509 22.0695C45.1726 21.955 45.2376 21.8533 45.3323 21.7855L45.6217 21.5777L43.9406 22.5475C43.8399 22.6053 43.7209 22.6223 43.6081 22.595C43.4953 22.5677 43.3972 22.4982 43.3341 22.4008C43.271 22.3034 43.2476 22.1855 43.2688 22.0713C43.29 21.9572 43.3541 21.8556 43.448 21.7873L45.8785 20.0281L41.5092 22.5503C41.4078 22.6093 41.2874 22.6267 41.1734 22.5989C41.0595 22.5711 40.9607 22.5002 40.8979 22.4011C40.8351 22.302 40.8131 22.1824 40.8366 22.0674C40.86 21.9525 40.9271 21.8511 41.0238 21.7845L43.829 19.8457L39.1376 22.5521C39.0359 22.6076 38.9168 22.6221 38.8047 22.5926C38.6926 22.5631 38.5961 22.4918 38.5349 22.3934C38.4738 22.2949 38.4526 22.1768 38.4757 22.0633C38.4989 21.9497 38.5646 21.8493 38.6595 21.7827L41.3005 20.0208L36.913 22.5539C36.8107 22.6102 36.6905 22.6248 36.5777 22.5948C36.4648 22.5647 36.3679 22.4923 36.3071 22.3925C36.2463 22.2928 36.2263 22.1735 36.2513 22.0594C36.2763 21.9453 36.3443 21.8452 36.4412 21.78L36.7642 21.5723L35.0604 22.5557C34.9583 22.6098 34.8394 22.6229 34.728 22.5923C34.6166 22.5617 34.521 22.4898 34.4608 22.3912C34.4007 22.2926 34.3804 22.1747 34.4041 22.0616C34.4279 21.9486 34.4938 21.8488 34.5886 21.7827L37.4456 19.9401L32.9093 22.5575C32.8068 22.6158 32.6857 22.632 32.5716 22.6025C32.4574 22.5731 32.3592 22.5004 32.2978 22.3997C32.2363 22.2991 32.2164 22.1786 32.2424 22.0636C32.2683 21.9486 32.338 21.8482 32.4366 21.7836L38.0806 18.1292L30.4071 22.5593C30.3043 22.6169 30.1832 22.6323 30.0693 22.6021C29.9554 22.572 29.8577 22.4987 29.7968 22.3978C29.736 22.2969 29.7168 22.1763 29.7434 22.0615C29.7699 21.9467 29.84 21.8467 29.9389 21.7827L33.3529 19.628L28.2723 22.5612C28.17 22.6224 28.0476 22.641 27.9318 22.6127C27.8159 22.5844 27.7158 22.5117 27.6532 22.4102C27.5906 22.3086 27.5704 22.1866 27.5972 22.0703C27.6239 21.9541 27.6953 21.853 27.796 21.7891L38.5678 14.7225L24.9908 22.5648C24.8877 22.6269 24.7641 22.6454 24.6473 22.6164C24.5305 22.5874 24.43 22.5132 24.3679 22.4101C24.3059 22.307 24.2873 22.1835 24.3163 22.0666C24.3453 21.9498 24.4195 21.8493 24.5226 21.7873L29.8836 18.4186L22.7009 22.5666C22.5985 22.6261 22.4769 22.6433 22.362 22.6143C22.2472 22.5854 22.1482 22.5127 22.0862 22.4118C22.0243 22.3108 22.0042 22.1897 22.0304 22.0742C22.0566 21.9587 22.1269 21.858 22.2264 21.7936L33.186 14.649L19.4674 22.5693C19.3992 22.6104 19.3211 22.6324 19.2415 22.6328Z" fill="#50A8FF"/>
<path d="M15.5844 28.0157C15.4939 28.0161 15.4054 27.9894 15.3302 27.939C15.255 27.8887 15.1966 27.817 15.1625 27.7332C15.1284 27.6495 15.1201 27.5574 15.1386 27.4688C15.1572 27.3803 15.2019 27.2993 15.2668 27.2364L15.872 26.6476L14.5501 27.4106C14.4529 27.4667 14.3383 27.4848 14.2285 27.4613C14.1187 27.4379 14.0215 27.3746 13.9557 27.2836C13.8899 27.1926 13.8602 27.0805 13.8723 26.9689C13.8844 26.8572 13.9374 26.7541 14.0212 26.6793L15.2215 25.6051L13.553 26.5668C13.4501 26.6226 13.3296 26.6365 13.2167 26.6055C13.1038 26.5745 13.0073 26.501 12.9473 26.4005C12.8873 26.3 12.8685 26.1801 12.8948 26.066C12.9211 25.952 12.9905 25.8525 13.0885 25.7884L17.1304 23.308L12.7229 25.8528C12.6205 25.9111 12.4993 25.9273 12.3852 25.8978C12.271 25.8684 12.1728 25.7956 12.1114 25.695C12.0499 25.5944 12.0301 25.4738 12.056 25.3588C12.0819 25.2438 12.1516 25.1434 12.2502 25.0789L27.2843 15.3713L11.2849 24.6099C11.1819 24.6693 11.0597 24.6858 10.9446 24.656C10.8295 24.6262 10.7307 24.5524 10.6695 24.4505C10.6083 24.3486 10.5895 24.2268 10.6172 24.1111C10.6449 23.9955 10.7169 23.8954 10.8177 23.8323L18.1102 19.2761L10.3123 23.7761C10.2101 23.8342 10.0894 23.8504 9.97548 23.8212C9.8616 23.792 9.76351 23.7197 9.70187 23.6196C9.64023 23.5195 9.61986 23.3994 9.64505 23.2845C9.67025 23.1697 9.73904 23.0691 9.83693 23.004L22.974 14.4105L8.88341 22.5422C8.78035 22.6003 8.6587 22.6158 8.54438 22.5855C8.43006 22.5551 8.33211 22.4813 8.27141 22.3798C8.21071 22.2783 8.19206 22.1571 8.21944 22.042C8.24682 21.9269 8.31807 21.8271 8.41798 21.7638L8.86072 21.4916L8.14309 21.9062C8.04024 21.9629 7.91943 21.9774 7.80606 21.9469C7.6927 21.9163 7.59561 21.8429 7.53522 21.7422C7.47483 21.6415 7.45583 21.5213 7.48222 21.4069C7.50862 21.2925 7.57835 21.1928 7.67676 21.1287L9.51032 19.9883L7.3574 21.2312C7.25506 21.2875 7.13494 21.3022 7.02207 21.2721C6.9092 21.2421 6.81227 21.1696 6.75147 21.0699C6.69067 20.9702 6.67069 20.8508 6.69568 20.7367C6.72067 20.6226 6.78871 20.5225 6.88563 20.4574L13.4124 16.284L6.34763 20.3648C6.24557 20.4254 6.12381 20.4436 6.00848 20.4155C5.89315 20.3874 5.79344 20.3152 5.73075 20.2144C5.66806 20.1136 5.64738 19.9922 5.67315 19.8763C5.69892 19.7605 5.76909 19.6593 5.8686 19.5946L15.3748 13.2501L5.02485 19.2226C4.92236 19.2774 4.80275 19.2907 4.6907 19.2599C4.57865 19.2291 4.4827 19.1564 4.42265 19.0569C4.3626 18.9574 4.34303 18.8387 4.36798 18.7251C4.39292 18.6116 4.46048 18.512 4.55671 18.4469L4.75086 18.3244L4.28997 18.5902C4.18841 18.6473 4.06876 18.6632 3.95583 18.6345C3.8429 18.6058 3.74535 18.5347 3.6834 18.436C3.62146 18.3373 3.59986 18.2186 3.6231 18.1044C3.64634 17.9902 3.71263 17.8893 3.80822 17.8227L11.8011 12.3792L2.98625 17.4689C2.88339 17.5313 2.75993 17.5503 2.64304 17.5217C2.52615 17.4932 2.42541 17.4193 2.36297 17.3164C2.30052 17.2136 2.2815 17.0901 2.31009 16.9732C2.33867 16.8563 2.41252 16.7556 2.51538 16.6932L2.93907 16.421L2.23958 16.8265C2.13817 16.8855 2.01784 16.903 1.90386 16.8751C1.78987 16.8473 1.6911 16.7764 1.62829 16.6773C1.56547 16.5782 1.54349 16.4586 1.56697 16.3437C1.59045 16.2287 1.65755 16.1273 1.7542 16.0608L9.55659 10.6508L1.14997 15.5028C1.04782 15.5665 0.924582 15.5869 0.807353 15.5597C0.690125 15.5325 0.588511 15.4598 0.524868 15.3577C0.461224 15.2555 0.440763 15.1323 0.467986 15.0151C0.495209 14.8978 0.567886 14.7962 0.670029 14.7326L6.48916 10.8668L0.942205 14.0694C0.840321 14.1284 0.719469 14.1455 0.605195 14.1171C0.490922 14.0887 0.392185 14.0169 0.329858 13.917C0.267531 13.8171 0.246499 13.6969 0.271209 13.5817C0.295918 13.4666 0.364433 13.3656 0.462267 13.3L7.1823 8.77918L3.48252 10.9149C3.38052 10.9738 3.25957 10.9908 3.14527 10.9622C3.03098 10.9336 2.9323 10.8616 2.87012 10.7615C2.80779 10.6612 2.78704 10.5405 2.81229 10.4252C2.83753 10.3098 2.90677 10.2088 3.0053 10.1437L7.5071 7.15519C7.43156 7.12705 7.36488 7.07929 7.31393 7.01682C7.26297 6.95435 7.22959 6.87944 7.21721 6.79978C7.20482 6.72012 7.21389 6.63861 7.24348 6.56362C7.27306 6.48863 7.32209 6.42288 7.38553 6.37314L13.0595 1.93666C13.0098 1.8336 13.0009 1.71556 13.0345 1.6062C13.0682 1.49684 13.1419 1.40424 13.2409 1.34695L15.4664 0.061367C15.5657 0.00526546 15.6825 -0.0113768 15.7935 0.0147556C15.9045 0.0408881 16.0016 0.107878 16.0655 0.202381C16.1293 0.296885 16.1552 0.411969 16.138 0.524712C16.1208 0.637455 16.0618 0.739584 15.9727 0.810759L13.0423 3.10248L17.4107 0.580316C17.513 0.516913 17.6362 0.496731 17.7534 0.524209C17.8705 0.551687 17.9719 0.624575 18.0353 0.726838C18.0987 0.829101 18.1189 0.952363 18.0914 1.06951C18.064 1.18665 17.9911 1.28808 17.8888 1.35148L15.5898 2.87839L18.1646 1.3914C18.2665 1.33235 18.3874 1.31524 18.5016 1.34367C18.6159 1.37211 18.7146 1.44387 18.777 1.54378C18.8393 1.64369 18.8603 1.76393 18.8356 1.87906C18.8109 1.9942 18.7424 2.09521 18.6446 2.16075L11.92 6.68342L18.5602 2.8548C18.6621 2.79681 18.7826 2.78056 18.8963 2.80947C19.01 2.83839 19.108 2.91021 19.1699 3.00987C19.2317 3.10953 19.2526 3.22927 19.2281 3.34398C19.2035 3.45868 19.1355 3.55943 19.0383 3.62506L13.2174 7.48815L18.5756 4.39441C18.677 4.3354 18.7973 4.31798 18.9113 4.3458C19.0253 4.37362 19.1241 4.44453 19.1869 4.54362C19.2497 4.64272 19.2717 4.7623 19.2482 4.87726C19.2247 4.99222 19.1576 5.09361 19.061 5.16014L11.2586 10.571L20.0744 5.48584C20.1769 5.42854 20.2977 5.41323 20.4112 5.44314C20.5248 5.47305 20.6224 5.54585 20.6834 5.64622C20.7444 5.74659 20.7641 5.86671 20.7383 5.9813C20.7125 6.09589 20.6433 6.19603 20.5453 6.26064L20.1261 6.52737L21.9324 5.48584C22.0338 5.43079 22.1523 5.4164 22.2639 5.44561C22.3755 5.47482 22.4717 5.54543 22.5331 5.64309C22.5944 5.74074 22.6163 5.8581 22.5942 5.9713C22.5721 6.0845 22.5078 6.18504 22.4142 6.25247L14.4204 11.696L25.1777 5.48584C25.2802 5.43106 25.3998 5.41771 25.5119 5.44854C25.6239 5.47937 25.7199 5.55203 25.7799 5.65152C25.8399 5.75102 25.8595 5.86977 25.8346 5.98328C25.8096 6.09679 25.7421 6.19639 25.6458 6.26154L25.4381 6.3931L27.0085 5.48584C27.1103 5.43031 27.2294 5.41581 27.3414 5.44532C27.4535 5.47484 27.55 5.54612 27.6112 5.64455C27.6724 5.74298 27.6936 5.86109 27.6704 5.97464C27.6472 6.0882 27.5815 6.18858 27.4867 6.25519L17.9841 12.5969L30.3064 5.48584C30.4088 5.42955 30.5289 5.41491 30.6417 5.44497C30.7546 5.47503 30.8515 5.54747 30.9123 5.6472C30.9731 5.74693 30.9931 5.86628 30.9681 5.98038C30.9431 6.09448 30.8751 6.19454 30.7782 6.25973L24.2586 10.4286L32.8213 5.48584C32.9242 5.4292 33.045 5.41464 33.1583 5.44523C33.2717 5.47582 33.3688 5.54917 33.4292 5.64987C33.4896 5.75056 33.5086 5.87075 33.4822 5.98517C33.4558 6.09958 33.3861 6.1993 33.2876 6.26336L31.4396 7.41376L34.7828 5.48584C34.8857 5.43003 35.0062 5.41618 35.1191 5.44718C35.232 5.47818 35.3286 5.55162 35.3886 5.65216C35.4486 5.7527 35.4674 5.87254 35.441 5.98662C35.4147 6.1007 35.3453 6.20019 35.2473 6.26427L34.8245 6.52556L36.6227 5.48584C36.7246 5.4317 36.8433 5.4184 36.9546 5.44865C37.0659 5.47891 37.1615 5.55043 37.222 5.64869C37.2824 5.74694 37.3032 5.86453 37.28 5.97754C37.2568 6.09055 37.1915 6.19048 37.0972 6.25701L23.9583 14.8505L40.1846 5.48584C40.2872 5.43175 40.4066 5.41898 40.5182 5.45017C40.6299 5.48137 40.7254 5.55415 40.7851 5.65356C40.8448 5.75297 40.8642 5.87147 40.8392 5.98472C40.8143 6.09796 40.7469 6.19734 40.6509 6.26245L33.3521 10.8205L42.5988 5.48584C42.701 5.43038 42.8206 5.41627 42.9328 5.44642C43.0451 5.47657 43.1416 5.54869 43.2022 5.64787C43.2629 5.74706 43.2831 5.86575 43.2588 5.97944C43.2345 6.09313 43.1674 6.19314 43.0715 6.25882L28.041 15.9664L46.1943 5.48584C46.2971 5.43166 46.4168 5.419 46.5286 5.45048C46.6405 5.48196 46.736 5.55518 46.7955 5.65503C46.855 5.75488 46.8738 5.87375 46.8482 5.98711C46.8226 6.10047 46.7545 6.19968 46.6579 6.26427L19.2361 23.0866C19.2221 23.1943 19.17 23.2935 19.0891 23.366L17.8888 24.4384L18.5593 24.0528C18.655 23.9968 18.768 23.9779 18.8767 23.9995C18.9855 24.0212 19.0826 24.0819 19.1496 24.1703C19.2166 24.2587 19.249 24.3685 19.2405 24.4791C19.232 24.5897 19.1833 24.6933 19.1036 24.7704L18.4613 25.3955C18.5676 25.3644 18.6817 25.3733 18.782 25.4205C18.8823 25.4677 18.9618 25.5499 19.0055 25.6518C19.0493 25.7536 19.0543 25.8679 19.0195 25.9731C18.9848 26.0783 18.9127 26.1672 18.8169 26.223L15.8112 27.9576C15.7422 27.9969 15.6638 28.017 15.5844 28.0157Z" fill="#50A8FF"/>
<path d="M48.2937 22.5812C48.9623 22.5812 49.6337 22.5957 50.3023 22.5812C50.762 22.602 51.2213 22.5318 51.6537 22.3745C52.0862 22.2173 52.4833 21.9762 52.8223 21.665C53.1613 21.3538 53.4355 20.9788 53.6291 20.5613C53.8227 20.1439 53.9319 19.6923 53.9504 19.2325C54.062 15.6615 53.9504 12.0706 53.9504 8.49694C53.9504 8.47608 53.9377 8.46428 53.935 8.44614C53.9323 8.42799 53.9495 8.41257 53.9477 8.39352C53.9057 7.58724 53.5521 6.82882 52.9615 6.27834C52.3709 5.72786 51.5895 5.42838 50.7823 5.44312C50.3522 5.42679 49.9186 5.44312 49.4885 5.44312H19.4765C19.5074 3.48799 19.7351 1.20443 17.5858 0.283565C15.8403 -0.46492 14.3143 0.382456 13.0169 1.49747L3.08063 10.0438C2.11078 10.8785 0.69546 11.7785 0.21643 13.016C-0.515725 14.9257 0.739916 16.1642 2.03729 17.2801L12.1604 25.9943C13.4796 27.1301 14.6753 28.3477 16.606 27.9331C17.305 27.8085 17.9499 27.4751 18.4557 26.9767C18.9615 26.4784 19.3044 25.8385 19.4393 25.1414C19.5264 24.2896 19.5404 23.4318 19.4811 22.5775H48.2937V22.5812ZM19.061 21.7728C18.8306 21.7728 18.1538 21.8935 18.1538 22.25C18.1538 23.8531 18.6219 27.2898 16.1088 27.2154C14.9766 27.1819 13.8842 25.899 13.0858 25.2113L4.09585 17.4724C3.30835 16.7938 2.08175 16.0208 1.60362 15.06C0.736287 13.3126 2.00463 12.1568 3.18315 11.1425L12.0107 3.54696C12.8971 2.68622 13.8365 1.88173 14.8232 1.1382C16.41 0.0948557 18.0703 1.73608 18.1519 3.32196C18.1964 4.18295 18.1519 5.05754 18.1519 5.92034C18.1519 6.14625 18.3515 6.25239 18.5647 6.25239H47.6032C49.6437 6.25239 52.4607 5.83234 52.6313 8.72376V18.3071C52.6313 19.7288 52.6648 21.605 50.7632 21.7728C50.0764 21.8327 49.357 21.7728 48.6684 21.7728H19.061Z" fill="#262626"/>
<path d="M13.5604 6.39304C13.3966 6.36405 13.2285 6.37129 13.0679 6.41423C12.9072 6.45718 12.7579 6.5348 12.6305 6.64163L6.47654 11.94L5.58743 12.7048C5.37332 12.8863 5.45679 13.1122 5.71354 13.1766C5.87721 13.2048 6.04507 13.1969 6.20538 13.1535C6.3657 13.1101 6.51459 13.0322 6.64166 12.9253L12.7974 7.62963L13.6865 6.86482C13.9015 6.68246 13.8171 6.45927 13.5604 6.39304Z" fill="#262626"/>
</svg>
