<svg width="82" height="97" viewBox="0 0 82 97" fill="none" xmlns="http://www.w3.org/2000/svg">
<path d="M36.0862 20.0092C35.9187 20.0091 35.7552 19.9578 35.6176 19.8623C35.48 19.7668 35.3749 19.6315 35.3162 19.4747C35.2575 19.3178 35.2482 19.1467 35.2893 18.9844C35.3304 18.822 35.4201 18.6761 35.5464 18.566L38.4755 16.0302L36.1717 17.3582C35.9936 17.4586 35.7844 17.4892 35.585 17.4438C35.3856 17.3984 35.2102 17.2803 35.0931 17.1127C34.9759 16.945 34.9255 16.7397 34.9515 16.5369C34.9775 16.334 35.0781 16.1481 35.2337 16.0154L37.6643 13.9864L36.1717 14.8487C36.0066 14.9436 35.8137 14.9783 35.6259 14.9469C35.4381 14.9155 35.267 14.8199 35.1417 14.6764C35.0165 14.5329 34.9449 14.3505 34.9392 14.1601C34.9335 13.9698 34.994 13.7833 35.1103 13.6326L37.7795 10.1769L36.1717 11.1034C36.0304 11.1845 35.8681 11.2217 35.7055 11.2105C35.543 11.1993 35.3874 11.14 35.2585 11.0403C35.1297 10.9405 35.0334 10.8047 34.9818 10.6501C34.9302 10.4955 34.9257 10.3291 34.9688 10.172L35.3999 8.61689C35.2522 8.54555 35.1299 8.4307 35.0494 8.28777C34.9407 8.09914 34.9112 7.87511 34.9673 7.66475C35.0235 7.4544 35.1607 7.27487 35.3489 7.16549L36.1717 6.68662C36.3131 6.60499 36.4756 6.56727 36.6385 6.57824C36.8013 6.58922 36.9573 6.6484 37.0864 6.74826C37.2156 6.84813 37.3121 6.98415 37.3637 7.13903C37.4153 7.29391 37.4197 7.46065 37.3763 7.61802L37.0834 8.67448L40.5654 6.66359C40.7304 6.56855 40.9232 6.53364 41.1109 6.56482C41.2987 6.596 41.4699 6.69133 41.5953 6.83457C41.7207 6.97781 41.7925 7.1601 41.7986 7.35036C41.8046 7.54063 41.7445 7.72711 41.6285 7.87802L38.9593 11.3337L45.122 7.776C45.3002 7.67554 45.5094 7.64503 45.7088 7.69042C45.9082 7.73582 46.0836 7.85385 46.2007 8.02152C46.3178 8.18919 46.3683 8.39446 46.3423 8.59732C46.3163 8.80019 46.2156 8.98609 46.06 9.11879L43.6394 11.1494L45.1418 10.2806C45.3191 10.177 45.5287 10.1435 45.7294 10.1866C45.9302 10.2297 46.1076 10.3463 46.2267 10.5135C46.3459 10.6807 46.3982 10.8865 46.3735 11.0903C46.3487 11.2941 46.2486 11.4813 46.0929 11.6151L43.1621 14.151L45.1533 12.9991C45.3106 12.9085 45.4934 12.8724 45.6733 12.8965C45.8532 12.9206 46.0201 13.0035 46.1479 13.1323C46.2758 13.2612 46.3575 13.4286 46.3803 13.6087C46.4031 13.7888 46.3657 13.9713 46.2739 14.1279L44.653 16.8744L45.1681 16.5765C45.357 16.4692 45.5807 16.4408 45.7903 16.4978C46 16.5547 46.1787 16.6922 46.2873 16.8804C46.396 17.0686 46.4258 17.2921 46.3702 17.5021C46.3147 17.7122 46.1783 17.8917 45.9909 18.0016L42.7639 19.8628C42.6065 19.9531 42.4236 19.9889 42.2438 19.9646C42.0639 19.9402 41.8971 19.857 41.7694 19.728C41.6418 19.599 41.5603 19.4314 41.5378 19.2513C41.5153 19.0712 41.5529 18.8887 41.6449 18.7322L43.2642 15.9874L36.4975 19.894C36.3732 19.9686 36.2311 20.0084 36.0862 20.0092Z" fill="#C3DADC"/>
<path d="M12.1431 29.6341C11.9807 29.6341 11.822 29.586 11.6868 29.4959C11.5517 29.4058 11.4463 29.2777 11.3838 29.1278C11.3213 28.9779 11.3046 28.8128 11.3358 28.6534C11.367 28.494 11.4446 28.3474 11.559 28.2321L14.1573 25.6304L10.9369 27.4883C10.7667 27.5849 10.5677 27.6178 10.3754 27.5809C10.1832 27.544 10.0105 27.4397 9.88816 27.2869C9.76587 27.1341 9.70206 26.9427 9.70819 26.7471C9.71432 26.5514 9.78998 26.3644 9.9216 26.2195L12.9692 22.9119L9.18439 25.094C9.01804 25.1899 8.82338 25.2246 8.63412 25.1921C8.44487 25.1596 8.27293 25.062 8.14811 24.916C8.02329 24.7701 7.95343 24.5851 7.95065 24.3931C7.94786 24.2011 8.01232 24.0142 8.13286 23.8647L10.6835 20.7184L10.5535 20.7924C10.4599 20.852 10.3551 20.8919 10.2456 20.9099C10.1361 20.928 10.0241 20.9236 9.91635 20.8972C9.80857 20.8708 9.70724 20.8229 9.61846 20.7563C9.52968 20.6897 9.45529 20.6059 9.39975 20.5098C9.34422 20.4138 9.3087 20.3074 9.29531 20.1973C9.28193 20.0871 9.29097 19.9754 9.32189 19.8688C9.35281 19.7622 9.40497 19.663 9.47522 19.5771C9.54548 19.4912 9.63239 19.4204 9.73072 19.369L13.7097 17.0652C13.8761 16.9693 14.0707 16.9345 14.26 16.967C14.4492 16.9995 14.6212 17.0972 14.746 17.2431C14.8708 17.389 14.9407 17.574 14.9435 17.766C14.9462 17.958 14.8818 18.145 14.7612 18.2944L12.2106 21.4424L16.8182 18.7832C16.9886 18.6854 17.1883 18.6518 17.3813 18.6885C17.5743 18.7252 17.7478 18.8297 17.8704 18.9831C17.9931 19.1366 18.0568 19.3289 18.05 19.5252C18.0432 19.7215 17.9665 19.9089 17.8335 20.0536L14.7859 23.3595L18.7008 21.0985C18.8736 20.9976 19.0772 20.9632 19.2736 21.0016C19.4699 21.04 19.6456 21.1486 19.7676 21.3072C19.8897 21.4658 19.9497 21.6634 19.9366 21.863C19.9235 22.0627 19.8381 22.2507 19.6963 22.3919L15.1447 26.9666C15.1647 26.9924 15.1823 27.0199 15.1973 27.0489C15.306 27.2375 15.3356 27.4616 15.2794 27.6719C15.2233 27.8823 15.0861 28.0618 14.8978 28.1712L12.5578 29.5239C12.4321 29.5975 12.2888 29.6356 12.1431 29.6341ZM67.7192 28.966C67.5664 28.966 67.4166 28.9235 67.2866 28.8431C67.1567 28.7628 67.0516 28.6479 66.9833 28.5112C66.9149 28.3745 66.886 28.2215 66.8997 28.0693C66.9135 27.9171 66.9693 27.7718 67.061 27.6496L69.4948 24.3831L65.4368 26.7247C65.2637 26.8221 65.0613 26.8535 64.8669 26.8133C64.6725 26.7731 64.4991 26.664 64.3789 26.506C64.2586 26.3481 64.1995 26.1519 64.2125 25.9538C64.2254 25.7557 64.3096 25.569 64.4494 25.428L65.9798 23.9141L63.6102 25.2816C63.435 25.3805 63.2296 25.4118 63.0329 25.3696C62.8362 25.3274 62.6617 25.2146 62.5426 25.0524C62.4234 24.8903 62.3678 24.6901 62.3862 24.4898C62.4047 24.2894 62.4959 24.1028 62.6426 23.9651L63.4407 23.2328L62.0387 24.0424C61.8668 24.1417 61.6648 24.1754 61.47 24.1374C61.2751 24.0994 61.1006 23.9923 60.9786 23.8358C60.8565 23.6792 60.7951 23.4839 60.8058 23.2857C60.8164 23.0875 60.8984 22.8998 61.0365 22.7573L63.6234 20.0865C63.5422 20.0227 63.4741 19.9439 63.4226 19.8545C63.3135 19.6655 63.2839 19.4409 63.3404 19.2301C63.3969 19.0193 63.5348 18.8396 63.7237 18.7305L66.5854 17.0767C66.7573 16.9775 66.9593 16.9438 67.1541 16.9818C67.3489 17.0197 67.5235 17.1269 67.6455 17.2834C67.7676 17.4399 67.8289 17.6353 67.8183 17.8335C67.8076 18.0317 67.7257 18.2194 67.5876 18.3619L66.3172 19.6784L69.1147 18.0657C69.2898 17.9668 69.4952 17.9354 69.6919 17.9777C69.8887 18.0199 70.0631 18.1327 70.1823 18.2948C70.3014 18.457 70.3571 18.6571 70.3386 18.8575C70.3202 19.0578 70.229 19.2445 70.0823 19.3822L69.2842 20.1128L70.678 19.3098C70.851 19.2124 71.0534 19.181 71.2478 19.2212C71.4423 19.2614 71.6156 19.3705 71.7359 19.5285C71.8562 19.6864 71.9153 19.8826 71.9023 20.0807C71.8893 20.2788 71.8051 20.4656 71.6653 20.6065L70.1349 22.1204L72.1277 20.9685C72.2916 20.8743 72.4829 20.8395 72.6694 20.8697C72.856 20.9 73.0264 20.9936 73.1521 21.1347C73.2778 21.2758 73.3511 21.4559 73.3596 21.6447C73.3681 21.8335 73.3114 22.0195 73.199 22.1714L70.7652 25.4346L70.9939 25.3046C71.1819 25.2062 71.4007 25.1843 71.6045 25.2435C71.8083 25.3026 71.9814 25.4382 72.0876 25.6219C72.1938 25.8056 72.2249 26.0233 72.1745 26.2294C72.124 26.4355 71.9958 26.6142 71.8167 26.728L68.1322 28.8541C68.0072 28.9279 67.8645 28.9666 67.7192 28.966ZM37.2234 9.77529C37.0572 9.77552 36.8949 9.72544 36.7577 9.63162C36.6205 9.5378 36.515 9.40465 36.455 9.2497C36.395 9.09475 36.3833 8.92525 36.4214 8.76352C36.4596 8.60179 36.5458 8.45541 36.6688 8.34364L39.8958 5.39806L34.5822 8.46541C34.4116 8.55993 34.213 8.59077 34.0217 8.55241C33.8305 8.51406 33.6591 8.40901 33.5381 8.25601C33.4171 8.10301 33.3544 7.91201 33.3612 7.71707C33.368 7.52214 33.4438 7.33596 33.5751 7.19174L36.2245 4.42717L34.5296 5.40464C34.3755 5.49362 34.1967 5.53026 34.0201 5.50906C33.8434 5.48786 33.6784 5.40997 33.5497 5.28707C33.4211 5.16416 33.3357 5.00286 33.3065 4.82736C33.2772 4.65186 33.3057 4.4716 33.3875 4.31362L34.1939 2.75526C34.0142 2.75216 33.8406 2.69037 33.6994 2.5793C33.5582 2.46824 33.4572 2.31402 33.4119 2.14018C33.3666 1.96635 33.3794 1.78245 33.4484 1.61659C33.5174 1.45072 33.6387 1.31199 33.794 1.22158L35.7045 0.115756C35.8588 0.0232207 36.0394 -0.0155096 36.2181 0.00563359C36.3968 0.0267768 36.5634 0.106599 36.6919 0.232592C36.8207 0.355148 36.9064 0.516144 36.936 0.691468C36.9657 0.866792 36.9378 1.04701 36.8564 1.20513L36.1505 2.5726L40.3977 0.115756C40.5691 0.0178702 40.7699 -0.015151 40.9636 0.0227147C41.1573 0.0605805 41.331 0.16681 41.4529 0.322029C41.5748 0.477247 41.6368 0.671112 41.6277 0.868265C41.6185 1.06542 41.5389 1.25272 41.4031 1.39601L38.7571 4.15565L45.6323 0.186515C45.8074 0.0888949 46.0122 0.0585934 46.2081 0.101304C46.404 0.144015 46.5776 0.256799 46.6962 0.418464C46.8148 0.580129 46.8703 0.779547 46.8523 0.979249C46.8343 1.17895 46.7439 1.36519 46.5982 1.50298L43.3696 4.4535L46.7727 2.49032C46.939 2.39535 47.1332 2.36138 47.3219 2.39427C47.5106 2.42716 47.6819 2.52484 47.8063 2.67048C47.9307 2.81612 48.0004 3.00059 48.0033 3.1921C48.0063 3.38361 47.9424 3.57015 47.8225 3.71957L45.963 6.02338L46.7727 5.54616C46.9615 5.43877 47.1852 5.41045 47.3949 5.46738C47.6046 5.52431 47.7832 5.66186 47.8919 5.85002C48.0005 6.03818 48.0303 6.26168 47.9748 6.47173C47.9193 6.68178 47.7829 6.86135 47.5954 6.97123L42.9368 9.6601C42.7705 9.75603 42.5758 9.79076 42.3866 9.75826C42.1973 9.72577 42.0254 9.6281 41.9005 9.48218C41.7757 9.33626 41.7059 9.15128 41.7031 8.95927C41.7003 8.76727 41.7648 8.58034 41.8853 8.43086L43.7481 6.12705L37.6348 9.6601C37.5105 9.73479 37.3684 9.77458 37.2234 9.77529Z" fill="#BF5555"/>
<path d="M40.7317 96.9892C40.5545 96.9895 40.3819 96.9325 40.2397 96.8268C40.0975 96.7211 39.9933 96.5723 39.9424 96.4025C39.8916 96.2328 39.8969 96.0512 39.9575 95.8847C40.0182 95.7183 40.131 95.5758 40.2791 95.4786L52.0598 87.7559L36.6852 96.6321C36.499 96.7412 36.2774 96.7729 36.0681 96.7201C35.8588 96.6674 35.6786 96.5345 35.5664 96.3502C35.4542 96.1658 35.4188 95.9448 35.4681 95.7347C35.5173 95.5245 35.6471 95.3421 35.8295 95.2268L47.6365 87.6572L33.0814 96.0694C32.8957 96.1714 32.6779 96.198 32.4731 96.1435C32.2684 96.089 32.0926 95.9576 31.9823 95.7767C31.872 95.5958 31.8358 95.3793 31.8811 95.1724C31.9265 94.9654 32.0499 94.7839 32.2257 94.6657L49.8959 83.2964L29.4002 95.1264C29.2141 95.2288 28.9957 95.2552 28.7906 95.2002C28.5854 95.1451 28.4095 95.0129 28.2997 94.8312C28.1898 94.6495 28.1544 94.4323 28.201 94.2251C28.2475 94.0179 28.3724 93.8367 28.5494 93.7195L45.6931 82.8587L26.3345 94.0272C26.1477 94.1402 25.9237 94.1744 25.7116 94.1223C25.4996 94.0701 25.317 93.9359 25.204 93.7491C25.091 93.5623 25.0567 93.3382 25.1089 93.1262C25.1611 92.9142 25.2953 92.7316 25.4821 92.6186L45.1533 80.178L23.4317 92.719C23.2461 92.8211 23.0282 92.8476 22.8235 92.7931C22.6187 92.7386 22.4429 92.6072 22.3327 92.4263C22.2224 92.2454 22.1861 92.0289 22.2315 91.822C22.2768 91.615 22.4002 91.4335 22.576 91.3153L50.2661 73.543L20.1883 90.9006C20.0008 91.0074 19.7789 91.0363 19.5703 90.9811C19.3618 90.9259 19.1832 90.791 19.0732 90.6054C18.9632 90.4198 18.9304 90.1985 18.982 89.989C19.0336 89.7795 19.1654 89.5986 19.349 89.4854L20.6655 88.684L18.6184 89.8655C18.5259 89.9214 18.4233 89.9585 18.3165 89.9747C18.2097 89.9909 18.1007 89.9859 17.9958 89.96C17.8909 89.9341 17.7921 89.8878 17.7051 89.8237C17.6181 89.7597 17.5446 89.6791 17.4887 89.5866C17.4328 89.4941 17.3957 89.3915 17.3795 89.2847C17.3633 89.1779 17.3683 89.0689 17.3942 88.964C17.4201 88.8591 17.4664 88.7603 17.5305 88.6733C17.5946 88.5863 17.6751 88.5128 17.7676 88.4569L45.3179 71.0023L16.0266 87.9139C15.8399 88.0151 15.6213 88.0402 15.4166 87.984C15.2118 87.9278 15.0367 87.7946 14.9278 87.6122C14.819 87.4298 14.7849 87.2125 14.8327 87.0056C14.8804 86.7986 15.0063 86.6182 15.1841 86.502L26.9927 79.2483L14.4139 86.5085C14.2269 86.6211 14.0028 86.6548 13.791 86.6022C13.5791 86.5496 13.3969 86.415 13.2843 86.228C13.1717 86.041 13.138 85.8169 13.1906 85.605C13.2432 85.3932 13.3778 85.2109 13.5648 85.0983L39.1486 69.0819L12.4063 84.5207C12.2189 84.6324 11.9947 84.6651 11.7832 84.6116C11.5716 84.558 11.39 84.4226 11.2783 84.2352C11.1666 84.0477 11.1339 83.8236 11.1874 83.612C11.241 83.4005 11.3764 83.2189 11.5638 83.1071L27.7283 73.1547L10.922 82.8636C10.7344 82.9751 10.5101 83.0075 10.2985 82.9536C10.087 82.8998 9.90549 82.7641 9.79398 82.5764C9.68247 82.3888 9.65008 82.1645 9.70393 81.9529C9.75778 81.7414 9.89347 81.5599 10.0811 81.4484L18.2333 76.4705L9.73227 81.3776C9.54572 81.4804 9.3266 81.5068 9.12098 81.4513C8.91536 81.3958 8.73927 81.2628 8.62973 81.0801C8.52018 80.8975 8.48573 80.6795 8.53361 80.472C8.58148 80.2644 8.70796 80.0836 8.88645 79.9674L32.7769 65.116L8.23315 79.2845C8.0457 79.3913 7.8238 79.4202 7.61523 79.365C7.40667 79.3098 7.22813 79.1749 7.11808 78.9893C7.00804 78.8037 6.97528 78.5823 7.02687 78.3728C7.07846 78.1634 7.21027 77.9825 7.39391 77.8693L10.0268 76.2747L7.31821 77.838C7.13153 77.9392 6.91295 77.9644 6.70817 77.9081C6.50339 77.8519 6.32828 77.7187 6.21946 77.5363C6.11064 77.354 6.07654 77.1366 6.12429 76.9297C6.17204 76.7228 6.29795 76.5423 6.47568 76.4261L21.5738 67.1599L6.25846 75.9949C6.07191 76.0977 5.85279 76.1241 5.64717 76.0686C5.44155 76.0131 5.26546 75.8801 5.15591 75.6974C5.04637 75.5148 5.01192 75.2968 5.05979 75.0893C5.10767 74.8818 5.23415 74.7009 5.41263 74.5847L29.5648 59.5655L5.12301 73.673C4.93556 73.785 4.71132 73.8179 4.49962 73.7645C4.28792 73.7111 4.10609 73.5758 3.99415 73.3884C3.8822 73.2009 3.8493 72.9767 3.90269 72.765C3.95608 72.5533 4.09138 72.3714 4.27883 72.2595L23.2639 60.543L4.22453 71.5338C4.03785 71.635 3.81926 71.6601 3.61448 71.6039C3.4097 71.5477 3.23459 71.4145 3.12577 71.2321C3.01695 71.0498 2.98285 70.8324 3.03061 70.6255C3.07836 70.4186 3.20427 70.2381 3.38199 70.1219L21.0687 59.2232L3.46098 69.383C3.27494 69.4811 3.05839 69.5043 2.85582 69.4477C2.65324 69.3911 2.48002 69.2591 2.37175 69.0788C2.26347 68.8985 2.22836 68.6836 2.27363 68.4782C2.3189 68.2728 2.44111 68.0925 2.61515 67.9744L27.3926 52.4912L2.73034 66.732C2.54331 66.8354 2.32338 66.862 2.1171 66.8061C1.91082 66.7502 1.73437 66.6163 1.62511 66.4326C1.51585 66.2489 1.48234 66.0299 1.53167 65.822C1.58101 65.614 1.70932 65.4335 1.88945 65.3185L7.67037 61.792L2.32882 64.8758C2.14396 64.9645 1.93263 64.981 1.73623 64.9221C1.53983 64.8631 1.37253 64.733 1.26709 64.5571C1.16165 64.3812 1.12568 64.1723 1.16623 63.9713C1.20677 63.7703 1.32091 63.5917 1.48629 63.4705L18.7928 52.7528L1.94869 62.47C1.76266 62.5681 1.54611 62.5912 1.34353 62.5347C1.14096 62.4781 0.967737 62.3461 0.859462 62.1657C0.751188 61.9854 0.716078 61.7705 0.761347 61.5651C0.806616 61.3597 0.928825 61.1794 1.10287 61.0613L21.1888 48.527L1.69363 59.7811C1.60092 59.8368 1.49814 59.8738 1.39116 59.8898C1.28417 59.9058 1.17507 59.9007 1.0701 59.8745C0.858084 59.8218 0.675718 59.6869 0.563118 59.4997C0.450518 59.3125 0.416907 59.0882 0.469679 58.8762C0.52245 58.6641 0.657282 58.4818 0.844512 58.3692L23.6802 43.9704L1.62945 56.6973C1.44427 56.7954 1.22864 56.8191 1.02655 56.7636C0.824467 56.7082 0.651157 56.5777 0.541985 56.3988C0.432813 56.22 0.396007 56.0062 0.439077 55.8011C0.482147 55.596 0.601846 55.4151 0.773753 55.2952L27.5736 38.0249L1.8911 52.8499C1.70576 52.9505 1.48888 52.9761 1.28521 52.9214C1.08155 52.8667 0.90666 52.7359 0.796647 52.556C0.686634 52.3761 0.649896 52.1608 0.694018 51.9546C0.73814 51.7484 0.859755 51.567 1.03375 51.4479L24.6412 36.1868L2.54604 48.9417C2.35923 49.0494 2.13759 49.0795 1.92883 49.0254C1.72007 48.9714 1.54087 48.8375 1.42979 48.6527C1.31872 48.4679 1.28465 48.2468 1.33491 48.0371C1.38518 47.8274 1.51577 47.6458 1.69857 47.5314L7.42353 43.9704L3.18946 46.4124C3.00455 46.513 2.7881 46.5389 2.58466 46.4848C2.38122 46.4307 2.20627 46.3007 2.0958 46.1215C1.98533 45.9423 1.94774 45.7275 1.99078 45.5215C2.03382 45.3154 2.15421 45.1337 2.32718 45.0137L21.0176 32.7541L4.67706 42.1866C4.49142 42.2887 4.27356 42.3152 4.06883 42.2607C3.8641 42.2062 3.6883 42.0748 3.57802 41.8939C3.46774 41.713 3.43149 41.4965 3.47682 41.2896C3.52215 41.0826 3.64556 40.9011 3.82136 40.7829L11.7827 35.6816L6.25846 38.8641C6.07353 38.9693 5.85504 38.9988 5.64885 38.9464C5.44266 38.8939 5.2648 38.7637 5.15259 38.5829C5.04039 38.4021 5.00256 38.1849 5.04706 37.9769C5.09156 37.7688 5.21491 37.5861 5.39124 37.4671L14.5012 31.4261L8.84366 34.691C8.66371 34.7941 8.45146 34.8254 8.24939 34.7787C8.04733 34.732 7.87034 34.6107 7.75387 34.4391C7.63739 34.2675 7.59001 34.0583 7.62121 33.8533C7.65241 33.6482 7.75989 33.4625 7.92214 33.3334L16.6256 26.4664C16.4344 26.5506 16.2183 26.5589 16.0212 26.4897C15.8241 26.4205 15.6607 26.2788 15.5642 26.0935C15.4676 25.9082 15.4452 25.6932 15.5015 25.4919C15.5577 25.2907 15.6884 25.1184 15.867 25.01L25.617 19.3805C25.797 19.2774 26.0092 19.2461 26.2113 19.2928C26.4134 19.3395 26.5903 19.4607 26.7068 19.6323C26.8233 19.8039 26.8707 20.0132 26.8395 20.2182C26.8083 20.4232 26.7008 20.6089 26.5386 20.7381L17.8565 27.5969L36.6539 16.7361C36.8394 16.6211 37.063 16.5845 37.2754 16.6343C37.4879 16.6841 37.6719 16.8163 37.7869 17.0018C37.9019 17.1873 37.9385 17.4109 37.8887 17.6234C37.8388 17.8358 37.7066 18.0198 37.5211 18.1348L28.3997 24.184L41.5363 16.5995C41.7225 16.4904 41.9442 16.4588 42.1534 16.5115C42.3627 16.5643 42.5429 16.6971 42.6551 16.8815C42.7673 17.0658 42.8027 17.2868 42.7535 17.497C42.7043 17.7071 42.5745 17.8895 42.392 18.0048L34.4455 23.1061L45.2043 16.8973C45.3897 16.792 45.6087 16.7627 45.8153 16.8156C46.0219 16.8686 46.1998 16.9996 46.3116 17.1812C46.4234 17.3628 46.4603 17.5807 46.4146 17.789C46.3689 17.9972 46.2442 18.1796 46.0666 18.2977L27.3811 30.5474L49.6309 17.7004C49.8182 17.588 50.0424 17.5546 50.2542 17.6075C50.4661 17.6604 50.6482 17.7954 50.7606 17.9826C50.873 18.1698 50.9064 18.394 50.8535 18.6059C50.8006 18.8177 50.6656 18.9999 50.4784 19.1123L44.7403 22.6815L52.1454 18.403C52.3309 18.2994 52.5493 18.2715 52.7549 18.3253C52.9605 18.3791 53.1373 18.5103 53.2483 18.6915C53.3593 18.8727 53.3959 19.0898 53.3504 19.2974C53.305 19.5049 53.181 19.6869 53.0044 19.8051L29.4068 35.0662L55.8644 19.7903C56.0497 19.6897 56.2666 19.6641 56.4703 19.7188C56.6739 19.7734 56.8488 19.9042 56.9588 20.0842C57.0688 20.2641 57.1056 20.4793 57.0615 20.6856C57.0173 20.8918 56.8957 21.0732 56.7217 21.1923L29.9169 38.4709L59.3283 21.4918C59.5142 21.3924 59.7312 21.3682 59.9344 21.4241C60.1376 21.48 60.3117 21.6118 60.4206 21.7923C60.5295 21.9728 60.565 22.1882 60.5198 22.394C60.4745 22.5999 60.352 22.7806 60.1774 22.8988L37.3599 37.2943L61.9662 23.0896C62.1524 22.9888 62.3703 22.9636 62.5747 23.0193C62.779 23.0751 62.9539 23.2075 63.0631 23.3889C63.1723 23.5704 63.2073 23.787 63.1608 23.9936C63.1144 24.2002 62.99 24.381 62.8136 24.4983L42.7376 37.026L64.1663 24.6546C64.3529 24.5518 64.572 24.5254 64.7776 24.5809C64.9832 24.6364 65.1593 24.7695 65.2689 24.9521C65.3784 25.1347 65.4129 25.3527 65.365 25.5603C65.3171 25.7678 65.1906 25.9487 65.0121 26.0648L47.671 36.799L66.0439 26.1916C66.2314 26.0847 66.4533 26.0558 66.6618 26.111C66.8704 26.1662 67.0489 26.3012 67.159 26.4867C67.269 26.6723 67.3018 26.8937 67.2502 27.1032C67.1986 27.3127 67.0668 27.4935 66.8832 27.6068L61.1352 31.1118L67.4476 27.4685C67.6338 27.3677 67.8518 27.3425 68.0561 27.3982C68.2604 27.454 68.4353 27.5863 68.5445 27.7678C68.6537 27.9493 68.6887 28.1659 68.6422 28.3725C68.5958 28.5791 68.4714 28.7599 68.2951 28.8771L43.5193 44.3571L69.3729 29.4317C69.5598 29.3264 69.7805 29.2983 69.9878 29.3533C70.1952 29.4083 70.3729 29.5422 70.483 29.7263C70.5931 29.9105 70.6269 30.1303 70.5772 30.339C70.5275 30.5477 70.3983 30.7288 70.2171 30.8436L52.5206 41.7571L70.8688 31.1645C71.0557 31.0592 71.2763 31.0311 71.4837 31.0861C71.691 31.1411 71.8687 31.275 71.9788 31.4591C72.0889 31.6433 72.1227 31.8631 72.073 32.0718C72.0234 32.2805 71.8942 32.4616 71.7129 32.5764L52.7378 44.2896L72.2823 33.0059C72.4687 32.9064 72.6861 32.8823 72.8897 32.9388C73.0933 32.9952 73.2674 33.1278 73.3759 33.3091C73.4844 33.4903 73.519 33.7064 73.4726 33.9125C73.4262 34.1186 73.3022 34.2989 73.1265 34.4162L48.9497 49.4518L73.7156 35.155C73.9021 35.0567 74.1192 35.0338 74.3221 35.0909C74.525 35.148 74.6983 35.2808 74.8061 35.4619C74.914 35.643 74.9482 35.8586 74.9018 36.0642C74.8553 36.2698 74.7317 36.4498 74.5565 36.5669L59.4715 45.8266L74.7902 36.9767C74.9776 36.8699 75.1995 36.8409 75.4081 36.8962C75.6166 36.9514 75.7952 37.0863 75.9052 37.2719C76.0153 37.4574 76.048 37.6788 75.9964 37.8883C75.9449 38.0978 75.813 38.2786 75.6294 38.3919L73.0475 39.9568L75.5866 38.4922C75.7732 38.3895 75.9923 38.3631 76.1979 38.4186C76.4035 38.4741 76.5796 38.6071 76.6892 38.7898C76.7987 38.9724 76.8332 39.1904 76.7853 39.3979C76.7374 39.6054 76.6109 39.7863 76.4324 39.9025L52.5337 54.7703L76.6579 40.8421C76.8449 40.7387 77.0648 40.7122 77.2711 40.768C77.4774 40.8239 77.6539 40.9579 77.7631 41.1415C77.8724 41.3252 77.9059 41.5442 77.8566 41.7521C77.8072 41.9601 77.6789 42.1407 77.4988 42.2557L69.3515 47.2253L77.3474 42.6095C77.5341 42.5083 77.7527 42.4831 77.9574 42.5394C78.1622 42.5956 78.3373 42.7288 78.4461 42.9112C78.555 43.0935 78.5891 43.3109 78.5413 43.5178C78.4936 43.7247 78.3676 43.9052 78.1899 44.0214L62.0106 53.9804L78.0385 44.729C78.2247 44.6281 78.4427 44.6029 78.647 44.6587C78.8513 44.7144 79.0263 44.8468 79.1355 45.0283C79.2446 45.2098 79.2796 45.4263 79.2332 45.633C79.1867 45.8396 79.0624 46.0203 78.886 46.1376L53.322 62.154L78.7412 47.4771C78.9279 47.3759 79.1465 47.3507 79.3512 47.407C79.556 47.4632 79.7311 47.5964 79.8399 47.7788C79.9488 47.9611 79.9829 48.1785 79.9351 48.3854C79.8874 48.5923 79.7615 48.7728 79.5837 48.889L67.7356 56.1641L79.1444 49.5818C79.3311 49.4688 79.5552 49.4346 79.7672 49.4867C79.9792 49.5389 80.1618 49.6731 80.2749 49.8599C80.3879 50.0467 80.4221 50.2707 80.37 50.4827C80.3178 50.6948 80.1836 50.8774 79.9968 50.9904L52.4498 68.4319L79.5426 52.7907C79.7302 52.6792 79.9545 52.6468 80.1661 52.7006C80.3776 52.7545 80.5591 52.8902 80.6706 53.0778C80.7821 53.2655 80.8145 53.4898 80.7607 53.7013C80.7068 53.9129 80.5711 54.0944 80.3835 54.2059L79.067 55.0089L79.6512 54.6798C79.837 54.574 80.0567 54.5447 80.2638 54.5982C80.4708 54.6516 80.6489 54.7835 80.7604 54.966C80.8718 55.1485 80.9079 55.3672 80.8609 55.5758C80.8139 55.7843 80.6875 55.9664 80.5085 56.0835L52.8201 73.8557L79.6084 58.3873C79.7945 58.285 80.0129 58.2585 80.2181 58.3136C80.4232 58.3686 80.5991 58.5008 80.709 58.6825C80.8188 58.8642 80.8542 59.0814 80.8077 59.2886C80.7611 59.4958 80.6362 59.677 80.4592 59.7943L60.7995 72.2282L79.2875 61.555C79.4739 61.4413 79.6978 61.4063 79.9099 61.4577C80.1221 61.5091 80.3052 61.6426 80.4189 61.829C80.5325 62.0154 80.5676 62.2392 80.5162 62.4514C80.4648 62.6636 80.3312 62.8466 80.1449 62.9603L62.9963 73.8376L78.6968 64.7738C78.8826 64.668 79.1023 64.6387 79.3093 64.6921C79.5164 64.7455 79.6945 64.8775 79.806 65.0599C79.9174 65.2424 79.9535 65.4611 79.9064 65.6697C79.8594 65.8783 79.7331 66.0604 79.5541 66.1774L61.879 77.5434L77.6765 68.4171C77.8625 68.3131 78.0815 68.2854 78.2875 68.3396C78.4935 68.3939 78.6704 68.5259 78.7811 68.708C78.8917 68.89 78.9274 69.1079 78.8807 69.3157C78.834 69.5236 78.7085 69.7052 78.5306 69.8224L66.7202 77.392L76.3765 71.8168C76.5614 71.7162 76.7779 71.6903 76.9813 71.7444C77.1847 71.7985 77.3597 71.9286 77.4702 72.1078C77.5806 72.287 77.6182 72.5017 77.5752 72.7078C77.5321 72.9138 77.4117 73.0956 77.2388 73.2156L65.463 80.9366L74.3491 75.8074C74.5327 75.7048 74.7485 75.6764 74.9524 75.728C75.1562 75.7796 75.3325 75.9072 75.4452 76.0847C75.5579 76.2623 75.5983 76.4762 75.5582 76.6826C75.5181 76.889 75.4005 77.0722 75.2295 77.1946L64.2157 84.8087L70.7042 81.065C70.8863 80.9622 71.1007 80.9326 71.3039 80.9822C71.507 81.0319 71.6836 81.157 71.7979 81.3322C71.9121 81.5074 71.9553 81.7195 71.9187 81.9254C71.8821 82.1313 71.7686 82.3155 71.601 82.4407L65.3857 86.9858C65.5198 87.0511 65.6337 87.1517 65.715 87.2767C65.7964 87.4017 65.8423 87.5466 65.8477 87.6957C65.8531 87.8447 65.8178 87.9925 65.7458 88.1231C65.6736 88.2537 65.5674 88.3623 65.4383 88.4372L55.6883 94.0667C55.5062 94.1695 55.2918 94.199 55.0886 94.1494C54.8855 94.0998 54.7089 93.9746 54.5946 93.7995C54.4804 93.6243 54.4372 93.4122 54.4738 93.2063C54.5103 93.0004 54.6239 92.8161 54.7915 92.691L58.3015 90.1288L47.5312 96.3458C47.3472 96.4528 47.129 96.4844 46.9222 96.434C46.7155 96.3835 46.5364 96.2549 46.4224 96.0752C46.3085 95.8954 46.2686 95.6785 46.3112 95.47C46.3538 95.2615 46.4755 95.0776 46.6508 94.9569L57.663 87.3428L41.1447 96.8757C41.0194 96.9493 40.8769 96.9885 40.7317 96.9892Z" fill="#E26767"/>
<path d="M39.0631 90.3626C38.8877 90.3622 38.717 90.3057 38.576 90.2014C38.435 90.0971 38.331 89.9505 38.2792 89.7829C38.2274 89.6153 38.2304 89.4356 38.288 89.2699C38.3455 89.1042 38.4545 88.9612 38.5991 88.8618L53.8058 78.4453L34.4456 89.6139C34.2606 89.7174 34.0427 89.7455 33.8374 89.6922C33.6322 89.639 33.4554 89.5086 33.3439 89.3282C33.2325 89.1477 33.195 88.9313 33.2393 88.7239C33.2836 88.5165 33.4063 88.3343 33.5817 88.2151L48.9464 78.0998L30.725 88.6199C30.5382 88.7277 30.3165 88.7577 30.1078 88.7037C29.899 88.6497 29.7198 88.5158 29.6087 88.331C29.4977 88.1461 29.4636 87.9251 29.5138 87.7154C29.5641 87.5057 29.6947 87.3241 29.8775 87.2097L33.0452 85.235L28.5577 87.8251C28.3724 87.9257 28.1555 87.9513 27.9519 87.8966C27.7482 87.8419 27.5733 87.7112 27.4633 87.5312C27.3533 87.3513 27.3165 87.1361 27.3607 86.9298C27.4048 86.7236 27.5264 86.5422 27.7004 86.4231L46.1309 74.4795L25.5217 86.3737C25.4291 86.4295 25.3264 86.4665 25.2195 86.4825C25.1126 86.4986 25.0036 86.4935 24.8987 86.4674C24.7938 86.4414 24.6951 86.3949 24.6081 86.3307C24.5212 86.2665 24.4477 86.1858 24.392 86.0932C24.3362 86.0006 24.2992 85.8979 24.2832 85.791C24.2671 85.6841 24.2722 85.5751 24.2983 85.4702C24.3243 85.3653 24.3708 85.2666 24.435 85.1796C24.4992 85.0927 24.5799 85.0192 24.6725 84.9635L34.7369 78.6543L23.4515 85.1692C23.2656 85.2685 23.0487 85.2927 22.8454 85.2368C22.6422 85.1809 22.4682 85.0491 22.3593 84.8687C22.2503 84.6882 22.2148 84.4728 22.2601 84.2669C22.3053 84.061 22.4279 83.8804 22.6024 83.7622L35.7144 75.5162L21.4275 83.7638C21.2412 83.8703 21.0206 83.8998 20.8129 83.846C20.6052 83.7922 20.4267 83.6594 20.3155 83.4758C20.2043 83.2923 20.1692 83.0726 20.2177 82.8636C20.2662 82.6545 20.3944 82.4727 20.5751 82.3569L40.3467 69.7699L19.2175 81.9685C19.0313 82.0776 18.8096 82.1092 18.6004 82.0565C18.3911 82.0037 18.2109 81.8709 18.0987 81.6866C17.9864 81.5022 17.9511 81.2812 18.0003 81.071C18.0495 80.8609 18.1793 80.6785 18.3618 80.5632L41.9462 65.4453L17.0387 79.821C16.8525 79.9219 16.6346 79.9471 16.4302 79.8914C16.2259 79.8356 16.051 79.7032 15.9418 79.5218C15.8326 79.3403 15.7976 79.1237 15.8441 78.9171C15.8905 78.7104 16.0149 78.5297 16.1912 78.4124L33.6426 67.4447L15.4195 77.9648C15.2334 78.0672 15.0149 78.0936 14.8098 78.0386C14.6047 77.9835 14.4288 77.8513 14.3189 77.6696C14.209 77.4879 14.1737 77.2707 14.2202 77.0635C14.2668 76.8563 14.3916 76.6751 14.5687 76.5579L34.0244 64.2934L13.9088 75.9046C13.7227 76.0069 13.5043 76.0333 13.2992 75.9783C13.0941 75.9233 12.9182 75.7911 12.8083 75.6094C12.6984 75.4276 12.663 75.2104 12.7096 75.0032C12.7561 74.796 12.881 74.6149 13.0581 74.4976L32.0941 62.5195L12.5776 73.7867C12.3913 73.8876 12.1734 73.9128 11.9691 73.857C11.7648 73.8013 11.5898 73.6689 11.4806 73.4874C11.3714 73.306 11.3364 73.0894 11.3829 72.8827C11.4294 72.6761 11.5537 72.4954 11.7301 72.3781L28.8161 61.672L11.4602 71.6886C11.2728 71.8006 11.0485 71.8334 10.8368 71.7801C10.6251 71.7267 10.4433 71.5914 10.3313 71.4039C10.2194 71.2165 10.1865 70.9922 10.2399 70.7805C10.2933 70.5688 10.4286 70.387 10.616 70.2751L17.7924 65.8517L10.6851 69.9542C10.4981 70.0576 10.2782 70.0841 10.0719 70.0283C9.86561 69.9724 9.68917 69.8384 9.5799 69.6548C9.47064 69.4711 9.43713 69.2521 9.48647 69.0442C9.53581 68.8362 9.66412 68.6556 9.84425 68.5406L11.0307 67.8182L10.0796 68.3662C9.89335 68.4671 9.67541 68.4922 9.47109 68.4365C9.26677 68.3808 9.09182 68.2484 8.98264 68.0669C8.87346 67.8854 8.83846 67.6688 8.88492 67.4622C8.93139 67.2556 9.05574 67.0748 9.23209 66.9576L24.0538 57.688L9.38513 66.1512C9.19918 66.2552 8.98015 66.283 8.77414 66.2287C8.56813 66.1744 8.39119 66.0424 8.28055 65.8603C8.16992 65.6783 8.1342 65.4604 8.18093 65.2526C8.22765 65.0447 8.35317 64.8631 8.53108 64.7459L29.7212 51.2522L8.74007 63.3636C8.55443 63.4657 8.33656 63.4923 8.13184 63.4378C7.92711 63.3832 7.7513 63.2519 7.64103 63.071C7.53075 62.8901 7.4945 62.6736 7.53983 62.4666C7.58516 62.2597 7.70857 62.0782 7.88437 61.96L30.0997 47.6714L8.33196 60.2337C8.14601 60.3377 7.92698 60.3655 7.72097 60.3112C7.51496 60.2569 7.33802 60.1249 7.22738 59.9429C7.11675 59.7608 7.08103 59.5429 7.12776 59.3351C7.17448 59.1272 7.3 58.9456 7.47791 58.8284L26.5896 46.5771L8.2069 57.1894C8.02185 57.2887 7.80583 57.3136 7.60309 57.2588C7.40035 57.2039 7.22624 57.0737 7.11643 56.8947C7.00662 56.7157 6.96942 56.5014 7.01246 56.2959C7.0555 56.0903 7.17551 55.909 7.34791 55.789L27.3186 42.789L8.4126 53.7123C8.32043 53.7687 8.21806 53.8064 8.11132 53.8233C8.00459 53.8401 7.89558 53.8358 7.79053 53.8105C7.68547 53.7852 7.58643 53.7394 7.49905 53.6759C7.41167 53.6123 7.33767 53.5322 7.28126 53.44C7.22486 53.3478 7.18716 53.2454 7.17033 53.1387C7.15349 53.032 7.15784 52.923 7.18313 52.8179C7.20842 52.7129 7.25415 52.6138 7.31772 52.5264C7.38128 52.4391 7.46144 52.3651 7.55361 52.3086L23.5305 41.9415L8.98032 50.334C8.79555 50.436 8.57864 50.4631 8.37444 50.4096C8.17025 50.3562 7.9944 50.2264 7.88324 50.047C7.77208 49.8676 7.73412 49.6523 7.77721 49.4457C7.8203 49.239 7.94114 49.0569 8.11475 48.9369L24.2842 38.1929L10.1125 46.3747C9.92854 46.4817 9.71029 46.5133 9.50354 46.4629C9.2968 46.4124 9.11765 46.2838 9.00371 46.1041C8.88978 45.9243 8.84992 45.7074 8.8925 45.4989C8.93508 45.2904 9.0568 45.1065 9.23209 44.9858L24.3187 34.5265L12.3669 41.4363C12.1824 41.549 11.9609 41.5845 11.7504 41.5352C11.5398 41.4859 11.3572 41.3557 11.2419 41.1727C11.1267 40.9898 11.0881 40.7688 11.1345 40.5576C11.1809 40.3464 11.3085 40.162 11.4898 40.0442L17.6805 35.8249L15.1233 37.3059C14.9415 37.4092 14.7273 37.4395 14.524 37.3906C14.3208 37.3416 14.1438 37.2172 14.029 37.0425C13.9142 36.8678 13.8702 36.6559 13.906 36.4499C13.9417 36.244 14.0545 36.0593 14.2215 35.9335L19.6108 31.9331C19.4797 31.8652 19.3693 31.7633 19.2911 31.6381C19.213 31.5128 19.17 31.3689 19.1666 31.2213C19.1632 31.0737 19.1996 30.9279 19.272 30.7993C19.3444 30.6706 19.45 30.5637 19.5778 30.4899L28.4952 25.3426C28.677 25.2393 28.8912 25.209 29.0945 25.2579C29.2977 25.3069 29.4747 25.4313 29.5895 25.606C29.7043 25.7807 29.7483 25.9926 29.7125 26.1986C29.6768 26.4045 29.564 26.5892 29.397 26.715L26.6637 28.7325L35.7966 23.4666C35.981 23.3596 36.1997 23.3284 36.4067 23.3794C36.6136 23.4304 36.7927 23.5598 36.9062 23.7402C37.0196 23.9207 37.0586 24.1381 37.015 24.3468C36.9713 24.5554 36.8484 24.739 36.6721 24.8588L30.4847 29.078L40.7268 23.1655C40.9107 23.0584 41.129 23.0268 41.3357 23.0773C41.5425 23.1278 41.7216 23.2564 41.8356 23.4361C41.9495 23.6159 41.9893 23.8328 41.9468 24.0413C41.9042 24.2498 41.7825 24.4337 41.6072 24.5543L26.5205 35.0153L46.1391 23.6888C46.3234 23.5904 46.5383 23.5658 46.7401 23.6201C46.9419 23.6744 47.1155 23.8034 47.2257 23.981C47.3358 24.1585 47.3743 24.3714 47.3332 24.5763C47.2922 24.7812 47.1747 24.9628 47.0047 25.0842L30.8369 35.8249L50.1362 24.6827C50.3223 24.5688 50.5461 24.5335 50.7583 24.5846C50.9704 24.6356 51.1536 24.7689 51.2675 24.955C51.3814 25.1412 51.4167 25.365 51.3657 25.5771C51.3146 25.7893 51.1813 25.9725 50.9952 26.0864L35.015 36.4535L53.3319 25.879C53.5171 25.777 53.7345 25.7503 53.9389 25.8042C54.1433 25.8582 54.3191 25.9888 54.4298 26.1689C54.5405 26.3491 54.5776 26.5649 54.5335 26.7717C54.4893 26.9784 54.3672 27.1603 54.1925 27.2794L34.2202 40.268L56.4486 27.4325C56.6346 27.3285 56.8536 27.3008 57.0596 27.355C57.2656 27.4093 57.4426 27.5413 57.5532 27.7234C57.6638 27.9054 57.6996 28.1233 57.6528 28.3311C57.6061 28.539 57.4806 28.7206 57.3027 28.8378L38.1975 41.0907L59.0207 29.0682C59.207 28.9545 59.4309 28.9195 59.6431 28.9709C59.8552 29.0222 60.0383 29.1558 60.152 29.3422C60.2657 29.5285 60.3007 29.7524 60.2493 29.9646C60.1979 30.1767 60.0644 30.3598 59.878 30.4735L37.6529 44.7653L61.5137 30.9935C61.7 30.887 61.9206 30.8575 62.1283 30.9113C62.336 30.9652 62.5145 31.098 62.6257 31.2815C62.7369 31.465 62.772 31.6847 62.7235 31.8938C62.675 32.1028 62.5468 32.2846 62.3661 32.4005L41.176 45.8942L63.6217 32.9369C63.8079 32.836 64.0259 32.8109 64.2302 32.8666C64.4345 32.9223 64.6094 33.0547 64.7186 33.2362C64.8278 33.4177 64.8628 33.6343 64.8163 33.8409C64.7699 34.0475 64.6455 34.2283 64.4692 34.3455L49.631 43.6249L65.185 34.6467C65.372 34.5433 65.592 34.5167 65.7982 34.5726C66.0045 34.6285 66.181 34.7624 66.2902 34.9461C66.3995 35.1298 66.433 35.3487 66.3837 35.5567C66.3343 35.7646 66.206 35.9452 66.0259 36.0602L64.8526 36.7793L66.2629 35.9664C66.4495 35.8652 66.6681 35.8401 66.8729 35.8963C67.0777 35.9525 67.2528 36.0857 67.3616 36.2681C67.4704 36.4505 67.5045 36.6678 67.4568 36.8747C67.409 37.0817 67.2831 37.2621 67.1054 37.3783L59.9521 41.7901L67.3769 37.5017C67.5639 37.3891 67.788 37.3554 67.9999 37.4081C68.2117 37.4607 68.394 37.5953 68.5066 37.7823C68.6192 37.9693 68.6529 38.1934 68.6003 38.4053C68.5477 38.6171 68.413 38.7994 68.226 38.912L51.1499 49.6083L68.6489 39.5044C68.8348 39.4051 69.0518 39.3808 69.255 39.4368C69.4583 39.4927 69.6323 39.6245 69.7412 39.8049C69.8501 39.9854 69.8856 40.2008 69.8404 40.4067C69.7951 40.6125 69.6726 40.7932 69.4981 40.9114L50.4258 52.9224L69.8255 41.7325C70.0116 41.6302 70.2301 41.6038 70.4352 41.6588C70.6403 41.7138 70.8162 41.846 70.9261 42.0278C71.036 42.2095 71.0713 42.4267 71.0248 42.6339C70.9782 42.8411 70.8534 43.0222 70.6763 43.1395L51.2387 55.3875L70.8425 44.0692C71.0287 43.9684 71.2467 43.9432 71.451 43.9989C71.6553 44.0547 71.8302 44.1871 71.9394 44.3685C72.0486 44.55 72.0836 44.7666 72.0371 44.9732C71.9907 45.1798 71.8663 45.3606 71.69 45.4779L54.2469 56.4423L71.6571 46.3895C71.8425 46.2902 72.059 46.2657 72.2619 46.3211C72.4649 46.3765 72.6389 46.5075 72.7483 46.6872C72.8576 46.8669 72.894 47.0817 72.8499 47.2874C72.8058 47.4931 72.6845 47.6741 72.5111 47.7932L48.9382 62.9127L72.4107 49.3598C72.597 49.2533 72.8176 49.2238 73.0253 49.2776C73.233 49.3314 73.4115 49.4643 73.5227 49.6478C73.6339 49.8313 73.669 50.051 73.6205 50.2601C73.572 50.4691 73.4438 50.6509 73.2631 50.7667L53.4948 63.3538L72.8781 52.1638C73.064 52.0645 73.2809 52.0403 73.4842 52.0962C73.6874 52.1521 73.8614 52.2839 73.9703 52.4644C74.0793 52.6448 74.1148 52.8602 74.0695 53.0661C74.0243 53.272 73.9017 53.4526 73.7272 53.5708L60.6037 61.825L73.0607 54.6338C73.2472 54.5294 73.4669 54.5016 73.6735 54.5563C73.8801 54.6109 74.0573 54.7439 74.1676 54.9269C74.2779 55.1099 74.3127 55.3286 74.2646 55.5368C74.2165 55.7451 74.0893 55.9264 73.9099 56.0425L63.8537 62.3368L73.069 57.0199C73.2545 56.9163 73.4729 56.8884 73.6785 56.9422C73.884 56.996 74.0609 57.1272 74.1719 57.3084C74.2829 57.4896 74.3195 57.7067 74.274 57.9143C74.2286 58.1218 74.1045 58.3038 73.9279 58.422L55.4975 70.3639L72.7991 60.3753C72.9853 60.2744 73.2032 60.2492 73.4076 60.305C73.6119 60.3607 73.7868 60.4931 73.896 60.6746C74.0052 60.856 74.0402 61.0726 73.9937 61.2792C73.9473 61.4859 73.8229 61.6666 73.6466 61.7839L70.4805 63.7586L72.4107 62.6478C72.5958 62.5443 72.8137 62.5162 73.0189 62.5695C73.2242 62.6227 73.401 62.7531 73.5124 62.9335C73.6238 63.1139 73.6613 63.3304 73.617 63.5378C73.5727 63.7452 73.4501 63.9274 73.2747 64.0465L57.8967 74.1751L71.4234 66.3717C71.6075 66.2665 71.8251 66.2364 72.0308 66.2877C72.2365 66.339 72.4145 66.4678 72.5276 66.6471C72.6407 66.8264 72.6803 67.0425 72.6379 67.2503C72.5956 67.4581 72.4747 67.6415 72.3005 67.7623L57.0921 78.187L69.4487 71.0534C69.6332 70.9483 69.8512 70.9185 70.0571 70.9704C70.2631 71.0223 70.4409 71.1518 70.5536 71.3318C70.6662 71.5118 70.7049 71.7284 70.6615 71.9363C70.6182 72.1442 70.4961 72.3273 70.3208 72.4472L63.4259 77.1091L67.033 75.0258C67.2148 74.92 67.4302 74.8879 67.635 74.936C67.8398 74.9842 68.0184 75.1089 68.134 75.2846C68.2497 75.4603 68.2937 75.6736 68.2569 75.8808C68.2202 76.0879 68.1055 76.2731 67.9364 76.3983L62.2641 80.6224H62.2756C62.4567 80.6224 62.6328 80.6822 62.7765 80.7925C62.9202 80.9027 63.0235 81.0573 63.0703 81.2323C63.1172 81.4072 63.1051 81.5927 63.0358 81.7601C62.9664 81.9274 62.8439 82.0672 62.687 82.1578L51.6073 88.5541C51.4255 88.6599 51.2101 88.6921 51.0053 88.6439C50.8005 88.5958 50.622 88.4711 50.5063 88.2954C50.3906 88.1197 50.3467 87.9063 50.3834 87.6992C50.4202 87.4921 50.5349 87.3069 50.7039 87.1817L55.6505 83.4989L44.1397 90.1437C43.9552 90.2489 43.7372 90.2786 43.5313 90.2268C43.3254 90.1749 43.1475 90.0454 43.0348 89.8653C42.9222 89.6853 42.8835 89.4687 42.9269 89.2608C42.9703 89.053 43.0923 88.8699 43.2676 88.75L50.179 84.0814L39.4827 90.2524C39.3554 90.3264 39.2104 90.3646 39.0631 90.3626Z" fill="#EAF2F2"/>
<path d="M46.2329 57.497C46.0573 57.4975 45.8863 57.4418 45.7447 57.3381C45.6031 57.2344 45.4983 57.0881 45.4458 56.9207C45.3932 56.7532 45.3956 56.5733 45.4525 56.4073C45.5094 56.2413 45.6179 56.0978 45.7622 55.9979L47.1281 55.05L43.0832 57.3818C42.9023 57.4842 42.6894 57.5143 42.4872 57.4661C42.285 57.4179 42.1085 57.2949 41.9933 57.1219C41.878 56.949 41.8325 56.7388 41.8659 56.5336C41.8993 56.3284 42.0091 56.1435 42.1732 56.016L51.4905 48.917L41.1118 54.9135C40.9299 55.0154 40.7161 55.0445 40.5136 54.9948C40.3111 54.9452 40.1351 54.8205 40.0209 54.646C39.9068 54.4715 39.8632 54.2602 39.899 54.0548C39.9347 53.8493 40.047 53.6651 40.2133 53.5394L47.9475 47.8655L41.1102 51.8148C40.9301 51.9166 40.7183 51.9468 40.5169 51.8994C40.3155 51.852 40.1394 51.7305 40.0236 51.5591C39.9078 51.3877 39.8609 51.1789 39.892 50.9744C39.9232 50.7699 40.0303 50.5847 40.1919 50.4556L48.6996 43.7729L41.1118 48.1485C40.9296 48.2538 40.714 48.2852 40.5093 48.2364C40.3046 48.1875 40.1264 48.0621 40.0114 47.886C39.8963 47.7098 39.8531 47.4962 39.8907 47.2892C39.9282 47.0821 40.0437 46.8973 40.2133 46.7728L44.0113 43.9753L41.1118 45.6554C40.9317 45.7572 40.7199 45.7874 40.5185 45.74C40.3172 45.6926 40.1411 45.5711 40.0253 45.3997C39.9095 45.2283 39.8625 45.0195 39.8937 44.815C39.9249 44.6105 40.032 44.4253 40.1936 44.2962L44.6366 40.8191L41.1118 42.8497C40.9311 42.9514 40.7187 42.9811 40.5171 42.933C40.3154 42.8848 40.1394 42.7622 40.0242 42.5899C39.909 42.4175 39.8631 42.208 39.8958 42.0032C39.9284 41.7985 40.0371 41.6136 40.2002 41.4855L41.8803 40.1954L41.1118 40.6397C40.9392 40.7392 40.7364 40.7727 40.5409 40.734C40.3455 40.6953 40.1708 40.587 40.0492 40.4292C39.9275 40.2714 39.8673 40.0748 39.8796 39.876C39.892 39.6771 39.9761 39.4895 40.1162 39.3479L43.9159 35.4956L41.1184 37.1133C40.9497 37.2101 40.7521 37.2441 40.5607 37.2091C40.3693 37.174 40.1965 37.0723 40.073 36.922C39.9495 36.7717 39.8832 36.5824 39.886 36.3879C39.8888 36.1933 39.9605 36.006 40.0883 35.8593L41.6351 34.0936L41.1184 34.3915C40.9591 34.4844 40.7732 34.5211 40.5905 34.4958C40.4078 34.4704 40.239 34.3843 40.1111 34.2515C39.9831 34.1186 39.9036 33.9466 39.8851 33.7631C39.8666 33.5796 39.9104 33.3952 40.0093 33.2396L40.5375 32.397C40.386 32.3486 40.2518 32.2573 40.1511 32.1342C40.0504 32.0111 39.9875 31.8614 39.9701 31.7034C39.9527 31.5453 39.9815 31.3855 40.053 31.2435C40.1245 31.1014 40.2356 30.9831 40.373 30.9028L42.2654 29.8085C42.4247 29.7156 42.6106 29.6789 42.7933 29.7042C42.9759 29.7296 43.1448 29.8157 43.2727 29.9485C43.4006 30.0814 43.4802 30.2534 43.4987 30.4369C43.5171 30.6204 43.4734 30.8048 43.3745 30.9604L43.154 31.3142L45.1122 30.1837C45.281 30.0868 45.4786 30.0529 45.67 30.0879C45.8614 30.1229 46.0341 30.2246 46.1577 30.375C46.2812 30.5253 46.3474 30.7146 46.3446 30.9091C46.3418 31.1037 46.2701 31.2909 46.1424 31.4377L44.6004 33.2066L48.3853 31.0246C48.5577 30.9252 48.7603 30.8916 48.9556 30.9302C49.1509 30.9687 49.3255 31.0767 49.4473 31.2342C49.569 31.3917 49.6295 31.5879 49.6176 31.7866C49.6057 31.9853 49.5222 32.1729 49.3825 32.3147L45.5812 36.1638L51.9397 32.4925C52.1205 32.3887 52.3339 32.3574 52.5368 32.4049C52.7397 32.4524 52.9171 32.5751 53.033 32.7483C53.149 32.9215 53.1949 33.1322 53.1615 33.338C53.1281 33.5437 53.0178 33.7291 52.853 33.8567L51.1795 35.1418L53.9029 33.5703C54.083 33.4686 54.2948 33.4384 54.4962 33.4858C54.6975 33.5332 54.8736 33.6547 54.9894 33.8261C55.1052 33.9975 55.1522 34.2062 55.121 34.4107C55.0898 34.6152 54.9828 34.8005 54.8211 34.9296L50.3781 38.4149L56.1195 35.0958C56.3017 34.9905 56.5173 34.9591 56.722 35.0079C56.9267 35.0567 57.1049 35.1821 57.2199 35.3583C57.335 35.5345 57.3782 35.7481 57.3406 35.9551C57.3031 36.1622 57.1876 36.347 57.018 36.4715L53.2331 39.2541L57.8901 36.5653C58.0702 36.4635 58.282 36.4333 58.4834 36.4807C58.6848 36.5281 58.8609 36.6496 58.9767 36.821C59.0925 36.9925 59.1394 37.2012 59.1083 37.4057C59.0771 37.6102 58.97 37.7954 58.8084 37.9245L50.3007 44.6072L60.1742 38.9102C60.3564 38.805 60.572 38.7735 60.7767 38.8223C60.9814 38.8712 61.1596 38.9966 61.2747 39.1727C61.3897 39.3489 61.4329 39.5625 61.3953 39.7696C61.3578 39.9766 61.2423 40.1614 61.0727 40.2859L53.322 45.9615L61.8296 41.0511C62.0105 40.9488 62.2235 40.9187 62.4257 40.9669C62.6279 41.0151 62.8043 41.138 62.9196 41.311C63.0348 41.484 63.0803 41.6942 63.0469 41.8993C63.0136 42.1045 62.9038 42.2894 62.7396 42.4169L53.4191 49.5176L63.4571 43.7235C63.6408 43.6181 63.858 43.5876 64.0636 43.6383C64.2692 43.689 64.4474 43.817 64.561 43.9957C64.6746 44.1744 64.7149 44.39 64.6736 44.5977C64.6323 44.8054 64.5125 44.9892 64.3391 45.1108L62.9766 46.0553L64.2371 45.328C64.4154 45.224 64.6262 45.1909 64.8277 45.2351C65.0293 45.2792 65.2069 45.3975 65.3253 45.5665C65.4437 45.7354 65.4944 45.9427 65.4671 46.1473C65.4399 46.3518 65.3369 46.5386 65.1784 46.6708L59.6739 51.3031L65.2854 48.0646C65.4554 47.9668 65.6548 47.933 65.8476 47.9693C66.0403 48.0055 66.2138 48.1095 66.3367 48.2624C66.4596 48.4152 66.5238 48.607 66.5178 48.8031C66.5118 48.9991 66.436 49.1866 66.304 49.3317L62.6755 53.3074L66.0933 51.3327C66.2526 51.2405 66.4382 51.2044 66.6204 51.2302C66.8026 51.2559 66.971 51.342 67.0985 51.4746C67.226 51.6073 67.3054 51.7789 67.324 51.9619C67.3425 52.145 67.2991 52.329 67.2008 52.4846L66.0489 54.2865L66.4356 54.066C66.6236 53.9676 66.8424 53.9457 67.0462 54.0048C67.25 54.064 67.4231 54.1996 67.5293 54.3833C67.6355 54.567 67.6666 54.7847 67.6162 54.9908C67.5657 55.1969 67.4375 55.3756 67.2584 55.4894L63.9886 57.3818C63.8293 57.474 63.6438 57.5101 63.4616 57.4843C63.2793 57.4586 63.111 57.3725 62.9835 57.2399C62.8559 57.1072 62.7765 56.9356 62.758 56.7526C62.7394 56.5695 62.7828 56.3855 62.8812 56.2299L64.0232 54.4198L58.9022 57.3818C58.7323 57.4785 58.5336 57.5116 58.3415 57.4751C58.1495 57.4386 57.9768 57.3349 57.8542 57.1827C57.7317 57.0304 57.6673 56.8395 57.6727 56.6441C57.6781 56.4487 57.7528 56.2617 57.8835 56.1164L61.5038 52.1423L52.4301 57.3818C52.2521 57.4835 52.0425 57.5151 51.8425 57.4704C51.6424 57.4257 51.4662 57.3079 51.3484 57.1401C51.2306 56.9723 51.1798 56.7666 51.2057 56.5632C51.2317 56.3598 51.3327 56.1735 51.4888 56.0407L56.9933 51.4067L46.6442 57.3818C46.5196 57.4558 46.3777 57.4955 46.2329 57.497Z" fill="#3B7BE2"/>
<path d="M35.6798 1.4093C35.6321 1.4093 35.5811 1.4093 35.5251 1.41918C35.4996 1.46704 35.471 1.51322 35.4396 1.5574C35.7506 1.76146 35.7457 1.54588 35.6798 1.4093Z" fill="#262626"/>
<path d="M70.2451 29.0778C80.1186 21.049 66.5179 11.0752 60.9295 21.8142C56.5681 19.3277 51.759 17.7261 46.7776 17.1013V9.25684C49.5866 8.02924 48.178 4.00416 48.3409 1.58023C46.72 -1.17447 42.4497 0.634019 39.7658 0.137055C37.1954 0.115662 32.4923 -0.443834 32.8774 3.39201C33.1094 5.35189 31.89 8.94418 34.523 9.48064V17.3103C29.7125 18.0945 25.0708 19.6928 20.7972 22.0364C18.5345 18.2269 14.2774 14.8123 10.3807 18.8144C5.10662 21.5773 7.9041 26.2803 11.0982 29.4464C-16.4307 57.2863 11.4125 105.082 49.1966 95.7138C79.0457 90.1699 92.0606 50.4588 70.2451 29.0778ZM64.6025 20.3233C65.1965 19.5713 65.8877 18.4507 66.9211 18.5593C71.9829 20.3694 73.041 24.0045 68.8662 27.7038C66.9535 25.8673 64.862 24.2268 62.6228 22.8065L64.6025 20.3233ZM35.3721 1.65757C35.3911 1.62191 35.4137 1.58827 35.4395 1.55719C35.3694 1.51304 35.3029 1.46352 35.2404 1.40909C35.3344 1.42517 35.4302 1.42849 35.5251 1.41896C35.5712 1.32187 35.609 1.26592 35.6798 1.40909C42.611 2.00643 47.89 -1.59903 45.7968 8.36494C38.9134 7.6343 33.6607 11.6215 35.3721 1.65757ZM36.9058 9.76697V9.63697H44.3964V16.8495C41.9002 16.6744 39.3932 16.7234 36.9058 16.996V9.76697ZM10.1931 24.5772C8.38296 22.043 11.1475 20.0732 13.0186 18.7255C12.7997 18.8901 13.3789 18.5099 13.4365 18.5C13.4794 18.497 13.5218 18.4898 13.5632 18.4787C13.3987 18.5149 13.8348 18.449 13.8068 18.4507C16.2044 18.7502 17.1736 21.6892 18.7715 23.2229C16.6355 24.5638 14.6291 26.1008 12.7783 27.814C11.9226 26.7362 11.0389 25.6698 10.1931 24.5772ZM53.4389 93.6519C15.5034 107.062 -14.9085 56.8338 13.5665 29.012C60.2795 -12.5322 110.484 69.2859 53.4389 93.6519Z" fill="#262626"/>
<path d="M62.636 30.8535C12.2501 -3.2527 -21.6241 84.0287 40.1657 90.2276C70.8112 91.3186 87.2341 50.0854 62.636 30.8535ZM71.9352 62.2841C67.1136 94.2971 21.8224 98.1659 11.0159 67.93C-4.38998 15.4987 76.9328 8.29761 71.9352 62.2841Z" fill="#262626"/>
<path d="M56.8864 34.7221C34.6036 21.7221 39.9369 36.0073 39.4597 52.5585C36.4763 61.3871 59.3169 56.0488 65.0221 57.3817C73.7947 54.5085 62.0058 37.643 56.8864 34.7221ZM64.3655 48.4956C64.6074 49.1966 66.4587 55.7905 65.4681 56.0455H44.538C39.2721 58.1305 42.5452 35.043 42.0383 31.1644C47.0436 31.5644 51.8229 33.4177 55.7894 36.4967C59.7558 39.5756 62.7366 43.746 64.3655 48.4956Z" fill="#262626"/>
</svg>
