<svg width="259" height="62" viewBox="0 0 259 62" fill="none" xmlns="http://www.w3.org/2000/svg">
<g filter="url(#filter0_b_1_1775)">
<path d="M3.03852 11.1095C3.11262 5.66683 7.5943 1.25787 13.0372 1.19971C165.311 -0.427428 213.757 -0.28274 249.248 0.934625C254.676 1.12083 258.923 5.64832 258.811 11.0789C258.498 26.3394 258.168 37.5996 257.599 52.2565C257.389 57.6758 252.874 61.9318 247.451 61.8463C161.443 60.4899 109.164 59.6654 11.9604 61.7562C6.08171 61.8827 1.35072 56.9384 1.69211 51.0683C2.48854 37.3736 2.83224 26.2602 3.03852 11.1095Z" fill="#777B8D" fill-opacity="0.5"/>
<path d="M3.53847 11.1163C3.60883 5.94887 7.86717 1.75498 13.0425 1.69968C165.319 0.072513 213.754 0.217426 249.231 1.43433C254.383 1.61107 258.417 5.90877 258.311 11.0686C257.999 26.3263 257.668 37.5834 257.1 52.2372C256.9 57.3836 252.611 61.4276 247.459 61.3464L247.452 61.3463C161.447 59.9899 109.161 59.1653 11.9496 61.2563C6.36503 61.3765 1.86668 56.6785 2.19126 51.0973C2.98823 37.3935 3.33212 26.2725 3.53847 11.1163Z" stroke="url(#paint0_linear_1_1775)"/>
</g>
<path d="M89.3051 22.536C89.4731 22.632 89.5691 22.776 89.6171 22.968C89.9051 24.24 90.0731 25.488 90.0971 26.736C90.1211 27.984 90.0971 29.232 90.0491 30.504C90.0011 31.776 89.9531 33.072 89.9531 34.344C89.9291 35.616 89.9291 36.888 89.9291 38.184C89.9291 38.448 89.8331 38.664 89.6651 38.784C89.4971 38.928 89.2811 39 89.0651 39C88.8491 39 88.6571 38.928 88.4651 38.784C88.2971 38.664 88.2011 38.448 88.2011 38.184C88.2011 36.888 88.2011 35.616 88.2251 34.344C88.2491 33.072 88.2731 31.776 88.3451 30.504C88.3931 29.4 88.3931 28.32 88.3931 27.24C88.3691 26.16 88.2731 25.08 88.0811 24C87.3851 23.952 86.6891 23.928 86.0171 23.904C85.3211 23.88 84.6251 23.88 83.9291 23.904C83.9771 25.176 83.9771 26.448 83.9051 27.72C83.8571 28.968 83.8571 30.24 83.8811 31.512C83.8811 32.232 83.9051 32.928 83.9051 33.6C83.9051 34.296 83.9291 34.992 83.9531 35.688C83.9771 35.952 83.9771 36.192 83.9771 36.408C83.9771 36.624 83.9771 36.84 83.9531 37.056C83.9531 37.272 83.9291 37.488 83.9051 37.704C83.8811 37.92 83.8571 38.16 83.8331 38.424C83.8091 38.64 83.6891 38.808 83.4971 38.88C83.3051 38.976 83.1131 38.976 82.8971 38.928C82.6811 38.904 82.5131 38.784 82.3451 38.616C82.2011 38.448 82.1291 38.232 82.1531 37.968C82.2011 37.656 82.2251 37.368 82.2491 37.128C82.2731 36.864 82.2731 36.624 82.2731 36.384C82.2491 36.144 82.2251 35.928 82.2251 35.688C82.2011 35.448 82.2011 35.184 82.2011 34.92C82.1771 34.272 82.1531 33.624 82.1531 32.952C82.1531 32.304 82.1531 31.656 82.1531 31.008C82.1291 29.688 82.1531 28.368 82.2011 27.072C82.2491 25.752 82.2491 24.432 82.1771 23.112C82.1771 22.872 82.2491 22.656 82.4411 22.512C82.6331 22.368 82.8251 22.296 83.0411 22.272C84.0011 22.2 84.9611 22.176 85.9211 22.224C86.8811 22.272 87.8171 22.32 88.8011 22.368C88.9931 22.392 89.1611 22.44 89.3051 22.536ZM98.5605 22.704C98.9205 22.824 99.1365 22.944 99.2565 23.112C99.4245 23.328 99.5445 23.592 99.6405 23.904C99.7365 24.216 99.7845 24.576 99.8325 24.936C99.8805 25.32 99.8805 25.728 99.8805 26.136C99.8565 26.568 99.8325 26.976 99.7845 27.384C99.7365 27.792 99.5445 28.272 99.2085 28.776C98.8725 29.28 98.4645 29.736 97.9605 30.192C97.4805 30.624 96.9525 31.008 96.3765 31.296C95.8005 31.584 95.2725 31.728 94.7685 31.728C94.7205 31.728 94.6485 31.728 94.6005 31.728C94.5525 31.728 94.4805 31.728 94.4325 31.704L94.4085 32.496C94.4085 32.952 94.4325 33.384 94.4325 33.84C94.4325 34.296 94.4565 34.752 94.4805 35.184C94.4805 35.4 94.4805 35.64 94.4805 35.856C94.5045 36.096 94.5045 36.312 94.5045 36.552C94.5045 36.792 94.5285 37.008 94.5285 37.176C94.5525 37.344 94.5525 37.488 94.5525 37.608C94.5525 37.728 94.5525 37.848 94.5525 37.992C94.5525 38.112 94.5285 38.28 94.5045 38.496C94.5045 38.64 94.4565 38.76 94.3845 38.856C94.3125 38.952 94.1925 39 94.0245 39C93.9765 39 93.8805 38.976 93.7605 38.952C93.6645 38.928 93.5445 38.904 93.4245 38.88C93.3285 38.832 93.2325 38.808 93.1365 38.736C93.0405 38.688 92.9685 38.616 92.9205 38.568C92.8245 38.424 92.8005 38.304 92.8005 38.16C92.8245 38.016 92.8245 37.848 92.8485 37.704C92.8725 37.488 92.8725 37.344 92.8965 37.248C92.8965 37.152 92.8965 37.08 92.8965 37.008C92.8965 36.936 92.8725 36.864 92.8725 36.768C92.8485 36.672 92.8485 36.504 92.8245 36.288C92.8245 36.192 92.8245 36.096 92.8005 36C92.8005 35.904 92.8005 35.808 92.8005 35.712C92.7765 35.088 92.7525 34.488 92.7525 33.864C92.7285 33.264 92.7285 32.688 92.7285 32.112V31.896C92.7525 31.152 92.7525 30.408 92.7525 29.664C92.7285 28.896 92.7285 28.152 92.7045 27.408C92.6805 27.192 92.6805 26.952 92.6805 26.76C92.6565 26.544 92.6565 26.328 92.6325 26.088L92.5845 25.2C92.5845 25.152 92.5605 25.104 92.5605 25.056C92.5605 25.008 92.5605 24.96 92.5605 24.912C92.5605 24.792 92.5605 24.624 92.5605 24.408C92.5365 24.216 92.5365 24 92.5125 23.784C92.5125 23.592 92.5125 23.376 92.5125 23.208C92.5125 23.04 92.5125 22.896 92.5125 22.824C92.5605 22.416 92.7525 22.2 93.0885 22.2C93.1365 22.2 93.3045 22.2 93.5925 22.2C93.8805 22.2 94.2165 22.2 94.6245 22.224C95.0565 22.224 95.5125 22.248 95.9925 22.272C96.4965 22.32 96.9525 22.368 97.3845 22.44C97.8405 22.512 98.2245 22.608 98.5605 22.704ZM98.0325 27.48C98.1765 27.288 98.2485 27.12 98.2725 27C98.3205 26.808 98.3685 26.592 98.3925 26.352C98.4165 26.112 98.4165 25.848 98.4165 25.608C98.3925 25.368 98.3685 25.128 98.3205 24.912C98.2485 24.672 98.1765 24.504 98.0565 24.36C97.9845 24.264 97.7925 24.216 97.4805 24.144C97.1685 24.096 96.8085 24.072 96.4245 24.048C96.0165 24 95.6325 24 95.2725 23.976C94.8885 23.976 94.6005 23.952 94.4085 23.952H94.1685C94.1925 24.12 94.2165 24.288 94.2405 24.48C94.2645 24.696 94.2645 24.888 94.2885 25.08C94.3125 25.296 94.3125 25.488 94.3365 25.704C94.3365 25.896 94.3365 26.064 94.3365 26.208C94.3365 26.352 94.3605 26.472 94.3605 26.616C94.3605 26.76 94.3605 26.88 94.3605 27C94.3845 27.432 94.4085 27.864 94.4085 28.344C94.4085 28.824 94.4325 29.328 94.4325 29.88C94.4805 29.904 94.5525 29.928 94.6005 29.952C94.6485 29.952 94.6965 29.952 94.7445 29.952C94.9845 29.952 95.2245 29.904 95.4645 29.784C95.7285 29.688 95.9685 29.544 96.2085 29.352C96.4485 29.184 96.6885 28.968 96.9285 28.752C97.1685 28.536 97.3845 28.32 97.5765 28.104C97.7685 27.888 97.9125 27.672 98.0325 27.48ZM112.054 27.096C112.15 27.888 112.246 28.656 112.294 29.376C112.318 29.808 112.366 30.288 112.414 30.84C112.438 31.368 112.462 31.968 112.462 32.568C112.438 33.168 112.414 33.768 112.342 34.392C112.27 35.016 112.15 35.592 111.958 36.12C111.79 36.648 111.526 37.128 111.214 37.56C110.878 37.992 110.47 38.304 109.966 38.52C109.558 38.688 109.078 38.832 108.55 38.904C108.046 38.976 107.518 39 106.966 39C106.438 38.976 105.91 38.904 105.406 38.76C104.902 38.64 104.446 38.472 104.062 38.256C103.582 37.992 103.198 37.608 102.958 37.128C102.718 36.624 102.55 36.096 102.43 35.52C102.334 34.968 102.286 34.392 102.286 33.816C102.286 33.24 102.286 32.712 102.286 32.28C102.286 31.512 102.31 30.744 102.358 30C102.406 29.232 102.43 28.488 102.478 27.72C102.502 27.24 102.526 26.76 102.574 26.28C102.646 25.776 102.718 25.32 102.838 24.84C102.958 24.408 103.126 24.024 103.366 23.736C103.606 23.424 103.87 23.184 104.158 22.992C104.446 22.8 104.734 22.632 105.046 22.536C105.358 22.416 105.646 22.344 105.91 22.296C106.174 22.248 106.414 22.224 106.606 22.2C106.798 22.2 106.918 22.2 106.966 22.2C107.446 22.224 107.926 22.272 108.382 22.368C108.862 22.488 109.294 22.656 109.678 22.872C110.062 23.088 110.422 23.352 110.734 23.688C111.022 24.024 111.286 24.408 111.478 24.864C111.742 25.584 111.934 26.328 112.054 27.096ZM109.174 37.104C109.462 36.96 109.678 36.768 109.846 36.48C110.158 35.952 110.374 35.4 110.518 34.776C110.662 34.152 110.758 33.528 110.782 32.88C110.83 32.256 110.806 31.608 110.758 30.96C110.734 30.312 110.662 29.712 110.614 29.112C110.566 28.632 110.494 28.128 110.422 27.648C110.374 27.168 110.278 26.688 110.158 26.208C109.798 24.792 108.934 24 107.566 23.832C107.542 23.856 107.446 23.856 107.278 23.856C107.134 23.856 106.918 23.856 106.702 23.88C106.462 23.904 106.222 23.952 105.934 24.048C105.67 24.144 105.406 24.312 105.166 24.528C104.926 24.744 104.71 25.032 104.542 25.392C104.35 25.776 104.23 26.256 104.182 26.856C104.086 27.84 104.014 28.824 103.966 29.784C103.942 30.768 103.918 31.752 103.942 32.736C103.966 33.24 103.99 33.768 104.014 34.296C104.038 34.824 104.134 35.352 104.278 35.856C104.422 36.384 104.686 36.744 105.046 36.936C105.406 37.128 105.862 37.248 106.414 37.296C106.678 37.32 106.99 37.344 107.326 37.368C107.662 37.392 107.998 37.368 108.31 37.344C108.622 37.296 108.91 37.224 109.174 37.104ZM122.624 32.928C122.6 33.432 122.6 33.912 122.6 34.368C122.6 34.656 122.624 35.016 122.672 35.448C122.696 35.856 122.696 36.288 122.648 36.696C122.6 37.104 122.48 37.512 122.264 37.872C122.072 38.232 121.736 38.496 121.28 38.688C120.896 38.832 120.512 38.928 120.128 38.952C119.72 39 119.336 39.024 118.904 39C118.496 39 118.088 39 117.68 38.976C117.272 38.952 116.864 38.976 116.432 39C116.312 39 116.168 39 116.048 38.976C115.904 38.952 115.808 38.928 115.688 38.856C115.592 38.784 115.52 38.712 115.448 38.616C115.4 38.52 115.376 38.424 115.376 38.304C115.52 37.032 115.592 35.76 115.544 34.488C115.52 33.24 115.448 31.968 115.352 30.696C115.28 29.424 115.184 28.176 115.064 26.904C114.968 25.632 114.896 24.384 114.896 23.112C114.824 22.92 114.872 22.728 114.992 22.536C115.136 22.344 115.4 22.224 115.76 22.224C116.336 22.2 116.912 22.224 117.488 22.272C118.064 22.32 118.592 22.416 119.072 22.56C119.552 22.704 119.96 22.944 120.32 23.232C120.656 23.52 120.872 23.904 120.968 24.408C121.016 24.624 121.04 24.84 121.088 25.08C121.112 25.32 121.136 25.56 121.136 25.824C121.136 26.064 121.112 26.304 121.04 26.544C120.992 26.76 120.872 26.976 120.728 27.144C120.512 27.384 120.296 27.576 120.056 27.72C120.464 27.768 120.824 27.864 121.136 28.008C121.448 28.152 121.688 28.368 121.856 28.656C122.12 29.088 122.312 29.52 122.408 30C122.528 30.48 122.576 30.96 122.6 31.464C122.648 31.944 122.648 32.448 122.624 32.928ZM117.632 23.64C117.344 23.592 117.056 23.568 116.744 23.568C116.768 24.24 116.792 24.912 116.816 25.56C116.864 26.232 116.912 26.88 116.96 27.552C117.224 27.456 117.464 27.36 117.728 27.288C117.968 27.192 118.208 27.096 118.448 26.976C118.688 26.832 118.88 26.688 119 26.544C119.12 26.4 119.192 26.232 119.216 26.064C119.264 25.896 119.264 25.728 119.24 25.536C119.216 25.344 119.216 25.152 119.192 24.984C119.168 24.672 119.072 24.456 118.928 24.264C118.784 24.096 118.592 23.952 118.376 23.856C118.16 23.736 117.92 23.688 117.632 23.64ZM118.712 37.704C119.216 37.728 119.648 37.68 120.032 37.584C120.248 37.536 120.416 37.416 120.536 37.248C120.656 37.08 120.752 36.888 120.8 36.648C120.848 36.432 120.872 36.168 120.872 35.904C120.872 35.64 120.872 35.376 120.848 35.112C120.824 34.872 120.8 34.608 120.776 34.392C120.752 34.176 120.728 33.984 120.728 33.864C120.752 33.456 120.752 33.048 120.752 32.64C120.752 32.232 120.728 31.824 120.68 31.416C120.68 31.272 120.68 31.104 120.68 30.912C120.68 30.72 120.656 30.528 120.632 30.336C120.608 30.144 120.584 29.976 120.512 29.808C120.464 29.64 120.368 29.472 120.272 29.328C120.152 29.208 119.96 29.112 119.672 29.04C119.408 28.992 119.12 28.944 118.808 28.92C118.496 28.92 118.184 28.896 117.872 28.92C117.56 28.92 117.296 28.92 117.08 28.896C117.2 30.36 117.296 31.8 117.368 33.24C117.44 34.68 117.416 36.144 117.296 37.608C117.776 37.632 118.232 37.68 118.712 37.704ZM132.483 36.888C132.651 37.008 132.771 37.176 132.867 37.368C132.987 37.704 132.891 38.016 132.603 38.256C132.387 38.424 132.147 38.568 131.883 38.64C131.619 38.736 131.331 38.808 131.019 38.856C130.731 38.904 130.419 38.928 130.107 38.928C129.795 38.952 129.507 38.952 129.243 38.952C129.147 38.952 129.051 38.952 128.979 38.952C128.883 38.952 128.811 38.952 128.715 38.952C128.667 38.952 128.595 38.952 128.547 38.952C128.475 38.952 128.403 38.976 128.331 38.976C128.235 38.976 128.115 38.976 127.995 38.976C127.875 39 127.731 39 127.611 39C127.395 39 127.155 38.976 126.915 38.952C126.675 38.952 126.459 38.88 126.243 38.808C126.027 38.736 125.811 38.616 125.643 38.448C125.475 38.304 125.355 38.088 125.283 37.848C125.139 37.272 125.067 36.696 125.091 36.12C125.115 35.52 125.139 34.944 125.211 34.368C125.235 34.08 125.235 33.816 125.259 33.552C125.283 33.288 125.307 33.024 125.307 32.76C125.307 32.472 125.307 32.16 125.307 31.848C125.307 31.56 125.331 31.248 125.331 30.96C125.355 29.784 125.379 28.608 125.379 27.432C125.379 26.256 125.331 25.056 125.235 23.88C125.235 23.832 125.235 23.784 125.211 23.688C125.187 23.592 125.187 23.496 125.187 23.376C125.163 23.232 125.187 23.112 125.187 22.968C125.211 22.824 125.259 22.704 125.331 22.584C125.403 22.44 125.547 22.368 125.763 22.296C125.979 22.248 126.219 22.224 126.459 22.224C126.723 22.224 126.963 22.224 127.203 22.248C127.443 22.248 127.635 22.272 127.779 22.272C127.899 22.272 128.139 22.248 128.499 22.248C128.835 22.224 129.219 22.224 129.603 22.224C129.987 22.224 130.347 22.2 130.731 22.2C131.091 22.2 131.355 22.2 131.523 22.224C131.811 22.224 132.051 22.344 132.195 22.56C132.339 22.752 132.411 22.968 132.411 23.208C132.387 23.424 132.315 23.616 132.171 23.808C132.027 23.976 131.811 24.072 131.499 24.048C131.139 24.024 130.779 24.024 130.419 24.048C130.035 24.072 129.675 24.096 129.315 24.12C129.027 24.144 128.763 24.168 128.475 24.192C128.187 24.216 127.899 24.24 127.611 24.24C127.515 24.24 127.419 24.216 127.347 24.216C127.251 24.216 127.179 24.216 127.083 24.216C127.155 25.2 127.203 26.184 127.203 27.096C127.203 28.032 127.179 28.872 127.155 29.64C127.443 29.592 127.731 29.544 128.043 29.52C128.355 29.52 128.691 29.496 129.075 29.496C129.267 29.496 129.483 29.496 129.699 29.52C129.891 29.52 130.107 29.52 130.323 29.52C130.515 29.544 130.683 29.544 130.851 29.544C131.019 29.544 131.187 29.544 131.355 29.544C131.667 29.544 131.883 29.664 132.027 29.856C132.171 30.048 132.267 30.264 132.267 30.504C132.267 30.72 132.195 30.936 132.027 31.128C131.883 31.296 131.667 31.392 131.379 31.392C131.187 31.392 130.995 31.392 130.827 31.392C130.635 31.392 130.443 31.368 130.251 31.368C130.059 31.368 129.843 31.344 129.627 31.344C129.435 31.344 129.219 31.344 129.003 31.344C128.643 31.344 128.283 31.344 127.971 31.368C127.683 31.416 127.395 31.464 127.107 31.512L127.083 32.472C127.059 33.072 127.035 33.696 127.011 34.296C126.987 34.92 126.987 35.52 126.963 36.12C126.963 36.168 126.963 36.192 126.963 36.216C126.963 36.264 126.939 36.288 126.939 36.336C126.939 36.456 126.939 36.576 126.939 36.696C126.939 36.84 126.963 36.96 126.987 37.08C127.227 37.104 127.515 37.128 127.875 37.128C127.971 37.128 128.067 37.128 128.163 37.128C128.259 37.128 128.355 37.128 128.451 37.104C128.883 37.104 129.267 37.08 129.579 37.08C129.915 37.056 130.227 37.032 130.515 36.984C130.635 36.984 130.755 36.96 130.851 36.936C130.971 36.936 131.067 36.912 131.187 36.888C131.259 36.888 131.307 36.864 131.355 36.816C131.427 36.792 131.475 36.768 131.523 36.768H131.571C131.667 36.744 131.787 36.72 131.931 36.72C132.123 36.72 132.315 36.768 132.483 36.888ZM141.357 22.704C141.717 22.824 141.933 22.944 142.053 23.112C142.221 23.328 142.341 23.592 142.437 23.904C142.533 24.216 142.581 24.576 142.629 24.936C142.677 25.32 142.677 25.728 142.677 26.136C142.653 26.568 142.629 26.976 142.581 27.384C142.533 27.792 142.341 28.272 142.005 28.776C141.669 29.28 141.261 29.736 140.757 30.192C140.277 30.624 139.749 31.008 139.173 31.296C138.597 31.584 138.069 31.728 137.565 31.728C137.517 31.728 137.445 31.728 137.397 31.728C137.349 31.728 137.277 31.728 137.229 31.704L137.205 32.496C137.205 32.952 137.229 33.384 137.229 33.84C137.229 34.296 137.253 34.752 137.277 35.184C137.277 35.4 137.277 35.64 137.277 35.856C137.301 36.096 137.301 36.312 137.301 36.552C137.301 36.792 137.325 37.008 137.325 37.176C137.349 37.344 137.349 37.488 137.349 37.608C137.349 37.728 137.349 37.848 137.349 37.992C137.349 38.112 137.325 38.28 137.301 38.496C137.301 38.64 137.253 38.76 137.181 38.856C137.109 38.952 136.989 39 136.821 39C136.773 39 136.677 38.976 136.557 38.952C136.461 38.928 136.341 38.904 136.221 38.88C136.125 38.832 136.029 38.808 135.933 38.736C135.837 38.688 135.765 38.616 135.717 38.568C135.621 38.424 135.597 38.304 135.597 38.16C135.621 38.016 135.621 37.848 135.645 37.704C135.669 37.488 135.669 37.344 135.693 37.248C135.693 37.152 135.693 37.08 135.693 37.008C135.693 36.936 135.669 36.864 135.669 36.768C135.645 36.672 135.645 36.504 135.621 36.288C135.621 36.192 135.621 36.096 135.597 36C135.597 35.904 135.597 35.808 135.597 35.712C135.573 35.088 135.549 34.488 135.549 33.864C135.525 33.264 135.525 32.688 135.525 32.112V31.896C135.549 31.152 135.549 30.408 135.549 29.664C135.525 28.896 135.525 28.152 135.501 27.408C135.477 27.192 135.477 26.952 135.477 26.76C135.453 26.544 135.453 26.328 135.429 26.088L135.381 25.2C135.381 25.152 135.357 25.104 135.357 25.056C135.357 25.008 135.357 24.96 135.357 24.912C135.357 24.792 135.357 24.624 135.357 24.408C135.333 24.216 135.333 24 135.309 23.784C135.309 23.592 135.309 23.376 135.309 23.208C135.309 23.04 135.309 22.896 135.309 22.824C135.357 22.416 135.549 22.2 135.885 22.2C135.933 22.2 136.101 22.2 136.389 22.2C136.677 22.2 137.013 22.2 137.421 22.224C137.853 22.224 138.309 22.248 138.789 22.272C139.293 22.32 139.749 22.368 140.181 22.44C140.637 22.512 141.021 22.608 141.357 22.704ZM140.829 27.48C140.973 27.288 141.045 27.12 141.069 27C141.117 26.808 141.165 26.592 141.189 26.352C141.213 26.112 141.213 25.848 141.213 25.608C141.189 25.368 141.165 25.128 141.117 24.912C141.045 24.672 140.973 24.504 140.853 24.36C140.781 24.264 140.589 24.216 140.277 24.144C139.965 24.096 139.605 24.072 139.221 24.048C138.813 24 138.429 24 138.069 23.976C137.685 23.976 137.397 23.952 137.205 23.952H136.965C136.989 24.12 137.013 24.288 137.037 24.48C137.061 24.696 137.061 24.888 137.085 25.08C137.109 25.296 137.109 25.488 137.133 25.704C137.133 25.896 137.133 26.064 137.133 26.208C137.133 26.352 137.157 26.472 137.157 26.616C137.157 26.76 137.157 26.88 137.157 27C137.181 27.432 137.205 27.864 137.205 28.344C137.205 28.824 137.229 29.328 137.229 29.88C137.277 29.904 137.349 29.928 137.397 29.952C137.445 29.952 137.493 29.952 137.541 29.952C137.781 29.952 138.021 29.904 138.261 29.784C138.525 29.688 138.765 29.544 139.005 29.352C139.245 29.184 139.485 28.968 139.725 28.752C139.965 28.536 140.181 28.32 140.373 28.104C140.565 27.888 140.709 27.672 140.829 27.48ZM145.107 36.24C145.083 35.832 145.059 35.424 145.083 35.016C145.083 34.584 145.107 34.176 145.107 33.768C145.155 33.264 145.155 32.784 145.155 32.328C145.155 31.824 145.179 31.344 145.155 30.84C145.155 30.312 145.179 29.784 145.203 29.256C145.227 28.224 145.203 27.168 145.203 26.136C145.227 25.08 145.275 24.072 145.155 23.088C145.131 22.896 145.179 22.728 145.323 22.608C145.491 22.44 145.707 22.368 145.995 22.392C146.331 22.44 146.547 22.608 146.595 22.896C146.691 23.904 146.643 24.936 146.595 25.992C146.619 27.024 146.667 28.104 146.691 29.184V29.208C146.667 29.592 146.643 30 146.643 30.384C146.643 30.792 146.643 31.176 146.643 31.536C146.643 32.112 146.619 32.688 146.595 33.264C146.595 33.672 146.595 34.08 146.595 34.488C146.739 33.96 146.907 33.48 147.027 33.12C147.459 31.944 147.915 30.768 148.371 29.568C148.827 28.392 149.307 27.216 149.787 26.04C150.243 24.864 150.699 23.688 151.155 22.512C151.251 22.248 151.395 22.104 151.611 22.032C151.731 21.984 151.827 21.984 151.947 21.984C151.995 21.984 152.067 21.984 152.115 21.984C152.283 21.984 152.427 22.056 152.571 22.152C152.691 22.248 152.787 22.368 152.859 22.512C153.099 23.064 153.219 23.64 153.291 24.216C153.339 24.816 153.363 25.392 153.363 25.968C153.363 26.28 153.387 26.592 153.387 26.904C153.411 27.192 153.435 27.504 153.435 27.792C153.459 28.152 153.483 28.512 153.483 28.896C153.507 29.256 153.507 29.64 153.507 30C153.507 30.36 153.483 30.72 153.483 31.08C153.459 31.464 153.459 31.824 153.435 32.184C153.435 32.496 153.411 32.856 153.387 33.192C153.387 33.552 153.387 33.888 153.387 34.248C153.387 34.752 153.387 35.28 153.411 35.808C153.459 36.312 153.483 36.84 153.507 37.368C153.507 37.512 153.531 37.656 153.531 37.8C153.555 37.944 153.555 38.112 153.579 38.256C153.579 38.424 153.507 38.568 153.411 38.664C153.267 38.784 153.099 38.832 152.859 38.808C152.667 38.784 152.499 38.712 152.331 38.592C152.283 38.544 152.235 38.496 152.187 38.424C152.139 38.352 152.091 38.256 152.091 38.136C152.067 37.968 152.067 37.824 152.067 37.656C152.043 37.512 152.043 37.368 152.019 37.2V37.104C151.995 36.6 151.947 36.096 151.923 35.616C151.899 35.112 151.899 34.608 151.899 34.104C151.899 33.816 151.899 33.528 151.923 33.264C151.947 32.976 151.947 32.688 151.947 32.424C151.971 32.064 151.971 31.704 151.995 31.32C152.019 30.96 152.019 30.576 152.019 30.216C152.019 29.832 152.019 29.448 151.995 29.088C151.995 28.704 151.971 28.344 151.947 27.96C151.947 27.696 151.947 27.408 151.923 27.096C151.899 26.784 151.899 26.496 151.899 26.184L151.875 25.296C151.707 25.728 151.539 26.184 151.347 26.64C150.891 27.816 150.411 28.992 149.955 30.168C149.499 31.344 149.043 32.544 148.611 33.72C148.179 34.896 147.507 37.272 147.123 38.472C147.051 38.736 146.907 38.904 146.715 38.976C146.571 39 146.451 39.024 146.331 39C146.283 39 146.235 39 146.211 39C145.923 38.976 145.755 38.856 145.659 38.64C145.635 38.616 145.635 38.592 145.611 38.544C145.563 38.472 145.539 38.4 145.515 38.304C145.419 38.016 145.347 37.752 145.275 37.464C145.179 37.056 145.131 36.648 145.107 36.24ZM165.437 22.608C165.605 22.8 165.701 22.968 165.749 23.16C165.797 23.568 165.653 23.88 165.269 24.048C165.077 24.12 164.837 24.168 164.573 24.168C164.501 24.168 164.429 24.168 164.357 24.168C164.285 24.168 164.213 24.168 164.141 24.144C164.045 24.144 163.973 24.144 163.901 24.12C163.613 24.12 163.301 24.144 163.013 24.192C162.701 24.24 162.389 24.264 162.101 24.24C162.149 24.456 162.197 24.648 162.221 24.864C162.245 25.08 162.269 25.296 162.293 25.488C162.389 26.328 162.437 27.168 162.413 28.008C162.413 28.848 162.413 29.64 162.389 30.384C162.365 30.624 162.365 30.888 162.389 31.224C162.413 31.56 162.413 31.92 162.437 32.328C162.485 32.808 162.533 33.312 162.581 33.864C162.629 34.416 162.653 34.968 162.677 35.496C162.701 36.048 162.701 36.576 162.701 37.056C162.677 37.56 162.605 38.016 162.509 38.376C162.437 38.592 162.365 38.736 162.269 38.856C162.173 38.976 162.005 39.048 161.813 39.048C161.645 39.048 161.501 39.048 161.333 39.048C161.189 39.048 161.069 38.976 160.973 38.856C160.949 38.832 160.925 38.688 160.901 38.448C160.877 38.208 160.829 37.92 160.829 37.56C160.805 37.2 160.781 36.816 160.757 36.384C160.733 35.952 160.709 35.52 160.685 35.088C160.685 34.656 160.661 34.248 160.661 33.864C160.637 33.48 160.637 33.144 160.637 32.88C160.637 32.52 160.613 32.232 160.589 31.944C160.541 31.68 160.541 31.44 160.541 31.248C160.589 30.456 160.613 29.688 160.637 28.968C160.637 28.248 160.637 27.528 160.589 26.832V26.76C160.565 26.472 160.565 26.184 160.541 25.896C160.517 25.584 160.469 25.296 160.421 25.008L160.397 24.864C160.373 24.768 160.349 24.672 160.349 24.6C160.325 24.504 160.301 24.432 160.253 24.36C160.229 24.312 160.205 24.264 160.157 24.24V24.216C160.109 24.216 160.061 24.168 160.037 24.12C159.893 24.12 159.725 24.12 159.557 24.096C159.389 24.096 159.221 24.096 159.029 24.096C158.597 24.096 158.237 24.12 157.925 24.168C157.613 24.216 157.325 24.288 157.085 24.384C156.821 24.48 156.581 24.456 156.389 24.312C156.173 24.192 156.029 23.976 155.981 23.688C155.957 23.472 155.981 23.28 156.053 23.064C156.149 22.848 156.317 22.68 156.581 22.584C157.157 22.368 157.925 22.272 158.861 22.272C159.101 22.272 159.341 22.272 159.581 22.248C159.821 22.248 160.037 22.248 160.253 22.272C160.397 22.272 160.541 22.272 160.661 22.272C160.805 22.272 160.925 22.296 161.045 22.296C161.525 22.32 161.981 22.296 162.413 22.272C162.845 22.248 163.253 22.248 163.589 22.272H163.781C163.901 22.272 164.021 22.296 164.117 22.296C164.213 22.296 164.333 22.296 164.453 22.296H164.477C164.525 22.296 164.573 22.296 164.621 22.296C164.669 22.296 164.693 22.296 164.717 22.296L164.765 22.272C164.789 22.272 164.837 22.296 164.885 22.344C165.101 22.368 165.293 22.44 165.437 22.608ZM175.465 33.432C175.633 33.744 175.729 34.032 175.777 34.296C175.825 34.656 175.849 35.04 175.849 35.448C175.849 35.832 175.801 36.216 175.729 36.576C175.681 36.936 175.585 37.272 175.465 37.584C175.345 37.896 175.225 38.136 175.057 38.328C174.913 38.496 174.673 38.616 174.313 38.712C173.953 38.784 173.545 38.856 173.089 38.928C172.633 38.976 172.153 39 171.649 39.024C171.145 39.024 170.665 39.048 170.233 39.048C169.801 39.048 169.417 39.048 169.129 39.024C168.817 39.024 168.649 39 168.601 39C168.505 39 168.433 38.976 168.385 38.904C168.313 38.832 168.289 38.736 168.241 38.64C168.193 38.544 168.169 38.424 168.169 38.328C168.145 38.208 168.145 38.112 168.169 38.04C168.241 37.728 168.265 37.464 168.241 37.248C168.241 37.032 168.241 36.816 168.241 36.576C168.265 36.528 168.265 36.432 168.265 36.312C168.265 36.168 168.289 36.024 168.289 35.904C168.289 35.76 168.313 35.616 168.313 35.472C168.337 35.256 168.361 35.064 168.361 34.848C168.385 34.656 168.385 34.44 168.409 34.248C168.409 33.528 168.433 32.832 168.433 32.136C168.457 31.44 168.433 30.744 168.433 30.048V29.88C168.433 29.328 168.433 28.776 168.433 28.2C168.457 27.648 168.457 27.072 168.505 26.472C168.505 26.4 168.505 26.304 168.505 26.208C168.505 26.136 168.529 26.04 168.529 25.968C168.577 25.536 168.577 25.104 168.577 24.648C168.577 24.192 168.505 23.808 168.337 23.448C168.265 23.328 168.241 23.184 168.241 23.04C168.265 22.896 168.313 22.776 168.409 22.656C168.481 22.536 168.601 22.44 168.745 22.368C168.889 22.272 169.033 22.248 169.177 22.248C169.489 22.248 169.729 22.392 169.873 22.656C170.113 23.16 170.233 23.688 170.281 24.192C170.305 24.72 170.305 25.224 170.305 25.728C170.281 25.944 170.281 26.136 170.281 26.352C170.257 26.568 170.257 26.784 170.257 27C170.233 27.408 170.233 27.816 170.209 28.224C170.209 28.656 170.185 29.088 170.185 29.496V30.24C170.257 30.24 170.305 30.216 170.377 30.216C170.425 30.216 170.497 30.216 170.569 30.216C170.905 30.216 171.289 30.264 171.673 30.408C172.057 30.528 172.417 30.696 172.801 30.912C173.161 31.128 173.521 31.368 173.881 31.656C174.217 31.92 174.529 32.232 174.793 32.52C175.057 32.832 175.297 33.144 175.465 33.432ZM170.041 37.296C170.017 37.512 169.993 37.704 169.993 37.848C169.993 37.848 170.089 37.848 170.281 37.848C170.449 37.872 170.689 37.872 170.953 37.872C171.217 37.872 171.505 37.872 171.841 37.872C172.153 37.872 172.441 37.848 172.729 37.848C173.017 37.824 173.257 37.8 173.449 37.776C173.665 37.728 173.785 37.68 173.833 37.632C173.953 37.488 174.025 37.272 174.097 36.936C174.145 36.624 174.193 36.264 174.193 35.904C174.217 35.544 174.217 35.208 174.217 34.872C174.193 34.536 174.193 34.296 174.169 34.128C174.145 33.96 174.049 33.744 173.857 33.504C173.665 33.24 173.401 33 173.065 32.76C172.753 32.52 172.369 32.328 171.937 32.16C171.505 31.992 171.049 31.896 170.545 31.872C170.425 31.872 170.305 31.896 170.185 31.92C170.185 32.448 170.185 32.928 170.185 33.36C170.185 33.792 170.161 34.224 170.137 34.632C170.137 34.752 170.137 34.872 170.137 34.992C170.137 35.112 170.137 35.232 170.137 35.376C170.137 35.496 170.113 35.688 170.113 35.904C170.089 36.12 170.089 36.36 170.065 36.6C170.065 36.84 170.041 37.08 170.041 37.296Z" fill="white"/>
<path d="M239 24L244 30C242.19 32.9724 241.082 34.4846 239 37" stroke="#626574"/>
<defs>
<filter id="filter0_b_1_1775" x="-6.72532" y="-8.4" width="273.939" height="78.6476" filterUnits="userSpaceOnUse" color-interpolation-filters="sRGB">
<feFlood flood-opacity="0" result="BackgroundImageFix"/>
<feGaussianBlur in="BackgroundImageFix" stdDeviation="4.2"/>
<feComposite in2="SourceAlpha" operator="in" result="effect1_backgroundBlur_1_1775"/>
<feBlend mode="normal" in="SourceGraphic" in2="effect1_backgroundBlur_1_1775" result="shape"/>
</filter>
<linearGradient id="paint0_linear_1_1775" x1="242" y1="5.60449e-06" x2="86.6876" y2="129.848" gradientUnits="userSpaceOnUse">
<stop stop-color="#4E5264"/>
<stop offset="0.375" stop-color="#ABAEBD"/>
<stop offset="0.725" stop-color="#323443"/>
<stop offset="0.89" stop-color="#6E7282"/>
<stop offset="1" stop-color="#282A36"/>
</linearGradient>
</defs>
</svg>
