<svg width="26" height="27" viewBox="0 0 26 27" fill="none" xmlns="http://www.w3.org/2000/svg">
<path d="M13.1362 26.0118C13.0883 26.0118 13.0417 25.9963 13.0034 25.9674C12.9651 25.9386 12.9373 25.8981 12.9241 25.852C12.9109 25.806 12.913 25.7569 12.9302 25.7121C12.9474 25.6674 12.9786 25.6295 13.0192 25.6041L13.837 25.0922L12.3343 25.9598C12.2845 25.9887 12.2254 25.9971 12.1695 25.983C12.1137 25.9689 12.0655 25.9336 12.0354 25.8845C12.0052 25.8354 11.9955 25.7764 12.0082 25.7202C12.021 25.6641 12.0552 25.6151 12.1035 25.5838L18.1935 21.6032L10.9275 25.7987C10.8776 25.8266 10.8189 25.834 10.7636 25.8195C10.7084 25.8049 10.6609 25.7695 10.6312 25.7207C10.6016 25.6719 10.592 25.6134 10.6045 25.5577C10.6171 25.502 10.6507 25.4532 10.6984 25.4218L17.0678 21.3473L9.78846 25.5494C9.73839 25.5765 9.67977 25.5832 9.62486 25.5682C9.56994 25.5531 9.52298 25.5174 9.4938 25.4685C9.46461 25.4196 9.45547 25.3613 9.46828 25.3058C9.48108 25.2503 9.51485 25.2019 9.56251 25.1707L12.1724 23.5631L9.09252 25.3411C9.04267 25.3677 8.98449 25.3742 8.92998 25.3592C8.87548 25.3442 8.82881 25.3089 8.7996 25.2605C8.77039 25.2121 8.76087 25.1543 8.77301 25.0991C8.78514 25.0439 8.818 24.9954 8.86481 24.9638L15.904 20.5282L8.16667 24.9951C8.11676 25.0225 8.05818 25.0296 8.00317 25.0149C7.94817 25.0001 7.90099 24.9646 7.87152 24.9159C7.84206 24.8672 7.83257 24.8089 7.84506 24.7534C7.85754 24.6978 7.89103 24.6492 7.93851 24.6178L16.2231 19.3866L7.25273 24.5657C7.20246 24.5943 7.14295 24.6021 7.08701 24.5873C7.03108 24.5725 6.9832 24.5363 6.95369 24.4865C6.92418 24.4368 6.91539 24.3774 6.92923 24.3212C6.94306 24.265 6.97841 24.2165 7.02766 24.1862L10.6159 21.9929L6.69227 24.2581C6.64224 24.2857 6.58348 24.2927 6.52834 24.2779C6.47319 24.263 6.42597 24.2273 6.39659 24.1783C6.36722 24.1293 6.35798 24.0709 6.37082 24.0152C6.38365 23.9596 6.41757 23.9111 6.46544 23.8799L13.9747 19.2162L5.99324 23.8243C5.94309 23.852 5.88411 23.8592 5.82879 23.8442C5.77347 23.8292 5.72615 23.7933 5.69685 23.744C5.66754 23.6948 5.65856 23.636 5.67179 23.5803C5.68502 23.5245 5.71943 23.4761 5.76774 23.4452L10.6962 20.4307L5.465 23.451C5.4149 23.4798 5.35547 23.4879 5.29948 23.4734C5.2435 23.4589 5.19544 23.423 5.16565 23.3735C5.13586 23.3239 5.12673 23.2646 5.14021 23.2084C5.15369 23.1521 5.18871 23.1034 5.23773 23.0728L14.2571 17.455L4.79996 22.9148C4.7498 22.9425 4.69082 22.9496 4.6355 22.9346C4.58018 22.9197 4.53286 22.8837 4.50356 22.8345C4.47426 22.7852 4.46527 22.7265 4.4785 22.6707C4.49173 22.615 4.52615 22.5665 4.57445 22.5357L10.6203 18.8349L4.3132 22.4766C4.26314 22.5037 4.20452 22.5104 4.1496 22.4954C4.09468 22.4803 4.04772 22.4446 4.01854 22.3957C3.98936 22.3468 3.98021 22.2885 3.99302 22.233C4.00583 22.1775 4.03959 22.1291 4.08725 22.0979L12.3432 17.0022L3.78187 21.9448C3.73177 21.9716 3.67328 21.978 3.61856 21.9627C3.56385 21.9475 3.51713 21.9117 3.48813 21.8628C3.45913 21.814 3.45009 21.7558 3.46288 21.7005C3.47567 21.6452 3.50931 21.5969 3.5568 21.5657L8.95395 18.2776L3.38117 21.4947C3.33072 21.5244 3.27053 21.5329 3.21384 21.5182C3.15715 21.5036 3.1086 21.467 3.07887 21.4165C3.04914 21.3661 3.04067 21.3059 3.05532 21.2492C3.06997 21.1925 3.10654 21.144 3.15698 21.1143L3.31365 21.0203L3.09299 21.1469C3.06802 21.1616 3.04039 21.1712 3.01169 21.1752C2.98299 21.1793 2.95379 21.1776 2.92574 21.1703C2.89769 21.163 2.87134 21.1503 2.84821 21.1329C2.82508 21.1154 2.80561 21.0936 2.79092 21.0686C2.77623 21.0436 2.7666 21.016 2.76259 20.9873C2.75857 20.9586 2.76025 20.9294 2.76753 20.9013C2.7748 20.8733 2.78753 20.8469 2.80498 20.8238C2.82244 20.8007 2.84428 20.7812 2.86925 20.7665L3.77702 20.2202L2.811 20.7771C2.76062 20.8069 2.70046 20.8154 2.64377 20.8009C2.58708 20.7863 2.5385 20.7498 2.50871 20.6994C2.47892 20.649 2.47037 20.5889 2.48494 20.5322C2.4995 20.4755 2.53599 20.4269 2.58638 20.3971L6.74523 17.876L2.49326 20.3318C2.44299 20.3618 2.38288 20.3706 2.32615 20.3562C2.26942 20.3418 2.22071 20.3055 2.19075 20.2553C2.16079 20.205 2.15202 20.1449 2.16638 20.0881C2.18074 20.0314 2.21705 19.9827 2.26731 19.9527L10.754 14.7281L2.10889 19.718C2.05891 19.7447 2.00059 19.7511 1.94599 19.736C1.89139 19.7208 1.84471 19.6853 1.81561 19.6367C1.78651 19.5881 1.77722 19.5301 1.78968 19.4748C1.80213 19.4196 1.83536 19.3712 1.8825 19.3398L11.3463 13.4832L1.73157 19.0344C1.68151 19.0615 1.62289 19.0683 1.56797 19.0532C1.51306 19.0381 1.4661 19.0024 1.43691 18.9535C1.40773 18.9046 1.39859 18.8463 1.41139 18.7908C1.4242 18.7353 1.45796 18.6869 1.50562 18.6558L9.93982 13.462L1.41913 18.3817C1.36886 18.4117 1.30875 18.4204 1.25201 18.4061C1.19528 18.3917 1.14658 18.3554 1.11662 18.3051C1.08665 18.2549 1.07789 18.1948 1.09225 18.138C1.1066 18.0813 1.14291 18.0326 1.19318 18.0026L8.96984 13.2259L1.15346 17.7387C1.10319 17.7687 1.04308 17.7775 0.98635 17.7631C0.929617 17.7487 0.880913 17.7124 0.85095 17.6622C0.820988 17.6119 0.812222 17.5518 0.826581 17.495C0.84094 17.4383 0.877247 17.3896 0.927516 17.3596L9.00338 12.3888L0.91516 17.0578C0.865062 17.0846 0.806568 17.091 0.751854 17.0757C0.69714 17.0605 0.65042 17.0247 0.621421 16.9758C0.592422 16.927 0.583376 16.8688 0.596168 16.8135C0.60896 16.7582 0.642603 16.7099 0.690095 16.6787L5.73023 13.6094L0.749671 16.485C0.69948 16.5123 0.640658 16.519 0.585582 16.5038C0.530506 16.4887 0.483469 16.4527 0.454369 16.4035C0.425269 16.3544 0.416375 16.2958 0.429557 16.2402C0.442739 16.1846 0.47697 16.1363 0.525047 16.1055L2.34807 15.0022L0.631843 15.9951C0.581716 16.0234 0.522542 16.0309 0.466934 16.0162C0.411326 16.0014 0.363681 15.9655 0.334157 15.9161C0.304632 15.8667 0.295562 15.8078 0.308881 15.7518C0.322199 15.6958 0.356852 15.6473 0.405454 15.6165L9.04618 10.2573L0.479152 15.2034C0.428941 15.2335 0.368838 15.2424 0.312064 15.2282C0.25529 15.2139 0.206497 15.1777 0.176417 15.1275C0.146338 15.0773 0.137436 15.0172 0.151671 14.9604C0.165906 14.9037 0.202111 14.8549 0.252321 14.8248L8.2814 9.84821L0.380741 14.41C0.330766 14.4367 0.272439 14.4431 0.217842 14.428C0.163245 14.4128 0.116562 14.3773 0.0874622 14.3287C0.0583629 14.2801 0.0490777 14.2221 0.06153 14.1668C0.0739823 14.1116 0.107218 14.0632 0.154352 14.0318L9.49411 8.16243L0.330874 13.455C0.280775 13.4839 0.221338 13.4919 0.165353 13.4774C0.109368 13.463 0.0613106 13.4271 0.0315231 13.3775C0.00173548 13.3279 -0.00740129 13.2686 0.00607901 13.2124C0.0195593 13.1562 0.0545791 13.1075 0.103602 13.0768L8.05766 8.10285L0.338817 12.5591C0.288547 12.5878 0.229038 12.5955 0.173106 12.5807C0.117174 12.5659 0.0692949 12.5297 0.0397826 12.48C0.0102703 12.4302 0.00148576 12.3708 0.0153211 12.3147C0.0291565 12.2585 0.0645048 12.21 0.113752 12.1796L2.73289 10.583L0.385595 11.936C0.335633 11.9646 0.276493 11.9725 0.220785 11.958C0.165078 11.9436 0.117212 11.908 0.0873938 11.8588C0.0575754 11.8096 0.0481645 11.7506 0.0611676 11.6946C0.0741708 11.6385 0.108559 11.5898 0.157 11.5587L8.2995 6.39059L0.534315 10.872C0.484216 10.9009 0.424779 10.909 0.368794 10.8945C0.312809 10.88 0.264752 10.8441 0.234964 10.7945C0.205177 10.745 0.19604 10.6857 0.20952 10.6294C0.223 10.5732 0.25802 10.5245 0.307043 10.4938L5.54753 7.2198L0.728047 10.0022C0.678263 10.0296 0.619837 10.0367 0.564934 10.0221C0.510032 10.0075 0.462885 9.97225 0.433311 9.92374C0.403737 9.87522 0.394016 9.81717 0.406172 9.76167C0.418328 9.70617 0.451425 9.6575 0.498569 9.62579L7.35996 5.21275L1.08992 8.83321C1.06511 8.84822 1.0376 8.8582 1.00894 8.86257C0.980276 8.86695 0.951035 8.86564 0.922882 8.85871C0.866026 8.84472 0.817054 8.80872 0.78674 8.75863C0.756427 8.70854 0.747254 8.64845 0.761241 8.5916C0.775227 8.53474 0.811227 8.48577 0.861321 8.45545L5.13049 5.74673L1.499 7.84337C1.4492 7.87233 1.39005 7.88066 1.33418 7.86659C1.27832 7.85252 1.23017 7.81715 1.20003 7.76806C1.16989 7.71896 1.16015 7.66002 1.17289 7.60383C1.18563 7.54765 1.21984 7.49867 1.2682 7.46737L5.91778 4.43032L2.15522 6.60242C2.1057 6.63176 2.04667 6.64059 1.99074 6.62702C1.9348 6.61345 1.88637 6.57856 1.8558 6.52979C1.82522 6.48102 1.81492 6.42223 1.82708 6.36597C1.83924 6.30971 1.8729 6.26042 1.92089 6.22864L5.7011 3.66907L3.21126 5.10728C3.16253 5.13499 3.10507 5.14311 3.05056 5.12998C2.99606 5.11686 2.94859 5.08348 2.91781 5.03663C2.88702 4.98978 2.87522 4.93296 2.88481 4.87772C2.8944 4.82249 2.92465 4.77297 2.96943 4.73923L5.19492 3.08788C5.14841 3.08327 5.10456 3.06401 5.0697 3.03288C5.03483 3.00174 5.01075 2.96034 5.00094 2.91464C4.99112 2.86894 4.99607 2.8213 5.01507 2.7786C5.03407 2.73589 5.06614 2.70032 5.10666 2.67702L8.01574 0.997419C8.06456 0.968744 8.12254 0.959935 8.17768 0.972814C8.23282 0.985694 8.28089 1.01928 8.31196 1.06661C8.34303 1.11395 8.35471 1.17142 8.34458 1.22713C8.33446 1.28284 8.30331 1.33253 8.25757 1.36591L6.31804 2.80412L10.8246 0.20219C10.8741 0.173992 10.9326 0.166016 10.9878 0.179931C11.043 0.193846 11.0907 0.228573 11.1209 0.276851C11.1512 0.325128 11.1615 0.383215 11.1499 0.438964C11.1383 0.494713 11.1055 0.543806 11.0585 0.575974L7.27876 3.13554L12.638 0.0406725C12.6877 0.0124108 12.7464 0.00455253 12.8018 0.0187539C12.8572 0.0329553 12.9049 0.0681071 12.9349 0.116801C12.9649 0.165495 12.9748 0.223927 12.9625 0.279783C12.9503 0.335638 12.9168 0.384555 12.8692 0.416222L8.2183 3.4546L14.0515 0.0870095C14.1014 0.0595664 14.1599 0.0524819 14.2149 0.0672377C14.27 0.0819934 14.3171 0.117447 14.3466 0.166182C14.3761 0.214917 14.3855 0.273158 14.3731 0.328725C14.3606 0.384292 14.3271 0.432879 14.2796 0.464324L10.0131 3.17172L15.1101 0.228668C15.1601 0.198179 15.2202 0.188791 15.2771 0.202571C15.334 0.216351 15.383 0.252169 15.4135 0.302145C15.444 0.352122 15.4534 0.412163 15.4396 0.469061C15.4259 0.525959 15.39 0.575052 15.3401 0.605541L8.47778 5.01858L16.3061 0.497863C16.3562 0.468976 16.4156 0.460911 16.4716 0.475404C16.5276 0.489898 16.5756 0.525791 16.6054 0.57536C16.6352 0.624929 16.6443 0.684211 16.6309 0.740448C16.6174 0.796686 16.5824 0.845383 16.5333 0.876061L11.296 4.14921L17.1538 0.767059C17.2037 0.739616 17.2623 0.732531 17.3173 0.747287C17.3723 0.762043 17.4195 0.797496 17.449 0.846231C17.4784 0.894966 17.4879 0.953208 17.4754 1.00877C17.4629 1.06434 17.4295 1.11293 17.382 1.14437L9.23859 6.31513L18.1529 1.16953C18.2032 1.14088 18.2627 1.13313 18.3186 1.14793C18.3746 1.16274 18.4225 1.19892 18.452 1.24869C18.4815 1.29845 18.4903 1.35782 18.4764 1.414C18.4626 1.47018 18.4272 1.51868 18.378 1.54905L15.7611 3.14657L18.7152 1.44093C18.7653 1.41204 18.8247 1.40398 18.8807 1.41847C18.9367 1.43296 18.9847 1.46886 19.0145 1.51843C19.0443 1.568 19.0534 1.62728 19.0399 1.68351C19.0265 1.73975 18.9914 1.78845 18.9424 1.81913L10.9839 6.7935L19.5011 1.8765C19.5513 1.8463 19.6114 1.83726 19.6682 1.85137C19.725 1.86548 19.7739 1.90159 19.8041 1.95174C19.8343 2.00189 19.8433 2.06198 19.8292 2.1188C19.8151 2.17561 19.779 2.2245 19.7288 2.25469L10.39 8.12183L20.2946 2.40297C20.3194 2.38808 20.347 2.37823 20.3757 2.37398C20.4043 2.36973 20.4336 2.37118 20.4617 2.37823C20.4898 2.38527 20.5162 2.39779 20.5395 2.41506C20.5628 2.43233 20.5824 2.45401 20.5973 2.47888C20.6122 2.50374 20.6221 2.53129 20.6263 2.55996C20.6306 2.58863 20.6291 2.61785 20.6221 2.64596C20.615 2.67408 20.6025 2.70052 20.5852 2.7238C20.568 2.74707 20.5463 2.76672 20.5214 2.78161L12.4906 7.75864L20.9314 2.88576C20.9816 2.85568 21.0417 2.84678 21.0985 2.86101C21.1552 2.87525 21.204 2.91145 21.2341 2.96166C21.2642 3.01187 21.2731 3.07198 21.2589 3.12875C21.2446 3.18552 21.2084 3.23432 21.1582 3.2644L12.5166 8.62403L21.5421 3.41312C21.5671 3.39837 21.5947 3.38868 21.6234 3.3846C21.6521 3.38052 21.6813 3.38213 21.7094 3.38934C21.7374 3.39656 21.7638 3.40923 21.787 3.42663C21.8102 3.44404 21.8297 3.46584 21.8444 3.49079C21.8592 3.51573 21.8689 3.54334 21.873 3.57204C21.877 3.60073 21.8754 3.62995 21.8682 3.65802C21.861 3.68609 21.8483 3.71246 21.8309 3.73564C21.8135 3.75881 21.7917 3.77833 21.7668 3.79308L19.9384 4.89634L21.9067 3.76042C21.9569 3.73178 22.0164 3.72402 22.0724 3.73883C22.1283 3.75363 22.1762 3.78982 22.2057 3.83958C22.2352 3.88935 22.244 3.94872 22.2302 4.0049C22.2163 4.06108 22.181 4.10957 22.1317 4.13994L17.0942 7.20701L22.3188 4.19069C22.3691 4.16073 22.4292 4.15197 22.486 4.16632C22.5427 4.18068 22.5914 4.21699 22.6214 4.26726C22.6513 4.31753 22.6601 4.37764 22.6457 4.43437C22.6314 4.49111 22.5951 4.53981 22.5448 4.56977L14.4689 9.54018L22.7906 4.73703C22.8409 4.70707 22.901 4.6983 22.9577 4.71266C23.0144 4.72702 23.0631 4.76333 23.0931 4.81359C23.1231 4.86386 23.1318 4.92398 23.1175 4.98071C23.1031 5.03744 23.0668 5.08615 23.0165 5.11611L15.2439 9.89057L23.2147 5.28733C23.265 5.25737 23.3251 5.24861 23.3818 5.26296C23.4385 5.27732 23.4872 5.31363 23.5172 5.3639C23.5472 5.41417 23.5559 5.47428 23.5416 5.53101C23.5272 5.58775 23.4909 5.63645 23.4406 5.66641L15.0073 10.8601L23.6242 5.88486C23.6745 5.85484 23.7346 5.84602 23.7914 5.86033C23.8482 5.87465 23.8969 5.91094 23.927 5.96121C23.957 6.01147 23.9658 6.07161 23.9515 6.12838C23.9372 6.18516 23.9009 6.23392 23.8506 6.26394L14.3873 12.12L24.0289 6.55388C24.0538 6.53904 24.0814 6.52925 24.11 6.52507C24.1387 6.52089 24.1679 6.5224 24.196 6.52951C24.2241 6.53662 24.2505 6.54919 24.2737 6.56651C24.297 6.58383 24.3166 6.60555 24.3314 6.63044C24.3462 6.65533 24.356 6.6829 24.3602 6.71158C24.3644 6.74025 24.3629 6.76947 24.3558 6.79756C24.3487 6.82565 24.3361 6.85206 24.3188 6.8753C24.3015 6.89853 24.2797 6.91812 24.2548 6.93296L15.7615 12.1628L24.3669 7.19377C24.4172 7.16575 24.4765 7.1585 24.532 7.17356C24.5876 7.18863 24.6351 7.22482 24.6643 7.2744C24.6936 7.32399 24.7023 7.38304 24.6886 7.43897C24.675 7.49489 24.64 7.54325 24.5911 7.57373L20.4464 10.0865L24.5946 7.69067C24.6449 7.66266 24.7042 7.65541 24.7598 7.67047C24.8153 7.68554 24.8628 7.72173 24.8921 7.77131C24.9213 7.8209 24.93 7.87995 24.9164 7.93588C24.9027 7.9918 24.8677 8.04016 24.8188 8.07064L23.9014 8.62315L24.7725 8.11962C24.8229 8.08989 24.8831 8.08142 24.9398 8.09607C24.9965 8.11072 25.0451 8.14729 25.0748 8.19773C25.1045 8.24818 25.113 8.30837 25.0983 8.36506C25.0837 8.42175 25.0471 8.4703 24.9967 8.50003L24.8396 8.59711L24.9349 8.54195C24.9851 8.51465 25.0439 8.50789 25.099 8.52308C25.1541 8.53828 25.2011 8.57424 25.2302 8.62341C25.2593 8.67257 25.2682 8.73111 25.255 8.7867C25.2418 8.84229 25.2076 8.8906 25.1595 8.92147L19.7668 12.2074L25.1229 9.11476C25.173 9.08652 25.2322 9.07898 25.2878 9.09374C25.3434 9.1085 25.391 9.14439 25.4206 9.19377C25.4501 9.24315 25.4592 9.30211 25.4458 9.35808C25.4325 9.41406 25.3979 9.46261 25.3493 9.4934L17.0912 14.5896L25.3179 9.84027C25.3681 9.81253 25.4271 9.80541 25.4824 9.82039C25.5377 9.83538 25.585 9.8713 25.6143 9.92056C25.6436 9.96982 25.6526 10.0285 25.6394 10.0843C25.6262 10.1401 25.5918 10.1885 25.5434 10.2193L19.4976 13.9206L25.4552 10.481C25.5052 10.4535 25.564 10.4464 25.6191 10.4613C25.6743 10.4762 25.7215 10.5118 25.7509 10.5608C25.7802 10.6098 25.7895 10.6683 25.7766 10.7239C25.7638 10.7796 25.7299 10.8281 25.682 10.8592L16.6591 16.4792L25.5823 11.3279C25.6324 11.3011 25.6909 11.2947 25.7456 11.31C25.8003 11.3252 25.847 11.361 25.876 11.4099C25.905 11.4587 25.9141 11.5168 25.9013 11.5722C25.8885 11.6275 25.8548 11.6758 25.8073 11.707L20.8824 14.7193L25.6401 11.9722C25.6903 11.9421 25.7504 11.9332 25.8072 11.9475C25.864 11.9617 25.9127 11.9979 25.9428 12.0481C25.9729 12.0983 25.9818 12.1584 25.9676 12.2152C25.9533 12.272 25.9171 12.3208 25.8669 12.3508L18.3599 17.0123L25.6701 12.7917C25.7204 12.7631 25.7799 12.7553 25.8358 12.7701C25.8917 12.7849 25.9396 12.8211 25.9691 12.8709C25.9986 12.9206 26.0074 12.98 25.9936 13.0362C25.9798 13.0924 25.9444 13.1409 25.8952 13.1712L22.3047 15.3663L25.6555 13.4316C25.7055 13.4036 25.7645 13.3961 25.8199 13.4108C25.8753 13.4255 25.9228 13.4611 25.9524 13.5102C25.982 13.5593 25.9913 13.6179 25.9784 13.6738C25.9655 13.7296 25.9314 13.7782 25.8833 13.8094L17.5982 19.0406L25.5664 14.44C25.6167 14.4098 25.677 14.4008 25.7339 14.415C25.7909 14.4293 25.8398 14.4656 25.87 14.5159C25.9002 14.5662 25.9092 14.6265 25.8949 14.6834C25.8807 14.7403 25.8444 14.7893 25.7941 14.8195L18.7602 19.2506L25.4036 15.4144C25.4538 15.3844 25.5139 15.3756 25.5707 15.39C25.6274 15.4044 25.6761 15.4407 25.7061 15.4909C25.736 15.5412 25.7448 15.6013 25.7304 15.6581C25.7161 15.7148 25.6798 15.7635 25.6295 15.7935L23.0161 17.4029L25.2385 16.12C25.2883 16.0926 25.3467 16.0855 25.4016 16.1001C25.4565 16.1148 25.5037 16.15 25.5332 16.1985C25.5628 16.247 25.5725 16.3051 25.5604 16.3606C25.5482 16.4161 25.5151 16.4647 25.468 16.4965L19.0934 20.575L24.8886 17.2295C24.9383 17.2012 24.997 17.1933 25.0524 17.2075C25.1078 17.2217 25.1555 17.2569 25.1855 17.3056C25.2155 17.3543 25.2254 17.4127 25.2131 17.4686C25.2009 17.5244 25.1674 17.5733 25.1198 17.605L19.0298 21.5847L24.3254 18.5278C24.3754 18.4998 24.4344 18.4923 24.4898 18.507C24.5452 18.5216 24.5927 18.5573 24.6223 18.6064C24.6519 18.6554 24.6612 18.7141 24.6483 18.7699C24.6354 18.8258 24.6013 18.8744 24.5532 18.9055L23.7359 19.417L23.889 19.3287C23.9385 19.2994 23.9975 19.2906 24.0535 19.3041C24.1094 19.3177 24.1578 19.3526 24.1884 19.4014C24.219 19.4501 24.2293 19.5089 24.2171 19.5652C24.205 19.6215 24.1713 19.6707 24.1233 19.7025L20.1141 22.4245L22.8224 20.8614C22.8721 20.8331 22.9308 20.8253 22.9862 20.8395C23.0416 20.8537 23.0893 20.8888 23.1193 20.9375C23.1493 20.9862 23.1592 21.0446 23.1469 21.1005C23.1347 21.1564 23.1012 21.2053 23.0536 21.2369L22.0148 21.9183C22.0563 21.9304 22.0933 21.9544 22.1213 21.9874C22.1492 22.0204 22.1669 22.0608 22.1721 22.1037C22.1772 22.1467 22.1697 22.1901 22.1504 22.2288C22.131 22.2675 22.1008 22.2996 22.0633 22.3212L16.5197 25.5216C16.47 25.5498 16.4112 25.5577 16.3558 25.5435C16.3004 25.5293 16.2527 25.4941 16.2227 25.4454C16.1927 25.3967 16.1828 25.3383 16.1951 25.2824C16.2073 25.2266 16.2408 25.1777 16.2884 25.146L16.329 25.1191L15.0973 25.8305C15.0478 25.8616 14.9879 25.8718 14.9308 25.8587C14.8737 25.8457 14.8242 25.8105 14.7931 25.761C14.7619 25.7114 14.7518 25.6515 14.7648 25.5944C14.7778 25.5374 14.813 25.4878 14.8626 25.4567L18.8718 22.7343L13.2465 25.9845C13.2128 26.0031 13.1747 26.0125 13.1362 26.0118Z" fill="#C67D01"/>
<path d="M13.0196 24.2497C12.9722 24.2498 12.9259 24.2346 12.8878 24.2064C12.8497 24.1781 12.8216 24.1383 12.8079 24.0929C12.7942 24.0474 12.7955 23.9988 12.8116 23.9541C12.8277 23.9095 12.8578 23.8712 12.8974 23.845L17.1445 21.0256L11.7606 24.135C11.7107 24.1616 11.6526 24.1681 11.5981 24.1531C11.5436 24.1381 11.4969 24.1028 11.4677 24.0544C11.4385 24.006 11.4289 23.9482 11.4411 23.893C11.4532 23.8378 11.4861 23.7894 11.5329 23.7577L13.6101 22.4496L10.9212 24.0013C10.8714 24.0291 10.8126 24.0366 10.7574 24.022C10.7021 24.0075 10.6547 23.9721 10.625 23.9233C10.5953 23.8744 10.5858 23.816 10.5983 23.7603C10.6108 23.7045 10.6445 23.6558 10.6922 23.6244L14.8272 20.9969L10.0144 23.7771C9.96445 23.8045 9.90587 23.8116 9.85086 23.7969C9.79585 23.7821 9.74868 23.7466 9.71921 23.6979C9.68974 23.6492 9.68026 23.5909 9.69274 23.5354C9.70523 23.4798 9.73871 23.4312 9.7862 23.3998L14.8056 20.2118L9.14454 23.481C9.09458 23.5095 9.03544 23.5174 8.97973 23.503C8.92403 23.4886 8.87616 23.4529 8.84634 23.4037C8.81652 23.3545 8.80711 23.2956 8.82011 23.2395C8.83312 23.1835 8.86751 23.1347 8.91595 23.1037L15.1516 19.1394L8.28135 23.1054C8.23138 23.1321 8.17305 23.1386 8.11845 23.1234C8.06386 23.1083 8.01717 23.0727 7.98807 23.0241C7.95897 22.9755 7.94969 22.9176 7.96214 22.8623C7.97459 22.807 8.00783 22.7587 8.05496 22.7272L11.8206 20.394L7.67853 22.785C7.62863 22.8125 7.57005 22.8196 7.51504 22.8048C7.46003 22.7901 7.41286 22.7546 7.38339 22.7059C7.35392 22.6571 7.34444 22.5989 7.35692 22.5433C7.36941 22.4878 7.40289 22.4392 7.45038 22.4077L14.562 17.9126L6.92743 22.3217C6.87728 22.3519 6.81719 22.3609 6.76037 22.3468C6.70356 22.3327 6.65467 22.2966 6.62448 22.2464C6.59428 22.1963 6.58524 22.1362 6.59935 22.0794C6.61347 22.0225 6.64957 21.9737 6.69972 21.9435L13.2257 17.8601L6.30078 21.8579C6.25068 21.8867 6.19125 21.8948 6.13526 21.8803C6.07928 21.8658 6.03122 21.8299 6.00143 21.7804C5.97164 21.7308 5.96251 21.6715 5.97599 21.6153C5.98947 21.559 6.02449 21.5103 6.07351 21.4797L12.8462 17.2498L5.71473 21.3671C5.66446 21.3958 5.60495 21.4035 5.54902 21.3887C5.49309 21.3739 5.44521 21.3377 5.4157 21.288C5.38618 21.2382 5.3774 21.1788 5.39123 21.1227C5.40507 21.0665 5.44042 21.018 5.48966 20.9876L6.87845 20.1434L5.35374 21.0234C5.30368 21.0505 5.24506 21.0572 5.19014 21.0422C5.13523 21.0271 5.08827 20.9914 5.05908 20.9424C5.0299 20.8935 5.02076 20.8353 5.03356 20.7798C5.04637 20.7243 5.08013 20.6759 5.1278 20.6447L9.32857 18.0666L4.94465 20.5975C4.8948 20.6241 4.83662 20.6306 4.78212 20.6156C4.72761 20.6006 4.68094 20.5653 4.65173 20.5169C4.62253 20.4685 4.61301 20.4107 4.62514 20.3555C4.63727 20.3003 4.67013 20.2519 4.71694 20.2202L13.1503 14.9188L4.41244 19.9625C4.36229 19.9927 4.3022 20.0017 4.24538 19.9876C4.18857 19.9735 4.13968 19.9374 4.10949 19.8872C4.07929 19.8371 4.07025 19.777 4.08436 19.7202C4.09847 19.6633 4.13458 19.6145 4.18473 19.5843L12.303 14.5035L3.94951 19.3257C3.8993 19.3557 3.8392 19.3646 3.78243 19.3504C3.72565 19.3362 3.67686 19.3 3.64678 19.2497C3.6167 19.1995 3.6078 19.1394 3.62203 19.0827C3.63627 19.0259 3.67247 18.9771 3.72268 18.947L10.6022 14.6787L3.58235 18.7325C3.53222 18.7608 3.47305 18.7683 3.41744 18.7536C3.36183 18.7388 3.31419 18.7029 3.28466 18.6535C3.25514 18.6042 3.24607 18.5452 3.25939 18.4892C3.27271 18.4332 3.30736 18.3847 3.35596 18.3539L9.69264 14.4351L3.26373 18.1465C3.21357 18.1742 3.15459 18.1813 3.09927 18.1664C3.04395 18.1514 2.99663 18.1155 2.96733 18.0662C2.93803 18.0169 2.92904 17.9582 2.94227 17.9024C2.9555 17.8467 2.98991 17.7983 3.03822 17.7674L8.4998 14.4038L2.99718 17.5812C2.94728 17.6086 2.88869 17.6157 2.83369 17.601C2.77868 17.5862 2.73151 17.5507 2.70204 17.502C2.67257 17.4533 2.66309 17.395 2.67557 17.3395C2.68806 17.2839 2.72154 17.2353 2.76903 17.2039L11.4958 11.7057L2.69003 16.7895C2.64018 16.8161 2.582 16.8226 2.52749 16.8076C2.47299 16.7926 2.42632 16.7573 2.39711 16.7089C2.3679 16.6605 2.35838 16.6027 2.37052 16.5475C2.38265 16.4923 2.41551 16.4439 2.46232 16.4122L11.1242 10.9453L2.43717 15.9607C2.38684 15.9906 2.32669 15.9993 2.26996 15.9849C2.21323 15.9704 2.16456 15.934 2.13465 15.8837C2.10475 15.8334 2.09606 15.7732 2.1105 15.7165C2.12494 15.6598 2.16133 15.6111 2.21166 15.5812L4.95657 13.9042L2.31404 15.4303C2.26405 15.4583 2.20512 15.4657 2.14972 15.4511C2.09432 15.4364 2.0468 15.4008 2.01721 15.3517C1.98763 15.3026 1.9783 15.2439 1.9912 15.1881C2.0041 15.1323 2.03821 15.0836 2.08633 15.0525L9.32018 10.5172L2.1843 14.6372C2.13415 14.6674 2.07405 14.6765 2.01724 14.6624C1.96042 14.6483 1.91154 14.6121 1.88134 14.562C1.85115 14.5118 1.84211 14.4518 1.85622 14.3949C1.87033 14.3381 1.90643 14.2892 1.95659 14.259L8.82989 9.94397L2.10619 13.8274C2.05592 13.8561 1.99641 13.8638 1.94048 13.849C1.88454 13.8342 1.83667 13.7981 1.80715 13.7483C1.77764 13.6985 1.76886 13.6392 1.78269 13.583C1.79653 13.5268 1.83188 13.4783 1.88112 13.4479L2.18606 13.2621L2.0903 13.3177C2.04009 13.3479 1.97996 13.3568 1.92315 13.3426C1.86633 13.3285 1.81748 13.2923 1.78735 13.2421C1.75721 13.1918 1.74825 13.1317 1.76244 13.0749C1.77664 13.0181 1.81282 12.9692 1.86303 12.9391L6.98215 9.74406L2.10751 12.5556C2.05752 12.5836 1.99859 12.5911 1.94319 12.5764C1.88779 12.5618 1.84027 12.5261 1.81068 12.477C1.7811 12.4279 1.77177 12.3693 1.78467 12.3134C1.79757 12.2576 1.83168 12.209 1.8798 12.1779L7.47509 8.64742L2.19224 11.6995C2.14191 11.7294 2.08175 11.7382 2.02497 11.7238C1.9682 11.7094 1.91947 11.673 1.88951 11.6227C1.85955 11.5724 1.8508 11.5122 1.8652 11.4554C1.8796 11.3986 1.91597 11.3499 1.96629 11.32L2.39833 11.0552L2.28668 11.12C2.26179 11.1349 2.23422 11.1447 2.20555 11.1489C2.17687 11.153 2.14766 11.1515 2.11957 11.1444C2.09148 11.1373 2.06506 11.1247 2.04183 11.1074C2.0186 11.0901 1.999 11.0684 1.98417 11.0435C1.96933 11.0186 1.95954 10.991 1.95536 10.9623C1.95118 10.9337 1.95269 10.9045 1.9598 10.8764C1.96691 10.8483 1.97948 10.8219 1.9968 10.7986C2.01412 10.7754 2.03584 10.7558 2.06073 10.741L3.10089 10.0975L2.42613 10.4872C2.3763 10.5156 2.31738 10.5234 2.26185 10.5091C2.20633 10.4948 2.15856 10.4594 2.12867 10.4105C2.09878 10.3615 2.08912 10.3029 2.10172 10.2469C2.11433 10.191 2.14822 10.1422 2.19621 10.1108L7.09954 6.95723L2.73637 9.47707C2.71162 9.49217 2.68415 9.50225 2.65551 9.50672C2.62687 9.5112 2.59763 9.50999 2.56945 9.50317C2.54128 9.49635 2.51473 9.48404 2.49131 9.46696C2.46789 9.44987 2.44807 9.42834 2.43297 9.4036C2.41788 9.37885 2.4078 9.35137 2.40332 9.32273C2.39885 9.29409 2.40005 9.26485 2.40688 9.23668C2.4137 9.20851 2.426 9.18195 2.44309 9.15854C2.46017 9.13512 2.4817 9.1153 2.50645 9.1002L5.91155 6.91486L3.13487 8.51768C3.085 8.54555 3.02626 8.553 2.97101 8.53845C2.91577 8.5239 2.86832 8.48849 2.83865 8.43967C2.80898 8.39085 2.7994 8.33242 2.81193 8.27668C2.82446 8.22094 2.85812 8.17223 2.90583 8.14081L4.84315 6.89765L3.6203 7.60374C3.57109 7.63249 3.51266 7.64107 3.45725 7.6277C3.40184 7.61433 3.35376 7.58004 3.32307 7.53202C3.29238 7.48399 3.28147 7.42595 3.29262 7.37005C3.30377 7.31415 3.33611 7.26474 3.38288 7.23216L6.79107 4.83191L4.78402 5.99342C4.73484 6.02272 4.67621 6.03176 4.62049 6.01864C4.56477 6.00552 4.51633 5.97125 4.48541 5.92308C4.45448 5.87492 4.44348 5.81661 4.45473 5.76049C4.46599 5.70436 4.49861 5.65481 4.54572 5.62228L6.09028 4.51902C6.06226 4.50038 6.03898 4.47545 6.02232 4.44621C5.99306 4.39553 5.98513 4.3353 6.00028 4.27878C6.01542 4.22225 6.0524 4.17406 6.10308 4.1448L8.79503 2.59097C8.84411 2.56297 8.90205 2.55487 8.95692 2.56833C9.0118 2.58179 9.05942 2.61578 9.08997 2.66331C9.12052 2.71084 9.13168 2.76827 9.12114 2.82378C9.11061 2.87929 9.07918 2.92864 9.03333 2.96166L8.53775 3.31471L10.8211 1.99609C10.8703 1.96734 10.9287 1.95875 10.9841 1.97212C11.0395 1.98549 11.0876 2.01979 11.1183 2.06781C11.149 2.11584 11.1599 2.17388 11.1487 2.22978C11.1376 2.28567 11.1052 2.33509 11.0585 2.36767L7.64941 4.76836L12.7862 1.80103C12.8361 1.77177 12.8955 1.7633 12.9517 1.77744C13.0078 1.79159 13.0561 1.82722 13.0862 1.87665C13.1163 1.92608 13.1258 1.98536 13.1126 2.04172C13.0994 2.09807 13.0646 2.14698 13.0157 2.17791L11.0761 3.42327L13.8153 1.84163C13.8653 1.81114 13.9253 1.80176 13.9822 1.81554C14.0391 1.82932 14.0882 1.86513 14.1187 1.91511C14.1492 1.96509 14.1586 2.02513 14.1448 2.08203C14.131 2.13892 14.0952 2.18802 14.0452 2.21851L10.6397 4.40473L14.8435 1.97756C14.8933 1.95018 14.9518 1.94305 15.0067 1.95768C15.0616 1.9723 15.1087 2.00753 15.1383 2.05604C15.1678 2.10456 15.1776 2.16261 15.1654 2.21811C15.1533 2.27361 15.1202 2.32228 15.073 2.35399L10.1719 5.50799L15.8735 2.21586C15.9238 2.1859 15.9839 2.17713 16.0407 2.19149C16.0974 2.20585 16.1461 2.24216 16.1761 2.29243C16.206 2.34269 16.2148 2.40281 16.2004 2.45954C16.1861 2.51627 16.1498 2.56498 16.0995 2.59494L15.054 3.2388L16.4918 2.40871C16.5421 2.37875 16.6022 2.36998 16.6589 2.38434C16.7157 2.3987 16.7644 2.43501 16.7943 2.48528C16.8243 2.53554 16.8331 2.59566 16.8187 2.65239C16.8043 2.70912 16.768 2.75783 16.7178 2.78779L16.2875 3.05257L17.0421 2.617C17.0922 2.58675 17.1523 2.57763 17.2091 2.59166C17.2659 2.60569 17.3148 2.64171 17.3451 2.69181C17.3753 2.7419 17.3844 2.80196 17.3704 2.85878C17.3564 2.91559 17.3204 2.96451 17.2703 2.99476L11.675 6.52519L17.8232 2.97225C17.8734 2.94212 17.9336 2.93316 17.9904 2.94735C18.0472 2.96155 18.096 2.99773 18.1262 3.04794C18.1563 3.09815 18.1653 3.15828 18.1511 3.21509C18.1369 3.27191 18.1007 3.32076 18.0505 3.35089L12.9314 6.54637L18.4918 3.33721C18.5421 3.30857 18.6016 3.30081 18.6575 3.31562C18.7134 3.33042 18.7613 3.36661 18.7908 3.41637C18.8203 3.46614 18.8291 3.52551 18.8153 3.58169C18.8015 3.63787 18.7661 3.68636 18.7169 3.71673L18.4115 3.90252L18.9234 3.60685C18.9735 3.57796 19.0329 3.5699 19.0889 3.58439C19.1449 3.59888 19.193 3.63478 19.2227 3.68435C19.2525 3.73391 19.2617 3.7932 19.2482 3.84943C19.2347 3.90567 19.1997 3.95437 19.1507 3.98505L12.2756 8.30144L19.5871 4.07993C19.6372 4.05104 19.6967 4.04297 19.7526 4.05747C19.8086 4.07196 19.8567 4.10785 19.8865 4.15742C19.9163 4.20699 19.9254 4.26627 19.9119 4.32251C19.8984 4.37875 19.8634 4.42745 19.8144 4.45812L12.5827 8.99429L20.2054 4.59316C20.2557 4.56326 20.3159 4.55457 20.3726 4.56901C20.4293 4.58346 20.478 4.61984 20.5079 4.67017C20.5378 4.7205 20.5465 4.78064 20.532 4.83738C20.5176 4.89411 20.4812 4.94278 20.4309 4.97269L17.6882 6.64964L20.603 4.96651C20.6531 4.93625 20.7132 4.92714 20.77 4.94116C20.8268 4.95519 20.8757 4.99121 20.906 5.04131C20.9362 5.0914 20.9453 5.15146 20.9313 5.20828C20.9173 5.26509 20.8812 5.31401 20.8312 5.34426L12.1661 10.8094L21.197 5.59625C21.2471 5.56599 21.3071 5.55688 21.364 5.5709C21.4208 5.58493 21.4697 5.62096 21.4999 5.67105C21.5302 5.72114 21.5393 5.7812 21.5253 5.83802C21.5113 5.89483 21.4752 5.94375 21.4251 5.974L12.6988 11.4696L21.731 6.25511C21.7812 6.22515 21.8414 6.21639 21.8981 6.23074C21.9548 6.2451 22.0035 6.28141 22.0335 6.33168C22.0634 6.38195 22.0722 6.44206 22.0579 6.49879C22.0435 6.55553 22.0072 6.60423 21.9569 6.63419L16.5002 9.99472L22.0871 6.76791C22.1374 6.73795 22.1975 6.72918 22.2542 6.74354C22.3109 6.7579 22.3597 6.79421 22.3896 6.84448C22.4196 6.89474 22.4283 6.95486 22.414 7.01159C22.3996 7.06832 22.3633 7.11703 22.313 7.14699L15.9706 11.0706L22.4401 7.33675C22.4899 7.31257 22.5469 7.30794 22.5998 7.32378C22.6528 7.33961 22.6979 7.37475 22.7262 7.42225C22.7545 7.46975 22.7639 7.52614 22.7526 7.58026C22.7413 7.63438 22.7101 7.68229 22.6652 7.71451L15.7879 11.9819L22.7689 7.95149C22.819 7.9226 22.8785 7.91453 22.9344 7.92903C22.9904 7.94352 23.0385 7.97941 23.0683 8.02898C23.0981 8.07855 23.1072 8.13783 23.0937 8.19407C23.0802 8.25031 23.0452 8.29901 22.9962 8.32968L14.8841 13.4073L23.0924 8.66861C23.1425 8.63841 23.2026 8.62937 23.2595 8.64348C23.3163 8.65759 23.3652 8.6937 23.3953 8.74385C23.4255 8.794 23.4346 8.85409 23.4205 8.91091C23.4064 8.96772 23.3703 9.01661 23.3201 9.0468L14.8859 14.3491L23.3757 9.44751C23.4259 9.41978 23.4848 9.41265 23.5402 9.42764C23.5955 9.44262 23.6428 9.47854 23.6721 9.5278C23.7014 9.57706 23.7104 9.63578 23.6972 9.69155C23.6839 9.74731 23.6495 9.79574 23.6012 9.82659L19.3951 12.4073L23.5434 10.0133C23.5937 9.98461 23.6532 9.97686 23.7091 9.99166C23.765 10.0065 23.8129 10.0427 23.8424 10.0924C23.872 10.1422 23.8807 10.2016 23.8669 10.2577C23.8531 10.3139 23.8177 10.3624 23.7685 10.3928L22.3885 11.2313L23.6586 10.4983C23.7087 10.4694 23.7681 10.4613 23.8241 10.4758C23.8801 10.4903 23.9281 10.5262 23.9579 10.5757C23.9877 10.6253 23.9969 10.6846 23.9834 10.7408C23.9699 10.7971 23.9349 10.8458 23.8859 10.8764L17.1083 15.1086L23.7919 11.2498C23.8167 11.2348 23.8442 11.2249 23.8729 11.2206C23.9016 11.2163 23.9308 11.2177 23.9589 11.2247C23.9871 11.2317 24.0135 11.2441 24.0368 11.2613C24.0602 11.2786 24.0799 11.3002 24.0948 11.325C24.1098 11.3499 24.1197 11.3774 24.124 11.4061C24.1283 11.4347 24.1269 11.464 24.1199 11.4921C24.1129 11.5202 24.1005 11.5467 24.0833 11.57C24.066 11.5933 24.0444 11.613 24.0196 11.628L17.4922 15.7109L23.8735 12.0269C23.9236 11.9966 23.9837 11.9874 24.0405 12.0014C24.0974 12.0154 24.1464 12.0514 24.1767 12.1015C24.207 12.1516 24.2162 12.2117 24.2022 12.2685C24.1882 12.3254 24.1522 12.3744 24.1021 12.4047L16.9909 16.8994L23.9031 12.9087C23.9533 12.8786 24.0134 12.8697 24.0702 12.8839C24.1269 12.8981 24.1757 12.9343 24.2058 12.9846C24.2359 13.0348 24.2448 13.0949 24.2305 13.1516C24.2163 13.2084 24.1801 13.2572 24.1299 13.2873L20.366 15.6191L23.8748 13.5931C23.9249 13.5627 23.9849 13.5535 24.0418 13.5674C24.0986 13.5813 24.1476 13.6172 24.178 13.6673C24.2084 13.7173 24.2176 13.7773 24.2037 13.8342C24.1898 13.8911 24.1539 13.9401 24.1039 13.9704L17.8722 17.9325L23.7724 14.526C23.8223 14.499 23.8806 14.4922 23.9353 14.507C23.9899 14.5219 24.0368 14.5571 24.0662 14.6056C24.0956 14.654 24.1052 14.7119 24.0931 14.7673C24.081 14.8226 24.048 14.8712 24.001 14.9029L18.9764 18.09L23.5911 15.4258C23.6409 15.3989 23.6992 15.3921 23.7539 15.4069C23.8086 15.4217 23.8555 15.457 23.8849 15.5054C23.9142 15.5539 23.9239 15.6118 23.9117 15.6671C23.8996 15.7225 23.8666 15.771 23.8197 15.8027L19.6811 18.4329L23.3294 16.327C23.3793 16.2996 23.4379 16.2925 23.4929 16.3072C23.5479 16.322 23.595 16.3574 23.6245 16.4062C23.654 16.4549 23.6635 16.5131 23.651 16.5687C23.6385 16.6243 23.605 16.6729 23.5575 16.7043L21.4834 18.0106L23.0324 17.1165C23.082 17.0883 23.1406 17.0804 23.1959 17.0944C23.2512 17.1085 23.2989 17.1434 23.3289 17.1919C23.359 17.2404 23.3692 17.2986 23.3572 17.3544C23.3453 17.4102 23.3122 17.4592 23.2649 17.4912L19.0192 20.3102L22.4088 18.353C22.4579 18.3254 22.5157 18.3177 22.5704 18.3313C22.625 18.345 22.6724 18.379 22.7028 18.4265C22.7331 18.4739 22.7442 18.5312 22.7337 18.5866C22.7232 18.6419 22.6919 18.6911 22.6462 18.7242L19.118 21.2113L21.2508 19.9801C21.2999 19.9517 21.358 19.9432 21.4131 19.9565C21.4682 19.9697 21.5161 20.0037 21.5468 20.0513C21.5776 20.0989 21.5889 20.1565 21.5783 20.2122C21.5677 20.2679 21.5361 20.3173 21.49 20.3504L19.8943 21.4978C19.927 21.5177 19.9539 21.5458 19.9725 21.5792C19.991 21.6127 20.0006 21.6505 20.0001 21.6888C19.9997 21.7271 19.9893 21.7646 19.9699 21.7976C19.9506 21.8307 19.923 21.8581 19.8898 21.8773L17.1979 23.4311C17.1489 23.4595 17.0908 23.468 17.0356 23.4548C16.9805 23.4415 16.9326 23.4076 16.9019 23.3599C16.8711 23.3123 16.8599 23.2547 16.8704 23.199C16.881 23.1433 16.9126 23.0939 16.9587 23.0609L17.614 22.5909L15.1105 24.0361C15.0615 24.0629 15.0042 24.07 14.9501 24.0561C14.896 24.0423 14.8492 24.0084 14.8191 23.9614C14.789 23.9144 14.7778 23.8577 14.7878 23.8028C14.7979 23.7479 14.8283 23.6988 14.8731 23.6654L18.4035 21.1774L13.1286 24.2193C13.0956 24.2387 13.058 24.2492 13.0196 24.2497Z" fill="#F2A726"/>
<path d="M15.7101 25.774C27.9713 23.4581 29.5075 5.12101 17.7697 0.850068C-3.75184 -5.78361 -6.4129 28.6765 15.7101 25.774ZM12.985 0.472754C29.4333 0.836388 29.4986 25.2034 13.0062 25.5476C-3.4928 25.1408 -3.55811 0.857571 12.985 0.472754Z" fill="#262626"/>
<path d="M12.9248 24.248C23.0051 24.0393 28.3457 11.2737 20.3542 4.47097C3.71922 -7.14857 -7.65671 22.2074 12.9248 24.248ZM12.9579 2.19825C27.0796 2.58704 27.1997 23.3014 13.0462 23.8358C-1.0879 23.3853 -1.21941 2.62323 12.9579 2.19825Z" fill="#262626"/>
<path d="M12.9307 3.99529C13.1818 3.98823 13.3367 3.48294 13.063 3.49044C10.9326 3.52352 8.87186 4.25475 7.19706 5.57193C5.52227 6.88911 4.32595 8.71947 3.79169 10.7821C3.6999 11.1171 4.11782 11.1157 4.19725 10.8262C4.70815 8.89062 5.83824 7.17528 7.41509 5.94193C8.99194 4.70857 10.929 4.02493 12.9307 3.99529ZM3.72373 12.3655C3.3857 12.4136 3.32656 13.3134 3.74448 13.2137C4.08207 13.1678 4.14032 12.264 3.72373 12.3655Z" fill="#262626"/>
<mask id="path-6-outside-1_1_114" maskUnits="userSpaceOnUse" x="4.79248" y="7.8468" width="16" height="10" fill="black">
<rect fill="white" x="4.79248" y="7.8468" width="16" height="10"/>
<path d="M9.37542 15.9966C9.4568 16.0548 9.52655 16.1362 9.5498 16.2292C9.60793 16.3919 9.57306 16.5314 9.43355 16.6593C9.32892 16.7407 9.22428 16.7988 9.08477 16.8453C8.95689 16.8918 8.81738 16.9267 8.67787 16.95C8.52674 16.9732 8.3756 16.9848 8.22447 16.9848C8.07333 16.9848 7.93382 16.9965 7.79431 16.9965C7.75944 16.9965 7.71293 16.9965 7.66643 16.9965C7.63155 16.9965 7.59668 16.9965 7.55017 16.9965C7.52692 16.9965 7.50367 16.9965 7.46879 16.9965C7.43392 16.9965 7.41066 16.9965 7.37579 17.0081C7.31766 17.0081 7.25953 17.0081 7.18978 17.0081C7.13165 17.0197 7.07352 17.0197 7.01539 17.0197C6.91076 17.0197 6.80612 17.0081 6.68987 16.9965C6.56198 16.9848 6.45735 16.9616 6.35272 16.9267C6.24809 16.8918 6.14346 16.8337 6.06208 16.7523C5.9807 16.6826 5.92257 16.5779 5.88769 16.4501C5.81794 16.1827 5.78306 15.9153 5.79468 15.6246C5.80631 15.334 5.81794 15.055 5.85281 14.7759C5.86444 14.6364 5.86444 14.5085 5.87606 14.3807C5.88769 14.2528 5.89932 14.1249 5.89932 13.997C5.89932 13.8459 5.91094 13.7064 5.91094 13.5552C5.91094 13.4041 5.91094 13.2646 5.91094 13.1251C5.92257 12.5554 5.93419 11.9858 5.93419 11.4161C5.93419 10.8464 5.91094 10.2768 5.86444 9.69548C5.86444 9.68386 5.86444 9.64898 5.85281 9.60248C5.84119 9.55597 5.84119 9.50947 5.84119 9.45134C5.82956 9.38159 5.84119 9.32346 5.84119 9.2537C5.85281 9.18395 5.87606 9.12582 5.91094 9.06769C5.94582 8.99794 6.01557 8.95143 6.1202 8.92818C6.22484 8.90493 6.34109 8.8933 6.46898 8.8933C6.58524 8.8933 6.70149 8.8933 6.81775 8.8933C6.94563 8.90493 7.02701 8.91656 7.09677 8.91656C7.16652 8.91656 7.28278 8.90493 7.44554 8.90493C7.6083 8.8933 7.78269 8.8933 7.9687 8.8933C8.16634 8.8933 8.34073 8.88168 8.52674 8.88168C8.70112 8.88168 8.82901 8.88168 8.91039 8.88168C9.06152 8.8933 9.16615 8.95143 9.23591 9.04444C9.30566 9.14907 9.34054 9.2537 9.32892 9.36996C9.32892 9.47459 9.29404 9.5676 9.22428 9.66061C9.15453 9.74199 9.0499 9.78849 8.89876 9.77686C8.72438 9.76524 8.54999 9.76524 8.3756 9.77686C8.18959 9.78849 8.0152 9.80011 7.84082 9.81174C7.70131 9.82337 7.5618 9.83499 7.43392 9.84662C7.29441 9.85824 7.1549 9.85824 7.01539 9.85824C6.96889 9.85824 6.93401 9.85824 6.88751 9.85824C6.85263 9.85824 6.80612 9.85824 6.75962 9.84662C6.7945 10.3349 6.81775 10.7999 6.81775 11.2533C6.81775 11.7067 6.81775 12.1136 6.80612 12.474C6.93401 12.4508 7.08514 12.4392 7.23628 12.4275C7.37579 12.4275 7.53855 12.4159 7.71293 12.4159C7.81757 12.4159 7.9222 12.4159 8.02683 12.4159C8.11984 12.4159 8.22447 12.4275 8.3291 12.4275C8.42211 12.4392 8.50349 12.4392 8.58487 12.4392C8.66625 12.4392 8.74763 12.4392 8.84063 12.4508C8.98014 12.4508 9.08477 12.4973 9.15453 12.5903C9.23591 12.6833 9.27079 12.7879 9.27079 12.8926C9.27079 12.9972 9.23591 13.1018 9.16615 13.1948C9.0964 13.2878 8.98014 13.3343 8.84063 13.3343C8.74763 13.3343 8.65462 13.3343 8.57324 13.3343C8.48023 13.3227 8.38723 13.3227 8.29422 13.3227C8.20122 13.3111 8.09658 13.3111 8.00358 13.3111C7.89895 13.2995 7.79431 13.2995 7.68968 13.2995C7.5153 13.2995 7.35254 13.3111 7.2014 13.3227C7.05027 13.3343 6.91076 13.3576 6.78287 13.3925H6.77125L6.75962 13.8691C6.748 14.1481 6.73637 14.4388 6.72474 14.7411C6.71312 15.0317 6.71312 15.3224 6.70149 15.6246V15.7293C6.68987 15.7874 6.68987 15.8455 6.68987 15.9036C6.68987 15.9618 6.70149 16.0199 6.71312 16.0897C6.82938 16.1013 6.96889 16.1129 7.14327 16.1129H7.42229C7.63155 16.1013 7.81757 16.0897 7.9687 16.078C8.13146 16.078 8.2826 16.0664 8.42211 16.0431C8.52674 16.0431 8.63137 16.0199 8.74763 15.9966C8.75925 15.9966 8.77088 15.9966 8.7825 15.985C8.80576 15.985 8.81738 15.9734 8.84063 15.9734C8.86388 15.9501 8.88714 15.9501 8.91039 15.9501H8.93364C8.99177 15.9153 9.0499 15.9036 9.10803 15.9036C9.20103 15.9036 9.29404 15.9385 9.37542 15.9966Z"/>
<path d="M14.93 15.0201C14.9416 15.2177 14.9416 15.427 14.9416 15.6246C14.93 15.8223 14.9067 16.0199 14.8719 16.2175C14.8486 16.357 14.8137 16.4966 14.7672 16.6244C14.7672 16.6709 14.7556 16.7174 14.7324 16.7523C14.7207 16.7639 14.7207 16.7872 14.7207 16.7988C14.6742 16.9035 14.5928 16.9732 14.4533 16.9848C14.4417 16.9848 14.4185 16.9848 14.3952 16.9848C14.3371 16.9965 14.2789 16.9965 14.2092 16.9732C14.1046 16.95 14.0348 16.8686 13.9999 16.7407C13.7907 16.171 13.4303 15.0317 13.1978 14.4737C12.9652 13.904 12.7211 13.3343 12.477 12.7763C12.2328 12.2066 11.977 11.6486 11.7329 11.0906C11.6399 10.8813 11.5469 10.6604 11.4539 10.4512L11.4655 10.8813C11.4655 11.0324 11.4655 11.172 11.4655 11.3231C11.4655 11.4742 11.4655 11.6137 11.4655 11.7416V11.7532C11.4655 11.9276 11.4655 12.102 11.4655 12.288C11.4655 12.474 11.4655 12.6484 11.4771 12.8344C11.4771 13.0205 11.4888 13.1948 11.512 13.3692C11.5236 13.5552 11.5353 13.7296 11.5469 13.904C11.5585 14.0319 11.5701 14.1714 11.5818 14.3109C11.5934 14.4388 11.605 14.5783 11.605 14.7178C11.6283 14.962 11.6283 15.2061 11.6283 15.4502C11.6166 15.6827 11.6166 15.9269 11.605 16.171V16.2175C11.605 16.2989 11.605 16.3687 11.5934 16.4384C11.5934 16.5198 11.5934 16.5896 11.5934 16.6709C11.5934 16.7291 11.5701 16.7756 11.5469 16.8104C11.5236 16.8453 11.5004 16.8802 11.4771 16.8918C11.4074 16.9616 11.326 16.9965 11.233 17.0081C11.1167 17.0197 11.0354 17.0081 10.9656 16.95C10.9075 16.9035 10.8842 16.8453 10.8726 16.7639C10.8842 16.6826 10.8842 16.6128 10.8842 16.5314C10.8842 16.4617 10.8842 16.3919 10.8959 16.3222C10.8959 16.0664 10.8959 15.8223 10.9075 15.5665C10.9075 15.3224 10.9075 15.0666 10.8959 14.8108C10.8842 14.6364 10.8726 14.4737 10.861 14.2993C10.8493 14.1365 10.8377 13.9738 10.8261 13.811C10.8145 13.6366 10.8028 13.4622 10.7912 13.2878C10.768 13.1135 10.768 12.9391 10.7563 12.7647C10.7447 12.5787 10.7447 12.4043 10.7447 12.2299C10.7447 12.0439 10.7447 11.8695 10.7447 11.6951C10.7447 11.5556 10.7447 11.4045 10.7447 11.2533C10.7447 11.1022 10.7447 10.9511 10.7447 10.7999C10.7331 10.5209 10.7331 10.2419 10.7563 9.96288C10.768 9.67223 10.8261 9.39321 10.9307 9.12582C10.954 9.05607 11.0005 8.99794 11.0586 8.93981C11.1284 8.8933 11.1981 8.85843 11.2679 8.8468C11.3028 8.8468 11.326 8.8468 11.3609 8.8468C11.4074 8.8468 11.4655 8.8468 11.5236 8.87005C11.6283 8.8933 11.698 8.96306 11.7562 9.09094C11.9887 9.64898 12.2328 10.207 12.4886 10.7767C12.7327 11.3347 12.9885 11.8928 13.2326 12.4624C13.4768 13.0205 13.7093 13.5901 13.9418 14.1481C14.0116 14.3225 14.1046 14.5551 14.1859 14.7992C14.1743 14.6016 14.1627 14.4039 14.1511 14.2063C14.1394 13.9389 14.1162 13.6599 14.1046 13.3808C14.0929 13.1948 14.0929 13.0088 14.0813 12.8228C14.0697 12.6368 14.0581 12.4392 14.0348 12.2415C14.0348 11.7067 14.0348 11.1952 14.0232 10.6953C13.9767 10.1838 13.9302 9.68386 13.9651 9.19557C13.9883 9.04444 14.0813 8.96306 14.2441 8.93981C14.3836 8.92818 14.4882 8.95143 14.5812 9.03281C14.651 9.09094 14.6742 9.1607 14.6626 9.26533C14.6277 9.74199 14.6742 10.2303 14.6975 10.7302C14.7207 11.2301 14.7324 11.7416 14.7556 12.2532C14.7905 12.5089 14.8021 12.7647 14.8021 13.0088C14.8137 13.253 14.8254 13.4855 14.837 13.7296C14.8486 13.9505 14.8602 14.183 14.8835 14.4272C14.9067 14.6248 14.9184 14.8224 14.93 15.0201Z"/>
<path d="M20.2422 13.6482C20.3817 13.7645 20.4631 13.9505 20.4748 14.2179C20.4864 14.4737 20.4864 14.7178 20.498 14.962C20.5096 15.1945 20.4864 15.427 20.4515 15.6479C20.405 15.8688 20.3352 16.078 20.219 16.2757C20.0911 16.4733 19.9167 16.6477 19.6842 16.8104C19.6493 16.8337 19.6144 16.857 19.6028 16.857C19.5679 16.8802 19.5447 16.8918 19.5098 16.9035C19.4517 16.9267 19.4052 16.9383 19.3471 16.9383C19.3005 16.95 19.254 16.95 19.2192 16.95L19.1378 16.9383C19.1262 16.9383 19.1145 16.95 19.1029 16.95C19.068 16.95 19.0215 16.95 18.975 16.9616C18.9285 16.9616 18.8936 16.9732 18.8471 16.9732C18.8123 16.9848 18.7774 16.9848 18.7541 16.9848C18.7193 16.9848 18.696 16.9965 18.6611 16.9965C18.6146 17.0081 18.5565 17.0081 18.51 17.0081C18.4519 17.0197 18.4054 17.0197 18.3472 17.0197C18.2659 17.0197 18.1845 17.0081 18.1031 17.0081C18.0217 17.0081 17.9287 16.9965 17.8473 16.9848C17.6381 16.9616 17.4404 16.9035 17.2544 16.8221C17.08 16.7407 16.894 16.6012 16.7196 16.4035C16.6266 16.2873 16.5452 16.171 16.4871 16.0431C16.429 15.9153 16.3825 15.7874 16.3476 15.6595C16.3127 15.5316 16.2895 15.4037 16.2779 15.2642C16.2662 15.1363 16.2546 15.0085 16.2546 14.8806C16.243 14.6481 16.2313 14.4039 16.2081 14.1481C16.1965 13.8924 16.1848 13.6134 16.15 13.2995C16.1267 13.0205 16.1151 12.7414 16.1035 12.4624C16.0918 12.1718 16.0918 11.8928 16.1151 11.6021C16.1383 11.3231 16.1848 11.0441 16.2546 10.7651C16.3127 10.4977 16.4174 10.2186 16.5569 9.96288C16.6034 9.86987 16.6615 9.76524 16.7313 9.66061C16.7894 9.5676 16.8708 9.47459 16.9521 9.38159C17.0452 9.30021 17.1382 9.21883 17.2428 9.14907C17.359 9.07932 17.4869 9.02119 17.6264 8.98631C17.7311 8.95143 17.8125 8.93981 17.8938 8.91656C17.9752 8.90493 18.0682 8.8933 18.1496 8.88168C18.2426 8.88168 18.3356 8.88168 18.4402 8.88168C18.5449 8.8933 18.6611 8.90493 18.8006 8.91656C18.9402 8.92818 19.0332 8.97468 19.1029 9.06769C19.161 9.1607 19.1959 9.26533 19.1843 9.35833C19.1727 9.47459 19.1378 9.5676 19.0564 9.62573C18.975 9.69548 18.882 9.71873 18.7658 9.70711C18.7193 9.70711 18.6844 9.69548 18.6611 9.69548C18.6379 9.68386 18.6146 9.68386 18.5914 9.68386C18.5681 9.68386 18.5449 9.67223 18.5216 9.67223C18.4984 9.67223 18.4635 9.67223 18.417 9.67223C18.1961 9.67223 18.0101 9.69548 17.859 9.74199C17.6729 9.81174 17.5218 9.928 17.4172 10.0908C17.3125 10.2651 17.2312 10.4395 17.1614 10.6139C17.0917 10.8348 17.0335 11.0557 16.987 11.2766C16.9521 11.4975 16.9289 11.7184 16.9173 11.9393C16.9173 12.1718 16.9173 12.3927 16.9289 12.6135C16.9405 12.8344 16.9638 13.0553 16.9754 13.2646L16.987 13.4506C17.0103 13.6366 17.0219 13.8343 17.0335 14.0203C17.0452 14.2179 17.0568 14.4155 17.0684 14.6132V14.7411C17.0684 14.9271 17.08 15.1247 17.1033 15.3107C17.1265 15.4967 17.1847 15.6595 17.2777 15.799C17.3823 15.9385 17.4986 16.0431 17.6032 16.0897C17.7194 16.1478 17.859 16.1827 18.0217 16.1943C18.1496 16.2059 18.2775 16.2175 18.3937 16.2175C18.51 16.2175 18.6263 16.2059 18.7541 16.1943C18.789 16.1827 18.8239 16.171 18.8588 16.171C18.9053 16.171 18.9402 16.171 18.975 16.171C19.0215 16.171 19.068 16.171 19.1029 16.171C19.1378 16.171 19.1727 16.1594 19.1959 16.1594C19.2192 16.1478 19.2424 16.1245 19.2657 16.1013C19.4284 15.9966 19.5331 15.8804 19.5912 15.7409C19.6493 15.6014 19.6842 15.4502 19.6958 15.2991C19.7075 15.1363 19.6958 14.9852 19.6842 14.8224C19.6609 14.6597 19.6493 14.4969 19.6493 14.3458C19.6261 14.276 19.6261 14.2295 19.6377 14.2179C19.6144 14.2179 19.5912 14.2179 19.5796 14.2179C19.5563 14.2179 19.5331 14.2179 19.5098 14.2179C19.4517 14.2063 19.3819 14.2063 19.3238 14.2063C19.254 14.2063 19.1843 14.1947 19.1262 14.1947C19.0099 14.2063 18.9053 14.2063 18.8006 14.2063C18.696 14.2179 18.5914 14.2179 18.4751 14.2179C18.3472 14.2179 18.2542 14.1714 18.1845 14.09C18.1147 14.0086 18.0798 13.9156 18.0798 13.811C18.0798 13.7064 18.1147 13.6134 18.1845 13.5204C18.2426 13.439 18.3472 13.3925 18.4751 13.3925C18.6611 13.3925 18.8704 13.3808 19.0913 13.3692C19.3238 13.3576 19.5331 13.3692 19.7307 13.4041C19.94 13.4506 20.1027 13.5204 20.2422 13.6482Z"/>
</mask>
<path d="M9.37542 15.9966C9.4568 16.0548 9.52655 16.1362 9.5498 16.2292C9.60793 16.3919 9.57306 16.5314 9.43355 16.6593C9.32892 16.7407 9.22428 16.7988 9.08477 16.8453C8.95689 16.8918 8.81738 16.9267 8.67787 16.95C8.52674 16.9732 8.3756 16.9848 8.22447 16.9848C8.07333 16.9848 7.93382 16.9965 7.79431 16.9965C7.75944 16.9965 7.71293 16.9965 7.66643 16.9965C7.63155 16.9965 7.59668 16.9965 7.55017 16.9965C7.52692 16.9965 7.50367 16.9965 7.46879 16.9965C7.43392 16.9965 7.41066 16.9965 7.37579 17.0081C7.31766 17.0081 7.25953 17.0081 7.18978 17.0081C7.13165 17.0197 7.07352 17.0197 7.01539 17.0197C6.91076 17.0197 6.80612 17.0081 6.68987 16.9965C6.56198 16.9848 6.45735 16.9616 6.35272 16.9267C6.24809 16.8918 6.14346 16.8337 6.06208 16.7523C5.9807 16.6826 5.92257 16.5779 5.88769 16.4501C5.81794 16.1827 5.78306 15.9153 5.79468 15.6246C5.80631 15.334 5.81794 15.055 5.85281 14.7759C5.86444 14.6364 5.86444 14.5085 5.87606 14.3807C5.88769 14.2528 5.89932 14.1249 5.89932 13.997C5.89932 13.8459 5.91094 13.7064 5.91094 13.5552C5.91094 13.4041 5.91094 13.2646 5.91094 13.1251C5.92257 12.5554 5.93419 11.9858 5.93419 11.4161C5.93419 10.8464 5.91094 10.2768 5.86444 9.69548C5.86444 9.68386 5.86444 9.64898 5.85281 9.60248C5.84119 9.55597 5.84119 9.50947 5.84119 9.45134C5.82956 9.38159 5.84119 9.32346 5.84119 9.2537C5.85281 9.18395 5.87606 9.12582 5.91094 9.06769C5.94582 8.99794 6.01557 8.95143 6.1202 8.92818C6.22484 8.90493 6.34109 8.8933 6.46898 8.8933C6.58524 8.8933 6.70149 8.8933 6.81775 8.8933C6.94563 8.90493 7.02701 8.91656 7.09677 8.91656C7.16652 8.91656 7.28278 8.90493 7.44554 8.90493C7.6083 8.8933 7.78269 8.8933 7.9687 8.8933C8.16634 8.8933 8.34073 8.88168 8.52674 8.88168C8.70112 8.88168 8.82901 8.88168 8.91039 8.88168C9.06152 8.8933 9.16615 8.95143 9.23591 9.04444C9.30566 9.14907 9.34054 9.2537 9.32892 9.36996C9.32892 9.47459 9.29404 9.5676 9.22428 9.66061C9.15453 9.74199 9.0499 9.78849 8.89876 9.77686C8.72438 9.76524 8.54999 9.76524 8.3756 9.77686C8.18959 9.78849 8.0152 9.80011 7.84082 9.81174C7.70131 9.82337 7.5618 9.83499 7.43392 9.84662C7.29441 9.85824 7.1549 9.85824 7.01539 9.85824C6.96889 9.85824 6.93401 9.85824 6.88751 9.85824C6.85263 9.85824 6.80612 9.85824 6.75962 9.84662C6.7945 10.3349 6.81775 10.7999 6.81775 11.2533C6.81775 11.7067 6.81775 12.1136 6.80612 12.474C6.93401 12.4508 7.08514 12.4392 7.23628 12.4275C7.37579 12.4275 7.53855 12.4159 7.71293 12.4159C7.81757 12.4159 7.9222 12.4159 8.02683 12.4159C8.11984 12.4159 8.22447 12.4275 8.3291 12.4275C8.42211 12.4392 8.50349 12.4392 8.58487 12.4392C8.66625 12.4392 8.74763 12.4392 8.84063 12.4508C8.98014 12.4508 9.08477 12.4973 9.15453 12.5903C9.23591 12.6833 9.27079 12.7879 9.27079 12.8926C9.27079 12.9972 9.23591 13.1018 9.16615 13.1948C9.0964 13.2878 8.98014 13.3343 8.84063 13.3343C8.74763 13.3343 8.65462 13.3343 8.57324 13.3343C8.48023 13.3227 8.38723 13.3227 8.29422 13.3227C8.20122 13.3111 8.09658 13.3111 8.00358 13.3111C7.89895 13.2995 7.79431 13.2995 7.68968 13.2995C7.5153 13.2995 7.35254 13.3111 7.2014 13.3227C7.05027 13.3343 6.91076 13.3576 6.78287 13.3925H6.77125L6.75962 13.8691C6.748 14.1481 6.73637 14.4388 6.72474 14.7411C6.71312 15.0317 6.71312 15.3224 6.70149 15.6246V15.7293C6.68987 15.7874 6.68987 15.8455 6.68987 15.9036C6.68987 15.9618 6.70149 16.0199 6.71312 16.0897C6.82938 16.1013 6.96889 16.1129 7.14327 16.1129H7.42229C7.63155 16.1013 7.81757 16.0897 7.9687 16.078C8.13146 16.078 8.2826 16.0664 8.42211 16.0431C8.52674 16.0431 8.63137 16.0199 8.74763 15.9966C8.75925 15.9966 8.77088 15.9966 8.7825 15.985C8.80576 15.985 8.81738 15.9734 8.84063 15.9734C8.86388 15.9501 8.88714 15.9501 8.91039 15.9501H8.93364C8.99177 15.9153 9.0499 15.9036 9.10803 15.9036C9.20103 15.9036 9.29404 15.9385 9.37542 15.9966Z" fill="#FFD183"/>
<path d="M14.93 15.0201C14.9416 15.2177 14.9416 15.427 14.9416 15.6246C14.93 15.8223 14.9067 16.0199 14.8719 16.2175C14.8486 16.357 14.8137 16.4966 14.7672 16.6244C14.7672 16.6709 14.7556 16.7174 14.7324 16.7523C14.7207 16.7639 14.7207 16.7872 14.7207 16.7988C14.6742 16.9035 14.5928 16.9732 14.4533 16.9848C14.4417 16.9848 14.4185 16.9848 14.3952 16.9848C14.3371 16.9965 14.2789 16.9965 14.2092 16.9732C14.1046 16.95 14.0348 16.8686 13.9999 16.7407C13.7907 16.171 13.4303 15.0317 13.1978 14.4737C12.9652 13.904 12.7211 13.3343 12.477 12.7763C12.2328 12.2066 11.977 11.6486 11.7329 11.0906C11.6399 10.8813 11.5469 10.6604 11.4539 10.4512L11.4655 10.8813C11.4655 11.0324 11.4655 11.172 11.4655 11.3231C11.4655 11.4742 11.4655 11.6137 11.4655 11.7416V11.7532C11.4655 11.9276 11.4655 12.102 11.4655 12.288C11.4655 12.474 11.4655 12.6484 11.4771 12.8344C11.4771 13.0205 11.4888 13.1948 11.512 13.3692C11.5236 13.5552 11.5353 13.7296 11.5469 13.904C11.5585 14.0319 11.5701 14.1714 11.5818 14.3109C11.5934 14.4388 11.605 14.5783 11.605 14.7178C11.6283 14.962 11.6283 15.2061 11.6283 15.4502C11.6166 15.6827 11.6166 15.9269 11.605 16.171V16.2175C11.605 16.2989 11.605 16.3687 11.5934 16.4384C11.5934 16.5198 11.5934 16.5896 11.5934 16.6709C11.5934 16.7291 11.5701 16.7756 11.5469 16.8104C11.5236 16.8453 11.5004 16.8802 11.4771 16.8918C11.4074 16.9616 11.326 16.9965 11.233 17.0081C11.1167 17.0197 11.0354 17.0081 10.9656 16.95C10.9075 16.9035 10.8842 16.8453 10.8726 16.7639C10.8842 16.6826 10.8842 16.6128 10.8842 16.5314C10.8842 16.4617 10.8842 16.3919 10.8959 16.3222C10.8959 16.0664 10.8959 15.8223 10.9075 15.5665C10.9075 15.3224 10.9075 15.0666 10.8959 14.8108C10.8842 14.6364 10.8726 14.4737 10.861 14.2993C10.8493 14.1365 10.8377 13.9738 10.8261 13.811C10.8145 13.6366 10.8028 13.4622 10.7912 13.2878C10.768 13.1135 10.768 12.9391 10.7563 12.7647C10.7447 12.5787 10.7447 12.4043 10.7447 12.2299C10.7447 12.0439 10.7447 11.8695 10.7447 11.6951C10.7447 11.5556 10.7447 11.4045 10.7447 11.2533C10.7447 11.1022 10.7447 10.9511 10.7447 10.7999C10.7331 10.5209 10.7331 10.2419 10.7563 9.96288C10.768 9.67223 10.8261 9.39321 10.9307 9.12582C10.954 9.05607 11.0005 8.99794 11.0586 8.93981C11.1284 8.8933 11.1981 8.85843 11.2679 8.8468C11.3028 8.8468 11.326 8.8468 11.3609 8.8468C11.4074 8.8468 11.4655 8.8468 11.5236 8.87005C11.6283 8.8933 11.698 8.96306 11.7562 9.09094C11.9887 9.64898 12.2328 10.207 12.4886 10.7767C12.7327 11.3347 12.9885 11.8928 13.2326 12.4624C13.4768 13.0205 13.7093 13.5901 13.9418 14.1481C14.0116 14.3225 14.1046 14.5551 14.1859 14.7992C14.1743 14.6016 14.1627 14.4039 14.1511 14.2063C14.1394 13.9389 14.1162 13.6599 14.1046 13.3808C14.0929 13.1948 14.0929 13.0088 14.0813 12.8228C14.0697 12.6368 14.0581 12.4392 14.0348 12.2415C14.0348 11.7067 14.0348 11.1952 14.0232 10.6953C13.9767 10.1838 13.9302 9.68386 13.9651 9.19557C13.9883 9.04444 14.0813 8.96306 14.2441 8.93981C14.3836 8.92818 14.4882 8.95143 14.5812 9.03281C14.651 9.09094 14.6742 9.1607 14.6626 9.26533C14.6277 9.74199 14.6742 10.2303 14.6975 10.7302C14.7207 11.2301 14.7324 11.7416 14.7556 12.2532C14.7905 12.5089 14.8021 12.7647 14.8021 13.0088C14.8137 13.253 14.8254 13.4855 14.837 13.7296C14.8486 13.9505 14.8602 14.183 14.8835 14.4272C14.9067 14.6248 14.9184 14.8224 14.93 15.0201Z" fill="#FFD183"/>
<path d="M20.2422 13.6482C20.3817 13.7645 20.4631 13.9505 20.4748 14.2179C20.4864 14.4737 20.4864 14.7178 20.498 14.962C20.5096 15.1945 20.4864 15.427 20.4515 15.6479C20.405 15.8688 20.3352 16.078 20.219 16.2757C20.0911 16.4733 19.9167 16.6477 19.6842 16.8104C19.6493 16.8337 19.6144 16.857 19.6028 16.857C19.5679 16.8802 19.5447 16.8918 19.5098 16.9035C19.4517 16.9267 19.4052 16.9383 19.3471 16.9383C19.3005 16.95 19.254 16.95 19.2192 16.95L19.1378 16.9383C19.1262 16.9383 19.1145 16.95 19.1029 16.95C19.068 16.95 19.0215 16.95 18.975 16.9616C18.9285 16.9616 18.8936 16.9732 18.8471 16.9732C18.8123 16.9848 18.7774 16.9848 18.7541 16.9848C18.7193 16.9848 18.696 16.9965 18.6611 16.9965C18.6146 17.0081 18.5565 17.0081 18.51 17.0081C18.4519 17.0197 18.4054 17.0197 18.3472 17.0197C18.2659 17.0197 18.1845 17.0081 18.1031 17.0081C18.0217 17.0081 17.9287 16.9965 17.8473 16.9848C17.6381 16.9616 17.4404 16.9035 17.2544 16.8221C17.08 16.7407 16.894 16.6012 16.7196 16.4035C16.6266 16.2873 16.5452 16.171 16.4871 16.0431C16.429 15.9153 16.3825 15.7874 16.3476 15.6595C16.3127 15.5316 16.2895 15.4037 16.2779 15.2642C16.2662 15.1363 16.2546 15.0085 16.2546 14.8806C16.243 14.6481 16.2313 14.4039 16.2081 14.1481C16.1965 13.8924 16.1848 13.6134 16.15 13.2995C16.1267 13.0205 16.1151 12.7414 16.1035 12.4624C16.0918 12.1718 16.0918 11.8928 16.1151 11.6021C16.1383 11.3231 16.1848 11.0441 16.2546 10.7651C16.3127 10.4977 16.4174 10.2186 16.5569 9.96288C16.6034 9.86987 16.6615 9.76524 16.7313 9.66061C16.7894 9.5676 16.8708 9.47459 16.9521 9.38159C17.0452 9.30021 17.1382 9.21883 17.2428 9.14907C17.359 9.07932 17.4869 9.02119 17.6264 8.98631C17.7311 8.95143 17.8125 8.93981 17.8938 8.91656C17.9752 8.90493 18.0682 8.8933 18.1496 8.88168C18.2426 8.88168 18.3356 8.88168 18.4402 8.88168C18.5449 8.8933 18.6611 8.90493 18.8006 8.91656C18.9402 8.92818 19.0332 8.97468 19.1029 9.06769C19.161 9.1607 19.1959 9.26533 19.1843 9.35833C19.1727 9.47459 19.1378 9.5676 19.0564 9.62573C18.975 9.69548 18.882 9.71873 18.7658 9.70711C18.7193 9.70711 18.6844 9.69548 18.6611 9.69548C18.6379 9.68386 18.6146 9.68386 18.5914 9.68386C18.5681 9.68386 18.5449 9.67223 18.5216 9.67223C18.4984 9.67223 18.4635 9.67223 18.417 9.67223C18.1961 9.67223 18.0101 9.69548 17.859 9.74199C17.6729 9.81174 17.5218 9.928 17.4172 10.0908C17.3125 10.2651 17.2312 10.4395 17.1614 10.6139C17.0917 10.8348 17.0335 11.0557 16.987 11.2766C16.9521 11.4975 16.9289 11.7184 16.9173 11.9393C16.9173 12.1718 16.9173 12.3927 16.9289 12.6135C16.9405 12.8344 16.9638 13.0553 16.9754 13.2646L16.987 13.4506C17.0103 13.6366 17.0219 13.8343 17.0335 14.0203C17.0452 14.2179 17.0568 14.4155 17.0684 14.6132V14.7411C17.0684 14.9271 17.08 15.1247 17.1033 15.3107C17.1265 15.4967 17.1847 15.6595 17.2777 15.799C17.3823 15.9385 17.4986 16.0431 17.6032 16.0897C17.7194 16.1478 17.859 16.1827 18.0217 16.1943C18.1496 16.2059 18.2775 16.2175 18.3937 16.2175C18.51 16.2175 18.6263 16.2059 18.7541 16.1943C18.789 16.1827 18.8239 16.171 18.8588 16.171C18.9053 16.171 18.9402 16.171 18.975 16.171C19.0215 16.171 19.068 16.171 19.1029 16.171C19.1378 16.171 19.1727 16.1594 19.1959 16.1594C19.2192 16.1478 19.2424 16.1245 19.2657 16.1013C19.4284 15.9966 19.5331 15.8804 19.5912 15.7409C19.6493 15.6014 19.6842 15.4502 19.6958 15.2991C19.7075 15.1363 19.6958 14.9852 19.6842 14.8224C19.6609 14.6597 19.6493 14.4969 19.6493 14.3458C19.6261 14.276 19.6261 14.2295 19.6377 14.2179C19.6144 14.2179 19.5912 14.2179 19.5796 14.2179C19.5563 14.2179 19.5331 14.2179 19.5098 14.2179C19.4517 14.2063 19.3819 14.2063 19.3238 14.2063C19.254 14.2063 19.1843 14.1947 19.1262 14.1947C19.0099 14.2063 18.9053 14.2063 18.8006 14.2063C18.696 14.2179 18.5914 14.2179 18.4751 14.2179C18.3472 14.2179 18.2542 14.1714 18.1845 14.09C18.1147 14.0086 18.0798 13.9156 18.0798 13.811C18.0798 13.7064 18.1147 13.6134 18.1845 13.5204C18.2426 13.439 18.3472 13.3925 18.4751 13.3925C18.6611 13.3925 18.8704 13.3808 19.0913 13.3692C19.3238 13.3576 19.5331 13.3692 19.7307 13.4041C19.94 13.4506 20.1027 13.5204 20.2422 13.6482Z" fill="#FFD183"/>
<path d="M9.37542 15.9966C9.4568 16.0548 9.52655 16.1362 9.5498 16.2292C9.60793 16.3919 9.57306 16.5314 9.43355 16.6593C9.32892 16.7407 9.22428 16.7988 9.08477 16.8453C8.95689 16.8918 8.81738 16.9267 8.67787 16.95C8.52674 16.9732 8.3756 16.9848 8.22447 16.9848C8.07333 16.9848 7.93382 16.9965 7.79431 16.9965C7.75944 16.9965 7.71293 16.9965 7.66643 16.9965C7.63155 16.9965 7.59668 16.9965 7.55017 16.9965C7.52692 16.9965 7.50367 16.9965 7.46879 16.9965C7.43392 16.9965 7.41066 16.9965 7.37579 17.0081C7.31766 17.0081 7.25953 17.0081 7.18978 17.0081C7.13165 17.0197 7.07352 17.0197 7.01539 17.0197C6.91076 17.0197 6.80612 17.0081 6.68987 16.9965C6.56198 16.9848 6.45735 16.9616 6.35272 16.9267C6.24809 16.8918 6.14346 16.8337 6.06208 16.7523C5.9807 16.6826 5.92257 16.5779 5.88769 16.4501C5.81794 16.1827 5.78306 15.9153 5.79468 15.6246C5.80631 15.334 5.81794 15.055 5.85281 14.7759C5.86444 14.6364 5.86444 14.5085 5.87606 14.3807C5.88769 14.2528 5.89932 14.1249 5.89932 13.997C5.89932 13.8459 5.91094 13.7064 5.91094 13.5552C5.91094 13.4041 5.91094 13.2646 5.91094 13.1251C5.92257 12.5554 5.93419 11.9858 5.93419 11.4161C5.93419 10.8464 5.91094 10.2768 5.86444 9.69548C5.86444 9.68386 5.86444 9.64898 5.85281 9.60248C5.84119 9.55597 5.84119 9.50947 5.84119 9.45134C5.82956 9.38159 5.84119 9.32346 5.84119 9.2537C5.85281 9.18395 5.87606 9.12582 5.91094 9.06769C5.94582 8.99794 6.01557 8.95143 6.1202 8.92818C6.22484 8.90493 6.34109 8.8933 6.46898 8.8933C6.58524 8.8933 6.70149 8.8933 6.81775 8.8933C6.94563 8.90493 7.02701 8.91656 7.09677 8.91656C7.16652 8.91656 7.28278 8.90493 7.44554 8.90493C7.6083 8.8933 7.78269 8.8933 7.9687 8.8933C8.16634 8.8933 8.34073 8.88168 8.52674 8.88168C8.70112 8.88168 8.82901 8.88168 8.91039 8.88168C9.06152 8.8933 9.16615 8.95143 9.23591 9.04444C9.30566 9.14907 9.34054 9.2537 9.32892 9.36996C9.32892 9.47459 9.29404 9.5676 9.22428 9.66061C9.15453 9.74199 9.0499 9.78849 8.89876 9.77686C8.72438 9.76524 8.54999 9.76524 8.3756 9.77686C8.18959 9.78849 8.0152 9.80011 7.84082 9.81174C7.70131 9.82337 7.5618 9.83499 7.43392 9.84662C7.29441 9.85824 7.1549 9.85824 7.01539 9.85824C6.96889 9.85824 6.93401 9.85824 6.88751 9.85824C6.85263 9.85824 6.80612 9.85824 6.75962 9.84662C6.7945 10.3349 6.81775 10.7999 6.81775 11.2533C6.81775 11.7067 6.81775 12.1136 6.80612 12.474C6.93401 12.4508 7.08514 12.4392 7.23628 12.4275C7.37579 12.4275 7.53855 12.4159 7.71293 12.4159C7.81757 12.4159 7.9222 12.4159 8.02683 12.4159C8.11984 12.4159 8.22447 12.4275 8.3291 12.4275C8.42211 12.4392 8.50349 12.4392 8.58487 12.4392C8.66625 12.4392 8.74763 12.4392 8.84063 12.4508C8.98014 12.4508 9.08477 12.4973 9.15453 12.5903C9.23591 12.6833 9.27079 12.7879 9.27079 12.8926C9.27079 12.9972 9.23591 13.1018 9.16615 13.1948C9.0964 13.2878 8.98014 13.3343 8.84063 13.3343C8.74763 13.3343 8.65462 13.3343 8.57324 13.3343C8.48023 13.3227 8.38723 13.3227 8.29422 13.3227C8.20122 13.3111 8.09658 13.3111 8.00358 13.3111C7.89895 13.2995 7.79431 13.2995 7.68968 13.2995C7.5153 13.2995 7.35254 13.3111 7.2014 13.3227C7.05027 13.3343 6.91076 13.3576 6.78287 13.3925H6.77125L6.75962 13.8691C6.748 14.1481 6.73637 14.4388 6.72474 14.7411C6.71312 15.0317 6.71312 15.3224 6.70149 15.6246V15.7293C6.68987 15.7874 6.68987 15.8455 6.68987 15.9036C6.68987 15.9618 6.70149 16.0199 6.71312 16.0897C6.82938 16.1013 6.96889 16.1129 7.14327 16.1129H7.42229C7.63155 16.1013 7.81757 16.0897 7.9687 16.078C8.13146 16.078 8.2826 16.0664 8.42211 16.0431C8.52674 16.0431 8.63137 16.0199 8.74763 15.9966C8.75925 15.9966 8.77088 15.9966 8.7825 15.985C8.80576 15.985 8.81738 15.9734 8.84063 15.9734C8.86388 15.9501 8.88714 15.9501 8.91039 15.9501H8.93364C8.99177 15.9153 9.0499 15.9036 9.10803 15.9036C9.20103 15.9036 9.29404 15.9385 9.37542 15.9966Z" stroke="#262626" stroke-width="0.558999" mask="url(#path-6-outside-1_1_114)"/>
<path d="M14.93 15.0201C14.9416 15.2177 14.9416 15.427 14.9416 15.6246C14.93 15.8223 14.9067 16.0199 14.8719 16.2175C14.8486 16.357 14.8137 16.4966 14.7672 16.6244C14.7672 16.6709 14.7556 16.7174 14.7324 16.7523C14.7207 16.7639 14.7207 16.7872 14.7207 16.7988C14.6742 16.9035 14.5928 16.9732 14.4533 16.9848C14.4417 16.9848 14.4185 16.9848 14.3952 16.9848C14.3371 16.9965 14.2789 16.9965 14.2092 16.9732C14.1046 16.95 14.0348 16.8686 13.9999 16.7407C13.7907 16.171 13.4303 15.0317 13.1978 14.4737C12.9652 13.904 12.7211 13.3343 12.477 12.7763C12.2328 12.2066 11.977 11.6486 11.7329 11.0906C11.6399 10.8813 11.5469 10.6604 11.4539 10.4512L11.4655 10.8813C11.4655 11.0324 11.4655 11.172 11.4655 11.3231C11.4655 11.4742 11.4655 11.6137 11.4655 11.7416V11.7532C11.4655 11.9276 11.4655 12.102 11.4655 12.288C11.4655 12.474 11.4655 12.6484 11.4771 12.8344C11.4771 13.0205 11.4888 13.1948 11.512 13.3692C11.5236 13.5552 11.5353 13.7296 11.5469 13.904C11.5585 14.0319 11.5701 14.1714 11.5818 14.3109C11.5934 14.4388 11.605 14.5783 11.605 14.7178C11.6283 14.962 11.6283 15.2061 11.6283 15.4502C11.6166 15.6827 11.6166 15.9269 11.605 16.171V16.2175C11.605 16.2989 11.605 16.3687 11.5934 16.4384C11.5934 16.5198 11.5934 16.5896 11.5934 16.6709C11.5934 16.7291 11.5701 16.7756 11.5469 16.8104C11.5236 16.8453 11.5004 16.8802 11.4771 16.8918C11.4074 16.9616 11.326 16.9965 11.233 17.0081C11.1167 17.0197 11.0354 17.0081 10.9656 16.95C10.9075 16.9035 10.8842 16.8453 10.8726 16.7639C10.8842 16.6826 10.8842 16.6128 10.8842 16.5314C10.8842 16.4617 10.8842 16.3919 10.8959 16.3222C10.8959 16.0664 10.8959 15.8223 10.9075 15.5665C10.9075 15.3224 10.9075 15.0666 10.8959 14.8108C10.8842 14.6364 10.8726 14.4737 10.861 14.2993C10.8493 14.1365 10.8377 13.9738 10.8261 13.811C10.8145 13.6366 10.8028 13.4622 10.7912 13.2878C10.768 13.1135 10.768 12.9391 10.7563 12.7647C10.7447 12.5787 10.7447 12.4043 10.7447 12.2299C10.7447 12.0439 10.7447 11.8695 10.7447 11.6951C10.7447 11.5556 10.7447 11.4045 10.7447 11.2533C10.7447 11.1022 10.7447 10.9511 10.7447 10.7999C10.7331 10.5209 10.7331 10.2419 10.7563 9.96288C10.768 9.67223 10.8261 9.39321 10.9307 9.12582C10.954 9.05607 11.0005 8.99794 11.0586 8.93981C11.1284 8.8933 11.1981 8.85843 11.2679 8.8468C11.3028 8.8468 11.326 8.8468 11.3609 8.8468C11.4074 8.8468 11.4655 8.8468 11.5236 8.87005C11.6283 8.8933 11.698 8.96306 11.7562 9.09094C11.9887 9.64898 12.2328 10.207 12.4886 10.7767C12.7327 11.3347 12.9885 11.8928 13.2326 12.4624C13.4768 13.0205 13.7093 13.5901 13.9418 14.1481C14.0116 14.3225 14.1046 14.5551 14.1859 14.7992C14.1743 14.6016 14.1627 14.4039 14.1511 14.2063C14.1394 13.9389 14.1162 13.6599 14.1046 13.3808C14.0929 13.1948 14.0929 13.0088 14.0813 12.8228C14.0697 12.6368 14.0581 12.4392 14.0348 12.2415C14.0348 11.7067 14.0348 11.1952 14.0232 10.6953C13.9767 10.1838 13.9302 9.68386 13.9651 9.19557C13.9883 9.04444 14.0813 8.96306 14.2441 8.93981C14.3836 8.92818 14.4882 8.95143 14.5812 9.03281C14.651 9.09094 14.6742 9.1607 14.6626 9.26533C14.6277 9.74199 14.6742 10.2303 14.6975 10.7302C14.7207 11.2301 14.7324 11.7416 14.7556 12.2532C14.7905 12.5089 14.8021 12.7647 14.8021 13.0088C14.8137 13.253 14.8254 13.4855 14.837 13.7296C14.8486 13.9505 14.8602 14.183 14.8835 14.4272C14.9067 14.6248 14.9184 14.8224 14.93 15.0201Z" stroke="#262626" stroke-width="0.558999" mask="url(#path-6-outside-1_1_114)"/>
<path d="M20.2422 13.6482C20.3817 13.7645 20.4631 13.9505 20.4748 14.2179C20.4864 14.4737 20.4864 14.7178 20.498 14.962C20.5096 15.1945 20.4864 15.427 20.4515 15.6479C20.405 15.8688 20.3352 16.078 20.219 16.2757C20.0911 16.4733 19.9167 16.6477 19.6842 16.8104C19.6493 16.8337 19.6144 16.857 19.6028 16.857C19.5679 16.8802 19.5447 16.8918 19.5098 16.9035C19.4517 16.9267 19.4052 16.9383 19.3471 16.9383C19.3005 16.95 19.254 16.95 19.2192 16.95L19.1378 16.9383C19.1262 16.9383 19.1145 16.95 19.1029 16.95C19.068 16.95 19.0215 16.95 18.975 16.9616C18.9285 16.9616 18.8936 16.9732 18.8471 16.9732C18.8123 16.9848 18.7774 16.9848 18.7541 16.9848C18.7193 16.9848 18.696 16.9965 18.6611 16.9965C18.6146 17.0081 18.5565 17.0081 18.51 17.0081C18.4519 17.0197 18.4054 17.0197 18.3472 17.0197C18.2659 17.0197 18.1845 17.0081 18.1031 17.0081C18.0217 17.0081 17.9287 16.9965 17.8473 16.9848C17.6381 16.9616 17.4404 16.9035 17.2544 16.8221C17.08 16.7407 16.894 16.6012 16.7196 16.4035C16.6266 16.2873 16.5452 16.171 16.4871 16.0431C16.429 15.9153 16.3825 15.7874 16.3476 15.6595C16.3127 15.5316 16.2895 15.4037 16.2779 15.2642C16.2662 15.1363 16.2546 15.0085 16.2546 14.8806C16.243 14.6481 16.2313 14.4039 16.2081 14.1481C16.1965 13.8924 16.1848 13.6134 16.15 13.2995C16.1267 13.0205 16.1151 12.7414 16.1035 12.4624C16.0918 12.1718 16.0918 11.8928 16.1151 11.6021C16.1383 11.3231 16.1848 11.0441 16.2546 10.7651C16.3127 10.4977 16.4174 10.2186 16.5569 9.96288C16.6034 9.86987 16.6615 9.76524 16.7313 9.66061C16.7894 9.5676 16.8708 9.47459 16.9521 9.38159C17.0452 9.30021 17.1382 9.21883 17.2428 9.14907C17.359 9.07932 17.4869 9.02119 17.6264 8.98631C17.7311 8.95143 17.8125 8.93981 17.8938 8.91656C17.9752 8.90493 18.0682 8.8933 18.1496 8.88168C18.2426 8.88168 18.3356 8.88168 18.4402 8.88168C18.5449 8.8933 18.6611 8.90493 18.8006 8.91656C18.9402 8.92818 19.0332 8.97468 19.1029 9.06769C19.161 9.1607 19.1959 9.26533 19.1843 9.35833C19.1727 9.47459 19.1378 9.5676 19.0564 9.62573C18.975 9.69548 18.882 9.71873 18.7658 9.70711C18.7193 9.70711 18.6844 9.69548 18.6611 9.69548C18.6379 9.68386 18.6146 9.68386 18.5914 9.68386C18.5681 9.68386 18.5449 9.67223 18.5216 9.67223C18.4984 9.67223 18.4635 9.67223 18.417 9.67223C18.1961 9.67223 18.0101 9.69548 17.859 9.74199C17.6729 9.81174 17.5218 9.928 17.4172 10.0908C17.3125 10.2651 17.2312 10.4395 17.1614 10.6139C17.0917 10.8348 17.0335 11.0557 16.987 11.2766C16.9521 11.4975 16.9289 11.7184 16.9173 11.9393C16.9173 12.1718 16.9173 12.3927 16.9289 12.6135C16.9405 12.8344 16.9638 13.0553 16.9754 13.2646L16.987 13.4506C17.0103 13.6366 17.0219 13.8343 17.0335 14.0203C17.0452 14.2179 17.0568 14.4155 17.0684 14.6132V14.7411C17.0684 14.9271 17.08 15.1247 17.1033 15.3107C17.1265 15.4967 17.1847 15.6595 17.2777 15.799C17.3823 15.9385 17.4986 16.0431 17.6032 16.0897C17.7194 16.1478 17.859 16.1827 18.0217 16.1943C18.1496 16.2059 18.2775 16.2175 18.3937 16.2175C18.51 16.2175 18.6263 16.2059 18.7541 16.1943C18.789 16.1827 18.8239 16.171 18.8588 16.171C18.9053 16.171 18.9402 16.171 18.975 16.171C19.0215 16.171 19.068 16.171 19.1029 16.171C19.1378 16.171 19.1727 16.1594 19.1959 16.1594C19.2192 16.1478 19.2424 16.1245 19.2657 16.1013C19.4284 15.9966 19.5331 15.8804 19.5912 15.7409C19.6493 15.6014 19.6842 15.4502 19.6958 15.2991C19.7075 15.1363 19.6958 14.9852 19.6842 14.8224C19.6609 14.6597 19.6493 14.4969 19.6493 14.3458C19.6261 14.276 19.6261 14.2295 19.6377 14.2179C19.6144 14.2179 19.5912 14.2179 19.5796 14.2179C19.5563 14.2179 19.5331 14.2179 19.5098 14.2179C19.4517 14.2063 19.3819 14.2063 19.3238 14.2063C19.254 14.2063 19.1843 14.1947 19.1262 14.1947C19.0099 14.2063 18.9053 14.2063 18.8006 14.2063C18.696 14.2179 18.5914 14.2179 18.4751 14.2179C18.3472 14.2179 18.2542 14.1714 18.1845 14.09C18.1147 14.0086 18.0798 13.9156 18.0798 13.811C18.0798 13.7064 18.1147 13.6134 18.1845 13.5204C18.2426 13.439 18.3472 13.3925 18.4751 13.3925C18.6611 13.3925 18.8704 13.3808 19.0913 13.3692C19.3238 13.3576 19.5331 13.3692 19.7307 13.4041C19.94 13.4506 20.1027 13.5204 20.2422 13.6482Z" stroke="#262626" stroke-width="0.558999" mask="url(#path-6-outside-1_1_114)"/>
</svg>
