<svg width="23" height="22" viewBox="0 0 23 22" fill="none" xmlns="http://www.w3.org/2000/svg">
<path fill-rule="evenodd" clip-rule="evenodd" d="M7.54355 6.61205C7.49875 6.60422 7.45596 6.58669 7.41828 6.56044C7.36568 6.5238 7.32557 6.47191 7.30336 6.41177C7.28115 6.35163 7.2779 6.28612 7.29406 6.22408C7.31021 6.16204 7.345 6.10644 7.39372 6.06477L9.65674 4.13293L8.62621 4.72754C8.56002 4.76623 8.48194 4.77934 8.40674 4.76437C8.33154 4.7494 8.26443 4.70741 8.21809 4.64632C8.17175 4.58523 8.1494 4.50928 8.15525 4.43283C8.16111 4.35638 8.19478 4.28472 8.24988 4.2314L9.93147 2.59122L9.52189 2.82768C9.45919 2.86405 9.38583 2.87758 9.31428 2.86597C9.24274 2.85435 9.17742 2.81832 9.12944 2.76398C9.08147 2.70965 9.05379 2.64037 9.05113 2.56794C9.04846 2.4955 9.07097 2.42438 9.11482 2.36667L10.0657 1.11223C10.0015 1.08609 9.94798 1.03901 9.9139 0.978627C9.87227 0.906673 9.8609 0.821131 9.88231 0.740801C9.90371 0.660471 9.95614 0.591927 10.0281 0.550234L10.9062 0.0421838C10.9689 0.00586292 11.0423 -0.00759061 11.1139 0.00411267C11.1854 0.0158159 11.2507 0.0519529 11.2986 0.106374C11.3466 0.160795 11.3741 0.230137 11.3767 0.3026C11.3792 0.375063 11.3566 0.44617 11.3126 0.503819L10.553 1.50738L11.7818 0.797987C11.848 0.759291 11.926 0.746188 12.0012 0.761153C12.0765 0.776118 12.1436 0.818114 12.1899 0.879204C12.2362 0.940294 12.2586 1.01624 12.2527 1.0927C12.2469 1.16915 12.2132 1.2408 12.1581 1.29412L10.4784 2.93368L12.2973 1.88308C12.3652 1.84236 12.4459 1.82878 12.5233 1.84504C12.6007 1.86131 12.6691 1.90623 12.7148 1.9708C12.7605 2.03537 12.7801 2.11482 12.7697 2.19324C12.7593 2.27165 12.7196 2.34323 12.6586 2.39364L10.3956 4.32611L12.7972 2.93932C12.8329 2.91841 12.8724 2.90475 12.9134 2.89915C12.9543 2.89355 12.996 2.89611 13.036 2.90668C13.076 2.91725 13.1135 2.93563 13.1463 2.96075C13.1792 2.98587 13.2068 3.01724 13.2274 3.05306C13.2481 3.08888 13.2615 3.12843 13.2668 3.16945C13.2722 3.21046 13.2693 3.25213 13.2585 3.29204C13.2485 3.32897 13.2318 3.36374 13.2093 3.39462C13.23 3.39537 13.2508 3.39819 13.2713 3.40312C13.3522 3.42259 13.422 3.47338 13.4654 3.54433C13.5088 3.61528 13.5223 3.70057 13.5028 3.78144C13.4833 3.86231 13.4325 3.93213 13.3616 3.97555L12.7915 4.34373L13.3177 4.03952C13.3877 3.99793 13.4712 3.98522 13.5505 4.0041C13.6297 4.02299 13.6985 4.07197 13.7423 4.14069C13.7861 4.2094 13.8014 4.29245 13.785 4.37226C13.7686 4.45207 13.7218 4.52237 13.6545 4.56827L9.11091 7.73637L13.7887 5.03555C13.8594 4.99164 13.9447 4.9776 14.0257 4.99654C14.1068 5.01548 14.177 5.06584 14.2209 5.13654C14.2648 5.20723 14.2788 5.29248 14.2599 5.37353C14.241 5.45457 14.1906 5.52478 14.1199 5.56869L11.9052 7.04016L14.1299 5.75623C14.2001 5.71354 14.2842 5.70007 14.3642 5.71873C14.4442 5.73739 14.5137 5.78668 14.5577 5.85602C14.6017 5.92535 14.6168 6.00919 14.5997 6.08952C14.5826 6.16985 14.5346 6.24025 14.4661 6.28561L10.5146 9.0341L14.8293 6.54214C14.8995 6.50053 14.9832 6.48793 15.0625 6.50703C15.1419 6.52612 15.2107 6.5754 15.2543 6.6444C15.2979 6.7134 15.3129 6.79668 15.2961 6.87655C15.2792 6.95642 15.232 7.02658 15.1642 7.07214L11.5069 9.59671L16.3873 6.77923C16.4574 6.73843 16.5406 6.72639 16.6194 6.74562C16.6982 6.76486 16.7665 6.81387 16.8099 6.88239C16.8534 6.9509 16.8685 7.03357 16.8523 7.11304C16.8361 7.19252 16.7897 7.26261 16.7229 7.30861L11.3338 11.0494L18.242 7.06085C18.3128 7.01969 18.3969 7.00784 18.4763 7.02785C18.5557 7.04785 18.6241 7.09811 18.6669 7.16789C18.7098 7.23768 18.7236 7.32144 18.7055 7.4013C18.6874 7.48115 18.6388 7.55076 18.5701 7.59525L14.6411 10.1562L19.6351 7.27097C19.706 7.23135 19.7894 7.22077 19.868 7.24145C19.9465 7.26213 20.0139 7.31246 20.0561 7.38185C20.0983 7.45124 20.1119 7.53428 20.0941 7.6135C20.0763 7.69273 20.0284 7.76195 19.9606 7.80662L16.6294 9.93353L20.877 7.48109C20.9478 7.44077 21.0315 7.42961 21.1105 7.44997C21.1894 7.47034 21.2573 7.52062 21.2998 7.59017C21.3422 7.65973 21.356 7.74309 21.3381 7.82259C21.3201 7.9021 21.272 7.97151 21.2038 8.01611L15.6503 11.5856L21.4716 8.22686C21.5068 8.20553 21.5459 8.19135 21.5867 8.18513C21.6274 8.17891 21.669 8.18077 21.709 8.19062C21.749 8.20046 21.7867 8.21809 21.8199 8.24249C21.8531 8.2669 21.8811 8.29761 21.9025 8.33286C21.9238 8.36811 21.938 8.40722 21.9442 8.44796C21.9504 8.48869 21.9486 8.53025 21.9387 8.57027C21.9289 8.61028 21.9113 8.64796 21.8869 8.68116C21.8624 8.71436 21.8317 8.74243 21.7965 8.76376L17.209 11.6722L20.6192 9.70083C20.6897 9.66138 20.7728 9.65068 20.851 9.67097C20.9292 9.69126 20.9966 9.74097 21.0391 9.80974C21.0816 9.8785 21.0959 9.96101 21.079 10.0401C21.0621 10.1191 21.0153 10.1886 20.9485 10.234L12.9639 15.512L17.4956 12.8997C17.5642 12.8604 17.6451 12.8484 17.7221 12.8662C17.7991 12.884 17.8666 12.9302 17.911 12.9957C17.9554 13.0611 17.9735 13.1408 17.9616 13.219C17.9497 13.2971 17.9087 13.3679 17.8469 13.4171L14.5514 16.0289L16.8671 14.6923C16.9363 14.6532 17.0178 14.6419 17.095 14.6605C17.1722 14.6792 17.2395 14.7264 17.2832 14.7928C17.3269 14.8591 17.3438 14.9396 17.3305 15.0179C17.3172 15.0962 17.2747 15.1666 17.2115 15.2147L16.1891 15.9812L17.0045 15.512C17.0722 15.4723 17.1524 15.4593 17.2292 15.4758C17.306 15.4923 17.3738 15.5371 17.4192 15.6012C17.4647 15.6653 17.4844 15.7441 17.4745 15.822C17.4646 15.8999 17.4258 15.9713 17.3658 16.022L15.6447 17.4916L17.1826 16.604C17.2494 16.5663 17.3277 16.5544 17.4027 16.5705C17.4777 16.5866 17.5441 16.6296 17.5896 16.6914C17.635 16.7532 17.6562 16.8295 17.6492 16.9058C17.6421 16.9822 17.6074 17.0534 17.5514 17.1058L16.2092 18.3389L17.3545 17.6772C17.4208 17.6373 17.4996 17.6233 17.5757 17.638C17.6517 17.6526 17.7196 17.6949 17.7663 17.7567C17.8131 17.8184 17.8353 17.8953 17.8287 17.9725C17.8222 18.0496 17.7873 18.1216 17.7308 18.1746L16.8929 18.9837L17.5126 18.6256C17.5751 18.5901 17.6479 18.577 17.7189 18.5884C17.79 18.5998 17.855 18.635 17.9033 18.6883C17.9513 18.7421 17.9793 18.8107 17.9826 18.8827C17.9859 18.9546 17.9643 19.0255 17.9215 19.0835L17.1381 20.1497L17.7076 19.8211C17.7683 19.7859 17.8391 19.7722 17.9085 19.782C17.978 19.7918 18.0421 19.8246 18.0907 19.8752C18.1394 19.9257 18.1696 19.9911 18.1767 20.0609C18.1838 20.1307 18.1672 20.2008 18.1297 20.2601L17.8161 20.7563C17.8864 20.7529 17.9558 20.7733 18.0132 20.8141C18.0705 20.8549 18.1124 20.9139 18.1322 20.9814C18.1519 21.049 18.1484 21.1212 18.1221 21.1865C18.0959 21.2518 18.0484 21.3064 17.9874 21.3415L17.0748 21.8689C17.0268 21.8956 16.9728 21.9092 16.9179 21.9085C16.8618 21.9085 16.8067 21.8935 16.7584 21.8649C16.7101 21.8364 16.6703 21.7954 16.6432 21.7463C16.6161 21.6972 16.6026 21.6416 16.6043 21.5856C16.606 21.5295 16.6227 21.4748 16.6526 21.4274L16.9242 20.9946L16.1515 21.4412C16.0891 21.4771 16.0162 21.4905 15.9451 21.4791C15.874 21.4676 15.809 21.4321 15.761 21.3783C15.7131 21.3246 15.685 21.256 15.6817 21.1841C15.6783 21.1122 15.6998 21.0413 15.7425 20.9833L16.5266 19.917L14.9924 20.8027C14.9261 20.842 14.8477 20.8555 14.7721 20.8407C14.6965 20.8258 14.629 20.7837 14.5824 20.7223C14.5359 20.6609 14.5136 20.5845 14.5198 20.5077C14.526 20.4309 14.5603 20.3591 14.616 20.3059L15.4546 19.4968L14.0704 20.3009C14.0036 20.3391 13.925 20.3515 13.8497 20.3356C13.7744 20.3197 13.7076 20.2767 13.662 20.2147C13.6163 20.1527 13.5951 20.0761 13.6023 19.9995C13.6095 19.9228 13.6446 19.8515 13.7009 19.7991L15.0407 18.566L13.0267 19.7282C12.959 19.7672 12.8793 19.7795 12.803 19.7628C12.7268 19.7461 12.6595 19.7016 12.6143 19.6379C12.5692 19.5743 12.5494 19.496 12.5588 19.4186C12.5683 19.3411 12.6063 19.2699 12.6654 19.2189L14.384 17.7468L11.9623 19.1449C11.893 19.1849 11.8112 19.1969 11.7334 19.1785C11.6557 19.1602 11.5878 19.1128 11.5438 19.0461C11.4998 18.9794 11.4828 18.8984 11.4965 18.8197C11.5102 18.741 11.5534 18.6704 11.6173 18.6224L12.6397 17.8547L11.1651 18.7059C11.0964 18.746 11.0152 18.7585 10.9377 18.741C10.8601 18.7235 10.7922 18.6772 10.7475 18.6115C10.7028 18.5457 10.6847 18.4655 10.6969 18.387C10.7091 18.3084 10.7507 18.2375 10.8132 18.1884L14.1092 15.5767L4.29196 21.2455C4.22153 21.2844 4.13885 21.2947 4.06102 21.2743C3.98319 21.254 3.91617 21.2045 3.8738 21.1361C3.83143 21.0677 3.81696 20.9857 3.83338 20.9069C3.84981 20.8282 3.89587 20.7587 3.96204 20.713L11.9491 15.4343L4.39043 19.7991C4.31942 19.8397 4.23537 19.8509 4.15619 19.8304C4.07701 19.8099 4.00898 19.7593 3.9666 19.6893C3.92422 19.6194 3.91084 19.5356 3.92933 19.456C3.94781 19.3763 3.99668 19.307 4.06553 19.2628L8.65304 16.355L4.56668 18.714C4.49592 18.7529 4.41288 18.7631 4.33485 18.7423C4.25682 18.7215 4.18981 18.6714 4.14777 18.6025C4.10574 18.5335 4.09193 18.451 4.1092 18.3721C4.12648 18.2932 4.17352 18.2241 4.24053 18.179L9.7927 14.6101L4.76237 17.5148C4.69126 17.558 4.60588 17.5713 4.52501 17.5515C4.44414 17.5318 4.37441 17.4808 4.33116 17.4097C4.28791 17.3386 4.27468 17.2532 4.29438 17.1723C4.31408 17.0915 4.36511 17.0217 4.43622 16.9785L7.77367 14.8459L4.92796 16.4886C4.85718 16.5298 4.7731 16.5416 4.6937 16.5216C4.6143 16.5016 4.54587 16.4514 4.50303 16.3816C4.4602 16.3118 4.44635 16.228 4.46446 16.1482C4.48256 16.0683 4.53118 15.9987 4.59992 15.9542L8.52446 13.3958L5.11048 15.3665C5.04037 15.4073 4.95719 15.4194 4.87838 15.4001C4.79958 15.3809 4.7313 15.3319 4.68787 15.2634C4.64444 15.1949 4.62925 15.1122 4.64548 15.0327C4.66171 14.9532 4.70811 14.8832 4.77492 14.8372L10.169 11.0958L5.09292 14.0287C5.0227 14.0703 4.93903 14.0829 4.85967 14.0638C4.78032 14.0447 4.71153 13.9954 4.66793 13.9264C4.62433 13.8574 4.60934 13.7741 4.62616 13.6943C4.64297 13.6144 4.69026 13.5442 4.75798 13.4987L8.41595 10.9728L4.38102 13.3023C4.31106 13.3414 4.2288 13.3523 4.15111 13.3326C4.07341 13.3129 4.0062 13.2643 3.96326 13.1966C3.92032 13.129 3.90491 13.0474 3.92019 12.9688C3.93548 12.8901 3.9803 12.8203 4.04546 12.7736L7.99696 10.0245L3.63651 12.5422C3.56581 12.586 3.4806 12.5999 3.39961 12.5809C3.31862 12.5619 3.2485 12.5116 3.20467 12.4409C3.16083 12.3702 3.14688 12.2849 3.16588 12.204C3.18488 12.123 3.23527 12.0528 3.30596 12.009L5.51692 10.5394L3.06198 11.9563C2.99197 11.9965 2.90917 12.0081 2.8308 11.9888C2.75244 11.9695 2.68454 11.9207 2.64123 11.8526C2.59792 11.7845 2.58254 11.7023 2.59829 11.6231C2.61404 11.544 2.6597 11.4739 2.72578 11.4276L7.26938 8.25822L2.26791 11.1434C2.19708 11.1838 2.11334 11.1949 2.03442 11.1746C1.9555 11.1542 1.88761 11.1039 1.84513 11.0344C1.80265 10.9648 1.78891 10.8815 1.80683 10.8019C1.82475 10.7224 1.87292 10.653 1.94113 10.6084L2.51629 10.2371L1.79059 10.6561C1.72513 10.6944 1.64801 10.7076 1.57353 10.6934C1.49904 10.6791 1.43223 10.6384 1.38547 10.5787C1.33871 10.519 1.31516 10.4444 1.31919 10.3687C1.32321 10.293 1.35454 10.2213 1.40736 10.1669L2.97542 8.53608L0.891158 9.73909C0.835228 9.7713 0.770724 9.78547 0.706445 9.77966C0.642167 9.77386 0.581244 9.74836 0.531991 9.70665C0.482737 9.66495 0.447551 9.60906 0.431233 9.54662C0.414915 9.48417 0.41826 9.41821 0.440812 9.35774L0.810246 8.37426L0.625842 8.48089C0.55385 8.52182 0.468591 8.53261 0.38867 8.51091C0.308748 8.48922 0.240653 8.43679 0.199245 8.36507C0.157837 8.29335 0.146477 8.20816 0.167645 8.1281C0.188813 8.04803 0.240789 7.97959 0.312231 7.93771L1.25306 7.39328C1.30905 7.36096 1.37365 7.34673 1.43803 7.35254C1.50241 7.35834 1.56343 7.3839 1.61273 7.42571C1.66202 7.46753 1.6972 7.52355 1.71343 7.58612C1.72966 7.64869 1.72616 7.71475 1.70341 7.77526L1.33837 8.76L4.58738 6.88398C4.65285 6.84572 4.72996 6.83247 4.80445 6.8467C4.87893 6.86092 4.94574 6.90165 4.9925 6.96135C5.03926 7.02104 5.06281 7.09566 5.05879 7.17138C5.05476 7.24711 5.02344 7.31881 4.97061 7.37321L3.40256 9.00399L7.54355 6.61205Z" fill="#F2A726"/>
<path d="M2.39844 11.792C3.10845 12.5942 4.00538 13.2942 4.66145 14.1127C3.02189 22.8531 2.72146 23.6597 10.8672 18.7686C19.0393 23.6866 19.0675 22.7389 17.3445 13.9283C23.6644 7.72946 24.207 7.65608 15.0483 6.53648C11.4599 -2.08594 10.6201 -1.95172 7.02295 6.58478C3.14295 7.27535 -3.63043 6.99122 2.39844 11.792ZM15.0225 6.53711C14.9084 6.53711 14.9473 6.47439 15.0225 6.53711V6.53711ZM1.16093 7.89003C8.11494 6.74221 7.39238 8.24692 10.2939 1.42964C10.5203 0.951697 10.8553 0.0447329 11.4022 0.969886C12.3932 2.93058 13.2042 5.04683 14.2686 6.9423C23.31 8.22622 22.6941 7.64165 16.4928 13.9515C17.2109 21.6237 19.8214 23.1397 11.3972 18.2574C9.22199 18.6676 7.33405 20.511 5.27739 21.3402C4.01291 21.6362 4.76495 18.8589 4.84774 18.3521C5.03967 16.2609 6.5149 13.7188 4.15215 12.3803C3.4045 11.1535 -0.129898 9.35585 1.16155 7.89003H1.16093Z" fill="#262626"/>
</svg>
