<svg width="262" height="90" viewBox="0 0 262 90" fill="none" xmlns="http://www.w3.org/2000/svg">
<g filter="url(#filter0_b_1_5479)">
<path d="M2.01518 21.4622C2.13617 10.5903 10.933 1.75957 21.8042 1.59644C156.627 -0.426617 208.118 -0.396037 242.941 0.955012C253.615 1.36914 261.897 10.3048 261.736 20.9857C261.468 38.7685 261.176 53.0795 260.73 70.1323C260.443 81.1242 251.286 89.7991 240.294 89.5523C161.831 87.7907 110.041 86.8044 21.6818 89.3328C10.0095 89.6668 0.49167 80.0142 0.929192 68.3453C1.51959 52.5991 1.82302 38.7287 2.01518 21.4622Z" fill="#777B8D" fill-opacity="0.3"/>
<path d="M2.51515 21.4677C2.63312 10.8669 11.2115 2.25545 21.8117 2.09639C156.638 0.0732827 208.115 0.104204 242.922 1.45464C253.318 1.85799 261.393 10.5625 261.236 20.9782C260.968 38.7592 260.676 53.0684 260.23 70.1193C259.95 80.8342 251.024 89.293 240.305 89.0524C161.839 87.2908 110.04 86.3042 21.6675 88.833C10.2858 89.1587 1.00209 79.7456 1.42884 68.3641C2.01944 52.6125 2.32295 38.7377 2.51515 21.4677Z" stroke="url(#paint0_linear_1_5479)"/>
</g>
<path d="M45.7661 16.536C45.9341 16.632 46.0301 16.776 46.0781 16.968C46.3661 18.24 46.5341 19.488 46.5581 20.736C46.5821 21.984 46.5581 23.232 46.5101 24.504C46.4621 25.776 46.4141 27.072 46.4141 28.344C46.3901 29.616 46.3901 30.888 46.3901 32.184C46.3901 32.448 46.2941 32.664 46.1261 32.784C45.9581 32.928 45.7421 33 45.5261 33C45.3101 33 45.1181 32.928 44.9261 32.784C44.7581 32.664 44.6621 32.448 44.6621 32.184C44.6621 30.888 44.6621 29.616 44.6861 28.344C44.7101 27.072 44.7341 25.776 44.8061 24.504C44.8541 23.4 44.8541 22.32 44.8541 21.24C44.8301 20.16 44.7341 19.08 44.5421 18C43.8461 17.952 43.1501 17.928 42.4781 17.904C41.7821 17.88 41.0861 17.88 40.3901 17.904C40.4381 19.176 40.4381 20.448 40.3661 21.72C40.3181 22.968 40.3181 24.24 40.3421 25.512C40.3421 26.232 40.3661 26.928 40.3661 27.6C40.3661 28.296 40.3901 28.992 40.4141 29.688C40.4381 29.952 40.4381 30.192 40.4381 30.408C40.4381 30.624 40.4381 30.84 40.4141 31.056C40.4141 31.272 40.3901 31.488 40.3661 31.704C40.3421 31.92 40.3181 32.16 40.2941 32.424C40.2701 32.64 40.1501 32.808 39.9581 32.88C39.7661 32.976 39.5741 32.976 39.3581 32.928C39.1421 32.904 38.9741 32.784 38.8061 32.616C38.6621 32.448 38.5901 32.232 38.6141 31.968C38.6621 31.656 38.6861 31.368 38.7101 31.128C38.7341 30.864 38.7341 30.624 38.7341 30.384C38.7101 30.144 38.6861 29.928 38.6861 29.688C38.6621 29.448 38.6621 29.184 38.6621 28.92C38.6381 28.272 38.6141 27.624 38.6141 26.952C38.6141 26.304 38.6141 25.656 38.6141 25.008C38.5901 23.688 38.6141 22.368 38.6621 21.072C38.7101 19.752 38.7101 18.432 38.6381 17.112C38.6381 16.872 38.7101 16.656 38.9021 16.512C39.0941 16.368 39.2861 16.296 39.5021 16.272C40.4621 16.2 41.4221 16.176 42.3821 16.224C43.3421 16.272 44.2781 16.32 45.2621 16.368C45.4541 16.392 45.6221 16.44 45.7661 16.536ZM58.7414 21.096C58.8374 21.888 58.9334 22.656 58.9814 23.376C59.0054 23.808 59.0534 24.288 59.1014 24.84C59.1254 25.368 59.1494 25.968 59.1494 26.568C59.1254 27.168 59.1014 27.768 59.0294 28.392C58.9574 29.016 58.8374 29.592 58.6454 30.12C58.4774 30.648 58.2134 31.128 57.9014 31.56C57.5654 31.992 57.1574 32.304 56.6534 32.52C56.2454 32.688 55.7654 32.832 55.2374 32.904C54.7334 32.976 54.2054 33 53.6534 33C53.1254 32.976 52.5974 32.904 52.0934 32.76C51.5894 32.64 51.1334 32.472 50.7494 32.256C50.2694 31.992 49.8854 31.608 49.6454 31.128C49.4054 30.624 49.2374 30.096 49.1174 29.52C49.0214 28.968 48.9734 28.392 48.9734 27.816C48.9734 27.24 48.9734 26.712 48.9734 26.28C48.9734 25.512 48.9974 24.744 49.0454 24C49.0934 23.232 49.1174 22.488 49.1654 21.72C49.1894 21.24 49.2134 20.76 49.2614 20.28C49.3334 19.776 49.4054 19.32 49.5254 18.84C49.6454 18.408 49.8134 18.024 50.0534 17.736C50.2934 17.424 50.5574 17.184 50.8454 16.992C51.1334 16.8 51.4214 16.632 51.7334 16.536C52.0454 16.416 52.3334 16.344 52.5974 16.296C52.8614 16.248 53.1014 16.224 53.2934 16.2C53.4854 16.2 53.6054 16.2 53.6534 16.2C54.1334 16.224 54.6134 16.272 55.0694 16.368C55.5494 16.488 55.9814 16.656 56.3654 16.872C56.7494 17.088 57.1094 17.352 57.4214 17.688C57.7094 18.024 57.9734 18.408 58.1654 18.864C58.4294 19.584 58.6214 20.328 58.7414 21.096ZM55.8614 31.104C56.1494 30.96 56.3654 30.768 56.5334 30.48C56.8454 29.952 57.0614 29.4 57.2054 28.776C57.3494 28.152 57.4454 27.528 57.4694 26.88C57.5174 26.256 57.4934 25.608 57.4454 24.96C57.4214 24.312 57.3494 23.712 57.3014 23.112C57.2534 22.632 57.1814 22.128 57.1094 21.648C57.0614 21.168 56.9654 20.688 56.8454 20.208C56.4854 18.792 55.6214 18 54.2534 17.832C54.2294 17.856 54.1334 17.856 53.9654 17.856C53.8214 17.856 53.6054 17.856 53.3894 17.88C53.1494 17.904 52.9094 17.952 52.6214 18.048C52.3574 18.144 52.0934 18.312 51.8534 18.528C51.6134 18.744 51.3974 19.032 51.2294 19.392C51.0374 19.776 50.9174 20.256 50.8694 20.856C50.7734 21.84 50.7014 22.824 50.6534 23.784C50.6294 24.768 50.6054 25.752 50.6294 26.736C50.6534 27.24 50.6774 27.768 50.7014 28.296C50.7254 28.824 50.8214 29.352 50.9654 29.856C51.1094 30.384 51.3734 30.744 51.7334 30.936C52.0934 31.128 52.5494 31.248 53.1014 31.296C53.3654 31.32 53.6774 31.344 54.0134 31.368C54.3494 31.392 54.6854 31.368 54.9974 31.344C55.3094 31.296 55.5974 31.224 55.8614 31.104ZM69.3114 30.144C69.4794 30.768 69.6474 31.392 69.8394 31.992C69.9354 32.256 69.9114 32.448 69.7914 32.616C69.6714 32.784 69.5034 32.904 69.2874 32.952C69.0954 33.024 68.8794 33 68.6634 32.928C68.4714 32.856 68.3034 32.688 68.2314 32.448C67.9914 31.8 67.7994 31.152 67.6554 30.456C67.4874 29.784 67.3434 29.088 67.1994 28.392C67.0554 27.696 66.9114 27 66.7674 26.328C66.6234 25.632 66.4554 24.984 66.2634 24.336C66.0714 23.712 65.8794 23.136 65.7114 22.536C65.5194 21.936 65.3274 21.336 65.1354 20.736C64.7754 22.584 64.4154 24.48 64.0314 26.4C63.6474 28.344 63.3834 30.24 63.2394 32.136C63.2154 32.4 63.0954 32.592 62.9274 32.712C62.7354 32.856 62.5434 32.904 62.3274 32.904C62.1114 32.904 61.9434 32.856 61.7754 32.712C61.6074 32.592 61.5354 32.4 61.5594 32.136C61.6554 30.888 61.7994 29.616 62.0154 28.368C62.2314 27.096 62.4474 25.824 62.6874 24.552C62.9514 23.28 63.1914 22.008 63.4314 20.76C63.6954 19.488 63.9114 18.24 64.0794 16.992C64.1034 16.776 64.1994 16.608 64.3434 16.464C64.4874 16.344 64.6554 16.248 64.8474 16.224C65.0394 16.176 65.2074 16.2 65.3754 16.296C65.5434 16.392 65.6634 16.56 65.7354 16.776C66.0474 18.072 66.4314 19.344 66.8634 20.592C67.2954 21.816 67.6794 23.088 68.0394 24.384C68.2074 24.984 68.3514 25.608 68.4954 26.256C68.6154 26.904 68.7594 27.552 68.8794 28.2C69.0234 28.848 69.1674 29.496 69.3114 30.144ZM78.3892 19.752C78.7492 18.72 79.2052 17.688 79.7332 16.68C79.8772 16.464 80.0452 16.32 80.2372 16.296C80.4532 16.272 80.6452 16.296 80.8372 16.392C81.0052 16.512 81.1492 16.656 81.2452 16.848C81.3172 17.064 81.3172 17.28 81.1972 17.52C80.7412 18.336 80.3812 19.176 80.0692 20.04C79.7572 20.904 79.4692 21.768 79.2292 22.656C78.9652 23.544 78.7012 24.408 78.4612 25.296C78.1972 26.184 77.9332 27.048 77.6212 27.912C77.4052 28.464 77.1892 29.016 76.9492 29.616C76.7092 30.192 76.4452 30.744 76.1092 31.224C75.7732 31.728 75.3652 32.136 74.8852 32.472C74.3812 32.808 73.8052 33 73.1092 33.048C72.8452 33.072 72.6292 33 72.5092 32.832C72.3652 32.664 72.3172 32.496 72.3172 32.28C72.3172 32.088 72.3652 31.896 72.5092 31.728C72.6292 31.56 72.8452 31.44 73.1092 31.44C73.4452 31.416 73.7332 31.32 73.9732 31.152C74.2132 30.984 74.4292 30.768 74.5972 30.528C74.7892 30.264 74.9332 30 75.0532 29.736C75.1732 29.448 75.2932 29.16 75.4372 28.92C75.7252 28.248 75.9892 27.576 76.2052 26.88C76.4452 26.208 76.6372 25.512 76.8292 24.816C76.8532 24.792 76.8532 24.792 76.8532 24.792C76.3492 24.312 75.9172 23.76 75.5572 23.16C75.1732 22.56 74.8372 21.912 74.5492 21.264C74.2372 20.592 73.9492 19.944 73.6852 19.272C73.3972 18.624 73.1092 18 72.7972 17.424C72.6772 17.184 72.6532 16.992 72.7252 16.8C72.7972 16.608 72.9412 16.464 73.1092 16.368C73.2772 16.272 73.4692 16.224 73.6852 16.272C73.9012 16.296 74.0932 16.416 74.2612 16.632C74.5732 17.064 74.8612 17.544 75.1012 18.096C75.3412 18.672 75.5812 19.224 75.7972 19.8C76.0132 20.376 76.2532 20.928 76.5172 21.48C76.7572 22.032 77.0452 22.512 77.3812 22.944C77.7172 21.864 78.0292 20.808 78.3892 19.752ZM92.0124 21.456C92.0124 22.896 92.0364 24.384 92.1084 25.848C92.1084 26.4 92.1564 26.928 92.2284 27.504C92.3004 28.056 92.3484 28.608 92.3964 29.16C92.4444 29.736 92.4684 30.288 92.4444 30.84C92.4444 31.416 92.3724 31.944 92.2524 32.448C92.1804 32.712 92.0604 32.88 91.8684 32.976C91.6764 33.048 91.4844 33.072 91.2924 33C91.0764 32.952 90.9324 32.832 90.7884 32.664C90.6684 32.496 90.6204 32.304 90.6924 32.04C90.8124 31.464 90.8604 30.912 90.8124 30.36C90.7404 29.784 90.6924 29.232 90.6444 28.68C90.6204 28.512 90.5964 28.368 90.5964 28.2C90.5964 28.056 90.5724 27.888 90.5724 27.744C90.0684 27.864 89.5164 27.96 88.9164 27.96C88.3404 27.984 87.7404 27.96 87.1884 27.864C86.6124 27.744 86.1084 27.576 85.6284 27.36C85.1724 27.12 84.8124 26.832 84.5724 26.448C84.3804 26.136 84.2124 25.8 84.1164 25.44C84.0444 25.08 83.9724 24.696 83.9484 24.336C83.9244 23.952 83.9004 23.568 83.9244 23.184C83.9244 22.8 83.9484 22.44 83.9484 22.104C83.9724 21.768 83.9964 21.384 84.0204 20.976C84.0444 20.592 84.0684 20.184 84.0684 19.776C84.0924 19.368 84.0684 18.96 84.0204 18.576C83.9724 18.192 83.8764 17.832 83.7564 17.52C83.6604 17.28 83.6364 17.064 83.7324 16.872C83.8284 16.68 83.9724 16.512 84.1404 16.416C84.3084 16.32 84.5004 16.272 84.7164 16.32C84.9084 16.344 85.0524 16.488 85.1724 16.728C85.4124 17.28 85.5564 17.88 85.6044 18.504C85.6524 19.128 85.6764 19.752 85.6524 20.4C85.6284 21.024 85.5804 21.672 85.5564 22.296C85.5084 22.944 85.5084 23.544 85.5564 24.168C85.6044 24.528 85.6764 24.84 85.7724 25.08C85.8684 25.344 86.0364 25.536 86.2284 25.704C86.4204 25.872 86.6364 25.968 86.9004 26.04C87.1884 26.112 87.5004 26.184 87.8604 26.208C88.2684 26.232 88.7004 26.256 89.1804 26.28C89.6364 26.304 90.0924 26.232 90.4764 26.064C90.4764 25.872 90.4764 25.656 90.4764 25.44C90.4764 25.224 90.4524 25.032 90.4524 24.816C90.4284 23.52 90.4044 22.224 90.4044 20.928C90.3804 19.632 90.3804 18.336 90.3804 17.04C90.3804 16.776 90.4764 16.56 90.6444 16.44C90.8124 16.32 90.9804 16.248 91.1964 16.248C91.4124 16.248 91.6044 16.32 91.7724 16.44C91.9164 16.56 92.0124 16.776 92.0124 17.04C92.0124 18.504 92.0124 19.992 92.0124 21.456ZM94.8881 30.24C94.8641 29.832 94.8401 29.424 94.8641 29.016C94.8641 28.584 94.8881 28.176 94.8881 27.768C94.9361 27.264 94.9361 26.784 94.9361 26.328C94.9361 25.824 94.9601 25.344 94.9361 24.84C94.9361 24.312 94.9601 23.784 94.9841 23.256C95.0081 22.224 94.9841 21.168 94.9841 20.136C95.0081 19.08 95.0561 18.072 94.9361 17.088C94.9121 16.896 94.9601 16.728 95.1041 16.608C95.2721 16.44 95.4881 16.368 95.7761 16.392C96.1121 16.44 96.3281 16.608 96.3761 16.896C96.4721 17.904 96.4241 18.936 96.3761 19.992C96.4001 21.024 96.4481 22.104 96.4721 23.184V23.208C96.4481 23.592 96.4241 24 96.4241 24.384C96.4241 24.792 96.4241 25.176 96.4241 25.536C96.4241 26.112 96.4001 26.688 96.3761 27.264C96.3761 27.672 96.3761 28.08 96.3761 28.488C96.5201 27.96 96.6881 27.48 96.8081 27.12C97.2401 25.944 97.6961 24.768 98.1521 23.568C98.6081 22.392 99.0881 21.216 99.5681 20.04C100.024 18.864 100.48 17.688 100.936 16.512C101.032 16.248 101.176 16.104 101.392 16.032C101.512 15.984 101.608 15.984 101.728 15.984C101.776 15.984 101.848 15.984 101.896 15.984C102.064 15.984 102.208 16.056 102.352 16.152C102.472 16.248 102.568 16.368 102.64 16.512C102.88 17.064 103 17.64 103.072 18.216C103.12 18.816 103.144 19.392 103.144 19.968C103.144 20.28 103.168 20.592 103.168 20.904C103.192 21.192 103.216 21.504 103.216 21.792C103.24 22.152 103.264 22.512 103.264 22.896C103.288 23.256 103.288 23.64 103.288 24C103.288 24.36 103.264 24.72 103.264 25.08C103.24 25.464 103.24 25.824 103.216 26.184C103.216 26.496 103.192 26.856 103.168 27.192C103.168 27.552 103.168 27.888 103.168 28.248C103.168 28.752 103.168 29.28 103.192 29.808C103.24 30.312 103.264 30.84 103.288 31.368C103.288 31.512 103.312 31.656 103.312 31.8C103.336 31.944 103.336 32.112 103.36 32.256C103.36 32.424 103.288 32.568 103.192 32.664C103.048 32.784 102.88 32.832 102.64 32.808C102.448 32.784 102.28 32.712 102.112 32.592C102.064 32.544 102.016 32.496 101.968 32.424C101.92 32.352 101.872 32.256 101.872 32.136C101.848 31.968 101.848 31.824 101.848 31.656C101.824 31.512 101.824 31.368 101.8 31.2V31.104C101.776 30.6 101.728 30.096 101.704 29.616C101.68 29.112 101.68 28.608 101.68 28.104C101.68 27.816 101.68 27.528 101.704 27.264C101.728 26.976 101.728 26.688 101.728 26.424C101.752 26.064 101.752 25.704 101.776 25.32C101.8 24.96 101.8 24.576 101.8 24.216C101.8 23.832 101.8 23.448 101.776 23.088C101.776 22.704 101.752 22.344 101.728 21.96C101.728 21.696 101.728 21.408 101.704 21.096C101.68 20.784 101.68 20.496 101.68 20.184L101.656 19.296C101.488 19.728 101.32 20.184 101.128 20.64C100.672 21.816 100.192 22.992 99.7361 24.168C99.2801 25.344 98.8241 26.544 98.3921 27.72C97.9601 28.896 97.2881 31.272 96.9041 32.472C96.8321 32.736 96.6881 32.904 96.4961 32.976C96.3521 33 96.2321 33.024 96.1121 33C96.0641 33 96.0161 33 95.9921 33C95.7041 32.976 95.5361 32.856 95.4401 32.64C95.4161 32.616 95.4161 32.592 95.3921 32.544C95.3441 32.472 95.3201 32.4 95.2961 32.304C95.2001 32.016 95.1281 31.752 95.0561 31.464C94.9601 31.056 94.9121 30.648 94.8881 30.24ZM115.219 16.608C115.387 16.8 115.483 16.968 115.531 17.16C115.579 17.568 115.435 17.88 115.051 18.048C114.859 18.12 114.619 18.168 114.355 18.168C114.283 18.168 114.211 18.168 114.139 18.168C114.067 18.168 113.995 18.168 113.923 18.144C113.827 18.144 113.755 18.144 113.683 18.12C113.395 18.12 113.083 18.144 112.795 18.192C112.483 18.24 112.171 18.264 111.883 18.24C111.931 18.456 111.979 18.648 112.003 18.864C112.027 19.08 112.051 19.296 112.075 19.488C112.171 20.328 112.219 21.168 112.195 22.008C112.195 22.848 112.195 23.64 112.171 24.384C112.147 24.624 112.147 24.888 112.171 25.224C112.195 25.56 112.195 25.92 112.219 26.328C112.267 26.808 112.315 27.312 112.363 27.864C112.411 28.416 112.435 28.968 112.459 29.496C112.483 30.048 112.483 30.576 112.483 31.056C112.459 31.56 112.387 32.016 112.291 32.376C112.219 32.592 112.147 32.736 112.051 32.856C111.955 32.976 111.787 33.048 111.595 33.048C111.427 33.048 111.283 33.048 111.115 33.048C110.971 33.048 110.851 32.976 110.755 32.856C110.73 32.832 110.707 32.688 110.683 32.448C110.659 32.208 110.611 31.92 110.611 31.56C110.587 31.2 110.562 30.816 110.539 30.384C110.515 29.952 110.491 29.52 110.467 29.088C110.467 28.656 110.443 28.248 110.443 27.864C110.419 27.48 110.419 27.144 110.419 26.88C110.419 26.52 110.395 26.232 110.371 25.944C110.323 25.68 110.323 25.44 110.323 25.248C110.371 24.456 110.395 23.688 110.419 22.968C110.419 22.248 110.419 21.528 110.371 20.832V20.76C110.347 20.472 110.347 20.184 110.323 19.896C110.299 19.584 110.251 19.296 110.203 19.008L110.179 18.864C110.155 18.768 110.131 18.672 110.131 18.6C110.107 18.504 110.083 18.432 110.035 18.36C110.011 18.312 109.987 18.264 109.939 18.24V18.216C109.891 18.216 109.843 18.168 109.819 18.12C109.675 18.12 109.507 18.12 109.339 18.096C109.171 18.096 109.003 18.096 108.811 18.096C108.379 18.096 108.019 18.12 107.707 18.168C107.395 18.216 107.107 18.288 106.867 18.384C106.603 18.48 106.363 18.456 106.171 18.312C105.955 18.192 105.811 17.976 105.763 17.688C105.739 17.472 105.763 17.28 105.835 17.064C105.931 16.848 106.099 16.68 106.363 16.584C106.939 16.368 107.707 16.272 108.643 16.272C108.883 16.272 109.123 16.272 109.363 16.248C109.603 16.248 109.819 16.248 110.035 16.272C110.179 16.272 110.323 16.272 110.443 16.272C110.587 16.272 110.707 16.296 110.827 16.296C111.307 16.32 111.763 16.296 112.195 16.272C112.627 16.248 113.035 16.248 113.371 16.272H113.563C113.683 16.272 113.803 16.296 113.899 16.296C113.995 16.296 114.115 16.296 114.235 16.296H114.259C114.307 16.296 114.355 16.296 114.403 16.296C114.451 16.296 114.475 16.296 114.499 16.296L114.547 16.272C114.571 16.272 114.619 16.296 114.667 16.344C114.883 16.368 115.075 16.44 115.219 16.608ZM125.246 27.432C125.414 27.744 125.51 28.032 125.558 28.296C125.606 28.656 125.63 29.04 125.63 29.448C125.63 29.832 125.582 30.216 125.51 30.576C125.462 30.936 125.366 31.272 125.246 31.584C125.126 31.896 125.006 32.136 124.838 32.328C124.694 32.496 124.454 32.616 124.094 32.712C123.734 32.784 123.326 32.856 122.87 32.928C122.414 32.976 121.934 33 121.43 33.024C120.926 33.024 120.446 33.048 120.014 33.048C119.582 33.048 119.198 33.048 118.91 33.024C118.598 33.024 118.43 33 118.382 33C118.286 33 118.214 32.976 118.166 32.904C118.094 32.832 118.07 32.736 118.022 32.64C117.974 32.544 117.95 32.424 117.95 32.328C117.926 32.208 117.926 32.112 117.95 32.04C118.022 31.728 118.046 31.464 118.022 31.248C118.022 31.032 118.022 30.816 118.022 30.576C118.046 30.528 118.046 30.432 118.046 30.312C118.046 30.168 118.07 30.024 118.07 29.904C118.07 29.76 118.094 29.616 118.094 29.472C118.118 29.256 118.142 29.064 118.142 28.848C118.166 28.656 118.166 28.44 118.19 28.248C118.19 27.528 118.214 26.832 118.214 26.136C118.238 25.44 118.214 24.744 118.214 24.048V23.88C118.214 23.328 118.214 22.776 118.214 22.2C118.238 21.648 118.238 21.072 118.286 20.472C118.286 20.4 118.286 20.304 118.286 20.208C118.286 20.136 118.31 20.04 118.31 19.968C118.358 19.536 118.358 19.104 118.358 18.648C118.358 18.192 118.286 17.808 118.118 17.448C118.046 17.328 118.022 17.184 118.022 17.04C118.046 16.896 118.094 16.776 118.19 16.656C118.262 16.536 118.382 16.44 118.526 16.368C118.67 16.272 118.814 16.248 118.958 16.248C119.27 16.248 119.51 16.392 119.654 16.656C119.894 17.16 120.014 17.688 120.062 18.192C120.086 18.72 120.086 19.224 120.086 19.728C120.062 19.944 120.062 20.136 120.062 20.352C120.038 20.568 120.038 20.784 120.038 21C120.014 21.408 120.014 21.816 119.99 22.224C119.99 22.656 119.966 23.088 119.966 23.496V24.24C120.038 24.24 120.086 24.216 120.158 24.216C120.206 24.216 120.278 24.216 120.35 24.216C120.686 24.216 121.07 24.264 121.454 24.408C121.838 24.528 122.198 24.696 122.582 24.912C122.942 25.128 123.302 25.368 123.662 25.656C123.998 25.92 124.31 26.232 124.574 26.52C124.838 26.832 125.078 27.144 125.246 27.432ZM119.822 31.296C119.798 31.512 119.774 31.704 119.774 31.848C119.774 31.848 119.87 31.848 120.062 31.848C120.23 31.872 120.47 31.872 120.734 31.872C120.998 31.872 121.286 31.872 121.622 31.872C121.934 31.872 122.222 31.848 122.51 31.848C122.798 31.824 123.038 31.8 123.23 31.776C123.446 31.728 123.566 31.68 123.614 31.632C123.734 31.488 123.806 31.272 123.878 30.936C123.926 30.624 123.974 30.264 123.974 29.904C123.998 29.544 123.998 29.208 123.998 28.872C123.974 28.536 123.974 28.296 123.95 28.128C123.926 27.96 123.83 27.744 123.638 27.504C123.446 27.24 123.182 27 122.846 26.76C122.534 26.52 122.15 26.328 121.718 26.16C121.286 25.992 120.83 25.896 120.326 25.872C120.206 25.872 120.086 25.896 119.966 25.92C119.966 26.448 119.966 26.928 119.966 27.36C119.966 27.792 119.942 28.224 119.918 28.632C119.918 28.752 119.918 28.872 119.918 28.992C119.918 29.112 119.918 29.232 119.918 29.376C119.918 29.496 119.894 29.688 119.894 29.904C119.87 30.12 119.87 30.36 119.846 30.6C119.846 30.84 119.822 31.08 119.822 31.296ZM141.335 30.144C141.503 30.768 141.671 31.392 141.863 31.992C141.959 32.256 141.935 32.448 141.815 32.616C141.695 32.784 141.527 32.904 141.311 32.952C141.119 33.024 140.903 33 140.687 32.928C140.495 32.856 140.327 32.688 140.255 32.448C140.015 31.8 139.823 31.152 139.679 30.456C139.511 29.784 139.367 29.088 139.223 28.392C139.079 27.696 138.935 27 138.791 26.328C138.647 25.632 138.479 24.984 138.287 24.336C138.095 23.712 137.903 23.136 137.735 22.536C137.543 21.936 137.351 21.336 137.159 20.736C136.799 22.584 136.439 24.48 136.055 26.4C135.671 28.344 135.407 30.24 135.263 32.136C135.239 32.4 135.119 32.592 134.951 32.712C134.759 32.856 134.567 32.904 134.351 32.904C134.135 32.904 133.967 32.856 133.799 32.712C133.631 32.592 133.559 32.4 133.583 32.136C133.679 30.888 133.823 29.616 134.039 28.368C134.255 27.096 134.471 25.824 134.711 24.552C134.975 23.28 135.215 22.008 135.455 20.76C135.719 19.488 135.935 18.24 136.103 16.992C136.127 16.776 136.223 16.608 136.367 16.464C136.511 16.344 136.679 16.248 136.871 16.224C137.063 16.176 137.231 16.2 137.399 16.296C137.567 16.392 137.687 16.56 137.759 16.776C138.071 18.072 138.455 19.344 138.887 20.592C139.319 21.816 139.703 23.088 140.063 24.384C140.231 24.984 140.375 25.608 140.519 26.256C140.639 26.904 140.783 27.552 140.903 28.2C141.047 28.848 141.191 29.496 141.335 30.144ZM144.365 30.24C144.341 29.832 144.317 29.424 144.341 29.016C144.341 28.584 144.365 28.176 144.365 27.768C144.413 27.264 144.413 26.784 144.413 26.328C144.413 25.824 144.437 25.344 144.413 24.84C144.413 24.312 144.437 23.784 144.461 23.256C144.485 22.224 144.461 21.168 144.461 20.136C144.485 19.08 144.533 18.072 144.413 17.088C144.389 16.896 144.437 16.728 144.581 16.608C144.749 16.44 144.965 16.368 145.253 16.392C145.589 16.44 145.805 16.608 145.853 16.896C145.949 17.904 145.901 18.936 145.853 19.992C145.877 21.024 145.925 22.104 145.949 23.184V23.208C145.925 23.592 145.901 24 145.901 24.384C145.901 24.792 145.901 25.176 145.901 25.536C145.901 26.112 145.877 26.688 145.853 27.264C145.853 27.672 145.853 28.08 145.853 28.488C145.997 27.96 146.165 27.48 146.285 27.12C146.717 25.944 147.173 24.768 147.629 23.568C148.085 22.392 148.565 21.216 149.045 20.04C149.501 18.864 149.957 17.688 150.413 16.512C150.509 16.248 150.653 16.104 150.869 16.032C150.989 15.984 151.085 15.984 151.205 15.984C151.253 15.984 151.325 15.984 151.373 15.984C151.541 15.984 151.685 16.056 151.829 16.152C151.949 16.248 152.045 16.368 152.117 16.512C152.357 17.064 152.477 17.64 152.549 18.216C152.597 18.816 152.621 19.392 152.621 19.968C152.621 20.28 152.645 20.592 152.645 20.904C152.669 21.192 152.693 21.504 152.693 21.792C152.717 22.152 152.741 22.512 152.741 22.896C152.765 23.256 152.765 23.64 152.765 24C152.765 24.36 152.741 24.72 152.741 25.08C152.717 25.464 152.717 25.824 152.693 26.184C152.693 26.496 152.669 26.856 152.645 27.192C152.645 27.552 152.645 27.888 152.645 28.248C152.645 28.752 152.645 29.28 152.669 29.808C152.717 30.312 152.741 30.84 152.765 31.368C152.765 31.512 152.789 31.656 152.789 31.8C152.813 31.944 152.813 32.112 152.837 32.256C152.837 32.424 152.765 32.568 152.669 32.664C152.525 32.784 152.357 32.832 152.117 32.808C151.925 32.784 151.757 32.712 151.589 32.592C151.541 32.544 151.493 32.496 151.445 32.424C151.397 32.352 151.349 32.256 151.349 32.136C151.325 31.968 151.325 31.824 151.325 31.656C151.301 31.512 151.301 31.368 151.277 31.2V31.104C151.253 30.6 151.205 30.096 151.181 29.616C151.157 29.112 151.157 28.608 151.157 28.104C151.157 27.816 151.157 27.528 151.181 27.264C151.205 26.976 151.205 26.688 151.205 26.424C151.229 26.064 151.229 25.704 151.253 25.32C151.277 24.96 151.277 24.576 151.277 24.216C151.277 23.832 151.277 23.448 151.253 23.088C151.253 22.704 151.229 22.344 151.205 21.96C151.205 21.696 151.205 21.408 151.181 21.096C151.157 20.784 151.157 20.496 151.157 20.184L151.133 19.296C150.965 19.728 150.797 20.184 150.605 20.64C150.149 21.816 149.669 22.992 149.213 24.168C148.757 25.344 148.301 26.544 147.869 27.72C147.437 28.896 146.765 31.272 146.381 32.472C146.309 32.736 146.165 32.904 145.973 32.976C145.829 33 145.709 33.024 145.589 33C145.541 33 145.493 33 145.469 33C145.181 32.976 145.013 32.856 144.917 32.64C144.893 32.616 144.893 32.592 144.869 32.544C144.821 32.472 144.797 32.4 144.773 32.304C144.677 32.016 144.605 31.752 144.533 31.464C144.437 31.056 144.389 30.648 144.365 30.24ZM166.807 31.608C166.927 31.776 166.975 31.944 166.927 32.136C166.879 32.352 166.759 32.52 166.543 32.712C166.327 32.88 166.087 32.976 165.751 32.976C165.223 33 164.695 33.024 164.167 33.024C164.095 33.024 164.023 33.048 163.927 33.048C163.351 33.024 162.751 33.024 162.151 33.048C162.151 33.048 162.151 33.024 162.127 33.024C161.551 33.072 160.999 33.048 160.423 32.976C159.679 32.856 158.983 32.64 158.359 32.304C157.735 31.968 157.207 31.512 156.775 30.96C156.319 30.384 156.031 29.712 155.911 28.92C155.743 28.008 155.647 27.096 155.599 26.16C155.575 25.248 155.503 24.336 155.455 23.424C155.383 22.392 155.335 21.36 155.287 20.328C155.239 19.32 155.239 18.288 155.239 17.256C155.239 16.992 155.311 16.776 155.479 16.656C155.647 16.536 155.839 16.464 156.055 16.464C156.247 16.464 156.439 16.512 156.607 16.656C156.775 16.776 156.871 16.992 156.871 17.256C156.871 18.888 156.919 20.52 157.015 22.128C157.111 23.736 157.207 25.368 157.327 27C157.351 27.408 157.375 27.816 157.447 28.224C157.495 28.632 157.615 29.04 157.759 29.4C157.903 29.784 158.095 30.096 158.359 30.408C158.623 30.696 158.959 30.912 159.415 31.032C159.631 31.104 159.895 31.176 160.231 31.272C160.543 31.344 160.879 31.416 161.215 31.44C161.551 31.488 161.887 31.488 162.199 31.44C162.511 31.416 162.775 31.32 162.991 31.176C163.351 30.936 163.591 30.6 163.711 30.144C163.831 29.688 163.879 29.184 163.879 28.68C163.879 28.152 163.855 27.624 163.807 27.12C163.759 26.616 163.711 26.184 163.711 25.824C163.687 25.104 163.687 24.36 163.687 23.64C163.687 22.92 163.711 22.176 163.711 21.432C163.711 20.712 163.687 19.968 163.687 19.248C163.663 18.504 163.615 17.784 163.543 17.04C163.519 16.776 163.591 16.584 163.759 16.44C163.927 16.32 164.119 16.248 164.311 16.248C164.503 16.248 164.719 16.32 164.887 16.464C165.079 16.584 165.175 16.8 165.199 17.04C165.295 17.952 165.343 18.84 165.367 19.728C165.391 20.64 165.415 21.528 165.415 22.416C165.415 23.328 165.415 24.216 165.415 25.128C165.415 26.016 165.415 26.904 165.439 27.792C165.463 28.32 165.439 28.872 165.391 29.448C165.343 30.024 165.223 30.552 165.031 31.056C164.983 31.176 164.935 31.296 164.863 31.416C165.295 31.392 165.703 31.392 166.135 31.368C166.471 31.368 166.687 31.44 166.807 31.608ZM176.74 30.888C176.908 31.008 177.028 31.176 177.124 31.368C177.244 31.704 177.148 32.016 176.86 32.256C176.644 32.424 176.404 32.568 176.14 32.64C175.876 32.736 175.588 32.808 175.276 32.856C174.988 32.904 174.676 32.928 174.364 32.928C174.052 32.952 173.764 32.952 173.5 32.952C173.404 32.952 173.308 32.952 173.236 32.952C173.14 32.952 173.068 32.952 172.972 32.952C172.924 32.952 172.852 32.952 172.804 32.952C172.732 32.952 172.66 32.976 172.588 32.976C172.492 32.976 172.372 32.976 172.252 32.976C172.132 33 171.988 33 171.868 33C171.652 33 171.412 32.976 171.172 32.952C170.932 32.952 170.716 32.88 170.5 32.808C170.284 32.736 170.068 32.616 169.9 32.448C169.732 32.304 169.612 32.088 169.54 31.848C169.396 31.272 169.324 30.696 169.348 30.12C169.372 29.52 169.396 28.944 169.468 28.368C169.492 28.08 169.492 27.816 169.516 27.552C169.54 27.288 169.564 27.024 169.564 26.76C169.564 26.472 169.564 26.16 169.564 25.848C169.564 25.56 169.588 25.248 169.588 24.96C169.612 23.784 169.636 22.608 169.636 21.432C169.636 20.256 169.588 19.056 169.492 17.88C169.492 17.832 169.492 17.784 169.468 17.688C169.444 17.592 169.444 17.496 169.444 17.376C169.42 17.232 169.444 17.112 169.444 16.968C169.468 16.824 169.516 16.704 169.588 16.584C169.66 16.44 169.804 16.368 170.02 16.296C170.236 16.248 170.476 16.224 170.716 16.224C170.98 16.224 171.22 16.224 171.46 16.248C171.7 16.248 171.892 16.272 172.036 16.272C172.156 16.272 172.396 16.248 172.756 16.248C173.092 16.224 173.476 16.224 173.86 16.224C174.244 16.224 174.604 16.2 174.988 16.2C175.348 16.2 175.612 16.2 175.78 16.224C176.068 16.224 176.308 16.344 176.452 16.56C176.596 16.752 176.668 16.968 176.668 17.208C176.644 17.424 176.572 17.616 176.428 17.808C176.284 17.976 176.068 18.072 175.756 18.048C175.396 18.024 175.036 18.024 174.676 18.048C174.292 18.072 173.932 18.096 173.572 18.12C173.284 18.144 173.02 18.168 172.732 18.192C172.444 18.216 172.156 18.24 171.868 18.24C171.772 18.24 171.676 18.216 171.604 18.216C171.508 18.216 171.436 18.216 171.34 18.216C171.412 19.2 171.46 20.184 171.46 21.096C171.46 22.032 171.436 22.872 171.412 23.64C171.7 23.592 171.988 23.544 172.3 23.52C172.612 23.52 172.948 23.496 173.332 23.496C173.524 23.496 173.74 23.496 173.956 23.52C174.148 23.52 174.364 23.52 174.58 23.52C174.772 23.544 174.94 23.544 175.108 23.544C175.276 23.544 175.444 23.544 175.612 23.544C175.924 23.544 176.14 23.664 176.284 23.856C176.428 24.048 176.524 24.264 176.524 24.504C176.524 24.72 176.452 24.936 176.284 25.128C176.14 25.296 175.924 25.392 175.636 25.392C175.444 25.392 175.252 25.392 175.084 25.392C174.892 25.392 174.7 25.368 174.508 25.368C174.316 25.368 174.1 25.344 173.884 25.344C173.692 25.344 173.476 25.344 173.26 25.344C172.9 25.344 172.54 25.344 172.228 25.368C171.94 25.416 171.652 25.464 171.364 25.512L171.34 26.472C171.316 27.072 171.292 27.696 171.268 28.296C171.244 28.92 171.244 29.52 171.22 30.12C171.22 30.168 171.22 30.192 171.22 30.216C171.22 30.264 171.196 30.288 171.196 30.336C171.196 30.456 171.196 30.576 171.196 30.696C171.196 30.84 171.22 30.96 171.244 31.08C171.484 31.104 171.772 31.128 172.132 31.128C172.228 31.128 172.324 31.128 172.42 31.128C172.516 31.128 172.612 31.128 172.708 31.104C173.14 31.104 173.524 31.08 173.836 31.08C174.172 31.056 174.484 31.032 174.772 30.984C174.892 30.984 175.012 30.96 175.108 30.936C175.228 30.936 175.324 30.912 175.444 30.888C175.516 30.888 175.564 30.864 175.612 30.816C175.684 30.792 175.732 30.768 175.78 30.768H175.828C175.924 30.744 176.044 30.72 176.188 30.72C176.38 30.72 176.572 30.768 176.74 30.888ZM188.231 16.416C188.423 16.536 188.519 16.752 188.543 17.04C188.639 18.432 188.687 19.752 188.711 20.976C188.735 22.176 188.735 23.4 188.735 24.576C188.711 25.752 188.711 26.952 188.687 28.176C188.639 29.424 188.639 30.72 188.639 32.136C188.639 32.4 188.543 32.616 188.375 32.76C188.183 32.904 187.991 32.976 187.775 32.976C187.559 32.976 187.367 32.904 187.199 32.76C187.007 32.616 186.911 32.4 186.911 32.136C186.911 31.512 186.911 31.008 186.935 30.6C186.935 30.192 186.935 29.808 186.935 29.448C186.959 29.088 186.959 28.704 186.959 28.296C186.983 27.888 186.983 27.384 187.007 26.784C186.047 26.784 185.111 26.808 184.175 26.856C183.239 26.904 182.327 26.976 181.391 27.096C181.391 27.624 181.415 28.08 181.439 28.488C181.463 28.896 181.487 29.28 181.511 29.64C181.535 30.024 181.583 30.408 181.607 30.816C181.631 31.2 181.679 31.656 181.751 32.184C181.751 32.448 181.679 32.664 181.511 32.808C181.343 32.928 181.151 33 180.935 33C180.719 33 180.527 32.928 180.335 32.784C180.143 32.64 180.023 32.448 179.999 32.184C179.879 30.816 179.783 29.52 179.735 28.296C179.663 27.048 179.615 25.824 179.591 24.624C179.567 23.4 179.567 22.176 179.567 20.952C179.567 19.704 179.567 18.408 179.567 17.04C179.567 16.752 179.639 16.536 179.831 16.416C179.999 16.272 180.191 16.2 180.407 16.2C180.623 16.2 180.815 16.272 181.007 16.416C181.175 16.536 181.271 16.752 181.271 17.04C181.271 18.432 181.271 19.824 181.271 21.216C181.295 22.584 181.295 23.976 181.343 25.392C182.279 25.272 183.239 25.176 184.175 25.128C185.111 25.08 186.047 25.056 187.007 25.056C187.007 23.76 187.007 22.416 186.983 21.048C186.959 19.656 186.911 18.312 186.815 17.04C186.791 16.752 186.863 16.536 187.055 16.416C187.223 16.272 187.415 16.2 187.631 16.2C187.847 16.2 188.039 16.272 188.231 16.416ZM197.937 21.6C198.177 21.912 198.345 22.344 198.441 22.872C198.561 23.664 198.633 24.432 198.633 25.224C198.657 25.992 198.633 26.784 198.585 27.576C198.561 27.84 198.537 28.128 198.537 28.416C198.537 28.728 198.513 29.016 198.489 29.328C198.465 29.616 198.417 29.904 198.345 30.216C198.297 30.504 198.201 30.768 198.081 31.008C197.817 31.56 197.457 31.992 197.001 32.304C196.569 32.64 196.089 32.832 195.585 32.928C195.057 33.024 194.529 33.024 194.001 32.904C193.497 32.808 193.017 32.592 192.585 32.304C192.153 31.992 191.817 31.608 191.553 31.152C191.265 30.672 191.145 30.12 191.169 29.496C191.169 29.232 191.241 29.016 191.433 28.896C191.601 28.752 191.817 28.68 192.009 28.68C192.225 28.656 192.417 28.728 192.585 28.848C192.753 28.992 192.849 29.184 192.849 29.448C192.849 29.736 192.897 30 192.993 30.264C193.089 30.504 193.233 30.72 193.425 30.888C193.593 31.056 193.809 31.176 194.073 31.272C194.313 31.344 194.601 31.392 194.913 31.368C195.249 31.32 195.561 31.248 195.801 31.128C196.017 30.984 196.209 30.816 196.353 30.6C196.521 30.408 196.617 30.144 196.689 29.88C196.761 29.616 196.809 29.304 196.833 28.968C196.857 28.536 196.905 28.08 196.953 27.6C197.001 27.12 197.025 26.64 197.049 26.16C197.049 25.68 197.049 25.2 197.025 24.72C197.025 24.264 196.953 23.808 196.857 23.376C196.761 22.992 196.641 22.728 196.473 22.536C196.305 22.344 196.089 22.224 195.849 22.152C195.633 22.056 195.369 22.008 195.081 22.008C194.769 21.984 194.481 21.96 194.145 21.936C193.881 21.912 193.689 21.816 193.545 21.648C193.401 21.48 193.329 21.288 193.329 21.096C193.329 20.904 193.377 20.736 193.521 20.568C193.641 20.4 193.833 20.304 194.121 20.256C194.361 20.232 194.649 20.184 194.985 20.064C195.297 19.968 195.585 19.824 195.825 19.632C196.041 19.464 196.161 19.248 196.185 19.008C196.209 18.768 196.017 18.48 195.633 18.144C195.441 18 195.249 17.904 195.009 17.856C194.793 17.808 194.553 17.784 194.289 17.784C194.049 17.784 193.809 17.808 193.545 17.832C193.305 17.856 193.065 17.88 192.849 17.88C192.585 17.88 192.369 17.808 192.249 17.64C192.105 17.472 192.033 17.28 192.033 17.088C192.033 16.872 192.105 16.68 192.225 16.512C192.345 16.32 192.561 16.224 192.825 16.224C193.377 16.2 193.905 16.2 194.409 16.224C194.913 16.224 195.369 16.32 195.801 16.464C196.233 16.608 196.593 16.848 196.905 17.184C197.241 17.52 197.481 17.976 197.649 18.6C197.793 19.104 197.817 19.536 197.673 19.92C197.529 20.304 197.337 20.616 197.025 20.88C197.385 21.048 197.673 21.288 197.937 21.6ZM201.083 30.24C201.059 29.832 201.035 29.424 201.059 29.016C201.059 28.584 201.083 28.176 201.083 27.768C201.131 27.264 201.131 26.784 201.131 26.328C201.131 25.824 201.155 25.344 201.131 24.84C201.131 24.312 201.155 23.784 201.179 23.256C201.203 22.224 201.179 21.168 201.179 20.136C201.203 19.08 201.251 18.072 201.131 17.088C201.107 16.896 201.155 16.728 201.299 16.608C201.467 16.44 201.683 16.368 201.971 16.392C202.307 16.44 202.523 16.608 202.571 16.896C202.667 17.904 202.619 18.936 202.571 19.992C202.595 21.024 202.643 22.104 202.667 23.184V23.208C202.643 23.592 202.619 24 202.619 24.384C202.619 24.792 202.619 25.176 202.619 25.536C202.619 26.112 202.595 26.688 202.571 27.264C202.571 27.672 202.571 28.08 202.571 28.488C202.715 27.96 202.883 27.48 203.003 27.12C203.435 25.944 203.891 24.768 204.347 23.568C204.803 22.392 205.283 21.216 205.763 20.04C206.219 18.864 206.675 17.688 207.131 16.512C207.227 16.248 207.371 16.104 207.587 16.032C207.707 15.984 207.803 15.984 207.923 15.984C207.971 15.984 208.043 15.984 208.091 15.984C208.259 15.984 208.403 16.056 208.547 16.152C208.667 16.248 208.763 16.368 208.835 16.512C209.075 17.064 209.195 17.64 209.267 18.216C209.315 18.816 209.339 19.392 209.339 19.968C209.339 20.28 209.363 20.592 209.363 20.904C209.387 21.192 209.411 21.504 209.411 21.792C209.435 22.152 209.459 22.512 209.459 22.896C209.483 23.256 209.483 23.64 209.483 24C209.483 24.36 209.459 24.72 209.459 25.08C209.435 25.464 209.435 25.824 209.411 26.184C209.411 26.496 209.387 26.856 209.363 27.192C209.363 27.552 209.363 27.888 209.363 28.248C209.363 28.752 209.363 29.28 209.387 29.808C209.435 30.312 209.459 30.84 209.483 31.368C209.483 31.512 209.507 31.656 209.507 31.8C209.531 31.944 209.531 32.112 209.555 32.256C209.555 32.424 209.483 32.568 209.387 32.664C209.243 32.784 209.075 32.832 208.835 32.808C208.643 32.784 208.475 32.712 208.307 32.592C208.259 32.544 208.211 32.496 208.163 32.424C208.115 32.352 208.067 32.256 208.067 32.136C208.043 31.968 208.043 31.824 208.043 31.656C208.019 31.512 208.019 31.368 207.995 31.2V31.104C207.971 30.6 207.923 30.096 207.899 29.616C207.875 29.112 207.875 28.608 207.875 28.104C207.875 27.816 207.875 27.528 207.899 27.264C207.923 26.976 207.923 26.688 207.923 26.424C207.947 26.064 207.947 25.704 207.971 25.32C207.995 24.96 207.995 24.576 207.995 24.216C207.995 23.832 207.995 23.448 207.971 23.088C207.971 22.704 207.947 22.344 207.923 21.96C207.923 21.696 207.923 21.408 207.899 21.096C207.875 20.784 207.875 20.496 207.875 20.184L207.851 19.296C207.683 19.728 207.515 20.184 207.323 20.64C206.867 21.816 206.387 22.992 205.931 24.168C205.475 25.344 205.019 26.544 204.587 27.72C204.155 28.896 203.483 31.272 203.099 32.472C203.027 32.736 202.883 32.904 202.691 32.976C202.547 33 202.427 33.024 202.307 33C202.259 33 202.211 33 202.187 33C201.899 32.976 201.731 32.856 201.635 32.64C201.611 32.616 201.611 32.592 201.587 32.544C201.539 32.472 201.515 32.4 201.491 32.304C201.395 32.016 201.323 31.752 201.251 31.464C201.155 31.056 201.107 30.648 201.083 30.24ZM225.998 23.952C226.022 24.648 226.046 25.272 226.07 25.848C226.118 26.28 226.166 26.736 226.214 27.192C226.286 27.648 226.31 28.104 226.358 28.584C226.382 29.04 226.382 29.496 226.334 29.928C226.31 30.384 226.214 30.816 226.046 31.248C225.902 31.68 225.662 31.992 225.374 32.208C225.062 32.4 224.726 32.544 224.366 32.592C224.006 32.664 223.622 32.664 223.214 32.64C222.806 32.592 222.398 32.544 222.014 32.472C221.51 32.376 221.078 32.256 220.718 32.088C220.358 31.944 220.046 31.752 219.758 31.536C219.494 31.296 219.278 31.032 219.086 30.696C218.894 30.384 218.75 29.976 218.606 29.496C218.414 28.872 218.222 28.224 218.078 27.576C217.934 26.928 217.79 26.256 217.694 25.584C217.07 25.488 216.446 25.464 215.798 25.512C215.174 25.584 214.55 25.68 213.974 25.848C214.094 26.88 214.214 27.936 214.31 28.968C214.406 30 214.43 31.032 214.406 32.064C214.382 32.328 214.286 32.52 214.118 32.64C213.926 32.76 213.734 32.832 213.542 32.832C213.326 32.832 213.158 32.76 212.99 32.64C212.822 32.52 212.75 32.328 212.75 32.064C212.822 30.816 212.774 29.568 212.63 28.32C212.51 27.048 212.366 25.8 212.222 24.576C212.078 23.328 212.006 22.08 211.958 20.832C211.91 19.584 212.006 18.312 212.246 17.064C212.294 16.824 212.414 16.656 212.606 16.56C212.774 16.488 212.966 16.464 213.158 16.536C213.374 16.584 213.542 16.704 213.686 16.848C213.806 17.016 213.854 17.232 213.83 17.472C213.614 18.6 213.518 19.752 213.542 20.88C213.59 22.008 213.662 23.136 213.782 24.288C214.382 24.144 214.982 24.048 215.606 24C216.23 23.928 216.854 23.952 217.454 24C217.406 23.544 217.358 23.064 217.334 22.512C217.31 21.984 217.31 21.456 217.358 20.904C217.406 20.376 217.478 19.872 217.622 19.368C217.766 18.864 217.958 18.408 218.246 18C218.534 17.616 218.894 17.28 219.35 17.016C219.806 16.752 220.358 16.584 221.03 16.512C221.894 16.416 222.614 16.512 223.19 16.8C223.766 17.064 224.222 17.448 224.582 17.952C224.942 18.48 225.23 19.056 225.422 19.728C225.614 20.4 225.734 21.096 225.83 21.816C225.926 22.536 225.974 23.256 225.998 23.952ZM224.678 30.264C224.702 30.096 224.702 29.928 224.726 29.76C224.75 29.136 224.702 28.512 224.63 27.912C224.558 27.288 224.51 26.664 224.462 26.064C224.414 25.128 224.318 24.216 224.246 23.304C224.15 22.416 224.054 21.504 223.982 20.544C223.934 19.992 223.814 19.536 223.646 19.2C223.454 18.84 223.238 18.576 222.974 18.384C222.734 18.216 222.47 18.096 222.182 18.024C221.894 17.976 221.63 17.952 221.366 17.976C221.126 17.976 220.91 18 220.742 18.024C220.574 18.072 220.478 18.072 220.454 18.072C219.974 18.336 219.614 18.744 219.398 19.272C219.158 19.776 219.038 20.352 218.966 20.976C218.918 21.6 218.918 22.2 218.966 22.8C219.014 23.4 219.062 23.928 219.134 24.36C219.134 24.384 219.158 24.552 219.206 24.864C219.278 25.176 219.35 25.536 219.422 25.944C219.518 26.376 219.59 26.784 219.686 27.216C219.758 27.648 219.854 27.984 219.926 28.248C219.998 28.488 220.046 28.728 220.118 28.968C220.19 29.184 220.262 29.424 220.334 29.664C220.406 29.856 220.478 30 220.55 30.144C220.646 30.264 220.742 30.36 220.838 30.456C220.958 30.552 221.078 30.624 221.222 30.672C221.366 30.72 221.558 30.768 221.75 30.84C222.086 30.912 222.422 30.984 222.758 31.056C223.118 31.104 223.454 31.128 223.814 31.104C224.006 31.104 224.15 31.08 224.27 30.984C224.39 30.912 224.486 30.816 224.558 30.696C224.606 30.576 224.654 30.432 224.678 30.264Z" fill="url(#paint1_linear_1_5479)"/>
<defs>
<filter id="filter0_b_1_5479" x="-7.4852" y="-8.4" width="277.624" height="106.357" filterUnits="userSpaceOnUse" color-interpolation-filters="sRGB">
<feFlood flood-opacity="0" result="BackgroundImageFix"/>
<feGaussianBlur in="BackgroundImageFix" stdDeviation="4.2"/>
<feComposite in2="SourceAlpha" operator="in" result="effect1_backgroundBlur_1_5479"/>
<feBlend mode="normal" in="SourceGraphic" in2="effect1_backgroundBlur_1_5479" result="shape"/>
</filter>
<linearGradient id="paint0_linear_1_5479" x1="244.736" y1="8.13554e-06" x2="45.0736" y2="116.777" gradientUnits="userSpaceOnUse">
<stop stop-color="#4E5264"/>
<stop offset="0.375" stop-color="#ABAEBD"/>
<stop offset="0.725" stop-color="#323443"/>
<stop offset="0.89" stop-color="#6E7282"/>
<stop offset="1" stop-color="#282A36"/>
</linearGradient>
<linearGradient id="paint1_linear_1_5479" x1="49.5884" y1="20.9082" x2="225.127" y2="63.0327" gradientUnits="userSpaceOnUse">
<stop stop-color="white"/>
<stop offset="0.465" stop-color="#C9C9C9"/>
<stop offset="1" stop-color="#F9F9F9"/>
</linearGradient>
</defs>
</svg>
