<svg width="43" height="54" viewBox="0 0 43 54" fill="none" xmlns="http://www.w3.org/2000/svg">
<path d="M3.79256 46.825C3.92256 46.994 4.01356 47.228 4.06556 47.514C4.13056 47.943 4.16956 48.359 4.16956 48.788C4.18256 49.204 4.16956 49.633 4.14356 50.062C4.13056 50.205 4.11756 50.361 4.11756 50.517C4.11756 50.686 4.10456 50.842 4.09156 51.011C4.07856 51.167 4.05256 51.323 4.01356 51.492C3.98756 51.648 3.93556 51.791 3.87056 51.921C3.72756 52.22 3.53256 52.454 3.28556 52.623C3.05156 52.805 2.79156 52.909 2.51856 52.961C2.23256 53.013 1.94656 53.013 1.66056 52.948C1.38756 52.896 1.12756 52.779 0.893563 52.623C0.659563 52.454 0.477563 52.246 0.334562 51.999C0.178563 51.739 0.113563 51.44 0.126563 51.102C0.126563 50.959 0.165563 50.842 0.269563 50.777C0.360563 50.699 0.477563 50.66 0.581563 50.66C0.698563 50.647 0.802563 50.686 0.893563 50.751C0.984563 50.829 1.03656 50.933 1.03656 51.076C1.03656 51.232 1.06256 51.375 1.11456 51.518C1.16656 51.648 1.24456 51.765 1.34856 51.856C1.43956 51.947 1.55656 52.012 1.69956 52.064C1.82956 52.103 1.98556 52.129 2.15456 52.116C2.33656 52.09 2.50556 52.051 2.63556 51.986C2.75256 51.908 2.85656 51.817 2.93456 51.7C3.02556 51.596 3.07756 51.453 3.11656 51.31C3.15556 51.167 3.18156 50.998 3.19456 50.816C3.20756 50.582 3.23356 50.335 3.25956 50.075C3.28556 49.815 3.29856 49.555 3.31156 49.295C3.31156 49.035 3.31156 48.775 3.29856 48.515C3.29856 48.268 3.25956 48.021 3.20756 47.787C3.15556 47.579 3.09056 47.436 2.99956 47.332C2.90856 47.228 2.79156 47.163 2.66156 47.124C2.54456 47.072 2.40156 47.046 2.24556 47.046C2.07656 47.033 1.92056 47.02 1.73856 47.007C1.59556 46.994 1.49156 46.942 1.41356 46.851C1.33556 46.76 1.29656 46.656 1.29656 46.552C1.29656 46.448 1.32256 46.357 1.40056 46.266C1.46556 46.175 1.56956 46.123 1.72556 46.097C1.85556 46.084 2.01156 46.058 2.19356 45.993C2.36256 45.941 2.51856 45.863 2.64856 45.759C2.76556 45.668 2.83056 45.551 2.84356 45.421C2.85656 45.291 2.75256 45.135 2.54456 44.953C2.44056 44.875 2.33656 44.823 2.20656 44.797C2.08956 44.771 1.95956 44.758 1.81656 44.758C1.68656 44.758 1.55656 44.771 1.41356 44.784C1.28356 44.797 1.15356 44.81 1.03656 44.81C0.893563 44.81 0.776563 44.771 0.711563 44.68C0.633563 44.589 0.594563 44.485 0.594563 44.381C0.594563 44.264 0.633563 44.16 0.698563 44.069C0.763563 43.965 0.880563 43.913 1.02356 43.913C1.32256 43.9 1.60856 43.9 1.88156 43.913C2.15456 43.913 2.40156 43.965 2.63556 44.043C2.86956 44.121 3.06456 44.251 3.23356 44.433C3.41556 44.615 3.54556 44.862 3.63656 45.2C3.71456 45.473 3.72756 45.707 3.64956 45.915C3.57156 46.123 3.46756 46.292 3.29856 46.435C3.49356 46.526 3.64956 46.656 3.79256 46.825ZM9.72198 50.361C9.87798 51.037 10.086 51.739 10.32 52.467C10.359 52.597 10.333 52.714 10.255 52.805C10.177 52.883 10.073 52.948 9.95598 52.974C9.82598 53.013 9.70898 53 9.57898 52.961C9.46198 52.922 9.37098 52.831 9.33198 52.701C9.27998 52.532 9.22798 52.363 9.17598 52.233C9.12398 52.09 9.08498 51.947 9.03298 51.804C8.99398 51.674 8.95498 51.531 8.90298 51.388C8.86398 51.245 8.82498 51.076 8.78598 50.907C8.47398 50.946 8.16198 50.972 7.83698 50.985C7.52498 50.998 7.21298 51.024 6.90098 51.076H6.86198C6.82298 51.206 6.78398 51.323 6.73198 51.44C6.69298 51.544 6.65398 51.648 6.61498 51.739C6.57598 51.843 6.54998 51.947 6.52398 52.051C6.51098 52.155 6.49798 52.285 6.49798 52.415C6.49798 52.558 6.44598 52.675 6.34198 52.766C6.23798 52.857 6.12098 52.922 5.99098 52.948C5.87398 52.974 5.74398 52.974 5.63998 52.935C5.53598 52.883 5.48398 52.805 5.48398 52.662C5.48398 52.493 5.49698 52.324 5.52298 52.155C5.56198 51.986 5.60098 51.817 5.65298 51.661C5.70498 51.492 5.74398 51.336 5.79598 51.167C5.84798 51.011 5.89998 50.842 5.92598 50.673C6.01698 50.296 6.09498 49.919 6.17298 49.529C6.25098 49.152 6.34198 48.775 6.43298 48.398C6.51098 48.034 6.61498 47.683 6.71898 47.358C6.82298 47.02 6.91398 46.695 7.00498 46.37C7.08298 46.045 7.16098 45.72 7.22598 45.382C7.27798 45.044 7.31698 44.693 7.32998 44.316C7.32998 44.199 7.36898 44.108 7.45998 44.043C7.56398 43.965 7.66798 43.926 7.77198 43.9C7.88898 43.887 8.00598 43.913 8.10998 43.952C8.22698 44.004 8.29198 44.095 8.31798 44.212C8.52598 44.94 8.69498 45.655 8.83798 46.331C8.99398 47.007 9.12398 47.683 9.26698 48.346C9.40998 49.009 9.55298 49.685 9.72198 50.361ZM7.47298 48.398C7.32998 48.996 7.18698 49.594 7.05698 50.205C7.31698 50.179 7.57698 50.153 7.82398 50.127C8.08398 50.114 8.34398 50.088 8.60398 50.075C8.48698 49.49 8.36998 48.918 8.26598 48.333C8.16198 47.761 8.04498 47.176 7.92798 46.591C7.84998 46.89 7.77198 47.202 7.69398 47.501C7.61598 47.8 7.53798 48.099 7.47298 48.398ZM16.5552 51.947C16.6852 51.934 16.7762 51.973 16.8542 52.038C16.9322 52.116 16.9842 52.207 16.9842 52.337C16.9842 52.389 16.9712 52.454 16.9582 52.519C16.9452 52.584 16.9062 52.649 16.8672 52.714C16.8282 52.779 16.7892 52.831 16.7372 52.87C16.6722 52.922 16.6072 52.948 16.5422 52.948C16.5162 52.948 16.4252 52.948 16.3082 52.961C16.1782 52.961 16.0222 52.974 15.8402 52.974C15.6712 52.974 15.4762 52.974 15.2552 52.987C15.0472 52.987 14.8392 52.987 14.6442 52.987C14.4362 53 14.2542 53 14.0852 53C13.9162 53 13.7862 53 13.6822 53C13.3572 53 13.0582 52.987 12.7852 52.974C12.4992 52.948 12.2262 52.922 11.9662 52.883C11.8622 52.87 11.7842 52.818 11.7192 52.753C11.6542 52.675 11.6282 52.584 11.6412 52.493C11.6542 52.363 11.7062 52.259 11.7972 52.155C11.9012 52.051 12.0312 52.012 12.1872 52.038C12.2132 52.038 12.2262 52.038 12.2522 52.051C12.2782 52.051 12.3042 52.051 12.3302 52.064C12.3432 51.843 12.3692 51.622 12.4082 51.414C12.4342 51.193 12.4602 50.985 12.4992 50.764C12.5252 50.569 12.5512 50.374 12.5772 50.179C12.6032 49.984 12.6162 49.789 12.6422 49.594C12.6552 49.451 12.6682 49.308 12.6682 49.178C12.6812 49.035 12.6942 48.892 12.7072 48.749C12.7202 48.541 12.7332 48.32 12.7592 48.099C12.7722 47.865 12.7982 47.644 12.8242 47.436C12.9152 46.643 13.1102 45.98 13.3962 45.447C13.6822 44.901 14.0722 44.446 14.5792 44.069C14.6052 44.043 14.6442 44.03 14.6962 44.004C14.7482 43.991 14.8002 43.978 14.8652 43.965C14.9172 43.939 14.9692 43.926 15.0212 43.913C15.0732 43.9 15.1122 43.9 15.1382 43.9C15.2942 43.9 15.4112 43.978 15.4762 44.134C15.5802 44.342 15.6452 44.55 15.6582 44.771C15.6842 44.992 15.6972 45.213 15.7102 45.434C15.7102 45.46 15.7102 45.499 15.7102 45.538C15.7102 45.577 15.7102 45.616 15.7232 45.655V45.798C15.7362 46.136 15.7622 46.474 15.7752 46.825C15.8012 47.163 15.8272 47.501 15.8662 47.839C15.9052 48.203 15.9442 48.58 15.9572 48.944C15.9832 49.308 16.0092 49.672 16.0222 50.036C16.0352 50.361 16.0612 50.686 16.0742 51.011C16.1002 51.336 16.1132 51.661 16.1522 51.986L16.5552 51.947ZM13.2922 51.089C13.2532 51.44 13.2142 51.778 13.2012 52.129C13.5002 52.129 13.8122 52.129 14.1502 52.129C14.4752 52.116 14.8652 52.09 15.2812 52.064C15.2552 51.765 15.2292 51.466 15.2162 51.167C15.2032 50.868 15.1902 50.582 15.1772 50.283C15.1642 49.971 15.1512 49.672 15.1252 49.347C15.1122 49.035 15.0862 48.723 15.0602 48.411C15.0212 48.086 14.9822 47.735 14.9562 47.358C14.9172 46.981 14.8912 46.604 14.8652 46.214V45.785C14.8652 45.655 14.8652 45.525 14.8652 45.382C14.8522 45.239 14.8522 45.109 14.8262 44.979C14.6052 45.187 14.4102 45.408 14.2672 45.655C14.1242 45.902 14.0072 46.175 13.9162 46.448C13.8252 46.734 13.7602 47.02 13.7212 47.319C13.6822 47.631 13.6432 47.93 13.6172 48.229C13.5912 48.541 13.5652 48.853 13.5262 49.152C13.4872 49.464 13.4482 49.776 13.4092 50.088C13.3702 50.413 13.3312 50.751 13.2922 51.089ZM22.5316 50.361C22.6876 51.037 22.8956 51.739 23.1296 52.467C23.1686 52.597 23.1426 52.714 23.0646 52.805C22.9866 52.883 22.8826 52.948 22.7656 52.974C22.6356 53.013 22.5186 53 22.3886 52.961C22.2716 52.922 22.1806 52.831 22.1416 52.701C22.0896 52.532 22.0376 52.363 21.9856 52.233C21.9336 52.09 21.8946 51.947 21.8426 51.804C21.8036 51.674 21.7646 51.531 21.7126 51.388C21.6736 51.245 21.6346 51.076 21.5956 50.907C21.2836 50.946 20.9716 50.972 20.6466 50.985C20.3346 50.998 20.0226 51.024 19.7106 51.076H19.6716C19.6326 51.206 19.5936 51.323 19.5416 51.44C19.5026 51.544 19.4636 51.648 19.4246 51.739C19.3856 51.843 19.3596 51.947 19.3336 52.051C19.3206 52.155 19.3076 52.285 19.3076 52.415C19.3076 52.558 19.2556 52.675 19.1516 52.766C19.0476 52.857 18.9306 52.922 18.8006 52.948C18.6836 52.974 18.5536 52.974 18.4496 52.935C18.3456 52.883 18.2936 52.805 18.2936 52.662C18.2936 52.493 18.3066 52.324 18.3326 52.155C18.3716 51.986 18.4106 51.817 18.4626 51.661C18.5146 51.492 18.5536 51.336 18.6056 51.167C18.6576 51.011 18.7096 50.842 18.7356 50.673C18.8266 50.296 18.9046 49.919 18.9826 49.529C19.0606 49.152 19.1516 48.775 19.2426 48.398C19.3206 48.034 19.4246 47.683 19.5286 47.358C19.6326 47.02 19.7236 46.695 19.8146 46.37C19.8926 46.045 19.9706 45.72 20.0356 45.382C20.0876 45.044 20.1266 44.693 20.1396 44.316C20.1396 44.199 20.1786 44.108 20.2696 44.043C20.3736 43.965 20.4776 43.926 20.5816 43.9C20.6986 43.887 20.8156 43.913 20.9196 43.952C21.0366 44.004 21.1016 44.095 21.1276 44.212C21.3356 44.94 21.5046 45.655 21.6476 46.331C21.8036 47.007 21.9336 47.683 22.0766 48.346C22.2196 49.009 22.3626 49.685 22.5316 50.361ZM20.2826 48.398C20.1396 48.996 19.9966 49.594 19.8666 50.205C20.1266 50.179 20.3866 50.153 20.6336 50.127C20.8936 50.114 21.1536 50.088 21.4136 50.075C21.2966 49.49 21.1796 48.918 21.0756 48.333C20.9716 47.761 20.8546 47.176 20.7376 46.591C20.6596 46.89 20.5816 47.202 20.5036 47.501C20.4256 47.8 20.3476 48.099 20.2826 48.398ZM29.1438 44.017C29.2478 44.082 29.2998 44.199 29.3128 44.355C29.3648 45.109 29.3908 45.824 29.4038 46.487C29.4168 47.137 29.4168 47.8 29.4168 48.437C29.4038 49.074 29.4038 49.724 29.3908 50.387C29.3648 51.063 29.3648 51.765 29.3648 52.532C29.3648 52.675 29.3128 52.792 29.2218 52.87C29.1178 52.948 29.0138 52.987 28.8968 52.987C28.7798 52.987 28.6758 52.948 28.5848 52.87C28.4808 52.792 28.4288 52.675 28.4288 52.532C28.4288 52.194 28.4288 51.921 28.4418 51.7C28.4418 51.479 28.4418 51.271 28.4418 51.076C28.4548 50.881 28.4548 50.673 28.4548 50.452C28.4678 50.231 28.4678 49.958 28.4808 49.633C27.9608 49.633 27.4538 49.646 26.9468 49.672C26.4398 49.698 25.9458 49.737 25.4388 49.802C25.4388 50.088 25.4518 50.335 25.4648 50.556C25.4778 50.777 25.4908 50.985 25.5038 51.18C25.5168 51.388 25.5428 51.596 25.5558 51.817C25.5688 52.025 25.5948 52.272 25.6338 52.558C25.6338 52.701 25.5948 52.818 25.5038 52.896C25.4128 52.961 25.3088 53 25.1918 53C25.0748 53 24.9708 52.961 24.8668 52.883C24.7628 52.805 24.6978 52.701 24.6848 52.558C24.6198 51.817 24.5678 51.115 24.5418 50.452C24.5028 49.776 24.4768 49.113 24.4638 48.463C24.4508 47.8 24.4508 47.137 24.4508 46.474C24.4508 45.798 24.4508 45.096 24.4508 44.355C24.4508 44.199 24.4898 44.082 24.5938 44.017C24.6848 43.939 24.7888 43.9 24.9058 43.9C25.0228 43.9 25.1268 43.939 25.2308 44.017C25.3218 44.082 25.3738 44.199 25.3738 44.355C25.3738 45.109 25.3738 45.863 25.3738 46.617C25.3868 47.358 25.3868 48.112 25.4128 48.879C25.9198 48.814 26.4398 48.762 26.9468 48.736C27.4538 48.71 27.9608 48.697 28.4808 48.697C28.4808 47.995 28.4808 47.267 28.4678 46.526C28.4548 45.772 28.4288 45.044 28.3768 44.355C28.3638 44.199 28.4028 44.082 28.5068 44.017C28.5978 43.939 28.7018 43.9 28.8188 43.9C28.9358 43.9 29.0398 43.939 29.1438 44.017ZM30.748 51.505C30.735 51.284 30.722 51.063 30.735 50.842C30.735 50.608 30.748 50.387 30.748 50.166C30.774 49.893 30.774 49.633 30.774 49.386C30.774 49.113 30.787 48.853 30.774 48.58C30.774 48.294 30.787 48.008 30.8 47.722C30.813 47.163 30.8 46.591 30.8 46.032C30.813 45.46 30.839 44.914 30.774 44.381C30.761 44.277 30.787 44.186 30.865 44.121C30.956 44.03 31.073 43.991 31.229 44.004C31.411 44.03 31.528 44.121 31.554 44.277C31.606 44.823 31.58 45.382 31.554 45.954C31.567 46.513 31.593 47.098 31.606 47.683V47.696C31.593 47.904 31.58 48.125 31.58 48.333C31.58 48.554 31.58 48.762 31.58 48.957C31.58 49.269 31.567 49.581 31.554 49.893C31.554 50.114 31.554 50.335 31.554 50.556C31.632 50.27 31.723 50.01 31.788 49.815C32.022 49.178 32.269 48.541 32.516 47.891C32.763 47.254 33.023 46.617 33.283 45.98C33.53 45.343 33.777 44.706 34.024 44.069C34.076 43.926 34.154 43.848 34.271 43.809C34.336 43.783 34.388 43.783 34.453 43.783C34.479 43.783 34.518 43.783 34.544 43.783C34.635 43.783 34.713 43.822 34.791 43.874C34.856 43.926 34.908 43.991 34.947 44.069C35.077 44.368 35.142 44.68 35.181 44.992C35.207 45.317 35.22 45.629 35.22 45.941C35.22 46.11 35.233 46.279 35.233 46.448C35.246 46.604 35.259 46.773 35.259 46.929C35.272 47.124 35.285 47.319 35.285 47.527C35.298 47.722 35.298 47.93 35.298 48.125C35.298 48.32 35.285 48.515 35.285 48.71C35.272 48.918 35.272 49.113 35.259 49.308C35.259 49.477 35.246 49.672 35.233 49.854C35.233 50.049 35.233 50.231 35.233 50.426C35.233 50.699 35.233 50.985 35.246 51.271C35.272 51.544 35.285 51.83 35.298 52.116C35.298 52.194 35.311 52.272 35.311 52.35C35.324 52.428 35.324 52.519 35.337 52.597C35.337 52.688 35.298 52.766 35.246 52.818C35.168 52.883 35.077 52.909 34.947 52.896C34.843 52.883 34.752 52.844 34.661 52.779C34.635 52.753 34.609 52.727 34.583 52.688C34.557 52.649 34.531 52.597 34.531 52.532C34.518 52.441 34.518 52.363 34.518 52.272C34.505 52.194 34.505 52.116 34.492 52.025V51.973C34.479 51.7 34.453 51.427 34.44 51.167C34.427 50.894 34.427 50.621 34.427 50.348C34.427 50.192 34.427 50.036 34.44 49.893C34.453 49.737 34.453 49.581 34.453 49.438C34.466 49.243 34.466 49.048 34.479 48.84C34.492 48.645 34.492 48.437 34.492 48.242C34.492 48.034 34.492 47.826 34.479 47.631C34.479 47.423 34.466 47.228 34.453 47.02C34.453 46.877 34.453 46.721 34.44 46.552C34.427 46.383 34.427 46.227 34.427 46.058L34.414 45.577C34.323 45.811 34.232 46.058 34.128 46.305C33.881 46.942 33.621 47.579 33.374 48.216C33.127 48.853 32.88 49.503 32.646 50.14C32.412 50.777 32.048 52.064 31.84 52.714C31.801 52.857 31.723 52.948 31.619 52.987C31.541 53 31.476 53.013 31.411 53C31.385 53 31.359 53 31.346 53C31.19 52.987 31.099 52.922 31.047 52.805C31.034 52.792 31.034 52.779 31.021 52.753C30.995 52.714 30.982 52.675 30.969 52.623C30.917 52.467 30.878 52.324 30.839 52.168C30.787 51.947 30.761 51.726 30.748 51.505ZM36.7033 47.059C36.6383 46.799 36.6123 46.539 36.6513 46.279C36.6643 46.097 36.7423 45.902 36.8723 45.72C36.8853 45.72 36.8853 45.707 36.8983 45.694C37.4313 44.251 38.9523 43.445 40.5123 43.783C40.7073 43.822 40.7853 43.978 40.7723 44.134C40.7983 44.186 40.8113 44.251 40.8113 44.329V44.407C40.8243 44.42 40.8373 44.576 40.8373 44.875C40.8373 45.174 40.8373 45.551 40.8243 46.019C40.8243 46.487 40.8113 47.007 40.8113 47.592C40.8113 48.177 40.7983 48.775 40.7983 49.386C40.8113 49.984 40.8113 50.569 40.8243 51.128C40.8373 51.687 40.8503 52.181 40.8763 52.61C40.8763 52.74 40.8373 52.844 40.7463 52.909C40.6423 52.974 40.5513 53.013 40.4343 53C40.3173 53 40.2133 52.974 40.1223 52.896C40.0183 52.831 39.9663 52.727 39.9533 52.584C39.9403 52.337 39.9273 52.077 39.9273 51.804C39.9143 51.531 39.9013 51.258 39.9013 50.972C39.8883 50.699 39.8883 50.426 39.8753 50.153C39.8753 49.88 39.8753 49.607 39.8623 49.36C39.7323 49.373 39.5893 49.386 39.4593 49.373C39.3293 49.36 39.1863 49.347 39.0563 49.321C38.9913 49.594 38.9263 49.867 38.8223 50.153C38.7313 50.439 38.6273 50.725 38.5233 50.998C38.4063 51.284 38.3023 51.57 38.1983 51.843C38.0813 52.129 37.9773 52.402 37.8863 52.662C37.8343 52.805 37.7563 52.883 37.6393 52.922C37.5223 52.974 37.4053 52.974 37.3013 52.935C37.1973 52.909 37.1063 52.844 37.0283 52.753C36.9633 52.662 36.9503 52.558 37.0023 52.428C37.0933 52.155 37.1973 51.869 37.3273 51.583C37.4443 51.31 37.5613 51.011 37.6653 50.725C37.7823 50.426 37.8863 50.14 37.9773 49.841C38.0683 49.555 38.1463 49.256 38.1983 48.97C37.9513 48.84 37.7303 48.671 37.5223 48.463C37.3143 48.268 37.1453 48.047 37.0023 47.813C36.8723 47.566 36.7683 47.319 36.7033 47.059ZM37.5483 46.474C37.5483 46.643 37.5743 46.812 37.6393 46.981C37.6913 47.163 37.7823 47.332 37.8863 47.501C37.9903 47.67 38.1203 47.826 38.2633 47.956C38.4063 48.099 38.5753 48.216 38.7443 48.307C38.8223 48.346 38.9133 48.385 39.0173 48.411C39.1213 48.437 39.2123 48.463 39.3163 48.489C39.4073 48.502 39.4983 48.515 39.5893 48.528C39.6673 48.541 39.7453 48.528 39.8103 48.528H39.8623C39.8623 47.93 39.8623 47.306 39.8753 46.656C39.8753 46.019 39.8883 45.395 39.8883 44.81C39.6413 44.797 39.3813 44.836 39.1083 44.914C38.8483 44.992 38.6013 45.096 38.3673 45.239C38.1463 45.382 37.9513 45.564 37.7953 45.772C37.6523 45.98 37.5613 46.214 37.5483 46.474Z" fill="#70727A"/>
<path d="M17.4829 34.8599C17.419 34.8599 17.3569 34.8392 17.3058 34.8009C17.2547 34.7625 17.2175 34.7086 17.1998 34.6472C17.182 34.5859 17.1847 34.5204 17.2074 34.4607C17.2301 34.401 17.2716 34.3503 17.3256 34.3163L19.9383 32.6719L16.2172 34.8186C16.1505 34.8568 16.0716 34.8673 15.9972 34.848C15.9229 34.8288 15.859 34.7812 15.8192 34.7156C15.7794 34.6499 15.7669 34.5712 15.7842 34.4964C15.8016 34.4216 15.8475 34.3565 15.9121 34.3151L20.6197 31.3437L14.5916 34.8186C14.525 34.8553 14.4468 34.8647 14.3734 34.845C14.3 34.8253 14.2371 34.778 14.1977 34.713C14.1584 34.6479 14.1457 34.5702 14.1624 34.496C14.1791 34.4219 14.2238 34.357 14.2871 34.3151L20.4377 30.4308L12.8512 34.8122C12.7841 34.8504 12.7047 34.8607 12.6301 34.841C12.5554 34.8212 12.4915 34.7729 12.4521 34.7065C12.4127 34.6401 12.401 34.5609 12.4195 34.4859C12.438 34.4109 12.4851 34.3462 12.5509 34.3057L13.7229 33.5877L12.2964 34.4123C12.23 34.4474 12.1527 34.4557 12.0803 34.4357C12.0078 34.4156 11.9458 34.3687 11.9069 34.3044C11.868 34.2401 11.8551 34.1634 11.8709 34.09C11.8867 34.0165 11.93 33.9519 11.9919 33.9093L20.9024 28.2634L11.5496 33.6625C11.4829 33.7006 11.404 33.7112 11.3296 33.6919C11.2553 33.6726 11.1914 33.6251 11.1516 33.5594C11.1118 33.4937 11.0993 33.4151 11.1166 33.3403C11.134 33.2655 11.1799 33.2004 11.2445 33.1589L21.0108 26.9641L10.7651 32.8798C10.6982 32.9168 10.6194 32.9263 10.5456 32.9063C10.4718 32.8863 10.4086 32.8383 10.3695 32.7726C10.3304 32.7069 10.3184 32.6285 10.3361 32.5541C10.3537 32.4796 10.3997 32.415 10.4641 32.3738L13.717 30.3808L10.2609 32.3762C10.1949 32.4072 10.1197 32.4126 10.05 32.3914C9.98018 32.3701 9.92077 32.3237 9.88323 32.2612C9.84569 32.1987 9.8327 32.1244 9.84677 32.0528C9.86084 31.9813 9.90097 31.9175 9.95939 31.8738L20.6262 25.1254L9.45817 31.5734C9.39093 31.6133 9.31061 31.6247 9.2349 31.6054C9.15918 31.586 9.09427 31.5373 9.05444 31.4701C9.0146 31.4028 9.00312 31.3225 9.0225 31.2468C9.04188 31.1711 9.09055 31.1062 9.1578 31.0663L9.82216 30.6641L9.01704 31.1299C8.98389 31.1499 8.94715 31.1631 8.90889 31.1689C8.87063 31.1746 8.83162 31.1728 8.79407 31.1635C8.71825 31.1446 8.65301 31.0964 8.61271 31.0295C8.57241 30.9626 8.56035 30.8824 8.57918 30.8065C8.59801 30.7307 8.64619 30.6655 8.71313 30.6252L19.3063 23.9816L8.59298 30.1658C8.52633 30.2019 8.44832 30.2109 8.3752 30.191C8.30207 30.171 8.23945 30.1236 8.20038 30.0587C8.1613 29.9937 8.14877 29.9162 8.1654 29.8422C8.18203 29.7683 8.22654 29.7036 8.28966 29.6616L18.9671 22.9804L8.59298 28.9696C8.52625 29.007 8.4476 29.0169 8.37367 28.9974C8.29973 28.9778 8.23631 28.9302 8.19682 28.8647C8.15734 28.7992 8.14489 28.7209 8.1621 28.6464C8.17932 28.5719 8.22485 28.507 8.28907 28.4654L20.3041 20.886L8.59298 27.6462C8.52616 27.6824 8.44793 27.6914 8.37464 27.6713C8.30134 27.6511 8.23867 27.6035 8.19972 27.5382C8.16077 27.4729 8.14857 27.3951 8.16566 27.3211C8.18275 27.247 8.22781 27.1824 8.29142 27.1408L16.5323 22.0421L8.59298 26.6255C8.52644 26.661 8.44879 26.6697 8.37605 26.6497C8.30331 26.6297 8.24102 26.5825 8.20204 26.5179C8.16306 26.4533 8.15036 26.3762 8.16655 26.3026C8.18274 26.2289 8.2266 26.1642 8.28907 26.1219L19.9678 18.7692L8.59298 25.3362C8.52599 25.3727 8.44749 25.3817 8.37398 25.3614C8.30048 25.3411 8.2377 25.2931 8.19886 25.2275C8.16003 25.1619 8.14816 25.0838 8.16575 25.0096C8.18334 24.9354 8.22903 24.8709 8.29319 24.8297L11.6621 22.7772L8.59298 24.5488C8.52558 24.5887 8.44508 24.6002 8.3692 24.5807C8.29332 24.5613 8.22827 24.5125 8.18836 24.4451C8.14845 24.3777 8.13694 24.2972 8.15638 24.2213C8.17582 24.1455 8.22461 24.0804 8.29201 24.0405L14.7418 20.0785L8.59298 23.6282C8.52604 23.6652 8.44732 23.6747 8.37349 23.6547C8.29966 23.6347 8.23651 23.5868 8.1974 23.5211C8.1583 23.4553 8.1463 23.3769 8.16396 23.3025C8.18162 23.2281 8.22754 23.1635 8.29201 23.1223L13.8466 19.7198L8.59298 22.7512C8.52599 22.7877 8.44749 22.7967 8.37398 22.7764C8.30048 22.7561 8.2377 22.7081 8.19886 22.6425C8.16003 22.5769 8.14816 22.4988 8.16575 22.4246C8.18334 22.3504 8.22903 22.2859 8.29319 22.2447L8.84034 21.9143L8.59474 22.0557C8.52814 22.0923 8.44996 22.1018 8.37654 22.0821C8.30313 22.0624 8.24018 22.015 8.20085 21.95C8.16152 21.885 8.14886 21.8072 8.16552 21.7331C8.18218 21.6589 8.22687 21.5941 8.29025 21.5521L20.6239 13.7518L8.59298 20.6981C8.52573 20.7379 8.44545 20.7493 8.36979 20.7298C8.29413 20.7104 8.22929 20.6617 8.18953 20.5944C8.14978 20.5272 8.13837 20.4469 8.15781 20.3712C8.17725 20.2956 8.22595 20.2307 8.29319 20.191L9.23201 19.6232L8.59298 19.9919C8.52589 20.0302 8.44646 20.0405 8.37182 20.0207C8.29717 20.001 8.23327 19.9527 8.19388 19.8863C8.15449 19.8199 8.14277 19.7406 8.16124 19.6656C8.1797 19.5907 8.22688 19.5259 8.2926 19.4854L13.3018 16.4228L8.59298 19.1379C8.52633 19.174 8.44832 19.183 8.3752 19.1631C8.30207 19.1431 8.23945 19.0957 8.20038 19.0308C8.1613 18.9658 8.14877 18.8883 8.1654 18.8144C8.18203 18.7404 8.22654 18.6757 8.28966 18.6338L19.1202 11.8488L8.59298 17.9276C8.52599 17.964 8.44749 17.973 8.37398 17.9528C8.30048 17.9325 8.2377 17.8845 8.19886 17.8189C8.16003 17.7533 8.14816 17.6751 8.16575 17.6009C8.18334 17.5267 8.22903 17.4623 8.29319 17.4211L10.6073 16.0146L8.59298 17.1772C8.52616 17.2135 8.44793 17.2225 8.37464 17.2023C8.30134 17.1822 8.23867 17.1345 8.19972 17.0693C8.16077 17.004 8.14857 16.9262 8.16566 16.8521C8.18275 16.7781 8.22781 16.7135 8.29142 16.6719L16.5688 11.5479L8.59298 16.1548C8.55987 16.1748 8.52316 16.1881 8.48492 16.1939C8.44669 16.1997 8.40768 16.1979 8.37014 16.1886C8.33259 16.1793 8.29724 16.1628 8.2661 16.1398C8.23496 16.1169 8.20864 16.0881 8.18865 16.055C8.16866 16.0218 8.15538 15.9851 8.14958 15.9469C8.14377 15.9087 8.14556 15.8697 8.15483 15.8321C8.1641 15.7946 8.18067 15.7592 8.2036 15.7281C8.22654 15.6969 8.25538 15.6706 8.28848 15.6506L20.1215 8.166L8.59298 14.8219C8.52604 14.859 8.44732 14.8685 8.37349 14.8485C8.29966 14.8285 8.23651 14.7805 8.1974 14.7148C8.1583 14.649 8.1463 14.5707 8.16396 14.4962C8.18162 14.4218 8.22754 14.3572 8.29201 14.316L13.2824 11.2457L8.59298 13.955C8.52649 13.991 8.44868 14.0001 8.37569 13.9803C8.30269 13.9605 8.2401 13.9135 8.20088 13.8488C8.16166 13.7841 8.14882 13.7069 8.16502 13.633C8.18122 13.5591 8.22521 13.4943 8.28789 13.452L17.8292 7.365L8.59298 12.6964C8.52625 12.7337 8.4476 12.7437 8.37367 12.7241C8.29973 12.7046 8.23631 12.657 8.19682 12.5915C8.15734 12.526 8.14489 12.4477 8.1621 12.3732C8.17932 12.2986 8.22485 12.2337 8.28907 12.1922L14.6664 8.16718L8.59298 11.6721C8.52625 11.7095 8.4476 11.7195 8.37367 11.6999C8.29973 11.6803 8.23631 11.6328 8.19682 11.5673C8.15734 11.5018 8.14489 11.4235 8.1621 11.3489C8.17932 11.2744 8.22485 11.2095 8.28907 11.168L13.1763 8.07942L8.59298 10.7298C8.52625 10.7672 8.4476 10.7771 8.37367 10.7576C8.29973 10.738 8.23631 10.6904 8.19682 10.6249C8.15734 10.5594 8.14489 10.4811 8.1621 10.4066C8.17932 10.3321 8.22485 10.2672 8.28907 10.2256L11.4194 8.2514L8.59298 9.88167C8.52672 9.92102 8.44768 9.93284 8.37281 9.91458C8.29794 9.89632 8.23321 9.84944 8.19251 9.784C8.15182 9.71856 8.13839 9.63977 8.15512 9.56455C8.17185 9.48932 8.2174 9.42365 8.282 9.38163L14.7359 5.04917L8.59298 8.59536C8.52729 8.63206 8.45003 8.64223 8.37708 8.62377C8.30413 8.60531 8.24101 8.55962 8.20069 8.49608C8.16037 8.43254 8.1459 8.35598 8.16025 8.28211C8.17461 8.20824 8.2167 8.14267 8.27788 8.09886L13.8325 4.24523L8.59062 7.27017C8.52484 7.30732 8.44729 7.31776 8.37402 7.29934C8.30075 7.28092 8.23737 7.23504 8.19697 7.1712C8.15658 7.10735 8.14227 7.03043 8.157 6.95633C8.17173 6.88223 8.21437 6.81662 8.27611 6.77308L11.8688 4.28645L8.59298 6.17822C8.52729 6.21659 8.44931 6.22805 8.37537 6.21021C8.30142 6.19237 8.23725 6.1466 8.19629 6.0825C8.15533 6.0184 8.14077 5.94094 8.15565 5.86634C8.17053 5.79174 8.2137 5.72579 8.27611 5.68231L10.7027 3.9743L8.59298 5.19347C8.52757 5.23043 8.45051 5.241 8.37756 5.22301C8.30462 5.20501 8.24131 5.15982 8.20059 5.09668C8.15988 5.03354 8.14484 4.95722 8.15855 4.88335C8.17226 4.80948 8.21368 4.74365 8.27434 4.69932L9.68257 3.68865L8.59298 4.31767C8.52883 4.35514 8.4529 4.36698 8.38039 4.35082C8.30788 4.33466 8.24416 4.29169 8.202 4.23053C8.15983 4.16937 8.14234 4.09454 8.15303 4.02102C8.16371 3.94751 8.20179 3.88075 8.25962 3.83412L9.87458 2.51424L8.59298 3.25458C8.52855 3.29223 8.45223 3.30402 8.37944 3.28757C8.30665 3.27111 8.24283 3.22763 8.20087 3.16592C8.1589 3.10421 8.14194 3.02888 8.15339 2.95514C8.16484 2.88139 8.20386 2.81475 8.26257 2.76868L8.48579 2.59199C8.43017 2.60027 8.37334 2.59246 8.32202 2.56947C8.2707 2.54648 8.22703 2.50928 8.19618 2.46227C8.16533 2.41525 8.14859 2.36038 8.14794 2.30415C8.14728 2.24793 8.16274 2.19268 8.19248 2.14496L8.72903 1.27623C8.65978 1.30732 8.58119 1.31047 8.50968 1.28502C8.43816 1.25957 8.37923 1.20748 8.34519 1.13963C8.31115 1.07178 8.30463 0.993404 8.32699 0.920859C8.34934 0.848314 8.39885 0.787203 8.46517 0.750279L9.44463 0.187224C9.50165 0.153671 9.56831 0.140297 9.63386 0.149258C9.69941 0.158218 9.76003 0.188992 9.80596 0.236617C9.85188 0.284242 9.88043 0.345944 9.887 0.411777C9.89357 0.477611 9.87779 0.543739 9.84218 0.599503L9.31152 1.46117L11.5184 0.187224C11.5827 0.149818 11.6589 0.138169 11.7315 0.154619C11.8041 0.171069 11.8677 0.214399 11.9097 0.275891C11.9516 0.337384 11.9687 0.412477 11.9575 0.486065C11.9463 0.559654 11.9077 0.626278 11.8494 0.672535L11.7416 0.757936L12.7305 0.187224C12.7945 0.150641 12.87 0.139428 12.9419 0.155802C13.0138 0.172177 13.077 0.214948 13.1189 0.275654C13.1608 0.33636 13.1784 0.410581 13.1682 0.483637C13.158 0.556693 13.1208 0.623262 13.0638 0.670179L11.4483 1.98888L14.5722 0.187224C14.6376 0.150259 14.7147 0.139691 14.7876 0.157684C14.8606 0.175677 14.9239 0.22087 14.9646 0.284012C15.0053 0.347154 15.0203 0.42347 15.0066 0.497339C14.9929 0.571208 14.9515 0.637043 14.8908 0.68137L13.4832 1.68851L16.0847 0.187224C16.1502 0.150399 16.2274 0.14004 16.3003 0.158271C16.3733 0.176501 16.4365 0.22194 16.477 0.285274C16.5175 0.348609 16.5323 0.425041 16.5182 0.498906C16.5042 0.572771 16.4625 0.638474 16.4015 0.682548L13.9744 2.39056L17.7927 0.187224C17.8585 0.150078 17.936 0.139637 18.0093 0.158059C18.0826 0.176481 18.1459 0.222358 18.1863 0.286202C18.2267 0.350045 18.241 0.426972 18.2263 0.501071C18.2116 0.57517 18.1689 0.640774 18.1072 0.684314L14.5145 3.17094L19.6856 0.187224C19.7513 0.150517 19.8286 0.14035 19.9015 0.158812C19.9745 0.177275 20.0376 0.222964 20.0779 0.286501C20.1182 0.350038 20.1327 0.426601 20.1184 0.500471C20.104 0.574341 20.0619 0.639913 20.0007 0.683725L14.4456 4.53677L21.982 0.187224C22.0481 0.150179 22.1259 0.140027 22.1993 0.158879C22.2727 0.177731 22.336 0.224136 22.376 0.288448C22.4161 0.35276 22.4298 0.43003 22.4143 0.504195C22.3989 0.57836 22.3554 0.643714 22.293 0.68667L15.8391 5.01678L24.2089 0.187224C24.242 0.16723 24.2787 0.153953 24.317 0.148149C24.3552 0.142346 24.3942 0.14413 24.4318 0.1534C24.4693 0.16267 24.5047 0.179245 24.5358 0.202177C24.5669 0.22511 24.5933 0.253951 24.6132 0.287054C24.6332 0.320158 24.6465 0.356875 24.6523 0.39511C24.6581 0.433345 24.6563 0.472348 24.6471 0.509894C24.6378 0.547439 24.6212 0.582791 24.5983 0.613931C24.5754 0.64507 24.5465 0.671389 24.5134 0.691382L21.3854 2.6609L25.6743 0.187224C25.7074 0.16723 25.7441 0.153953 25.7823 0.148149C25.8206 0.142346 25.8596 0.14413 25.8971 0.1534C25.9347 0.16267 25.97 0.179245 26.0012 0.202177C26.0323 0.22511 26.0586 0.253951 26.0786 0.287054C26.0986 0.320158 26.1119 0.356875 26.1177 0.39511C26.1235 0.433345 26.1217 0.472348 26.1124 0.509894C26.1032 0.547439 26.0866 0.582791 26.0637 0.613931C26.0407 0.64507 26.0119 0.671389 25.9788 0.691382L21.0909 3.77994L27.3128 0.187224C27.3796 0.146845 27.4598 0.134678 27.5356 0.1534C27.6115 0.172122 27.6767 0.220199 27.7171 0.287054C27.7575 0.35391 27.7697 0.434068 27.7509 0.509894C27.7322 0.58572 27.6841 0.651003 27.6173 0.691382L21.2376 4.7164L29.085 0.187224C29.1516 0.150021 29.23 0.140084 29.3037 0.159502C29.3774 0.17892 29.4407 0.226179 29.4803 0.291338C29.5199 0.356497 29.5327 0.434474 29.516 0.508866C29.4993 0.583257 29.4544 0.648262 29.3907 0.690204L19.8494 6.77662L31.2618 0.187224C31.3288 0.150214 31.4075 0.140702 31.4813 0.160703C31.5552 0.180704 31.6183 0.228647 31.6574 0.294386C31.6965 0.360125 31.7085 0.438501 31.6909 0.512926C31.6732 0.587351 31.6273 0.651985 31.5628 0.693149L26.5683 3.76345L32.4533 0.363915C32.52 0.325808 32.5989 0.315258 32.6733 0.334516C32.7476 0.353773 32.8115 0.401314 32.8513 0.467C32.8911 0.532686 32.9037 0.611321 32.8863 0.686135C32.869 0.76095 32.8231 0.826025 32.7584 0.867484L20.9254 8.35447L32.9999 1.38342C33.0667 1.34719 33.1449 1.3382 33.2182 1.35832C33.2915 1.37844 33.3542 1.42613 33.3931 1.49139C33.4321 1.55666 33.4443 1.63446 33.4272 1.70852C33.4101 1.78258 33.365 1.84716 33.3014 1.88876L25.0241 7.01279L32.9999 2.40587C33.0671 2.36612 33.1474 2.35471 33.2231 2.37415C33.2987 2.39359 33.3636 2.44229 33.4033 2.50953C33.4431 2.57678 33.4545 2.65706 33.4351 2.73272C33.4156 2.80838 33.3669 2.87322 33.2997 2.91298L30.9856 4.31944L32.9999 3.15622C33.0667 3.11767 33.1461 3.1069 33.2208 3.12625C33.2955 3.14559 33.3596 3.19349 33.3994 3.25965C33.4392 3.3258 33.4514 3.40492 33.4334 3.47998C33.4154 3.55503 33.3686 3.62002 33.3032 3.66097L22.4762 10.443L32.9999 4.36891C33.067 4.33068 33.1464 4.32033 33.221 4.34009C33.2957 4.35985 33.3596 4.40814 33.399 4.47456C33.4384 4.54098 33.4501 4.62021 33.4316 4.69519C33.4132 4.77016 33.366 4.83489 33.3003 4.87542L28.2846 7.94513L32.9999 5.21997C33.0671 5.18022 33.1474 5.1688 33.2231 5.18824C33.2987 5.20768 33.3636 5.25638 33.4033 5.32363C33.4431 5.39088 33.4545 5.47116 33.4351 5.54682C33.4156 5.62248 33.3669 5.68732 33.2997 5.72707L32.3703 6.29013L32.9999 5.92673C33.0665 5.89011 33.1447 5.88065 33.2181 5.90035C33.2915 5.92004 33.3545 5.96736 33.3938 6.0324C33.4331 6.09744 33.4458 6.17517 33.4291 6.24933C33.4124 6.32349 33.3678 6.38834 33.3044 6.4303L20.969 14.2306L32.9999 7.28431C33.0671 7.24456 33.1474 7.23314 33.2231 7.25258C33.2987 7.27202 33.3636 7.32072 33.4033 7.38797C33.4431 7.45521 33.4545 7.5355 33.4351 7.61116C33.4156 7.68682 33.3669 7.75166 33.2997 7.79141L32.7437 8.1283L32.9999 7.98047C33.0668 7.94346 33.1455 7.93395 33.2194 7.95395C33.2932 7.97395 33.3564 8.02189 33.3955 8.08763C33.4346 8.15337 33.4466 8.23175 33.4289 8.30617C33.4112 8.3806 33.3653 8.44523 33.3008 8.4864L27.7463 11.8889L32.9975 8.85745C33.0645 8.82044 33.1432 8.81093 33.217 8.83093C33.2908 8.85093 33.354 8.89887 33.3931 8.96461C33.4322 9.03035 33.4442 9.10872 33.4265 9.18315C33.4089 9.25758 33.363 9.32221 33.2985 9.36337L26.8569 13.3242L32.9999 9.77742C33.0669 9.74099 33.1454 9.73196 33.2189 9.75224C33.2924 9.77252 33.3552 9.82051 33.394 9.88613C33.4328 9.95175 33.4447 10.0299 33.4271 10.1041C33.4095 10.1783 33.3638 10.2427 33.2997 10.2839L29.9308 12.3371L32.9999 10.5649C33.0666 10.5275 33.1453 10.5175 33.2192 10.5371C33.2931 10.5567 33.3566 10.6042 33.396 10.6697C33.4355 10.7352 33.448 10.8135 33.4308 10.8881C33.4135 10.9626 33.368 11.0275 33.3038 11.069L21.621 18.4235L32.9999 11.8547C33.0667 11.8185 33.1449 11.8095 33.2182 11.8296C33.2915 11.8497 33.3542 11.8974 33.3931 11.9627C33.4321 12.028 33.4443 12.1058 33.4272 12.1798C33.4101 12.2539 33.365 12.3185 33.3014 12.3601L25.0653 17.4552L32.9999 12.8748C33.0666 12.8374 33.1453 12.8275 33.2192 12.847C33.2931 12.8666 33.3566 12.9142 33.396 12.9797C33.4355 13.0452 33.448 13.1235 33.4308 13.198C33.4135 13.2725 33.368 13.3374 33.3038 13.379L21.2912 20.9578L32.9999 14.1982C33.0667 14.1597 33.1461 14.1489 33.2208 14.1683C33.2955 14.1876 33.3596 14.2355 33.3994 14.3017C33.4392 14.3678 33.4514 14.4469 33.4334 14.522C33.4154 14.597 33.3686 14.662 33.3032 14.703L22.6258 21.3848L32.9999 15.3956C33.0667 15.357 33.1461 15.3463 33.2208 15.3656C33.2955 15.385 33.3596 15.4329 33.3994 15.499C33.4392 15.5652 33.4514 15.6443 33.4334 15.7194C33.4154 15.7944 33.3686 15.8594 33.3032 15.9003L22.71 22.5427L32.9999 16.6018C33.0669 16.5654 33.1454 16.5564 33.2189 16.5766C33.2924 16.5969 33.3552 16.6449 33.394 16.7105C33.4328 16.7761 33.4447 16.8543 33.4271 16.9285C33.4095 17.0027 33.3638 17.0671 33.2997 17.1083L32.6294 17.5153L32.9999 17.3015C33.0665 17.2649 33.1447 17.2554 33.2181 17.2751C33.2915 17.2948 33.3545 17.3421 33.3938 17.4072C33.4331 17.4722 33.4458 17.5499 33.4291 17.6241C33.4124 17.6983 33.3678 17.7631 33.3044 17.8051L22.6287 24.5564L32.9999 18.569C33.0667 18.5332 33.1448 18.5247 33.2178 18.545C33.2909 18.5654 33.3532 18.6132 33.3919 18.6783C33.4306 18.7435 33.4427 18.8211 33.4256 18.895C33.4085 18.9689 33.3636 19.0333 33.3003 19.0749L30.0609 21.0615L33.0028 19.3629C33.0694 19.3263 33.1476 19.3168 33.221 19.3365C33.2944 19.3562 33.3574 19.4035 33.3967 19.4686C33.4361 19.5336 33.4487 19.6113 33.4321 19.6855C33.4154 19.7597 33.3707 19.8245 33.3073 19.8665L23.5346 26.0613L32.9999 20.5974C33.0663 20.5623 33.1436 20.5539 33.2161 20.574C33.2885 20.594 33.3505 20.641 33.3894 20.7053C33.4283 20.7695 33.4412 20.8462 33.4254 20.9197C33.4096 20.9931 33.3663 21.0578 33.3044 21.1004L24.395 26.7456L32.9999 21.7783C33.0667 21.7425 33.1448 21.734 33.2178 21.7543C33.2909 21.7747 33.3532 21.8225 33.3919 21.8876C33.4306 21.9528 33.4427 22.0304 33.4256 22.1043C33.4085 22.1782 33.3636 22.2426 33.3003 22.2842L32.1306 23.001L32.9999 22.4992C33.0666 22.4618 33.1453 22.4518 33.2192 22.4714C33.2931 22.491 33.3566 22.5385 33.396 22.604C33.4355 22.6695 33.448 22.7478 33.4308 22.8224C33.4135 22.8969 33.368 22.9618 33.3038 23.0033L27.1473 26.8905L32.9999 23.5104C33.033 23.4904 33.0697 23.4772 33.1079 23.4714C33.1462 23.4655 33.1852 23.4673 33.2227 23.4766C33.2603 23.4859 33.2956 23.5024 33.3268 23.5254C33.3579 23.5483 33.3842 23.5772 33.4042 23.6103C33.4242 23.6434 33.4375 23.6801 33.4433 23.7183C33.4491 23.7565 33.4473 23.7956 33.438 23.8331C33.4288 23.8706 33.4122 23.906 33.3893 23.9371C33.3663 23.9683 33.3375 23.9946 33.3044 24.0146L28.6026 26.9871L32.9999 24.4528C33.0664 24.4172 33.1441 24.4085 33.2168 24.4286C33.2896 24.4486 33.3518 24.4957 33.3908 24.5603C33.4298 24.6249 33.4425 24.702 33.4263 24.7757C33.4101 24.8494 33.3663 24.914 33.3038 24.9563L30.697 26.5954L32.9999 25.2667C33.0664 25.2307 33.1442 25.2216 33.2172 25.2414C33.2902 25.2612 33.3528 25.3083 33.392 25.3729C33.4312 25.4376 33.444 25.5149 33.4278 25.5887C33.4116 25.6626 33.3677 25.7274 33.305 25.7697L30.3213 27.6739L32.9999 26.1278C33.0664 26.0918 33.1442 26.0827 33.2172 26.1025C33.2902 26.1222 33.3528 26.1693 33.392 26.234C33.4312 26.2987 33.444 26.3759 33.4278 26.4498C33.4116 26.5237 33.3677 26.5885 33.305 26.6308L32.1082 27.3917L32.9999 26.877C33.0659 26.8387 33.1441 26.8275 33.2182 26.8458C33.2923 26.864 33.3564 26.9103 33.397 26.9749C33.4376 27.0395 33.4516 27.1173 33.4359 27.192C33.4203 27.2667 33.3763 27.3324 33.3132 27.3752L28.8777 30.4014L33.0005 28.0219C33.0664 27.9843 33.1442 27.9735 33.2179 27.9919C33.2915 28.0102 33.3552 28.0563 33.3957 28.1205C33.4362 28.1847 33.4503 28.262 33.4352 28.3364C33.42 28.4107 33.3768 28.4764 33.3144 28.5196L30.2788 30.6116L33.0011 29.0403C33.0669 29.0026 33.1448 28.9918 33.2185 29.0102C33.2921 29.0286 33.3558 29.0746 33.3963 29.1388C33.4368 29.203 33.4509 29.2803 33.4358 29.3547C33.4206 29.4291 33.3774 29.4947 33.315 29.5379L31.8543 30.5392L33.0011 29.8778C33.0657 29.8416 33.1415 29.8311 33.2135 29.8483C33.2855 29.8656 33.3483 29.9093 33.3896 29.9708C33.4308 30.0322 33.4473 30.107 33.4359 30.1801C33.4245 30.2533 33.3859 30.3194 33.3279 30.3654L31.071 32.1094L32.9999 30.9962C33.0642 30.9591 33.1401 30.9475 33.2125 30.964C33.2849 30.9804 33.3485 31.0236 33.3904 31.0849C33.4323 31.1462 33.4495 31.221 33.4386 31.2945C33.4277 31.3679 33.3894 31.4345 33.3315 31.481L32.1789 32.4039L32.9999 31.9327C33.0638 31.8964 33.1389 31.8854 33.2106 31.9017C33.2822 31.918 33.3452 31.9605 33.3871 32.0209C33.429 32.0812 33.4468 32.1551 33.4371 32.2279C33.4273 32.3007 33.3907 32.3673 33.3344 32.4145L33.0988 32.6088C33.147 32.6004 33.1966 32.6043 33.2429 32.6203C33.2891 32.6363 33.3306 32.6637 33.3633 32.7001C33.4086 32.7491 33.4358 32.8121 33.4406 32.8787C33.4455 32.9452 33.4275 33.0114 33.3898 33.0665L32.9481 33.7078C33.0044 33.7029 33.0611 33.7139 33.1114 33.7398C33.1617 33.7656 33.2037 33.8052 33.2325 33.8539C33.2714 33.9214 33.282 34.0016 33.2619 34.0769C33.2418 34.1522 33.1927 34.2164 33.1253 34.2556L32.1482 34.8192C32.0904 34.8523 32.0231 34.8649 31.9573 34.8548C31.8915 34.8447 31.831 34.8126 31.7858 34.7638C31.7405 34.7149 31.7132 34.6521 31.7082 34.5857C31.7032 34.5193 31.7209 34.4532 31.7583 34.3981L32.1635 33.8056L30.4078 34.8186C30.3439 34.8549 30.2688 34.8659 30.1971 34.8496C30.1255 34.8333 30.0626 34.7908 30.0206 34.7305C29.9787 34.6701 29.9609 34.5963 29.9706 34.5235C29.9804 34.4506 30.017 34.3841 30.0733 34.3369L30.2229 34.2138L29.1745 34.8186C29.1103 34.8556 29.0346 34.867 28.9623 34.8506C28.8901 34.8342 28.8267 34.7911 28.7848 34.73C28.7429 34.669 28.7255 34.5943 28.7362 34.521C28.7468 34.4477 28.7848 34.3811 28.8423 34.3345L29.9944 33.4075L27.549 34.821C27.4844 34.8579 27.4082 34.8689 27.3357 34.8519C27.2633 34.8349 27.2 34.7912 27.1585 34.7294C27.117 34.6676 27.1005 34.5925 27.1122 34.519C27.1239 34.4455 27.1629 34.3792 27.2215 34.3333L29.4767 32.5941L25.6183 34.8186C25.5526 34.8549 25.4755 34.8646 25.4028 34.8459C25.3301 34.8272 25.2673 34.7814 25.2273 34.7179C25.1872 34.6545 25.1729 34.5781 25.1872 34.5044C25.2015 34.4308 25.2435 34.3654 25.3044 34.3216L26.7668 33.3203L24.1659 34.8186C24.1001 34.8558 24.0226 34.8662 23.9493 34.8478C23.8761 34.8294 23.8127 34.7835 23.7723 34.7197C23.7319 34.6558 23.7176 34.5789 23.7323 34.5048C23.747 34.4307 23.7897 34.3651 23.8514 34.3216L26.8899 32.2289L22.4031 34.8204C22.3373 34.8581 22.2594 34.8688 22.1857 34.8505C22.1121 34.8321 22.0484 34.786 22.0079 34.7219C21.9674 34.6577 21.9533 34.5803 21.9684 34.506C21.9836 34.4316 22.0269 34.366 22.0892 34.3227L26.523 31.2966L20.4189 34.8186C20.3524 34.8547 20.2746 34.8638 20.2016 34.844C20.1286 34.8242 20.066 34.7771 20.0268 34.7125C19.9876 34.6478 19.9747 34.5705 19.9909 34.4967C20.0071 34.4228 20.0511 34.358 20.1138 34.3157L21.3112 33.5547L19.1208 34.8186C19.0543 34.8547 18.9765 34.8638 18.9035 34.844C18.8305 34.8242 18.7679 34.7771 18.7287 34.7125C18.6895 34.6478 18.6767 34.5705 18.6929 34.4967C18.7091 34.4228 18.753 34.358 18.8157 34.3157L21.7977 32.4151L17.6301 34.8186C17.5855 34.8451 17.5347 34.8593 17.4829 34.8599Z" fill="#E1EFFF"/>
<path d="M25.7887 21.3136C25.7275 21.3137 25.6678 21.2947 25.6179 21.2593C25.568 21.2239 25.5304 21.1738 25.5103 21.1161C25.4901 21.0583 25.4885 20.9957 25.5056 20.9369C25.5226 20.8782 25.5576 20.8262 25.6055 20.7882L27.4849 19.2958L24.4129 21.0698C24.3474 21.1077 24.2699 21.119 24.1963 21.1013C24.1228 21.0837 24.0589 21.0384 24.0178 20.9748C23.9768 20.9113 23.9617 20.8344 23.9759 20.76C23.99 20.6857 24.0322 20.6197 24.0936 20.5756L25.8547 19.3076L23.9482 20.409C23.8834 20.4473 23.8064 20.4593 23.733 20.4426C23.6596 20.4259 23.5954 20.3817 23.5535 20.3191C23.5117 20.2566 23.4954 20.1803 23.508 20.1061C23.5206 20.0319 23.5611 19.9654 23.6213 19.9201L27.0326 17.2957L23.9064 19.1009C23.8413 19.1378 23.7646 19.1487 23.6919 19.1311C23.6191 19.1136 23.5558 19.0691 23.5147 19.0066C23.4736 18.944 23.4579 18.8682 23.4707 18.7945C23.4835 18.7208 23.5238 18.6547 23.5836 18.6096L25.8535 16.9252L23.9064 18.0495C23.8417 18.0867 23.7653 18.0979 23.6927 18.0809C23.62 18.0639 23.5565 18.02 23.515 17.958C23.4735 17.896 23.4571 17.8206 23.4691 17.7469C23.481 17.6733 23.5205 17.6069 23.5795 17.5613L25.0354 16.4363L23.9064 17.0907C23.843 17.127 23.7684 17.1385 23.697 17.1229C23.6256 17.1073 23.5626 17.0657 23.5202 17.0063C23.4778 16.9468 23.4589 16.8737 23.4674 16.8011C23.4758 16.7286 23.511 16.6617 23.5659 16.6136L24.5348 15.7714L23.9064 16.1336C23.8498 16.1661 23.784 16.1789 23.7193 16.1699C23.6547 16.161 23.5949 16.1308 23.5492 16.0842C23.5036 16.0375 23.4748 15.977 23.4672 15.9122C23.4597 15.8474 23.4739 15.7819 23.5076 15.7261L24.0577 14.8179C23.9888 14.8547 23.9081 14.8627 23.8334 14.8401C23.7586 14.8174 23.6959 14.766 23.659 14.6971C23.6221 14.6282 23.6141 14.5475 23.6368 14.4728C23.6594 14.398 23.7108 14.3353 23.7797 14.2984L24.7557 13.7353C24.8122 13.7028 24.878 13.6901 24.9427 13.699C25.0073 13.708 25.0671 13.7381 25.1128 13.7848C25.1584 13.8314 25.1872 13.8919 25.1948 13.9567C25.2023 14.0216 25.1881 14.087 25.1544 14.1429L24.6055 15.0505L26.8848 13.7342C26.9482 13.6978 27.0228 13.6863 27.0941 13.7019C27.1655 13.7175 27.2285 13.7591 27.271 13.8186C27.3134 13.878 27.3322 13.9512 27.3237 14.0237C27.3153 14.0963 27.2802 14.1631 27.2252 14.2112L26.2569 15.0534L28.5421 13.7342C28.6068 13.6973 28.6829 13.6862 28.7554 13.7032C28.8278 13.7202 28.8911 13.764 28.9326 13.8258C28.9741 13.8875 28.9906 13.9627 28.9789 14.0362C28.9673 14.1096 28.9282 14.176 28.8696 14.2218L27.4131 15.3468L29.9969 13.8514C30.0621 13.8131 30.1394 13.8013 30.213 13.8185C30.2866 13.8357 30.3508 13.8805 30.3922 13.9437C30.4337 14.0069 30.4493 14.0836 30.4358 14.1579C30.4223 14.2323 30.3807 14.2986 30.3196 14.3432L28.0504 16.0306L30.5935 14.5581C30.6583 14.5207 30.7349 14.5093 30.8077 14.5263C30.8806 14.5433 30.9442 14.5874 30.9858 14.6496C31.0273 14.7119 31.0436 14.7875 31.0313 14.8613C31.0191 14.9351 30.9792 15.0015 30.9198 15.047L27.5109 17.6738L30.6471 15.8627C30.7126 15.8247 30.7901 15.8134 30.8637 15.8311C30.9372 15.8488 31.0011 15.8941 31.0422 15.9577C31.0832 16.0212 31.0983 16.0981 31.0841 16.1724C31.07 16.2467 31.0278 16.3128 30.9663 16.3568L29.2059 17.6237L30.6471 16.7915C30.7115 16.7546 30.7875 16.7434 30.8598 16.7601C30.9321 16.7768 30.9955 16.8202 31.0372 16.8816C31.0789 16.943 31.0958 17.0179 31.0846 17.0913C31.0735 17.1647 31.035 17.2312 30.9769 17.2774L29.0975 18.7698L30.6471 17.8752C30.7083 17.8398 30.7803 17.8276 30.8498 17.8408C30.9193 17.8541 30.9816 17.8919 31.0255 17.9474C31.0694 18.0028 31.0919 18.0723 31.0888 18.1429C31.0857 18.2136 31.0573 18.2808 31.0087 18.3322L29.6629 19.7611L30.6471 19.1927C30.7055 19.1591 30.7737 19.1466 30.8403 19.1572C30.9069 19.1678 30.9678 19.201 31.0128 19.2511C31.0579 19.3012 31.0845 19.3652 31.088 19.4325C31.0915 19.4999 31.0719 19.5663 31.0323 19.6209L30.6395 20.161C30.7028 20.1642 30.7634 20.1878 30.8122 20.2282C30.8611 20.2686 30.8956 20.3237 30.9106 20.3853C30.9257 20.4469 30.9204 20.5118 30.8956 20.5701C30.8708 20.6285 30.8279 20.6773 30.7732 20.7093L29.7984 21.2724C29.74 21.3057 29.672 21.3181 29.6056 21.3074C29.5393 21.2968 29.4785 21.2637 29.4335 21.2138C29.3885 21.1638 29.362 21.1 29.3583 21.0329C29.3546 20.9657 29.374 20.8994 29.4132 20.8448L29.7389 20.3972L28.2176 21.2724C28.1564 21.3078 28.0846 21.32 28.0151 21.3069C27.9457 21.2937 27.8833 21.256 27.8394 21.2006C27.7954 21.1452 27.7729 21.0759 27.7758 21.0053C27.7788 20.9347 27.807 20.8675 27.8554 20.8159L29.2018 19.3877L25.9359 21.2724C25.8914 21.2988 25.8406 21.3131 25.7887 21.3136ZM26.1268 10.7122C26.0656 10.7121 26.006 10.693 25.9562 10.6576C25.9064 10.6221 25.8689 10.5721 25.8488 10.5143C25.8288 10.4566 25.8272 10.394 25.8443 10.3354C25.8613 10.2767 25.8963 10.2247 25.9442 10.1868L27.3995 9.03948L24.6838 10.6073C24.6191 10.6459 24.5422 10.6582 24.4687 10.6418C24.3952 10.6253 24.3308 10.5814 24.2888 10.519C24.2467 10.4565 24.2301 10.3804 24.2425 10.3061C24.2548 10.2318 24.2951 10.1651 24.3552 10.1197L27.2511 7.8639L23.9388 9.77628C23.8731 9.81299 23.7958 9.82315 23.7229 9.80469C23.6499 9.78623 23.5868 9.74054 23.5465 9.677C23.5061 9.61347 23.4917 9.5369 23.506 9.46303C23.5204 9.38916 23.5625 9.32359 23.6237 9.27978L24.8734 8.41046L23.9052 8.96939C23.8395 9.0085 23.7613 9.02056 23.6869 9.00305C23.6126 8.98553 23.5479 8.9398 23.5066 8.87552C23.4654 8.81123 23.4507 8.73342 23.4657 8.65852C23.4807 8.58361 23.5243 8.51747 23.5871 8.47407L25.3152 7.24607L23.9064 8.06002C23.8416 8.09666 23.7654 8.10743 23.693 8.09018C23.6207 8.07292 23.5575 8.02892 23.5163 7.96701C23.475 7.90509 23.4587 7.82987 23.4707 7.75644C23.4826 7.68301 23.5219 7.61682 23.5807 7.57118L25.7475 5.91382L23.9064 6.97396C23.8414 7.01115 23.7648 7.02224 23.692 7.00499C23.6192 6.98773 23.5557 6.94342 23.5144 6.88105C23.4731 6.81867 23.4571 6.74292 23.4696 6.66917C23.4821 6.59541 23.5223 6.52919 23.5818 6.48394L24.2067 6.01276L23.9064 6.18651C23.8425 6.22261 23.7675 6.23359 23.696 6.21731C23.6245 6.20103 23.5617 6.15865 23.5197 6.09847C23.4778 6.0383 23.4599 5.96465 23.4694 5.89193C23.4789 5.81922 23.5152 5.75268 23.5712 5.70532L23.977 5.3702L23.9081 5.41025C23.8511 5.4424 23.7851 5.45466 23.7203 5.44509C23.6556 5.43552 23.5959 5.40467 23.5507 5.3574C23.5054 5.31013 23.4772 5.24914 23.4705 5.18405C23.4638 5.11897 23.4789 5.05349 23.5135 4.99797L24.0053 4.23761C23.9362 4.2563 23.8627 4.2492 23.7985 4.21766C23.7343 4.18611 23.6838 4.13227 23.6564 4.06619C23.629 4.00011 23.6265 3.92631 23.6496 3.85857C23.6726 3.79084 23.7195 3.7338 23.7815 3.69811L24.7557 3.13211C24.8129 3.09892 24.8797 3.08599 24.9452 3.09541C25.0107 3.10483 25.0712 3.13605 25.1168 3.18403C25.1624 3.23201 25.1905 3.29396 25.1966 3.35988C25.2026 3.42579 25.1863 3.49183 25.1503 3.54734L24.6703 4.28885L26.6727 3.13093C26.7366 3.09422 26.8119 3.08277 26.8838 3.09884C26.9557 3.1149 27.0189 3.15732 27.061 3.21773C27.1032 3.27814 27.1212 3.35214 27.1114 3.42515C27.1017 3.49816 27.065 3.56487 27.0085 3.61212L26.6032 3.94901L28.0233 3.13211C28.0882 3.09492 28.1648 3.08383 28.2376 3.10109C28.3104 3.11835 28.3739 3.16266 28.4152 3.22503C28.4565 3.2874 28.4725 3.36315 28.46 3.43691C28.4475 3.51066 28.4074 3.57689 28.3478 3.62214L27.7211 4.09331L29.3908 3.13211C29.4556 3.0947 29.5322 3.08333 29.6051 3.10033C29.6779 3.11732 29.7416 3.16141 29.7831 3.22362C29.8246 3.28584 29.8409 3.36153 29.8287 3.43533C29.8164 3.50912 29.7765 3.57549 29.7171 3.62096L27.5503 5.27655L30.4268 3.61566C30.4925 3.57655 30.5707 3.56449 30.6451 3.582C30.7195 3.59952 30.7841 3.64524 30.8254 3.70953C30.8667 3.77382 30.8813 3.85163 30.8663 3.92653C30.8513 4.00144 30.8078 4.06758 30.7449 4.11098L29.0174 5.33839L30.6442 4.39899C30.71 4.36068 30.7881 4.34937 30.8621 4.36743C30.9361 4.38549 31.0002 4.43152 31.041 4.49585C31.0818 4.56018 31.0961 4.63781 31.0808 4.71244C31.0656 4.78707 31.022 4.85289 30.9593 4.89608L29.7071 5.76657L30.6442 5.2259C30.7087 5.18926 30.7847 5.17834 30.8569 5.19532C30.9292 5.2123 30.9924 5.25593 31.0338 5.31748C31.0753 5.37904 31.092 5.45397 31.0805 5.5273C31.0691 5.60063 31.0304 5.66695 30.9722 5.71298L28.0763 7.96873L30.6442 6.48924C30.7087 6.45211 30.7848 6.44076 30.8573 6.45748C30.9298 6.47421 30.9933 6.51776 31.035 6.57939C31.0767 6.64101 31.0936 6.71614 31.0821 6.78967C31.0707 6.8632 31.0318 6.92967 30.9734 6.97573L29.5186 8.12186L30.6442 7.474C30.7081 7.43711 30.7835 7.42558 30.8556 7.44167C30.9276 7.45777 30.9909 7.50032 31.0331 7.56091C31.0752 7.6215 31.0931 7.6957 31.0831 7.76882C31.0732 7.84195 31.0361 7.90867 30.9793 7.95578L30.4039 8.43402L30.6442 8.29502C30.7046 8.25998 30.7756 8.24758 30.8443 8.26004C30.9131 8.27249 30.9752 8.309 31.0195 8.36302C31.0638 8.41704 31.0875 8.48506 31.0863 8.55493C31.0851 8.6248 31.059 8.69196 31.0129 8.74441L30.5452 9.27919L30.6188 9.23678C30.6864 9.19835 30.7665 9.18821 30.8416 9.20859C30.9166 9.22896 30.9805 9.27819 31.0194 9.34554C31.0583 9.41288 31.069 9.49288 31.0491 9.56806C31.0292 9.64324 30.9804 9.7075 30.9133 9.74683L29.3013 10.6709C29.2409 10.7056 29.1702 10.7177 29.1017 10.7052C29.0332 10.6927 28.9714 10.6563 28.9271 10.6025C28.8829 10.5487 28.8592 10.4809 28.8602 10.4113C28.8612 10.3417 28.8869 10.2746 28.9326 10.2221L29.4003 9.68676L27.6964 10.6709C27.6325 10.7078 27.557 10.7193 27.485 10.7032C27.413 10.6872 27.3496 10.6446 27.3075 10.584C27.2653 10.5234 27.2475 10.4492 27.2574 10.3761C27.2674 10.303 27.3044 10.2363 27.3613 10.1891L27.9373 9.71032L26.274 10.6709C26.2295 10.6976 26.1787 10.7119 26.1268 10.7122ZM28.1493 31.9151C28.0891 31.915 28.0303 31.8964 27.9809 31.8619C27.9316 31.8273 27.894 31.7785 27.8733 31.722C27.8525 31.6654 27.8496 31.6038 27.865 31.5456C27.8803 31.4873 27.9132 31.4352 27.9591 31.3962L28.1216 31.2578L27.0515 31.8738C26.9888 31.9074 26.9161 31.9173 26.8468 31.9015C26.7775 31.8857 26.7163 31.8454 26.6744 31.788C26.6325 31.7306 26.6127 31.6599 26.6188 31.5891C26.6249 31.5183 26.6564 31.4521 26.7075 31.4027L28.4868 29.8083L24.9229 31.865C24.8586 31.9017 24.7828 31.9128 24.7107 31.8961C24.6385 31.8794 24.5753 31.8361 24.5336 31.7749C24.4919 31.7137 24.4749 31.639 24.4858 31.5658C24.4967 31.4925 24.5348 31.4261 24.5925 31.3797L27.4596 29.1057L23.98 31.1141C23.9153 31.1505 23.8393 31.1611 23.7671 31.1439C23.6949 31.1266 23.6319 31.0828 23.5907 31.0211C23.5495 30.9594 23.5331 30.8844 23.5447 30.8111C23.5564 30.7378 23.5953 30.6716 23.6537 30.6258L27.0821 27.989L23.9064 29.823C23.8404 29.8601 23.7627 29.8704 23.6894 29.8518C23.6161 29.8331 23.5528 29.787 23.5126 29.7229C23.4724 29.6588 23.4584 29.5818 23.4734 29.5076C23.4885 29.4335 23.5316 29.368 23.5936 29.3248L24.0878 28.9885L23.9064 29.0927C23.8414 29.1294 23.7649 29.1401 23.6924 29.1225C23.6199 29.105 23.5567 29.0606 23.5157 28.9984C23.4746 28.9361 23.4587 28.8605 23.4712 28.787C23.4837 28.7134 23.5237 28.6473 23.583 28.6021L25.2728 27.3388L23.9052 28.128C23.8404 28.1642 23.7643 28.1745 23.6922 28.157C23.6201 28.1395 23.5572 28.0954 23.5162 28.0336C23.4752 27.9717 23.4591 27.8967 23.471 27.8234C23.483 27.7502 23.5221 27.6842 23.5807 27.6386L24.1502 27.2068L23.9052 27.3488C23.8413 27.3857 23.7658 27.3972 23.6938 27.3811C23.6218 27.365 23.5584 27.3225 23.5163 27.2619C23.4741 27.2013 23.4563 27.1271 23.4662 27.054C23.4762 26.9808 23.5132 26.9141 23.5701 26.867L23.9287 26.569L23.9052 26.5825C23.8478 26.6158 23.7808 26.6287 23.7151 26.6191C23.6494 26.6096 23.5889 26.5781 23.5434 26.5298C23.4978 26.4815 23.4699 26.4193 23.4642 26.3532C23.4584 26.2871 23.4752 26.2209 23.5117 26.1655L23.9912 25.4388C23.9225 25.4541 23.8506 25.4443 23.7885 25.4112C23.7263 25.3781 23.6781 25.3239 23.6526 25.2583C23.627 25.1927 23.6258 25.1202 23.6491 25.0538C23.6724 24.9874 23.7188 24.9315 23.7797 24.8963L24.7568 24.3327C24.8142 24.2994 24.8811 24.2865 24.9468 24.296C25.0124 24.3055 25.0729 24.3369 25.1185 24.3851C25.1641 24.4334 25.1921 24.4956 25.1979 24.5618C25.2036 24.628 25.1869 24.6942 25.1503 24.7497L24.6879 25.4505L26.6374 24.3256C26.7012 24.2895 26.7762 24.2785 26.8478 24.2948C26.9193 24.3111 26.9821 24.3535 27.024 24.4136C27.0659 24.4738 27.0839 24.5475 27.0744 24.6202C27.0648 24.6929 27.0285 24.7594 26.9725 24.8068L26.6139 25.1048L27.9685 24.3215C28.0333 24.2853 28.1093 24.275 28.1815 24.2925C28.2536 24.31 28.3164 24.354 28.3574 24.4159C28.3984 24.4777 28.4146 24.5528 28.4026 24.626C28.3907 24.6993 28.3515 24.7653 28.293 24.8109L27.7235 25.2426L29.3249 24.3174C29.3898 24.2807 29.4663 24.27 29.5388 24.2875C29.6113 24.305 29.6745 24.3494 29.7156 24.4117C29.7566 24.474 29.7725 24.5496 29.76 24.6231C29.7475 24.6967 29.7076 24.7627 29.6482 24.808L27.9585 26.0684L30.64 24.5206C30.706 24.4835 30.7837 24.4732 30.857 24.4918C30.9303 24.5105 30.9936 24.5566 31.0338 24.6207C31.074 24.6847 31.0881 24.7618 31.073 24.836C31.0579 24.9101 31.0148 24.9756 30.9528 25.0188L30.4586 25.3551L30.64 25.2509C30.7047 25.2145 30.7807 25.2038 30.8529 25.2211C30.9251 25.2383 30.9881 25.2822 31.0293 25.3439C31.0706 25.4056 31.087 25.4806 31.0753 25.5539C31.0636 25.6271 31.0247 25.6933 30.9663 25.7391L27.5403 28.3807L30.6442 26.589C30.7085 26.553 30.784 26.5424 30.8557 26.5593C30.9274 26.5762 30.9902 26.6194 31.0317 26.6804C31.0731 26.7414 31.0902 26.8157 31.0795 26.8886C31.0688 26.9615 31.0312 27.0278 30.974 27.0743L28.1069 29.3454L30.6442 27.8812C30.7068 27.8476 30.7795 27.8378 30.8488 27.8536C30.9181 27.8693 30.9794 27.9097 31.0213 27.9671C31.0632 28.0245 31.0829 28.0951 31.0768 28.1659C31.0707 28.2367 31.0392 28.303 30.9881 28.3524L29.2094 29.9461L30.6442 29.1186C30.7077 29.0831 30.7822 29.0723 30.8532 29.0884C30.9242 29.1046 30.9868 29.1464 31.0287 29.206C31.0707 29.2655 31.0891 29.3384 31.0804 29.4108C31.0717 29.4831 31.0365 29.5496 30.9817 29.5975L30.7414 29.8018C30.7995 29.7918 30.8594 29.7995 30.9132 29.8239C30.9669 29.8483 31.0121 29.8883 31.0428 29.9388C31.0736 29.9892 31.0884 30.0477 31.0855 30.1067C31.0826 30.1656 31.062 30.2224 31.0264 30.2695L30.6571 30.7607C30.7026 30.7657 30.7462 30.7815 30.7844 30.8067C30.8226 30.8319 30.8543 30.8658 30.8768 30.9056C30.9157 30.9731 30.9263 31.0533 30.9062 31.1286C30.8861 31.2038 30.837 31.2681 30.7696 31.3072L29.7925 31.8709C29.7338 31.9045 29.6652 31.9168 29.5984 31.9058C29.5317 31.8948 29.4707 31.8612 29.4258 31.8105C29.381 31.7598 29.3549 31.6952 29.3521 31.6276C29.3493 31.56 29.3698 31.4934 29.4103 31.4392L29.6889 31.0687L28.2965 31.8738C28.252 31.9005 28.2012 31.9147 28.1493 31.9151Z" fill="#4295A8"/>
<path d="M40.4682 20.6899C40.4111 20.69 40.3553 20.6735 40.3074 20.6424C40.2596 20.6113 40.2218 20.567 40.1986 20.5148C40.1755 20.4627 40.168 20.4049 40.177 20.3486C40.1861 20.2922 40.2114 20.2398 40.2497 20.1975L41.0796 19.2816L39.7497 20.0473C39.6894 20.082 39.6188 20.0943 39.5503 20.0819C39.4819 20.0695 39.42 20.0333 39.3757 19.9797C39.3314 19.9261 39.3075 19.8585 39.3083 19.7889C39.309 19.7194 39.3343 19.6523 39.3798 19.5997L40.5259 18.2745L38.9074 19.211C38.8438 19.2472 38.7689 19.2585 38.6974 19.2425C38.626 19.2265 38.563 19.1845 38.5208 19.1246C38.4787 19.0647 38.4603 18.9913 38.4694 18.9186C38.4785 18.8459 38.5144 18.7792 38.57 18.7315L38.7337 18.5937L38.451 18.7563C38.3882 18.7951 38.3132 18.8089 38.2407 18.7951C38.1682 18.7812 38.1036 18.7406 38.0596 18.6814C38.0157 18.6221 37.9955 18.5486 38.0032 18.4752C38.0109 18.4018 38.0458 18.334 38.1011 18.2851L38.8179 17.6078L37.8573 18.162C37.7951 18.1989 37.7214 18.2116 37.6504 18.1977C37.5794 18.1838 37.5161 18.1442 37.4724 18.0865C37.4287 18.0289 37.4078 17.9571 37.4136 17.885C37.4194 17.8129 37.4516 17.7455 37.5039 17.6956L38.289 16.9423L37.5133 17.3905C37.4507 17.4249 37.3776 17.4354 37.3078 17.42C37.2379 17.4045 37.1761 17.3642 37.1338 17.3065C37.0916 17.2488 37.0717 17.1777 37.0781 17.1064C37.0844 17.0352 37.1164 16.9686 37.1682 16.9193L38.2478 15.941C38.2433 15.9348 38.2391 15.9283 38.2354 15.9216C38.1964 15.8539 38.1858 15.7736 38.206 15.6981C38.2262 15.6227 38.2756 15.5584 38.3432 15.5193L39.3863 14.9168C39.4489 14.8823 39.522 14.8718 39.5919 14.8873C39.6617 14.9027 39.7235 14.9431 39.7658 15.0008C39.8081 15.0585 39.8279 15.1296 39.8216 15.2009C39.8152 15.2721 39.7832 15.3386 39.7314 15.388L39.6048 15.5058L40.0795 15.2313C40.1418 15.1938 40.2158 15.1807 40.2872 15.1944C40.3586 15.2082 40.4223 15.2479 40.4662 15.3059C40.5101 15.3639 40.531 15.4361 40.5248 15.5085C40.5186 15.581 40.4859 15.6486 40.4329 15.6984L39.6507 16.4528L40.6979 15.848C40.7607 15.8091 40.8357 15.7953 40.9082 15.8092C40.9806 15.823 41.0453 15.8636 41.0893 15.9228C41.1332 15.9821 41.1534 16.0557 41.1457 16.1291C41.138 16.2025 41.1031 16.2703 41.0478 16.3191L40.3304 16.997L41.2904 16.4428C41.3541 16.4058 41.4294 16.394 41.5014 16.4098C41.5734 16.4256 41.6369 16.4678 41.6793 16.5281C41.7217 16.5884 41.7399 16.6624 41.7304 16.7354C41.7209 16.8085 41.6843 16.8754 41.6279 16.9228L41.4653 17.0601L41.7457 16.8981C41.806 16.863 41.8769 16.8505 41.9456 16.8628C42.0143 16.8751 42.0764 16.9114 42.1208 16.9653C42.1652 17.0191 42.1891 17.0869 42.1881 17.1567C42.1871 17.2265 42.1614 17.2937 42.1156 17.3463L40.9694 18.6715L42.4106 17.8393C42.4714 17.8039 42.5429 17.7914 42.6121 17.8042C42.6813 17.8169 42.7437 17.854 42.7879 17.9088C42.8321 17.9635 42.8552 18.0323 42.8531 18.1026C42.851 18.1729 42.8238 18.2402 42.7764 18.2922L41.496 19.7057C41.518 19.726 41.5367 19.7496 41.5513 19.7758C41.5902 19.8433 41.6008 19.9235 41.5807 19.9988C41.5606 20.0741 41.5115 20.1383 41.4441 20.1775L40.6196 20.6551C40.5733 20.6803 40.5209 20.6924 40.4682 20.6899Z" fill="#CD4C60"/>
<path d="M28.77 29.442C28.7106 29.442 28.6526 29.424 28.6036 29.3903C28.5546 29.3567 28.5169 29.309 28.4955 29.2536C28.4741 29.1982 28.4699 29.1376 28.4836 29.0797C28.4973 29.0219 28.5282 28.9696 28.5721 28.9296L29.3378 28.2352L28.6463 28.6339C28.586 28.6686 28.5153 28.6808 28.4469 28.6684C28.3784 28.6559 28.3165 28.6196 28.2723 28.5659C28.228 28.5122 28.2042 28.4445 28.2051 28.3749C28.206 28.3053 28.2315 28.2383 28.2771 28.1857L29.3113 27.0013L28.8772 27.2522C28.8165 27.2876 28.7451 27.3001 28.6759 27.2874C28.6067 27.2747 28.5444 27.2377 28.5001 27.1831C28.4559 27.1285 28.4326 27.0598 28.4346 26.9895C28.4366 26.9192 28.4636 26.852 28.5109 26.7999L28.813 26.4642C28.7676 26.4557 28.7248 26.4367 28.6881 26.4086C28.6514 26.3805 28.6218 26.3442 28.6017 26.3026C28.5816 26.2609 28.5717 26.2152 28.5726 26.169C28.5735 26.1227 28.5852 26.0774 28.6069 26.0366L28.9326 25.4217C28.8988 25.3903 28.8728 25.3514 28.8568 25.3081C28.8407 25.2649 28.8351 25.2184 28.8403 25.1726C28.8455 25.1267 28.8614 25.0827 28.8868 25.0442C28.9121 25.0056 28.9462 24.9735 28.9862 24.9505L29.3396 24.745C29.3949 24.7132 29.459 24.7003 29.5223 24.7082C29.5856 24.716 29.6447 24.7442 29.6906 24.7885C29.7365 24.8328 29.7668 24.8909 29.7768 24.9538C29.7869 25.0168 29.7763 25.0814 29.7465 25.1378L29.604 25.407L29.9721 25.1949C30.0328 25.1599 30.104 25.1477 30.1729 25.1605C30.2418 25.1732 30.3038 25.2101 30.348 25.2646C30.3921 25.319 30.4154 25.3873 30.4136 25.4574C30.4119 25.5274 30.3852 25.5945 30.3385 25.6467L30.1894 25.8116L30.5487 25.6049C30.6091 25.5702 30.6798 25.558 30.7483 25.5706C30.8168 25.5831 30.8787 25.6195 30.9229 25.6733C30.9671 25.7271 30.9908 25.7949 30.9898 25.8645C30.9888 25.9341 30.9631 26.0011 30.9174 26.0537L29.8855 27.2387L31.4227 26.3511C31.4854 26.3166 31.5585 26.3061 31.6283 26.3216C31.6982 26.337 31.76 26.3774 31.8023 26.4351C31.8445 26.4928 31.8644 26.5639 31.858 26.6352C31.8517 26.7064 31.8197 26.7729 31.7679 26.8223L31.0034 27.5155L31.8939 27.0019C31.9554 26.9668 32.0275 26.9551 32.097 26.9688C32.1665 26.9826 32.2287 27.0209 32.2722 27.0768C32.3157 27.1327 32.3376 27.2024 32.3339 27.2731C32.3302 27.3438 32.3011 27.4109 32.252 27.4619L31.9575 27.767L32.3033 27.5673C32.3368 27.546 32.3743 27.5317 32.4134 27.5253C32.4526 27.5188 32.4927 27.5204 32.5313 27.5298C32.5699 27.5393 32.6061 27.5564 32.6379 27.5802C32.6697 27.6041 32.6963 27.6341 32.7162 27.6685C32.7361 27.7028 32.7488 27.7409 32.7536 27.7803C32.7584 27.8197 32.7551 27.8597 32.7441 27.8979C32.733 27.936 32.7143 27.9715 32.6892 28.0023C32.664 28.033 32.6329 28.0584 32.5977 28.0768L30.4115 29.3413C30.3499 29.3768 30.2775 29.3889 30.2077 29.3752C30.138 29.3615 30.0755 29.3231 30.0318 29.267C29.9882 29.2108 29.9663 29.1408 29.9703 29.0698C29.9743 28.9988 30.0038 28.9316 30.0534 28.8807L30.3479 28.578L28.9167 29.4025C28.8722 29.4286 28.8216 29.4422 28.77 29.442Z" fill="#DBB16E"/>
<path d="M32.557 28.3577C32.4968 28.3576 32.4381 28.3391 32.3888 28.3046C32.3395 28.2701 32.302 28.2214 32.2812 28.165C32.2604 28.1085 32.2574 28.0471 32.2726 27.9889C32.2878 27.9307 32.3204 27.8785 32.3661 27.8394L34.0229 26.4259L31.9833 27.6038C31.9181 27.6406 31.8414 27.6512 31.7687 27.6334C31.696 27.6157 31.6327 27.5709 31.5919 27.5082C31.551 27.4455 31.5355 27.3696 31.5486 27.2959C31.5617 27.2222 31.6023 27.1562 31.6623 27.1115L34.6719 24.9181L31.2618 26.8871C31.1961 26.9248 31.1183 26.9357 31.0447 26.9176C30.9711 26.8994 30.9074 26.8536 30.8667 26.7896C30.8261 26.7257 30.8116 26.6485 30.8264 26.5742C30.8412 26.4998 30.8841 26.4341 30.9461 26.3906L34.6566 23.8115L30.5503 26.1815C30.4839 26.2186 30.4058 26.2285 30.3322 26.2093C30.2586 26.1901 30.1953 26.1431 30.1556 26.0782C30.1159 26.0134 30.1028 25.9357 30.119 25.8614C30.1353 25.7871 30.1797 25.722 30.2429 25.6797L30.4602 25.5389L30.1068 25.7421C30.0415 25.7796 29.9642 25.7906 29.891 25.7729C29.8178 25.7552 29.7541 25.7101 29.7131 25.6468C29.6721 25.5836 29.657 25.507 29.6707 25.433C29.6845 25.3589 29.7261 25.2929 29.787 25.2485L34.4322 21.8944L30.5003 24.1642C30.4351 24.2019 30.3579 24.2132 30.2846 24.1957C30.2114 24.1782 30.1476 24.1333 30.1064 24.0703C30.0652 24.0072 30.0498 23.9308 30.0632 23.8567C30.0767 23.7826 30.118 23.7164 30.1787 23.6719L33.9781 20.8837L33.5111 21.1528C33.446 21.1893 33.3695 21.1997 33.297 21.182C33.2245 21.1642 33.1615 21.1196 33.1206 21.0571C33.0798 20.9947 33.0642 20.919 33.077 20.8455C33.0898 20.772 33.13 20.7061 33.1895 20.6611L34.9193 19.3877C34.8988 19.3708 34.881 19.3509 34.8663 19.3288C34.8233 19.2702 34.8035 19.1978 34.8107 19.1255C34.8179 19.0532 34.8515 18.9861 34.9052 18.9371L36.7051 17.2998C36.6973 17.2419 36.7069 17.1829 36.7327 17.1305C36.7585 17.0781 36.7993 17.0345 36.85 17.0053L37.3606 16.7108C37.4233 16.6759 37.4966 16.665 37.5667 16.6803C37.6368 16.6956 37.6989 16.736 37.7414 16.7938C37.7838 16.8517 37.8037 16.9231 37.7972 16.9946C37.7908 17.066 37.7585 17.1327 37.7063 17.182L37.3217 17.5354L37.87 17.2185C37.9353 17.1808 38.0124 17.1696 38.0857 17.1871C38.159 17.2045 38.2227 17.2494 38.2639 17.3125C38.3051 17.3755 38.3206 17.452 38.3071 17.5261C38.2937 17.6002 38.2523 17.6663 38.1916 17.7109L37.8294 17.9777L38.3383 17.6832C38.4034 17.6467 38.4799 17.6363 38.5524 17.6541C38.6248 17.6719 38.6879 17.7165 38.7287 17.779C38.7696 17.8414 38.7852 17.917 38.7724 17.9906C38.7596 18.0641 38.7194 18.13 38.6599 18.175L34.8616 20.9661L39.1487 18.4925C39.2141 18.455 39.2913 18.4439 39.3645 18.4617C39.4378 18.4794 39.5014 18.5245 39.5424 18.5877C39.5834 18.651 39.5986 18.7275 39.5848 18.8016C39.5711 18.8757 39.5294 18.9417 39.4685 18.986L34.8215 22.3432L40.0086 19.3488C40.0751 19.3102 40.154 19.2991 40.2286 19.3178C40.3031 19.3366 40.3674 19.3838 40.4076 19.4493C40.4478 19.5149 40.4608 19.5935 40.4438 19.6685C40.4268 19.7435 40.3812 19.8089 40.3166 19.8506L40.0987 19.992L40.4521 19.7882C40.5178 19.7515 40.595 19.7413 40.668 19.7598C40.7409 19.7783 40.8041 19.8239 40.8444 19.8875C40.8847 19.951 40.8992 20.0276 40.8848 20.1014C40.8705 20.1753 40.8284 20.2409 40.7672 20.2847L37.052 22.8626L39.1723 21.6376C39.2374 21.6008 39.3142 21.5902 39.3869 21.608C39.4596 21.6257 39.5228 21.6705 39.5637 21.7332C39.6046 21.7959 39.62 21.8718 39.6069 21.9455C39.5939 22.0192 39.5532 22.0851 39.4932 22.1299L36.486 24.3215L36.5095 24.3085C36.573 24.2731 36.6474 24.2624 36.7183 24.2784C36.7892 24.2945 36.8516 24.3363 36.8936 24.3957C36.9356 24.455 36.9541 24.5278 36.9456 24.6C36.9371 24.6723 36.9022 24.7388 36.8476 24.7868L34.2167 27.0319C34.2309 27.0473 34.2434 27.0643 34.2538 27.0826C34.2926 27.1502 34.3031 27.2304 34.2829 27.3057C34.2627 27.381 34.2135 27.4452 34.146 27.4843L32.7013 28.3182C32.6574 28.3438 32.6077 28.3574 32.557 28.3577Z" fill="#FDE05E"/>
<path d="M12.4008 34.7009C12.3441 34.7011 12.2886 34.6847 12.2412 34.6538C12.1955 34.6242 12.1588 34.5826 12.1354 34.5336C12.1119 34.4845 12.1024 34.4299 12.1081 34.3758L12.1805 33.6731L11.7859 33.901C11.73 33.9331 11.6652 33.9459 11.6013 33.9376C11.5374 33.9293 11.478 33.9002 11.4323 33.8549C11.3865 33.8096 11.3568 33.7505 11.3478 33.6867C11.3388 33.6229 11.351 33.5579 11.3825 33.5017L11.7482 32.8539L11.1074 33.2231C11.0502 33.257 10.9831 33.2703 10.9173 33.2608C10.8515 33.2512 10.791 33.2195 10.7458 33.1707C10.7002 33.1224 10.6724 33.0601 10.6667 32.9939C10.661 32.9277 10.6779 32.8615 10.7146 32.8062L11.3624 31.819L10.3129 32.4263C10.2524 32.4613 10.1815 32.4737 10.1127 32.4613C10.044 32.4488 9.98188 32.4123 9.93756 32.3583C9.89323 32.3043 9.86957 32.2362 9.87078 32.1664C9.872 32.0965 9.89802 32.0293 9.9442 31.9769L10.2245 31.6588L9.79401 31.9068C9.74008 31.9379 9.67766 31.9512 9.61574 31.9446C9.55381 31.938 9.49556 31.912 9.44936 31.8702C9.40316 31.8285 9.37138 31.7732 9.3586 31.7122C9.34581 31.6513 9.35267 31.5878 9.3782 31.531L9.53251 31.1877L9.24215 31.3561C9.20665 31.3761 9.16744 31.3886 9.12692 31.3929C9.08639 31.3971 9.04543 31.393 9.00656 31.3808C8.96784 31.3683 8.93214 31.3478 8.90173 31.3207C8.87132 31.2937 8.84685 31.2606 8.82987 31.2236L8.6732 30.8849C8.60435 30.9024 8.53151 30.8943 8.46811 30.8623C8.40472 30.8303 8.35503 30.7764 8.3282 30.7107C8.30138 30.6449 8.29923 30.5717 8.32215 30.5044C8.34507 30.4372 8.39151 30.3805 8.45293 30.3449L8.66319 30.2235C8.69843 30.2029 8.73762 30.1899 8.77822 30.1854C8.81881 30.181 8.85989 30.1851 8.89878 30.1976C8.9375 30.2102 8.97319 30.2306 9.0036 30.2577C9.03402 30.2848 9.05849 30.3179 9.07547 30.3549L9.22742 30.6841L10.0249 30.2247C10.0788 30.1936 10.1412 30.1803 10.2032 30.1869C10.2651 30.1935 10.3233 30.2195 10.3695 30.2613C10.4157 30.303 10.4475 30.3583 10.4603 30.4193C10.4731 30.4802 10.4662 30.5437 10.4407 30.6005L10.287 30.9432L11.4779 30.2542C11.5383 30.2191 11.6093 30.2067 11.678 30.2192C11.7468 30.2316 11.8089 30.2681 11.8532 30.3221C11.8975 30.3762 11.9212 30.4442 11.92 30.5141C11.9188 30.5839 11.8927 30.6511 11.8466 30.7035L11.5668 31.0216L12.1493 30.6853C12.2067 30.6523 12.2736 30.6396 12.3391 30.6493C12.4046 30.659 12.4649 30.6905 12.5103 30.7387C12.5557 30.7869 12.5836 30.849 12.5893 30.915C12.5951 30.9809 12.5785 31.0469 12.5421 31.1023L11.8943 32.0894L12.3884 31.8037C12.4443 31.7717 12.5092 31.7588 12.573 31.7672C12.6369 31.7755 12.6963 31.8046 12.7421 31.8499C12.7879 31.8952 12.8175 31.9543 12.8265 32.0181C12.8355 32.0819 12.8233 32.1468 12.7919 32.2031L12.4232 32.8568C12.4674 32.8393 12.5152 32.8325 12.5625 32.8369C12.6099 32.8413 12.6556 32.8568 12.6959 32.8821C12.7415 32.9117 12.778 32.9534 12.8014 33.0024C12.8247 33.0515 12.8341 33.1061 12.8284 33.1601L12.7277 34.1084C12.7512 34.1291 12.7711 34.1536 12.7866 34.1808C12.8259 34.2481 12.8369 34.3282 12.8172 34.4036C12.7976 34.479 12.7489 34.5435 12.6817 34.5831L12.551 34.6608C12.5055 34.6875 12.4536 34.7014 12.4008 34.7009Z" fill="#B0CCDD"/>
<path d="M8.12894 27.9089C8.12894 28.6563 7.94519 29.6905 8.17842 30.4415C8.16558 30.4666 8.15819 30.4941 8.15673 30.5223C8.15528 30.5504 8.15978 30.5786 8.16996 30.6049C8.18013 30.6312 8.19575 30.655 8.21578 30.6749C8.23581 30.6947 8.25981 30.7101 8.2862 30.72C9.00887 32.1194 10.9572 33.808 12.2134 34.599C12.2023 34.814 12.4161 34.8487 12.6086 34.7704C18.4294 35.1461 24.5058 34.7863 30.3773 34.907C34.6997 35.7269 33.6266 30.9303 33.4682 28.1669C36.4643 25.1042 39.6111 22.1299 42.5472 19.026C43.3352 17.119 40.368 13.9933 38.5221 15.3155C36.6724 16.7486 34.9772 18.3708 33.4641 20.1557C33.4376 14.2872 33.51 8.41575 33.4641 2.54549C33.8345 -0.398773 31.1936 -0.0571701 29.101 0.0983179C22.6441 0.187252 16.1342 -0.0359672 9.70032 0.0977289C7.33207 0.599531 8.12894 4.05502 8.12894 5.83783V27.9089ZM9.06246 30.7442C12.2429 30.5946 12.3913 30.6818 12.2134 33.8799C11.0101 33.0005 9.94763 31.9432 9.06246 30.7442ZM29.5097 31.3555C28.0821 31.4403 26.4712 31.4203 25.0394 31.3555C23.8156 31.034 24.08 29.8495 24.08 28.9885C23.4775 24.1395 25.0872 24.7255 29.0668 24.8421C28.1274 26.4877 27.0184 30.4998 30.4803 29.5309C30.5057 30.3089 30.5039 31.1441 29.5097 31.3555ZM30.948 28.7334C28.1863 29.2924 28.6987 27.2681 29.5221 25.4658L30.7448 26.6909C31.2601 27.2251 31.8344 27.7675 32.3633 28.31C31.913 28.5149 31.4368 28.6574 30.948 28.7334ZM33.1678 27.7758C33.05 27.8088 32.9799 27.9266 32.8828 27.9955L31.5158 26.632L39.1282 19.0166L40.4728 20.3612C37.9821 22.8008 35.6026 25.2774 33.1678 27.7758ZM38.564 16.0735C39.8726 14.9545 42.3552 17.3375 42.076 18.7581L40.9269 19.9071L37.7235 16.7037C37.9813 16.4654 38.2629 16.2542 38.564 16.0735ZM37.26 17.1496L38.7189 18.6091L31.1064 26.2197L29.8213 24.9346C30.7354 23.6051 31.8309 22.4099 33.0759 21.3837C33.1636 21.3694 33.2454 21.3304 33.3116 21.2712C33.3779 21.2121 33.4259 21.1352 33.4499 21.0497C34.8179 19.8491 36.0917 18.5452 37.26 17.1496ZM9.61315 0.747952C15.0546 0.6172 20.6269 0.83453 26.1108 0.747952C28.3253 0.901084 33.0989 -0.558384 32.8657 3.02668V20.8189C31.7625 22.0675 30.6924 23.16 29.5221 24.2879C23.1023 24.2013 23.2107 23.5605 23.4027 30.2159C23.4875 32.5405 26.2674 31.9209 27.9065 31.9209C29.8873 32.1524 31.4769 31.7666 31.1583 29.3825C31.7447 29.2689 32.3043 29.045 32.8074 28.7228C32.8312 28.7342 32.8575 28.7397 32.8839 28.7387C33.1484 32.2726 33.7957 35.0254 29.1734 34.258C23.7661 34.1649 18.2616 34.3999 12.8914 34.258C13.061 30.1287 12.8872 30.0174 8.78682 30.177C8.60189 23.0617 8.80037 15.8921 8.72793 8.75735C8.72734 7.20718 7.73492 1.49771 9.61315 0.747952Z" fill="#262626"/>
<path d="M23.7254 20.7505C24.911 22.0504 27.9189 21.1221 29.6151 21.3848C31.7784 21.0356 31.0793 17.8098 31.0793 16.2573C31.0793 15.4669 31.2254 14.4903 30.531 13.9332C29.9379 13.4555 28.959 13.6216 28.2534 13.6216C26.698 13.6216 23.6842 12.9578 23.4698 15.1971C23.5488 16.9882 23.1253 19.0531 23.7254 20.7505ZM24.9034 14.3166C25.6388 14.2259 26.3825 14.2259 27.1179 14.3166C29.9821 13.9874 30.9062 14.3455 30.5375 17.3898C30.5375 18.2362 30.9627 20.4766 29.6458 20.6881C26.6355 20.5114 23.2708 21.866 24.0117 17.3309C24.0123 16.3839 23.6236 14.6871 24.904 14.3166H24.9034ZM23.6671 9.98296C24.6778 11.5308 27.9595 10.513 29.6522 10.7881C31.7678 10.4471 31.0734 7.23365 31.0734 5.71293C31.0734 4.9514 31.2095 4.05498 30.6264 3.46189C30.0133 2.83758 29.0132 3.01427 28.2175 3.01427C26.6779 3.01427 23.6459 2.35109 23.4769 4.58152C23.5446 6.34136 23.1965 8.28673 23.6671 9.98296ZM24.9405 3.72104C25.7235 3.63593 26.5134 3.63593 27.2964 3.72104C30.1152 3.4507 31.0316 3.926 30.5445 6.91796C30.5445 7.80436 30.9568 9.86576 29.6098 10.0831C26.5166 9.72971 23.2054 11.6474 24.0058 6.88616C24.0058 5.91495 23.5847 4.05557 24.9405 3.72104Z" fill="#262626"/>
<path d="M26.3977 18.7987C27.1816 19.4307 28.1599 16.954 28.766 16.4752C28.9898 16.1766 28.3437 15.8992 28.1405 16.1701L26.6174 18.2009C26.4407 17.8098 25.4872 17.7032 25.8087 18.2097L26.3977 18.7987ZM26.502 8.35685C26.5289 8.38265 26.5615 8.40183 26.5971 8.41286C26.6327 8.4239 26.6704 8.42649 26.7072 8.42043C26.744 8.41437 26.7789 8.39983 26.8091 8.37796C26.8393 8.35609 26.864 8.32749 26.8813 8.29442L28.6482 5.93854C28.869 5.64406 28.5357 5.13931 28.2583 5.5086L26.681 7.61181L26.2817 7.21307C25.9925 6.92389 25.6768 7.53171 25.913 7.76788L26.502 8.35685ZM18.386 4.85307H20.7418C21.0858 4.85307 21.2919 4.23819 20.8514 4.23819H18.4955C18.1516 4.23819 17.9454 4.85307 18.386 4.85307ZM11.263 4.86014C11.8519 4.71231 17.4283 5.33132 16.195 4.23112C15.606 4.37895 10.0297 3.75995 11.263 4.86014ZM11.409 7.17126C12.0651 6.96689 23.0659 7.71017 20.7607 6.63176C20.1046 6.83613 9.1038 6.09285 11.409 7.17126ZM18.5338 8.95937C17.8859 9.13606 9.691 8.44343 11.2795 9.55541C11.9273 9.37518 20.1228 10.0713 18.5338 8.95937ZM18.469 15.494C18.9861 15.4157 22.1041 15.8474 20.766 14.8002C20.2512 14.8785 17.1332 14.445 18.469 15.494ZM11.4055 15.4174C11.8767 15.2908 17.8806 15.825 16.0531 14.8768C15.5836 15.0034 9.57733 14.4686 11.4055 15.4174ZM11.3619 17.768C12.0298 17.5695 22.9381 18.2922 20.8078 17.2379C20.1399 17.4364 9.2316 16.7137 11.3619 17.768ZM11.333 20.2046C12.0451 19.9867 20.1853 20.8183 18.4808 19.5131C17.7687 19.731 9.62857 18.8994 11.333 20.2046ZM20.8785 25.47H18.5226C18.1604 25.47 17.8971 26.0271 18.3589 26.0271H20.7147C21.077 26.0271 21.3402 25.47 20.8785 25.47ZM15.9771 26.043C17.9996 25.0023 11.9998 25.6019 11.4809 25.4541C9.45836 26.4959 15.4582 25.8964 15.9771 26.043ZM20.7825 27.7569C20.0168 28.0102 9.19096 27.0826 11.3872 28.4519C12.1547 28.1987 22.9787 29.1263 20.7825 27.7569ZM18.5079 30.1552C18.0308 30.2506 13.5181 29.7853 14.8398 30.7654C15.3192 30.67 19.8295 31.1353 18.5079 30.1552Z" fill="#262626"/>
</svg>
