<svg width="149" height="86" viewBox="0 0 149 86" fill="none" xmlns="http://www.w3.org/2000/svg">
<path d="M103.766 43.7078C103.947 43.6037 104.063 43.468 104.097 43.3217C104.131 43.1755 104.08 43.027 103.952 42.8991C103.825 42.7713 103.628 42.6714 103.392 42.6149C103.156 42.5583 102.894 42.5484 102.647 42.5866L22.1236 55.0441C21.8374 55.0919 21.594 55.2016 21.444 55.3503C21.2941 55.499 21.249 55.6753 21.3182 55.8427C21.3874 56.0101 21.5656 56.1556 21.8157 56.2492C22.0659 56.3428 22.3688 56.3771 22.6617 56.3452L55.3786 52.3613L16.3135 58.4077C16.0199 58.4532 15.769 58.5635 15.6148 58.7147C15.4605 58.866 15.4153 59.0461 15.4889 59.2164C15.5624 59.3867 15.7488 59.5335 16.0079 59.6252C16.2671 59.717 16.5782 59.7463 16.8745 59.707L32.6465 57.6284L14.6042 60.4191C14.3153 60.4663 14.0693 60.5764 13.918 60.7261C13.7667 60.8759 13.722 61.0537 13.7931 61.2222C13.8643 61.3906 14.0459 61.5365 14.2997 61.6292C14.5534 61.722 14.8596 61.7542 15.1538 61.7193L47.4393 57.8537L15.2325 62.8367C14.9425 62.8839 14.6958 62.9944 14.5443 63.1447C14.3929 63.2951 14.3488 63.4735 14.4213 63.6423C14.4937 63.8111 14.6771 63.957 14.9326 64.0492C15.1881 64.1413 15.4957 64.1724 15.7902 64.136L25.8669 62.8206L17.0336 64.1871C16.7429 64.2332 16.4947 64.3428 16.3416 64.4927C16.1885 64.6426 16.1424 64.821 16.2132 64.9901C16.284 65.1593 16.4661 65.3059 16.7209 65.3989C16.9757 65.4918 17.2832 65.5239 17.5782 65.4883L34.3804 63.4116L19.6369 65.6957C19.35 65.7437 19.1064 65.8538 18.9567 66.003C18.8069 66.1522 18.7627 66.329 18.833 66.4966C18.9034 66.6641 19.0831 66.8095 19.3346 66.9026C19.5861 66.9956 19.89 67.029 20.1831 66.9959L28.6473 65.9296L21.8661 66.9788C21.5717 67.0232 21.3193 67.1325 21.1633 67.2833C21.0073 67.4341 20.9601 67.6142 21.032 67.7849C21.1038 67.9556 21.289 68.1031 21.5475 68.1957C21.806 68.2883 22.1172 68.3186 22.414 68.28L23.6443 68.1247C23.3799 68.1895 23.1666 68.3087 23.0457 68.4591C22.9249 68.6096 22.9049 68.7805 22.9899 68.9389C23.0748 69.0973 23.2585 69.2319 23.5055 69.3166C23.7524 69.4013 24.045 69.4301 24.3266 69.3974L32.2693 68.4807L26.1163 69.4324C25.8296 69.4785 25.5845 69.5864 25.4318 69.7338C25.279 69.8812 25.2303 70.0569 25.2956 70.2245C25.3609 70.3921 25.5353 70.5388 25.7827 70.6343C26.0301 70.7297 26.3316 70.7666 26.6248 70.7374L35.1973 69.834L28.585 70.8576C28.2985 70.9024 28.0527 71.0089 27.898 71.1551C27.7434 71.3014 27.6918 71.4763 27.7538 71.6439C27.8158 71.8114 27.9867 71.9589 28.2314 72.0559C28.476 72.1529 28.7757 72.1921 29.0689 72.1654L36.6621 71.4618L31.1226 72.3207C30.8347 72.3649 30.5873 72.4714 30.4316 72.6181C30.276 72.7648 30.2242 72.9405 30.2868 73.1086C30.3495 73.2768 30.5218 73.4246 30.7681 73.5214C31.0145 73.6182 31.3158 73.6565 31.6098 73.6285L32.8253 73.512C32.6162 73.5803 32.4482 73.6838 32.3438 73.8087C32.2395 73.9336 32.2037 74.0739 32.2414 74.2109C32.2889 74.3752 32.4407 74.5234 32.6673 74.6265C32.8939 74.7296 33.1789 74.7803 33.4667 74.7687L38.6191 74.5575L35.7698 74.9959C35.5092 75.0373 35.2818 75.1299 35.1269 75.2577C34.9719 75.3855 34.8992 75.5406 34.9211 75.6961C34.9431 75.8516 35.0584 75.9977 35.2472 76.1094C35.436 76.221 35.6864 76.2911 35.9551 76.3075L39.5967 76.5158C39.4343 76.5969 39.3155 76.7031 39.2544 76.822C39.1934 76.9408 39.1926 77.0672 39.2523 77.1863C39.3319 77.3574 39.5258 77.5033 39.7914 77.5921C40.0571 77.6808 40.3728 77.7052 40.6695 77.6598L45.9695 76.8407C46.2311 76.7998 46.4596 76.7075 46.6156 76.5795C46.7715 76.4516 46.8449 76.2962 46.823 76.1403C46.8012 75.9844 46.6855 75.8378 46.4961 75.726C46.3066 75.6142 46.0553 75.5442 45.7858 75.5281L42.5051 75.3387L50.8972 74.0395C51.1765 73.9969 51.4183 73.8957 51.5752 73.7556C51.7321 73.6156 51.7928 73.4467 51.7454 73.2822C51.698 73.1176 51.5459 72.9692 51.3189 72.866C51.092 72.7628 50.8064 72.7122 50.5182 72.7241L45.3659 72.9353L55.5476 71.3643C55.8355 71.3201 56.083 71.2136 56.2386 71.0669C56.3942 70.9202 56.446 70.7445 56.3834 70.5764C56.3207 70.4082 56.1484 70.2604 55.9021 70.1636C55.6558 70.0668 55.3544 70.0285 55.0604 70.0565L54.1615 70.1417L58.9546 69.3993C59.2411 69.3545 59.4869 69.2481 59.6415 69.1018C59.7962 68.9555 59.8478 68.7806 59.7858 68.6131C59.7238 68.4455 59.5529 68.298 59.3082 68.201C59.0636 68.104 58.7639 68.0648 58.4707 68.0915L50.8955 68.7923L63.3557 66.8642C63.6457 66.82 63.8948 66.7126 64.0506 66.5646C64.2064 66.4165 64.2567 66.2394 64.1911 66.0704C64.1255 65.9014 63.9491 65.7537 63.6988 65.6582C63.4485 65.5627 63.1438 65.5269 62.8488 65.5584L54.2714 66.4627L67.6468 64.3907C67.9312 64.3425 68.1727 64.2333 68.322 64.0855C68.4713 63.9378 68.5169 63.7626 68.4495 63.596C68.3822 63.4294 68.2069 63.284 67.9597 63.1897C67.7125 63.0953 67.4122 63.0592 67.1203 63.0886L59.1596 64.0063L71.6723 62.0706C71.9591 62.0226 72.2027 61.9125 72.3525 61.7633C72.5022 61.6141 72.5465 61.4373 72.4761 61.2697C72.4057 61.1022 72.2261 60.9568 71.9746 60.8637C71.7231 60.7707 71.4191 60.7373 71.126 60.7704L70.1664 60.8907L75.0252 60.1388C75.3076 60.0887 75.5462 59.9783 75.6923 59.83C75.8385 59.6818 75.8812 59.507 75.8117 59.3413C75.7422 59.1755 75.5658 59.0313 75.3184 58.938C75.0711 58.8448 74.7714 58.8096 74.4806 58.8395L65.9835 59.8983L78.9177 57.8954C79.2084 57.8493 79.4566 57.7398 79.6098 57.5899C79.7629 57.44 79.8089 57.2616 79.7381 57.0924C79.6673 56.9233 79.4853 56.7767 79.2305 56.6837C78.9757 56.5907 78.6682 56.5586 78.3731 56.5943L61.5611 58.671L83.4451 55.2855C83.7351 55.2384 83.9819 55.1279 84.1333 54.9776C84.2847 54.8272 84.3288 54.6488 84.2564 54.48C84.1839 54.3111 84.0005 54.1652 83.745 54.0731C83.4895 53.981 83.182 53.9498 82.8874 53.9863L72.8189 55.3007L87.3082 53.0592C87.604 53.0163 87.8586 52.908 88.0171 52.7575C88.1755 52.6071 88.2249 52.4267 88.1546 52.2553C88.0843 52.084 87.8999 51.9356 87.6414 51.8421C87.3829 51.7487 87.0711 51.7178 86.7734 51.7561L54.5207 55.6236L93.2479 49.6378C93.5466 49.5949 93.8035 49.4854 93.9623 49.3332C94.121 49.181 94.1685 48.9986 94.0943 48.8262C94.0201 48.6538 93.8304 48.5054 93.5667 48.4138C93.3031 48.3222 92.9872 48.2947 92.6885 48.3376L76.905 50.4171L97.3914 47.2495C97.6842 47.2048 97.9351 47.0957 98.0904 46.9456C98.2458 46.7956 98.2933 46.6163 98.2228 46.4463C98.1523 46.2763 97.9695 46.1289 97.7133 46.0357C97.4571 45.9424 97.1479 45.9108 96.8518 45.9474L64.1184 49.9294L103.243 43.8773C103.44 43.849 103.621 43.7904 103.766 43.7078Z" fill="#50A8FF"/>
<path d="M120.11 45.5093C120.275 45.4152 120.386 45.2949 120.431 45.1639C120.476 45.0329 120.452 44.8972 120.362 44.7741C120.273 44.651 120.121 44.5462 119.928 44.4732C119.734 44.4002 119.507 44.3623 119.275 44.3644L117.117 44.3814L120.886 43.7981C121.164 43.7552 121.403 43.6545 121.56 43.5154C121.716 43.3763 121.777 43.2087 121.731 43.0451C121.686 42.8815 121.537 42.7334 121.313 42.6295C121.09 42.5256 120.807 42.4733 120.52 42.4827L116.408 42.6143L121.163 41.8766C121.45 41.8275 121.693 41.7161 121.841 41.5659C121.99 41.4157 122.031 41.2383 121.958 41.0707C121.885 40.9032 121.702 40.7585 121.448 40.6669C121.194 40.5753 120.889 40.5439 120.596 40.5793L108.803 42.209L121.373 40.2649C121.664 40.2188 121.912 40.1092 122.065 39.9594C122.219 39.8095 122.265 39.631 122.194 39.4619C122.123 39.2927 121.941 39.1461 121.686 39.0532C121.431 38.9602 121.124 38.9281 120.829 38.9637L76.0947 44.5234L121.726 37.4666C122.02 37.4211 122.271 37.3108 122.425 37.1596C122.579 37.0083 122.624 36.8282 122.551 36.6579C122.477 36.4876 122.291 36.3408 122.032 36.249C121.773 36.1573 121.461 36.1279 121.165 36.1673L99.742 39.0234L121.977 35.5811C122.267 35.5351 122.514 35.4259 122.668 35.2766C122.821 35.1272 122.867 34.9494 122.798 34.7806C122.728 34.6118 122.548 34.4651 122.295 34.3715C122.042 34.278 121.735 34.2448 121.441 34.279L82.1508 39.0215L122.33 32.8018C122.621 32.7548 122.869 32.644 123.021 32.493C123.173 32.342 123.216 32.1627 123.143 31.9934C123.069 31.8241 122.883 31.6781 122.626 31.5866C122.368 31.4951 122.059 31.4652 121.764 31.5034L120.471 31.6815L122.518 31.3652C122.807 31.317 123.052 31.2061 123.201 31.0558C123.351 30.9055 123.394 30.7276 123.321 30.5595C123.248 30.3914 123.065 30.2461 122.81 30.1542C122.556 30.0623 122.249 30.031 121.956 30.0669L116.579 30.7904L122.719 29.8406C123.005 29.7925 123.249 29.6824 123.399 29.5332C123.548 29.384 123.593 29.2072 123.522 29.0397C123.452 28.8721 123.272 28.7267 123.021 28.6337C122.769 28.5407 122.465 28.5072 122.172 28.5404L102.826 30.9968L122.978 27.8822C123.272 27.839 123.525 27.7309 123.683 27.5811C123.84 27.4314 123.89 27.2519 123.821 27.0813C123.752 26.9106 123.57 26.7624 123.314 26.6683C123.058 26.5743 122.748 26.5419 122.451 26.5782L93.7925 29.8784L123.304 25.3093C123.588 25.2595 123.829 25.1485 123.976 24.9994C124.123 24.8503 124.165 24.6743 124.093 24.5078C124.022 24.3412 123.843 24.1968 123.592 24.1044C123.342 24.012 123.04 23.9785 122.748 24.011L122.176 24.0858L123.489 23.8822C123.776 23.8358 124.021 23.7274 124.174 23.5796C124.326 23.4317 124.374 23.2557 124.307 23.088C124.241 22.9204 124.065 22.7739 123.817 22.679C123.568 22.584 123.266 22.5479 122.973 22.5782L98.6791 25.2392L123.819 21.3509C124.118 21.3087 124.376 21.1997 124.535 21.0479C124.695 20.896 124.744 20.7138 124.671 20.5412C124.597 20.3687 124.409 20.22 124.146 20.1278C123.883 20.0356 123.567 20.0076 123.268 20.0497L122.01 20.2079L124.008 19.9011C124.298 19.8568 124.547 19.7494 124.703 19.6014C124.859 19.4534 124.909 19.2763 124.843 19.1073C124.778 18.9383 124.601 18.7905 124.351 18.695C124.101 18.5995 123.796 18.5638 123.501 18.5952L99.6124 21.0924L123.585 17.3821C123.884 17.3419 124.144 17.2346 124.307 17.0839C124.47 16.9331 124.522 16.7512 124.452 16.5781C124.383 16.4051 124.197 16.2551 123.936 16.1611C123.675 16.0672 123.359 16.037 123.06 16.0772L105.549 18.116L121.369 15.669C121.659 15.6243 121.909 15.516 122.064 15.3671C122.219 15.2181 122.268 15.0402 122.2 14.8708C122.132 14.7015 121.953 14.554 121.7 14.4596C121.447 14.3652 121.141 14.3313 120.845 14.365L100.521 16.6605L111.072 15.0279C111.363 14.983 111.612 14.8745 111.767 14.7253C111.922 14.5762 111.971 14.398 111.902 14.2287C111.833 14.0589 111.653 13.9113 111.398 13.8172C111.144 13.7231 110.836 13.69 110.541 13.7249L96.9977 15.3044C97.0834 15.1962 97.1176 15.0768 97.0968 14.9584C97.076 14.84 97.0009 14.7269 96.8793 14.6309C96.7576 14.5348 96.5938 14.4592 96.4048 14.4118C96.2157 14.3644 96.0082 14.347 95.8035 14.3612L77.5234 15.6529C77.4269 15.4935 77.2296 15.361 76.9711 15.2819C76.7125 15.2029 76.4118 15.1832 76.1291 15.2268L69.7809 16.2079C69.5 16.2529 69.2587 16.3575 69.1052 16.5006C68.9518 16.6438 68.8973 16.815 68.9528 16.9803C69.0082 17.1456 69.1695 17.2927 69.4044 17.3925C69.6393 17.4922 69.9307 17.5372 70.2205 17.5185L79.6624 16.8518L67.2039 18.7789C66.9044 18.8195 66.645 18.9271 66.4829 19.078C66.3208 19.229 66.2692 19.4109 66.3394 19.5838C66.4097 19.7568 66.5961 19.9065 66.8576 20.0001C67.119 20.0937 67.4342 20.1234 67.7337 20.0829L74.6511 19.277L67.3073 20.4124C67.0163 20.4571 66.7668 20.5654 66.6116 20.7144C66.4564 20.8633 66.4077 21.0413 66.4756 21.2106C66.5436 21.38 66.7229 21.5274 66.9758 21.6218C67.2286 21.7162 67.5351 21.7501 67.8305 21.7164L88.166 19.4181L69.238 22.3528C68.9488 22.3987 68.7016 22.5075 68.5483 22.6563C68.3951 22.8051 68.3476 22.9825 68.416 23.151C68.4843 23.3196 68.6631 23.4664 68.9148 23.5605C69.1666 23.6546 69.4717 23.6888 69.7662 23.6558L87.2753 21.6123L71.9938 23.9759C71.7037 24.0202 71.4546 24.1276 71.2989 24.2756C71.1431 24.4236 71.0927 24.6007 71.1583 24.7697C71.2239 24.9387 71.4004 25.0865 71.6507 25.182C71.901 25.2774 72.2056 25.3132 72.5006 25.2818L96.3908 22.7856L71.2572 26.6795C70.9683 26.7267 70.7222 26.8368 70.571 26.9866C70.4197 27.1363 70.3749 27.3142 70.4461 27.4826C70.5173 27.651 70.6989 27.797 70.9527 27.8897C71.2064 27.9824 71.5126 28.0147 71.8068 27.9797L73.0469 27.8206L67.8978 28.619C67.615 28.6673 67.3747 28.776 67.2258 28.9229C67.0769 29.0698 67.0305 29.244 67.0961 29.41C67.1617 29.576 67.3344 29.7213 67.579 29.8164C67.8236 29.9115 68.1218 29.9493 68.4129 29.922L92.7082 27.26L62.0302 32.0063C61.7459 32.0561 61.5055 32.167 61.3586 32.3161C61.2118 32.4653 61.1697 32.6413 61.241 32.8078C61.3123 32.9743 61.4916 33.1187 61.742 33.2111C61.9923 33.3036 62.2945 33.337 62.5863 33.3046L63.1998 33.2251L58.72 33.9173C58.4357 33.9655 58.1941 34.0747 58.0448 34.2225C57.8956 34.3703 57.8499 34.5454 57.9173 34.712C57.9847 34.8786 58.1599 35.024 58.4071 35.1183C58.6543 35.2127 58.9546 35.2488 59.2465 35.2194L87.8937 31.9201L52.7573 37.3596C52.4705 37.4076 52.2268 37.5177 52.0771 37.6669C51.9274 37.8161 51.8831 37.9929 51.9535 38.1604C52.0239 38.328 52.2035 38.4734 52.455 38.5664C52.7065 38.6595 53.0104 38.6929 53.3035 38.6598L72.6286 36.2061L48.2102 39.9846C47.9218 40.0328 47.6771 40.1437 47.5274 40.294C47.3778 40.4442 47.3349 40.6221 47.4077 40.7903C47.4806 40.9584 47.6636 41.1037 47.9181 41.1956C48.1727 41.2874 48.4791 41.3187 48.7729 41.2829L54.1942 40.5547L44.6638 42.032C44.3768 42.0811 44.1338 42.1925 43.9857 42.3427C43.8377 42.4929 43.7959 42.6703 43.8692 42.8379C43.9425 43.0054 44.1252 43.1501 44.3791 43.2417C44.6329 43.3333 44.9383 43.3647 45.2313 43.3293L46.4682 43.1607L41.3371 43.9524C41.0551 44.0022 40.8164 44.1122 40.6699 44.26C40.5233 44.4078 40.4797 44.5822 40.5481 44.7479C40.6164 44.9135 40.7915 45.0579 41.0377 45.1517C41.284 45.2455 41.5828 45.2816 41.8735 45.2526L81.1666 40.5083L34.8971 47.6703C34.6138 47.7209 34.3749 47.8321 34.2293 47.9813C34.0838 48.1304 34.0427 48.3061 34.1145 48.4721C34.1863 48.6382 34.3656 48.7821 34.6155 48.8743C34.8653 48.9664 35.1669 48.9998 35.4581 48.9676L56.8959 46.1068L30.5321 50.1902C30.2471 50.2389 30.0053 50.349 29.8568 50.4977C29.7083 50.6464 29.6644 50.8223 29.7341 50.9891C29.8037 51.156 29.9817 51.301 30.2312 51.3943C30.4808 51.4875 30.7828 51.5219 31.075 51.4904L75.8027 45.9344L24.0313 53.943C23.7475 53.9938 23.5082 54.1055 23.3629 54.2551C23.2175 54.4048 23.1772 54.5809 23.2502 54.7472C23.3232 54.9135 23.504 55.0573 23.7552 55.1489C24.0065 55.2405 24.3091 55.2729 24.6006 55.2395L104.596 44.1759C104.816 44.2738 105.089 44.3229 105.367 44.3142L109.476 44.1806L107.567 44.478C107.292 44.5195 107.054 44.6176 106.896 44.7537C106.739 44.8899 106.673 45.0546 106.712 45.2168C106.75 45.379 106.89 45.5274 107.106 45.634C107.321 45.7406 107.596 45.7979 107.88 45.7952L110.171 45.7772C109.923 45.8558 109.733 45.9841 109.637 46.138C109.541 46.2919 109.546 46.4608 109.651 46.6127C109.756 46.7647 109.953 46.8892 110.206 46.9628C110.459 47.0364 110.75 47.0539 111.024 47.0121L119.595 45.6854C119.791 45.6544 119.969 45.5935 120.11 45.5093Z" fill="#50A8FF"/>
<path d="M51.1449 73.978C49.9359 74.676 48.7483 75.3919 47.5131 76.0747C46.7196 76.5762 45.7623 76.9823 44.6961 77.2696C43.63 77.5569 42.476 77.7197 41.3004 77.7487C40.1249 77.7778 38.951 77.6724 37.8462 77.4388C36.7414 77.2051 35.7275 76.8477 34.8627 76.3872C28.2045 72.7763 21.9137 68.9117 15.4524 65.1816C15.4146 65.1598 15.4163 65.1342 15.3884 65.1124C15.3605 65.0907 15.3015 65.0926 15.2703 65.0708C13.8884 64.1854 13.1565 63.0247 13.229 61.8336C13.3016 60.6426 14.1729 59.5144 15.659 58.6872C16.407 58.2213 17.2207 57.7857 17.9982 57.3368L72.2612 26.0108C68.6705 24.0022 64.13 21.8564 66.351 18.6518C68.1538 16.0485 72.4449 15.3402 76.8067 15.1499L110.224 13.6991C113.487 13.558 117.673 13.0201 120.776 13.8118C125.553 15.041 125.522 17.6442 125.194 20.1632L122.646 39.8253C122.315 42.3878 122.354 44.9068 118.114 46.4892C116.625 47.0888 114.856 47.4139 113.041 47.4217C111.225 47.4294 109.448 47.1195 107.944 46.5327C106.246 45.7344 104.67 44.8537 103.233 43.9001L51.1383 73.9743L51.1449 73.978ZM102.537 42.6217C102.954 42.3812 104.396 41.8007 105.04 42.1728C107.939 43.8461 113.306 47.9219 117.716 45.2212C119.702 44.0043 119.358 41.5251 119.558 39.9739L121.82 22.5126C122.017 20.9823 122.837 18.8952 121.964 17.3933C120.373 14.6641 115.99 14.7815 112.025 14.9529L82.3314 16.2389C79.1725 16.2657 76.0196 16.4064 72.8911 16.6603C68.1357 17.2275 68.1013 20.6736 70.821 22.4141C72.2973 23.3592 73.959 24.2257 75.519 25.1263C75.9274 25.3621 75.7585 25.6812 75.373 25.9037L22.8701 56.2137C19.1809 58.3434 13.3281 60.8454 18.2475 64.0414L35.5746 74.0443C38.1451 75.5282 41.4766 77.5216 45.2183 75.712C46.5683 75.0576 47.7608 74.2441 49.0059 73.5254L102.537 42.6217Z" fill="#262626"/>
<path d="M84.6751 20.8268C84.9187 20.6256 85.2358 20.4577 85.6039 20.3348C85.972 20.212 86.3823 20.1372 86.8059 20.1156L107.512 19.2226L110.503 19.0929C111.218 19.0588 111.475 19.3817 111.127 19.717C110.883 19.9173 110.565 20.0842 110.197 20.2063C109.828 20.3283 109.418 20.4024 108.995 20.4234L88.2904 21.3211L85.3001 21.4509C84.5816 21.485 84.3306 21.1639 84.6751 20.8268Z" fill="#262626"/>
</svg>
