<svg width="67" height="70" viewBox="0 0 67 70" fill="none" xmlns="http://www.w3.org/2000/svg">
<path fill-rule="evenodd" clip-rule="evenodd" d="M44.153 13.5024C44.1572 13.6055 44.1264 13.7071 44.0657 13.7907L43.4197 14.6884L41.6622 17.1453L41.6657 17.1541L40.7656 18.4063C40.6522 18.0967 40.5296 17.7398 40.3953 17.3267C40.2435 16.87 40.0737 16.4205 39.9377 15.9775L40.1282 15.7189C40.1224 15.6738 40.1246 15.6283 40.1353 15.5841L40.4107 14.5206C40.3422 14.5391 40.2704 14.541 40.201 14.5264C40.1316 14.5117 40.0667 14.4809 40.0116 14.4363C39.9344 14.375 39.8785 14.291 39.8515 14.1962C39.8246 14.1014 39.828 14.0006 39.8613 13.9078L39.8774 13.8713C39.8961 13.8378 39.9172 13.8058 39.9403 13.7751L40.9818 12.446C41.0478 12.3604 41.1417 12.3006 41.2472 12.277C41.3527 12.2533 41.4631 12.2674 41.5594 12.3166C41.6563 12.3647 41.7337 12.4448 41.7785 12.5432C41.8233 12.6417 41.8329 12.7526 41.8055 12.8573L41.6022 13.6691L42.5444 12.4712C42.62 12.3736 42.7309 12.3097 42.8532 12.293C42.9755 12.2764 43.0995 12.3084 43.1984 12.3822C43.2965 12.4595 43.3608 12.5716 43.3781 12.6952C43.3954 12.8188 43.3642 12.9443 43.2911 13.0455L42.2476 14.4464L41.2045 15.8471L40.6458 16.6077L41.2183 15.882L42.3629 14.4305L43.3103 13.2203C43.3741 13.143 43.4605 13.0875 43.5573 13.0615C43.6542 13.0356 43.7567 13.0405 43.8507 13.0755L43.8595 13.072C43.8977 13.0912 43.9339 13.1143 43.9679 13.1402C44.0814 13.2267 44.1496 13.3598 44.153 13.5024Z" fill="#67D4F1"/>
<path fill-rule="evenodd" clip-rule="evenodd" d="M45.9038 16.1106C45.9079 16.2137 45.8772 16.3153 45.8167 16.399L45.1705 17.2961L43.4131 19.7535L43.4165 19.7619L42.5174 21.0141C42.4038 20.7042 42.2816 20.3472 42.1469 19.9342C41.9951 19.4775 41.8256 19.0279 41.6893 18.5854L41.88 18.3267C41.874 18.2813 41.8762 18.2359 41.8874 18.1918L42.1623 17.1282C42.0939 17.1467 42.0221 17.1488 41.9527 17.1342C41.8833 17.1196 41.8184 17.0888 41.7633 17.0442C41.6863 16.9828 41.6304 16.8988 41.6035 16.804C41.5766 16.7092 41.5801 16.6083 41.6135 16.5156L41.629 16.4788C41.6477 16.4453 41.6687 16.4132 41.6922 16.3825L42.7338 15.0534C42.7998 14.9679 42.8937 14.9081 42.9992 14.8846C43.1046 14.861 43.215 14.8751 43.3111 14.9245C43.4081 14.9726 43.4855 15.0526 43.5303 15.1511C43.5751 15.2495 43.5847 15.3605 43.5573 15.4652L43.3544 16.2768L44.2959 15.0787C44.3716 14.9811 44.4825 14.9172 44.6049 14.9006C44.7273 14.884 44.8513 14.9162 44.9502 14.9901C45.0482 15.0672 45.1126 15.1794 45.1299 15.303C45.1471 15.4266 45.1158 15.552 45.0426 15.6531L43.9992 17.0539L42.9561 18.4546L42.3975 19.2155L42.9701 18.4899L44.1151 17.0383L45.0619 15.8278C45.1258 15.7506 45.2122 15.6951 45.3091 15.6692C45.406 15.6432 45.5085 15.648 45.6026 15.6828L45.611 15.6795C45.6494 15.699 45.6855 15.7218 45.7197 15.7481C45.8328 15.8348 45.9008 15.9678 45.9039 16.1105L45.9038 16.1106ZM25.5979 41.4684C25.6019 41.5716 25.5712 41.6731 25.5107 41.7568L24.8645 42.654L23.1072 45.1114L23.1106 45.1198L22.2114 46.3719C22.0979 46.0621 21.9757 45.705 21.8411 45.2925C21.6892 44.8354 21.5197 44.3857 21.3833 43.9432L21.574 43.6846C21.5682 43.6396 21.5702 43.5937 21.5815 43.5497L21.8564 42.4861C21.788 42.5047 21.7162 42.5068 21.6468 42.4922C21.5774 42.4776 21.5125 42.4467 21.4574 42.4021C21.3803 42.3407 21.3244 42.2567 21.2975 42.1619C21.2706 42.067 21.2742 41.9662 21.3076 41.8735L21.3231 41.8367C21.3418 41.8031 21.3628 41.7712 21.3863 41.7404L22.4279 40.4113C22.4939 40.3257 22.5878 40.266 22.6932 40.2424C22.7987 40.2189 22.9091 40.233 23.0052 40.2824C23.1021 40.3305 23.1795 40.4105 23.2244 40.509C23.2692 40.6075 23.2787 40.7184 23.2514 40.8231L23.0484 41.6346L23.9899 40.4365C24.0656 40.339 24.1766 40.275 24.2989 40.2584C24.4213 40.2419 24.5453 40.274 24.6442 40.3479C24.7423 40.4251 24.8067 40.5372 24.8239 40.6608C24.8411 40.7844 24.8099 40.9098 24.7366 41.0109L23.6932 42.4117L22.6502 43.8125L22.0916 44.5734L22.6641 43.8477L23.8091 42.3961L24.7559 41.1857C24.8199 41.1084 24.9063 41.053 25.0032 41.027C25.1001 41.0011 25.2026 41.0059 25.2966 41.0408L25.305 41.0374C25.3435 41.0569 25.3796 41.0796 25.4137 41.1059C25.5268 41.1927 25.5947 41.3257 25.5979 41.4684ZM46.6516 55.2041C46.5741 55.2349 46.4898 55.2445 46.4074 55.2321C46.3249 55.2196 46.2473 55.1855 46.1824 55.1333C46.1174 55.081 46.0675 55.0124 46.0378 54.9345C46.008 54.8566 45.9994 54.7723 46.013 54.69L46.2956 52.9542L44.9112 54.7103C44.8432 54.7961 44.7474 54.8555 44.6404 54.8783C44.5334 54.9012 44.4217 54.886 44.3247 54.8355C44.2276 54.785 44.1511 54.7023 44.1084 54.6016C44.0656 54.5008 44.0593 54.3884 44.0904 54.2835L44.4478 53.1028L43.4271 54.3981C43.3497 54.4962 43.2366 54.5596 43.1126 54.5743C42.9885 54.589 42.8637 54.5538 42.7656 54.4765C42.6675 54.3992 42.6041 54.2861 42.5894 54.162C42.5746 54.038 42.6098 53.9132 42.6871 53.8151L45.2487 50.5598C45.317 50.4745 45.4127 50.4155 45.5196 50.393C45.6265 50.3705 45.7379 50.3858 45.8347 50.4363C45.9317 50.4867 46.0081 50.5692 46.0508 50.6698C46.0935 50.7704 46.0999 50.8827 46.0688 50.9874L45.7134 52.1692L46.6851 50.9349C46.7497 50.8533 46.8397 50.7954 46.9407 50.7704C47.0418 50.7453 47.1483 50.7544 47.2437 50.7963C47.339 50.8382 47.4178 50.9105 47.4676 51.0019C47.5175 51.0934 47.5357 51.1987 47.5193 51.3016L47.2371 53.0378L47.8431 52.2691C47.922 52.1765 48.0338 52.118 48.1548 52.106C48.2759 52.0939 48.397 52.1292 48.4926 52.2045C48.5882 52.2797 48.651 52.389 48.6678 52.5096C48.6846 52.6301 48.6541 52.7524 48.5827 52.8509L46.8466 55.0551C46.7964 55.1216 46.7289 55.1732 46.6516 55.2041ZM41.7973 48.037C41.6264 48.1058 41.4316 48.0689 41.298 47.9425C41.1644 47.8161 41.1163 47.6236 41.1749 47.4498L41.4075 46.7625L40.7168 47.6387C40.6159 47.7789 40.4455 47.8526 40.2742 47.8304C40.19 47.8193 40.1103 47.7858 40.0436 47.7332C39.9768 47.6807 39.9255 47.6112 39.8949 47.5319C39.8644 47.4526 39.856 47.3666 39.8705 47.2829C39.885 47.1992 39.9218 47.121 39.9772 47.0566L42.3378 44.0595C42.4065 43.9727 42.5035 43.9129 42.6118 43.8905C42.7202 43.8681 42.8329 43.8846 42.9303 43.937C43.0278 43.9894 43.1036 44.0744 43.1447 44.1771C43.1857 44.2799 43.1893 44.3938 43.1547 44.4989L42.9224 45.188L42.9667 45.1342C43.0457 45.0418 43.1574 44.9836 43.2783 44.9718C43.3993 44.9599 43.5201 44.9952 43.6156 45.0704C43.7112 45.1455 43.774 45.2545 43.791 45.3748C43.808 45.4951 43.7778 45.6173 43.7067 45.7159L41.9922 47.8901C41.9415 47.9556 41.8742 48.0064 41.7973 48.0371L41.7973 48.037ZM59.1414 40.7031C59.0623 40.7345 58.9763 40.7439 58.8923 40.7304C58.8083 40.7168 58.7296 40.6807 58.6645 40.626C58.5994 40.5713 58.5503 40.4999 58.5225 40.4196C58.4947 40.3392 58.4892 40.2528 58.5065 40.1695L58.7264 39.1157L57.5983 40.5476C57.532 40.631 57.4395 40.6894 57.3358 40.7135C57.2321 40.7376 57.1232 40.7258 57.0271 40.6801C56.9308 40.6344 56.8529 40.5575 56.8061 40.4618C56.7592 40.3661 56.7462 40.2574 56.7692 40.1534L57.131 38.5548L55.7699 40.2827C55.6988 40.3726 55.5974 40.4335 55.4846 40.4541C55.3719 40.4747 55.2555 40.4536 55.1572 40.3946C55.0589 40.3356 54.9855 40.2428 54.9508 40.1335C54.9161 40.0242 54.9225 39.906 54.9688 39.8011L55.021 39.6786L54.6737 40.1219C54.5943 40.2131 54.4829 40.2703 54.3625 40.2816C54.2421 40.2929 54.122 40.2575 54.0269 40.1827C53.9319 40.1079 53.8693 39.9995 53.852 39.8798C53.8347 39.7601 53.8641 39.6383 53.9341 39.5397L56.5878 36.1739C56.6588 36.0839 56.7601 36.0229 56.8728 36.0023C56.9855 35.9817 57.1019 36.0029 57.2001 36.0619C57.2983 36.1209 57.3717 36.2136 57.4064 36.3228C57.4411 36.432 57.4349 36.5501 57.3888 36.655L57.3361 36.7778L57.6825 36.3347C57.7488 36.251 57.8415 36.1922 57.9455 36.1679C58.0495 36.1437 58.1587 36.1554 58.2552 36.2012C58.3516 36.2472 58.4295 36.3246 58.4763 36.4207C58.523 36.5168 58.5357 36.6259 58.5124 36.7301L58.1501 38.3274L59.2259 36.9573C59.2917 36.8742 59.3836 36.8157 59.4867 36.7914C59.5898 36.767 59.6982 36.7782 59.7941 36.8231C59.8901 36.868 59.9682 36.9439 60.0158 37.0385C60.0634 37.1332 60.0777 37.2411 60.0564 37.3449L59.8338 38.4105C59.9202 38.327 60.0352 38.2796 60.1553 38.2781C60.2754 38.2765 60.3916 38.3209 60.4802 38.4021C60.6642 38.5711 60.6843 38.8537 60.5264 39.0469L59.334 40.562C59.283 40.6252 59.2169 40.6738 59.1414 40.7031Z" fill="#67D4F1"/>
<path fill-rule="evenodd" clip-rule="evenodd" d="M53.9921 45.851C53.9097 45.8836 53.8198 45.8924 53.7327 45.8762C53.6456 45.8601 53.5648 45.8197 53.4996 45.7597C53.4344 45.6997 53.3875 45.6225 53.3642 45.537C53.3409 45.4515 53.3422 45.3612 53.3679 45.2764L53.7614 43.9759L52.8564 45.1236C52.7865 45.2119 52.6872 45.2723 52.5766 45.2936C52.466 45.3149 52.3514 45.2959 52.2537 45.2399C52.1559 45.1841 52.0814 45.0951 52.0436 44.989C52.0058 44.883 52.0073 44.7669 52.0478 44.6619L52.6685 43.0788L52.0723 43.8341C51.9979 43.9264 51.8913 43.9872 51.7739 44.0044C51.6565 44.0215 51.537 43.9938 51.4392 43.9266C51.3414 43.8595 51.2725 43.7579 51.2464 43.6422C51.2202 43.5265 51.2387 43.4051 51.2981 43.3025L51.894 42.3005L51.5497 42.7421C51.4751 42.8374 51.3667 42.9003 51.2469 42.9177C51.1272 42.935 51.0053 42.9056 50.9067 42.8355C50.8081 42.7654 50.7402 42.66 50.7171 42.5413C50.694 42.4225 50.7173 42.2994 50.7824 42.1974L51.4154 41.2034L51.0404 41.6796C50.9649 41.7723 50.8571 41.8329 50.7386 41.8491C50.6201 41.8652 50.5 41.8357 50.4024 41.7666C50.3049 41.6974 50.2373 41.5938 50.2133 41.4767C50.1894 41.3595 50.2108 41.2377 50.2733 41.1358L51.5817 39.0783L50.4731 40.4861C50.3993 40.5799 50.2927 40.6421 50.1748 40.6603C50.057 40.6785 49.9366 40.6513 49.8379 40.5842C49.7392 40.5172 49.6696 40.4152 49.6432 40.2989C49.6168 40.1825 49.6356 40.0605 49.6957 39.9574L51.872 36.2311L49.4018 39.3657C49.3363 39.4472 49.2454 39.5047 49.1436 39.5289C49.0418 39.5531 48.9348 39.5427 48.8395 39.4993C48.7443 39.456 48.6661 39.3822 48.6175 39.2895C48.5689 39.1968 48.5525 39.0906 48.5709 38.9876L48.9112 37.2433L47.4587 39.0877C47.4091 39.1567 47.3417 39.211 47.2637 39.2448C47.1857 39.2785 47.1 39.2905 47.0157 39.2795C46.9315 39.2686 46.8518 39.2352 46.7852 39.1827C46.7185 39.1301 46.6672 39.0606 46.6369 38.9813C46.6064 38.902 46.5979 38.816 46.6123 38.7324C46.6267 38.6487 46.6635 38.5705 46.7187 38.506L49.3779 35.1287C49.4434 35.047 49.5343 34.9895 49.6362 34.9653C49.7381 34.9411 49.8451 34.9516 49.9404 34.9951C50.0357 35.0383 50.1138 35.1122 50.1625 35.2049C50.2111 35.2976 50.2275 35.4038 50.2089 35.5068L49.8691 37.2512L55.3283 30.3189C55.402 30.2249 55.5086 30.1625 55.6265 30.1442C55.7444 30.1259 55.8649 30.153 55.9637 30.2201C56.0624 30.2873 56.1319 30.3894 56.1582 30.5058C56.1846 30.6223 56.1658 30.7444 56.1056 30.8475L53.9289 34.5736L56.6056 31.1771C56.6815 31.086 56.7889 31.0269 56.9065 31.0114C57.024 30.996 57.1431 31.0255 57.2399 31.0941C57.3366 31.1626 57.404 31.265 57.4286 31.3811C57.4531 31.4971 57.433 31.618 57.3723 31.7199L56.0641 33.7778L56.4815 33.2487C56.5562 33.1535 56.6646 33.0907 56.7843 33.0734C56.9041 33.056 57.0259 33.0853 57.1245 33.1554C57.2233 33.2253 57.2913 33.3307 57.3145 33.4495C57.3377 33.5683 57.3142 33.6915 57.249 33.7934L55.9293 35.8657C56.0175 35.8524 56.1077 35.8644 56.1894 35.9003C56.271 35.9363 56.3408 35.9947 56.3906 36.0688C56.4404 36.1428 56.4681 36.2295 56.4705 36.3187C56.473 36.4079 56.45 36.496 56.4044 36.5726L54.4502 39.8559C54.4683 39.8626 54.4857 39.8715 54.502 39.8822C54.5999 39.9382 54.6745 40.0275 54.7121 40.1338C54.7497 40.2402 54.7479 40.3565 54.707 40.4616L54.0864 42.0446L54.5767 41.4225C54.645 41.3371 54.7407 41.2781 54.8477 41.2557C54.9546 41.2332 55.066 41.2486 55.1629 41.2993C55.2597 41.3499 55.336 41.4327 55.3786 41.5333C55.4211 41.634 55.4274 41.7463 55.3964 41.8511L55.0035 43.1533L55.1764 42.9342C55.2776 42.7934 55.4476 42.7201 55.619 42.7425C55.7033 42.7532 55.783 42.7866 55.8498 42.8391C55.9166 42.8916 55.9679 42.9612 55.9982 43.0406C56.0287 43.1199 56.0372 43.2059 56.0227 43.2897C56.0082 43.3734 55.9713 43.4516 55.9159 43.5161L54.1901 45.7069C54.1385 45.772 54.0699 45.8218 53.9921 45.851Z" fill="#67D4F1"/>
<path fill-rule="evenodd" clip-rule="evenodd" d="M46.3092 42.6848C46.2279 42.7171 46.1393 42.7262 46.0532 42.7111C45.967 42.6959 45.8868 42.6571 45.8215 42.599C45.7561 42.5408 45.7082 42.4657 45.6832 42.3819C45.6581 42.2981 45.6568 42.209 45.6795 42.1245L45.9307 41.2291L45.0411 42.3572C44.9687 42.4481 44.8653 42.509 44.7508 42.5281C44.6363 42.5473 44.5187 42.5234 44.4207 42.461C44.3226 42.3989 44.251 42.3028 44.2195 42.191C44.1881 42.0792 44.1991 41.9598 44.2505 41.8557L45.6225 39.116L44.0753 41.0846C44.0014 41.1784 43.8948 41.2407 43.7768 41.2589C43.6589 41.2771 43.5384 41.25 43.4397 41.1829C43.341 41.1158 43.2715 41.0138 43.2452 40.8974C43.2189 40.781 43.2377 40.6589 43.2979 40.5559L44.7573 38.0452L43.3715 39.8054C43.2966 39.8989 43.1889 39.9604 43.0702 39.9773C42.9516 39.9942 42.8309 39.9651 42.7329 39.8962C42.6349 39.8272 42.5669 39.7234 42.5427 39.606C42.5185 39.4887 42.54 39.3665 42.6028 39.2644L42.9024 38.7833L42.8471 38.8533C42.7741 38.9449 42.6695 39.0061 42.5538 39.0247C42.4381 39.0434 42.3196 39.0183 42.2214 38.9543C42.1232 38.8903 42.0524 38.7921 42.0228 38.6787C41.9932 38.5653 42.0068 38.4449 42.0612 38.3411L43.4643 35.7001L41.4741 38.2199C41.4072 38.3052 41.313 38.3649 41.2072 38.3888C41.1015 38.4128 40.9908 38.3996 40.8937 38.3514C40.7966 38.3031 40.7191 38.2228 40.6743 38.124C40.6295 38.0252 40.6202 37.914 40.6478 37.8092L41.0257 36.3626L39.7513 37.9806C39.6504 38.1208 39.48 38.1944 39.3086 38.1723C39.2243 38.1614 39.1446 38.1279 39.0779 38.0753C39.0111 38.0228 38.9598 37.9532 38.9294 37.8739C38.8989 37.7946 38.8905 37.7085 38.905 37.6248C38.9194 37.5411 38.9562 37.4629 39.0115 37.3984L41.6809 34.0082C41.748 33.9233 41.8421 33.864 41.9476 33.8403C42.0531 33.8166 42.1636 33.8299 42.2605 33.878C42.3573 33.9262 42.4346 34.0063 42.4793 34.1048C42.5241 34.2033 42.5336 34.3142 42.5062 34.4188L42.1292 35.8651L45.97 30.983C46.0426 30.8899 46.1474 30.8275 46.2639 30.808C46.3803 30.7886 46.4997 30.8135 46.5986 30.878C46.6975 30.9424 46.7686 31.0417 46.7978 31.156C46.827 31.2704 46.8122 31.3915 46.7563 31.4955L45.3472 34.1472L47.5444 31.3586C47.6194 31.2653 47.7271 31.2042 47.8456 31.1875C47.9641 31.1708 48.0845 31.1998 48.1824 31.2686C48.2802 31.3375 48.3482 31.441 48.3725 31.5582C48.3968 31.6754 48.3756 31.7974 48.3132 31.8995L48.0158 32.3735L48.1274 32.2343C48.2813 32.0428 48.5563 32.0016 48.7597 32.1396C48.9631 32.2776 49.0256 32.5484 48.9043 32.7621L47.4467 35.2768L47.7478 34.8951C47.8199 34.8032 47.9236 34.7413 48.0388 34.7216C48.1539 34.7019 48.2723 34.7256 48.3709 34.7883C48.4696 34.851 48.5414 34.9481 48.5724 35.0607C48.6034 35.1734 48.5915 35.2935 48.5389 35.3978L46.9176 38.6331C47.0207 38.6128 47.1275 38.6273 47.2214 38.6743C47.3188 38.7234 47.3961 38.8047 47.4401 38.9044C47.4842 39.0041 47.4923 39.116 47.4631 39.221L47.2086 40.1405C47.298 40.0661 47.4118 40.0274 47.528 40.0319C47.6442 40.0364 47.7546 40.0837 47.838 40.1648C47.9213 40.2459 47.9717 40.3549 47.9795 40.471C47.9872 40.587 47.9517 40.7018 47.8799 40.7932L46.5073 42.5355C46.4563 42.6025 46.3877 42.6542 46.3092 42.6848Z" fill="#67D4F1"/>
<path fill-rule="evenodd" clip-rule="evenodd" d="M43.4888 60.6582C43.4057 60.6916 43.3148 60.7006 43.2268 60.6841C43.1388 60.6676 43.0573 60.6263 42.9919 60.5651C42.9265 60.5039 42.8799 60.4254 42.8575 60.3387C42.8351 60.252 42.8379 60.1607 42.8655 60.0755L42.9243 59.8951L42.4192 60.537C42.3497 60.6256 42.2509 60.6865 42.1405 60.7086C42.0301 60.7308 41.9154 60.7127 41.8172 60.6577C41.6146 60.5435 41.5252 60.2988 41.6069 60.0813L42.1149 58.7117L41.3599 59.6686C41.2893 59.7579 41.1889 59.8187 41.077 59.8397C40.9652 59.8608 40.8495 59.8407 40.7513 59.7831C40.6532 59.7253 40.5793 59.634 40.5432 59.5261C40.5071 59.4181 40.5114 59.3007 40.5551 59.1956L41.2361 57.5661L40.7214 58.2202C40.6484 58.3116 40.544 58.3726 40.4285 58.3913C40.3131 58.4099 40.1948 58.3849 40.0967 58.3212C39.9986 58.2575 39.9278 58.1596 39.8979 58.0466C39.868 57.9336 39.8813 57.8134 39.935 57.7096L41.432 54.8685L40.0709 56.5918C39.9968 56.6838 39.8908 56.7446 39.7739 56.7622C39.6571 56.7797 39.5379 56.7527 39.44 56.6864C39.3422 56.6201 39.2729 56.5194 39.2458 56.4044C39.2187 56.2894 39.2358 56.1685 39.2936 56.0654L39.4451 55.802L36.7983 59.1622C36.7255 59.255 36.6205 59.3171 36.5042 59.3362C36.3879 59.3554 36.2686 59.3302 36.1699 59.2657C36.0712 59.2012 36.0003 59.102 35.9712 58.9878C35.9421 58.8735 35.9568 58.7525 36.0126 58.6486L38.2831 54.3938L34.9553 58.6292C34.8812 58.7245 34.7734 58.7877 34.6541 58.8058C34.5348 58.824 34.4131 58.7956 34.3141 58.7267C34.2151 58.6577 34.1463 58.5534 34.1219 58.4352C34.0976 58.317 34.1195 58.194 34.1831 58.0915L35.976 55.1783L34.4946 57.0574C34.4204 57.1539 34.3119 57.218 34.1915 57.2362C34.0712 57.2544 33.9485 57.2254 33.8492 57.1551C33.7498 57.0849 33.6815 56.9789 33.6585 56.8594C33.6355 56.7399 33.6597 56.6162 33.7259 56.5141L37.4036 50.6968C37.3406 50.7135 37.2748 50.7169 37.2105 50.7066C37.1462 50.6963 37.0847 50.6726 37.0301 50.6371C36.9312 50.5736 36.8597 50.4755 36.8295 50.362C36.7994 50.2484 36.8127 50.1277 36.8671 50.0236L38.0148 47.8171L36.0664 50.2895C35.992 50.3828 35.8849 50.4444 35.7668 50.4618C35.6487 50.4793 35.5284 50.4513 35.4301 50.3836C35.3321 50.3157 35.2634 50.2131 35.238 50.0966C35.2126 49.9801 35.2323 49.8582 35.2931 49.7556L35.4205 49.5445L34.5719 50.6218C34.4978 50.7153 34.391 50.7773 34.2729 50.7951C34.1549 50.813 34.0345 50.7854 33.936 50.718C33.8376 50.6506 33.7685 50.5483 33.7426 50.4318C33.7167 50.3154 33.7359 50.1935 33.7964 50.0907L34.4874 48.9281L33.5803 50.0775C33.5054 50.1704 33.398 50.2314 33.2799 50.2482C33.1617 50.265 33.0416 50.2364 32.9437 50.1681C32.8459 50.0998 32.7776 49.9969 32.7527 49.8801C32.7277 49.7634 32.748 49.6416 32.8094 49.5393L33.3759 48.616L33.1032 48.9622C33.0294 49.0551 32.9232 49.1167 32.8059 49.1348C32.6887 49.1528 32.5689 49.1259 32.4706 49.0594C32.3723 48.993 32.3027 48.8918 32.2757 48.7763C32.2487 48.6607 32.2664 48.5392 32.3251 48.4361L34.8642 44.0224C34.7748 44.0728 34.6712 44.0925 34.5695 44.0786C34.4678 44.0647 34.3734 44.0178 34.3008 43.9452C34.228 43.8727 34.1809 43.7785 34.1667 43.6769C34.1525 43.5752 34.172 43.4717 34.2221 43.3821L36.7099 38.9002L34.2448 42.0296C34.1708 42.1232 34.064 42.1852 33.9461 42.2031C33.8281 42.2209 33.7078 42.1934 33.6094 42.1259C33.511 42.0584 33.4418 41.9561 33.4159 41.8396C33.3899 41.7231 33.4091 41.6011 33.4696 41.4982L35.2619 38.4746L32.7185 41.691C32.6434 41.7837 32.5359 41.8445 32.4178 41.8611C32.2996 41.8777 32.1795 41.8489 32.0818 41.7804C31.9841 41.7118 31.9161 41.6087 31.8915 41.4919C31.867 41.3751 31.8876 41.2533 31.9493 41.1511L33.6935 38.3512L31.3217 41.3633C31.2208 41.5035 31.0505 41.5771 30.8791 41.555C30.7949 41.5439 30.7152 41.5104 30.6484 41.4579C30.5817 41.4053 30.5303 41.3358 30.4997 41.2565C30.4692 41.1772 30.4608 41.0911 30.4753 41.0074C30.4898 40.9237 30.5267 40.8455 30.5821 40.781L38.2553 31.0373C38.3298 30.9426 38.4377 30.8801 38.5569 30.8627C38.6761 30.8453 38.7975 30.8742 38.896 30.9435C38.9946 31.0127 39.063 31.1171 39.087 31.2352C39.1111 31.3533 39.0889 31.4761 39.025 31.5783L37.2833 34.375L38.915 32.3026C38.9891 32.209 39.0959 32.1471 39.2139 32.1292C39.3318 32.1114 39.4522 32.139 39.5506 32.2065C39.649 32.2739 39.7181 32.3762 39.744 32.4927C39.7699 32.6092 39.7506 32.7311 39.6901 32.8339L37.8972 35.8607L39.5861 33.7166C39.6592 33.6229 39.7651 33.5603 39.8824 33.5414C39.9997 33.5224 40.1198 33.5485 40.2187 33.6144C40.3177 33.6802 40.3881 33.781 40.4158 33.8966C40.4435 34.0121 40.4265 34.1339 40.3682 34.2374L37.8798 38.72L38.003 38.5634C38.0768 38.47 38.1832 38.4079 38.3008 38.3897C38.4185 38.3715 38.5386 38.3985 38.6372 38.4653C38.7356 38.5321 38.8051 38.6338 38.8317 38.7498C38.8583 38.8658 38.8401 38.9875 38.7806 39.0906L36.3675 43.285L37.6184 41.6977C37.6933 41.6048 37.8007 41.5438 37.9188 41.5269C38.037 41.5101 38.1571 41.5388 38.255 41.6071C38.3528 41.6754 38.4211 41.7783 38.4461 41.895C38.471 42.0117 38.4507 42.1335 38.3893 42.2359L37.8186 43.166L38.1634 42.7237C38.237 42.6284 38.3442 42.5649 38.4631 42.5462C38.582 42.5274 38.7036 42.5548 38.8029 42.6228C38.9022 42.691 38.9715 42.7946 38.9968 42.9123C39.0221 43.03 39.0013 43.153 38.9388 43.2559L38.2517 44.4131L39.3344 43.0393C39.4091 42.9471 39.5159 42.8866 39.6334 42.8699C39.7509 42.8531 39.8703 42.8813 39.9679 42.9489C40.0656 43.0163 40.1342 43.1182 40.1599 43.2341C40.1856 43.35 40.1666 43.4713 40.1065 43.5738L39.9791 43.7849L40.3518 43.3137C40.4247 43.2227 40.5287 43.1619 40.6438 43.1432C40.7589 43.1245 40.8768 43.1493 40.9747 43.2126C41.0727 43.2757 41.1438 43.373 41.1742 43.4855C41.2045 43.5981 41.192 43.7179 41.139 43.8218L39.9922 46.0302L41.7902 43.7475C41.8648 43.6524 41.9731 43.5897 42.0928 43.5722C42.2124 43.5548 42.3341 43.584 42.4327 43.6539C42.5314 43.7237 42.5994 43.8288 42.6228 43.9474C42.6461 44.066 42.623 44.189 42.5581 44.291L39.3797 49.3251L40.233 48.2431C40.3076 48.1495 40.4151 48.0878 40.5335 48.0706C40.652 48.0534 40.7726 48.0819 40.8708 48.1504C40.9689 48.2189 41.0372 48.3222 41.0619 48.4393C41.0866 48.5564 41.0658 48.6785 41.0037 48.7809L39.2143 51.6941L40.8377 49.6348C40.9103 49.5419 41.0151 49.4797 41.1314 49.4604C41.2477 49.4411 41.367 49.4662 41.4657 49.5306C41.5645 49.595 41.6356 49.694 41.6649 49.8082C41.6942 49.9224 41.6795 50.0435 41.6239 50.1474L39.3545 54.4018L42.7821 50.0451C42.8563 49.953 42.9623 49.8922 43.0791 49.8747C43.196 49.8572 43.3152 49.8842 43.4131 49.9505C43.5108 50.0168 43.5801 50.1175 43.6072 50.2325C43.6343 50.3475 43.6172 50.4684 43.5594 50.5715L43.4078 50.8349L43.8528 50.2703C43.9256 50.1784 44.0301 50.1169 44.1458 50.0979C44.2615 50.0788 44.3802 50.1036 44.4786 50.1674C44.577 50.2312 44.648 50.3294 44.6779 50.4428C44.7078 50.5562 44.6943 50.6767 44.64 50.7807L42.894 54.1071C42.9786 54.0868 43.0671 54.0903 43.1498 54.1173C43.2324 54.1442 43.3061 54.1935 43.3624 54.2597C43.4188 54.3259 43.4558 54.4064 43.4692 54.4923C43.4827 54.5782 43.4721 54.6661 43.4386 54.7464L42.7572 56.3784L43.2346 55.7725C43.3041 55.6844 43.4029 55.6241 43.5129 55.6024C43.623 55.5806 43.7373 55.5989 43.8351 55.6538C43.933 55.7088 44.008 55.797 44.0466 55.9024C44.0852 56.0078 44.0849 56.1235 44.0457 56.2287L43.535 57.5942L43.8169 57.2373C43.8852 57.1505 43.982 57.0906 44.0902 57.068C44.1984 57.0454 44.311 57.0617 44.4084 57.1139C44.506 57.1659 44.5821 57.2506 44.6235 57.3531C44.6648 57.4556 44.6689 57.5694 44.6348 57.6746L44.4107 58.3636C44.5142 58.364 44.6144 58.3994 44.6951 58.464C44.7933 58.5412 44.8568 58.6541 44.8718 58.778C44.8868 58.902 44.8519 59.0268 44.7749 59.125L43.6809 60.5136C43.6305 60.5777 43.5643 60.6275 43.4888 60.6581L43.4888 60.6582ZM27.6796 49.8231C27.5942 49.8572 27.5006 49.8656 27.4105 49.8471C27.3204 49.8287 27.2376 49.7843 27.1724 49.7194C27.1073 49.6545 27.0625 49.5719 27.0437 49.4818C27.0249 49.3918 27.0329 49.2982 27.0666 49.2126L27.5903 47.8754L26.8156 48.8587C26.7435 48.9503 26.64 49.0119 26.5251 49.0316C26.4101 49.0513 26.292 49.0276 26.1936 48.9651C26.095 48.9028 26.0231 48.8061 25.9917 48.6938C25.9604 48.5815 25.9718 48.4616 26.0237 48.3572L26.391 47.6202L26.3442 47.6784C26.2428 47.8188 26.0729 47.8922 25.9015 47.8701C25.8172 47.8592 25.7375 47.8257 25.6707 47.7732C25.6039 47.7206 25.5526 47.651 25.5222 47.5716C25.4917 47.4923 25.4833 47.4063 25.4978 47.3226C25.5123 47.2389 25.5492 47.1606 25.6045 47.0962L28.476 43.4507C28.548 43.3589 28.6513 43.2972 28.7662 43.2773C28.881 43.2574 28.9991 43.2809 29.0977 43.3431C29.1961 43.4055 29.268 43.5022 29.2993 43.6145C29.3305 43.7268 29.3191 43.8467 29.2671 43.9511L28.8857 44.7202C28.9648 44.6495 29.0653 44.6076 29.1712 44.6011C29.277 44.5946 29.382 44.624 29.4691 44.6845C29.5561 44.745 29.6201 44.8331 29.6509 44.9345C29.6816 45.036 29.6772 45.1448 29.6385 45.2434L29.1137 46.5782L29.2599 46.393C29.3096 46.3242 29.3769 46.2701 29.4548 46.2364C29.5327 46.2026 29.6183 46.1906 29.7025 46.2015C29.7867 46.2124 29.8663 46.2458 29.9331 46.2983C29.9998 46.3507 30.0512 46.4202 30.0817 46.4994C30.1121 46.5787 30.1205 46.6648 30.106 46.7485C30.0915 46.8322 30.0547 46.9104 29.9994 46.9749L27.8735 49.6738C27.8234 49.7399 27.7564 49.7915 27.6797 49.8232L27.6796 49.8231ZM44.9117 29.0388C44.8305 29.0714 44.7418 29.0807 44.6556 29.0656C44.5694 29.0506 44.4891 29.0118 44.4237 28.9537C44.3583 28.8955 44.3105 28.8203 44.2855 28.7364C44.2605 28.6526 44.2593 28.5634 44.2822 28.479L44.5099 27.5948L43.4132 28.9881C43.3488 29.0697 43.2592 29.1277 43.1584 29.1531C43.0575 29.1784 42.9512 29.1697 42.8558 29.1282C42.7605 29.0868 42.6815 29.0149 42.6313 28.9239C42.5811 28.8329 42.5624 28.7278 42.5781 28.625L42.8756 26.6923L41.1063 28.9399C41.005 29.0802 40.8351 29.1538 40.6633 29.1318C40.5791 29.1208 40.4994 29.0873 40.4326 29.0347C40.3658 28.9822 40.3145 28.9126 40.284 28.8333C40.2536 28.754 40.2453 28.668 40.2598 28.5843C40.2743 28.5006 40.3111 28.4224 40.3663 28.3578L43.2455 24.7023C43.3098 24.6207 43.3993 24.5627 43.5 24.5373C43.6007 24.5119 43.707 24.5206 43.8024 24.5619C43.8977 24.6032 43.9766 24.6749 44.027 24.7658C44.0773 24.8566 44.0961 24.9616 44.0806 25.0643L43.7806 27.0023L45.158 25.2549C45.225 25.1705 45.319 25.1115 45.4242 25.0879C45.5294 25.0643 45.6396 25.0775 45.7363 25.1252C45.8329 25.1731 45.9102 25.2526 45.9552 25.3505C46.0003 25.4485 46.0104 25.5589 45.9838 25.6634L45.7551 26.5485C45.8345 26.4545 45.9476 26.3954 46.0701 26.3838C46.1927 26.3722 46.3149 26.409 46.4105 26.4864C46.5063 26.5637 46.568 26.6755 46.5824 26.7978C46.5968 26.92 46.5628 27.0431 46.4876 27.1405L45.1058 28.8935C45.0554 28.9585 44.9883 29.0087 44.9117 29.0388ZM51.9079 23.4981C51.8267 23.5305 51.738 23.5397 51.6518 23.5246C51.5656 23.5095 51.4854 23.4707 51.42 23.4125C51.3546 23.3543 51.3068 23.2791 51.2817 23.1953C51.2567 23.1114 51.2556 23.0223 51.2784 22.9378L51.4265 22.3716L50.5667 23.4627C50.4974 23.55 50.3995 23.6099 50.2903 23.6318C50.181 23.6538 50.0676 23.6364 49.97 23.5826C49.8724 23.5287 49.7971 23.4419 49.7575 23.3377C49.7178 23.2335 49.7163 23.1186 49.7533 23.0134L50.0465 22.1862L49.1291 23.3509C49.0597 23.4385 48.9614 23.4984 48.8518 23.5201C48.7422 23.5417 48.6284 23.5237 48.5309 23.4691C48.4334 23.4147 48.3584 23.3275 48.3193 23.2229C48.2802 23.1184 48.2795 23.0033 48.3173 22.8983L48.6291 22.0432L47.6868 23.2393C47.6207 23.3225 47.5285 23.381 47.4251 23.4052C47.3216 23.4294 47.213 23.418 47.1169 23.3727C47.0208 23.3275 46.9428 23.2511 46.8956 23.156C46.8484 23.0609 46.8348 22.9526 46.8569 22.8487L47.2218 21.1811L45.7167 23.0901C45.6393 23.1882 45.5262 23.2516 45.4022 23.2663C45.2781 23.2811 45.1533 23.2459 45.0551 23.1686C44.957 23.0913 44.8936 22.9782 44.8789 22.8541C44.8642 22.7301 44.8993 22.6052 44.9766 22.5071L47.7459 18.9915C47.8816 18.8184 48.1191 18.7621 48.3179 18.8564C48.4143 18.9018 48.4924 18.9786 48.5394 19.0742C48.5864 19.1698 48.5997 19.2786 48.5769 19.3827L48.212 21.0502L49.7136 19.145C49.783 19.0571 49.8815 18.9968 49.9913 18.9749C50.1011 18.953 50.2152 18.971 50.313 19.0256C50.4107 19.0801 50.4859 19.1678 50.5249 19.2728C50.5639 19.3777 50.5643 19.4932 50.5259 19.5984L50.2137 20.4527L51.0835 19.3491C51.1527 19.2619 51.2507 19.202 51.36 19.1801C51.4692 19.1582 51.5827 19.1758 51.6802 19.2297C51.7778 19.2834 51.8532 19.3701 51.893 19.4742C51.9327 19.5783 51.9342 19.6932 51.8971 19.7983L51.6043 20.6254L52.0861 20.0131C52.1529 19.9277 52.2472 19.868 52.3529 19.844C52.4587 19.82 52.5694 19.8333 52.6665 19.8815C52.7638 19.9297 52.8414 20.0099 52.8862 20.1087C52.9311 20.2075 52.9405 20.3187 52.9128 20.4236L52.6894 21.2744C52.7551 21.262 52.8228 21.2639 52.8878 21.28C52.9527 21.2962 53.0134 21.3262 53.0657 21.368C53.1143 21.4062 53.1549 21.4537 53.1852 21.5076C53.2154 21.5616 53.2348 21.621 53.2421 21.6824C53.2494 21.7439 53.2445 21.8061 53.2277 21.8657C53.2109 21.9252 53.1825 21.9809 53.1442 22.0295L52.1059 23.348C52.0545 23.4148 51.9861 23.4666 51.9079 23.4981Z" fill="#67D4F1"/>
<path fill-rule="evenodd" clip-rule="evenodd" d="M23.8538 57.6146C23.7696 57.6485 23.6774 57.6574 23.5883 57.6401C23.4991 57.6228 23.4169 57.5801 23.3515 57.5172C23.286 57.4543 23.2402 57.3738 23.2194 57.2854C23.1987 57.197 23.2039 57.1045 23.2346 57.019L23.8533 55.2672L22.9046 56.471C22.8346 56.5601 22.7347 56.6209 22.6234 56.6423C22.5121 56.6638 22.3969 56.6443 22.2987 56.5876C22.2007 56.5308 22.1265 56.4405 22.0896 56.3334C22.0527 56.2262 22.0556 56.1094 22.0978 56.0042L22.9989 53.7552L22.2631 54.6894C22.1861 54.7851 22.0747 54.8468 21.9528 54.8615C21.8309 54.8762 21.708 54.8427 21.6105 54.7681C21.5128 54.6936 21.4481 54.5839 21.4302 54.4624C21.4123 54.3408 21.4426 54.2171 21.5147 54.1176L28.5982 43.8204L18.6437 56.8105C18.5661 56.9053 18.4545 56.9661 18.3327 56.98C18.211 56.9939 18.0885 56.9598 17.9915 56.8849C17.8945 56.81 17.8305 56.7002 17.8131 56.5789C17.7957 56.4575 17.8263 56.3342 17.8984 56.2351L20.9269 52.2324L17.2239 56.9312C17.1462 57.0247 17.0353 57.0845 16.9145 57.0981C16.7937 57.1117 16.6723 57.0781 16.5756 57.0043C16.4791 56.9304 16.4149 56.8221 16.3963 56.702C16.3778 56.5819 16.4063 56.4593 16.476 56.3597L27.9777 40.9232L16.1233 55.9696C16.045 56.0617 15.9342 56.1201 15.8139 56.1327C15.6937 56.1453 15.5732 56.1112 15.4775 56.0374C15.3816 55.9635 15.3178 55.8556 15.2994 55.736C15.2811 55.6163 15.3095 55.4942 15.3788 55.395L17.7356 52.2815L16.2593 54.1534C16.189 54.2461 16.0869 54.3095 15.9727 54.3314C15.8584 54.3533 15.7401 54.3321 15.6406 54.2719C15.5411 54.2118 15.4673 54.1171 15.4334 54.0059C15.3995 53.8947 15.408 53.7749 15.4572 53.6695L17.0358 50.1717L16.6527 50.6576C16.581 50.7448 16.4804 50.8033 16.3693 50.8226C16.2581 50.8419 16.1436 50.8206 16.0468 50.7627C15.95 50.7049 15.8772 50.6142 15.8416 50.5072C15.8061 50.4002 15.8101 50.284 15.853 50.1797L15.9834 49.8737L15.4574 50.5403C15.3877 50.6286 15.2886 50.689 15.1782 50.7105C15.0678 50.732 14.9533 50.7132 14.8555 50.6576C14.7576 50.6021 14.6829 50.5135 14.6448 50.4076C14.6067 50.3018 14.6077 50.1858 14.6478 50.0807L14.9104 49.3976L14.4216 50.0178C14.3568 50.1 14.2665 50.1583 14.1648 50.1834C14.0632 50.2085 13.9561 50.1991 13.8605 50.1565C13.7648 50.1139 13.6861 50.0407 13.6368 49.9484C13.5874 49.8561 13.5702 49.75 13.5879 49.6468L13.7946 48.4482C13.7017 48.5114 13.5892 48.5393 13.4776 48.5267C13.3659 48.5142 13.2624 48.462 13.1858 48.3798C13.1091 48.2977 13.0643 48.1908 13.0595 48.0786C13.0547 47.9663 13.0902 47.856 13.1595 47.7676L14.1986 46.4473C14.2636 46.3653 14.3539 46.3073 14.4555 46.2823C14.557 46.2573 14.664 46.2667 14.7596 46.3092C14.8552 46.3517 14.934 46.4249 14.9834 46.5171C15.0329 46.6094 15.0502 46.7154 15.0328 46.8186L14.8364 47.973L16.1064 46.3624C16.1761 46.2741 16.2752 46.2138 16.3856 46.1922C16.496 46.1707 16.6105 46.1894 16.7083 46.245C16.8061 46.3005 16.8808 46.3892 16.9189 46.495C16.957 46.6009 16.9559 46.7168 16.9159 46.8219L16.6539 47.504L17.4707 46.4676C17.5423 46.3806 17.6428 46.3222 17.7538 46.3029C17.8649 46.2836 17.9792 46.3047 18.076 46.3625C18.1728 46.4204 18.2456 46.511 18.2812 46.618C18.3169 46.725 18.3131 46.8412 18.2704 46.9456L18.1383 47.251L18.6819 46.5621C18.7524 46.4699 18.8544 46.4069 18.9684 46.3853C19.0824 46.3636 19.2004 46.3848 19.2997 46.4447C19.3991 46.5046 19.4729 46.5991 19.5069 46.7101C19.5409 46.821 19.5327 46.9406 19.484 47.0459L17.9029 50.5447L47.1728 13.3886C47.2106 13.3396 47.2577 13.2986 47.3113 13.2678C47.365 13.237 47.4242 13.2171 47.4855 13.2092C47.5469 13.2013 47.6092 13.2055 47.6689 13.2217C47.7286 13.2379 47.7846 13.2657 47.8335 13.3035C47.9324 13.3798 47.997 13.4922 48.0131 13.6161C48.0291 13.74 47.9953 13.8652 47.9191 13.9641L45.5743 17.0625L48.9082 12.8292C48.9857 12.7345 49.097 12.6738 49.2185 12.6597C49.3401 12.6457 49.4623 12.6795 49.5593 12.7539C49.6565 12.8283 49.7209 12.9375 49.7389 13.0585C49.7569 13.1795 49.7271 13.3028 49.6558 13.4022L38.1529 28.8441L50.099 13.6715C50.1773 13.5789 50.2883 13.52 50.4089 13.5072C50.5295 13.4943 50.6504 13.5284 50.7465 13.6025C50.8426 13.6765 50.9064 13.7847 50.9247 13.9046C50.9431 14.0244 50.9145 14.1468 50.845 14.2461L47.8096 18.2617L50.3183 15.0774C50.3962 14.9848 50.5067 14.9259 50.627 14.9126C50.7472 14.8994 50.8679 14.9329 50.9641 15.0062C51.0603 15.0795 51.1246 15.187 51.1437 15.3065C51.1629 15.4259 51.1353 15.5481 51.0667 15.6478L41.7664 28.5311L39.102 29.4797L39.1541 32.1502L32.6233 41.1979L29.649 41.3718L28.8856 44.72L24.3972 48.5418C24.4109 48.6236 25.129 50.989 25.0944 51.0674L24.1937 53.3155L24.8869 52.4349C24.9561 52.347 25.0542 52.2867 25.1637 52.2645C25.2733 52.2423 25.3872 52.2598 25.485 52.3139C25.5828 52.3678 25.6583 52.4546 25.6979 52.559C25.7376 52.6634 25.7389 52.7784 25.7015 52.8837L25.0824 54.6356L25.4554 54.1629C25.5567 54.0221 25.7266 53.9488 25.8982 53.9712C25.9824 53.9819 26.0621 54.0153 26.1289 54.0678C26.1957 54.1203 26.2469 54.1899 26.2773 54.2692C26.3078 54.3485 26.3162 54.4346 26.3018 54.5183C26.2873 54.602 26.2504 54.6803 26.195 54.7447L24.0523 57.4665C24.0005 57.5327 23.9321 57.5838 23.8538 57.6146Z" fill="#67D4F1"/>
<path fill-rule="evenodd" clip-rule="evenodd" d="M37.6309 26.4931C37.543 26.5284 37.4466 26.5365 37.3541 26.5161C37.2617 26.4958 37.1775 26.448 37.1126 26.3791C37.0477 26.3102 37.0051 26.2233 36.9904 26.1298C36.9756 26.0363 36.9894 25.9405 37.03 25.8549L37.6184 24.6052L37.4274 24.8478C37.3562 24.94 37.2533 25.0024 37.1386 25.0232C37.024 25.0439 36.9058 25.0214 36.8067 24.9601C36.7076 24.8989 36.6347 24.8031 36.6022 24.6912C36.5697 24.5793 36.5799 24.4594 36.6308 24.3546L36.9003 23.783C36.8179 23.8147 36.7282 23.8225 36.6415 23.8056C36.5548 23.7886 36.4747 23.7476 36.4102 23.6872C36.3457 23.6269 36.2994 23.5496 36.2766 23.4643C36.2539 23.3789 36.2557 23.2888 36.2818 23.2044L36.5487 22.3492C36.448 22.3466 36.351 22.3114 36.2721 22.2488C36.2235 22.2106 36.1829 22.1631 36.1526 22.1092C36.1223 22.0553 36.1029 21.996 36.0955 21.9346C36.0882 21.8732 36.093 21.8109 36.1097 21.7514C36.1264 21.6918 36.1546 21.6362 36.1929 21.5875L37.2168 20.2878C37.2848 20.2017 37.3808 20.142 37.4881 20.1191C37.5954 20.0962 37.7074 20.1116 37.8046 20.1624C37.9018 20.2133 37.9782 20.2966 38.0206 20.3978C38.0629 20.499 38.0686 20.6119 38.0366 20.7168L37.9297 21.0643L38.6027 20.2088C38.6739 20.1166 38.7768 20.0541 38.8915 20.0334C39.0061 20.0126 39.1244 20.0351 39.2235 20.0964C39.3225 20.1578 39.3954 20.2537 39.4278 20.3656C39.4603 20.4775 39.4502 20.5975 39.3994 20.7024L39.2566 21.0027L39.4319 20.7814C39.5031 20.6892 39.606 20.6267 39.7207 20.6059C39.8354 20.5852 39.9536 20.6076 40.0527 20.669C40.1518 20.7304 40.2246 20.8263 40.257 20.9382C40.2895 21.0501 40.2794 21.1701 40.2286 21.2749L39.6408 22.5239L39.9579 22.1214C40.0592 21.9811 40.2291 21.9076 40.4005 21.9298C40.4848 21.9406 40.5646 21.9741 40.6314 22.0267C40.6981 22.0792 40.7495 22.1489 40.7799 22.2282C40.8104 22.3075 40.8188 22.3936 40.8043 22.4773C40.7898 22.5611 40.7529 22.6393 40.6975 22.7037L37.828 26.3484C37.7765 26.4135 37.7084 26.4635 37.6309 26.4931ZM23.4394 15.591C23.3562 15.6244 23.2652 15.6334 23.1771 15.6169C23.0889 15.6003 23.0073 15.5589 22.9419 15.4976C22.8765 15.4363 22.83 15.3575 22.8078 15.2706C22.7856 15.1838 22.7886 15.0923 22.8166 15.0071L23.6904 12.3338L22.8285 13.429C22.764 13.5105 22.6744 13.5683 22.5737 13.5936C22.473 13.6189 22.3667 13.6102 22.2714 13.5689C22.1761 13.5276 22.0971 13.456 22.0467 13.3652C21.9963 13.2743 21.9773 13.1694 21.9926 13.0667L22.2641 11.2641C22.1628 11.4045 21.9929 11.4779 21.8212 11.4559C21.737 11.4449 21.6573 11.4113 21.5905 11.3588C21.5238 11.3063 21.4724 11.2367 21.4418 11.1575C21.4115 11.0781 21.4032 10.9921 21.4177 10.9085C21.4321 10.8248 21.4689 10.7466 21.5241 10.6821L22.6244 9.28397C22.6886 9.20199 22.7782 9.14359 22.8791 9.11792C22.98 9.09224 23.0866 9.10073 23.1822 9.14205C23.2778 9.18338 23.3569 9.25521 23.4074 9.34632C23.4578 9.43743 23.4766 9.54267 23.4608 9.6456L23.1899 11.4484L24.5944 9.66965C24.6628 9.58275 24.7597 9.52271 24.8679 9.50005C24.9762 9.47738 25.089 9.49354 25.1865 9.54569C25.284 9.59785 25.3601 9.68266 25.4014 9.78528C25.4427 9.88789 25.4465 10.0018 25.4122 10.1069L24.5374 12.7756L25.5475 11.4944C25.6266 11.4022 25.7383 11.3442 25.8592 11.3323C25.9801 11.3205 26.1009 11.3557 26.1964 11.4308C26.2919 11.506 26.3547 11.6151 26.3716 11.7355C26.3885 11.8558 26.3583 11.978 26.2873 12.0767L23.6344 15.4445C23.5836 15.5098 23.5163 15.5604 23.4394 15.591Z" fill="#67D4F1"/>
<path fill-rule="evenodd" clip-rule="evenodd" d="M26.1771 22.4494C26.0845 22.4864 25.9825 22.4931 25.8858 22.4685C25.7892 22.4438 25.7029 22.3891 25.6394 22.3122C25.5757 22.2354 25.5381 22.1404 25.5319 22.0409C25.5257 21.9415 25.5513 21.8426 25.6048 21.7585L26.5615 20.2655L25.8876 21.1179C25.8143 21.2108 25.7087 21.2728 25.5918 21.2914C25.4749 21.3099 25.3553 21.2838 25.2567 21.2182C25.1582 21.1526 25.088 21.0522 25.0601 20.9372C25.0322 20.8222 25.0487 20.7008 25.1062 20.5974L27.7426 15.8573L24.504 19.9676C24.429 20.0627 24.3202 20.1253 24.2002 20.1423C24.0802 20.1594 23.9583 20.1296 23.8597 20.0592C23.7613 19.9886 23.6938 19.8829 23.6711 19.7639C23.6485 19.6449 23.6725 19.5217 23.7382 19.42L23.909 19.1571L23.447 19.7475C23.3736 19.8399 23.2682 19.9013 23.1517 19.9197C23.0352 19.938 22.916 19.912 22.8178 19.8467C22.7195 19.7814 22.6493 19.6816 22.621 19.567C22.5928 19.4525 22.6087 19.3315 22.6654 19.228L23.2456 18.1845L22.2178 19.4886C22.1486 19.5759 22.0508 19.6358 21.9417 19.6579C21.8325 19.6799 21.7191 19.6625 21.6216 19.6089C21.524 19.5552 21.4486 19.4688 21.4087 19.3648C21.3688 19.2609 21.367 19.1462 21.4037 19.041L21.7045 18.1861L20.8947 19.2015C20.8302 19.2833 20.7405 19.3415 20.6395 19.3669C20.5385 19.3923 20.4319 19.3835 20.3364 19.3419C20.2409 19.3003 20.1619 19.2282 20.1118 19.1369C20.0616 19.0456 20.0431 18.9403 20.0591 18.8373L20.3591 16.9514L19.0698 18.5824C19.0059 18.6632 18.9172 18.7208 18.8175 18.7465C18.7177 18.7721 18.6123 18.7643 18.5173 18.7243C18.4224 18.6843 18.3432 18.6144 18.2918 18.5251C18.2404 18.4358 18.2197 18.3321 18.2329 18.2299L18.414 16.8567C18.3349 16.9504 18.2223 17.0095 18.1003 17.0215C17.9783 17.0335 17.8564 16.9974 17.7606 16.9208C17.6647 16.8444 17.6023 16.7335 17.5869 16.6118C17.5715 16.4901 17.6043 16.3671 17.6782 16.2692L18.7349 14.9281C18.7988 14.8476 18.8873 14.7901 18.9869 14.7646C19.0866 14.7391 19.1918 14.7468 19.2866 14.7867C19.3814 14.8265 19.4606 14.8963 19.512 14.9854C19.5634 15.0744 19.5843 15.1779 19.5715 15.2799L19.3912 16.6573L20.7377 14.9486C20.8023 14.8668 20.8922 14.8087 20.9933 14.7833C21.0944 14.758 21.201 14.7669 21.2965 14.8086C21.3921 14.8503 21.4711 14.9225 21.5212 15.0139C21.5713 15.1053 21.5897 15.2107 21.5736 15.3137L21.2733 17.1988L22.7179 15.367C22.7869 15.2797 22.8847 15.2197 22.9937 15.1976C23.1028 15.1755 23.2161 15.1927 23.3137 15.2462C23.4113 15.2997 23.4868 15.3859 23.5268 15.4898C23.5669 15.5936 23.5689 15.7082 23.5325 15.8134L23.2316 16.6683L26.139 12.9777C26.213 12.8867 26.3181 12.8266 26.434 12.809C26.5499 12.7914 26.6682 12.8177 26.7658 12.8827C26.8633 12.9476 26.9332 13.0466 26.9617 13.1604C26.9901 13.2741 26.9752 13.3943 26.9197 13.4976L26.3404 14.5408L29.3935 10.6662C29.4686 10.5712 29.5773 10.5086 29.6972 10.4916C29.8171 10.4746 29.9389 10.5044 30.0374 10.5748C30.136 10.6452 30.2036 10.7509 30.2262 10.8699C30.2488 10.9889 30.2247 11.112 30.1588 11.2136L29.9881 11.4768L30.6179 10.6783C30.6913 10.586 30.7967 10.5246 30.9132 10.5062C31.0297 10.4879 31.1488 10.5139 31.2471 10.5792C31.3454 10.6446 31.4156 10.7444 31.4439 10.8591C31.4721 10.9737 31.4563 11.0948 31.3996 11.1983L28.7692 15.9405L31.8166 12.0723C31.8919 11.9786 32.0001 11.9172 32.1192 11.9006C32.2382 11.8841 32.3591 11.9136 32.4571 11.9832C32.555 12.0529 32.6226 12.1574 32.646 12.2752C32.6695 12.3931 32.647 12.5155 32.5832 12.6174L28.9539 18.2793C29.0492 18.3574 29.11 18.4697 29.1234 18.5922C29.1368 18.7146 29.1017 18.8374 29.0256 18.9343L26.3715 22.3035C26.3208 22.3686 26.2537 22.4189 26.1771 22.4494Z" fill="#67D4F1"/>
<path fill-rule="evenodd" clip-rule="evenodd" d="M29.1646 29.926C29.0737 29.9622 28.9737 29.9692 28.8785 29.946C28.7834 29.9228 28.6979 29.8706 28.6338 29.7965C28.5698 29.7225 28.5304 29.6303 28.5211 29.5328C28.5118 29.4353 28.5332 29.3374 28.5821 29.2526L29.858 27.0497L28.7996 28.3925C28.7259 28.4848 28.6203 28.5461 28.5036 28.5642C28.3869 28.5823 28.2677 28.5558 28.1695 28.4901C28.0714 28.4244 28.0015 28.3242 27.9738 28.2094C27.9461 28.0947 27.9625 27.9736 28.0198 27.8704L29.6037 25.0624L28.0395 27.0488C27.9661 27.14 27.8613 27.2006 27.7457 27.2188C27.6301 27.237 27.5118 27.2116 27.4139 27.1474C27.316 27.083 27.2456 26.9846 27.2163 26.8712C27.1871 26.7578 27.2011 26.6375 27.2556 26.5339L28.602 24.047L26.5536 26.6481C26.4806 26.7427 26.3744 26.806 26.2565 26.8253C26.1386 26.8445 26.0177 26.8183 25.9185 26.7518C25.8192 26.6853 25.7489 26.5836 25.7218 26.4673C25.6947 26.3509 25.7128 26.2286 25.7724 26.1251L26.0492 25.6319L25.4779 26.3584C25.413 26.4416 25.322 26.5005 25.2195 26.5258C25.117 26.5511 25.009 26.5412 24.9128 26.4978C24.8166 26.4543 24.7378 26.3798 24.689 26.2862C24.6403 26.1926 24.6243 26.0853 24.6438 25.9816L24.9709 24.1766L23.811 25.6487C23.7456 25.7309 23.6546 25.7888 23.5525 25.8134C23.4504 25.8379 23.343 25.8277 23.2474 25.7842C23.1518 25.7407 23.0735 25.6666 23.0249 25.5735C22.9762 25.4804 22.9601 25.3738 22.979 25.2705L23.1938 24.142C23.0986 24.1951 22.9881 24.2135 22.8809 24.1942C22.7737 24.1749 22.6765 24.1191 22.6058 24.0362C22.5351 23.9533 22.4953 23.8485 22.4932 23.7396C22.4911 23.6307 22.5268 23.5244 22.5943 23.4389L23.6325 22.1213C23.6977 22.0388 23.7887 21.9806 23.8908 21.9558C23.993 21.9311 24.1005 21.9413 24.1962 21.9848C24.2919 22.0282 24.3704 22.1024 24.4191 22.1955C24.4679 22.2887 24.4841 22.3954 24.4651 22.4988L24.2645 23.551L25.4007 22.1088C25.4657 22.0256 25.5567 21.9666 25.6592 21.9413C25.7617 21.9161 25.8697 21.926 25.9659 21.9695C26.0622 22.0128 26.1411 22.0873 26.1899 22.1809C26.2388 22.2745 26.2548 22.3818 26.2353 22.4855L25.9089 24.2901L29.0607 20.2919C29.1341 20.1985 29.2401 20.1363 29.3575 20.1178C29.4748 20.0993 29.5948 20.1258 29.6934 20.1921C29.7921 20.2582 29.8622 20.3591 29.8895 20.4747C29.9169 20.5903 29.8996 20.7119 29.8411 20.8153L29.5647 21.307L31.2663 19.1472C31.3397 19.0559 31.4445 18.9952 31.5602 18.977C31.6759 18.9588 31.7942 18.9844 31.8921 19.0487C31.99 19.1129 32.0604 19.2113 32.0896 19.3246C32.1189 19.438 32.1048 19.5582 32.0501 19.6617L30.7039 22.1477L32.6619 19.6631C32.7356 19.5711 32.8412 19.5102 32.9578 19.4924C33.0743 19.4745 33.1933 19.5011 33.2912 19.5667C33.3892 19.6323 33.4591 19.7323 33.4869 19.847C33.5147 19.9616 33.4984 20.0825 33.4413 20.1857L31.856 22.9901L33.2119 21.2693C33.2861 21.177 33.3923 21.116 33.5094 21.0984C33.6265 21.0809 33.746 21.1082 33.8439 21.1748C33.9419 21.2413 34.0113 21.3423 34.0382 21.4576C34.065 21.573 34.0475 21.6942 33.989 21.7972L31.7527 25.6589C31.8299 25.6769 31.9013 25.714 31.9603 25.7669C32.0194 25.8199 32.0641 25.8869 32.0903 25.9617C32.1165 26.0365 32.1234 26.1167 32.1103 26.1949C32.0973 26.2731 32.0647 26.3467 32.0155 26.4089L29.3598 29.7798C29.3089 29.845 29.2415 29.8954 29.1646 29.926ZM19.3353 30.8917C19.2541 30.9241 19.1655 30.9332 19.0794 30.9181C18.9932 30.903 18.913 30.8642 18.8477 30.8061C18.7824 30.748 18.7345 30.6729 18.7094 30.5891C18.6844 30.5054 18.6831 30.4163 18.7058 30.3318L18.936 29.435C18.8406 29.4605 18.7396 29.4554 18.6473 29.4202C18.555 29.3851 18.4761 29.3218 18.4218 29.2393C18.3673 29.1568 18.3401 29.0593 18.3442 28.9606C18.3483 28.8618 18.3834 28.7669 18.4445 28.6892L19.522 27.3235C19.5889 27.239 19.6827 27.1801 19.7878 27.1564C19.893 27.1327 20.003 27.1458 20.0997 27.1935C20.1963 27.2411 20.2737 27.3204 20.3189 27.4182C20.3642 27.516 20.3746 27.6263 20.3483 27.7308L20.1784 28.4074L21.0218 27.3369C21.1227 27.1967 21.293 27.1231 21.4644 27.1452C21.5486 27.1562 21.6283 27.1897 21.6951 27.2422C21.7618 27.2948 21.8131 27.3644 21.8436 27.4437C21.874 27.523 21.8824 27.609 21.868 27.6927C21.8535 27.7765 21.8167 27.8547 21.7614 27.9192L19.541 30.7417C19.4878 30.81 19.4165 30.8619 19.3353 30.8917ZM12.33 30.2061C12.2413 30.2416 12.1439 30.2493 12.0507 30.2282C11.9575 30.207 11.8729 30.1579 11.8083 30.0875C11.7437 30.0171 11.702 29.9287 11.6887 29.8341C11.6755 29.7394 11.6913 29.643 11.7342 29.5575L11.8891 29.249C11.824 29.2752 11.754 29.2874 11.6839 29.2846C11.6137 29.2819 11.5449 29.2644 11.482 29.2332C11.3846 29.1818 11.3083 29.098 11.2663 28.9962C11.2243 28.8944 11.2192 28.7811 11.252 28.676L11.8404 26.7913L11.2963 27.4814C11.2278 27.5675 11.1313 27.6269 11.0235 27.6494C10.9158 27.6718 10.8035 27.6558 10.7063 27.6041C10.6091 27.5525 10.533 27.4684 10.4913 27.3664C10.4497 27.2644 10.4451 27.1511 10.4783 27.0461L10.6956 26.3658C10.6067 26.3663 10.5194 26.3416 10.444 26.2945C10.3685 26.2475 10.3078 26.1801 10.269 26.1001C10.2304 26.0201 10.2152 25.9307 10.2251 25.8423C10.235 25.754 10.2697 25.6702 10.3252 25.6007L11.4086 24.2242C11.477 24.1375 11.5737 24.0776 11.6817 24.0548C11.7898 24.032 11.9024 24.0478 12 24.0995C12.0975 24.1513 12.1737 24.2358 12.2154 24.338C12.257 24.4403 12.2614 24.554 12.2279 24.6592L12.1666 24.8489L12.6821 24.1966C12.7505 24.1108 12.8466 24.0516 12.954 24.0291C13.0614 24.0067 13.1732 24.0225 13.2702 24.0738C13.3673 24.1248 13.4435 24.2082 13.4856 24.3094C13.5278 24.4107 13.5332 24.5235 13.501 24.6284L12.913 26.5138L13.8935 25.269C13.9658 25.1779 14.0693 25.1168 14.184 25.0975C14.2987 25.0781 14.4165 25.1019 14.5148 25.1642C14.613 25.2265 14.6847 25.323 14.716 25.435C14.7474 25.547 14.7362 25.6667 14.6846 25.7709L14.5312 26.0774C14.6094 26.0449 14.6948 26.0336 14.7788 26.0446C14.8628 26.0556 14.9424 26.0886 15.0095 26.1402C15.1073 26.2175 15.1705 26.3305 15.1851 26.4543C15.1998 26.5781 15.1647 26.7026 15.0876 26.8006L12.5239 30.0566C12.4737 30.1228 12.4068 30.1744 12.33 30.2061Z" fill="#67D4F1"/>
<path fill-rule="evenodd" clip-rule="evenodd" d="M27.5593 38.3799C27.4675 38.418 27.366 38.4261 27.2693 38.403C27.1725 38.3799 27.0856 38.3268 27.021 38.2512C26.9563 38.1757 26.9172 38.0816 26.9093 37.9825C26.9014 37.8834 26.925 37.7843 26.9769 37.6995L29.047 34.1939L27.1413 36.6172C27.0672 36.7112 26.9602 36.7735 26.8419 36.7914C26.7235 36.8094 26.6028 36.7816 26.5042 36.7138C26.4056 36.6461 26.3364 36.5434 26.3108 36.4266C26.2852 36.3097 26.305 36.1875 26.3663 36.0848L28.0006 33.3459L25.9299 35.9749C25.8606 36.0627 25.7622 36.1229 25.6525 36.1448C25.5428 36.1668 25.4289 36.1489 25.3311 36.0945C25.2334 36.0401 25.1581 35.9527 25.119 35.8479C25.0798 35.7431 25.0792 35.6278 25.1172 35.5225L25.4168 34.6984L24.563 35.7812C24.4948 35.8679 24.3983 35.928 24.2904 35.9508C24.1825 35.9737 24.0699 35.9579 23.9725 35.9063C23.875 35.8546 23.7987 35.7703 23.7571 35.6682C23.7154 35.566 23.7109 35.4525 23.7445 35.3474L24.1071 34.2226L20.5211 38.7745C20.4498 38.8666 20.347 38.9291 20.2323 38.9499C20.1177 38.9706 19.9995 38.9482 19.9004 38.8868C19.8013 38.8257 19.7284 38.7298 19.6959 38.618C19.6634 38.5061 19.6736 38.3861 19.7245 38.2813L21.5008 34.5049L18.5555 38.245C18.4038 38.436 18.132 38.48 17.9281 38.3465C17.7243 38.2129 17.6557 37.9458 17.7704 37.7305L19.8536 33.838L18.9678 34.9627C18.9033 35.0451 18.8131 35.1037 18.7116 35.1291C18.6102 35.1546 18.5031 35.1456 18.4073 35.1035C18.3115 35.0614 18.2325 34.9885 18.1827 34.8965C18.1329 34.8045 18.1151 34.6985 18.1323 34.5952L18.4364 32.728L16.9043 34.6729C16.8348 34.7607 16.7364 34.821 16.6266 34.8429C16.5167 34.8648 16.4027 34.8468 16.3049 34.7922C16.2071 34.7377 16.132 34.65 16.093 34.5451C16.0539 34.4401 16.0536 34.3247 16.092 34.2194L16.3822 33.4218L11.6139 39.4759C11.538 39.5647 11.4318 39.6222 11.316 39.6371C11.2002 39.6521 11.0829 39.6235 10.9869 39.557C10.8909 39.4904 10.8231 39.3906 10.7965 39.2769C10.7699 39.1632 10.7865 39.0436 10.843 38.9414L12.0336 36.997L10.283 39.218C10.2096 39.311 10.104 39.3729 9.98701 39.3914C9.87007 39.41 9.75044 39.3838 9.65194 39.3181C9.55344 39.2524 9.48329 39.152 9.45547 39.0369C9.42766 38.9218 9.4442 38.8005 9.50182 38.697L12.3832 33.5392L9.49194 37.2098C9.41758 37.3039 9.3101 37.3661 9.19143 37.3837C9.07277 37.4013 8.95186 37.373 8.85336 37.3045C8.75487 37.236 8.68621 37.1326 8.66139 37.0152C8.63657 36.8978 8.65746 36.7754 8.7198 36.6729L10.5031 33.7574C10.4333 33.8414 10.3365 33.8985 10.2292 33.919C10.122 33.9395 10.0109 33.9221 9.91507 33.8699C9.8192 33.8176 9.74444 33.7337 9.70356 33.6324C9.66269 33.5312 9.65823 33.4189 9.69095 33.3147L10.0624 32.0364L8.90394 33.5055C8.83736 33.5898 8.74396 33.6489 8.63923 33.6728C8.53451 33.6967 8.42475 33.6841 8.32817 33.6371C8.23157 33.59 8.15396 33.5113 8.1082 33.414C8.06243 33.3167 8.05124 33.2068 8.07649 33.1023L8.44714 31.5819L7.2944 33.0548C7.16512 33.2193 6.94223 33.2786 6.74763 33.1998C6.65303 33.1615 6.57343 33.0935 6.52083 33.0061C6.46822 32.9186 6.44547 32.8164 6.45599 32.7149L6.62106 31.1272L6.53396 31.2372C6.43303 31.3773 6.26271 31.451 6.09134 31.4288C6.00713 31.4178 5.92747 31.3842 5.86073 31.3317C5.79399 31.2791 5.74264 31.2096 5.7121 31.1303C5.68158 31.051 5.67311 30.965 5.68759 30.8813C5.70206 30.7975 5.73894 30.7193 5.79431 30.6549L6.88545 29.2614C6.94856 29.1812 7.03599 29.1238 7.13459 29.0976C7.23319 29.0715 7.33761 29.0781 7.43212 29.1165C7.52673 29.1547 7.60634 29.2227 7.65894 29.3102C7.71155 29.3976 7.73429 29.4998 7.72375 29.6013L7.55878 31.189L9.04685 29.2989C9.11343 29.2146 9.20685 29.1556 9.31159 29.1317C9.41632 29.1078 9.52609 29.1204 9.62266 29.1675C9.71935 29.2144 9.79705 29.293 9.84282 29.3902C9.88858 29.4875 9.89965 29.5975 9.87417 29.7019L9.50625 31.2258L10.8184 29.5591C10.8859 29.4728 10.9814 29.4127 11.0885 29.3892C11.1955 29.3657 11.3074 29.3802 11.4049 29.4303C11.5024 29.4804 11.5794 29.5629 11.6226 29.6636C11.6658 29.7643 11.6726 29.8769 11.6417 29.9821L11.272 31.2631L14.6867 26.9274C14.7617 26.8349 14.8689 26.7743 14.9867 26.7576C15.1045 26.7409 15.2243 26.7694 15.322 26.8373C15.4197 26.9053 15.4881 27.0077 15.5134 27.124C15.5387 27.2403 15.5191 27.3619 15.4584 27.4643L13.68 30.3783L15.3368 28.275C15.4102 28.1823 15.5158 28.1206 15.6326 28.1022C15.7494 28.0838 15.8688 28.1099 15.9672 28.1755C16.0655 28.2411 16.1356 28.3413 16.1635 28.4562C16.1914 28.571 16.1752 28.6922 16.1179 28.7956L13.2366 33.9539L16.2342 30.1484C16.3089 30.0552 16.4161 29.994 16.5343 29.977C16.6525 29.96 16.7727 29.9885 16.8705 30.0568C16.9685 30.1249 17.0369 30.2277 17.062 30.3444C17.087 30.461 17.0668 30.5828 17.0055 30.6851L15.8187 32.6262L17.477 30.5214C17.6202 30.3405 17.8734 30.291 18.0748 30.4034C18.2762 30.5158 18.3667 30.7572 18.2886 30.9742L17.9986 31.7716L18.8309 30.7161C18.8954 30.6337 18.9854 30.5752 19.0869 30.5497C19.1883 30.5243 19.2954 30.5334 19.3911 30.5756C19.4868 30.6176 19.5659 30.6903 19.6157 30.7822C19.6656 30.8742 19.6833 30.9801 19.6663 31.0833L19.3623 32.9509L22.4284 29.0576C22.5016 28.966 22.6063 28.9051 22.722 28.8865C22.8378 28.868 22.9562 28.8933 23.0543 28.9575C23.1524 29.0216 23.2231 29.12 23.2525 29.2335C23.282 29.3469 23.2681 29.4673 23.2135 29.5711L21.1299 33.4652L23.3217 30.6824C23.3926 30.5894 23.4956 30.5261 23.6106 30.5048C23.7255 30.4835 23.8443 30.5057 23.9438 30.5671C24.0433 30.6287 24.1163 30.725 24.1487 30.8374C24.1811 30.9498 24.1705 31.0702 24.119 31.1752L22.3408 34.9524L24.9827 31.5993C25.0511 31.5131 25.1475 31.4535 25.2552 31.431C25.3629 31.4084 25.4751 31.4242 25.5723 31.4757C25.6696 31.5273 25.7457 31.6113 25.7875 31.7132C25.8293 31.8151 25.8342 31.9284 25.8012 32.0334L25.439 33.1589L26.5003 31.8128C26.5697 31.7248 26.6681 31.6645 26.7779 31.6425C26.8877 31.6205 27.0018 31.6383 27.0997 31.6927C27.1975 31.7473 27.2726 31.8349 27.3117 31.9399C27.3508 32.0448 27.3513 32.1603 27.313 32.2655L27.0139 33.0881L31.7734 27.0444C31.8474 26.9504 31.9544 26.8881 32.0727 26.8702C32.191 26.8522 32.3117 26.8799 32.4103 26.9477C32.5088 27.0155 32.5779 27.1182 32.6035 27.2351C32.6291 27.352 32.6092 27.4742 32.548 27.577L30.914 30.3158L32.6607 28.0859C32.7348 27.9927 32.8414 27.931 32.9592 27.9132C33.0769 27.8953 33.197 27.9228 33.2953 27.99C33.3937 28.0571 33.4629 28.159 33.4891 28.2752C33.5154 28.3914 33.4966 28.5131 33.4367 28.616L31.3679 32.1226L34.3914 28.2853C34.4923 28.1452 34.6625 28.0712 34.834 28.0937C34.9182 28.1047 34.9979 28.1382 35.0647 28.1908C35.1315 28.2434 35.1828 28.313 35.2133 28.3923C35.2436 28.4716 35.2519 28.5576 35.2374 28.6413C35.223 28.7249 35.1862 28.8031 35.131 28.8676L27.7542 38.2328C27.7033 38.2981 27.6361 38.3488 27.5594 38.38L27.5593 38.3799Z" fill="#67D4F1"/>
<path fill-rule="evenodd" clip-rule="evenodd" d="M33.9444 38.0136C33.8631 38.0461 33.7744 38.0553 33.6882 38.0402C33.602 38.0251 33.5217 37.9863 33.4563 37.9281C33.3909 37.8699 33.343 37.7947 33.318 37.7108C33.293 37.6269 33.2919 37.5377 33.3147 37.4532L33.991 35.0469L32.0452 37.5164C31.9762 37.6036 31.8786 37.6635 31.7696 37.6858C31.6606 37.708 31.5473 37.691 31.4496 37.6378C31.352 37.5844 31.2764 37.4982 31.2362 37.3944C31.196 37.2906 31.1938 37.176 31.23 37.0707L32.0712 34.6379L30.8999 36.12C30.83 36.2076 30.7312 36.2673 30.6212 36.2886C30.5112 36.3098 30.3972 36.291 30.2997 36.2357C30.2023 36.1804 30.1278 36.0921 30.0896 35.9868C30.0513 35.8815 30.0519 35.766 30.0911 35.661L30.4846 34.6326C30.3973 34.63 30.3125 34.6031 30.2396 34.5551C30.1667 34.5071 30.1086 34.4397 30.0717 34.3606C30.0349 34.2815 30.0207 34.1936 30.0308 34.1069C30.041 34.0202 30.075 33.938 30.1291 33.8695L31.433 32.2145C31.5029 32.127 31.6018 32.0673 31.7118 32.0461C31.8218 32.0249 31.9357 32.0436 32.0332 32.0989C32.1307 32.1541 32.2054 32.2423 32.2437 32.3476C32.282 32.4529 32.2815 32.5684 32.2422 32.6734L32.0781 33.103L33.0566 31.8623C33.1255 31.775 33.2231 31.7149 33.3321 31.6926C33.4411 31.6703 33.5545 31.6873 33.6521 31.7406C33.7497 31.794 33.8253 31.8803 33.8655 31.984C33.9056 32.0878 33.9078 32.2024 33.8716 32.3076L33.0321 34.739L34.7153 32.6037C34.7827 32.5186 34.8775 32.4594 34.9836 32.4361C35.0896 32.4129 35.2004 32.427 35.2973 32.4761C35.3942 32.5253 35.4712 32.6065 35.5151 32.7059C35.559 32.8053 35.5673 32.9169 35.5384 33.0216L34.8627 35.426L35.5572 34.5397C35.6363 34.4472 35.748 34.3889 35.8691 34.3769C35.9901 34.365 36.1111 34.4003 36.2067 34.4755C36.3023 34.5507 36.3652 34.6599 36.3821 34.7804C36.399 34.9008 36.3686 35.0232 36.2974 35.1218L34.138 37.8633C34.0881 37.9298 34.0212 37.9817 33.9444 38.0136Z" fill="#3CADD9"/>
<path d="M51.2229 13.8418C49.8771 10.4338 46.8415 13.8913 45.2852 15.8941C44.4496 13.6174 42.549 9.89755 40.1912 13.27C39.2487 14.6194 39.9344 15.9292 40.3902 17.3246C41.1354 19.604 41.6004 20.1891 40.7446 21.5894C39.9139 19.8402 37.9644 19.0739 36.4942 21.0218C35.3785 22.4999 36.3485 23.6516 36.5265 25.2494C36.6747 26.5852 36.986 26.0801 36.3912 27.2149C35.5575 28.8028 35.6619 28.0933 34.5537 27.9072C28.7468 26.9294 35.3605 22.6989 34.0035 20.011C32.9899 18.0014 31.1998 18.919 30.0139 20.1205C29.2225 18.0208 29.544 17.8013 31.0321 15.6371C31.7909 14.5348 33.3646 12.9485 32.6309 11.457C31.1644 8.47381 28.6806 11.3022 27.277 13.2366C26.5166 11.0782 25.6204 7.93813 22.847 9.30549C20.4652 10.4799 21.4499 12.9069 22.3388 14.8905C20.3162 14.4901 17.815 14.3217 17.4292 16.8322C17.0896 19.0303 19.4196 19.2755 20.9647 19.6038C23.4656 20.1317 24.2579 20.1145 25.1468 21.8898C23.5199 22.0173 21.8186 22.9213 22.3509 24.8946C23.0302 27.4124 30.9642 26.8198 27.539 30.8523C24.7473 34.1376 23.7429 27.1468 21.0995 26.9223C18.9664 26.7431 18.211 28.613 18.4796 30.2691C17.0453 29.8779 16.8017 29.2145 15.8423 27.1987C15.2102 25.8712 14.7076 23.9468 12.9575 23.8728C9.40511 23.7225 10.2351 27.0165 11.142 29.2332C8.87213 28.8535 5.77173 28.5826 5.51992 31.3401C5.29535 33.7774 8.01 33.6139 9.615 33.9419C11.22 34.2696 10.9718 33.5458 10.4207 34.6464C10.0868 35.3158 9.26494 35.7091 8.92151 36.3886C8.04752 38.1198 8.83068 40.0956 11.0659 39.6644C12.1773 39.4517 12.8266 38.4335 13.5613 37.6998C14.354 36.9094 15.1238 35.4939 16.0814 34.8509C16.7692 34.8547 17.4526 34.9613 18.109 35.1671C18.0407 35.0754 16.4547 37.2481 17.656 38.4929C18.7297 39.6032 20.017 38.9487 21.0527 38.2976C22.9179 37.1262 23.1202 34.7703 25.0468 36.1696C25.9269 36.808 25.7914 36.1539 25.7628 36.0469C25.9628 36.6192 26.1914 37.181 26.4477 37.7303C26.7089 38.324 26.889 38.6932 27.0138 38.9244C26.8912 38.8721 26.7432 38.9735 26.6574 39.5739C26.4786 40.8235 25.6332 40.6113 25.4994 40.6392C23.9071 40.9711 22.3412 40.1295 20.8775 41.1178C19.608 41.9751 18.9321 43.9475 20.4729 44.9552C20.1278 44.7299 21.7575 45.3064 22.0035 45.3106C21.883 45.6751 21.6726 46.0034 21.3918 46.2651C21.3132 46.3428 21.2564 46.4064 21.2073 46.4614C21.146 46.4639 21.0849 46.4708 21.0246 46.4819C18.9358 46.8402 13.2364 44.5468 12.8519 48.5289C12.5699 51.4525 15.6867 50.2637 17.166 50.9731C17.3605 51.0069 17.5592 51.0111 17.7551 50.9853C17.4406 51.4853 16.381 52.6038 16.2385 52.8089C15.8116 53.4085 15.0523 54.0828 14.9738 54.8804C14.7816 56.8218 16.5325 57.57 18.1129 56.9679C19.2858 56.5208 20.2327 55.1384 21.0364 53.9601C21.8785 56.238 23.7659 59.8912 26.1124 56.5343C27.0551 55.1858 26.3688 53.8744 25.9135 52.4797C25.1691 50.2 24.7024 49.6155 25.5597 48.2146C26.3882 49.9527 28.3399 50.7301 29.81 48.7822C30.925 47.3045 29.9559 46.1525 29.7782 44.5544C29.6288 43.2191 29.3183 43.7239 29.9123 42.5894C30.746 41.0015 30.6417 41.7111 31.7499 41.8972C37.5599 42.8746 30.9407 47.1064 32.3 49.7933C33.3143 51.7998 35.1049 50.8798 36.289 49.6823C37.0811 51.7836 36.7604 52.0028 35.2714 54.1673C34.5123 55.2688 32.9389 56.8558 33.6727 58.3474C35.1447 61.3395 37.6243 58.5077 39.0268 56.5686C39.7873 58.7271 40.6839 61.8659 43.4565 60.4987C45.8398 59.3234 44.8579 56.8953 43.9633 54.9102C45.9921 55.3029 48.511 55.4634 48.8802 52.9684C49.2053 50.7701 46.9018 50.5255 45.3443 50.197C42.8436 49.6694 42.0511 49.6864 41.1623 47.9113C42.7901 47.7844 44.4895 46.8863 43.9582 44.9062C43.2826 42.3873 35.3433 42.9839 38.7703 38.9488C41.5594 35.6656 42.5673 42.6507 45.2096 42.8784C47.3483 43.0611 48.101 41.1889 47.83 39.5328C49.2635 39.9244 49.5071 40.5877 50.466 42.6019C51.103 43.9422 51.5968 45.8389 53.3511 45.9287C56.8729 46.1096 56.0758 42.8216 55.1797 40.6015C56.5294 40.8737 58.0033 41.1223 59.1279 40.5602C61.2035 39.5282 61.2659 37.1418 59.103 36.2079C58.2994 36.0911 57.496 35.975 56.6923 35.859C55.2339 35.647 55.4866 36.0717 55.6226 35.4472C55.9512 33.9412 58.4244 33.491 57.7929 31.4831C56.7087 28.0071 53.3299 31.4398 52.2161 32.6848C51.6333 33.4973 50.9725 34.251 50.2431 34.935C49.7812 34.9091 49.3227 34.8408 48.8733 34.7308C48.7674 34.5596 48.6452 34.399 48.5083 34.2515C48.5048 33.5093 49.4415 33.3247 49.16 32.2361C48.0487 27.9301 44.1649 33.1154 42.9689 33.7533C42.7098 33.924 42.4014 34.0039 42.0919 33.9807C41.7825 33.9574 41.4895 33.8323 41.2588 33.6248C40.9016 33.3675 39.0458 31.7748 39.173 30.8282C39.5434 28.0679 41.473 29.5258 43.6198 29.2242C45.4214 28.9703 48.3523 26.7403 45.9442 24.9194C45.9843 24.9489 43.7872 24.1802 43.9877 24.715C43.826 24.2823 45.3566 23.3169 45.2919 23.1876C46.8068 22.9518 48.8848 23.8902 50.3744 23.7201C52.6492 23.4625 54.9752 20.7287 52.1675 19.2235C51.4741 18.8522 50.6771 19.0275 49.931 18.8852C48.1136 18.5381 48.4197 19.4588 49.3032 17.9704C50.0258 16.7404 51.8972 15.5424 51.2231 13.8417L51.2229 13.8418ZM47.4822 19.7154C48.273 19.7779 54.4009 20.0966 50.8758 22.7456C50.0576 23.3595 47.1681 22.1573 46.0889 22.3659C44.419 22.6894 44.149 23.4585 42.9472 24.9853C42.8372 25.1258 42.6548 25.4342 42.9714 25.4423C44.3026 25.4729 44.9353 27.6161 44.1564 28.2645C43.9577 28.4297 43.0162 28.2026 42.7505 28.2317C42.1442 28.2983 41.2623 27.9799 40.6733 28.2332C39.5487 28.7192 38.8232 30.2201 38.1104 31.1268C38.0296 31.2292 37.8971 31.3884 37.9736 31.5283C38.3412 32.4486 38.7099 33.3686 39.0805 34.2869C39.0799 34.3424 39.1161 34.391 39.1693 34.4056C40.3147 34.5712 41.7382 35.1041 42.8341 34.6585C43.3228 34.3249 43.7531 33.913 44.1077 33.4393C44.3519 33.208 44.8765 32.4331 45.1954 32.3537C45.7177 32.223 47.9575 34.0971 47.0957 34.9568C47.0436 35.0088 46.6198 35.4846 46.905 35.5258C49.0129 35.8303 49.3248 36.1075 50.8231 35.1477C51.9254 34.4427 52.7933 31.9858 54.0302 31.5748C55.4991 31.0897 56.3032 33.0539 55.8109 34.3191C55.3595 34.9941 54.8141 35.6013 54.1913 36.1225C54.1375 36.1834 53.904 36.5418 54.1194 36.5682L58.091 37.1435C59.1855 39.3084 59.0777 40.2022 57.7672 39.8257L56.5698 39.6473C55.9014 39.6007 55.2373 39.5049 54.5829 39.3607C54.2597 39.3144 53.3172 39.8348 53.5174 40.2499C54.2022 41.6876 55.3598 42.7054 53.7378 43.4824C52.0699 44.2805 52.1129 42.8408 51.4117 41.3678C50.1456 38.7064 50.2897 38.7393 47.371 38.3151C47.0654 38.2719 46.0824 38.8005 46.306 39.2044C47.1598 40.7684 45.044 40.935 44.2233 40.3406C43.6004 39.8853 43.5923 38.6134 43.0044 38.1088C42.1102 37.3408 40.9218 37.3864 39.6354 37.2004C39.4277 37.2071 39.2251 37.2666 39.0467 37.3732C38.8683 37.4799 38.72 37.6303 38.6158 37.8101L36.9408 39.9658C36.8127 40.095 36.6057 40.2905 36.6857 40.4908C37.171 41.7059 37.4016 42.8514 38.3633 43.5418C39.0033 44.0014 40.1936 43.7238 40.819 44.2045C41.6345 44.8312 42.4544 47.3431 40.6513 46.8573C40.3099 46.7643 39.4265 47.3466 39.5861 47.7462C40.6772 50.4776 40.6379 50.3466 43.5033 50.9501C44.0819 51.0719 45.9091 51.111 46.3321 51.5444C49.9284 55.2497 44.0005 53.7585 43.3542 53.6218C43.012 53.5496 42.1246 54.0986 42.2892 54.5107C42.5689 55.2109 45.3306 60.6005 41.4114 58.7926C40.7893 58.5047 40.1882 55.7304 39.9215 55.0626C39.7783 54.7043 38.9249 55.5008 38.8376 55.6276C38.3188 56.381 35.1381 61.6659 35.0049 55.7709C34.988 55.0248 36.8898 53.0628 37.2611 52.4915C38.5093 50.5727 38.13 50.5802 37.2168 48.2942C37.077 47.9441 36.2167 48.721 36.1334 48.8579C35.5549 50.1032 34.7005 49.5655 33.5702 47.2439L34.234 46.1549C34.4498 45.5268 35.3409 44.8625 35.4228 44.2038C35.5456 43.2417 34.685 41.9555 34.3194 41.0403C34.2993 41.0185 34.274 41.002 34.246 40.9925C34.2179 40.9829 34.1879 40.9806 34.1587 40.9856L31.2266 40.5593C30.9126 40.4743 30.4679 40.8285 30.2955 41.0477C29.6514 41.8651 28.4154 42.8961 28.2389 43.9165C28.1086 44.6706 28.9158 45.6113 28.8944 46.3806C28.8902 46.5527 29.2424 47.2066 29.1545 47.3574C28.9675 47.6763 26.6585 47.5008 26.4765 46.8198C26.3654 46.4007 25.5771 47.0384 25.4576 47.1892C23.897 49.1701 23.4774 49.059 24.1232 51.321C24.5905 52.9603 26.1523 54.9649 24.1584 55.3434C22.3117 55.6947 22.476 54.1054 21.9442 52.4741C21.8405 52.1584 21.0219 52.8262 20.9492 52.9185C19.7098 54.4919 19.2032 56.5792 17.5505 54.7122C16.0164 52.9797 17.5676 52.1693 18.8463 50.5424C18.9673 50.393 19.1303 50.1104 18.8214 50.0857C18.0302 50.0233 11.9023 49.7046 15.4278 47.0555C16.2455 46.4418 19.1354 47.6443 20.2147 47.4352C21.8844 47.1123 22.1534 46.3431 23.3559 44.8159C23.467 44.6765 23.6487 44.3674 23.3313 44.36C22 44.329 21.3679 42.1851 22.1474 41.5361C22.3456 41.3715 23.2881 41.5977 23.5537 41.5697C24.16 41.503 25.0423 41.8212 25.6296 41.5672C26.7547 41.0824 27.4797 39.5803 28.1929 38.6745C28.2743 38.5723 28.4061 38.4128 28.3302 38.2727C27.9625 37.3523 27.5934 36.433 27.2232 35.5142C27.2235 35.4874 27.2149 35.4612 27.1988 35.4397C27.1826 35.4183 27.1599 35.4028 27.134 35.3956C25.9887 35.2304 24.5653 34.6969 23.4693 35.1431C22.9801 35.4764 22.5494 35.8883 22.1948 36.3622C21.951 36.5925 21.4268 37.3671 21.1067 37.4472C20.5839 37.5788 18.3477 35.7089 19.2068 34.8451C19.26 34.7923 19.6827 34.317 19.3974 34.2758C17.2896 33.9716 16.9777 33.6944 15.48 34.6536C14.3769 35.3589 13.5091 37.8158 12.2722 38.2268C10.8035 38.7123 9.99926 36.7477 10.4916 35.4829C10.9431 34.8078 11.4884 34.2004 12.1112 33.6792C12.1649 33.6181 12.3985 33.2601 12.183 33.2333C11.4432 33.1286 8.76242 33.2037 8.21112 32.6572C4.35071 28.8651 11.0296 30.3366 11.7219 30.4361C12.0446 30.4827 12.9875 29.9621 12.7869 29.5472C12.1019 28.109 10.9449 27.0911 12.567 26.3145C14.2348 25.5163 14.1917 26.9557 14.8929 28.4287C16.1591 31.0901 16.0159 31.0573 18.9345 31.4811C19.2392 31.5256 20.2231 30.9961 19.9995 30.5921C19.1456 29.0278 21.2615 28.8616 22.0823 29.4561C22.7052 29.9113 22.7124 31.1836 23.3003 31.6881C24.1955 32.4558 25.3825 32.4107 26.6701 32.5962C27.0923 32.5823 27.4775 32.3517 27.6896 31.9861L29.3647 29.8308C29.4929 29.7017 29.6996 29.5053 29.6199 29.3058C29.1345 28.0908 28.9038 26.9448 27.9425 26.2555C27.3022 25.7952 26.1118 26.0737 25.4877 25.5926C24.671 24.9653 23.8506 22.4523 25.6542 22.9393C25.9955 23.0319 26.879 22.45 26.7192 22.05C25.6282 19.3186 25.6676 19.4501 22.8022 18.8465C22.2267 18.7263 20.4006 18.689 19.9757 18.2499C16.3796 14.545 22.3075 16.0363 22.9533 16.173C23.2957 16.2453 24.1833 15.6956 24.0187 15.2835C23.7392 14.5838 20.9774 9.19419 24.8972 11.0014C25.5195 11.2897 26.1204 14.0636 26.3872 14.7313C26.5305 15.0902 27.3831 14.2939 27.4702 14.1667C27.9911 13.4139 31.1719 8.12899 31.3067 14.0283C31.3232 14.774 29.4217 16.736 29.0504 17.3074C27.803 19.2259 28.1817 19.2189 29.0948 21.505C29.2347 21.855 30.095 21.0781 30.1779 20.9404C30.7563 19.6948 31.6114 20.2342 32.7429 22.5588L32.0786 23.6466C31.8632 24.2756 30.9718 24.9392 30.8902 25.5986C30.7674 26.5608 31.6277 27.8462 31.9933 28.7614C32.0346 28.8053 32.0948 28.8258 32.154 28.8161L35.0775 29.2462C35.3913 29.3308 35.8359 28.9767 36.0083 28.7574C36.6524 27.94 37.8892 26.9088 38.0655 25.8876C38.196 25.1342 37.3889 24.1938 37.4095 23.4245C37.4144 23.2522 37.0616 22.5989 37.1503 22.4478C37.3372 22.1285 39.6457 22.3051 39.8262 22.9858C39.9376 23.4047 40.7273 22.7679 40.8463 22.6159C42.4067 20.6351 42.8269 20.7474 42.1806 18.4842C41.7134 16.8449 40.1515 14.8402 42.1454 14.4618C43.9923 14.1104 43.8279 15.6998 44.3596 17.331C44.4635 17.6467 45.2821 16.9789 45.3547 16.8866C46.594 15.3132 47.1006 13.2259 48.7534 15.0929C50.2875 16.8257 48.7363 17.636 47.4575 19.2628C47.3362 19.4114 47.1721 19.6911 47.4778 19.7171L47.4822 19.7154Z" fill="#262626"/>
<path d="M29.9605 36.3717C31.5167 40.3152 37.5799 37.0888 36.3414 33.429C34.5764 29.6177 28.5256 32.7364 29.9605 36.3717ZM33.2441 37.2441C32.7671 37.169 32.3178 36.9712 31.9404 36.67C31.5631 36.3687 31.2706 35.9745 31.0917 35.526C30.5743 34.1996 31.234 32.3841 32.9118 32.5419C33.4151 32.5978 33.8941 32.7882 34.2985 33.0931C34.7028 33.398 35.0176 33.8062 35.2098 34.2748C35.6819 35.6717 35.0759 37.5099 33.2441 37.2441Z" fill="#262626"/>
</svg>
