<svg width="65" height="39" viewBox="0 0 65 39" fill="none" xmlns="http://www.w3.org/2000/svg">
<path fill-rule="evenodd" clip-rule="evenodd" d="M33.9666 7.25644C34.0055 7.30345 34.0158 7.35667 33.9959 7.40748L33.7865 7.95219L33.2218 9.44093L33.2276 9.44431L32.9363 10.2039C32.7385 10.083 32.5171 9.94187 32.2668 9.77708C31.9876 9.59555 31.6963 9.42092 31.4344 9.24262L31.4983 9.0848C31.478 9.06507 31.4642 9.04352 31.4575 9.02092L31.3122 8.47306C31.2636 8.49523 31.2065 8.51044 31.1458 8.51745C31.085 8.52446 31.0223 8.52307 30.9626 8.51339C30.8795 8.5003 30.8056 8.47251 30.7513 8.43393C30.697 8.39534 30.665 8.3479 30.6598 8.29827L30.6602 8.27814C30.6636 8.25888 30.6695 8.23982 30.6775 8.22103L31.0559 7.39764C31.0794 7.34481 31.1342 7.29839 31.2107 7.26645C31.2873 7.2345 31.3808 7.21903 31.4751 7.22272C31.5695 7.22574 31.6592 7.24745 31.7292 7.28418C31.7991 7.32092 31.845 7.37044 31.8591 7.42442L31.9756 7.84124L32.3194 7.09842C32.3465 7.03814 32.4135 6.98641 32.506 6.95436C32.5985 6.92231 32.7091 6.91251 32.814 6.92705C32.9194 6.94335 33.0097 6.98253 33.0662 7.0364C33.1227 7.09028 33.1409 7.15467 33.117 7.21611L32.7618 8.07322L32.4068 8.93013L32.2202 9.3939L32.43 8.94356L32.8489 8.04289L33.1926 7.29334C33.2173 7.24479 33.2675 7.20187 33.3363 7.17057C33.4052 7.13927 33.4892 7.12114 33.5767 7.11871L33.5826 7.11532C33.6199 7.11662 33.657 7.12012 33.6932 7.12536C33.8142 7.14289 33.9147 7.19102 33.9666 7.25644Z" fill="#67D4F1"/>
<path fill-rule="evenodd" clip-rule="evenodd" d="M36.2716 8.1173C36.3104 8.16433 36.3208 8.21752 36.301 8.26834L36.0912 8.81285L35.5268 10.3017L35.5324 10.305L35.2419 11.0644C35.0439 10.9433 34.8227 10.8021 34.5722 10.6375C34.2929 10.4559 34.0018 10.2812 33.7399 10.1032L33.8039 9.94531C33.7834 9.92546 33.7695 9.90395 33.7633 9.88127L33.6175 9.33345C33.569 9.35568 33.512 9.37094 33.4513 9.37797C33.3905 9.385 33.3278 9.38361 33.2682 9.3739C33.1851 9.36077 33.1113 9.33295 33.057 9.29434C33.0028 9.25573 32.9708 9.20828 32.9657 9.15866L32.9654 9.13849C32.9689 9.11923 32.9747 9.10021 32.983 9.0813L33.3615 8.25787C33.385 8.20507 33.4398 8.15869 33.5164 8.12679C33.5929 8.09489 33.6865 8.07948 33.7807 8.08323C33.8751 8.08624 33.9648 8.10794 34.0348 8.14468C34.1047 8.18142 34.1506 8.23094 34.1647 8.28493L34.2814 8.70159L34.6247 7.95881C34.6518 7.89852 34.7189 7.84679 34.8114 7.81476C34.904 7.78274 35.0146 7.77297 35.1196 7.78756C35.2249 7.80382 35.3153 7.84299 35.3717 7.89686C35.4281 7.95073 35.4463 8.01512 35.4223 8.07654L35.0671 8.93357L34.7121 9.79048L34.5258 10.2544L34.7355 9.80407L35.1548 8.90328L35.498 8.15373C35.5227 8.10519 35.573 8.06229 35.6418 8.03097C35.7107 7.99966 35.7947 7.98147 35.8822 7.97894L35.8878 7.97571C35.9254 7.97709 35.9623 7.98047 35.9988 7.98587C36.1195 8.00359 36.2199 8.05172 36.2717 8.11726L36.2716 8.1173ZM28.7032 23.9136C28.742 23.9606 28.7524 24.0138 28.7326 24.0646L28.5228 24.6091L27.9585 26.0981L27.9641 26.1013L27.6735 26.8607C27.4755 26.7396 27.2543 26.5984 27.0041 26.4339C26.7246 26.2522 26.4335 26.0775 26.1715 25.8994L26.2355 25.7416C26.2153 25.7219 26.2011 25.7002 26.195 25.6776L26.0492 25.1298C26.0007 25.152 25.9437 25.1672 25.883 25.1743C25.8223 25.1813 25.7595 25.1799 25.6999 25.1702C25.6168 25.1571 25.5429 25.1293 25.4887 25.0906C25.4344 25.052 25.4025 25.0046 25.3974 24.9549L25.3972 24.9348C25.4006 24.9155 25.4064 24.8965 25.4147 24.8776L25.7931 24.0541C25.8167 24.0013 25.8715 23.955 25.9481 23.9231C26.0246 23.8912 26.1182 23.8758 26.2124 23.8795C26.3068 23.8825 26.3965 23.9042 26.4665 23.941C26.5364 23.9777 26.5823 24.0272 26.5964 24.0812L26.7131 24.4979L27.0563 23.7551C27.0835 23.6948 27.1505 23.6431 27.2431 23.611C27.3356 23.579 27.4463 23.5692 27.5512 23.5838C27.6565 23.6001 27.7469 23.6393 27.8033 23.6931C27.8598 23.747 27.8779 23.8114 27.8539 23.8728L27.4987 24.7298L27.1438 25.5868L26.9574 26.0507L27.1672 25.6003L27.5864 24.6995L27.9296 23.95C27.9544 23.9015 28.0047 23.8586 28.0735 23.8273C28.1424 23.7959 28.2264 23.7778 28.3139 23.7752L28.3195 23.772C28.3571 23.7734 28.3939 23.7767 28.4304 23.7821C28.5512 23.7999 28.6515 23.848 28.7032 23.9136ZM50.3447 26.093C50.2931 26.1227 50.2287 26.1439 50.1582 26.1546C50.0877 26.1652 50.0136 26.1648 49.9435 26.1535C49.8733 26.1422 49.8096 26.1203 49.7589 26.0901C49.7081 26.06 49.6722 26.0225 49.6547 25.9817L49.2835 25.1207L48.7768 26.2103C48.7518 26.2636 48.6954 26.3102 48.6173 26.3421C48.5392 26.374 48.4444 26.3892 48.349 26.3851C48.2536 26.381 48.1637 26.3578 48.0947 26.3196C48.0256 26.2814 47.9818 26.2306 47.9706 26.1757L47.8508 25.5573L47.4774 26.3608C47.4491 26.4217 47.3801 26.4736 47.2855 26.5051C47.191 26.5366 47.0786 26.5451 46.9732 26.5288C46.8678 26.5125 46.7779 26.4727 46.7233 26.4181C46.6687 26.3635 46.6539 26.2986 46.6822 26.2378L47.6176 24.2189C47.643 24.1658 47.6995 24.1194 47.7776 24.0877C47.8557 24.056 47.9504 24.0409 48.0456 24.0451C48.1408 24.0491 48.2306 24.0722 48.2996 24.1103C48.3685 24.1485 48.4124 24.1993 48.4235 24.254L48.5454 24.8726L48.9003 24.1071C48.9241 24.0564 48.9764 24.0116 49.0489 23.9799C49.1215 23.9482 49.2102 23.9312 49.3012 23.9317C49.3922 23.9321 49.4803 23.95 49.5519 23.9824C49.6234 24.0149 49.6743 24.0601 49.6966 24.1111L50.0684 24.9722L50.2901 24.4952C50.3216 24.4366 50.3912 24.3873 50.4843 24.3576C50.5773 24.3279 50.6867 24.3202 50.7894 24.336C50.8922 24.3519 50.9803 24.3901 51.0353 24.4426C51.0903 24.4952 51.108 24.5579 51.0846 24.6178L50.45 25.9851C50.4326 26.0259 50.3961 26.0633 50.3447 26.093ZM43.9763 23.736C43.8629 23.8019 43.6937 23.8235 43.5428 23.7915C43.392 23.7595 43.287 23.6798 43.2742 23.5876L43.2241 23.2226L42.9714 23.7663C42.9386 23.8514 42.8272 23.9194 42.682 23.9432C42.6105 23.9548 42.535 23.9551 42.4633 23.9441C42.3916 23.933 42.3264 23.911 42.2745 23.8803C42.2227 23.8496 42.1863 23.8114 42.1691 23.7697C42.1519 23.728 42.1545 23.6844 42.1768 23.6435L43.0397 21.7844C43.0649 21.7305 43.1222 21.6835 43.2015 21.6515C43.2808 21.6196 43.377 21.6048 43.4733 21.6097C43.5696 21.6146 43.6598 21.6389 43.7282 21.6784C43.7966 21.7179 43.8387 21.77 43.8472 21.8256L43.8981 22.1913L43.9151 22.1575C43.9467 22.099 44.0164 22.0498 44.1094 22.0202C44.2024 21.9906 44.3117 21.983 44.4143 21.9989C44.5168 22.0146 44.6049 22.0527 44.66 22.1051C44.7151 22.1575 44.733 22.2201 44.7099 22.28L44.0822 23.6291C44.0642 23.6696 44.0276 23.7065 43.9764 23.736L43.9763 23.736ZM55.3776 16.8852C55.3249 16.9155 55.2591 16.937 55.187 16.9474C55.1148 16.9578 55.0392 16.9568 54.968 16.9443C54.8969 16.9319 54.8329 16.9086 54.7829 16.8769C54.7328 16.8451 54.6986 16.8062 54.6839 16.7641L54.4973 16.2318L54.0848 17.1201C54.0603 17.1719 54.0061 17.2175 53.9311 17.2492C53.8561 17.281 53.7647 17.2972 53.6717 17.2952C53.5787 17.2932 53.4896 17.273 53.419 17.238C53.3484 17.2029 53.3005 17.1551 53.2831 17.1023L53.0228 16.2892L52.5251 17.361C52.499 17.4169 52.4386 17.4653 52.3551 17.4973C52.2717 17.5293 52.1709 17.5426 52.0716 17.5349C51.9724 17.5271 51.8814 17.4986 51.8159 17.4548C51.7504 17.4111 51.7148 17.355 51.7159 17.2972L51.7155 17.23L51.5894 17.5046C51.5571 17.5627 51.4873 17.6114 51.3945 17.6406C51.3017 17.6698 51.193 17.6773 51.091 17.6615C50.9889 17.6457 50.9012 17.6079 50.8461 17.5558C50.791 17.5038 50.7726 17.4415 50.7948 17.3818L51.766 15.2934C51.792 15.2376 51.8523 15.1892 51.9357 15.1572C52.0191 15.1252 52.1199 15.1119 52.2191 15.1197C52.3183 15.1275 52.4092 15.1559 52.4747 15.1996C52.5402 15.2433 52.5759 15.2993 52.5751 15.3571L52.5751 15.4245L52.7005 15.1502C52.7249 15.0982 52.7791 15.0525 52.8543 15.0205C52.9294 14.9886 53.0212 14.9723 53.1144 14.9744C53.2077 14.9765 53.297 14.9969 53.3676 15.0321C53.4383 15.0674 53.4861 15.1154 53.5033 15.1684L53.7628 15.981L54.1546 15.1317C54.1788 15.0801 54.2324 15.0347 54.3068 15.0029C54.3813 14.9711 54.4721 14.9548 54.5647 14.9565C54.6572 14.9582 54.7461 14.9778 54.8169 15.0123C54.8878 15.0467 54.9364 15.0939 54.9551 15.1462L55.1436 15.6846C55.1842 15.6287 55.2602 15.5838 55.3561 15.5592C55.4521 15.5346 55.5607 15.532 55.6597 15.5521C55.8658 15.5938 55.9794 15.7208 55.9191 15.8418L55.4837 16.7815C55.4645 16.8209 55.4282 16.8566 55.3776 16.8852Z" fill="#67D4F1"/>
<path fill-rule="evenodd" clip-rule="evenodd" d="M53.0164 20.2965C52.9615 20.328 52.8923 20.3499 52.8167 20.3598C52.7412 20.3696 52.6624 20.3669 52.5894 20.3521C52.5164 20.3372 52.4521 20.3108 52.4039 20.2758C52.3557 20.2408 52.3256 20.1987 52.3171 20.1543L52.1849 19.473L51.8536 20.1852C51.8279 20.24 51.769 20.2878 51.6875 20.3197C51.606 20.3516 51.5075 20.3655 51.4097 20.359C51.3119 20.3526 51.2214 20.3262 51.1545 20.2845C51.0876 20.2429 51.0488 20.1887 51.0451 20.132L50.998 19.2746L50.7796 19.7433C50.7516 19.801 50.6869 19.8504 50.5986 19.8817C50.5102 19.913 50.4046 19.9239 50.303 19.9122C50.2013 19.9005 50.111 19.8671 50.0501 19.8187C49.9892 19.7702 49.9623 19.7103 49.9746 19.6509L50.1078 19.0678L49.9835 19.341C49.9565 19.4001 49.891 19.4508 49.8009 19.4827C49.7107 19.5146 49.6027 19.5252 49.4993 19.5123C49.396 19.4994 49.3052 19.464 49.2457 19.4136C49.1861 19.3631 49.1625 19.3014 49.1796 19.2412L49.3454 18.6544L49.2084 18.9498C49.1797 19.0078 49.1139 19.0573 49.0244 19.0884C48.9348 19.1194 48.8281 19.1297 48.726 19.117C48.6238 19.1044 48.5338 19.0698 48.4742 19.0202C48.4146 18.9707 48.3898 18.9099 48.4049 18.8503L48.7466 17.6361L48.3414 18.5093C48.3145 18.5675 48.2503 18.6175 48.1619 18.6494C48.0735 18.6813 47.9675 18.6927 47.8652 18.6812C47.7628 18.6697 47.6718 18.6363 47.6105 18.5876C47.5492 18.5389 47.5222 18.4786 47.535 18.4189L47.9985 16.2583L47.095 18.203C47.0704 18.2539 47.0173 18.2986 46.9438 18.33C46.8704 18.3615 46.7809 18.378 46.6895 18.3768C46.598 18.3757 46.5099 18.357 46.4389 18.3237C46.3679 18.2904 46.3181 18.2445 46.2974 18.193L45.9696 17.3167L45.4387 18.4607C45.4227 18.5026 45.3872 18.5411 45.3362 18.5723C45.2852 18.6035 45.2205 18.6261 45.149 18.6378C45.0777 18.6495 45.0022 18.6498 44.9305 18.6387C44.8589 18.6277 44.7938 18.6056 44.7421 18.5749C44.6903 18.5442 44.6538 18.506 44.6366 18.4644C44.6193 18.4227 44.6219 18.3791 44.644 18.3382L45.6156 16.2434C45.6401 16.1925 45.6933 16.1478 45.7667 16.1163C45.8402 16.0848 45.9298 16.0683 46.0213 16.0695C46.1127 16.0707 46.2009 16.0893 46.2719 16.1226C46.3429 16.1559 46.3927 16.2019 46.4133 16.2534L46.7416 17.1297L48.7367 12.8296C48.7635 12.7714 48.8275 12.7213 48.9159 12.6893C49.0043 12.6574 49.1105 12.646 49.2129 12.6574C49.3153 12.6689 49.4063 12.7025 49.4676 12.7512C49.5289 12.7999 49.5559 12.8603 49.5431 12.9201L49.0791 15.0806L50.0582 12.9734C50.0877 12.9161 50.1536 12.8673 50.2427 12.8368C50.3319 12.8062 50.4376 12.7962 50.539 12.8087C50.6403 12.8212 50.7297 12.8553 50.7894 12.9042C50.8491 12.9531 50.8746 13.0132 50.8609 13.0725L50.5196 14.2869L50.6725 13.9586C50.6997 13.8996 50.7651 13.8489 50.8552 13.817C50.9454 13.7851 51.0533 13.7745 51.1567 13.7873C51.2601 13.8001 51.3511 13.8354 51.4106 13.8859C51.4702 13.9364 51.4938 13.9981 51.4765 14.0584L51.1308 15.2817C51.1971 15.258 51.2737 15.2456 51.3517 15.246C51.4297 15.2464 51.5058 15.2596 51.5713 15.2841C51.6368 15.3085 51.6889 15.3432 51.7216 15.384C51.7544 15.4249 51.7663 15.4703 51.756 15.5149L51.3182 17.4259C51.335 17.4254 51.3521 17.426 51.3689 17.4278C51.4668 17.4343 51.5574 17.4608 51.6243 17.5027C51.6911 17.5445 51.7297 17.5987 51.7331 17.6556L51.7803 18.513L51.9597 18.127C51.9851 18.0739 52.0417 18.0275 52.1198 17.9958C52.1979 17.9641 52.2927 17.9491 52.3879 17.9533C52.4832 17.9575 52.5729 17.9807 52.6418 18.0189C52.7107 18.0571 52.7545 18.1079 52.7656 18.1627L52.8989 18.8445L52.9623 18.7085C52.995 18.6232 53.1062 18.5553 53.2517 18.5316C53.323 18.5198 53.3986 18.5195 53.4703 18.5305C53.542 18.5416 53.6072 18.5636 53.6589 18.5944C53.7107 18.6251 53.7472 18.6633 53.7644 18.705C53.7816 18.7467 53.7789 18.7903 53.7566 18.8312L53.1257 20.1902C53.1067 20.2307 53.0688 20.2675 53.0164 20.2965Z" fill="#67D4F1"/>
<path fill-rule="evenodd" clip-rule="evenodd" d="M45.7553 20.357C45.7012 20.3882 45.6331 20.41 45.5587 20.4201C45.4843 20.4303 45.4065 20.4282 45.334 20.4143C45.2615 20.4003 45.1972 20.375 45.1482 20.3411C45.0992 20.3073 45.0674 20.2662 45.0565 20.2225L44.9496 19.7574L44.624 20.4574C44.5972 20.514 44.5352 20.5628 44.4498 20.5944C44.3644 20.6261 44.2617 20.6384 44.1616 20.629C44.0614 20.6197 43.9707 20.5894 43.9069 20.5438C43.8432 20.4983 43.8109 20.4407 43.8162 20.3822L43.974 18.8391L43.4098 20.0596C43.3828 20.1178 43.3186 20.1678 43.2302 20.1998C43.1418 20.2317 43.0357 20.2431 42.9333 20.2316C42.8309 20.2201 42.7399 20.1866 42.6787 20.1379C42.6174 20.0892 42.5905 20.0289 42.6033 19.9691L42.9101 18.5148L42.4038 19.6065C42.3759 19.6648 42.3105 19.7147 42.2211 19.7462C42.1316 19.7776 42.0247 19.7881 41.9222 19.7757C41.8197 19.7632 41.7294 19.7286 41.6695 19.679C41.6096 19.6294 41.5848 19.5685 41.6 19.5086L41.6748 19.226L41.6545 19.2694C41.6275 19.3265 41.5645 19.3756 41.4781 19.4073C41.3916 19.439 41.2878 19.4509 41.1869 19.4408C41.086 19.4306 40.9952 19.3992 40.9324 19.3525C40.8695 19.3058 40.839 19.2473 40.8468 19.1884L41.0635 17.6848L40.3336 19.249C40.3093 19.3018 40.2542 19.3482 40.1775 19.3804C40.1009 19.4125 40.0074 19.4284 39.9128 19.4254C39.8182 19.4223 39.7283 19.4005 39.6583 19.3636C39.5883 19.3267 39.5424 19.2771 39.5285 19.2229L39.3334 18.4771L38.8676 19.4808C38.8348 19.5659 38.7234 19.6339 38.5781 19.6578C38.5067 19.6694 38.4311 19.6698 38.3594 19.6587C38.2877 19.6476 38.2225 19.6255 38.1707 19.5948C38.119 19.5641 38.0825 19.5259 38.0653 19.4842C38.0481 19.4425 38.0507 19.3989 38.0729 19.358L39.0483 17.2552C39.0728 17.2025 39.128 17.1563 39.2046 17.1243C39.2811 17.0923 39.3744 17.0765 39.4688 17.0795C39.5632 17.0826 39.6528 17.1044 39.7227 17.1411C39.7926 17.1779 39.8384 17.2274 39.8525 17.2814L40.0481 18.0269L41.4501 14.9993C41.4763 14.9417 41.539 14.8919 41.6258 14.8597C41.7126 14.8276 41.8172 14.8154 41.9188 14.8256C42.0204 14.8358 42.1117 14.8677 42.1746 14.9149C42.2374 14.9621 42.2673 15.0212 42.2583 15.0805L42.0405 16.5902L42.844 14.8602C42.8721 14.8021 42.9375 14.7523 43.0269 14.721C43.1163 14.6897 43.223 14.6792 43.3253 14.6916C43.4276 14.7041 43.5179 14.7385 43.5778 14.788C43.6377 14.8375 43.6627 14.8983 43.6478 14.9581L43.5723 15.237L43.6139 15.1503C43.6715 15.0308 43.8782 14.957 44.0891 14.9805C44.3 15.0041 44.4435 15.1172 44.4198 15.2404L44.1158 16.6962L44.226 16.4594C44.2523 16.4024 44.3143 16.3531 44.4 16.321C44.4856 16.289 44.5889 16.2764 44.6897 16.2859C44.7905 16.2953 44.8816 16.326 44.9454 16.3721C45.0091 16.4181 45.0409 16.4762 45.0346 16.5351L44.8476 18.3575C44.9233 18.3276 45.0142 18.3131 45.1058 18.3162C45.2009 18.3196 45.291 18.3419 45.3607 18.3794C45.4304 18.4168 45.4755 18.4671 45.4883 18.5216L45.6008 18.9985C45.6469 18.9462 45.7249 18.9056 45.8198 18.8846C45.9147 18.8636 46.0197 18.8636 46.1146 18.8846C46.2095 18.9056 46.2875 18.9461 46.3337 18.9983C46.3799 19.0506 46.391 19.1109 46.3648 19.1676L45.8629 20.2484C45.845 20.2896 45.8078 20.3272 45.7553 20.357Z" fill="#67D4F1"/>
<path fill-rule="evenodd" clip-rule="evenodd" d="M49.6843 29.2509C49.6291 29.283 49.5592 29.3052 49.4828 29.3151C49.4064 29.3249 49.3267 29.322 49.2531 29.3066C49.1795 29.2913 49.115 29.2641 49.0672 29.2284C49.0193 29.1926 48.9901 29.1498 48.9829 29.1048L48.9679 29.0094L48.7835 29.4075C48.7583 29.4624 48.6999 29.5103 48.6188 29.5426C48.5378 29.5748 48.4395 29.5892 48.3417 29.5833C48.1396 29.5706 47.9835 29.475 47.9741 29.3579L47.9101 28.6218L47.6336 29.2157C47.6077 29.2711 47.5479 29.3193 47.4653 29.3513C47.3828 29.3833 47.2829 29.397 47.1842 29.3899C47.0855 29.3826 46.9947 29.355 46.9285 29.3121C46.8624 29.2692 46.8253 29.2139 46.8242 29.1565L46.8095 28.2655L46.6217 28.6712C46.5945 28.7281 46.5317 28.7772 46.4454 28.8088C46.3591 28.8404 46.2555 28.8524 46.1547 28.8423C46.054 28.8323 45.9634 28.801 45.9004 28.7546C45.8375 28.7081 45.8067 28.6498 45.8142 28.591L46.0372 26.9759L45.5381 28.0457C45.5102 28.1031 45.4461 28.1524 45.3582 28.1837C45.2704 28.2151 45.1654 28.2263 45.064 28.2151C44.9626 28.2037 44.8723 28.1709 44.8109 28.123C44.7495 28.075 44.7215 28.0156 44.7324 27.9563L44.7633 27.804L43.7957 29.8885C43.7692 29.946 43.7063 29.9956 43.6195 30.0276C43.5327 30.0596 43.4282 30.0717 43.3267 30.0614C43.2252 30.0512 43.1341 30.0193 43.0714 29.9721C43.0086 29.925 42.9787 29.8659 42.9877 29.8067L43.3448 27.3823L42.1319 30.008C42.1053 30.0669 42.0405 30.1177 41.9509 30.1498C41.8614 30.182 41.7539 30.193 41.6506 30.1808C41.5473 30.1685 41.4561 30.1338 41.3958 30.0839C41.3355 30.0339 41.3107 29.9725 41.3265 29.9123L41.7623 28.2051L41.2202 29.3709C41.194 29.4304 41.1288 29.4817 41.0385 29.5141C40.9482 29.5465 40.8396 29.5575 40.7356 29.5447C40.6316 29.5319 40.5402 29.4963 40.4806 29.4455C40.421 29.3947 40.3977 29.3325 40.4157 29.272L41.3644 25.8433C41.3196 25.8636 41.2679 25.8782 41.2127 25.8863C41.1575 25.8943 41.1 25.8956 41.0439 25.8899C40.9426 25.8802 40.8513 25.8489 40.788 25.8023C40.7246 25.7557 40.6938 25.697 40.7015 25.6379L40.8628 24.3866L40.1502 25.9205C40.1225 25.9786 40.0578 26.0284 39.969 26.06C39.8801 26.0916 39.7739 26.1026 39.6716 26.0907C39.5695 26.0787 39.479 26.0449 39.4184 25.9959C39.3578 25.9469 39.3316 25.8865 39.3452 25.8269L39.3747 25.7036L39.0645 26.3719C39.0372 26.43 38.9728 26.48 38.8841 26.5118C38.7955 26.5435 38.6893 26.5547 38.587 26.543C38.4847 26.5313 38.394 26.4977 38.333 26.4488C38.2721 26.4 38.2455 26.3397 38.2586 26.28L38.4129 25.6035L38.0806 26.3168C38.0524 26.3748 37.9872 26.4245 37.8981 26.4558C37.809 26.4871 37.7027 26.4977 37.6006 26.4855C37.4984 26.4733 37.4081 26.4392 37.3479 26.39C37.2876 26.3409 37.2619 26.2803 37.276 26.2207L37.4127 25.6799L37.313 25.8947C37.2858 25.9524 37.2218 26.0021 37.1338 26.0338C37.0458 26.0655 36.9404 26.0769 36.8385 26.0656C36.7367 26.0544 36.6459 26.0213 36.5844 25.9731C36.523 25.9249 36.4953 25.8651 36.5069 25.8056L37.0249 23.2541C36.9704 23.2953 36.8941 23.3251 36.8076 23.3388C36.7211 23.3526 36.6291 23.3497 36.5458 23.3304C36.4624 23.3113 36.3921 23.277 36.3457 23.2327C36.2993 23.1884 36.2792 23.1366 36.2886 23.0851L36.7419 20.5122L35.8407 22.4535C35.8135 22.5116 35.7491 22.5616 35.6606 22.5933C35.572 22.6251 35.4659 22.6363 35.3636 22.6246C35.2613 22.6128 35.1705 22.5792 35.1095 22.5303C35.0485 22.4815 35.0219 22.4211 35.035 22.3614L35.4324 20.603L34.4983 22.6002C34.4699 22.6581 34.4046 22.7077 34.3154 22.7389C34.2262 22.7701 34.1198 22.7806 34.0178 22.7683C33.9157 22.7559 33.8255 22.7216 33.7655 22.6724C33.7055 22.6231 33.6801 22.5626 33.6945 22.5029L34.1303 20.8578L33.2636 22.7261C33.2309 22.8112 33.1194 22.8792 32.9742 22.9031C32.9028 22.9147 32.8272 22.915 32.7555 22.9039C32.6838 22.8929 32.6185 22.8708 32.5667 22.8402C32.5149 22.8095 32.4784 22.7712 32.4612 22.7295C32.444 22.6878 32.4467 22.6442 32.4689 22.6033L35.2732 16.5594C35.3004 16.5007 35.3656 16.4502 35.4553 16.4184C35.545 16.3866 35.6524 16.3759 35.7554 16.3884C35.8585 16.4009 35.9494 16.4357 36.0094 16.4856C36.0694 16.5356 36.0939 16.597 36.0778 16.657L35.6429 18.3002L36.2391 17.0147C36.2663 16.9566 36.3307 16.9066 36.4193 16.8749C36.5079 16.8431 36.6141 16.832 36.7164 16.8437C36.8187 16.8554 36.9094 16.8891 36.9704 16.9379C37.0313 16.9868 37.0578 17.0472 37.0446 17.1069L36.6479 18.8668L37.2653 17.5368C37.2918 17.4788 37.3552 17.4287 37.4429 17.3966C37.5305 17.3645 37.636 17.3527 37.7381 17.3635C37.8403 17.3744 37.9315 17.4071 37.9936 17.4551C38.0557 17.5032 38.084 17.563 38.0728 17.6226L37.6193 20.1959L37.6643 20.0988C37.6914 20.0408 37.7554 19.9909 37.8436 19.959C37.9318 19.9272 38.0376 19.9158 38.1398 19.9271C38.2419 19.9385 38.3327 19.9718 38.3941 20.0203C38.4554 20.0688 38.4827 20.1289 38.4705 20.1885L37.978 22.6132L38.4356 21.6284C38.4637 21.5704 38.5289 21.5208 38.618 21.4895C38.7071 21.4582 38.8135 21.4476 38.9156 21.4598C39.0177 21.472 39.108 21.5061 39.1683 21.5552C39.2285 21.6044 39.2542 21.6649 39.2402 21.7246L39.1023 22.2693L39.2269 21.9957C39.2531 21.9369 39.3174 21.8861 39.4064 21.8537C39.4954 21.8214 39.6025 21.8099 39.7057 21.8217C39.8089 21.8335 39.9003 21.8678 39.9611 21.9173C40.022 21.9669 40.0477 22.028 40.033 22.0881L39.88 22.7614L40.276 21.909C40.3043 21.8514 40.3692 21.8021 40.4577 21.771C40.5463 21.7398 40.652 21.7292 40.7536 21.7411C40.8553 21.7529 40.9455 21.7865 41.0061 21.8351C41.0667 21.8837 41.0932 21.9438 41.0803 22.0032L41.0508 22.1264L41.1877 21.8338C41.2148 21.7771 41.2774 21.7283 41.3634 21.6967C41.4494 21.6651 41.5526 21.6531 41.653 21.663C41.7535 21.6728 41.8441 21.7037 41.9073 21.7499C41.9704 21.796 42.0017 21.8541 41.9949 21.9128L41.8351 23.1648L42.4923 21.7487C42.5194 21.6898 42.5848 21.6392 42.6749 21.6073C42.7649 21.5754 42.8727 21.5648 42.976 21.5775C43.0793 21.5903 43.1702 21.6254 43.2298 21.6758C43.2894 21.7261 43.3132 21.7878 43.2963 21.848L42.4786 24.8142L42.791 24.1428C42.8187 24.0846 42.8837 24.0346 42.9729 24.0031C43.0621 23.9715 43.1688 23.9607 43.2712 23.9729C43.3737 23.9852 43.4642 24.0195 43.5244 24.0689C43.5845 24.1182 43.6099 24.179 43.5953 24.2388L43.1622 25.9455L43.7562 24.6677C43.7825 24.6102 43.8453 24.5605 43.932 24.5284C44.0188 24.4963 44.1233 24.4842 44.2247 24.4945C44.3263 24.5047 44.4175 24.5364 44.4803 24.5836C44.5432 24.6307 44.5732 24.6897 44.5643 24.749L44.208 27.1729L45.4592 24.4711C45.487 24.4137 45.5512 24.3644 45.639 24.333C45.7268 24.3016 45.8319 24.2905 45.9333 24.3017C46.0346 24.313 46.125 24.3459 46.1864 24.3938C46.2477 24.4417 46.2757 24.5012 46.2648 24.5605L46.2339 24.7128L46.3967 24.3625C46.4234 24.3054 46.4861 24.2561 46.5725 24.2243C46.6589 24.1924 46.7627 24.1803 46.8637 24.1903C46.9647 24.2003 47.0557 24.2317 47.1187 24.2783C47.1818 24.325 47.2125 24.3835 47.2048 24.4425L46.9489 26.3321C47.0098 26.3058 47.0821 26.2899 47.1578 26.2859C47.2335 26.2819 47.3096 26.2901 47.3777 26.3096C47.4458 26.3291 47.5032 26.359 47.5436 26.3962C47.584 26.4333 47.6058 26.4762 47.6066 26.5201L47.6218 27.4123L47.7963 27.0364C47.8219 26.9817 47.8804 26.9341 47.9613 26.9021C48.0422 26.8702 48.1402 26.8559 48.2377 26.8619C48.3353 26.8679 48.4259 26.8939 48.4933 26.9351C48.5606 26.9762 48.6002 27.03 48.605 27.0865L48.6654 27.8212L48.7688 27.5997C48.7938 27.5458 48.8509 27.4988 48.93 27.4668C49.009 27.4348 49.1051 27.4199 49.2013 27.4247C49.2976 27.4295 49.3879 27.4536 49.4565 27.4929C49.525 27.5322 49.5675 27.5841 49.5764 27.6397L49.6339 28.0037C49.7171 27.9833 49.8098 27.9798 49.8969 27.9937C50.0023 28.0099 50.0922 28.0496 50.147 28.1041C50.2017 28.1586 50.2167 28.2234 50.1887 28.2843L49.7887 29.1457C49.7704 29.1854 49.7343 29.2217 49.6842 29.2509L49.6843 29.2509ZM33.2542 27.3729C33.1973 27.4057 33.1251 27.4282 33.0463 27.4375C32.9676 27.4469 32.8858 27.4428 32.8111 27.4257C32.7364 27.4085 32.672 27.3792 32.6259 27.3412C32.5797 27.3031 32.5539 27.2582 32.5515 27.2118L32.5112 26.4876L32.228 27.0976C32.2016 27.1545 32.1397 27.2036 32.0542 27.2356C31.9687 27.2676 31.8657 27.2801 31.7651 27.2707C31.6645 27.2614 31.5734 27.2309 31.5095 27.1851C31.4456 27.1393 31.4134 27.0814 31.4192 27.0227L31.4602 26.6079L31.4426 26.6442C31.4095 26.7295 31.2984 26.7973 31.1532 26.8212C31.0817 26.8329 31.0061 26.8332 30.9344 26.8222C30.8626 26.8111 30.7974 26.789 30.7457 26.7583C30.6939 26.7276 30.6574 26.6893 30.6402 26.6476C30.623 26.606 30.6257 26.5624 30.648 26.5215L31.6977 24.26C31.7238 24.2032 31.7855 24.154 31.8709 24.1219C31.9563 24.0899 32.0592 24.0772 32.1598 24.0865C32.2604 24.0958 32.3514 24.1264 32.4152 24.1722C32.4791 24.2181 32.5112 24.2759 32.5054 24.3347L32.4642 24.7671C32.5033 24.7186 32.5696 24.6792 32.6524 24.6551C32.7352 24.631 32.8296 24.6238 32.9204 24.6345C33.0111 24.6452 33.0929 24.6733 33.1525 24.7142C33.2122 24.7551 33.2462 24.8065 33.249 24.8599L33.2876 25.5831L33.3412 25.4682C33.3573 25.4264 33.3928 25.3879 33.4437 25.3568C33.4947 25.3257 33.5592 25.3031 33.6306 25.2914C33.702 25.2797 33.7775 25.2793 33.8491 25.2903C33.9208 25.3014 33.986 25.3234 34.0378 25.354C34.0895 25.3848 34.1259 25.423 34.1431 25.4647C34.1604 25.5064 34.1577 25.55 34.1356 25.5909L33.3584 27.265C33.3409 27.3057 33.305 27.3429 33.2543 27.3729L33.2542 27.3729ZM39.9301 14.3085C39.8761 14.3398 39.8081 14.3617 39.7337 14.3719C39.6593 14.3821 39.5814 14.3801 39.5089 14.3661C39.4363 14.3522 39.372 14.3268 39.323 14.2929C39.274 14.259 39.2424 14.2179 39.2316 14.1742L39.1098 13.719L38.7092 14.5832C38.6856 14.6338 38.6337 14.6785 38.5614 14.7103C38.4892 14.7421 38.4007 14.7593 38.3099 14.759C38.219 14.7588 38.1309 14.7411 38.0592 14.7089C37.9875 14.6767 37.9362 14.6317 37.9135 14.5809L37.4863 13.6257L36.84 15.0197C36.807 15.105 36.6959 15.1729 36.5504 15.1969C36.4789 15.2085 36.4033 15.2088 36.3316 15.1978C36.2599 15.1867 36.1947 15.1647 36.1429 15.134C36.0912 15.1032 36.0548 15.065 36.0376 15.0233C36.0204 14.9816 36.023 14.938 36.0451 14.8971L37.0975 12.6295C37.1211 12.5789 37.173 12.5342 37.2451 12.5024C37.3172 12.4706 37.4056 12.4535 37.4964 12.4536C37.5871 12.4538 37.6753 12.4714 37.747 12.5035C37.8187 12.5356 37.87 12.5805 37.8929 12.6312L38.3199 13.5894L38.8239 12.5052C38.8486 12.4527 38.9038 12.4067 38.9801 12.3749C39.0565 12.343 39.1495 12.3272 39.2436 12.3301C39.3376 12.333 39.4271 12.3545 39.4971 12.391C39.567 12.4274 39.6132 12.4766 39.6279 12.5303L39.7492 12.9862C39.7806 12.9268 39.851 12.8769 39.9454 12.8471C40.0398 12.8174 40.1507 12.8101 40.2542 12.827C40.3577 12.8438 40.4458 12.8833 40.4995 12.9371C40.5532 12.991 40.5683 13.0548 40.5415 13.1149L40.0359 14.2025C40.0178 14.2427 39.9813 14.2793 39.9301 14.3085ZM43.6392 10.3478C43.5851 10.379 43.517 10.4009 43.4426 10.4111C43.3682 10.4212 43.2904 10.4192 43.2178 10.4052C43.1453 10.3913 43.0809 10.3659 43.0319 10.332C42.983 10.2981 42.9513 10.257 42.9405 10.2133L42.8643 9.92134L42.5498 10.5983C42.5243 10.6525 42.4663 10.6998 42.3862 10.7317C42.306 10.7636 42.2089 10.7781 42.112 10.7726C42.015 10.767 41.9247 10.7417 41.8569 10.7013C41.7891 10.6609 41.7484 10.6079 41.7418 10.5518L41.6922 10.1099L41.3569 10.8325C41.3313 10.8868 41.273 10.9342 41.1924 10.9661C41.1118 10.9979 41.0143 11.0122 40.9172 11.0063C40.8201 11.0004 40.7298 10.9749 40.6624 10.9342C40.5949 10.8935 40.5547 10.8403 40.5489 10.7841L40.5046 10.3256L40.1601 11.0677C40.1357 11.1194 40.0818 11.1648 40.0071 11.1966C39.9323 11.2285 39.8412 11.2447 39.7484 11.2429C39.6556 11.241 39.5667 11.2211 39.496 11.1864C39.4253 11.1517 39.377 11.1042 39.359 11.0517L39.0773 10.2059L38.5265 11.3904C38.4982 11.4513 38.4292 11.5032 38.3347 11.5347C38.2401 11.5662 38.1277 11.5748 38.0223 11.5584C37.9168 11.5421 37.8269 11.5023 37.7724 11.4477C37.7178 11.3931 37.703 11.3283 37.7312 11.2674L38.7436 9.08656C38.7929 8.97931 38.9643 8.90594 39.1564 8.91007C39.2495 8.91199 39.3387 8.93207 39.4094 8.96703C39.4801 9.00199 39.5282 9.04977 39.5458 9.10255L39.8274 9.94824L40.3768 8.7662C40.4022 8.71164 40.4605 8.66411 40.5412 8.63211C40.6218 8.60012 40.7196 8.58576 40.8169 8.59161C40.9143 8.59746 41.0048 8.62314 41.0723 8.66404C41.1399 8.70494 41.1799 8.75839 41.1854 8.8148L41.229 9.27301L41.5472 8.58833C41.5728 8.53409 41.6308 8.48683 41.711 8.45495C41.7912 8.42307 41.8884 8.40864 41.9853 8.41421C42.0822 8.4197 42.1726 8.44488 42.2404 8.48526C42.3082 8.52563 42.349 8.57859 42.3555 8.63469L42.4053 9.0764L42.5813 8.69668C42.6055 8.6438 42.6606 8.59736 42.7372 8.5652C42.8139 8.53305 42.9074 8.51715 43.002 8.5202C43.0967 8.52317 43.1867 8.54494 43.2568 8.5818C43.3268 8.61867 43.3727 8.66838 43.3866 8.72252L43.5004 9.16144C43.5489 9.14258 43.6039 9.13 43.6617 9.12456C43.7194 9.11912 43.7785 9.12095 43.8348 9.12993C43.8871 9.13799 43.936 9.15192 43.9789 9.17091C44.0218 9.18991 44.0578 9.2136 44.0849 9.24063C44.1119 9.26766 44.1294 9.2975 44.1365 9.32845C44.1435 9.3594 44.1399 9.39084 44.1259 9.42099L43.7464 10.2389C43.7281 10.28 43.6911 10.3177 43.6392 10.3478Z" fill="#67D4F1"/>
<path fill-rule="evenodd" clip-rule="evenodd" d="M32.867 31.7464C32.8111 31.7788 32.7401 31.8013 32.6626 31.811C32.585 31.8207 32.5043 31.8173 32.43 31.8012C32.3558 31.785 32.2912 31.7568 32.2441 31.72C32.197 31.6831 32.1693 31.6392 32.1645 31.5935L32.0576 30.6582L31.7106 31.405C31.6851 31.4603 31.6259 31.5083 31.5439 31.5404C31.4619 31.5725 31.3626 31.5864 31.2643 31.5796C31.166 31.5728 31.0752 31.5457 31.0087 31.5034C30.9421 31.461 30.9042 31.4063 30.9019 31.3491L30.8504 30.1272L30.5815 30.7067C30.5526 30.7664 30.4844 30.8171 30.3916 30.8482C30.2987 30.8793 30.1885 30.8882 30.0845 30.873C29.9803 30.8579 29.8906 30.8199 29.8343 30.7671C29.7781 30.7144 29.7598 30.651 29.7834 30.5905L31.9233 24.4073L28.4058 32.4101C28.3761 32.4695 28.3075 32.5199 28.2145 32.5506C28.1215 32.5813 28.0114 32.5898 27.9077 32.5744C27.8039 32.559 27.7147 32.5208 27.6589 32.468C27.6031 32.4152 27.5852 32.352 27.609 32.2916L28.6616 29.8334L27.3072 32.7486C27.277 32.8074 27.2085 32.8572 27.1162 32.8875C27.0239 32.9179 26.9148 32.9265 26.8118 32.9115C26.7088 32.8964 26.6199 32.859 26.5636 32.807C26.5073 32.755 26.4879 32.6924 26.5096 32.6324L30.4266 23.1875L26.0919 32.5217C26.0607 32.58 25.9919 32.6291 25.8997 32.6589C25.8075 32.6887 25.699 32.6968 25.5966 32.6816C25.4942 32.6665 25.4058 32.6291 25.3498 32.5773C25.2938 32.5255 25.2745 32.4633 25.296 32.4035L26.1157 30.4911L25.5752 31.6527C25.5507 31.7096 25.4906 31.7593 25.4064 31.7922C25.3222 31.8251 25.2199 31.8388 25.1192 31.8307C25.0186 31.8226 24.9266 31.7934 24.8611 31.7486C24.7956 31.7038 24.7611 31.6465 24.7643 31.5879L24.8266 29.6522L24.6864 29.9537C24.6589 30.0083 24.5983 30.0555 24.5156 30.0866C24.433 30.1176 24.3338 30.1305 24.236 30.123C24.1384 30.1154 24.0487 30.0878 23.9832 30.0453C23.9178 30.0028 23.881 29.9481 23.8795 29.8912L23.8787 29.7234L23.6861 30.1371C23.6605 30.1919 23.6017 30.2396 23.5205 30.2715C23.4392 30.3035 23.3408 30.3176 23.2431 30.3112C23.1454 30.305 23.0548 30.2787 22.9877 30.2373C22.9207 30.1958 22.8816 30.1418 22.8775 30.0851L22.8529 29.7161L22.6742 30.1009C22.6505 30.1519 22.598 30.1969 22.525 30.2288C22.4521 30.2607 22.3628 30.2776 22.2713 30.2769C22.1799 30.2762 22.0914 30.2579 22.02 30.2249C21.9485 30.1919 21.8981 30.1461 21.8768 30.0948L21.6297 29.498C21.5769 29.5458 21.4962 29.581 21.4021 29.5974C21.3081 29.6138 21.2071 29.6103 21.1172 29.5874C21.0273 29.5646 20.9545 29.5239 20.912 29.4729C20.8694 29.4218 20.8599 29.3636 20.8851 29.3088L21.2646 28.4899C21.2885 28.439 21.3411 28.3941 21.414 28.3623C21.487 28.3305 21.5761 28.3136 21.6675 28.3143C21.759 28.315 21.8474 28.3333 21.9189 28.3662C21.9904 28.3991 22.0409 28.4448 22.0625 28.4961L22.3026 29.0704L22.7674 28.071C22.793 28.0162 22.8517 27.9685 22.933 27.9366C23.0143 27.9046 23.1126 27.8905 23.2103 27.8969C23.308 27.9031 23.3986 27.9294 23.4657 27.9709C23.5327 28.0123 23.5718 28.0663 23.5759 28.123L23.6006 28.4914L23.8993 27.8484C23.9269 27.7938 23.9874 27.7467 24.07 27.7157C24.1525 27.6846 24.2516 27.6717 24.3492 27.6792C24.4469 27.6868 24.5366 27.7143 24.6021 27.7568C24.6676 27.7993 24.7046 27.854 24.7063 27.9109L24.7055 28.0787L24.9046 27.6512C24.9294 27.5944 24.9896 27.5449 25.0737 27.5122C25.1578 27.4795 25.2599 27.4658 25.3603 27.4739C25.4608 27.4819 25.5526 27.511 25.6181 27.5557C25.6837 27.6004 25.7183 27.6574 25.7155 27.7159L25.6515 29.6526L36.3527 6.60303C36.3661 6.57281 36.3898 6.54441 36.4223 6.51946C36.4547 6.49451 36.4954 6.4735 36.542 6.45763C36.5885 6.44176 36.64 6.43134 36.6935 6.42697C36.7471 6.42259 36.8016 6.42435 36.8539 6.43214C36.9596 6.44782 37.0503 6.4871 37.1058 6.54134C37.1614 6.59558 37.1774 6.66034 37.1503 6.72139L36.335 8.62435L37.5535 5.99842C37.5831 5.93912 37.6516 5.88881 37.7443 5.85812C37.8371 5.82743 37.9469 5.81878 38.0505 5.83399C38.1541 5.84913 38.2435 5.88696 38.2997 5.93948C38.3558 5.99201 38.3744 6.05508 38.3514 6.11536L34.4353 15.563L38.8001 6.15203C38.831 6.09351 38.8999 6.04414 38.9923 6.01419C39.0847 5.98424 39.1936 5.976 39.2963 5.9912C39.3989 6.0064 39.4875 6.04386 39.5436 6.09579C39.5996 6.14772 39.6188 6.21013 39.5972 6.27003L38.5435 8.73561L39.4607 6.76018C39.4914 6.70179 39.5598 6.65245 39.6518 6.62239C39.7438 6.59232 39.8523 6.58384 39.9548 6.59869C40.0574 6.61354 40.1461 6.6506 40.2026 6.70217C40.2591 6.75375 40.2791 6.8159 40.2584 6.87574L37.2294 14.699L35.4166 15.6689L36.3787 16.8966L34.252 22.3906L31.9233 23.063L32.4641 24.7671L30.1767 27.432C30.2159 27.4672 31.6078 28.4209 31.607 28.4641L31.6584 29.6856L31.9116 29.1394C31.9369 29.0849 31.9949 29.0374 32.0752 29.0054C32.1556 28.9733 32.253 28.9588 32.3502 28.9643C32.4473 28.9699 32.5379 28.9951 32.6057 29.0356C32.6735 29.0761 32.7142 29.1292 32.7205 29.1854L32.8271 30.1208L32.9637 29.8274C32.9965 29.742 33.1077 29.6742 33.2532 29.6505C33.3245 29.6387 33.4001 29.6383 33.4718 29.6494C33.5435 29.6604 33.6087 29.6825 33.6604 29.7133C33.7122 29.744 33.7486 29.7822 33.7659 29.8239C33.7831 29.8656 33.7804 29.9092 33.7582 29.9501L32.9755 31.6382C32.9566 31.6792 32.9192 31.7165 32.867 31.7464Z" fill="#67D4F1"/>
<path fill-rule="evenodd" clip-rule="evenodd" d="M33.2057 14.5768C33.1473 14.6106 33.0726 14.6335 32.9914 14.6425C32.9101 14.6514 32.8261 14.646 32.7502 14.627C32.6744 14.6079 32.6102 14.5761 32.5661 14.5357C32.5221 14.4953 32.5001 14.4482 32.5032 14.4004L32.5451 13.7039L32.4753 13.8544C32.4498 13.9113 32.3887 13.9608 32.3038 13.9932C32.2189 14.0256 32.1162 14.0387 32.0155 14.03C31.9148 14.0213 31.8233 13.9914 31.7586 13.946C31.694 13.9006 31.6608 13.843 31.6656 13.7842L31.6851 13.4656C31.6298 13.4967 31.5604 13.5182 31.485 13.5276C31.4095 13.537 31.331 13.5339 31.2585 13.5187C31.1858 13.5036 31.122 13.477 31.0743 13.4419C31.0267 13.4069 30.9971 13.3648 30.989 13.3204L30.9085 12.8708C30.8268 12.8897 30.7367 12.8927 30.6518 12.8793C30.5996 12.8713 30.5506 12.8574 30.5077 12.8384C30.4648 12.8194 30.4288 12.7958 30.4017 12.7688C30.3747 12.7418 30.3571 12.712 30.35 12.681C30.3428 12.6501 30.3464 12.6187 30.3603 12.5885L30.7347 11.7822C30.7596 11.7288 30.8161 11.682 30.8944 11.6501C30.9727 11.6181 31.0679 11.6029 31.1635 11.6072C31.2591 11.6114 31.3492 11.6348 31.4181 11.6733C31.487 11.7118 31.5304 11.763 31.5409 11.818L31.5747 12.0004L31.8204 11.4699C31.8459 11.413 31.907 11.3635 31.9919 11.3311C32.0768 11.2986 32.1796 11.2855 32.2803 11.2943C32.381 11.303 32.4725 11.333 32.5371 11.3784C32.6018 11.4238 32.635 11.4815 32.6303 11.5402L32.6192 11.7079L32.6837 11.5704C32.7091 11.5134 32.7702 11.464 32.8551 11.4316C32.9401 11.3991 33.0428 11.386 33.1435 11.3947C33.2442 11.4035 33.3357 11.4335 33.4004 11.4789C33.465 11.5243 33.4982 11.5819 33.4935 11.6407L33.452 12.3367L33.5679 12.087C33.6009 12.0018 33.7121 11.9339 33.8573 11.9101C33.9287 11.8983 34.0043 11.898 34.0761 11.9091C34.1478 11.9201 34.2131 11.9422 34.2648 11.973C34.3166 12.0037 34.3531 12.0419 34.3703 12.0836C34.3875 12.1253 34.3849 12.1689 34.3626 12.2098L33.3142 14.4704C33.2953 14.5109 33.2578 14.5476 33.2057 14.5768ZM18.0517 12.3458C17.9964 12.3778 17.9264 12.4001 17.8499 12.4099C17.7734 12.4198 17.6937 12.4168 17.62 12.4014C17.5463 12.386 17.4818 12.3588 17.434 12.3229C17.3862 12.287 17.3572 12.244 17.3503 12.199L17.1308 10.7857L16.816 11.465C16.7923 11.5156 16.7403 11.5602 16.6681 11.592C16.5959 11.6237 16.5076 11.6408 16.4168 11.6406C16.326 11.6405 16.2379 11.623 16.1662 11.5909C16.0944 11.5588 16.043 11.514 16.0199 11.4633L15.6167 10.5736C15.5837 10.6588 15.4725 10.7266 15.3271 10.7506C15.2556 10.7622 15.1801 10.7625 15.1083 10.7515C15.0366 10.7404 14.9714 10.7184 14.9196 10.6877C14.8679 10.657 14.8315 10.6187 14.8143 10.5771C14.7971 10.5354 14.7997 10.4918 14.8218 10.4509L15.2236 9.58383C15.2469 9.53305 15.2987 9.48816 15.3709 9.45618C15.4431 9.4242 15.5316 9.40693 15.6226 9.40708C15.7136 9.40722 15.802 9.42477 15.8739 9.45698C15.9458 9.48919 15.9971 9.53424 16.0199 9.58509L16.4237 10.4748L16.9386 9.37072C16.9636 9.31682 17.0207 9.26972 17.0998 9.23767C17.1789 9.20562 17.2751 9.19068 17.3714 9.19545C17.4677 9.20022 17.558 9.22441 17.6265 9.26377C17.695 9.30313 17.7374 9.35516 17.7461 9.41073L17.9632 10.822L18.3329 10.0271C18.3647 9.96861 18.4343 9.91947 18.5273 9.88992C18.6203 9.86037 18.7295 9.85269 18.8321 9.86847C18.9347 9.88434 19.0227 9.92246 19.0777 9.97489C19.1328 10.0273 19.1507 10.09 19.1276 10.1498L18.1577 12.239C18.1395 12.2794 18.1029 12.3163 18.0517 12.3458Z" fill="#67D4F1"/>
<path fill-rule="evenodd" clip-rule="evenodd" d="M22.614 14.9809C22.5524 15.0165 22.4728 15.0399 22.3867 15.0477C22.3005 15.0554 22.2124 15.0472 22.1348 15.0242C22.0573 15.0013 21.9944 14.9648 21.9551 14.9199C21.9158 14.875 21.9023 14.824 21.9163 14.7744L22.17 13.8919L21.9227 14.4212C21.8958 14.4788 21.8323 14.5286 21.7448 14.5604C21.6574 14.5923 21.5523 14.604 21.4506 14.5932C21.3488 14.5823 21.2579 14.5498 21.1958 14.502C21.1338 14.4542 21.1052 14.3947 21.1157 14.3353L21.5994 11.6132L20.4151 14.1631C20.3876 14.2222 20.3218 14.2728 20.2313 14.3046C20.1408 14.3363 20.0327 14.3468 19.9292 14.3338C19.8258 14.3206 19.7352 14.2851 19.676 14.2344C19.6168 14.1837 19.5936 14.1219 19.6113 14.0616L19.6579 13.9058L19.4903 14.2714C19.4632 14.3288 19.3998 14.3783 19.3125 14.4099C19.2253 14.4416 19.1206 14.4533 19.0193 14.4425C18.9178 14.4318 18.827 14.3995 18.7649 14.352C18.7027 14.3045 18.6737 14.2453 18.6837 14.186L18.79 13.5868L18.414 14.3959C18.3885 14.4501 18.3306 14.4974 18.2506 14.5293C18.1705 14.5612 18.0735 14.5757 17.9766 14.5703C17.8798 14.5648 17.7894 14.5398 17.7216 14.4995C17.6537 14.4592 17.6127 14.4064 17.6059 14.3504L17.5529 13.8942L17.2525 14.526C17.2289 14.5768 17.1769 14.6216 17.1045 14.6535C17.0322 14.6853 16.9435 14.7025 16.8525 14.7022C16.7615 14.7019 16.6732 14.6842 16.6015 14.6518C16.5297 14.6195 16.4785 14.5743 16.4559 14.5234L16.0469 13.5894L15.5736 14.6021C15.5501 14.6523 15.4988 14.6966 15.4275 14.7283C15.3562 14.7601 15.2689 14.7774 15.1788 14.7778C15.0888 14.7781 15.0011 14.7615 14.929 14.7303C14.857 14.6991 14.8047 14.6552 14.78 14.6052L14.4522 13.9325C14.421 13.9917 14.351 14.0415 14.2571 14.0713C14.1632 14.1011 14.0529 14.1086 13.9496 14.0922C13.8462 14.0759 13.7579 14.0368 13.7036 13.9835C13.6493 13.9301 13.6332 13.8666 13.6588 13.8065L14.0452 12.9745C14.0688 12.9245 14.1201 12.8802 14.1913 12.8486C14.2625 12.8169 14.3497 12.7996 14.4396 12.7992C14.5295 12.7988 14.6171 12.8154 14.6891 12.8465C14.7611 12.8775 14.8135 12.9213 14.8383 12.9712L15.1683 13.6456L15.6608 12.5855C15.6844 12.5348 15.7366 12.4899 15.809 12.4581C15.8815 12.4262 15.9702 12.4091 16.0613 12.4095C16.1524 12.4098 16.2407 12.4275 16.3125 12.4599C16.3842 12.4923 16.4353 12.5375 16.4579 12.5885L16.8663 13.5222L17.3952 12.3855C17.4206 12.3314 17.4784 12.2841 17.5583 12.2521C17.6383 12.2202 17.7352 12.2056 17.832 12.211C17.9288 12.2164 18.0192 12.2414 18.0872 12.2815C18.1551 12.3217 18.1962 12.3745 18.2032 12.4304L18.2562 12.8867L19.3192 10.5972C19.3472 10.5403 19.411 10.4915 19.498 10.4603C19.585 10.4291 19.6891 10.4177 19.7898 10.4284C19.8906 10.4391 19.9808 10.4712 20.0428 10.5182C20.1049 10.5653 20.1343 10.624 20.1254 10.6829L20.0196 11.2818L21.1362 8.87805C21.1637 8.81906 21.2295 8.76844 21.3199 8.7367C21.4104 8.70497 21.5185 8.69454 21.6219 8.70759C21.7253 8.72063 21.816 8.75617 21.8751 8.80683C21.9343 8.85749 21.9573 8.91937 21.9395 8.97959L21.8931 9.13556L22.1237 8.64008C22.1508 8.58268 22.2143 8.53324 22.3015 8.50155C22.3888 8.46986 22.4934 8.45823 22.5948 8.46895C22.6963 8.47969 22.7871 8.51201 22.8493 8.55954C22.9115 8.60707 22.9405 8.66634 22.9307 8.72563L22.4525 11.4475L23.5668 9.04788C23.5949 8.98946 23.6607 8.93945 23.7506 8.90808C23.8405 8.87671 23.9477 8.86635 24.0504 8.87912C24.1531 8.89196 24.2433 8.92695 24.3028 8.97694C24.3622 9.02692 24.3864 9.08813 24.3703 9.14804L23.4069 12.4951C23.5103 12.5123 23.5978 12.5523 23.6508 12.6064C23.7037 12.6605 23.7179 12.7244 23.6901 12.7845L22.7198 14.8746C22.7016 14.9148 22.665 14.9515 22.614 14.9809Z" fill="#67D4F1"/>
<path fill-rule="evenodd" clip-rule="evenodd" d="M27.5898 17.8527C27.5292 17.8876 27.4514 17.9108 27.367 17.9189C27.2826 17.9271 27.1959 17.9199 27.1189 17.8983C27.0419 17.8767 26.9785 17.8418 26.9375 17.7985C26.8965 17.7551 26.8799 17.7055 26.89 17.6564L27.1553 16.3813L26.7682 17.2144C26.7408 17.2718 26.6771 17.3213 26.5896 17.3529C26.5021 17.3845 26.3973 17.3959 26.2958 17.385C26.1944 17.3741 26.1037 17.3415 26.0419 17.2938C25.9801 17.2461 25.9515 17.1867 25.962 17.1275L26.2663 15.5105L25.6947 16.7427C25.6671 16.7995 25.6039 16.8485 25.5173 16.8799C25.4307 16.9114 25.327 16.9231 25.2262 16.9128C25.1255 16.9025 25.035 16.8708 24.9724 16.8241C24.9098 16.7773 24.8796 16.7188 24.8877 16.6599L25.1119 15.2391L24.3633 16.8525C24.3373 16.9109 24.2738 16.9614 24.1858 16.9938C24.0977 17.0261 23.9916 17.038 23.889 17.0269C23.7863 17.0159 23.6948 16.9827 23.633 16.9341C23.5711 16.8856 23.5435 16.8253 23.5557 16.7654L23.608 16.4817L23.3996 16.9322C23.3761 16.9837 23.3233 17.0291 23.2498 17.0612C23.1762 17.0933 23.086 17.1102 22.9938 17.1092C22.9016 17.1082 22.8126 17.0894 22.7412 17.0557C22.6698 17.022 22.62 16.9754 22.5999 16.9234L22.2406 16.0216L21.8163 16.9348C21.7921 16.9859 21.739 17.0309 21.6655 17.0626C21.592 17.0943 21.5022 17.1109 21.4104 17.1097C21.3187 17.1086 21.2302 17.0898 21.1591 17.0563C21.088 17.0229 21.0383 16.9766 21.0179 16.925L20.8014 16.3591C20.7433 16.4026 20.6609 16.4332 20.5681 16.4455C20.4754 16.4579 20.3781 16.4514 20.2928 16.427C20.2074 16.4026 20.1394 16.362 20.1001 16.3119C20.0609 16.2618 20.053 16.2054 20.0777 16.1524L20.4574 15.3349C20.4813 15.2837 20.5343 15.2386 20.6078 15.2068C20.6813 15.175 20.7712 15.1584 20.863 15.1595C20.9549 15.1606 21.0435 15.1794 21.1147 15.2129C21.1859 15.2464 21.2357 15.2926 21.2562 15.3443L21.4576 15.872L21.8731 14.9774C21.8966 14.9259 21.9494 14.8804 22.023 14.8483C22.0966 14.8162 22.1867 14.7993 22.279 14.8003C22.3712 14.8013 22.4602 14.8201 22.5317 14.8538C22.6032 14.8874 22.653 14.934 22.6732 14.986L23.0329 15.8876L24.1862 13.4069C24.213 13.3489 24.2767 13.299 24.3645 13.2671C24.4524 13.2352 24.5579 13.2236 24.6599 13.2347C24.762 13.2457 24.853 13.2786 24.9148 13.3267C24.9766 13.3748 25.0047 13.4347 24.9933 13.4943L24.9407 13.7772L25.563 12.4373C25.5905 12.3804 25.6537 12.3314 25.7403 12.3C25.827 12.2685 25.9308 12.2568 26.0316 12.2672C26.1323 12.2775 26.2228 12.3091 26.2853 12.3558C26.3479 12.4025 26.378 12.4611 26.3698 12.5199L26.1454 13.9403L26.8615 12.3989C26.8891 12.3415 26.9529 12.2923 27.0403 12.2608C27.1277 12.2294 27.2324 12.218 27.3337 12.229C27.435 12.2399 27.5256 12.2724 27.5874 12.32C27.6493 12.3676 27.6779 12.4269 27.6676 12.4861L27.3609 14.1017L27.8568 13.0341C27.8845 12.9765 27.9488 12.9271 28.0368 12.8957C28.1248 12.8643 28.2301 12.8532 28.3317 12.8646C28.4334 12.8759 28.5239 12.9089 28.5852 12.957C28.6466 13.0052 28.6743 13.0649 28.6628 13.1243L28.1977 15.3595C28.2659 15.3525 28.336 15.3555 28.4017 15.3683C28.4673 15.3811 28.5263 15.4033 28.5731 15.4327C28.62 15.4622 28.6532 15.498 28.6696 15.5369C28.6861 15.5757 28.6853 15.6163 28.6673 15.655L27.6962 17.7461C27.6777 17.7865 27.641 17.8233 27.5898 17.8527ZM20.0289 20.256C19.9748 20.2872 19.9068 20.309 19.8324 20.3192C19.7581 20.3293 19.6803 20.3273 19.6078 20.3133C19.5353 20.2994 19.471 20.2741 19.422 20.2402C19.373 20.2064 19.3413 20.1653 19.3304 20.1217L19.2062 19.6601C19.1384 19.6909 19.0555 19.7086 18.9693 19.7107C18.883 19.7128 18.7978 19.6991 18.7258 19.6717C18.6536 19.6443 18.5982 19.6045 18.5674 19.5579C18.5367 19.5113 18.5321 19.4603 18.5544 19.4121L18.9491 18.5646C18.9737 18.5121 19.0288 18.4661 19.105 18.4342C19.1813 18.4023 19.2742 18.3865 19.3682 18.3894C19.4622 18.3922 19.5517 18.4136 19.6218 18.4499C19.6918 18.4863 19.7382 18.5354 19.7531 18.589L19.8498 18.9365L20.1582 18.2724C20.1909 18.1873 20.3023 18.1193 20.4476 18.0955C20.519 18.0838 20.5946 18.0835 20.6663 18.0946C20.738 18.1056 20.8032 18.1277 20.8549 18.1584C20.9067 18.1891 20.9432 18.2273 20.9604 18.269C20.9776 18.3107 20.975 18.3543 20.9528 18.3952L20.1424 20.1456C20.1232 20.1878 20.0838 20.226 20.0289 20.256ZM14.1668 21.3318C14.1078 21.366 14.0322 21.3889 13.9501 21.3977C13.8679 21.4064 13.7831 21.4005 13.707 21.3807C13.6308 21.3609 13.5669 21.3282 13.5236 21.287C13.4803 21.2457 13.4598 21.1979 13.4648 21.1497L13.4829 20.9758C13.4396 21.001 13.3876 21.0205 13.3303 21.0332C13.2731 21.0459 13.2118 21.0515 13.1505 21.0495C13.0546 21.0451 12.9644 21.0214 12.8956 20.9826C12.8268 20.9437 12.7836 20.8922 12.7737 20.837L12.5968 19.8461L12.3977 20.2743C12.3723 20.3279 12.3153 20.3746 12.2365 20.4064C12.1576 20.4383 12.062 20.4532 11.9662 20.4486C11.8702 20.444 11.7801 20.4201 11.7116 20.3811C11.643 20.3422 11.6002 20.2905 11.5907 20.2352L11.5308 19.8766C11.4595 19.8945 11.3809 19.9004 11.3041 19.8936C11.2273 19.8869 11.1554 19.8677 11.0967 19.8383C11.038 19.8089 10.995 19.7705 10.9725 19.7275C10.95 19.6846 10.949 19.6389 10.9696 19.5956L11.3653 18.7419C11.3904 18.6881 11.4473 18.641 11.5263 18.609C11.6052 18.5769 11.7011 18.5618 11.7973 18.5664C11.8935 18.571 11.9838 18.595 12.0525 18.6341C12.1211 18.6733 12.1639 18.7251 12.1732 18.7805L12.1893 18.8807L12.3786 18.4757C12.4039 18.4223 12.4607 18.3757 12.5392 18.344C12.6177 18.3122 12.7129 18.2973 12.8085 18.3017C12.904 18.3061 12.994 18.3296 13.0627 18.3682C13.1315 18.4067 13.1747 18.458 13.185 18.513L13.3625 19.5041L13.721 18.7319C13.7477 18.6753 13.8097 18.6263 13.8952 18.5946C13.9806 18.5628 14.0834 18.5504 14.1838 18.5597C14.2841 18.569 14.3749 18.5995 14.4387 18.6452C14.5025 18.6909 14.5348 18.7486 14.5293 18.8072L14.5117 18.9798C14.5633 18.9491 14.628 18.9269 14.6992 18.9153C14.7705 18.9037 14.8457 18.9032 14.9175 18.9138C15.0226 18.9301 15.1123 18.9699 15.1667 19.0244C15.2211 19.0789 15.2359 19.1436 15.2078 19.2044L14.271 21.224C14.2535 21.2646 14.2175 21.3019 14.1668 21.3318Z" fill="#67D4F1"/>
<path fill-rule="evenodd" clip-rule="evenodd" d="M29.2141 22.0915C29.1535 22.1275 29.0748 22.1514 28.9891 22.16C28.9035 22.1685 28.8154 22.1612 28.7374 22.139C28.6595 22.1168 28.5957 22.081 28.5551 22.0366C28.5146 21.9923 28.4995 21.9416 28.5119 21.892L28.9663 19.8548L28.2709 21.3575C28.2438 21.4158 28.1793 21.466 28.0905 21.4978C28.0017 21.5297 27.8952 21.5408 27.7926 21.529C27.6901 21.5173 27.5992 21.4834 27.5383 21.4343C27.4775 21.3853 27.4513 21.3247 27.4651 21.2649L27.8336 19.6699L27.0767 21.3007C27.0513 21.3552 26.9931 21.4027 26.9125 21.4347C26.832 21.4667 26.7343 21.4811 26.6371 21.4753C26.5398 21.4695 26.4493 21.444 26.3817 21.4032C26.3141 21.3624 26.2739 21.309 26.2682 21.2527L26.2248 20.811L25.9122 21.4829C25.8874 21.5366 25.8306 21.5837 25.7518 21.6157C25.673 21.6478 25.5772 21.6629 25.4811 21.6583C25.385 21.6538 25.2947 21.6299 25.2261 21.5908C25.1574 21.5517 25.1147 21.5 25.1054 21.4446L25.009 20.851L23.6978 23.6747C23.6724 23.7317 23.6113 23.7811 23.5264 23.8135C23.4415 23.8459 23.3388 23.8591 23.2381 23.8503C23.1374 23.8417 23.0458 23.8118 22.9812 23.7664C22.9165 23.721 22.8834 23.6633 22.8882 23.6046L23.0132 21.5004L21.9368 23.8203C21.8808 23.9391 21.6777 24.0135 21.468 23.9922C21.2582 23.9709 21.1112 23.8607 21.129 23.738L21.4605 21.5189L21.1367 22.2166C21.1133 22.2676 21.0612 22.3127 20.9884 22.3447C20.9157 22.3767 20.8266 22.3938 20.7352 22.3934C20.6437 22.3929 20.5551 22.3748 20.4834 22.3421C20.4117 22.3093 20.3609 22.2637 20.3391 22.2124L19.9399 21.2862L19.3797 22.4927C19.3543 22.5473 19.296 22.5948 19.2153 22.6268C19.1346 22.6588 19.0369 22.6732 18.9395 22.6673C18.8422 22.6615 18.7516 22.6358 18.6841 22.5949C18.6166 22.554 18.5765 22.5006 18.5711 22.4441L18.5293 22.0166L16.7864 25.7721C16.756 25.8283 16.6906 25.8761 16.6027 25.9061C16.5148 25.9361 16.4108 25.9461 16.3108 25.9344C16.2108 25.9226 16.1219 25.8899 16.0614 25.8424C16.0008 25.795 15.9729 25.7363 15.9831 25.6776L16.2692 24.5393L15.6287 25.9173C15.6018 25.975 15.5383 26.0247 15.4507 26.0566C15.3632 26.0884 15.2581 26.1001 15.1564 26.0892C15.0546 26.0784 14.9637 26.0458 14.9017 25.9979C14.8397 25.9501 14.8112 25.8906 14.8218 25.8312L15.3582 22.8666L14.3013 25.1436C14.274 25.202 14.2092 25.2523 14.1199 25.284C14.0307 25.3158 13.9238 25.3267 13.8211 25.3146C13.7184 25.3024 13.6276 25.2681 13.5673 25.2186C13.5069 25.1692 13.4815 25.1082 13.4962 25.0483L13.9236 23.3419C13.8965 23.3947 13.8384 23.4404 13.7593 23.4713C13.6803 23.5021 13.5851 23.5161 13.4901 23.511C13.3951 23.5058 13.3061 23.4818 13.2384 23.443C13.1707 23.4042 13.1284 23.353 13.1188 23.2982L12.9765 22.6317L12.5525 23.5432C12.5281 23.5956 12.4734 23.6415 12.3976 23.6734C12.3217 23.7054 12.2292 23.7214 12.1355 23.7188C12.0417 23.7161 11.9522 23.6951 11.8819 23.6591C11.8117 23.6231 11.7648 23.5744 11.7491 23.5209L11.5228 22.7423L11.1046 23.6545C11.0575 23.7565 10.8989 23.8283 10.7155 23.8305C10.6263 23.8316 10.5389 23.8159 10.4666 23.7858C10.3942 23.7557 10.3407 23.7129 10.3142 23.6637L9.89957 22.8948L9.8675 22.9631C9.83476 23.0482 9.72335 23.1162 9.5781 23.14C9.50666 23.1516 9.43111 23.1519 9.35941 23.1408C9.28771 23.1298 9.22251 23.1077 9.17066 23.0771C9.11883 23.0464 9.08237 23.0082 9.06514 22.9665C9.04792 22.9248 9.05057 22.8812 9.07283 22.8403L9.46887 21.9771C9.49193 21.9274 9.54235 21.8834 9.61252 21.8517C9.6827 21.8199 9.76883 21.8022 9.85795 21.8012C9.94712 21.8001 10.0345 21.8158 10.1069 21.8459C10.1792 21.876 10.2327 21.9188 10.2592 21.968L10.6739 22.7369L11.2176 21.5645C11.242 21.5122 11.2967 21.4663 11.3726 21.4343C11.4484 21.4024 11.5409 21.3864 11.6347 21.389C11.7285 21.3916 11.818 21.4125 11.8883 21.4485C11.9585 21.4845 12.0053 21.5333 12.0209 21.5868L12.2506 22.3665L12.73 21.3327C12.7545 21.2793 12.8104 21.2324 12.8883 21.2002C12.9662 21.168 13.061 21.1525 13.1566 21.1563C13.2521 21.1601 13.3424 21.1831 13.4118 21.2212C13.4812 21.2592 13.5255 21.3101 13.5369 21.365L13.6815 22.0325L14.9296 19.343C14.9579 19.2852 15.0231 19.2358 15.1119 19.2046C15.2008 19.1734 15.3069 19.1628 15.4087 19.1748C15.5106 19.1869 15.6008 19.2208 15.6612 19.2697C15.7216 19.3186 15.7478 19.3788 15.7344 19.4384L15.3103 21.1432L15.916 19.8384C15.9431 19.7809 16.0066 19.7313 16.094 19.6995C16.1815 19.6677 16.2864 19.6561 16.388 19.6669C16.4896 19.6777 16.5804 19.7102 16.6424 19.7579C16.7044 19.8056 16.7331 19.8651 16.7228 19.9244L16.1865 22.8891L17.2824 20.5284C17.3102 20.4704 17.3752 20.4206 17.4643 20.3892C17.5533 20.3579 17.6597 20.3472 17.7618 20.3594C17.864 20.3715 17.9543 20.4055 18.0146 20.4546C18.075 20.5037 18.1007 20.5642 18.0867 20.6238L17.8026 21.7599L18.4089 20.4541C18.4616 20.3418 18.6479 20.2684 18.8484 20.2805C19.0488 20.2925 19.2047 20.3864 19.2168 20.5026L19.2587 20.93L19.5634 20.275C19.5867 20.224 19.6389 20.1789 19.7116 20.147C19.7843 20.115 19.8734 20.0979 19.9648 20.0984C20.0562 20.0988 20.1447 20.1168 20.2164 20.1495C20.2881 20.1822 20.3389 20.2278 20.3608 20.279L20.7603 21.2054L21.8809 18.7904C21.9081 18.7334 21.9711 18.6843 22.0577 18.6526C22.1443 18.621 22.2482 18.6092 22.349 18.6194C22.4499 18.6296 22.5406 18.6612 22.6033 18.7079C22.6661 18.7547 22.6964 18.8133 22.6884 18.8722L22.3571 21.0922L23.1582 19.3659C23.1831 19.3087 23.244 19.2589 23.329 19.2261C23.414 19.1934 23.517 19.18 23.6181 19.1887C23.7192 19.1975 23.811 19.2276 23.8758 19.2733C23.9405 19.3189 23.9735 19.3769 23.9683 19.4358L23.842 21.5408L24.8081 19.4606C24.8333 19.407 24.8902 19.3602 24.9689 19.3283C25.0476 19.2964 25.1432 19.2814 25.239 19.286C25.335 19.2905 25.4251 19.3143 25.4937 19.3533C25.5624 19.3922 25.6053 19.4437 25.615 19.499L25.712 20.0929L26.1004 19.2576C26.1258 19.203 26.1841 19.1555 26.2647 19.1234C26.3453 19.0914 26.4431 19.0769 26.5404 19.0827C26.6378 19.0886 26.7283 19.1142 26.7959 19.1551C26.8634 19.196 26.9036 19.2494 26.9092 19.3058L26.9524 19.7467L28.6919 15.9978C28.7189 15.9395 28.7834 15.8893 28.8722 15.8575C28.961 15.8256 29.0675 15.8145 29.17 15.8263C29.2725 15.8381 29.3634 15.872 29.4242 15.9211C29.485 15.9702 29.5112 16.0308 29.4975 16.0906L29.1291 17.6854L29.7634 16.3041C29.7907 16.2462 29.8551 16.1963 29.9435 16.1647C30.0319 16.133 30.1379 16.1218 30.24 16.1334C30.3421 16.145 30.4328 16.1784 30.4939 16.2271C30.555 16.2757 30.5819 16.3359 30.5693 16.3955L30.1163 18.4328L31.222 16.0523C31.2547 15.9672 31.3659 15.8991 31.5114 15.8754C31.5828 15.8637 31.6584 15.8634 31.7301 15.8745C31.8018 15.8856 31.8671 15.9076 31.9189 15.9383C31.9705 15.9691 32.0069 16.0073 32.0241 16.049C32.0413 16.0906 32.0387 16.1342 32.0166 16.1751L29.3199 21.9846C29.3015 22.025 29.2651 22.0619 29.2142 22.0916L29.2141 22.0915Z" fill="#67D4F1"/>
<path fill-rule="evenodd" clip-rule="evenodd" d="M34.2155 20.6513C34.1615 20.6825 34.0934 20.7045 34.0189 20.7146C33.9445 20.7248 33.8666 20.7228 33.7941 20.7088C33.7215 20.6948 33.6571 20.6695 33.6081 20.6356C33.5591 20.6016 33.5275 20.5605 33.5167 20.5168L33.2306 19.2666L32.519 20.7987C32.4936 20.8528 32.4358 20.9 32.356 20.932C32.2761 20.964 32.1793 20.9787 32.0825 20.9734C31.9857 20.9681 31.8953 20.9432 31.8272 20.9031C31.7592 20.8629 31.7179 20.8102 31.7107 20.7542L31.5478 19.4589L31.1179 20.3791C31.092 20.4336 31.0332 20.481 30.9522 20.5127C30.8712 20.5444 30.7732 20.5584 30.6759 20.5522C30.5785 20.5459 30.4883 20.5198 30.4213 20.4786C30.3543 20.4374 30.3149 20.3837 30.3102 20.3272L30.2718 19.7722C30.2008 19.7883 30.1235 19.7927 30.0484 19.785C29.9733 19.7772 29.9034 19.7576 29.8465 19.7282C29.7896 19.6989 29.748 19.661 29.7263 19.6187C29.7045 19.5765 29.7035 19.5316 29.7234 19.4891L30.2001 18.4624C30.2261 18.4079 30.2849 18.3606 30.366 18.3289C30.447 18.2971 30.545 18.2831 30.6423 18.2894C30.7396 18.2956 30.83 18.3216 30.8971 18.3628C30.9641 18.404 31.0035 18.4577 31.0082 18.5142L31.0244 18.746L31.3827 17.9761C31.4079 17.9219 31.4655 17.8746 31.5454 17.8426C31.6253 17.8106 31.7222 17.7959 31.8189 17.8012C31.9157 17.8066 32.0061 17.8315 32.0742 17.8716C32.1422 17.9117 32.1834 17.9644 32.1906 18.0204L32.3544 19.3146L32.9702 17.9898C32.995 17.9369 33.0507 17.8907 33.1279 17.8588C33.2051 17.8269 33.2989 17.8114 33.3936 17.8149C33.4884 17.8184 33.5782 17.8407 33.6477 17.8781C33.7173 17.9154 33.7623 17.9655 33.7753 18.0198L34.0612 19.269L34.3136 18.7199C34.3452 18.6613 34.4148 18.612 34.5079 18.5824C34.601 18.5528 34.7103 18.5451 34.813 18.5609C34.9157 18.5767 35.0038 18.6149 35.0589 18.6674C35.114 18.7198 35.1318 18.7826 35.1086 18.8425L34.3192 20.5431C34.302 20.5839 34.2662 20.6212 34.2155 20.6513Z" fill="#3CADD9"/>
<path d="M39.7615 6.00726C37.5062 4.69501 36.2599 6.90191 35.7003 8.14007C34.2447 7.25082 31.4364 5.90434 30.7051 7.93696C30.4132 8.75008 31.4153 9.2209 32.2622 9.77718C33.6462 10.6857 34.2213 10.8644 34.0166 11.6839C32.7467 11.0382 30.917 11.0708 30.4076 12.2664C30.021 13.1736 31.1968 13.5146 31.8905 14.2199C32.4698 14.8098 32.5458 14.5136 32.4592 15.1581C32.3369 16.0601 32.1762 15.7104 31.2221 15.8446C26.2217 16.5466 30.0751 13.2694 28.059 12.2933C26.5524 11.5632 25.4311 12.3448 24.8927 13.1378C23.5336 12.3218 23.7161 12.156 24.1654 10.8566C24.3949 10.1946 25.112 9.1461 24.0088 8.60057C21.8029 7.50927 20.783 9.31471 20.3225 10.4908C18.968 9.64138 17.1661 8.3639 15.4101 9.54961C13.9021 10.568 15.5292 11.4972 16.9267 12.24C15.1644 12.4568 13.0977 12.8764 13.653 14.117C14.1378 15.2037 16.0935 14.8538 17.4475 14.6986C19.6378 14.4458 20.2682 14.2801 21.5939 14.9264C20.3313 15.3092 19.2765 16.0667 20.3841 16.8757C21.7973 17.9078 27.9647 16.0546 26.6037 18.6056C25.4939 20.6841 22.2781 17.6429 20.0779 18.0648C18.303 18.406 18.3408 19.4233 19.1273 20.1376C17.8406 20.2416 17.4163 19.9825 15.9512 19.2388C14.9861 18.7491 13.9192 17.957 12.4882 18.2708C9.58361 18.9079 11.3854 20.2699 12.8776 21.1172C10.9239 21.3928 8.34064 21.884 9.08871 23.2125C9.7483 24.3872 11.872 23.7713 13.274 23.604C14.6759 23.4367 14.2271 23.1505 14.1639 23.7704C14.1264 24.1471 13.6019 24.493 13.5603 24.8764C13.455 25.8528 14.7649 26.613 16.4113 25.9684C17.2306 25.6487 17.4011 25.0475 17.7383 24.5612C18.1025 24.037 18.2329 23.2276 18.7803 22.7389C19.334 22.6039 19.9196 22.5173 20.5176 22.4821C20.4312 22.4532 19.9062 23.7761 21.3 24.1142C22.5449 24.4153 23.3531 23.8558 23.9605 23.3479C25.0548 22.4337 24.4053 21.3012 26.4347 21.5666C27.3616 21.6875 27.0273 21.4112 26.9674 21.3673C27.3253 21.5928 27.7025 21.8078 28.0976 22.0115C28.512 22.2348 28.7839 22.3701 28.9638 22.4525C28.8473 22.4526 28.7634 22.5291 28.9014 22.8245C29.1884 23.4394 28.4364 23.5092 28.3385 23.5488C27.1742 24.0194 25.6266 23.9408 24.7918 24.6902C24.0676 25.3402 24.2046 26.3892 25.7893 26.5498C25.4345 26.514 26.9419 26.4571 27.1409 26.4101C27.1698 26.603 27.1139 26.7971 26.9786 26.9743C26.9423 27.026 26.9186 27.0667 26.8981 27.102C26.8498 27.1154 26.8031 27.1307 26.7585 27.1479C25.2045 27.7295 19.837 27.8002 20.9006 29.7228C21.6816 31.1344 23.775 29.9631 25.2074 29.9977C25.3753 29.9747 25.5364 29.9371 25.6847 29.8862C25.6045 30.1806 25.139 30.9099 25.0953 31.0333C24.959 31.3963 24.5817 31.86 24.7935 32.2453C25.3082 33.1837 26.9722 33.1822 28.0339 32.5886C28.8217 32.148 29.1058 31.3187 29.3451 30.6125C30.8064 31.501 33.5811 32.8192 34.3087 30.7961C34.601 29.9833 33.598 29.5119 32.7516 28.9559C31.3681 28.0471 30.792 27.8689 30.9977 27.0489C32.262 27.6898 34.0973 27.662 34.6066 26.4664C34.9928 25.5595 33.8175 25.2182 33.1241 24.5127C32.5439 23.9233 32.4685 24.2191 32.5546 23.575C32.6769 22.6729 32.8376 23.0227 33.7917 22.8885C38.7945 22.1857 34.9371 25.4645 36.9547 26.4398C38.4608 27.1683 39.5817 26.3855 40.12 25.5947C41.4802 26.4113 41.2982 26.5768 40.8483 27.8765C40.6184 28.5382 39.9017 29.587 41.0051 30.1325C43.2183 31.2269 44.2338 29.4206 44.6918 28.2426C46.0464 29.092 47.8482 30.3689 49.6036 29.1834C51.1126 28.1644 49.4872 27.234 48.0847 26.4916C49.8493 26.2701 51.9275 25.8433 51.3641 24.6131C50.8676 23.5293 48.9334 23.8742 47.5694 24.0318C45.3794 24.2847 44.7488 24.4502 43.4233 23.8041C44.6868 23.4214 45.742 22.6669 44.6329 21.8546C43.2223 20.8212 37.052 22.6774 38.4136 20.1248C39.522 18.0477 42.7386 21.0856 44.9391 20.6655C46.7196 20.3247 46.6788 19.307 45.8905 18.5931C47.1767 18.4895 47.6009 18.7485 49.0651 19.4916C50.0386 19.9862 51.0888 20.7673 52.5286 20.4599C55.4192 19.8431 53.6459 18.4773 52.1612 17.6264C53.3389 17.484 54.6082 17.306 55.3177 16.8217C56.6289 15.9303 55.8566 14.8115 53.7978 14.8089C53.1122 14.9146 52.427 15.0206 51.7415 15.1267C50.4973 15.3186 50.8466 15.4652 50.7405 15.1486C50.4855 14.385 52.3165 13.6842 51.1174 12.879C49.0488 11.4832 47.5183 13.7468 47.0529 14.5456C46.8649 15.0383 46.594 15.5191 46.2439 15.9814C45.864 16.0613 45.4722 16.1208 45.0735 16.1592C44.9294 16.1009 44.7759 16.0508 44.6151 16.0097C44.3566 15.6663 45.0452 15.3943 44.444 14.9456C42.0676 13.1704 40.7356 16.3471 39.9949 16.8807C39.8456 17.0114 39.6255 17.1099 39.369 17.1607C39.1125 17.2114 38.834 17.2117 38.5772 17.1614C38.2017 17.1132 36.1625 16.744 35.9384 16.2798C35.2846 14.9264 37.3366 15.2184 38.9568 14.6515C40.3161 14.1753 41.9013 12.5584 39.3399 12.1933C39.3823 12.199 37.3529 12.2797 37.6982 12.4877C37.4193 12.3193 38.3158 11.5672 38.2193 11.5202C39.3546 11.1094 41.3467 11.1311 42.4844 10.7558C44.2225 10.1838 45.1483 8.45362 42.3748 8.3144C41.69 8.28021 41.1103 8.52007 40.4621 8.6025C38.8829 8.80317 39.4461 9.16914 39.6427 8.30329C39.7991 7.5893 40.8891 6.66157 39.7616 6.00722L39.7615 6.00726ZM38.7816 9.47458C39.4382 9.34626 44.4693 8.27485 42.5512 10.2043C42.1057 10.6517 39.3709 10.6692 38.5761 10.9806C37.3465 11.4628 37.3948 11.8731 36.9558 12.8201C36.9158 12.9071 36.8757 13.0864 37.1327 13.0271C38.2123 12.7765 39.459 13.6442 39.057 14.0998C38.9543 14.2159 38.1199 14.2979 37.9166 14.3643C37.4526 14.5158 36.6347 14.5436 36.249 14.7783C35.5133 15.2273 35.4479 16.0675 35.1879 16.6297C35.1583 16.6932 35.1068 16.7934 35.2165 16.8431C35.8288 17.1966 36.442 17.5498 37.056 17.9017C37.0747 17.9276 37.1206 17.9429 37.1683 17.9391C38.1452 17.788 39.4721 17.7519 40.1986 17.3273C40.4761 17.0754 40.6797 16.7988 40.8012 16.5086C40.9177 16.3528 41.0719 15.8892 41.3006 15.7889C41.675 15.6244 44.1196 16.0477 43.7238 16.6177C43.6999 16.6522 43.5235 16.9571 43.7668 16.9194C45.5645 16.6412 45.9105 16.7077 46.783 15.9646C47.4253 15.4185 47.2755 14.1067 48.1272 13.6701C49.1397 13.153 50.4623 13.9036 50.5031 14.5881C50.3731 14.9909 50.1444 15.3809 49.8238 15.7464C49.8016 15.7854 49.7377 15.998 49.9197 15.9674L53.3075 15.444C54.9326 16.2299 55.154 16.6657 53.9718 16.7519L52.9488 16.9074C52.3959 17.0187 51.8295 17.1065 51.2543 17.1698C50.9788 17.2126 50.4013 17.6414 50.7051 17.7941C51.7505 18.3243 53.0309 18.5659 51.9961 19.2489C50.9316 19.9507 50.47 19.2747 49.3993 18.7313C47.4653 17.7493 47.5924 17.7359 45.1022 18.1199C44.8419 18.1607 44.2347 18.6013 44.5535 18.744C45.7781 19.2993 44.1364 19.7975 43.2724 19.6852C42.6153 19.598 42.1705 19.0099 41.5244 18.893C40.5416 18.7148 39.603 18.9724 38.5058 19.1421C38.3413 19.1865 38.1991 19.2544 38.0926 19.3394C37.9861 19.4243 37.9188 19.5235 37.8971 19.6276L37.2948 20.9603C37.2364 21.0457 37.1376 21.1775 37.2709 21.2544C38.0794 21.7212 38.6593 22.2064 39.6696 22.3352C40.342 22.4209 41.2022 22.0554 41.8701 22.1539C42.741 22.2821 44.2651 23.2836 42.6497 23.4171C42.3434 23.4419 41.8347 23.8876 42.1006 24.0411C43.9181 25.0904 43.8414 25.0374 46.3505 24.7472C46.8571 24.6885 48.338 24.3432 48.8271 24.4599C52.9921 25.4623 47.7177 25.9503 47.1516 26.0155C46.8518 26.0501 46.3284 26.4812 46.6026 26.6395C47.0685 26.9085 51.1438 28.8577 47.3733 28.7993C46.7745 28.7896 45.3356 27.623 44.8913 27.3664C44.6529 27.2288 44.2419 27.7679 44.2155 27.844C44.0586 28.2965 43.3255 31.3795 41.187 28.6729C40.9163 28.3304 41.7675 27.0425 41.8688 26.7037C42.2099 25.5658 41.9079 25.6447 40.3867 24.7666C40.1538 24.6321 39.7306 25.1634 39.7109 25.2435C39.6755 25.9359 38.804 25.8566 37.0962 25.0052L37.254 24.3682C37.2108 24.0341 37.6975 23.5488 37.5363 23.2271C37.3034 22.7566 36.1689 22.3316 35.5599 21.98C35.5362 21.9739 35.5103 21.9713 35.4845 21.9724C35.4586 21.9736 35.4337 21.9785 35.412 21.9866L32.9104 22.3723C32.6289 22.3954 32.3939 22.648 32.331 22.784C32.0954 23.2911 31.4581 24.015 31.668 24.5232C31.8233 24.8987 32.7957 25.1742 33.0437 25.5352C33.0995 25.6158 33.6078 25.8489 33.5892 25.9363C33.5489 26.1213 31.6341 26.4994 31.2533 26.2198C31.0196 26.0477 30.6063 26.5001 30.5623 26.5938C29.9917 27.8226 29.6164 27.8546 30.9146 28.7748C31.8548 29.4419 33.7999 30.0605 32.3291 30.6327C30.9671 31.163 30.5513 30.3935 29.562 29.743C29.3699 29.6173 28.9427 30.0897 28.9161 30.147C28.463 31.123 28.7756 32.1915 26.8048 31.6548C24.9758 31.1567 25.9422 30.4724 26.4085 29.4637C26.4542 29.3704 26.4877 29.207 26.2311 29.257C25.5742 29.3854 20.5432 30.4568 22.4615 28.5273C22.9067 28.08 25.6419 28.0626 26.4366 27.7509C27.6662 27.269 27.6171 26.8589 28.0565 25.9117C28.0977 25.8249 28.1371 25.6454 27.8796 25.7052C26.7998 25.9556 25.5534 25.0875 25.9557 24.6315C26.0581 24.5157 26.8931 24.4331 27.0967 24.3673C27.5606 24.2157 28.3788 24.1877 28.7629 23.9531C29.4994 23.5045 29.564 22.6639 29.8245 22.102C29.8547 22.0385 29.9056 21.9383 29.7963 21.8884C29.1839 21.5349 28.5706 21.1821 27.9567 20.8298C27.9477 20.8173 27.9318 20.8068 27.9114 20.8001C27.8911 20.7934 27.8674 20.7907 27.8442 20.7926C26.8675 20.9438 25.5405 20.9797 24.8141 21.4046C24.5361 21.6564 24.3322 21.9331 24.2107 22.2234C24.0943 22.3786 23.9403 22.842 23.7108 22.9428C23.3363 23.1079 20.896 22.6859 21.2883 22.1145C21.3128 22.0794 21.4884 21.7749 21.2451 21.8126C19.4476 22.0909 19.1016 22.0244 18.2294 22.7671C17.5866 23.3136 17.7364 24.6253 16.8847 25.0619C15.8725 25.5792 14.5496 24.8284 14.5091 24.1441C14.639 23.7413 14.8676 23.3512 15.1881 22.9856C15.2102 22.9466 15.2744 22.7341 15.0922 22.7646C14.4619 22.8632 12.3349 23.4314 11.7039 23.2877C7.29681 22.2977 13.1676 21.6511 13.7578 21.5595C14.0331 21.5169 14.6109 21.088 14.3068 20.9355C13.261 20.405 11.9811 20.1633 13.0162 19.4805C14.0805 18.7787 14.5419 19.4546 15.6126 19.998C17.5466 20.9799 17.4204 20.9932 19.9103 20.609C20.1703 20.569 20.778 20.1278 20.4592 19.985C19.2344 19.4296 20.8763 18.9316 21.7403 19.0439C22.3974 19.131 22.8417 19.7195 23.4877 19.8364C24.4712 20.0142 25.4089 19.7572 26.5068 19.587C26.8411 19.4965 27.0711 19.313 27.1153 19.1013L27.7179 17.7688C27.7763 17.6834 27.8746 17.5513 27.7418 17.4746C26.9333 17.0079 26.3531 16.5225 25.3436 16.3942C24.6707 16.3082 23.8107 16.6741 23.1437 16.5752C22.2716 16.4469 20.7468 15.4451 22.3631 15.312C22.669 15.287 23.1781 14.8415 22.9118 14.6878C21.0944 13.6386 21.1713 13.6916 18.6622 13.9819C18.1585 14.0407 16.6792 14.3867 16.1867 14.2677C12.0219 13.2655 17.2964 12.7775 17.8622 12.7124C18.162 12.6777 18.6854 12.2463 18.4112 12.088C17.9456 11.8192 13.8703 9.86997 17.641 9.92795C18.2401 9.93783 19.6786 11.1043 20.123 11.3608C20.3618 11.4987 20.7721 10.9599 20.7982 10.8836C20.957 10.4309 21.6902 7.34791 23.8315 10.0561C24.1017 10.3986 23.2509 11.6865 23.1495 12.0252C22.809 13.1629 23.1107 13.0843 24.6318 13.9625C24.8648 14.097 25.288 13.5656 25.3071 13.4853C25.3423 12.7927 26.2148 12.8727 27.9247 13.7253L27.7661 14.3618C27.8099 14.6963 27.3227 15.1812 27.4844 15.5032C27.7173 15.9737 28.8513 16.3985 29.4603 16.75C29.5086 16.7622 29.564 16.7597 29.6082 16.7434L32.1042 16.3612C32.3854 16.338 32.6204 16.0854 32.6833 15.9494C32.9189 15.4423 33.5567 14.7181 33.3464 14.2096C33.1916 13.8344 32.2193 13.559 31.9707 13.1982C31.9152 13.1173 31.4068 12.8847 31.4259 12.797C31.466 12.6117 33.3808 12.2343 33.7603 12.514C33.9942 12.6861 34.4089 12.2337 34.4521 12.1395C35.0226 10.9108 35.3987 10.8792 34.0997 9.95855C33.1596 9.29152 31.2144 8.67284 32.6852 8.10069C34.0473 7.57036 34.463 8.33992 35.4522 8.99041C35.6444 9.11609 36.0716 8.64362 36.0982 8.58639C36.5513 7.61038 36.2387 6.54188 38.2094 7.07863C40.0387 7.57678 39.0721 8.26103 38.6058 9.26966C38.5596 9.36272 38.5242 9.52503 38.7787 9.47627L38.7816 9.47458Z" fill="#262626"/>
<path d="M30.4505 20.6828C33.0593 22.2014 36.8167 19.4993 34.5608 18.049C31.8299 16.6332 28.0454 19.2829 30.4505 20.6828ZM33.3882 20.434C32.9792 20.4941 32.5503 20.4917 32.1434 20.4271C31.7365 20.3626 31.3658 20.238 31.0675 20.0657C30.1949 19.5537 30.099 18.5807 31.5008 18.3201C31.9243 18.2458 32.3746 18.2388 32.8044 18.2997C33.2342 18.3606 33.6277 18.4872 33.9435 18.6663C34.8041 19.2199 34.9509 20.1928 33.3882 20.434Z" fill="#262626"/>
</svg>
