<svg width="75" height="75" viewBox="0 0 75 75" fill="none" xmlns="http://www.w3.org/2000/svg">
<g filter="url(#filter0_b_1_2477)">
<mask id="path-1-inside-1_1_2477" fill="white">
<path d="M74.3931 34.2225C75.0682 27.0525 75.4057 23.4638 74.1794 21.9825C73.869 21.5975 73.4856 21.2778 73.0512 21.0416C72.6168 20.8054 72.1399 20.6574 71.6481 20.6062C69.8631 20.4487 67.6243 22.9988 63.1429 28.0988C60.8254 30.7388 59.6666 32.055 58.3766 32.2612C57.6561 32.3743 56.9183 32.2562 56.2691 31.9237C55.0728 31.3237 54.2815 29.6925 52.6878 26.4338L44.2989 9.24375C41.2913 3.0825 39.7875 0 37.5 0C35.2125 0 33.7087 3.0825 30.7011 9.24375L22.3122 26.4338C20.7222 29.6963 19.9272 31.3237 18.7309 31.9237C18.0809 32.2537 17.3439 32.3718 16.6234 32.2612C15.3334 32.055 14.1746 30.7388 11.8571 28.0988C7.37572 22.9988 5.13693 20.4487 3.3519 20.6062C2.86008 20.6574 2.38323 20.8054 1.9488 21.0416C1.51438 21.2778 1.13096 21.5975 0.820608 21.9825C-0.405663 23.4638 -0.0681579 27.0525 0.606854 34.2225L1.46562 43.3575C2.88314 58.4025 3.58816 65.9287 8.02823 70.4625C12.4571 75 19.1022 75 32.3999 75H42.5963C55.8903 75 62.5354 75 66.9718 70.4625C70.3993 66.9563 71.5993 61.6688 72.6231 52.5"/>
</mask>
<path d="M74.3931 34.2225C75.0682 27.0525 75.4057 23.4638 74.1794 21.9825C73.869 21.5975 73.4856 21.2778 73.0512 21.0416C72.6168 20.8054 72.1399 20.6574 71.6481 20.6062C69.8631 20.4487 67.6243 22.9988 63.1429 28.0988C60.8254 30.7388 59.6666 32.055 58.3766 32.2612C57.6561 32.3743 56.9183 32.2562 56.2691 31.9237C55.0728 31.3237 54.2815 29.6925 52.6878 26.4338L44.2989 9.24375C41.2913 3.0825 39.7875 0 37.5 0C35.2125 0 33.7087 3.0825 30.7011 9.24375L22.3122 26.4338C20.7222 29.6963 19.9272 31.3237 18.7309 31.9237C18.0809 32.2537 17.3439 32.3718 16.6234 32.2612C15.3334 32.055 14.1746 30.7388 11.8571 28.0988C7.37572 22.9988 5.13693 20.4487 3.3519 20.6062C2.86008 20.6574 2.38323 20.8054 1.9488 21.0416C1.51438 21.2778 1.13096 21.5975 0.820608 21.9825C-0.405663 23.4638 -0.0681579 27.0525 0.606854 34.2225L1.46562 43.3575C2.88314 58.4025 3.58816 65.9287 8.02823 70.4625C12.4571 75 19.1022 75 32.3999 75H42.5963C55.8903 75 62.5354 75 66.9718 70.4625C70.3993 66.9563 71.5993 61.6688 72.6231 52.5" fill="#4F3C2C" fill-opacity="0.5"/>
<path d="M74.1794 21.9825L71.8439 23.8654L71.8561 23.8806L71.8685 23.8956L74.1794 21.9825ZM71.6481 20.6062L71.9586 17.6224L71.9352 17.6199L71.9118 17.6179L71.6481 20.6062ZM63.1429 28.0988L60.8893 26.1185L60.8884 26.1196L63.1429 28.0988ZM58.3766 32.2612L58.8418 35.225L58.8502 35.2236L58.3766 32.2612ZM56.2691 31.9237L57.6365 29.2535L57.6253 29.2478L57.6141 29.2421L56.2691 31.9237ZM52.6878 26.4338L49.9917 27.7495L49.9928 27.7518L52.6878 26.4338ZM44.2989 9.24375L46.995 7.92803L46.9948 7.92775L44.2989 9.24375ZM30.7011 9.24375L28.0052 7.92775L28.005 7.92803L30.7011 9.24375ZM22.3122 26.4338L19.6161 25.118L19.6155 25.1194L22.3122 26.4338ZM18.7309 31.9237L17.3859 29.2421L17.3794 29.2454L17.3729 29.2487L18.7309 31.9237ZM16.6234 32.2612L16.1498 35.2236L16.1592 35.2251L16.1686 35.2266L16.6234 32.2612ZM11.8571 28.0988L14.1116 26.1196L14.1107 26.1185L11.8571 28.0988ZM3.3519 20.6062L3.08823 17.6179L3.06478 17.6199L3.04137 17.6224L3.3519 20.6062ZM0.820608 21.9825L3.13148 23.8956L3.1439 23.8806L3.15613 23.8654L0.820608 21.9825ZM0.606854 34.2225L3.59368 33.9417L3.59365 33.9413L0.606854 34.2225ZM1.46562 43.3575L-1.52121 43.6383L-1.52115 43.6389L1.46562 43.3575ZM8.02823 70.4625L10.1751 68.367L10.1716 68.3634L8.02823 70.4625ZM66.9718 70.4625L69.1169 72.5598L69.117 72.5596L66.9718 70.4625ZM77.3799 34.5037C77.7119 30.9777 77.9824 28.1323 77.9992 25.9927C78.0143 24.0515 77.8698 21.7358 76.4903 20.0694L71.8685 23.8956C71.7152 23.7104 72.0151 23.9297 71.9993 25.9458C71.9851 27.7634 71.7494 30.2973 71.4063 33.9413L77.3799 34.5037ZM76.5149 20.0996C75.9563 19.4067 75.2661 18.8311 74.4842 18.4059L71.6182 23.6772C71.7051 23.7245 71.7818 23.7884 71.8439 23.8654L76.5149 20.0996ZM74.4842 18.4059C73.7022 17.9808 72.8439 17.7145 71.9586 17.6224L71.3376 23.5901C71.4359 23.6004 71.5313 23.63 71.6182 23.6772L74.4842 18.4059ZM71.9118 17.6179C70.6695 17.5082 69.5861 17.8978 68.7332 18.3743C67.8952 18.8424 67.1036 19.4924 66.3581 20.1893C64.8805 21.5704 63.084 23.6208 60.8893 26.1185L65.3966 30.079C67.6832 27.4767 69.2468 25.7021 70.4552 24.5726C71.0527 24.0141 71.4355 23.7374 71.6594 23.6123C71.8683 23.4956 71.7342 23.6255 71.3844 23.5946L71.9118 17.6179ZM60.8884 26.1196C59.6862 27.4891 58.9363 28.3365 58.3377 28.89C57.7414 29.4414 57.6675 29.3365 57.903 29.2989L58.8502 35.2236C60.3758 34.9797 61.5262 34.1136 62.4112 33.2953C63.2939 32.4791 64.2822 31.3484 65.3975 30.0779L60.8884 26.1196ZM57.9114 29.2975C57.8174 29.3123 57.7212 29.2969 57.6365 29.2535L54.9017 34.594C56.1153 35.2155 57.4947 35.4364 58.8418 35.225L57.9114 29.2975ZM57.6141 29.2421C57.7722 29.3215 57.638 29.3453 57.184 28.606C56.7311 27.8685 56.2082 26.8036 55.3827 25.1157L49.9928 27.7518C50.7611 29.3226 51.4307 30.7028 52.071 31.7455C52.7102 32.7866 53.5697 33.926 54.9241 34.6054L57.6141 29.2421ZM55.3839 25.118L46.995 7.92803L41.6028 10.5595L49.9917 27.7495L55.3839 25.118ZM46.9948 7.92775C45.5341 4.93537 44.3008 2.39203 43.1176 0.635426C41.9806 -1.05257 40.2494 -3 37.5 -3V3C37.0381 3 37.2026 2.59382 38.1412 3.98739C39.0337 5.31235 40.0561 7.39088 41.6029 10.5598L46.9948 7.92775ZM37.5 -3C34.7506 -3 33.0194 -1.05257 31.8824 0.635426C30.6992 2.39203 29.4659 4.93537 28.0052 7.92775L33.3971 10.5598C34.9439 7.39088 35.9663 5.31235 36.8588 3.98739C37.7974 2.59382 37.9619 3 37.5 3V-3ZM28.005 7.92803L19.6161 25.118L25.0083 27.7495L33.3972 10.5595L28.005 7.92803ZM19.6155 25.1194C18.7932 26.8065 18.2702 27.871 17.8184 28.6059C17.3658 29.3419 17.2304 29.3201 17.3859 29.2421L20.0759 34.6054C21.4277 33.9274 22.288 32.7918 22.9295 31.7485C23.5718 30.704 24.2412 29.3235 25.009 27.7481L19.6155 25.1194ZM17.3729 29.2487C17.282 29.2949 17.1789 29.3114 17.0782 29.2959L16.1686 35.2266C17.5089 35.4321 18.8799 35.2126 20.089 34.5988L17.3729 29.2487ZM17.097 29.2989C17.3325 29.3365 17.2586 29.4414 16.6623 28.89C16.0637 28.3365 15.3138 27.4891 14.1116 26.1196L9.60252 30.0779C10.7178 31.3484 11.7061 32.4791 12.5888 33.2953C13.4738 34.1136 14.6242 34.9797 16.1498 35.2236L17.097 29.2989ZM14.1107 26.1185C11.916 23.6209 10.1195 21.5704 8.64194 20.1893C7.89643 19.4924 7.10481 18.8424 6.26682 18.3743C5.4139 17.8978 4.33052 17.5082 3.08823 17.6179L3.61558 23.5946C3.2658 23.6255 3.13166 23.4956 3.34059 23.6123C3.56446 23.7374 3.94731 24.0141 4.5448 24.5726C5.7532 25.7021 7.31681 27.4767 9.60345 30.079L14.1107 26.1185ZM3.04137 17.6224C2.15608 17.7145 1.29777 17.9808 0.515825 18.4059L3.38178 23.6772C3.46869 23.63 3.56407 23.6004 3.66244 23.5901L3.04137 17.6224ZM0.515825 18.4059C-0.266126 18.8311 -0.956282 19.4067 -1.51492 20.0996L3.15613 23.8654C3.2182 23.7884 3.29489 23.7245 3.38178 23.6772L0.515825 18.4059ZM-1.49026 20.0694C-2.86981 21.7358 -3.01433 24.0515 -2.99916 25.9927C-2.98243 28.1323 -2.71189 30.9777 -2.37994 34.5037L3.59365 33.9413C3.25058 30.2973 3.01487 27.7634 3.00066 25.9458C2.9849 23.9297 3.28476 23.7104 3.13148 23.8956L-1.49026 20.0694ZM-2.37998 34.5033L-1.52121 43.6383L4.45245 43.0767L3.59368 33.9417L-2.37998 34.5033ZM-1.52115 43.6389C-0.819108 51.0901 -0.274148 56.9335 0.677424 61.4679C1.63971 66.0533 3.09237 69.7101 5.88489 72.5616L10.1716 68.3634C8.52402 66.6811 7.40413 64.308 6.54951 60.2356C5.68418 56.1121 5.16787 50.6699 4.45239 43.0761L-1.52115 43.6389ZM5.88136 72.558C8.71111 75.4571 12.1874 76.7771 16.454 77.4012C20.5981 78.0075 25.8417 78 32.3999 78V72C25.6604 72 20.9325 71.9925 17.3225 71.4644C13.8349 70.9542 11.7742 70.0054 10.1751 68.367L5.88136 72.558ZM32.3999 78H42.5963V72H32.3999V78ZM42.5963 78C49.1527 78 54.3953 78.0075 58.5399 77.4012C62.807 76.7771 66.2839 75.4573 69.1169 72.5598L64.8267 68.3652C63.2233 70.0052 61.1595 70.9542 57.6715 71.4644C54.0609 71.9925 49.3339 72 42.5963 72V78ZM69.117 72.5596C73.3674 68.2117 74.5961 61.8647 75.6046 52.8329L69.6416 52.1671C68.6026 61.4728 67.4313 65.7008 64.8265 68.3654L69.117 72.5596Z" fill="url(#paint0_linear_1_2477)" mask="url(#path-1-inside-1_1_2477)"/>
</g>
<defs>
<filter id="filter0_b_1_2477" x="-8.4" y="-8.4" width="91.8" height="91.8" filterUnits="userSpaceOnUse" color-interpolation-filters="sRGB">
<feFlood flood-opacity="0" result="BackgroundImageFix"/>
<feGaussianBlur in="BackgroundImageFix" stdDeviation="4.2"/>
<feComposite in2="SourceAlpha" operator="in" result="effect1_backgroundBlur_1_2477"/>
<feBlend mode="normal" in="SourceGraphic" in2="effect1_backgroundBlur_1_2477" result="shape"/>
</filter>
<linearGradient id="paint0_linear_1_2477" x1="70.0581" y1="6.77962e-06" x2="-3.67257" y2="14.8133" gradientUnits="userSpaceOnUse">
<stop stop-color="#A0550A"/>
<stop offset="0.375" stop-color="#DAC480"/>
<stop offset="0.725" stop-color="#4B2605"/>
<stop offset="0.89" stop-color="#D3B454"/>
<stop offset="1" stop-color="#703105"/>
</linearGradient>
</defs>
</svg>
