<svg width="38" height="39" viewBox="0 0 38 39" fill="none" xmlns="http://www.w3.org/2000/svg">
<path d="M19.199 38.0105C19.129 38.0105 19.0609 37.9877 19.005 37.9456C18.949 37.9034 18.9084 37.8442 18.8891 37.7769C18.8697 37.7096 18.8729 37.6378 18.898 37.5725C18.9231 37.5071 18.9687 37.4517 19.0281 37.4145L20.2233 36.6664L18.0271 37.9344C17.9543 37.9767 17.8679 37.9889 17.7862 37.9683C17.7046 37.9478 17.6342 37.8961 17.5902 37.8243C17.5461 37.7526 17.5319 37.6664 17.5505 37.5843C17.5691 37.5022 17.6191 37.4306 17.6898 37.3849L26.5905 31.5671L15.9709 37.699C15.898 37.7397 15.8122 37.7506 15.7314 37.7293C15.6507 37.7081 15.5813 37.6563 15.538 37.585C15.4946 37.5136 15.4806 37.4282 15.4989 37.3468C15.5172 37.2653 15.5664 37.1941 15.6362 37.1482L24.9452 31.193L14.3062 37.3346C14.233 37.3742 14.1474 37.3841 14.0671 37.3621C13.9868 37.34 13.9182 37.2878 13.8756 37.2163C13.8329 37.1449 13.8195 37.0597 13.8383 36.9786C13.857 36.8974 13.9063 36.8267 13.976 36.7812L17.7904 34.4315L13.2891 37.0301C13.2162 37.0691 13.1312 37.0786 13.0515 37.0567C12.9719 37.0347 12.9036 36.9831 12.861 36.9123C12.8183 36.8416 12.8044 36.7572 12.8221 36.6765C12.8398 36.5958 12.8878 36.525 12.9563 36.4787L23.2444 29.996L11.9359 36.5245C11.863 36.5646 11.7773 36.5749 11.6969 36.5534C11.6165 36.5318 11.5476 36.48 11.5045 36.4088C11.4615 36.3375 11.4476 36.2524 11.4659 36.1712C11.4841 36.09 11.533 36.019 11.6024 35.973L23.7107 28.3274L10.6001 35.8969C10.5267 35.9388 10.4397 35.9501 10.3579 35.9285C10.2762 35.9068 10.2062 35.8539 10.1631 35.7812C10.12 35.7085 10.1071 35.6217 10.1273 35.5396C10.1476 35.4575 10.1992 35.3866 10.2712 35.3422L15.5156 32.1367L9.78101 35.4473C9.70789 35.4876 9.62201 35.498 9.54141 35.4762C9.46082 35.4545 9.3918 35.4023 9.34887 35.3307C9.30593 35.2592 9.29243 35.1737 9.31119 35.0924C9.32996 35.011 9.37953 34.9401 9.44949 34.8946L20.4245 28.0784L8.75936 34.8133C8.68605 34.8539 8.59985 34.8643 8.519 34.8424C8.43814 34.8205 8.36899 34.768 8.32616 34.696C8.28334 34.624 8.2702 34.5382 8.28954 34.4566C8.30888 34.3751 8.35917 34.3044 8.42977 34.2593L15.6329 29.8534L7.98731 34.2677C7.91409 34.3099 7.82722 34.3217 7.7454 34.3005C7.66357 34.2793 7.59334 34.2269 7.5498 34.1544C7.50626 34.082 7.49291 33.9953 7.51261 33.9131C7.53231 33.8309 7.5835 33.7598 7.65515 33.7149L20.8373 25.5043L7.01532 33.484C6.94202 33.5246 6.85581 33.535 6.77496 33.5131C6.69411 33.4912 6.62495 33.4387 6.58213 33.3667C6.5393 33.2947 6.52617 33.2088 6.54551 33.1273C6.56484 33.0458 6.61514 32.9751 6.68574 32.93L15.522 27.5212L6.30391 32.8436C6.23074 32.8832 6.14506 32.8931 6.0648 32.871C5.98454 32.849 5.9159 32.7968 5.87325 32.7253C5.8306 32.6538 5.81723 32.5686 5.83595 32.4875C5.85467 32.4064 5.90402 32.3357 5.97368 32.2902L18.04 24.8425L5.52735 32.0663C5.45413 32.1055 5.36864 32.1149 5.28867 32.0926C5.2087 32.0702 5.14042 32.018 5.09804 31.9466C5.05565 31.8752 5.04243 31.7902 5.06113 31.7093C5.07983 31.6284 5.129 31.5579 5.19841 31.5123L13.0865 26.7065L4.9417 31.4085C4.86798 31.4519 4.78001 31.4643 4.69715 31.4429C4.6143 31.4215 4.54334 31.368 4.49989 31.2943C4.45644 31.2206 4.44406 31.1326 4.46547 31.0498C4.48688 30.9669 4.54033 30.8959 4.61405 30.8525L4.84302 30.7151L4.52053 30.9002C4.48403 30.9217 4.44365 30.9358 4.4017 30.9416C4.35976 30.9475 4.31707 30.945 4.27607 30.9344C4.23508 30.9238 4.19658 30.9052 4.16277 30.8797C4.12896 30.8542 4.10051 30.8222 4.07904 30.7857C4.05757 30.7492 4.0435 30.7089 4.03763 30.6669C4.03176 30.625 4.03422 30.5823 4.04485 30.5413C4.05548 30.5003 4.07408 30.4618 4.09959 30.428C4.1251 30.3942 4.15702 30.3657 4.19352 30.3442L5.52025 29.5458L4.10839 30.3597C4.03475 30.4033 3.94683 30.4158 3.86397 30.3945C3.78111 30.3732 3.71011 30.3198 3.66657 30.2462C3.62304 30.1726 3.61054 30.0846 3.63183 30.0018C3.65312 29.9189 3.70645 29.8479 3.78009 29.8044L9.85841 26.1196L3.644 29.7089C3.57053 29.7527 3.48267 29.7655 3.39976 29.7446C3.31684 29.7236 3.24566 29.6705 3.20186 29.597C3.15807 29.5236 3.14526 29.4357 3.16625 29.3528C3.18723 29.2699 3.2403 29.1987 3.31377 29.1549L15.7174 21.5189L3.08222 28.8118C3.00918 28.8508 2.92393 28.8602 2.84414 28.8381C2.76434 28.816 2.69611 28.764 2.65358 28.6929C2.61105 28.6219 2.59748 28.5372 2.61568 28.4564C2.63388 28.3756 2.68245 28.305 2.75134 28.259L16.583 19.6995L2.53076 27.8127C2.45759 27.8524 2.37192 27.8622 2.29165 27.8402C2.21139 27.8181 2.14275 27.7659 2.1001 27.6944C2.05745 27.623 2.04409 27.5378 2.0628 27.4567C2.08152 27.3756 2.13087 27.3048 2.20053 27.2593L14.5274 19.6685L2.07411 26.8588C2.00064 26.9025 1.91278 26.9154 1.82987 26.8944C1.74695 26.8734 1.67577 26.8203 1.63198 26.7469C1.58818 26.6734 1.57537 26.5855 1.59636 26.5026C1.61735 26.4197 1.67041 26.3485 1.74388 26.3047L13.1098 19.3234L1.68583 25.919C1.61236 25.9628 1.5245 25.9756 1.44159 25.9546C1.35867 25.9336 1.28749 25.8806 1.2437 25.8071C1.19991 25.7336 1.18709 25.6458 1.20808 25.5629C1.22907 25.48 1.28213 25.4088 1.3556 25.365L13.1588 18.0999L1.33754 24.9238C1.26432 24.9629 1.17883 24.9723 1.09886 24.95C1.0189 24.9277 0.950614 24.8754 0.908231 24.804C0.865847 24.7326 0.852627 24.6477 0.871323 24.5668C0.890019 24.4859 0.939189 24.4153 1.0086 24.3698L8.37495 19.8839L1.09567 24.0866C1.02232 24.1265 0.936346 24.1364 0.85585 24.1142C0.775354 24.092 0.706609 24.0394 0.664078 23.9676C0.621548 23.8957 0.608548 23.8102 0.627814 23.7289C0.64708 23.6477 0.69711 23.5771 0.767377 23.5319L3.4318 21.9195L0.923463 23.3707C0.850201 23.412 0.763716 23.423 0.682442 23.4014C0.601168 23.3798 0.531534 23.3274 0.488383 23.2552C0.445232 23.183 0.431976 23.0969 0.451441 23.0151C0.470907 22.9333 0.521554 22.8623 0.592586 22.8173L13.2213 14.9846L0.700299 22.2136C0.626914 22.2576 0.539071 22.2706 0.456094 22.2498C0.373117 22.229 0.301803 22.176 0.25784 22.1027C0.213878 22.0293 0.200868 21.9414 0.221673 21.8585C0.242478 21.7755 0.295393 21.7042 0.368778 21.6602L12.1036 14.3867L0.556467 21.0539C0.483428 21.0929 0.398181 21.1023 0.318385 21.0802C0.238589 21.0581 0.170359 21.0061 0.127829 20.9351C0.0852997 20.864 0.071729 20.7794 0.0899285 20.6986C0.108128 20.6178 0.156703 20.5471 0.225591 20.5012L13.876 11.9229L0.483584 19.6582C0.410363 19.7004 0.323494 19.7122 0.241669 19.691C0.159845 19.6698 0.0896079 19.6174 0.0460722 19.5449C0.00253647 19.4725 -0.0108173 19.3858 0.00888471 19.3036C0.0285867 19.2214 0.0797695 19.1503 0.151418 19.1054L11.7766 11.8358L0.495194 18.3489C0.421723 18.3907 0.334747 18.4021 0.253 18.3804C0.171254 18.3588 0.101277 18.3059 0.0581438 18.2332C0.0150104 18.1604 0.00217149 18.0737 0.0223925 17.9916C0.0426134 17.9094 0.0942762 17.8386 0.166253 17.7942L3.99422 15.4606L0.563562 17.4381C0.49054 17.4799 0.404105 17.4914 0.322686 17.4703C0.241268 17.4492 0.17131 17.3972 0.127729 17.3253C0.0841487 17.2533 0.0703942 17.1672 0.0893988 17.0853C0.108403 17.0033 0.158663 16.9321 0.229461 16.8867L12.13 9.33329L0.780921 15.8831C0.7077 15.9253 0.620831 15.9371 0.539006 15.9159C0.457182 15.8947 0.386945 15.8423 0.343409 15.7698C0.299873 15.6974 0.28652 15.6107 0.306222 15.5285C0.325924 15.4463 0.377106 15.3752 0.448755 15.3303L8.10792 10.5452L1.06407 14.6118C0.991308 14.6518 0.905916 14.6623 0.825673 14.6409C0.745431 14.6195 0.676524 14.568 0.633301 14.4971C0.590077 14.4262 0.57587 14.3414 0.593637 14.2603C0.611403 14.1791 0.659774 14.108 0.728678 14.0617L10.7569 7.61183L1.59295 12.9033C1.5567 12.9252 1.51649 12.9398 1.4746 12.9462C1.43271 12.9526 1.38997 12.9507 1.34883 12.9405C1.26573 12.9201 1.19416 12.8675 1.14985 12.7943C1.10555 12.7211 1.09214 12.6332 1.11258 12.5501C1.13302 12.467 1.18564 12.3955 1.25885 12.3512L7.49841 8.39226L2.19085 11.4566C2.11807 11.4989 2.03161 11.5111 1.94996 11.4905C1.86831 11.4699 1.79794 11.4183 1.75389 11.3465C1.70985 11.2747 1.69561 11.1886 1.71423 11.1065C1.73284 11.0244 1.78284 10.9528 1.85353 10.907L8.64906 6.46828L3.14994 9.64288C3.07756 9.68577 2.99129 9.69867 2.90954 9.67884C2.82778 9.659 2.75701 9.60801 2.71232 9.53673C2.66764 9.46545 2.65257 9.37953 2.67035 9.2973C2.68812 9.21507 2.73732 9.14304 2.80746 9.09658L8.33238 5.35568L4.69339 7.45768C4.62215 7.49818 4.53818 7.51004 4.45852 7.49086C4.37886 7.47168 4.30948 7.4229 4.26449 7.35442C4.21949 7.28594 4.20225 7.20291 4.21626 7.12218C4.23028 7.04144 4.27449 6.96907 4.33994 6.91977L7.59258 4.50624C7.5246 4.49951 7.46051 4.47136 7.40955 4.42586C7.3586 4.38035 7.32341 4.31984 7.30906 4.25305C7.29471 4.18626 7.30195 4.11664 7.32972 4.05422C7.35749 3.99181 7.40437 3.93982 7.46359 3.90576L11.7153 1.45096C11.7867 1.40905 11.8714 1.39617 11.952 1.415C12.0326 1.43382 12.1028 1.48291 12.1482 1.55209C12.1937 1.62128 12.2107 1.70527 12.1959 1.78669C12.1811 1.86811 12.1356 1.94073 12.0688 1.98952L9.23406 4.09152L15.8206 0.2887C15.8929 0.247488 15.9784 0.235831 16.0591 0.256168C16.1398 0.276505 16.2095 0.327261 16.2537 0.39782C16.2978 0.468379 16.313 0.553276 16.296 0.634755C16.279 0.716234 16.2312 0.787985 16.1625 0.835001L10.6382 4.5759L18.4709 0.0526367C18.5435 0.0113311 18.6294 -0.000154069 18.7103 0.0206018C18.7913 0.0413577 18.861 0.0927335 18.9049 0.163901C18.9487 0.235069 18.9632 0.32047 18.9452 0.402105C18.9273 0.48374 18.8784 0.555234 18.8088 0.601517L12.0114 5.04222L20.5367 0.12036C20.6097 0.0802509 20.6953 0.0698965 20.7757 0.0914627C20.8561 0.113029 20.925 0.164845 20.9681 0.236073C21.0112 0.307301 21.025 0.392424 21.0068 0.473637C20.9885 0.554849 20.9396 0.625862 20.8702 0.67182L14.6345 4.62879L22.0841 0.327399C22.1571 0.282838 22.2448 0.269118 22.328 0.289258C22.4112 0.309397 22.4829 0.361746 22.5275 0.434789C22.572 0.507832 22.5858 0.595584 22.5656 0.678743C22.5455 0.761901 22.4931 0.833653 22.4201 0.878214L12.3906 7.32804L23.832 0.720839C23.9052 0.678618 23.992 0.666831 24.0739 0.688014C24.1557 0.709197 24.2259 0.761656 24.2695 0.834103C24.313 0.90655 24.3264 0.993192 24.3067 1.07539C24.287 1.15758 24.2358 1.22875 24.1641 1.27359L16.5095 6.05742L25.071 1.11428C25.1439 1.07417 25.2295 1.06381 25.3099 1.08538C25.3903 1.10695 25.4593 1.15876 25.5023 1.22999C25.5454 1.30122 25.5593 1.38634 25.541 1.46755C25.5228 1.54877 25.4738 1.61978 25.4044 1.66574L13.5026 9.223L26.5312 1.7025C26.6047 1.66063 26.6917 1.6493 26.7734 1.67094C26.8552 1.69258 26.9251 1.74546 26.9683 1.8182C27.0114 1.89093 27.0242 1.9777 27.004 2.05981C26.9838 2.14192 26.9321 2.2128 26.8601 2.25719L23.0354 4.59202L27.3529 2.09917C27.4261 2.05695 27.513 2.04516 27.5948 2.06634C27.6767 2.08752 27.7469 2.13998 27.7904 2.21243C27.834 2.28488 27.8473 2.37152 27.8276 2.45371C27.8079 2.53591 27.7567 2.60708 27.6851 2.65192L16.0535 9.92216L28.5016 2.73576C28.5749 2.69163 28.6628 2.67842 28.7458 2.69905C28.8288 2.71967 28.9003 2.77243 28.9444 2.84573C28.9885 2.91903 29.0018 3.00686 28.9811 3.0899C28.9605 3.17294 28.9077 3.24438 28.8344 3.28851L15.1853 11.8636L29.6613 3.50523C29.6976 3.48346 29.7379 3.46906 29.7798 3.46286C29.8217 3.45665 29.8644 3.45876 29.9055 3.46906C29.9466 3.47936 29.9853 3.49766 30.0193 3.5229C30.0533 3.54814 30.082 3.57983 30.1038 3.61617C30.1255 3.6525 30.1399 3.69277 30.1461 3.73467C30.1523 3.77657 30.1502 3.81928 30.1399 3.86037C30.1296 3.90146 30.1113 3.94011 30.0861 3.97413C30.0609 4.00814 30.0292 4.03686 29.9928 4.05862L18.2554 11.3327L30.592 4.21084C30.6654 4.16688 30.7532 4.15387 30.8362 4.17467C30.9192 4.19548 30.9905 4.24839 31.0345 4.32178C31.0784 4.39516 31.0914 4.483 31.0706 4.56598C31.0498 4.64896 30.9969 4.72027 30.9235 4.76423L18.2935 12.5975L31.4847 4.98159C31.5211 4.96004 31.5615 4.94587 31.6034 4.93991C31.6454 4.93395 31.6881 4.93631 31.7291 4.94685C31.7701 4.95739 31.8087 4.97591 31.8425 5.00135C31.8764 5.02679 31.9049 5.05865 31.9265 5.09511C31.948 5.13157 31.9622 5.17193 31.9682 5.21386C31.9741 5.2558 31.9718 5.2985 31.9612 5.33953C31.9507 5.38055 31.9322 5.4191 31.9067 5.45297C31.8813 5.48684 31.8494 5.51537 31.813 5.53692L29.1408 7.14938L32.0174 5.48919C32.0909 5.44733 32.1779 5.43599 32.2596 5.45763C32.3414 5.47927 32.4113 5.53216 32.4545 5.60489C32.4976 5.67763 32.5105 5.76439 32.4902 5.8465C32.47 5.92861 32.4184 5.99949 32.3464 6.04388L24.9839 10.5265L32.6198 6.11805C32.6933 6.07426 32.7812 6.06145 32.8641 6.08244C32.947 6.10342 33.0182 6.15649 33.062 6.22996C33.1058 6.30343 33.1186 6.39129 33.0976 6.4742C33.0766 6.55712 33.0235 6.6283 32.9501 6.67209L21.1469 13.9365L33.3093 6.91654C33.3828 6.87275 33.4707 6.85994 33.5536 6.88092C33.6365 6.90191 33.7077 6.95498 33.7515 7.02845C33.7953 7.10192 33.8081 7.18977 33.7871 7.27269C33.7661 7.35561 33.713 7.42679 33.6396 7.47058L22.2795 14.4486L33.9292 7.72083C34.0026 7.67704 34.0905 7.66423 34.1734 7.68522C34.2563 7.7062 34.3275 7.75927 34.3713 7.83274C34.4151 7.90621 34.4279 7.99407 34.4069 8.07698C34.3859 8.1599 34.3329 8.23108 34.2594 8.27487L21.9338 15.8657L34.5277 8.59414C34.6012 8.55026 34.6891 8.53737 34.772 8.5583C34.855 8.57922 34.9263 8.63225 34.9702 8.70572C35.014 8.77919 35.0269 8.86708 35.006 8.95006C34.9851 9.03304 34.932 9.1043 34.8586 9.14818L21.0276 17.7071L35.1192 9.57193C35.1555 9.55025 35.1958 9.53595 35.2377 9.52983C35.2796 9.52372 35.3223 9.52593 35.3634 9.53632C35.4044 9.54671 35.4431 9.56509 35.477 9.5904C35.511 9.61571 35.5396 9.64746 35.5613 9.68384C35.583 9.72022 35.5973 9.76051 35.6034 9.80242C35.6095 9.84433 35.6073 9.88703 35.5969 9.92808C35.5865 9.96914 35.5681 10.0077 35.5428 10.0417C35.5175 10.0757 35.4858 10.1043 35.4494 10.126L23.036 17.7697L35.6132 10.5072C35.6867 10.4662 35.7733 10.4556 35.8545 10.4776C35.9357 10.4997 36.0051 10.5525 36.0479 10.625C36.0907 10.6975 36.1034 10.7838 36.0834 10.8655C36.0634 10.9473 36.0122 11.0179 35.9409 11.0625L29.8832 14.735L35.946 11.2334C36.0195 11.1925 36.1061 11.1819 36.1873 11.2039C36.2686 11.2259 36.3379 11.2788 36.3807 11.3513C36.4235 11.4237 36.4362 11.51 36.4162 11.5918C36.3962 11.6735 36.3451 11.7442 36.2737 11.7887L34.9328 12.5963L36.2059 11.8603C36.2797 11.8169 36.3676 11.8045 36.4505 11.8259C36.5334 11.8473 36.6043 11.9008 36.6478 11.9745C36.6912 12.0482 36.7036 12.1362 36.6822 12.219C36.6608 12.3019 36.6073 12.3729 36.5336 12.4163L36.304 12.5582L36.4433 12.4776C36.5167 12.4377 36.6026 12.4278 36.6831 12.45C36.7636 12.4722 36.8324 12.5248 36.8749 12.5966C36.9174 12.6685 36.9304 12.754 36.9112 12.8353C36.8919 12.9165 36.8419 12.9872 36.7716 13.0323L28.8899 17.8348L36.7181 13.3148C36.7913 13.2735 36.8778 13.2625 36.9591 13.284C37.0404 13.3056 37.11 13.3581 37.1531 13.4302C37.1963 13.5024 37.2095 13.5886 37.1901 13.6704C37.1706 13.7522 37.12 13.8232 37.0489 13.8682L24.9794 21.3164L37.0031 14.3751C37.0765 14.3346 37.1627 14.3242 37.2435 14.3461C37.3244 14.368 37.3935 14.4205 37.4363 14.4925C37.4792 14.5645 37.4923 14.6503 37.473 14.7318C37.4536 14.8133 37.4033 14.8841 37.3327 14.9292L28.4965 20.3386L37.2037 15.3116C37.2769 15.2714 37.3627 15.261 37.4433 15.2828C37.5239 15.3045 37.5929 15.3567 37.6359 15.4282C37.6788 15.4998 37.6923 15.5853 37.6736 15.6666C37.6548 15.748 37.6052 15.8188 37.5353 15.8644L24.3479 24.0782L37.3895 16.5494C37.4627 16.5102 37.5482 16.5008 37.6282 16.5231C37.7081 16.5455 37.7764 16.5977 37.8188 16.6691C37.8612 16.7405 37.8744 16.8255 37.8557 16.9064C37.837 16.9873 37.7878 17.0578 37.7184 17.1034L30.5204 21.506L37.474 17.491C37.5474 17.4471 37.6352 17.4341 37.7182 17.4549C37.8012 17.4757 37.8725 17.5286 37.9164 17.602C37.9604 17.6754 37.9734 17.7632 37.9526 17.8462C37.9318 17.9291 37.8789 18.0005 37.8055 18.0444L26.8337 24.8574L37.5178 18.6888C37.5913 18.6469 37.6783 18.6356 37.76 18.6572C37.8418 18.6788 37.9118 18.7317 37.9549 18.8045C37.998 18.8772 38.0109 18.964 37.9906 19.0461C37.9704 19.1282 37.9188 19.1991 37.8468 19.2434L32.5992 22.4516L37.4966 19.624C37.5696 19.583 37.6558 19.5721 37.7367 19.5936C37.8177 19.615 37.8871 19.6671 37.9304 19.7388C37.9736 19.8106 37.9873 19.8963 37.9684 19.9779C37.9496 20.0595 37.8997 20.1306 37.8294 20.1761L25.7205 27.8217L37.3663 21.0978C37.4398 21.0536 37.5279 21.0405 37.6111 21.0613C37.6943 21.0821 37.7659 21.1352 37.81 21.2087C37.8542 21.2823 37.8673 21.3703 37.8465 21.4536C37.8256 21.5368 37.7726 21.6083 37.6991 21.6525L27.4187 28.1287L37.1283 22.5219C37.2017 22.4781 37.2896 22.4653 37.3725 22.4863C37.4554 22.5073 37.5266 22.5603 37.5704 22.6338C37.6142 22.7073 37.627 22.7951 37.606 22.878C37.585 22.961 37.532 23.0321 37.4585 23.0759L33.6389 25.4282L36.8871 23.5532C36.9598 23.5132 37.0452 23.5028 37.1254 23.5242C37.2057 23.5455 37.2746 23.597 37.3178 23.6679C37.361 23.7388 37.3752 23.8237 37.3575 23.9048C37.3397 23.9859 37.2913 24.0571 37.2224 24.1034L27.9057 30.0643L36.3756 25.1747C36.4482 25.1334 36.5341 25.1219 36.6151 25.1427C36.696 25.1634 36.7657 25.2148 36.8096 25.286C36.8534 25.3571 36.8679 25.4425 36.85 25.5242C36.832 25.6058 36.7831 25.6773 36.7136 25.7236L27.8128 31.54L35.5526 27.0722C35.6256 27.0313 35.7118 27.0204 35.7928 27.0418C35.8737 27.0633 35.9432 27.1154 35.9864 27.1871C36.0296 27.2588 36.0433 27.3446 36.0244 27.4262C36.0056 27.5078 35.9557 27.5789 35.8854 27.6244L34.6909 28.3719L34.9147 28.2429C34.9871 28.2 35.0733 28.1871 35.1551 28.2069C35.2369 28.2268 35.3076 28.2778 35.3523 28.349C35.397 28.4203 35.4121 28.5062 35.3943 28.5885C35.3765 28.6707 35.3273 28.7427 35.2572 28.7892L29.3975 32.7674L33.3558 30.4829C33.4284 30.4416 33.5143 30.4301 33.5952 30.4509C33.6762 30.4716 33.7459 30.523 33.7898 30.5942C33.8336 30.6653 33.8481 30.7507 33.8302 30.8324C33.8122 30.914 33.7633 30.9855 33.6937 31.0318L32.1755 32.0276C32.2361 32.0453 32.2902 32.0805 32.3311 32.1286C32.3719 32.1768 32.3978 32.2359 32.4053 32.2987C32.4129 32.3614 32.4018 32.4249 32.3736 32.4815C32.3453 32.538 32.3011 32.5849 32.2464 32.6165L24.1441 37.2939C24.0715 37.3352 23.9856 37.3467 23.9047 37.326C23.8237 37.3052 23.754 37.2538 23.7101 37.1827C23.6663 37.1115 23.6518 37.0261 23.6697 36.9445C23.6877 36.8628 23.7366 36.7913 23.8062 36.7451L23.8655 36.7057L22.0653 37.7454C21.9929 37.7909 21.9054 37.8058 21.822 37.7867C21.7386 37.7677 21.6661 37.7163 21.6206 37.6438C21.5751 37.5714 21.5603 37.4838 21.5793 37.4004C21.5984 37.317 21.6498 37.2446 21.7222 37.1991L27.5819 33.2202L19.3603 37.9705C19.311 37.9977 19.2554 38.0115 19.199 38.0105Z" fill="#C67D01"/>
<path d="M19.0286 35.4351C18.9593 35.4352 18.8917 35.413 18.8359 35.3717C18.7802 35.3304 18.7393 35.2722 18.7192 35.2058C18.6991 35.1394 18.701 35.0683 18.7246 35.0031C18.7481 34.9378 18.7921 34.8819 18.85 34.8436L25.0573 30.7228L17.1885 35.2674C17.1156 35.3063 17.0306 35.3158 16.9509 35.2939C16.8713 35.272 16.8031 35.2203 16.7604 35.1496C16.7177 35.0788 16.7038 34.9944 16.7215 34.9137C16.7392 34.833 16.7873 34.7622 16.8557 34.7159L19.8916 32.8042L15.9617 35.0719C15.8889 35.1127 15.803 35.1236 15.7223 35.1023C15.6415 35.081 15.5722 35.0293 15.5288 34.9579C15.4854 34.8866 15.4714 34.8012 15.4897 34.7197C15.5081 34.6382 15.5573 34.567 15.627 34.5211L21.6705 30.6809L14.6363 34.7443C14.5634 34.7844 14.4777 34.7947 14.3973 34.7732C14.317 34.7516 14.248 34.6998 14.2049 34.6286C14.1619 34.5573 14.148 34.4722 14.1663 34.391C14.1845 34.3098 14.2334 34.2388 14.3028 34.1928L21.6389 29.5335L13.365 34.3115C13.292 34.3532 13.2056 34.3648 13.1242 34.3437C13.0427 34.3226 12.9728 34.2705 12.9292 34.1986C12.8856 34.1267 12.8719 34.0406 12.8909 33.9586C12.9099 33.8767 12.9601 33.8054 13.0309 33.76L22.1445 27.9662L12.1035 33.7626C12.0304 33.8016 11.9452 33.811 11.8654 33.7889C11.7856 33.7668 11.7173 33.7148 11.6748 33.6438C11.6323 33.5727 11.6187 33.4881 11.6369 33.4073C11.6551 33.3265 11.7037 33.2558 11.7726 33.2099L17.2762 29.7998L11.2224 33.2944C11.1495 33.3345 11.0639 33.3448 10.9835 33.3233C10.9031 33.3017 10.8341 33.2499 10.791 33.1786C10.748 33.1074 10.7341 33.0223 10.7524 32.9411C10.7706 32.8599 10.8196 32.7889 10.889 32.7429L21.2828 26.1731L10.1246 32.6171C10.0513 32.6613 9.96352 32.6745 9.88048 32.6538C9.79744 32.6332 9.726 32.5805 9.68187 32.5072C9.63773 32.4339 9.62452 32.346 9.64515 32.263C9.66577 32.18 9.71854 32.1085 9.79184 32.0644L19.3298 26.0964L9.20877 31.9393C9.13555 31.9815 9.04868 31.9933 8.96686 31.9721C8.88503 31.9509 8.81479 31.8984 8.77126 31.826C8.72772 31.7535 8.71437 31.6669 8.73407 31.5847C8.75377 31.5025 8.80496 31.4313 8.8766 31.3865L18.7752 25.2043L8.35223 31.222C8.27876 31.2639 8.19179 31.2752 8.11004 31.2536C8.02829 31.232 7.95832 31.1791 7.91518 31.1063C7.87205 31.0336 7.85921 30.9468 7.87943 30.8647C7.89965 30.7826 7.95132 30.7117 8.02329 30.6673L10.0531 29.4335L7.82464 30.7196C7.75147 30.7593 7.66579 30.7691 7.58553 30.7471C7.50527 30.725 7.43663 30.6728 7.39398 30.6014C7.35133 30.5299 7.33797 30.4447 7.35668 30.3636C7.3754 30.2825 7.42475 30.2118 7.49441 30.1662L13.634 26.3982L7.22674 30.0972C7.15387 30.1361 7.06884 30.1456 6.98918 30.1237C6.90952 30.1018 6.84131 30.0501 6.79863 29.9794C6.75594 29.9087 6.74202 29.8242 6.75976 29.7435C6.77749 29.6629 6.82552 29.592 6.89393 29.5457L19.2195 21.7975L6.44889 29.1691C6.37559 29.2132 6.28776 29.2264 6.20472 29.2058C6.12169 29.1851 6.05024 29.1324 6.00611 29.0591C5.96198 28.9858 5.94877 28.898 5.96939 28.8149C5.99002 28.7319 6.04278 28.6604 6.11608 28.6163L17.9812 21.1906L5.7723 28.2383C5.69892 28.2823 5.61108 28.2953 5.5281 28.2745C5.44512 28.2537 5.37381 28.2008 5.32985 28.1274C5.28588 28.054 5.27287 27.9662 5.29368 27.8832C5.31448 27.8002 5.3674 27.7289 5.44078 27.6849L15.4954 21.4467L5.23568 27.3715C5.16242 27.4128 5.07593 27.4238 4.99466 27.4022C4.91338 27.3806 4.84375 27.3282 4.8006 27.256C4.75745 27.1838 4.74419 27.0977 4.76366 27.0159C4.78312 26.9341 4.83377 26.8631 4.9048 26.8181L14.1661 21.0906L4.77 26.5149C4.69669 26.5555 4.61049 26.5659 4.52964 26.544C4.44879 26.5221 4.37963 26.4696 4.3368 26.3976C4.29398 26.3256 4.28085 26.2398 4.30018 26.1583C4.31952 26.0768 4.36981 26.006 4.44041 25.9609L12.4227 21.0448L4.38043 25.6887C4.30749 25.7288 4.22187 25.7392 4.14148 25.7176C4.06108 25.6961 3.99214 25.6442 3.94907 25.573C3.906 25.5018 3.89214 25.4167 3.91039 25.3354C3.92863 25.2542 3.97758 25.1832 4.04697 25.1373L16.8015 17.1014L3.93152 24.5316C3.85866 24.5706 3.77363 24.5801 3.69397 24.5581C3.61431 24.5362 3.5461 24.4846 3.50341 24.4138C3.46072 24.3431 3.44681 24.2587 3.46454 24.178C3.48227 24.0973 3.5303 24.0265 3.59871 23.9802L16.2584 15.9901L3.56195 23.3203C3.48839 23.3641 3.40049 23.3768 3.31757 23.3556C3.23465 23.3345 3.16352 23.2814 3.11981 23.2078C3.07611 23.1342 3.06341 23.0463 3.08452 22.9634C3.10563 22.8805 3.15881 22.8094 3.23236 22.7657L7.24415 20.3147L3.382 22.5451C3.30893 22.586 3.2228 22.5969 3.14183 22.5755C3.06086 22.5541 2.99141 22.502 2.94817 22.4302C2.90493 22.3585 2.89129 22.2728 2.91015 22.1911C2.929 22.1095 2.97886 22.0385 3.04919 21.993L13.6217 15.3645L3.19237 21.386C3.11907 21.4302 3.03124 21.4434 2.94821 21.4228C2.86517 21.4021 2.79373 21.3494 2.74959 21.2761C2.70546 21.2028 2.69225 21.1149 2.71287 21.0319C2.7335 20.9489 2.78626 20.8774 2.85956 20.8333L12.9052 14.5267L3.07821 20.2025C3.00474 20.2444 2.91776 20.2557 2.83602 20.2341C2.75427 20.2124 2.68429 20.1595 2.64116 20.0868C2.59803 20.0141 2.58519 19.9273 2.60541 19.8452C2.62563 19.7631 2.67729 19.6922 2.74927 19.6478L3.19495 19.3763L3.05499 19.4575C2.98161 19.5016 2.89373 19.5147 2.81069 19.4939C2.72766 19.4732 2.65626 19.4203 2.61221 19.3469C2.56816 19.2735 2.55507 19.1857 2.57582 19.1026C2.59656 19.0196 2.64944 18.9482 2.72283 18.9042L10.2046 14.2345L3.08015 18.3437C3.00708 18.3846 2.92095 18.3955 2.83998 18.3741C2.75901 18.3526 2.68956 18.3005 2.64632 18.2288C2.60308 18.1571 2.58944 18.0713 2.60829 17.9897C2.62715 17.9081 2.67701 17.8371 2.74734 17.7916L10.9251 12.6317L3.20398 17.0924C3.13043 17.1362 3.04249 17.149 2.95951 17.1279C2.87653 17.1069 2.80532 17.0537 2.76152 16.9802C2.71773 16.9066 2.70496 16.8187 2.726 16.7357C2.74705 16.6527 2.8002 16.5815 2.87375 16.5377L3.50519 16.1507L3.34201 16.2455C3.30563 16.2672 3.26534 16.2815 3.22343 16.2876C3.18152 16.2937 3.13882 16.2915 3.09776 16.2811C3.05671 16.2708 3.0181 16.2524 2.98415 16.2271C2.95019 16.2018 2.92156 16.17 2.89987 16.1336C2.87819 16.0972 2.86388 16.057 2.85777 16.015C2.85166 15.9731 2.85387 15.9304 2.86426 15.8894C2.87465 15.8483 2.89302 15.8097 2.91834 15.7758C2.94365 15.7418 2.9754 15.7132 3.01178 15.6915L4.532 14.7511L3.54582 15.3206C3.47299 15.3621 3.38687 15.3736 3.30572 15.3526C3.22457 15.3317 3.15476 15.28 3.11107 15.2085C3.06739 15.1369 3.05326 15.0512 3.07169 14.9695C3.09011 14.8877 3.13965 14.8163 3.20979 14.7705L10.3762 10.1614L3.99925 13.8443C3.96308 13.8663 3.92292 13.8811 3.88106 13.8876C3.83921 13.8941 3.79647 13.8924 3.75529 13.8824C3.71412 13.8724 3.67531 13.8544 3.64108 13.8295C3.60686 13.8045 3.57789 13.773 3.55582 13.7369C3.53376 13.7007 3.51903 13.6605 3.51249 13.6187C3.50594 13.5768 3.50771 13.5341 3.51768 13.4929C3.52765 13.4517 3.54564 13.4129 3.57061 13.3787C3.59558 13.3445 3.62704 13.3155 3.66321 13.2934L8.6399 10.0995L4.58167 12.4421C4.50878 12.4828 4.42293 12.4937 4.34219 12.4724C4.26144 12.4512 4.19209 12.3994 4.14873 12.3281C4.10536 12.2567 4.09136 12.1713 4.10968 12.0898C4.12799 12.0084 4.17719 11.9372 4.24692 11.8913L7.07839 10.0743L5.29115 11.1063C5.21922 11.1483 5.13382 11.1609 5.05284 11.1413C4.97186 11.1218 4.90159 11.0717 4.85673 11.0015C4.81188 10.9313 4.79593 10.8465 4.81223 10.7648C4.82852 10.6831 4.87579 10.6109 4.94415 10.5632L9.92535 7.05518L6.99197 8.75277C6.92009 8.79559 6.83439 8.80881 6.75296 8.78963C6.67153 8.77045 6.60073 8.72037 6.55553 8.64997C6.51033 8.57957 6.49425 8.49436 6.5107 8.41233C6.52715 8.3303 6.57483 8.25787 6.64367 8.21034L8.90111 6.59788C8.86016 6.57064 8.82614 6.53419 8.80179 6.49146C8.75902 6.41739 8.74744 6.32937 8.76957 6.24675C8.79171 6.16414 8.84575 6.0937 8.91982 6.05094L12.8542 3.77995C12.9259 3.73904 13.0106 3.7272 13.0908 3.74687C13.171 3.76654 13.2406 3.81622 13.2853 3.88568C13.3299 3.95515 13.3462 4.03909 13.3308 4.12022C13.3154 4.20134 13.2695 4.27347 13.2025 4.32174L12.4782 4.83773L15.8153 2.91052C15.8873 2.8685 15.9727 2.85595 16.0536 2.87549C16.1346 2.89503 16.2049 2.94515 16.2497 3.01534C16.2946 3.08554 16.3105 3.17037 16.2942 3.25206C16.278 3.33376 16.2307 3.40598 16.1623 3.45359L11.1798 6.9623L18.6874 2.62543C18.7604 2.58267 18.8473 2.57028 18.9293 2.59096C19.0113 2.61163 19.0819 2.6637 19.1259 2.73595C19.1699 2.8082 19.1838 2.89484 19.1645 2.9772C19.1452 3.05956 19.0943 3.13105 19.0228 3.17625L16.1881 4.99639L20.1915 2.68477C20.2646 2.64021 20.3523 2.62649 20.4355 2.64663C20.5186 2.66677 20.5904 2.71912 20.635 2.79216C20.6795 2.86521 20.6932 2.95296 20.6731 3.03612C20.653 3.11928 20.6006 3.19103 20.5276 3.23559L15.5502 6.43083L21.6943 2.88343C21.7671 2.84341 21.8525 2.833 21.9327 2.85437C22.013 2.87574 22.0819 2.92724 22.1251 2.99814C22.1683 3.06904 22.1825 3.15389 22.1648 3.235C22.147 3.31612 22.0986 3.38725 22.0297 3.4336L14.8666 8.04329L23.1997 3.23172C23.2732 3.18793 23.3611 3.17512 23.444 3.1961C23.5269 3.21709 23.5981 3.27015 23.6419 3.34362C23.6857 3.41709 23.6985 3.50495 23.6775 3.58787C23.6565 3.67078 23.6034 3.74197 23.53 3.78576L22.002 4.72679L24.1034 3.51358C24.1768 3.46978 24.2647 3.45697 24.3476 3.47796C24.4305 3.49895 24.5017 3.55201 24.5455 3.62548C24.5893 3.69895 24.6021 3.78681 24.5811 3.86972C24.5601 3.95264 24.5071 4.02382 24.4336 4.06762L23.8047 4.45461L24.9076 3.81801C24.9809 3.77379 25.0686 3.76046 25.1517 3.78097C25.2347 3.80147 25.3062 3.85412 25.3504 3.92733C25.3946 4.00055 25.408 4.08833 25.3875 4.17136C25.367 4.2544 25.3143 4.32589 25.2411 4.37011L17.0634 9.52997L26.0493 4.33722C26.1227 4.29317 26.2105 4.28008 26.2936 4.30082C26.3766 4.32157 26.448 4.37445 26.492 4.44783C26.5361 4.52122 26.5492 4.6091 26.5284 4.69213C26.5077 4.77517 26.4548 4.84657 26.3814 4.89061L18.8996 9.56093L27.0264 4.87062C27.0999 4.82875 27.1869 4.81742 27.2686 4.83906C27.3504 4.8607 27.4203 4.91358 27.4635 4.98632C27.5066 5.05905 27.5194 5.14582 27.4992 5.22793C27.479 5.31004 27.4273 5.38092 27.3554 5.4253L26.909 5.69684L27.6572 5.2647C27.7304 5.22248 27.8173 5.2107 27.8991 5.23188C27.9809 5.25306 28.0512 5.30552 28.0947 5.37797C28.1383 5.45041 28.1516 5.53706 28.1319 5.61925C28.1122 5.70144 28.061 5.77262 27.9894 5.81745L17.9412 12.126L28.6273 5.95613C28.7005 5.9139 28.7874 5.90212 28.8692 5.9233C28.951 5.94448 29.0212 5.99694 29.0648 6.06939C29.1083 6.14184 29.1217 6.22848 29.102 6.31067C29.0823 6.39287 29.0311 6.46404 28.9594 6.50888L18.3901 13.1387L29.5309 6.70624C29.6044 6.66253 29.6923 6.64984 29.7753 6.67095C29.8582 6.69205 29.9293 6.74523 29.973 6.81879C30.0167 6.89234 30.0294 6.98025 30.0083 7.06317C29.9872 7.14608 29.934 7.21722 29.8605 7.26093L25.8519 9.71186L30.112 7.2519C30.1852 7.20768 30.273 7.19435 30.356 7.21486C30.4391 7.23536 30.5106 7.28801 30.5548 7.36122C30.599 7.43443 30.6123 7.52221 30.5918 7.60525C30.5713 7.68829 30.5187 7.75978 30.4455 7.804L17.7812 15.7915L30.9802 8.17229C31.0534 8.12807 31.1412 8.11474 31.2242 8.13525C31.3072 8.15575 31.3787 8.2084 31.4229 8.28161C31.4672 8.35482 31.4805 8.4426 31.46 8.52564C31.4395 8.60868 31.3868 8.68017 31.3136 8.72439L18.5597 16.7564L31.7606 9.13524C31.8341 9.09145 31.9219 9.07864 32.0048 9.09963C32.0877 9.12061 32.1589 9.17368 32.2027 9.24715C32.2465 9.32062 32.2593 9.40848 32.2383 9.49139C32.2174 9.57431 32.1643 9.64549 32.0908 9.68928L24.1156 14.6008L32.2811 9.88471C32.3546 9.84092 32.4424 9.82811 32.5253 9.8491C32.6082 9.87008 32.6794 9.92315 32.7232 9.99662C32.767 10.0701 32.7798 10.1579 32.7588 10.2409C32.7379 10.3238 32.6848 10.395 32.6113 10.4388L23.3416 16.1733L32.7971 10.7161C32.8697 10.6808 32.953 10.674 33.0304 10.6971C33.1079 10.7203 33.1738 10.7716 33.2151 10.8411C33.2565 10.9105 33.2703 10.9929 33.2538 11.072C33.2373 11.1511 33.1917 11.2211 33.126 11.2682L23.0746 17.5052L33.2776 11.6146C33.3508 11.5723 33.4377 11.5605 33.5195 11.5817C33.6013 11.6029 33.6716 11.6554 33.7151 11.7278C33.7586 11.8003 33.772 11.8869 33.7523 11.9691C33.7326 12.0513 33.6814 12.1225 33.6098 12.1673L21.7537 19.5885L33.7504 12.6627C33.8237 12.6185 33.9115 12.6053 33.9945 12.6259C34.0776 12.6466 34.149 12.6993 34.1931 12.7726C34.2373 12.8459 34.2505 12.9338 34.2299 13.0168C34.2092 13.0998 34.1565 13.1713 34.0832 13.2154L21.7563 20.9649L34.1644 13.801C34.2377 13.7605 34.3239 13.7501 34.4048 13.772C34.4856 13.7939 34.5548 13.8464 34.5976 13.9184C34.6405 13.9904 34.6536 14.0762 34.6343 14.1577C34.6149 14.2392 34.5646 14.31 34.494 14.3551L28.3467 18.1269L34.4095 14.6279C34.483 14.586 34.57 14.5747 34.6517 14.5964C34.7335 14.618 34.8034 14.6709 34.8466 14.7436C34.8897 14.8163 34.9026 14.9031 34.8823 14.9852C34.8621 15.0673 34.8104 15.1382 34.7385 15.1826L32.7216 16.4081L34.5779 15.3368C34.6511 15.2945 34.738 15.2827 34.8198 15.3039C34.9016 15.3251 34.9718 15.3776 35.0154 15.45C35.0589 15.5225 35.0723 15.6091 35.0526 15.6913C35.0329 15.7735 34.9817 15.8447 34.91 15.8895L25.0044 22.0749L34.7727 16.4352C34.8089 16.4133 34.8492 16.3988 34.8911 16.3925C34.933 16.3862 34.9757 16.3882 35.0168 16.3984C35.0579 16.4087 35.0966 16.4269 35.1307 16.452C35.1648 16.4772 35.1936 16.5088 35.2154 16.5451C35.2373 16.5814 35.2518 16.6217 35.2581 16.6636C35.2644 16.7055 35.2624 16.7482 35.2522 16.7893C35.2419 16.8304 35.2237 16.8691 35.1986 16.9032C35.1734 16.9373 35.1418 16.9661 35.1055 16.9879L25.5655 22.9553L34.892 17.571C34.9652 17.5267 35.053 17.5133 35.1361 17.5337C35.2192 17.5541 35.2908 17.6068 35.3351 17.68C35.3794 17.7532 35.3928 17.841 35.3723 17.9241C35.3519 18.0072 35.2993 18.0788 35.2261 18.1231L24.8328 24.6922L34.9352 18.8596C35.0086 18.8157 35.0964 18.8027 35.1794 18.8235C35.2624 18.8443 35.3337 18.8972 35.3776 18.9706C35.4216 19.044 35.4346 19.1318 35.4138 19.2148C35.393 19.2978 35.3401 19.3691 35.2667 19.413L29.7657 22.8211L34.8939 19.86C34.967 19.8156 35.0548 19.8021 35.1379 19.8224C35.221 19.8427 35.2926 19.8952 35.337 19.9684C35.3814 20.0415 35.3949 20.1293 35.3746 20.2124C35.3543 20.2955 35.3018 20.3671 35.2287 20.4115L26.1209 26.2021L34.7443 21.2235C34.8171 21.184 34.9023 21.1741 34.9822 21.1958C35.0622 21.2174 35.1307 21.269 35.1737 21.3398C35.2166 21.4106 35.2307 21.4952 35.2129 21.5761C35.1952 21.657 35.147 21.728 35.0784 21.7743L27.7346 26.4324L34.4792 22.5386C34.552 22.4992 34.6372 22.4892 34.7171 22.5109C34.7971 22.5325 34.8656 22.5841 34.9086 22.6549C34.9515 22.7257 34.9656 22.8103 34.9478 22.8912C34.9301 22.9721 34.8819 23.0431 34.8133 23.0894L28.7646 26.9335L34.0967 23.8557C34.1696 23.8156 34.2553 23.8052 34.3357 23.8268C34.4161 23.8484 34.485 23.9002 34.5281 23.9714C34.5711 24.0426 34.585 24.1277 34.5668 24.209C34.5485 24.2902 34.4996 24.3612 34.4302 24.4071L31.3988 26.3163L33.6626 25.0096C33.7351 24.9683 33.8208 24.9568 33.9016 24.9773C33.9824 24.9979 34.0521 25.0489 34.0961 25.1198C34.1401 25.1906 34.1549 25.2758 34.1374 25.3573C34.12 25.4389 34.0717 25.5105 34.0025 25.5571L27.7972 29.6773L32.7513 26.8168C32.8231 26.7765 32.9076 26.7651 32.9874 26.7851C33.0673 26.8051 33.1365 26.8548 33.1809 26.9242C33.2253 26.9935 33.2414 27.0772 33.2261 27.1581C33.2107 27.239 33.165 27.311 33.0983 27.3592L27.9416 30.9944L31.0588 29.1948C31.1305 29.1533 31.2154 29.1409 31.296 29.1603C31.3765 29.1796 31.4465 29.2293 31.4915 29.2988C31.5364 29.3684 31.5529 29.4527 31.5374 29.534C31.522 29.6154 31.4758 29.6877 31.4084 29.736L29.0762 31.4129C29.124 31.4421 29.1634 31.4831 29.1905 31.5321C29.2176 31.581 29.2315 31.6362 29.2309 31.6921C29.2302 31.7481 29.215 31.8029 29.1868 31.8512C29.1585 31.8995 29.1182 31.9396 29.0697 31.9676L25.1353 34.2386C25.0637 34.2802 24.9787 34.2925 24.8982 34.2732C24.8176 34.2538 24.7476 34.2042 24.7027 34.1346C24.6577 34.065 24.6413 33.9808 24.6567 33.8994C24.6722 33.818 24.7184 33.7457 24.7857 33.6975L25.7435 33.0106L22.0846 35.1229C22.0129 35.1619 21.9291 35.1724 21.8501 35.1521C21.771 35.1319 21.7026 35.0824 21.6586 35.0137C21.6146 34.945 21.5983 34.8621 21.6129 34.7818C21.6276 34.7016 21.6721 34.6298 21.7376 34.5811L26.8974 30.9447L19.1879 35.3906C19.1396 35.419 19.0847 35.4343 19.0286 35.4351Z" fill="#F2A726"/>
<path d="M22.9613 37.6629C40.8815 34.278 43.1266 7.47771 25.9714 1.23557C-5.48312 -8.45981 -9.37237 41.9049 22.9613 37.6629ZM18.9785 0.684112C43.0183 1.21558 43.1137 36.8289 19.0094 37.332C-5.10452 36.7373 -5.19997 1.24654 18.9785 0.684112Z" fill="#262626"/>
<path d="M18.89 35.4325C33.6227 35.1274 41.4282 16.47 29.7483 6.52763C5.43564 -10.4548 -11.1907 32.4501 18.89 35.4325ZM18.9384 3.20597C39.5778 3.7742 39.7532 34.049 19.0673 34.8301C-1.59016 34.1716 -1.78236 3.82708 18.9384 3.20597Z" fill="#262626"/>
<path d="M18.8986 5.83246C19.2655 5.82214 19.4919 5.08364 19.092 5.0946C15.9783 5.14295 12.9665 6.21168 10.5187 8.13679C8.0709 10.0619 6.32244 12.737 5.5416 15.7517C5.40745 16.2412 6.01825 16.2393 6.13434 15.8161C6.88104 12.9872 8.5327 10.4801 10.8373 8.67755C13.142 6.87495 15.973 5.87578 18.8986 5.83246ZM5.44228 18.0658C4.94822 18.1362 4.86179 19.4513 5.47259 19.3055C5.966 19.2384 6.05114 17.9175 5.44228 18.0658Z" fill="#262626"/>
<mask id="path-6-outside-1_1_2076" maskUnits="userSpaceOnUse" x="7.46619" y="11.9232" width="23" height="14" fill="black">
<rect fill="white" x="7.46619" y="11.9232" width="23" height="14"/>
<path d="M13.7028 23.373C13.8217 23.4579 13.9237 23.5769 13.9577 23.7128C14.0426 23.9507 13.9916 24.1546 13.7877 24.3415C13.6348 24.4604 13.4819 24.5454 13.278 24.6134C13.0911 24.6813 12.8872 24.7323 12.6833 24.7663C12.4624 24.8003 12.2415 24.8173 12.0206 24.8173C11.7997 24.8173 11.5958 24.8343 11.3919 24.8343C11.341 24.8343 11.273 24.8343 11.205 24.8343C11.1541 24.8343 11.1031 24.8343 11.0351 24.8343C11.0011 24.8343 10.9672 24.8343 10.9162 24.8343C10.8652 24.8343 10.8312 24.8343 10.7803 24.8513C10.6953 24.8513 10.6103 24.8513 10.5084 24.8513C10.4234 24.8682 10.3385 24.8682 10.2535 24.8682C10.1006 24.8682 9.94767 24.8512 9.77775 24.8343C9.59085 24.8173 9.43792 24.7833 9.285 24.7323C9.13207 24.6813 8.97915 24.5964 8.86021 24.4774C8.74127 24.3755 8.65631 24.2226 8.60534 24.0357C8.50339 23.6449 8.45241 23.254 8.46941 22.8293C8.4864 22.4045 8.50339 21.9967 8.55436 21.5889C8.57136 21.385 8.57136 21.1981 8.58835 21.0112C8.60534 20.8243 8.62233 20.6374 8.62233 20.4505C8.62233 20.2296 8.63932 20.0257 8.63932 19.8048C8.63932 19.5839 8.63932 19.38 8.63932 19.1761C8.65631 18.3435 8.6733 17.5109 8.6733 16.6783C8.6733 15.8458 8.63932 15.0132 8.57136 14.1636C8.57136 14.1466 8.57136 14.0956 8.55436 14.0277C8.53737 13.9597 8.53737 13.8917 8.53737 13.8068C8.52038 13.7048 8.53737 13.6199 8.53737 13.5179C8.55436 13.416 8.58835 13.331 8.63932 13.2461C8.6903 13.1441 8.79224 13.0761 8.94517 13.0422C9.09809 13.0082 9.26801 12.9912 9.45491 12.9912C9.62483 12.9912 9.79474 12.9912 9.96466 12.9912C10.1516 13.0082 10.2705 13.0252 10.3725 13.0252C10.4744 13.0252 10.6443 13.0082 10.8822 13.0082C11.1201 12.9912 11.375 12.9912 11.6468 12.9912C11.9357 12.9912 12.1905 12.9742 12.4624 12.9742C12.7173 12.9742 12.9042 12.9742 13.0231 12.9742C13.244 12.9912 13.3969 13.0761 13.4989 13.2121C13.6008 13.365 13.6518 13.5179 13.6348 13.6878C13.6348 13.8408 13.5838 13.9767 13.4819 14.1126C13.3799 14.2316 13.227 14.2995 13.0061 14.2825C12.7513 14.2655 12.4964 14.2655 12.2415 14.2825C11.9697 14.2995 11.7148 14.3165 11.4599 14.3335C11.256 14.3505 11.0521 14.3675 10.8652 14.3845C10.6613 14.4015 10.4574 14.4015 10.2535 14.4015C10.1855 14.4015 10.1346 14.4015 10.0666 14.4015C10.0156 14.4015 9.94767 14.4015 9.8797 14.3845C9.93068 15.0981 9.96466 15.7778 9.96466 16.4405C9.96466 17.1031 9.96466 17.6978 9.94767 18.2246C10.1346 18.1906 10.3555 18.1736 10.5764 18.1566C10.7803 18.1566 11.0181 18.1396 11.273 18.1396C11.4259 18.1396 11.5789 18.1396 11.7318 18.1396C11.8677 18.1396 12.0206 18.1566 12.1736 18.1566C12.3095 18.1736 12.4284 18.1736 12.5474 18.1736C12.6663 18.1736 12.7852 18.1736 12.9212 18.1906C13.1251 18.1906 13.278 18.2585 13.38 18.3945C13.4989 18.5304 13.5499 18.6833 13.5499 18.8363C13.5499 18.9892 13.4989 19.1421 13.3969 19.278C13.295 19.414 13.1251 19.4819 12.9212 19.4819C12.7852 19.4819 12.6493 19.4819 12.5304 19.4819C12.3944 19.4649 12.2585 19.4649 12.1226 19.4649C11.9866 19.448 11.8337 19.448 11.6978 19.448C11.5449 19.431 11.3919 19.431 11.239 19.431C10.9841 19.431 10.7463 19.448 10.5254 19.4649C10.3045 19.4819 10.1006 19.5159 9.91368 19.5669H9.89669L9.8797 20.2635C9.86271 20.6713 9.84572 21.0961 9.82873 21.5379C9.81173 21.9627 9.81173 22.3875 9.79474 22.8293V22.9822C9.77775 23.0671 9.77775 23.1521 9.77775 23.2371C9.77775 23.322 9.79474 23.407 9.81173 23.5089C9.98165 23.5259 10.1855 23.5429 10.4404 23.5429H10.8482C11.1541 23.5259 11.4259 23.5089 11.6468 23.4919C11.8847 23.4919 12.1056 23.4749 12.3095 23.441C12.4624 23.441 12.6153 23.407 12.7852 23.373C12.8022 23.373 12.8192 23.373 12.8362 23.356C12.8702 23.356 12.8872 23.339 12.9212 23.339C12.9552 23.305 12.9891 23.305 13.0231 23.305H13.0571C13.1421 23.254 13.227 23.2371 13.312 23.2371C13.4479 23.2371 13.5838 23.288 13.7028 23.373Z"/>
<path d="M21.821 21.9457C21.838 22.2346 21.838 22.5404 21.838 22.8293C21.821 23.1181 21.787 23.407 21.7361 23.6958C21.7021 23.8997 21.6511 24.1036 21.5831 24.2905C21.5831 24.3585 21.5661 24.4265 21.5322 24.4774C21.5152 24.4944 21.5152 24.5284 21.5152 24.5454C21.4472 24.6983 21.3283 24.8003 21.1244 24.8173C21.1074 24.8173 21.0734 24.8173 21.0394 24.8173C20.9544 24.8343 20.8695 24.8343 20.7675 24.8003C20.6146 24.7663 20.5127 24.6474 20.4617 24.4604C20.1558 23.6279 19.6291 21.9627 19.2893 21.1471C18.9494 20.3145 18.5926 19.4819 18.2358 18.6663C17.879 17.8338 17.5052 17.0182 17.1483 16.2026C17.0124 15.8967 16.8765 15.5739 16.7406 15.268L16.7575 15.8967C16.7575 16.1176 16.7575 16.3215 16.7575 16.5424C16.7575 16.7633 16.7575 16.9672 16.7575 17.1541V17.1711C16.7575 17.426 16.7575 17.6808 16.7575 17.9527C16.7575 18.2246 16.7575 18.4794 16.7745 18.7513C16.7745 19.0232 16.7915 19.278 16.8255 19.5329C16.8425 19.8048 16.8595 20.0596 16.8765 20.3145C16.8935 20.5014 16.9105 20.7053 16.9275 20.9092C16.9444 21.0961 16.9614 21.3 16.9614 21.5039C16.9954 21.8607 16.9954 22.2176 16.9954 22.5744C16.9784 22.9142 16.9784 23.271 16.9614 23.6279V23.6958C16.9614 23.8148 16.9614 23.9167 16.9444 24.0187C16.9444 24.1376 16.9444 24.2396 16.9444 24.3585C16.9444 24.4435 16.9105 24.5114 16.8765 24.5624C16.8425 24.6134 16.8085 24.6643 16.7745 24.6813C16.6726 24.7833 16.5536 24.8343 16.4177 24.8513C16.2478 24.8682 16.1289 24.8513 16.0269 24.7663C15.9419 24.6983 15.908 24.6134 15.891 24.4944C15.908 24.3755 15.908 24.2735 15.908 24.1546C15.908 24.0526 15.908 23.9507 15.925 23.8488C15.925 23.4749 15.925 23.1181 15.9419 22.7443C15.9419 22.3875 15.9419 22.0137 15.925 21.6399C15.908 21.385 15.891 21.1471 15.874 20.8922C15.857 20.6543 15.84 20.4165 15.823 20.1786C15.806 19.9237 15.789 19.6688 15.772 19.414C15.7381 19.1591 15.7381 18.9042 15.7211 18.6494C15.7041 18.3775 15.7041 18.1226 15.7041 17.8677C15.7041 17.5959 15.7041 17.341 15.7041 17.0861C15.7041 16.8822 15.7041 16.6613 15.7041 16.4405C15.7041 16.2196 15.7041 15.9987 15.7041 15.7778C15.6871 15.37 15.6871 14.9622 15.7211 14.5544C15.7381 14.1296 15.823 13.7218 15.9759 13.331C16.0099 13.2291 16.0779 13.1441 16.1628 13.0592C16.2648 12.9912 16.3667 12.9402 16.4687 12.9232C16.5197 12.9232 16.5536 12.9232 16.6046 12.9232C16.6726 12.9232 16.7575 12.9232 16.8425 12.9572C16.9954 12.9912 17.0974 13.0931 17.1823 13.28C17.5222 14.0956 17.879 14.9112 18.2528 15.7438C18.6096 16.5594 18.9834 17.375 19.3402 18.2076C19.6971 19.0232 20.0369 19.8557 20.3767 20.6713C20.4787 20.9262 20.6146 21.266 20.7336 21.6229C20.7166 21.334 20.6996 21.0452 20.6826 20.7563C20.6656 20.3655 20.6316 19.9577 20.6146 19.5499C20.5976 19.278 20.5976 19.0062 20.5806 18.7343C20.5636 18.4624 20.5466 18.1736 20.5127 17.8847C20.5127 17.1031 20.5127 16.3555 20.4957 15.6249C20.4277 14.8772 20.3597 14.1466 20.4107 13.433C20.4447 13.2121 20.5806 13.0931 20.8185 13.0592C21.0224 13.0422 21.1753 13.0761 21.3113 13.1951C21.4132 13.28 21.4472 13.382 21.4302 13.5349C21.3792 14.2316 21.4472 14.9452 21.4812 15.6758C21.5152 16.4065 21.5322 17.1541 21.5661 17.9017C21.6171 18.2755 21.6341 18.6494 21.6341 19.0062C21.6511 19.363 21.6681 19.7028 21.6851 20.0596C21.7021 20.3825 21.7191 20.7223 21.753 21.0791C21.787 21.368 21.804 21.6568 21.821 21.9457Z"/>
<path d="M29.5851 19.9407C29.789 20.1106 29.9079 20.3825 29.9249 20.7733C29.9419 21.1471 29.9419 21.5039 29.9589 21.8607C29.9759 22.2006 29.9419 22.5404 29.8909 22.8632C29.8229 23.1861 29.721 23.4919 29.5511 23.7808C29.3642 24.0696 29.1093 24.3245 28.7695 24.5624C28.7185 24.5964 28.6675 24.6304 28.6505 24.6304C28.5996 24.6643 28.5656 24.6813 28.5146 24.6983C28.4296 24.7323 28.3617 24.7493 28.2767 24.7493C28.2087 24.7663 28.1408 24.7663 28.0898 24.7663L27.9709 24.7493C27.9539 24.7493 27.9369 24.7663 27.9199 24.7663C27.8689 24.7663 27.801 24.7663 27.733 24.7833C27.665 24.7833 27.614 24.8003 27.5461 24.8003C27.4951 24.8173 27.4441 24.8173 27.4101 24.8173C27.3592 24.8173 27.3252 24.8343 27.2742 24.8343C27.2062 24.8512 27.1213 24.8513 27.0533 24.8513C26.9684 24.8682 26.9004 24.8682 26.8154 24.8682C26.6965 24.8682 26.5776 24.8513 26.4586 24.8513C26.3397 24.8513 26.2038 24.8343 26.0848 24.8173C25.779 24.7833 25.4901 24.6983 25.2182 24.5794C24.9634 24.4604 24.6915 24.2565 24.4366 23.9677C24.3007 23.7978 24.1818 23.6279 24.0968 23.441C24.0118 23.254 23.9439 23.0671 23.8929 22.8802C23.8419 22.6933 23.808 22.5064 23.791 22.3025C23.774 22.1156 23.757 21.9287 23.757 21.7418C23.74 21.402 23.723 21.0452 23.689 20.6713C23.672 20.2975 23.655 19.8897 23.6041 19.431C23.5701 19.0232 23.5531 18.6154 23.5361 18.2076C23.5191 17.7828 23.5191 17.375 23.5531 16.9502C23.5871 16.5424 23.655 16.1346 23.757 15.7268C23.8419 15.336 23.9949 14.9282 24.1988 14.5544C24.2667 14.4185 24.3517 14.2655 24.4536 14.1126C24.5386 13.9767 24.6575 13.8408 24.7765 13.7048C24.9124 13.5859 25.0483 13.4669 25.2013 13.365C25.3712 13.263 25.5581 13.1781 25.762 13.1271C25.9149 13.0761 26.0338 13.0592 26.1528 13.0252C26.2717 13.0082 26.4076 12.9912 26.5266 12.9742C26.6625 12.9742 26.7985 12.9742 26.9514 12.9742C27.1043 12.9912 27.2742 13.0082 27.4781 13.0252C27.682 13.0422 27.8179 13.1101 27.9199 13.2461C28.0049 13.382 28.0558 13.5349 28.0388 13.6708C28.0218 13.8408 27.9709 13.9767 27.8519 14.0616C27.733 14.1636 27.5971 14.1976 27.4271 14.1806C27.3592 14.1806 27.3082 14.1636 27.2742 14.1636C27.2402 14.1466 27.2062 14.1466 27.1723 14.1466C27.1383 14.1466 27.1043 14.1296 27.0703 14.1296C27.0363 14.1296 26.9854 14.1296 26.9174 14.1296C26.5946 14.1296 26.3227 14.1636 26.1018 14.2316C25.8299 14.3335 25.609 14.5034 25.4561 14.7413C25.3032 14.9962 25.1843 15.2511 25.0823 15.5059C24.9804 15.8288 24.8954 16.1516 24.8274 16.4744C24.7765 16.7973 24.7425 17.1201 24.7255 17.443C24.7255 17.7828 24.7255 18.1056 24.7425 18.4285C24.7595 18.7513 24.7935 19.0741 24.8104 19.38L24.8274 19.6519C24.8614 19.9237 24.8784 20.2126 24.8954 20.4844C24.9124 20.7733 24.9294 21.0621 24.9464 21.351V21.5379C24.9464 21.8098 24.9634 22.0986 24.9974 22.3705C25.0313 22.6424 25.1163 22.8802 25.2522 23.0841C25.4052 23.288 25.5751 23.441 25.728 23.5089C25.8979 23.5939 26.1018 23.6449 26.3397 23.6618C26.5266 23.6788 26.7135 23.6958 26.8834 23.6958C27.0533 23.6958 27.2232 23.6788 27.4101 23.6618C27.4611 23.6449 27.5121 23.6279 27.5631 23.6279C27.631 23.6279 27.682 23.6279 27.733 23.6279C27.801 23.6279 27.8689 23.6279 27.9199 23.6279C27.9709 23.6279 28.0218 23.6109 28.0558 23.6109C28.0898 23.5939 28.1238 23.5599 28.1578 23.5259C28.3957 23.373 28.5486 23.2031 28.6335 22.9992C28.7185 22.7953 28.7695 22.5744 28.7865 22.3535C28.8035 22.1156 28.7865 21.8947 28.7695 21.6568C28.7355 21.419 28.7185 21.1811 28.7185 20.9602C28.6845 20.8582 28.6845 20.7903 28.7015 20.7733C28.6675 20.7733 28.6335 20.7733 28.6165 20.7733C28.5826 20.7733 28.5486 20.7733 28.5146 20.7733C28.4296 20.7563 28.3277 20.7563 28.2427 20.7563C28.1408 20.7563 28.0388 20.7393 27.9539 20.7393C27.784 20.7563 27.631 20.7563 27.4781 20.7563C27.3252 20.7733 27.1723 20.7733 27.0024 20.7733C26.8154 20.7733 26.6795 20.7053 26.5776 20.5864C26.4756 20.4674 26.4246 20.3315 26.4246 20.1786C26.4246 20.0257 26.4756 19.8897 26.5776 19.7538C26.6625 19.6349 26.8154 19.5669 27.0024 19.5669C27.2742 19.5669 27.5801 19.5499 27.9029 19.5329C28.2427 19.5159 28.5486 19.5329 28.8374 19.5839C29.1433 19.6519 29.3812 19.7538 29.5851 19.9407Z"/>
</mask>
<path d="M13.7028 23.373C13.8217 23.4579 13.9237 23.5769 13.9577 23.7128C14.0426 23.9507 13.9916 24.1546 13.7877 24.3415C13.6348 24.4604 13.4819 24.5454 13.278 24.6134C13.0911 24.6813 12.8872 24.7323 12.6833 24.7663C12.4624 24.8003 12.2415 24.8173 12.0206 24.8173C11.7997 24.8173 11.5958 24.8343 11.3919 24.8343C11.341 24.8343 11.273 24.8343 11.205 24.8343C11.1541 24.8343 11.1031 24.8343 11.0351 24.8343C11.0011 24.8343 10.9672 24.8343 10.9162 24.8343C10.8652 24.8343 10.8312 24.8343 10.7803 24.8513C10.6953 24.8513 10.6103 24.8513 10.5084 24.8513C10.4234 24.8682 10.3385 24.8682 10.2535 24.8682C10.1006 24.8682 9.94767 24.8512 9.77775 24.8343C9.59085 24.8173 9.43792 24.7833 9.285 24.7323C9.13207 24.6813 8.97915 24.5964 8.86021 24.4774C8.74127 24.3755 8.65631 24.2226 8.60534 24.0357C8.50339 23.6449 8.45241 23.254 8.46941 22.8293C8.4864 22.4045 8.50339 21.9967 8.55436 21.5889C8.57136 21.385 8.57136 21.1981 8.58835 21.0112C8.60534 20.8243 8.62233 20.6374 8.62233 20.4505C8.62233 20.2296 8.63932 20.0257 8.63932 19.8048C8.63932 19.5839 8.63932 19.38 8.63932 19.1761C8.65631 18.3435 8.6733 17.5109 8.6733 16.6783C8.6733 15.8458 8.63932 15.0132 8.57136 14.1636C8.57136 14.1466 8.57136 14.0956 8.55436 14.0277C8.53737 13.9597 8.53737 13.8917 8.53737 13.8068C8.52038 13.7048 8.53737 13.6199 8.53737 13.5179C8.55436 13.416 8.58835 13.331 8.63932 13.2461C8.6903 13.1441 8.79224 13.0761 8.94517 13.0422C9.09809 13.0082 9.26801 12.9912 9.45491 12.9912C9.62483 12.9912 9.79474 12.9912 9.96466 12.9912C10.1516 13.0082 10.2705 13.0252 10.3725 13.0252C10.4744 13.0252 10.6443 13.0082 10.8822 13.0082C11.1201 12.9912 11.375 12.9912 11.6468 12.9912C11.9357 12.9912 12.1905 12.9742 12.4624 12.9742C12.7173 12.9742 12.9042 12.9742 13.0231 12.9742C13.244 12.9912 13.3969 13.0761 13.4989 13.2121C13.6008 13.365 13.6518 13.5179 13.6348 13.6878C13.6348 13.8408 13.5838 13.9767 13.4819 14.1126C13.3799 14.2316 13.227 14.2995 13.0061 14.2825C12.7513 14.2655 12.4964 14.2655 12.2415 14.2825C11.9697 14.2995 11.7148 14.3165 11.4599 14.3335C11.256 14.3505 11.0521 14.3675 10.8652 14.3845C10.6613 14.4015 10.4574 14.4015 10.2535 14.4015C10.1855 14.4015 10.1346 14.4015 10.0666 14.4015C10.0156 14.4015 9.94767 14.4015 9.8797 14.3845C9.93068 15.0981 9.96466 15.7778 9.96466 16.4405C9.96466 17.1031 9.96466 17.6978 9.94767 18.2246C10.1346 18.1906 10.3555 18.1736 10.5764 18.1566C10.7803 18.1566 11.0181 18.1396 11.273 18.1396C11.4259 18.1396 11.5789 18.1396 11.7318 18.1396C11.8677 18.1396 12.0206 18.1566 12.1736 18.1566C12.3095 18.1736 12.4284 18.1736 12.5474 18.1736C12.6663 18.1736 12.7852 18.1736 12.9212 18.1906C13.1251 18.1906 13.278 18.2585 13.38 18.3945C13.4989 18.5304 13.5499 18.6833 13.5499 18.8363C13.5499 18.9892 13.4989 19.1421 13.3969 19.278C13.295 19.414 13.1251 19.4819 12.9212 19.4819C12.7852 19.4819 12.6493 19.4819 12.5304 19.4819C12.3944 19.4649 12.2585 19.4649 12.1226 19.4649C11.9866 19.448 11.8337 19.448 11.6978 19.448C11.5449 19.431 11.3919 19.431 11.239 19.431C10.9841 19.431 10.7463 19.448 10.5254 19.4649C10.3045 19.4819 10.1006 19.5159 9.91368 19.5669H9.89669L9.8797 20.2635C9.86271 20.6713 9.84572 21.0961 9.82873 21.5379C9.81173 21.9627 9.81173 22.3875 9.79474 22.8293V22.9822C9.77775 23.0671 9.77775 23.1521 9.77775 23.2371C9.77775 23.322 9.79474 23.407 9.81173 23.5089C9.98165 23.5259 10.1855 23.5429 10.4404 23.5429H10.8482C11.1541 23.5259 11.4259 23.5089 11.6468 23.4919C11.8847 23.4919 12.1056 23.4749 12.3095 23.441C12.4624 23.441 12.6153 23.407 12.7852 23.373C12.8022 23.373 12.8192 23.373 12.8362 23.356C12.8702 23.356 12.8872 23.339 12.9212 23.339C12.9552 23.305 12.9891 23.305 13.0231 23.305H13.0571C13.1421 23.254 13.227 23.2371 13.312 23.2371C13.4479 23.2371 13.5838 23.288 13.7028 23.373Z" fill="#FFD183"/>
<path d="M21.821 21.9457C21.838 22.2346 21.838 22.5404 21.838 22.8293C21.821 23.1181 21.787 23.407 21.7361 23.6958C21.7021 23.8997 21.6511 24.1036 21.5831 24.2905C21.5831 24.3585 21.5661 24.4265 21.5322 24.4774C21.5152 24.4944 21.5152 24.5284 21.5152 24.5454C21.4472 24.6983 21.3283 24.8003 21.1244 24.8173C21.1074 24.8173 21.0734 24.8173 21.0394 24.8173C20.9544 24.8343 20.8695 24.8343 20.7675 24.8003C20.6146 24.7663 20.5127 24.6474 20.4617 24.4604C20.1558 23.6279 19.6291 21.9627 19.2893 21.1471C18.9494 20.3145 18.5926 19.4819 18.2358 18.6663C17.879 17.8338 17.5052 17.0182 17.1483 16.2026C17.0124 15.8967 16.8765 15.5739 16.7406 15.268L16.7575 15.8967C16.7575 16.1176 16.7575 16.3215 16.7575 16.5424C16.7575 16.7633 16.7575 16.9672 16.7575 17.1541V17.1711C16.7575 17.426 16.7575 17.6808 16.7575 17.9527C16.7575 18.2246 16.7575 18.4794 16.7745 18.7513C16.7745 19.0232 16.7915 19.278 16.8255 19.5329C16.8425 19.8048 16.8595 20.0596 16.8765 20.3145C16.8935 20.5014 16.9105 20.7053 16.9275 20.9092C16.9444 21.0961 16.9614 21.3 16.9614 21.5039C16.9954 21.8607 16.9954 22.2176 16.9954 22.5744C16.9784 22.9142 16.9784 23.271 16.9614 23.6279V23.6958C16.9614 23.8148 16.9614 23.9167 16.9444 24.0187C16.9444 24.1376 16.9444 24.2396 16.9444 24.3585C16.9444 24.4435 16.9105 24.5114 16.8765 24.5624C16.8425 24.6134 16.8085 24.6643 16.7745 24.6813C16.6726 24.7833 16.5536 24.8343 16.4177 24.8513C16.2478 24.8682 16.1289 24.8513 16.0269 24.7663C15.9419 24.6983 15.908 24.6134 15.891 24.4944C15.908 24.3755 15.908 24.2735 15.908 24.1546C15.908 24.0526 15.908 23.9507 15.925 23.8488C15.925 23.4749 15.925 23.1181 15.9419 22.7443C15.9419 22.3875 15.9419 22.0137 15.925 21.6399C15.908 21.385 15.891 21.1471 15.874 20.8922C15.857 20.6543 15.84 20.4165 15.823 20.1786C15.806 19.9237 15.789 19.6688 15.772 19.414C15.7381 19.1591 15.7381 18.9042 15.7211 18.6494C15.7041 18.3775 15.7041 18.1226 15.7041 17.8677C15.7041 17.5959 15.7041 17.341 15.7041 17.0861C15.7041 16.8822 15.7041 16.6613 15.7041 16.4405C15.7041 16.2196 15.7041 15.9987 15.7041 15.7778C15.6871 15.37 15.6871 14.9622 15.7211 14.5544C15.7381 14.1296 15.823 13.7218 15.9759 13.331C16.0099 13.2291 16.0779 13.1441 16.1628 13.0592C16.2648 12.9912 16.3667 12.9402 16.4687 12.9232C16.5197 12.9232 16.5536 12.9232 16.6046 12.9232C16.6726 12.9232 16.7575 12.9232 16.8425 12.9572C16.9954 12.9912 17.0974 13.0931 17.1823 13.28C17.5222 14.0956 17.879 14.9112 18.2528 15.7438C18.6096 16.5594 18.9834 17.375 19.3402 18.2076C19.6971 19.0232 20.0369 19.8557 20.3767 20.6713C20.4787 20.9262 20.6146 21.266 20.7336 21.6229C20.7166 21.334 20.6996 21.0452 20.6826 20.7563C20.6656 20.3655 20.6316 19.9577 20.6146 19.5499C20.5976 19.278 20.5976 19.0062 20.5806 18.7343C20.5636 18.4624 20.5466 18.1736 20.5127 17.8847C20.5127 17.1031 20.5127 16.3555 20.4957 15.6249C20.4277 14.8772 20.3597 14.1466 20.4107 13.433C20.4447 13.2121 20.5806 13.0931 20.8185 13.0592C21.0224 13.0422 21.1753 13.0761 21.3113 13.1951C21.4132 13.28 21.4472 13.382 21.4302 13.5349C21.3792 14.2316 21.4472 14.9452 21.4812 15.6758C21.5152 16.4065 21.5322 17.1541 21.5661 17.9017C21.6171 18.2755 21.6341 18.6494 21.6341 19.0062C21.6511 19.363 21.6681 19.7028 21.6851 20.0596C21.7021 20.3825 21.7191 20.7223 21.753 21.0791C21.787 21.368 21.804 21.6568 21.821 21.9457Z" fill="#FFD183"/>
<path d="M29.5851 19.9407C29.789 20.1106 29.9079 20.3825 29.9249 20.7733C29.9419 21.1471 29.9419 21.5039 29.9589 21.8607C29.9759 22.2006 29.9419 22.5404 29.8909 22.8632C29.8229 23.1861 29.721 23.4919 29.5511 23.7808C29.3642 24.0696 29.1093 24.3245 28.7695 24.5624C28.7185 24.5964 28.6675 24.6304 28.6505 24.6304C28.5996 24.6643 28.5656 24.6813 28.5146 24.6983C28.4296 24.7323 28.3617 24.7493 28.2767 24.7493C28.2087 24.7663 28.1408 24.7663 28.0898 24.7663L27.9709 24.7493C27.9539 24.7493 27.9369 24.7663 27.9199 24.7663C27.8689 24.7663 27.801 24.7663 27.733 24.7833C27.665 24.7833 27.614 24.8003 27.5461 24.8003C27.4951 24.8173 27.4441 24.8173 27.4101 24.8173C27.3592 24.8173 27.3252 24.8343 27.2742 24.8343C27.2062 24.8512 27.1213 24.8513 27.0533 24.8513C26.9684 24.8682 26.9004 24.8682 26.8154 24.8682C26.6965 24.8682 26.5776 24.8513 26.4586 24.8513C26.3397 24.8513 26.2038 24.8343 26.0848 24.8173C25.779 24.7833 25.4901 24.6983 25.2182 24.5794C24.9634 24.4604 24.6915 24.2565 24.4366 23.9677C24.3007 23.7978 24.1818 23.6279 24.0968 23.441C24.0118 23.254 23.9439 23.0671 23.8929 22.8802C23.8419 22.6933 23.808 22.5064 23.791 22.3025C23.774 22.1156 23.757 21.9287 23.757 21.7418C23.74 21.402 23.723 21.0452 23.689 20.6713C23.672 20.2975 23.655 19.8897 23.6041 19.431C23.5701 19.0232 23.5531 18.6154 23.5361 18.2076C23.5191 17.7828 23.5191 17.375 23.5531 16.9502C23.5871 16.5424 23.655 16.1346 23.757 15.7268C23.8419 15.336 23.9949 14.9282 24.1988 14.5544C24.2667 14.4185 24.3517 14.2655 24.4536 14.1126C24.5386 13.9767 24.6575 13.8408 24.7765 13.7048C24.9124 13.5859 25.0483 13.4669 25.2013 13.365C25.3712 13.263 25.5581 13.1781 25.762 13.1271C25.9149 13.0761 26.0338 13.0592 26.1528 13.0252C26.2717 13.0082 26.4076 12.9912 26.5266 12.9742C26.6625 12.9742 26.7985 12.9742 26.9514 12.9742C27.1043 12.9912 27.2742 13.0082 27.4781 13.0252C27.682 13.0422 27.8179 13.1101 27.9199 13.2461C28.0049 13.382 28.0558 13.5349 28.0388 13.6708C28.0218 13.8408 27.9709 13.9767 27.8519 14.0616C27.733 14.1636 27.5971 14.1976 27.4271 14.1806C27.3592 14.1806 27.3082 14.1636 27.2742 14.1636C27.2402 14.1466 27.2062 14.1466 27.1723 14.1466C27.1383 14.1466 27.1043 14.1296 27.0703 14.1296C27.0363 14.1296 26.9854 14.1296 26.9174 14.1296C26.5946 14.1296 26.3227 14.1636 26.1018 14.2316C25.8299 14.3335 25.609 14.5034 25.4561 14.7413C25.3032 14.9962 25.1843 15.2511 25.0823 15.5059C24.9804 15.8288 24.8954 16.1516 24.8274 16.4744C24.7765 16.7973 24.7425 17.1201 24.7255 17.443C24.7255 17.7828 24.7255 18.1056 24.7425 18.4285C24.7595 18.7513 24.7935 19.0741 24.8104 19.38L24.8274 19.6519C24.8614 19.9237 24.8784 20.2126 24.8954 20.4844C24.9124 20.7733 24.9294 21.0621 24.9464 21.351V21.5379C24.9464 21.8098 24.9634 22.0986 24.9974 22.3705C25.0313 22.6424 25.1163 22.8802 25.2522 23.0841C25.4052 23.288 25.5751 23.441 25.728 23.5089C25.8979 23.5939 26.1018 23.6449 26.3397 23.6618C26.5266 23.6788 26.7135 23.6958 26.8834 23.6958C27.0533 23.6958 27.2232 23.6788 27.4101 23.6618C27.4611 23.6449 27.5121 23.6279 27.5631 23.6279C27.631 23.6279 27.682 23.6279 27.733 23.6279C27.801 23.6279 27.8689 23.6279 27.9199 23.6279C27.9709 23.6279 28.0218 23.6109 28.0558 23.6109C28.0898 23.5939 28.1238 23.5599 28.1578 23.5259C28.3957 23.373 28.5486 23.2031 28.6335 22.9992C28.7185 22.7953 28.7695 22.5744 28.7865 22.3535C28.8035 22.1156 28.7865 21.8947 28.7695 21.6568C28.7355 21.419 28.7185 21.1811 28.7185 20.9602C28.6845 20.8582 28.6845 20.7903 28.7015 20.7733C28.6675 20.7733 28.6335 20.7733 28.6165 20.7733C28.5826 20.7733 28.5486 20.7733 28.5146 20.7733C28.4296 20.7563 28.3277 20.7563 28.2427 20.7563C28.1408 20.7563 28.0388 20.7393 27.9539 20.7393C27.784 20.7563 27.631 20.7563 27.4781 20.7563C27.3252 20.7733 27.1723 20.7733 27.0024 20.7733C26.8154 20.7733 26.6795 20.7053 26.5776 20.5864C26.4756 20.4674 26.4246 20.3315 26.4246 20.1786C26.4246 20.0257 26.4756 19.8897 26.5776 19.7538C26.6625 19.6349 26.8154 19.5669 27.0024 19.5669C27.2742 19.5669 27.5801 19.5499 27.9029 19.5329C28.2427 19.5159 28.5486 19.5329 28.8374 19.5839C29.1433 19.6519 29.3812 19.7538 29.5851 19.9407Z" fill="#FFD183"/>
<path d="M13.7028 23.373C13.8217 23.4579 13.9237 23.5769 13.9577 23.7128C14.0426 23.9507 13.9916 24.1546 13.7877 24.3415C13.6348 24.4604 13.4819 24.5454 13.278 24.6134C13.0911 24.6813 12.8872 24.7323 12.6833 24.7663C12.4624 24.8003 12.2415 24.8173 12.0206 24.8173C11.7997 24.8173 11.5958 24.8343 11.3919 24.8343C11.341 24.8343 11.273 24.8343 11.205 24.8343C11.1541 24.8343 11.1031 24.8343 11.0351 24.8343C11.0011 24.8343 10.9672 24.8343 10.9162 24.8343C10.8652 24.8343 10.8312 24.8343 10.7803 24.8513C10.6953 24.8513 10.6103 24.8513 10.5084 24.8513C10.4234 24.8682 10.3385 24.8682 10.2535 24.8682C10.1006 24.8682 9.94767 24.8512 9.77775 24.8343C9.59085 24.8173 9.43792 24.7833 9.285 24.7323C9.13207 24.6813 8.97915 24.5964 8.86021 24.4774C8.74127 24.3755 8.65631 24.2226 8.60534 24.0357C8.50339 23.6449 8.45241 23.254 8.46941 22.8293C8.4864 22.4045 8.50339 21.9967 8.55436 21.5889C8.57136 21.385 8.57136 21.1981 8.58835 21.0112C8.60534 20.8243 8.62233 20.6374 8.62233 20.4505C8.62233 20.2296 8.63932 20.0257 8.63932 19.8048C8.63932 19.5839 8.63932 19.38 8.63932 19.1761C8.65631 18.3435 8.6733 17.5109 8.6733 16.6783C8.6733 15.8458 8.63932 15.0132 8.57136 14.1636C8.57136 14.1466 8.57136 14.0956 8.55436 14.0277C8.53737 13.9597 8.53737 13.8917 8.53737 13.8068C8.52038 13.7048 8.53737 13.6199 8.53737 13.5179C8.55436 13.416 8.58835 13.331 8.63932 13.2461C8.6903 13.1441 8.79224 13.0761 8.94517 13.0422C9.09809 13.0082 9.26801 12.9912 9.45491 12.9912C9.62483 12.9912 9.79474 12.9912 9.96466 12.9912C10.1516 13.0082 10.2705 13.0252 10.3725 13.0252C10.4744 13.0252 10.6443 13.0082 10.8822 13.0082C11.1201 12.9912 11.375 12.9912 11.6468 12.9912C11.9357 12.9912 12.1905 12.9742 12.4624 12.9742C12.7173 12.9742 12.9042 12.9742 13.0231 12.9742C13.244 12.9912 13.3969 13.0761 13.4989 13.2121C13.6008 13.365 13.6518 13.5179 13.6348 13.6878C13.6348 13.8408 13.5838 13.9767 13.4819 14.1126C13.3799 14.2316 13.227 14.2995 13.0061 14.2825C12.7513 14.2655 12.4964 14.2655 12.2415 14.2825C11.9697 14.2995 11.7148 14.3165 11.4599 14.3335C11.256 14.3505 11.0521 14.3675 10.8652 14.3845C10.6613 14.4015 10.4574 14.4015 10.2535 14.4015C10.1855 14.4015 10.1346 14.4015 10.0666 14.4015C10.0156 14.4015 9.94767 14.4015 9.8797 14.3845C9.93068 15.0981 9.96466 15.7778 9.96466 16.4405C9.96466 17.1031 9.96466 17.6978 9.94767 18.2246C10.1346 18.1906 10.3555 18.1736 10.5764 18.1566C10.7803 18.1566 11.0181 18.1396 11.273 18.1396C11.4259 18.1396 11.5789 18.1396 11.7318 18.1396C11.8677 18.1396 12.0206 18.1566 12.1736 18.1566C12.3095 18.1736 12.4284 18.1736 12.5474 18.1736C12.6663 18.1736 12.7852 18.1736 12.9212 18.1906C13.1251 18.1906 13.278 18.2585 13.38 18.3945C13.4989 18.5304 13.5499 18.6833 13.5499 18.8363C13.5499 18.9892 13.4989 19.1421 13.3969 19.278C13.295 19.414 13.1251 19.4819 12.9212 19.4819C12.7852 19.4819 12.6493 19.4819 12.5304 19.4819C12.3944 19.4649 12.2585 19.4649 12.1226 19.4649C11.9866 19.448 11.8337 19.448 11.6978 19.448C11.5449 19.431 11.3919 19.431 11.239 19.431C10.9841 19.431 10.7463 19.448 10.5254 19.4649C10.3045 19.4819 10.1006 19.5159 9.91368 19.5669H9.89669L9.8797 20.2635C9.86271 20.6713 9.84572 21.0961 9.82873 21.5379C9.81173 21.9627 9.81173 22.3875 9.79474 22.8293V22.9822C9.77775 23.0671 9.77775 23.1521 9.77775 23.2371C9.77775 23.322 9.79474 23.407 9.81173 23.5089C9.98165 23.5259 10.1855 23.5429 10.4404 23.5429H10.8482C11.1541 23.5259 11.4259 23.5089 11.6468 23.4919C11.8847 23.4919 12.1056 23.4749 12.3095 23.441C12.4624 23.441 12.6153 23.407 12.7852 23.373C12.8022 23.373 12.8192 23.373 12.8362 23.356C12.8702 23.356 12.8872 23.339 12.9212 23.339C12.9552 23.305 12.9891 23.305 13.0231 23.305H13.0571C13.1421 23.254 13.227 23.2371 13.312 23.2371C13.4479 23.2371 13.5838 23.288 13.7028 23.373Z" stroke="#262626" stroke-width="0.558999" mask="url(#path-6-outside-1_1_2076)"/>
<path d="M21.821 21.9457C21.838 22.2346 21.838 22.5404 21.838 22.8293C21.821 23.1181 21.787 23.407 21.7361 23.6958C21.7021 23.8997 21.6511 24.1036 21.5831 24.2905C21.5831 24.3585 21.5661 24.4265 21.5322 24.4774C21.5152 24.4944 21.5152 24.5284 21.5152 24.5454C21.4472 24.6983 21.3283 24.8003 21.1244 24.8173C21.1074 24.8173 21.0734 24.8173 21.0394 24.8173C20.9544 24.8343 20.8695 24.8343 20.7675 24.8003C20.6146 24.7663 20.5127 24.6474 20.4617 24.4604C20.1558 23.6279 19.6291 21.9627 19.2893 21.1471C18.9494 20.3145 18.5926 19.4819 18.2358 18.6663C17.879 17.8338 17.5052 17.0182 17.1483 16.2026C17.0124 15.8967 16.8765 15.5739 16.7406 15.268L16.7575 15.8967C16.7575 16.1176 16.7575 16.3215 16.7575 16.5424C16.7575 16.7633 16.7575 16.9672 16.7575 17.1541V17.1711C16.7575 17.426 16.7575 17.6808 16.7575 17.9527C16.7575 18.2246 16.7575 18.4794 16.7745 18.7513C16.7745 19.0232 16.7915 19.278 16.8255 19.5329C16.8425 19.8048 16.8595 20.0596 16.8765 20.3145C16.8935 20.5014 16.9105 20.7053 16.9275 20.9092C16.9444 21.0961 16.9614 21.3 16.9614 21.5039C16.9954 21.8607 16.9954 22.2176 16.9954 22.5744C16.9784 22.9142 16.9784 23.271 16.9614 23.6279V23.6958C16.9614 23.8148 16.9614 23.9167 16.9444 24.0187C16.9444 24.1376 16.9444 24.2396 16.9444 24.3585C16.9444 24.4435 16.9105 24.5114 16.8765 24.5624C16.8425 24.6134 16.8085 24.6643 16.7745 24.6813C16.6726 24.7833 16.5536 24.8343 16.4177 24.8513C16.2478 24.8682 16.1289 24.8513 16.0269 24.7663C15.9419 24.6983 15.908 24.6134 15.891 24.4944C15.908 24.3755 15.908 24.2735 15.908 24.1546C15.908 24.0526 15.908 23.9507 15.925 23.8488C15.925 23.4749 15.925 23.1181 15.9419 22.7443C15.9419 22.3875 15.9419 22.0137 15.925 21.6399C15.908 21.385 15.891 21.1471 15.874 20.8922C15.857 20.6543 15.84 20.4165 15.823 20.1786C15.806 19.9237 15.789 19.6688 15.772 19.414C15.7381 19.1591 15.7381 18.9042 15.7211 18.6494C15.7041 18.3775 15.7041 18.1226 15.7041 17.8677C15.7041 17.5959 15.7041 17.341 15.7041 17.0861C15.7041 16.8822 15.7041 16.6613 15.7041 16.4405C15.7041 16.2196 15.7041 15.9987 15.7041 15.7778C15.6871 15.37 15.6871 14.9622 15.7211 14.5544C15.7381 14.1296 15.823 13.7218 15.9759 13.331C16.0099 13.2291 16.0779 13.1441 16.1628 13.0592C16.2648 12.9912 16.3667 12.9402 16.4687 12.9232C16.5197 12.9232 16.5536 12.9232 16.6046 12.9232C16.6726 12.9232 16.7575 12.9232 16.8425 12.9572C16.9954 12.9912 17.0974 13.0931 17.1823 13.28C17.5222 14.0956 17.879 14.9112 18.2528 15.7438C18.6096 16.5594 18.9834 17.375 19.3402 18.2076C19.6971 19.0232 20.0369 19.8557 20.3767 20.6713C20.4787 20.9262 20.6146 21.266 20.7336 21.6229C20.7166 21.334 20.6996 21.0452 20.6826 20.7563C20.6656 20.3655 20.6316 19.9577 20.6146 19.5499C20.5976 19.278 20.5976 19.0062 20.5806 18.7343C20.5636 18.4624 20.5466 18.1736 20.5127 17.8847C20.5127 17.1031 20.5127 16.3555 20.4957 15.6249C20.4277 14.8772 20.3597 14.1466 20.4107 13.433C20.4447 13.2121 20.5806 13.0931 20.8185 13.0592C21.0224 13.0422 21.1753 13.0761 21.3113 13.1951C21.4132 13.28 21.4472 13.382 21.4302 13.5349C21.3792 14.2316 21.4472 14.9452 21.4812 15.6758C21.5152 16.4065 21.5322 17.1541 21.5661 17.9017C21.6171 18.2755 21.6341 18.6494 21.6341 19.0062C21.6511 19.363 21.6681 19.7028 21.6851 20.0596C21.7021 20.3825 21.7191 20.7223 21.753 21.0791C21.787 21.368 21.804 21.6568 21.821 21.9457Z" stroke="#262626" stroke-width="0.558999" mask="url(#path-6-outside-1_1_2076)"/>
<path d="M29.5851 19.9407C29.789 20.1106 29.9079 20.3825 29.9249 20.7733C29.9419 21.1471 29.9419 21.5039 29.9589 21.8607C29.9759 22.2006 29.9419 22.5404 29.8909 22.8632C29.8229 23.1861 29.721 23.4919 29.5511 23.7808C29.3642 24.0696 29.1093 24.3245 28.7695 24.5624C28.7185 24.5964 28.6675 24.6304 28.6505 24.6304C28.5996 24.6643 28.5656 24.6813 28.5146 24.6983C28.4296 24.7323 28.3617 24.7493 28.2767 24.7493C28.2087 24.7663 28.1408 24.7663 28.0898 24.7663L27.9709 24.7493C27.9539 24.7493 27.9369 24.7663 27.9199 24.7663C27.8689 24.7663 27.801 24.7663 27.733 24.7833C27.665 24.7833 27.614 24.8003 27.5461 24.8003C27.4951 24.8173 27.4441 24.8173 27.4101 24.8173C27.3592 24.8173 27.3252 24.8343 27.2742 24.8343C27.2062 24.8512 27.1213 24.8513 27.0533 24.8513C26.9684 24.8682 26.9004 24.8682 26.8154 24.8682C26.6965 24.8682 26.5776 24.8513 26.4586 24.8513C26.3397 24.8513 26.2038 24.8343 26.0848 24.8173C25.779 24.7833 25.4901 24.6983 25.2182 24.5794C24.9634 24.4604 24.6915 24.2565 24.4366 23.9677C24.3007 23.7978 24.1818 23.6279 24.0968 23.441C24.0118 23.254 23.9439 23.0671 23.8929 22.8802C23.8419 22.6933 23.808 22.5064 23.791 22.3025C23.774 22.1156 23.757 21.9287 23.757 21.7418C23.74 21.402 23.723 21.0452 23.689 20.6713C23.672 20.2975 23.655 19.8897 23.6041 19.431C23.5701 19.0232 23.5531 18.6154 23.5361 18.2076C23.5191 17.7828 23.5191 17.375 23.5531 16.9502C23.5871 16.5424 23.655 16.1346 23.757 15.7268C23.8419 15.336 23.9949 14.9282 24.1988 14.5544C24.2667 14.4185 24.3517 14.2655 24.4536 14.1126C24.5386 13.9767 24.6575 13.8408 24.7765 13.7048C24.9124 13.5859 25.0483 13.4669 25.2013 13.365C25.3712 13.263 25.5581 13.1781 25.762 13.1271C25.9149 13.0761 26.0338 13.0592 26.1528 13.0252C26.2717 13.0082 26.4076 12.9912 26.5266 12.9742C26.6625 12.9742 26.7985 12.9742 26.9514 12.9742C27.1043 12.9912 27.2742 13.0082 27.4781 13.0252C27.682 13.0422 27.8179 13.1101 27.9199 13.2461C28.0049 13.382 28.0558 13.5349 28.0388 13.6708C28.0218 13.8408 27.9709 13.9767 27.8519 14.0616C27.733 14.1636 27.5971 14.1976 27.4271 14.1806C27.3592 14.1806 27.3082 14.1636 27.2742 14.1636C27.2402 14.1466 27.2062 14.1466 27.1723 14.1466C27.1383 14.1466 27.1043 14.1296 27.0703 14.1296C27.0363 14.1296 26.9854 14.1296 26.9174 14.1296C26.5946 14.1296 26.3227 14.1636 26.1018 14.2316C25.8299 14.3335 25.609 14.5034 25.4561 14.7413C25.3032 14.9962 25.1843 15.2511 25.0823 15.5059C24.9804 15.8288 24.8954 16.1516 24.8274 16.4744C24.7765 16.7973 24.7425 17.1201 24.7255 17.443C24.7255 17.7828 24.7255 18.1056 24.7425 18.4285C24.7595 18.7513 24.7935 19.0741 24.8104 19.38L24.8274 19.6519C24.8614 19.9237 24.8784 20.2126 24.8954 20.4844C24.9124 20.7733 24.9294 21.0621 24.9464 21.351V21.5379C24.9464 21.8098 24.9634 22.0986 24.9974 22.3705C25.0313 22.6424 25.1163 22.8802 25.2522 23.0841C25.4052 23.288 25.5751 23.441 25.728 23.5089C25.8979 23.5939 26.1018 23.6449 26.3397 23.6618C26.5266 23.6788 26.7135 23.6958 26.8834 23.6958C27.0533 23.6958 27.2232 23.6788 27.4101 23.6618C27.4611 23.6449 27.5121 23.6279 27.5631 23.6279C27.631 23.6279 27.682 23.6279 27.733 23.6279C27.801 23.6279 27.8689 23.6279 27.9199 23.6279C27.9709 23.6279 28.0218 23.6109 28.0558 23.6109C28.0898 23.5939 28.1238 23.5599 28.1578 23.5259C28.3957 23.373 28.5486 23.2031 28.6335 22.9992C28.7185 22.7953 28.7695 22.5744 28.7865 22.3535C28.8035 22.1156 28.7865 21.8947 28.7695 21.6568C28.7355 21.419 28.7185 21.1811 28.7185 20.9602C28.6845 20.8582 28.6845 20.7903 28.7015 20.7733C28.6675 20.7733 28.6335 20.7733 28.6165 20.7733C28.5826 20.7733 28.5486 20.7733 28.5146 20.7733C28.4296 20.7563 28.3277 20.7563 28.2427 20.7563C28.1408 20.7563 28.0388 20.7393 27.9539 20.7393C27.784 20.7563 27.631 20.7563 27.4781 20.7563C27.3252 20.7733 27.1723 20.7733 27.0024 20.7733C26.8154 20.7733 26.6795 20.7053 26.5776 20.5864C26.4756 20.4674 26.4246 20.3315 26.4246 20.1786C26.4246 20.0257 26.4756 19.8897 26.5776 19.7538C26.6625 19.6349 26.8154 19.5669 27.0024 19.5669C27.2742 19.5669 27.5801 19.5499 27.9029 19.5329C28.2427 19.5159 28.5486 19.5329 28.8374 19.5839C29.1433 19.6519 29.3812 19.7538 29.5851 19.9407Z" stroke="#262626" stroke-width="0.558999" mask="url(#path-6-outside-1_1_2076)"/>
</svg>
