<svg width="149" height="86" viewBox="0 0 149 86" fill="none" xmlns="http://www.w3.org/2000/svg">
<path d="M44.5225 43.7078C44.3414 43.6037 44.225 43.468 44.1913 43.3217C44.1575 43.1755 44.2084 43.027 44.3359 42.8991C44.4635 42.7713 44.6606 42.6714 44.8966 42.6149C45.1326 42.5583 45.3944 42.5484 45.6412 42.5866L126.165 55.0441C126.451 55.0919 126.694 55.2016 126.844 55.3503C126.994 55.499 127.039 55.6753 126.97 55.8427C126.901 56.0101 126.723 56.1556 126.473 56.2492C126.222 56.3428 125.92 56.3771 125.627 56.3452L92.9097 52.3613L131.975 58.4077C132.268 58.4532 132.519 58.5635 132.674 58.7147C132.828 58.866 132.873 59.0461 132.799 59.2164C132.726 59.3867 132.54 59.5335 132.28 59.6252C132.021 59.717 131.71 59.7463 131.414 59.707L115.642 57.6284L133.684 60.4191C133.973 60.4663 134.219 60.5764 134.37 60.7261C134.522 60.8759 134.566 61.0537 134.495 61.2222C134.424 61.3906 134.242 61.5365 133.989 61.6292C133.735 61.722 133.429 61.7542 133.135 61.7193L100.849 57.8537L133.056 62.8367C133.346 62.8839 133.593 62.9944 133.744 63.1447C133.895 63.2951 133.94 63.4735 133.867 63.6423C133.795 63.8111 133.611 63.957 133.356 64.0492C133.1 64.1413 132.793 64.1724 132.498 64.136L122.421 62.8206L131.255 64.1871C131.545 64.2332 131.794 64.3428 131.947 64.4927C132.1 64.6426 132.146 64.821 132.075 64.9901C132.004 65.1593 131.822 65.3059 131.567 65.3989C131.313 65.4918 131.005 65.5239 130.71 65.4883L113.908 63.4116L128.651 65.6957C128.938 65.7437 129.182 65.8538 129.332 66.003C129.481 66.1522 129.526 66.329 129.455 66.4966C129.385 66.6641 129.205 66.8095 128.954 66.9026C128.702 66.9956 128.398 67.029 128.105 66.9959L119.641 65.9296L126.422 66.9788C126.717 67.0232 126.969 67.1325 127.125 67.2833C127.281 67.4341 127.328 67.6142 127.256 67.7849C127.185 67.9556 126.999 68.1031 126.741 68.1957C126.482 68.2883 126.171 68.3186 125.874 68.28L124.644 68.1247C124.908 68.1895 125.122 68.3087 125.243 68.4591C125.363 68.6096 125.383 68.7805 125.298 68.9389C125.214 69.0973 125.03 69.2319 124.783 69.3166C124.536 69.4013 124.243 69.4301 123.962 69.3974L116.019 68.4807L122.172 69.4324C122.459 69.4785 122.704 69.5864 122.857 69.7338C123.009 69.8812 123.058 70.0569 122.993 70.2245C122.927 70.3921 122.753 70.5388 122.506 70.6343C122.258 70.7297 121.957 70.7666 121.664 70.7374L113.091 69.834L119.703 70.8576C119.99 70.9024 120.236 71.0089 120.39 71.1551C120.545 71.3014 120.597 71.4763 120.535 71.6439C120.473 71.8114 120.302 71.9589 120.057 72.0559C119.812 72.1529 119.513 72.1921 119.219 72.1654L111.626 71.4618L117.166 72.3207C117.454 72.3649 117.701 72.4714 117.857 72.6181C118.012 72.7648 118.064 72.9405 118.002 73.1086C117.939 73.2768 117.767 73.4246 117.52 73.5214C117.274 73.6182 116.972 73.6565 116.679 73.6285L115.463 73.512C115.672 73.5803 115.84 73.6838 115.944 73.8087C116.049 73.9336 116.085 74.0739 116.047 74.2109C115.999 74.3752 115.848 74.5234 115.621 74.6265C115.394 74.7296 115.109 74.7803 114.822 74.7687L109.669 74.5575L112.519 74.9959C112.779 75.0373 113.007 75.1299 113.161 75.2577C113.316 75.3855 113.389 75.5406 113.367 75.6961C113.345 75.8516 113.23 75.9977 113.041 76.1094C112.852 76.221 112.602 76.2911 112.333 76.3075L108.692 76.5158C108.854 76.5969 108.973 76.7031 109.034 76.822C109.095 76.9408 109.096 77.0672 109.036 77.1863C108.956 77.3574 108.763 77.5033 108.497 77.5921C108.231 77.6808 107.915 77.7052 107.619 77.6598L102.319 76.8407C102.057 76.7998 101.829 76.7075 101.673 76.5795C101.517 76.4516 101.443 76.2962 101.465 76.1403C101.487 75.9844 101.603 75.8378 101.792 75.726C101.982 75.6142 102.233 75.5442 102.503 75.5281L105.783 75.3387L97.3912 74.0395C97.1118 73.9969 96.87 73.8957 96.7131 73.7556C96.5562 73.6156 96.4955 73.4467 96.5429 73.2822C96.5903 73.1176 96.7424 72.9692 96.9694 72.866C97.1964 72.7628 97.4819 72.7122 97.7701 72.7241L102.922 72.9353L92.7408 71.3643C92.4528 71.3201 92.2054 71.2136 92.0498 71.0669C91.8941 70.9202 91.8423 70.7445 91.9049 70.5764C91.9676 70.4082 92.1399 70.2604 92.3863 70.1636C92.6326 70.0668 92.934 70.0285 93.2279 70.0565L94.1269 70.1417L89.3337 69.3993C89.0473 69.3545 88.8014 69.2481 88.6468 69.1018C88.4922 68.9555 88.4405 68.7806 88.5025 68.6131C88.5645 68.4455 88.7354 68.298 88.9801 68.201C89.2247 68.104 89.5245 68.0648 89.8176 68.0915L97.3928 68.7923L84.9327 66.8642C84.6426 66.82 84.3935 66.7126 84.2378 66.5646C84.082 66.4165 84.0316 66.2394 84.0972 66.0704C84.1628 65.9014 84.3393 65.7537 84.5896 65.6582C84.8399 65.5627 85.1445 65.5269 85.4395 65.5584L94.017 66.4627L80.6415 64.3907C80.3572 64.3425 80.1156 64.2333 79.9663 64.0855C79.8171 63.9378 79.7714 63.7626 79.8388 63.596C79.9062 63.4294 80.0814 63.284 80.3286 63.1897C80.5758 63.0953 80.8761 63.0592 81.168 63.0886L89.1287 64.0063L76.6161 62.0706C76.3292 62.0226 76.0856 61.9125 75.9359 61.7633C75.7861 61.6141 75.7418 61.4373 75.8122 61.2697C75.8826 61.1022 76.0623 60.9568 76.3138 60.8637C76.5653 60.7707 76.8692 60.7373 77.1623 60.7704L78.1219 60.8907L73.2632 60.1388C72.9808 60.0887 72.7422 59.9783 72.596 59.83C72.4498 59.6818 72.4071 59.507 72.4766 59.3413C72.5461 59.1755 72.7225 59.0313 72.9699 58.938C73.2173 58.8448 73.5169 58.8096 73.8078 58.8395L82.3048 59.8983L69.3706 57.8954C69.0799 57.8493 68.8317 57.7398 68.6786 57.5899C68.5254 57.44 68.4794 57.2616 68.5502 57.0924C68.621 56.9233 68.8031 56.7767 69.0579 56.6837C69.3127 56.5907 69.6201 56.5586 69.9152 56.5943L86.7272 58.671L64.8432 55.2855C64.5533 55.2384 64.3065 55.1279 64.1551 54.9776C64.0036 54.8272 63.9595 54.6488 64.032 54.48C64.1044 54.3111 64.2878 54.1652 64.5433 54.0731C64.7988 53.981 65.1064 53.9498 65.4009 53.9863L75.4694 55.3007L60.9802 53.0592C60.6844 53.0163 60.4297 52.908 60.2713 52.7575C60.1129 52.6071 60.0635 52.4267 60.1338 52.2553C60.2041 52.084 60.3884 51.9356 60.6469 51.8421C60.9054 51.7487 61.2173 51.7178 61.5149 51.7561L93.7676 55.6236L55.0404 49.6378C54.7418 49.5949 54.4848 49.4854 54.3261 49.3332C54.1673 49.181 54.1198 48.9986 54.194 48.8262C54.2682 48.6538 54.458 48.5054 54.7216 48.4138C54.9852 48.3222 55.3011 48.2947 55.5998 48.3376L71.3833 50.4171L50.8969 47.2495C50.6041 47.2048 50.3533 47.0957 50.1979 46.9456C50.0426 46.7956 49.9951 46.6163 50.0655 46.4463C50.136 46.2763 50.3189 46.1289 50.5751 46.0357C50.8313 45.9424 51.1404 45.9108 51.4366 45.9474L84.1699 49.9294L45.0457 43.8773C44.8481 43.849 44.6673 43.7904 44.5225 43.7078Z" fill="#50A8FF"/>
<path d="M28.178 45.5093C28.0137 45.4152 27.902 45.2949 27.8571 45.1639C27.8121 45.0329 27.8361 44.8972 27.9259 44.7741C28.0156 44.651 28.1671 44.5462 28.3608 44.4732C28.5545 44.4002 28.7816 44.3623 29.0129 44.3644L31.1716 44.3814L27.4021 43.7981C27.1248 43.7552 26.8849 43.6545 26.7288 43.5154C26.5727 43.3763 26.5115 43.2087 26.557 43.0451C26.6025 42.8815 26.7515 42.7334 26.9751 42.6295C27.1988 42.5256 27.4813 42.4733 27.7679 42.4827L31.8803 42.6143L27.1249 41.8766C26.8379 41.8275 26.5949 41.7161 26.4468 41.5659C26.2988 41.4157 26.257 41.2383 26.3303 41.0707C26.4036 40.9032 26.5863 40.7585 26.8402 40.6669C27.094 40.5753 27.3994 40.5439 27.6924 40.5793L39.485 42.209L26.9149 40.2649C26.6242 40.2188 26.376 40.1092 26.2229 39.9594C26.0697 39.8095 26.0237 39.631 26.0945 39.4619C26.1653 39.2927 26.3474 39.1461 26.6022 39.0532C26.857 38.9602 27.1645 38.9281 27.4595 38.9637L72.1937 44.5234L26.5622 37.4666C26.2686 37.4211 26.0177 37.3108 25.8635 37.1596C25.7093 37.0083 25.664 36.8282 25.7376 36.6579C25.8111 36.4876 25.9975 36.3408 26.2566 36.249C26.5158 36.1573 26.827 36.1279 27.1232 36.1673L48.5463 39.0234L26.3113 35.5811C26.0214 35.5351 25.7738 35.4259 25.6207 35.2766C25.4676 35.1272 25.4209 34.9494 25.4905 34.7806C25.56 34.6118 25.7404 34.4651 25.9936 34.3715C26.2467 34.278 26.5529 34.2448 26.8476 34.279L66.1375 39.0215L25.9586 32.8018C25.6673 32.7548 25.4193 32.644 25.2674 32.493C25.1156 32.342 25.0719 32.1627 25.1457 31.9934C25.2195 31.8241 25.405 31.6781 25.6625 31.5866C25.9201 31.4951 26.2294 31.4652 26.5245 31.5034L27.8171 31.6815L25.7699 31.3652C25.4816 31.317 25.2368 31.2061 25.0871 31.0558C24.9375 30.9055 24.8946 30.7276 24.9674 30.5595C25.0403 30.3914 25.2233 30.2461 25.4779 30.1542C25.7325 30.0623 26.0388 30.031 26.3326 30.0669L31.7097 30.7904L25.5698 29.8406C25.283 29.7925 25.0393 29.6824 24.8896 29.5332C24.7399 29.384 24.6956 29.2072 24.766 29.0397C24.8364 28.8721 25.016 28.7267 25.2675 28.6337C25.519 28.5407 25.8229 28.5072 26.116 28.5404L45.4624 30.9968L25.3106 27.8822C25.0165 27.839 24.7634 27.7309 24.6058 27.5811C24.4481 27.4314 24.3984 27.2519 24.4673 27.0813C24.5362 26.9106 24.7182 26.7624 24.9744 26.6683C25.2305 26.5743 25.5402 26.5419 25.8372 26.5782L54.4959 29.8784L24.9842 25.3093C24.6998 25.2595 24.4594 25.1485 24.3126 24.9994C24.1657 24.8503 24.1236 24.6743 24.195 24.5078C24.2663 24.3412 24.4456 24.1968 24.6959 24.1044C24.9463 24.012 25.2485 23.9785 25.5403 24.011L26.1128 24.0858L24.7988 23.8822C24.5119 23.8358 24.267 23.7274 24.1147 23.5796C23.9624 23.4317 23.9146 23.2557 23.981 23.088C24.0474 22.9204 24.2231 22.7739 24.4716 22.679C24.72 22.584 25.0222 22.5479 25.3155 22.5782L49.6092 25.2392L24.4691 21.3509C24.1702 21.3087 23.9126 21.1997 23.753 21.0479C23.5933 20.896 23.5447 20.7138 23.6178 20.5412C23.6909 20.3687 23.8797 20.22 24.1427 20.1278C24.4057 20.0356 24.7214 20.0076 25.0203 20.0497L26.2784 20.2079L24.2805 19.9011C23.9904 19.8568 23.7414 19.7494 23.5856 19.6014C23.4298 19.4534 23.3794 19.2763 23.445 19.1073C23.5106 18.9383 23.6871 18.7905 23.9374 18.695C24.1877 18.5995 24.4923 18.5638 24.7874 18.5952L48.6759 21.0924L24.7037 17.3821C24.4039 17.3419 24.1441 17.2346 23.9814 17.0839C23.8187 16.9331 23.7663 16.7512 23.8359 16.5781C23.9056 16.4051 24.0914 16.2551 24.3526 16.1611C24.6137 16.0672 24.9289 16.037 25.2286 16.0772L42.7394 18.116L26.9198 15.669C26.6288 15.6243 26.3794 15.516 26.2242 15.3671C26.069 15.2181 26.0202 15.0402 26.0882 14.8708C26.1561 14.7015 26.3355 14.554 26.5883 14.4596C26.8412 14.3652 27.1477 14.3313 27.4431 14.365L47.7671 16.6605L37.2163 15.0279C36.9253 14.983 36.6759 14.8745 36.521 14.7253C36.3661 14.5762 36.3178 14.398 36.3863 14.2287C36.455 14.0589 36.6357 13.9113 36.8899 13.8172C37.1442 13.7231 37.4519 13.69 37.7478 13.7249L51.2906 15.3044C51.2049 15.1962 51.1707 15.0768 51.1915 14.9584C51.2123 14.84 51.2874 14.7269 51.4091 14.6309C51.5307 14.5348 51.6945 14.4592 51.8836 14.4118C52.0726 14.3644 52.2802 14.347 52.4848 14.3612L70.7649 15.6529C70.8614 15.4935 71.0587 15.361 71.3173 15.2819C71.5758 15.2029 71.8766 15.1832 72.1592 15.2268L78.5074 16.2079C78.7884 16.2529 79.0296 16.3575 79.1831 16.5006C79.3366 16.6438 79.391 16.815 79.3355 16.9803C79.2801 17.1456 79.1189 17.2927 78.8839 17.3925C78.649 17.4922 78.3576 17.5372 78.0678 17.5185L68.6259 16.8518L81.0844 18.7789C81.3839 18.8195 81.6433 18.9271 81.8054 19.078C81.9675 19.229 82.0191 19.4109 81.9489 19.5838C81.8786 19.7568 81.6923 19.9065 81.4308 20.0001C81.1693 20.0937 80.8541 20.1234 80.5546 20.0829L73.6372 19.277L80.9811 20.4124C81.2721 20.4571 81.5215 20.5654 81.6767 20.7144C81.8319 20.8633 81.8807 21.0413 81.8127 21.2106C81.7448 21.38 81.5654 21.5274 81.3126 21.6218C81.0597 21.7162 80.7532 21.7501 80.4578 21.7164L60.1223 19.4181L79.0504 22.3528C79.3396 22.3987 79.5867 22.5075 79.74 22.6563C79.8933 22.8051 79.9407 22.9825 79.8724 23.151C79.804 23.3196 79.6252 23.4664 79.3735 23.5605C79.1217 23.6546 78.8166 23.6888 78.5222 23.6558L61.013 21.6123L76.2946 23.9759C76.5846 24.0202 76.8337 24.1276 76.9895 24.2756C77.1453 24.4236 77.1956 24.6007 77.13 24.7697C77.0644 24.9387 76.888 25.0865 76.6377 25.182C76.3874 25.2774 76.0827 25.3132 75.7877 25.2818L51.8975 22.7856L77.0311 26.6795C77.3201 26.7267 77.5661 26.8368 77.7174 26.9866C77.8686 27.1363 77.9134 27.3142 77.8422 27.4826C77.771 27.651 77.5894 27.797 77.3357 27.8897C77.0819 27.9824 76.7757 28.0147 76.4816 27.9797L75.2415 27.8206L80.3905 28.619C80.6733 28.6673 80.9136 28.776 81.0625 28.9229C81.2114 29.0698 81.2578 29.244 81.1922 29.41C81.1266 29.576 80.9539 29.7213 80.7093 29.8164C80.4647 29.9115 80.1666 29.9493 79.8755 29.922L55.5801 27.26L86.2581 32.0063C86.5425 32.0561 86.7829 32.167 86.9297 32.3161C87.0766 32.4653 87.1187 32.6413 87.0473 32.8078C86.976 32.9743 86.7967 33.1187 86.5464 33.2111C86.2961 33.3036 85.9938 33.337 85.702 33.3046L85.0885 33.2251L89.5683 33.9173C89.8527 33.9655 90.0942 34.0747 90.2435 34.2225C90.3928 34.3703 90.4384 34.5454 90.371 34.712C90.3037 34.8786 90.1284 35.024 89.8812 35.1183C89.6341 35.2127 89.3337 35.2488 89.0418 35.2194L60.3946 31.9201L95.531 37.3596C95.8179 37.4076 96.0615 37.5177 96.2112 37.6669C96.361 37.8161 96.4052 37.9929 96.3349 38.1604C96.2645 38.328 96.0848 38.4734 95.8333 38.5664C95.5818 38.6595 95.2779 38.6929 94.9848 38.6598L75.6598 36.2061L100.078 39.9846C100.366 40.0328 100.611 40.1437 100.761 40.294C100.911 40.4442 100.953 40.6221 100.881 40.7903C100.808 40.9584 100.625 41.1037 100.37 41.1956C100.116 41.2874 99.8092 41.3187 99.5155 41.2829L94.0941 40.5547L103.625 42.032C103.912 42.0811 104.155 42.1925 104.303 42.3427C104.451 42.4929 104.492 42.6703 104.419 42.8379C104.346 43.0054 104.163 43.1501 103.909 43.2417C103.655 43.3333 103.35 43.3647 103.057 43.3293L101.82 43.1607L106.951 43.9524C107.233 44.0022 107.472 44.1122 107.618 44.26C107.765 44.4078 107.809 44.5822 107.74 44.7479C107.672 44.9135 107.497 45.0579 107.251 45.1517C107.004 45.2455 106.705 45.2816 106.415 45.2526L67.1217 40.5083L113.391 47.6703C113.675 47.7209 113.913 47.8321 114.059 47.9813C114.205 48.1304 114.246 48.3061 114.174 48.4721C114.102 48.6382 113.923 48.7821 113.673 48.8743C113.423 48.9664 113.121 48.9998 112.83 48.9676L91.3924 46.1068L117.756 50.1902C118.041 50.2389 118.283 50.349 118.431 50.4977C118.58 50.6464 118.624 50.8223 118.554 50.9891C118.485 51.156 118.307 51.301 118.057 51.3943C117.808 51.4875 117.505 51.5219 117.213 51.4904L72.4857 45.9344L124.257 53.943C124.541 53.9938 124.78 54.1055 124.925 54.2551C125.071 54.4048 125.111 54.5809 125.038 54.7472C124.965 54.9135 124.784 55.0573 124.533 55.1489C124.282 55.2405 123.979 55.2729 123.688 55.2395L43.6925 44.1759C43.4725 44.2738 43.1989 44.3229 42.9215 44.3142L38.8124 44.1806L40.7218 44.478C40.9961 44.5195 41.2346 44.6176 41.3921 44.7537C41.5496 44.8899 41.6153 45.0546 41.5767 45.2168C41.5382 45.379 41.398 45.5274 41.1827 45.634C40.9675 45.7406 40.692 45.7979 40.4085 45.7952L38.1169 45.7772C38.3655 45.8558 38.5557 45.9841 38.6517 46.138C38.7476 46.2919 38.7426 46.4608 38.6377 46.6127C38.5327 46.7647 38.335 46.8892 38.0819 46.9628C37.8288 47.0364 37.5379 47.0539 37.2639 47.0121L28.693 45.6854C28.4971 45.6544 28.3192 45.5935 28.178 45.5093Z" fill="#50A8FF"/>
<path d="M97.1434 73.978C98.3524 74.676 99.54 75.3919 100.775 76.0747C101.569 76.5762 102.526 76.9823 103.592 77.2696C104.658 77.5569 105.812 77.7197 106.988 77.7487C108.163 77.7778 109.337 77.6724 110.442 77.4388C111.547 77.2051 112.561 76.8477 113.426 76.3872C120.084 72.7763 126.375 68.9117 132.836 65.1816C132.874 65.1598 132.872 65.1342 132.9 65.1124C132.928 65.0907 132.987 65.0926 133.018 65.0708C134.4 64.1854 135.132 63.0247 135.059 61.8336C134.987 60.6426 134.115 59.5144 132.629 58.6872C131.881 58.2213 131.068 57.7857 130.29 57.3368L76.0271 26.0108C79.6178 24.0022 84.1584 21.8564 81.9373 18.6518C80.1346 16.0485 75.8434 15.3402 71.4817 15.1499L38.0643 13.6991C34.8016 13.558 30.6154 13.0201 27.5119 13.8118C22.7352 15.041 22.7663 17.6442 23.0944 20.1632L25.6419 39.8253C25.9732 42.3878 25.9339 44.9068 30.1742 46.4892C31.6633 47.0888 33.4321 47.4139 35.2476 47.4217C37.0631 47.4294 38.8401 47.1195 40.3444 46.5327C42.0421 45.7344 43.6182 44.8537 45.0555 43.9001L97.15 73.9743L97.1434 73.978ZM45.751 42.6217C45.3344 42.3812 43.8925 41.8007 43.2478 42.1728C40.3493 43.8461 34.9821 47.9219 30.5728 45.2212C28.5863 44.0043 28.9308 41.5251 28.7307 39.9739L26.4686 22.5126C26.2718 20.9823 25.4516 18.8952 26.3243 17.3933C27.9154 14.6641 32.2985 14.7815 36.2632 14.9529L65.957 16.2389C69.1158 16.2657 72.2687 16.4064 75.3972 16.6603C80.1526 17.2275 80.1871 20.6736 77.4673 22.4141C75.991 23.3592 74.3293 24.2257 72.7694 25.1263C72.3609 25.3621 72.5299 25.6812 72.9153 25.9037L125.418 56.2137C129.107 58.3434 134.96 60.8454 130.041 64.0414L112.714 74.0443C110.143 75.5282 106.812 77.5216 103.07 75.712C101.72 75.0576 100.527 74.2441 99.2825 73.5254L45.751 42.6217Z" fill="#262626"/>
<path d="M63.6132 20.8268C63.3696 20.6256 63.0525 20.4577 62.6844 20.3348C62.3163 20.212 61.906 20.1372 61.4824 20.1156L40.7762 19.2226L37.7858 19.0929C37.0706 19.0588 36.8131 19.3817 37.1608 19.717C37.4057 19.9173 37.7235 20.0842 38.0918 20.2063C38.4601 20.3283 38.8702 20.4024 39.2933 20.4234L59.9979 21.3211L62.9883 21.4509C63.7067 21.485 63.9577 21.1639 63.6132 20.8268Z" fill="#262626"/>
</svg>
