<svg width="54" height="29" viewBox="0 0 54 29" fill="none" xmlns="http://www.w3.org/2000/svg">
<path d="M34.7584 22.6328C34.8583 22.633 34.9555 22.6002 35.0349 22.5395C35.1143 22.4788 35.1714 22.3936 35.1973 22.2971C35.2233 22.2006 35.2166 22.0982 35.1785 22.0058C35.1403 21.9135 35.0726 21.8363 34.9861 21.7864L6.75051 5.48572C6.64841 5.42949 6.52857 5.41472 6.41586 5.44448C6.30316 5.47424 6.20624 5.54624 6.1452 5.64556C6.08417 5.74487 6.06371 5.86386 6.08807 5.97786C6.11242 6.09185 6.17973 6.1921 6.27602 6.25779L17.232 13.397L3.53248 5.49025C3.42949 5.43087 3.30729 5.41429 3.1922 5.44408C3.0771 5.47388 2.9783 5.54767 2.91706 5.64958C2.85582 5.75148 2.83704 5.87336 2.86475 5.98897C2.89246 6.10459 2.96446 6.2047 3.06524 6.26777L8.42258 9.63369L2.09629 5.98108C1.99377 5.92377 1.87302 5.90846 1.75944 5.93838C1.64586 5.96829 1.54831 6.04109 1.48731 6.14146C1.42631 6.24183 1.40662 6.36195 1.43238 6.47654C1.45814 6.59113 1.52734 6.69127 1.62543 6.75588L12.4054 13.8325L1.11193 7.31293C1.00914 7.25534 0.887989 7.24 0.774097 7.27015C0.660206 7.3003 0.562511 7.37358 0.50169 7.47448C0.440865 7.57538 0.421684 7.69599 0.448204 7.81078C0.474724 7.92557 0.544865 8.02554 0.643784 8.08954L4.0605 10.2461L0.963135 8.45788C0.86068 8.39957 0.739548 8.38342 0.625397 8.41287C0.51125 8.44232 0.413048 8.51506 0.351601 8.61566C0.29015 8.71627 0.270283 8.83685 0.2962 8.95185C0.322121 9.06686 0.391788 9.16725 0.490456 9.23177L6.13177 12.8835L0.960415 9.90042C0.858067 9.84413 0.737949 9.82949 0.625076 9.85955C0.512203 9.88961 0.415279 9.96204 0.354481 10.0618C0.293678 10.1615 0.273693 10.2809 0.298687 10.395C0.323677 10.5091 0.39172 10.6091 0.48864 10.6743L3.34014 12.5042L0.962227 11.1316C0.85957 11.0714 0.737389 11.054 0.622009 11.0831C0.506634 11.1121 0.407299 11.1854 0.345417 11.287C0.283539 11.3886 0.264065 11.5105 0.291195 11.6264C0.318321 11.7422 0.389885 11.8428 0.490456 11.9064L0.905071 12.1722C0.800896 12.1301 0.68483 12.1283 0.579342 12.1669C0.473854 12.2055 0.386452 12.2819 0.334057 12.3813C0.281662 12.4806 0.268002 12.5959 0.295719 12.7048C0.323441 12.8137 0.390564 12.9084 0.484104 12.9706L3.11968 14.7279L0.962227 13.4823C0.860889 13.425 0.741436 13.409 0.628571 13.4373C0.515709 13.4657 0.418068 13.5364 0.355846 13.6347C0.293625 13.7331 0.271576 13.8516 0.294266 13.9657C0.316956 14.0799 0.382648 14.1809 0.477753 14.248L3.28117 16.1859L0.962227 14.8477C0.861553 14.7899 0.742561 14.7729 0.629742 14.8002C0.516922 14.8275 0.418861 14.897 0.35574 14.9944C0.292618 15.0919 0.269241 15.2098 0.290421 15.3239C0.3116 15.438 0.375721 15.5397 0.469589 15.608L2.90648 17.3708L0.963135 16.2503C0.862324 16.1918 0.742882 16.1744 0.629578 16.2017C0.516277 16.2289 0.417801 16.2987 0.354568 16.3966C0.291336 16.4945 0.268196 16.6129 0.289948 16.7274C0.311699 16.8419 0.376675 16.9436 0.471401 17.0115L0.863335 17.2918C0.772812 17.2667 0.676773 17.2698 0.588078 17.3008C0.499382 17.3317 0.422268 17.3891 0.367069 17.4651C0.301498 17.5569 0.272507 17.6699 0.285759 17.782C0.299011 17.894 0.353558 17.9971 0.438744 18.0712L1.96474 19.3948L0.966766 18.8169C0.874897 18.7647 0.767662 18.7461 0.663582 18.7645C0.559502 18.7829 0.465111 18.837 0.396702 18.9176C0.328293 18.9982 0.290161 19.1001 0.288891 19.2058C0.287621 19.3115 0.323296 19.4143 0.389748 19.4965L1.297 20.6033C1.21326 20.5972 1.12952 20.6152 1.05571 20.6553C0.981903 20.6953 0.921124 20.7557 0.880573 20.8292C0.820633 20.9332 0.804356 21.0567 0.835304 21.1727C0.866257 21.2887 0.941906 21.3877 1.04569 21.448L2.90375 22.5212C2.99563 22.574 3.1031 22.593 3.20749 22.5748C3.31189 22.5566 3.40663 22.5025 3.47528 22.4218C3.54393 22.3411 3.58215 22.2389 3.58332 22.1329C3.58449 22.0269 3.54853 21.9239 3.48167 21.8417L2.66514 20.8437L5.60828 22.5421C5.70593 22.599 5.82129 22.6174 5.93177 22.5937C6.04226 22.5699 6.13992 22.5058 6.20563 22.4139C6.27134 22.322 6.30038 22.2088 6.28705 22.0966C6.27372 21.9844 6.219 21.8812 6.13358 21.8072L4.60758 20.4835L8.17581 22.5466C8.27662 22.6051 8.39606 22.6225 8.50937 22.5953C8.62267 22.568 8.72115 22.4982 8.78438 22.4004C8.84761 22.3025 8.87075 22.184 8.849 22.0695C8.82724 21.955 8.76227 21.8533 8.66754 21.7855L8.37813 21.5777L10.0593 22.5475C10.1599 22.6053 10.2789 22.6223 10.3918 22.595C10.5046 22.5677 10.6026 22.4982 10.6658 22.4008C10.7289 22.3034 10.7523 22.1855 10.7311 22.0713C10.7099 21.9572 10.6458 21.8556 10.5519 21.7873L8.12137 20.0281L12.4907 22.5503C12.5921 22.6093 12.7125 22.6267 12.8264 22.5989C12.9404 22.5711 13.0392 22.5002 13.102 22.4011C13.1648 22.302 13.1868 22.1824 13.1633 22.0674C13.1398 21.9525 13.0727 21.8511 12.9761 21.7845L10.1709 19.8457L14.8623 22.5521C14.964 22.6076 15.0831 22.6221 15.1952 22.5926C15.3073 22.5631 15.4038 22.4918 15.4649 22.3934C15.5261 22.2949 15.5473 22.1768 15.5241 22.0633C15.501 21.9497 15.4352 21.8493 15.3404 21.7827L12.6994 20.0208L17.0869 22.5539C17.1892 22.6102 17.3093 22.6248 17.4222 22.5948C17.5351 22.5647 17.632 22.4923 17.6928 22.3925C17.7536 22.2928 17.7736 22.1735 17.7486 22.0594C17.7236 21.9453 17.6556 21.8452 17.5586 21.78L17.2357 21.5723L18.9395 22.5557C19.0416 22.6098 19.1605 22.6229 19.2719 22.5923C19.3833 22.5617 19.4788 22.4898 19.539 22.3912C19.5992 22.2926 19.6195 22.1747 19.5958 22.0616C19.572 21.9486 19.506 21.8488 19.4113 21.7827L16.5543 19.9401L21.0906 22.5575C21.193 22.6158 21.3142 22.632 21.4283 22.6025C21.5425 22.5731 21.6407 22.5004 21.7021 22.3997C21.7636 22.2991 21.7834 22.1786 21.7575 22.0636C21.7316 21.9486 21.6619 21.8482 21.5633 21.7836L15.9192 18.1292L23.5928 22.5593C23.6956 22.6169 23.8167 22.6323 23.9306 22.6021C24.0445 22.572 24.1422 22.4987 24.203 22.3978C24.2639 22.2969 24.283 22.1763 24.2565 22.0615C24.23 21.9467 24.1599 21.8467 24.0609 21.7827L20.6469 19.628L25.7276 22.5612C25.8299 22.6224 25.9522 22.641 26.0681 22.6127C26.184 22.5844 26.2841 22.5117 26.3467 22.4102C26.4093 22.3086 26.4294 22.1866 26.4027 22.0703C26.376 21.9541 26.3045 21.853 26.2039 21.7891L15.432 14.7225L29.0091 22.5648C29.1122 22.6269 29.2357 22.6454 29.3526 22.6164C29.4694 22.5874 29.5699 22.5132 29.6319 22.4101C29.694 22.307 29.7126 22.1835 29.6836 22.0666C29.6546 21.9498 29.5803 21.8493 29.4772 21.7873L24.1163 18.4186L31.299 22.5666C31.4014 22.6261 31.523 22.6433 31.6379 22.6143C31.7527 22.5854 31.8517 22.5127 31.9137 22.4118C31.9756 22.3108 31.9956 22.1897 31.9695 22.0742C31.9433 21.9587 31.8729 21.858 31.7735 21.7936L20.8139 14.649L34.5325 22.5693C34.6007 22.6104 34.6787 22.6324 34.7584 22.6328Z" fill="#50A8FF"/>
<path d="M38.4155 28.0157C38.506 28.0161 38.5945 27.9894 38.6697 27.939C38.7448 27.8887 38.8032 27.817 38.8374 27.7332C38.8715 27.6495 38.8798 27.5574 38.8612 27.4688C38.8426 27.3803 38.798 27.2993 38.733 27.2364L38.1279 26.6476L39.4498 27.4106C39.547 27.4667 39.6616 27.4848 39.7714 27.4613C39.8812 27.4379 39.9784 27.3746 40.0442 27.2836C40.11 27.1926 40.1397 27.0805 40.1276 26.9689C40.1155 26.8572 40.0624 26.7541 39.9787 26.6793L38.7784 25.6051L40.4468 26.5668C40.5498 26.6226 40.6703 26.6365 40.7832 26.6055C40.8961 26.5745 40.9926 26.501 41.0526 26.4005C41.1126 26.3 41.1314 26.1801 41.1051 26.066C41.0787 25.952 41.0093 25.8525 40.9113 25.7884L36.8695 23.308L41.277 25.8528C41.3794 25.9111 41.5006 25.9273 41.6147 25.8978C41.7289 25.8684 41.8271 25.7956 41.8885 25.695C41.95 25.5944 41.9698 25.4738 41.9439 25.3588C41.918 25.2438 41.8483 25.1434 41.7497 25.0789L26.7155 15.3713L42.715 24.6099C42.818 24.6693 42.9402 24.6858 43.0553 24.656C43.1704 24.6262 43.2691 24.5524 43.3304 24.4505C43.3916 24.3486 43.4104 24.2268 43.3827 24.1111C43.355 23.9955 43.283 23.8954 43.1822 23.8323L35.8897 19.2761L43.6875 23.7761C43.7897 23.8342 43.9105 23.8504 44.0244 23.8212C44.1383 23.792 44.2364 23.7197 44.298 23.6196C44.3597 23.5195 44.38 23.3994 44.3548 23.2845C44.3296 23.1697 44.2608 23.0691 44.1629 23.004L31.0259 14.4105L45.1165 22.5422C45.2195 22.6003 45.3412 22.6158 45.4555 22.5855C45.5698 22.5551 45.6678 22.4813 45.7285 22.3798C45.7892 22.2783 45.8078 22.1571 45.7804 22.042C45.7531 21.9269 45.6818 21.8271 45.5819 21.7638L45.1392 21.4916L45.8568 21.9062C45.9596 21.9629 46.0805 21.9774 46.1938 21.9469C46.3072 21.9163 46.4043 21.8429 46.4647 21.7422C46.5251 21.6415 46.544 21.5213 46.5177 21.4069C46.4913 21.2925 46.4215 21.1928 46.3231 21.1287L44.4896 19.9883L46.6425 21.2312C46.7448 21.2875 46.8649 21.3022 46.9778 21.2721C47.0907 21.2421 47.1876 21.1696 47.2484 21.0699C47.3092 20.9702 47.3292 20.8508 47.3042 20.7367C47.2792 20.6226 47.2112 20.5225 47.1142 20.4574L40.5875 16.284L47.6522 20.3648C47.7543 20.4254 47.8761 20.4436 47.9914 20.4155C48.1067 20.3874 48.2064 20.3152 48.2691 20.2144C48.3318 20.1136 48.3525 19.9922 48.3267 19.8763C48.301 19.7605 48.2308 19.6593 48.1313 19.5946L38.6251 13.2501L48.975 19.2226C49.0775 19.2774 49.1971 19.2907 49.3092 19.2599C49.4212 19.2291 49.5172 19.1564 49.5772 19.0569C49.6373 18.9574 49.6568 18.8387 49.6319 18.7251C49.607 18.6116 49.5394 18.512 49.4432 18.4469L49.249 18.3244L49.7099 18.5902C49.8115 18.6473 49.9311 18.6632 50.044 18.6345C50.157 18.6058 50.2545 18.5347 50.3165 18.436C50.3784 18.3373 50.4 18.2186 50.3768 18.1044C50.3535 17.9902 50.2872 17.8893 50.1917 17.8227L42.1987 12.3792L51.0136 17.4689C51.1165 17.5313 51.2399 17.5503 51.3568 17.5217C51.4737 17.4932 51.5745 17.4193 51.6369 17.3164C51.6994 17.2136 51.7184 17.0901 51.6898 16.9732C51.6612 16.8563 51.5874 16.7556 51.4845 16.6932L51.0608 16.421L51.7603 16.8265C51.8617 16.8855 51.982 16.903 52.096 16.8751C52.21 16.8473 52.3088 16.7764 52.3716 16.6773C52.4344 16.5782 52.4564 16.4586 52.4329 16.3437C52.4094 16.2287 52.3423 16.1273 52.2457 16.0608L44.4433 10.6508L52.8499 15.5028C52.9521 15.5665 53.0753 15.5869 53.1925 15.5597C53.3098 15.5325 53.4114 15.4598 53.475 15.3577C53.5387 15.2555 53.5591 15.1323 53.5319 15.0151C53.5047 14.8978 53.432 14.7962 53.3298 14.7326L47.5107 10.8668L53.0577 14.0694C53.1596 14.1284 53.2804 14.1455 53.3947 14.1171C53.509 14.0887 53.6077 14.0169 53.67 13.917C53.7323 13.8171 53.7534 13.6969 53.7287 13.5817C53.704 13.4666 53.6354 13.3656 53.5376 13.3L46.8176 8.77918L50.5174 10.9149C50.6194 10.9738 50.7403 10.9908 50.8546 10.9622C50.9689 10.9336 51.0676 10.8616 51.1298 10.7615C51.1921 10.6612 51.2128 10.5405 51.1876 10.4252C51.1623 10.3098 51.0931 10.2088 50.9946 10.1437L46.4928 7.15519C46.5683 7.12705 46.635 7.07929 46.686 7.01682C46.7369 6.95435 46.7703 6.87944 46.7827 6.79978C46.7951 6.72012 46.786 6.63861 46.7564 6.56362C46.7268 6.48863 46.6778 6.42288 46.6143 6.37314L40.9404 1.93666C40.9901 1.8336 40.999 1.71556 40.9654 1.6062C40.9317 1.49684 40.858 1.40424 40.7589 1.34695L38.5334 0.061367C38.4341 0.00526546 38.3174 -0.0113768 38.2063 0.0147556C38.0953 0.0408881 37.9982 0.107878 37.9344 0.202381C37.8706 0.296885 37.8446 0.411969 37.8618 0.524712C37.879 0.637455 37.9381 0.739584 38.0272 0.810759L40.9576 3.10248L36.5892 0.580316C36.4869 0.516913 36.3637 0.496731 36.2465 0.524209C36.1294 0.551687 36.0279 0.624575 35.9645 0.726838C35.9011 0.829101 35.881 0.952363 35.9084 1.06951C35.9359 1.18665 36.0088 1.28808 36.1111 1.35148L38.41 2.87839L35.8353 1.3914C35.7334 1.33235 35.6125 1.31524 35.4982 1.34367C35.384 1.37211 35.2852 1.44387 35.2229 1.54378C35.1606 1.64369 35.1396 1.76393 35.1643 1.87906C35.189 1.9942 35.2575 2.09521 35.3553 2.16075L42.0799 6.68342L35.4397 2.8548C35.3377 2.79681 35.2173 2.78056 35.1036 2.80947C34.9899 2.83839 34.8919 2.91021 34.83 3.00987C34.7681 3.10953 34.7473 3.22927 34.7718 3.34398C34.7963 3.45868 34.8644 3.55943 34.9616 3.62506L40.7825 7.48815L35.4243 4.39441C35.3229 4.3354 35.2025 4.31798 35.0885 4.3458C34.9746 4.37362 34.8758 4.44453 34.813 4.54362C34.7502 4.64272 34.7282 4.7623 34.7517 4.87726C34.7751 4.99222 34.8422 5.09361 34.9389 5.16014L42.7413 10.571L33.9255 5.48584C33.823 5.42854 33.7022 5.41323 33.5886 5.44314C33.475 5.47305 33.3775 5.54585 33.3165 5.64622C33.2555 5.74659 33.2358 5.86671 33.2616 5.9813C33.2873 6.09589 33.3565 6.19603 33.4546 6.26064L33.8738 6.52737L32.0674 5.48584C31.9661 5.43079 31.8476 5.4164 31.736 5.44561C31.6244 5.47482 31.5282 5.54543 31.4668 5.64309C31.4054 5.74074 31.3836 5.8581 31.4057 5.9713C31.4277 6.0845 31.4921 6.18504 31.5857 6.25247L39.5795 11.696L28.8222 5.48584C28.7197 5.43106 28.6001 5.41771 28.488 5.44854C28.376 5.47937 28.28 5.55203 28.22 5.65152C28.1599 5.75102 28.1404 5.86977 28.1653 5.98328C28.1902 6.09679 28.2578 6.19639 28.354 6.26154L28.5618 6.3931L26.9913 5.48584C26.8896 5.43031 26.7705 5.41581 26.6584 5.44532C26.5464 5.47484 26.4498 5.54612 26.3887 5.64455C26.3275 5.74298 26.3063 5.86109 26.3295 5.97464C26.3526 6.0882 26.4184 6.18858 26.5132 6.25519L36.0158 12.5969L23.6935 5.48584C23.5911 5.42955 23.471 5.41491 23.3581 5.44497C23.2453 5.47503 23.1483 5.54747 23.0875 5.6472C23.0267 5.74693 23.0068 5.86628 23.0317 5.98038C23.0567 6.09448 23.1248 6.19454 23.2217 6.25973L29.7412 10.4286L21.1786 5.48584C21.0757 5.4292 20.9549 5.41464 20.8415 5.44523C20.7282 5.47582 20.6311 5.54917 20.5707 5.64987C20.5103 5.75056 20.4913 5.87075 20.5177 5.98517C20.5441 6.09958 20.6138 6.1993 20.7122 6.26336L22.5603 7.41376L19.2171 5.48584C19.1142 5.43003 18.9936 5.41618 18.8807 5.44718C18.7678 5.47818 18.6713 5.55162 18.6113 5.65216C18.5513 5.7527 18.5325 5.87254 18.5588 5.98662C18.5852 6.1007 18.6546 6.20019 18.7526 6.26427L19.1753 6.52556L17.3772 5.48584C17.2753 5.4317 17.1566 5.4184 17.0453 5.44865C16.934 5.47891 16.8384 5.55043 16.7779 5.64869C16.7175 5.74694 16.6967 5.86453 16.7199 5.97754C16.7431 6.09055 16.8084 6.19048 16.9027 6.25701L30.0415 14.8505L13.8153 5.48584C13.7127 5.43175 13.5933 5.41898 13.4816 5.45017C13.3699 5.48137 13.2744 5.55415 13.2148 5.65356C13.1551 5.75297 13.1357 5.87147 13.1607 5.98472C13.1856 6.09796 13.253 6.19734 13.3489 6.26245L20.6478 10.8205L11.4011 5.48584C11.2989 5.43038 11.1793 5.41627 11.067 5.44642C10.9547 5.47657 10.8583 5.54869 10.7977 5.64787C10.737 5.74706 10.7168 5.86575 10.7411 5.97944C10.7654 6.09313 10.8325 6.19314 10.9284 6.25882L25.9589 15.9664L7.80562 5.48584C7.70281 5.43166 7.58312 5.419 7.47125 5.45048C7.35938 5.48196 7.26385 5.55518 7.20439 5.65503C7.14492 5.75488 7.12604 5.87375 7.15165 5.98711C7.17726 6.10047 7.2454 6.19968 7.34202 6.26427L34.7638 23.0866C34.7777 23.1943 34.8299 23.2935 34.9108 23.366L36.1111 24.4384L35.4406 24.0528C35.3449 23.9968 35.2319 23.9779 35.1231 23.9995C35.0144 24.0212 34.9173 24.0819 34.8503 24.1703C34.7832 24.2587 34.7509 24.3685 34.7594 24.4791C34.7678 24.5897 34.8165 24.6933 34.8962 24.7704L35.5386 25.3955C35.4322 25.3644 35.3182 25.3733 35.2179 25.4205C35.1176 25.4677 35.0381 25.5499 34.9943 25.6518C34.9506 25.7536 34.9456 25.8679 34.9804 25.9731C35.0151 26.0783 35.0872 26.1672 35.1829 26.223L38.1887 27.9576C38.2577 27.9969 38.3361 28.017 38.4155 28.0157Z" fill="#50A8FF"/>
<path d="M5.70633 22.5812C5.03768 22.5812 4.36631 22.5957 3.69767 22.5812C3.23798 22.602 2.77872 22.5318 2.34626 22.3745C1.91379 22.2173 1.51665 21.9762 1.17767 21.665C0.838673 21.3538 0.564507 20.9788 0.370918 20.5613C0.177326 20.1439 0.0681267 19.6923 0.0495949 19.2325C-0.0619965 15.6615 0.0495949 12.0706 0.0495949 8.49694C0.0495949 8.47608 0.0622978 8.46428 0.0650177 8.44614C0.0677414 8.42799 0.0505028 8.41257 0.0523186 8.39352C0.0943031 7.58724 0.447914 6.82882 1.03852 6.27834C1.62912 5.72786 2.4105 5.42838 3.21773 5.44312C3.64777 5.42679 4.08144 5.44312 4.51147 5.44312H34.5235C34.4926 3.48799 34.2649 1.20443 36.4142 0.283565C38.1597 -0.46492 39.6857 0.382456 40.9831 1.49747L50.9194 10.0438C51.8892 10.8785 53.3045 11.7785 53.7836 13.016C54.5157 14.9257 53.2601 16.1642 51.9627 17.2801L41.8396 25.9943C40.5204 27.1301 39.3247 28.3477 37.394 27.9331C36.695 27.8085 36.0501 27.4751 35.5443 26.9767C35.0385 26.4784 34.6956 25.8385 34.5607 25.1414C34.4736 24.2896 34.4596 23.4318 34.5189 22.5775H5.70633V22.5812ZM34.939 21.7728C35.1694 21.7728 35.8462 21.8935 35.8462 22.25C35.8462 23.8531 35.3781 27.2898 37.8912 27.2154C39.0234 27.1819 40.1158 25.899 40.9142 25.2113L49.9041 17.4724C50.6916 16.7938 51.9183 16.0208 52.3964 15.06C53.2637 13.3126 51.9954 12.1568 50.8168 11.1425L41.9893 3.54696C41.1029 2.68622 40.1635 1.88173 39.1768 1.1382C37.59 0.0948557 35.9297 1.73608 35.8481 3.32196C35.8036 4.18295 35.8481 5.05754 35.8481 5.92034C35.8481 6.14625 35.6485 6.25239 35.4353 6.25239H6.39675C4.35633 6.25239 1.53931 5.83234 1.36874 8.72376V18.3071C1.36874 19.7288 1.33517 21.605 3.23678 21.7728C3.92357 21.8327 4.64303 21.7728 5.33163 21.7728H34.939Z" fill="#262626"/>
<path d="M40.4396 6.39304C40.6034 6.36405 40.7715 6.37129 40.9321 6.41423C41.0928 6.45718 41.2421 6.5348 41.3695 6.64163L47.5235 11.94L48.4126 12.7048C48.6267 12.8863 48.5432 13.1122 48.2865 13.1766C48.1228 13.2048 47.9549 13.1969 47.7946 13.1535C47.6343 13.1101 47.4854 13.0322 47.3583 12.9253L41.2026 7.62963L40.3135 6.86482C40.0985 6.68246 40.1829 6.45927 40.4396 6.39304Z" fill="#262626"/>
</svg>
