<svg width="54" height="29" viewBox="0 0 54 29" fill="none" xmlns="http://www.w3.org/2000/svg">
<path d="M19.2416 22.6328C19.1417 22.633 19.0445 22.6002 18.9651 22.5395C18.8857 22.4788 18.8286 22.3936 18.8027 22.2971C18.7767 22.2006 18.7834 22.0982 18.8215 22.0058C18.8597 21.9135 18.9274 21.8363 19.0139 21.7864L47.2495 5.48572C47.3516 5.42949 47.4714 5.41472 47.5841 5.44448C47.6968 5.47424 47.7938 5.54624 47.8548 5.64556C47.9158 5.74487 47.9363 5.86386 47.9119 5.97786C47.8876 6.09185 47.8203 6.1921 47.724 6.25779L36.768 13.397L50.4675 5.49025C50.5705 5.43087 50.6927 5.41429 50.8078 5.44408C50.9229 5.47388 51.0217 5.54767 51.0829 5.64958C51.1442 5.75148 51.163 5.87336 51.1353 5.98897C51.1075 6.10459 51.0355 6.2047 50.9348 6.26777L45.5774 9.63369L51.9037 5.98108C52.0062 5.92377 52.127 5.90846 52.2406 5.93838C52.3541 5.96829 52.4517 6.04109 52.5127 6.14146C52.5737 6.24183 52.5934 6.36195 52.5676 6.47654C52.5419 6.59113 52.4727 6.69127 52.3746 6.75588L41.5946 13.8325L52.8881 7.31293C52.9909 7.25534 53.112 7.24 53.2259 7.27015C53.3398 7.3003 53.4375 7.37358 53.4983 7.47448C53.5591 7.57538 53.5783 7.69599 53.5518 7.81078C53.5253 7.92557 53.4551 8.02554 53.3562 8.08954L49.9395 10.2461L53.0369 8.45788C53.1393 8.39957 53.2605 8.38342 53.3746 8.41287C53.4888 8.44232 53.587 8.51506 53.6484 8.61566C53.7099 8.71627 53.7297 8.83685 53.7038 8.95185C53.6779 9.06686 53.6082 9.16725 53.5095 9.23177L47.8682 12.8835L53.0396 9.90042C53.1419 9.84413 53.2621 9.82949 53.3749 9.85955C53.4878 9.88961 53.5847 9.96204 53.6455 10.0618C53.7063 10.1615 53.7263 10.2809 53.7013 10.395C53.6763 10.5091 53.6083 10.6091 53.5114 10.6743L50.6599 12.5042L53.0378 11.1316C53.1404 11.0714 53.2626 11.054 53.378 11.0831C53.4934 11.1121 53.5927 11.1854 53.6546 11.287C53.7165 11.3886 53.7359 11.5105 53.7088 11.6264C53.6817 11.7422 53.6101 11.8428 53.5095 11.9064L53.0949 12.1722C53.1991 12.1301 53.3152 12.1283 53.4207 12.1669C53.5261 12.2055 53.6135 12.2819 53.6659 12.3813C53.7183 12.4806 53.732 12.5959 53.7043 12.7048C53.6766 12.8137 53.6094 12.9084 53.5159 12.9706L50.8803 14.7279L53.0378 13.4823C53.1391 13.425 53.2586 13.409 53.3714 13.4373C53.4843 13.4657 53.5819 13.5364 53.6442 13.6347C53.7064 13.7331 53.7284 13.8516 53.7057 13.9657C53.683 14.0799 53.6174 14.1809 53.5222 14.248L50.7188 16.1859L53.0378 14.8477C53.1384 14.7899 53.2574 14.7729 53.3703 14.8002C53.4831 14.8275 53.5811 14.897 53.6443 14.9944C53.7074 15.0919 53.7308 15.2098 53.7096 15.3239C53.6884 15.438 53.6243 15.5397 53.5304 15.608L51.0935 17.3708L53.0369 16.2503C53.1377 16.1918 53.2571 16.1744 53.3704 16.2017C53.4837 16.2289 53.5822 16.2987 53.6454 16.3966C53.7087 16.4945 53.7318 16.6129 53.7101 16.7274C53.6883 16.8419 53.6233 16.9436 53.5286 17.0115L53.1367 17.2918C53.2272 17.2667 53.3232 17.2698 53.4119 17.3008C53.5006 17.3317 53.5777 17.3891 53.6329 17.4651C53.6985 17.5569 53.7275 17.6699 53.7142 17.782C53.701 17.894 53.6464 17.9971 53.5613 18.0712L52.0353 19.3948L53.0332 18.8169C53.1251 18.7647 53.2323 18.7461 53.3364 18.7645C53.4405 18.7829 53.5349 18.837 53.6033 18.9176C53.6717 18.9982 53.7098 19.1001 53.7111 19.2058C53.7124 19.3115 53.6767 19.4143 53.6103 19.4965L52.703 20.6033C52.7867 20.5972 52.8705 20.6152 52.9443 20.6553C53.0181 20.6953 53.0789 20.7557 53.1194 20.8292C53.1794 20.9332 53.1956 21.0567 53.1647 21.1727C53.1337 21.2887 53.0581 21.3877 52.9543 21.448L51.0962 22.5212C51.0044 22.574 50.8969 22.593 50.7925 22.5748C50.6881 22.5566 50.5934 22.5025 50.5247 22.4218C50.4561 22.3411 50.4178 22.2389 50.4167 22.1329C50.4155 22.0269 50.4515 21.9239 50.5183 21.8417L51.3349 20.8437L48.3917 22.5421C48.2941 22.599 48.1787 22.6174 48.0682 22.5937C47.9577 22.5699 47.8601 22.5058 47.7944 22.4139C47.7287 22.322 47.6996 22.2088 47.7129 22.0966C47.7263 21.9844 47.781 21.8812 47.8664 21.8072L49.3924 20.4835L45.8242 22.5466C45.7234 22.6051 45.6039 22.6225 45.4906 22.5953C45.3773 22.568 45.2789 22.4982 45.2156 22.4004C45.1524 22.3025 45.1292 22.184 45.151 22.0695C45.1728 21.955 45.2377 21.8533 45.3325 21.7855L45.6219 21.5777L43.9407 22.5475C43.8401 22.6053 43.7211 22.6223 43.6082 22.595C43.4954 22.5677 43.3974 22.4982 43.3342 22.4008C43.2711 22.3034 43.2477 22.1855 43.2689 22.0713C43.2901 21.9572 43.3542 21.8556 43.4481 21.7873L45.8786 20.0281L41.5093 22.5503C41.4079 22.6093 41.2875 22.6267 41.1736 22.5989C41.0596 22.5711 40.9608 22.5002 40.898 22.4011C40.8352 22.302 40.8132 22.1824 40.8367 22.0674C40.8602 21.9525 40.9273 21.8511 41.0239 21.7845L43.8291 19.8457L39.1377 22.5521C39.036 22.6076 38.9169 22.6221 38.8048 22.5926C38.6927 22.5631 38.5962 22.4918 38.5351 22.3934C38.4739 22.2949 38.4527 22.1768 38.4759 22.0633C38.499 21.9497 38.5648 21.8493 38.6596 21.7827L41.3006 20.0208L36.9131 22.5539C36.8108 22.6102 36.6907 22.6248 36.5778 22.5948C36.4649 22.5647 36.368 22.4923 36.3072 22.3925C36.2464 22.2928 36.2264 22.1735 36.2514 22.0594C36.2764 21.9453 36.3444 21.8452 36.4414 21.78L36.7643 21.5723L35.0605 22.5557C34.9584 22.6098 34.8395 22.6229 34.7281 22.5923C34.6167 22.5617 34.5212 22.4898 34.461 22.3912C34.4008 22.2926 34.3805 22.1747 34.4042 22.0616C34.428 21.9486 34.494 21.8488 34.5887 21.7827L37.4457 19.9401L32.9094 22.5575C32.807 22.6158 32.6858 22.632 32.5717 22.6025C32.4575 22.5731 32.3593 22.5004 32.2979 22.3997C32.2364 22.2991 32.2166 22.1786 32.2425 22.0636C32.2684 21.9486 32.3381 21.8482 32.4367 21.7836L38.0808 18.1292L30.4072 22.5593C30.3044 22.6169 30.1833 22.6323 30.0694 22.6021C29.9555 22.572 29.8578 22.4987 29.797 22.3978C29.7361 22.2969 29.717 22.1763 29.7435 22.0615C29.77 21.9467 29.8401 21.8467 29.9391 21.7827L33.3531 19.628L28.2724 22.5612C28.1701 22.6224 28.0478 22.641 27.9319 22.6127C27.816 22.5844 27.7159 22.5117 27.6533 22.4102C27.5907 22.3086 27.5706 22.1866 27.5973 22.0703C27.624 21.9541 27.6955 21.853 27.7961 21.7891L38.568 14.7225L24.9909 22.5648C24.8878 22.6269 24.7643 22.6454 24.6474 22.6164C24.5306 22.5874 24.4301 22.5132 24.3681 22.4101C24.306 22.307 24.2874 22.1835 24.3164 22.0666C24.3454 21.9498 24.4197 21.8493 24.5228 21.7873L29.8837 18.4186L22.701 22.5666C22.5986 22.6261 22.477 22.6433 22.3621 22.6143C22.2473 22.5854 22.1483 22.5127 22.0863 22.4118C22.0244 22.3108 22.0044 22.1897 22.0305 22.0742C22.0567 21.9587 22.1271 21.858 22.2265 21.7936L33.1861 14.649L19.4675 22.5693C19.3993 22.6104 19.3213 22.6324 19.2416 22.6328Z" fill="#50A8FF"/>
<path d="M15.5845 28.0157C15.494 28.0161 15.4055 27.9894 15.3303 27.939C15.2552 27.8887 15.1968 27.817 15.1626 27.7332C15.1285 27.6495 15.1202 27.5574 15.1388 27.4688C15.1574 27.3803 15.202 27.2993 15.267 27.2364L15.8721 26.6476L14.5502 27.4106C14.453 27.4667 14.3384 27.4848 14.2286 27.4613C14.1188 27.4379 14.0216 27.3746 13.9558 27.2836C13.89 27.1926 13.8603 27.0805 13.8724 26.9689C13.8845 26.8572 13.9376 26.7541 14.0213 26.6793L15.2216 25.6051L13.5532 26.5668C13.4502 26.6226 13.3297 26.6365 13.2168 26.6055C13.1039 26.5745 13.0074 26.501 12.9474 26.4005C12.8874 26.3 12.8686 26.1801 12.8949 26.066C12.9213 25.952 12.9907 25.8525 13.0887 25.7884L17.1305 23.308L12.723 25.8528C12.6206 25.9111 12.4994 25.9273 12.3853 25.8978C12.2711 25.8684 12.1729 25.7956 12.1115 25.695C12.05 25.5944 12.0302 25.4738 12.0561 25.3588C12.082 25.2438 12.1517 25.1434 12.2503 25.0789L27.2845 15.3713L11.285 24.6099C11.182 24.6693 11.0598 24.6858 10.9447 24.656C10.8296 24.6262 10.7309 24.5524 10.6696 24.4505C10.6084 24.3486 10.5896 24.2268 10.6173 24.1111C10.645 23.9955 10.717 23.8954 10.8178 23.8323L18.1103 19.2761L10.3125 23.7761C10.2103 23.8342 10.0895 23.8504 9.97561 23.8212C9.86173 23.792 9.76363 23.7197 9.70199 23.6196C9.64035 23.5195 9.61998 23.3994 9.64517 23.2845C9.67037 23.1697 9.73916 23.0691 9.83705 23.004L22.9741 14.4105L8.88353 22.5422C8.78048 22.6003 8.65882 22.6158 8.5445 22.5855C8.43018 22.5551 8.33223 22.4813 8.27153 22.3798C8.21083 22.2783 8.19219 22.1571 8.21957 22.042C8.24695 21.9269 8.31819 21.8271 8.41811 21.7638L8.86085 21.4916L8.14321 21.9062C8.04036 21.9629 7.91955 21.9774 7.80618 21.9469C7.69282 21.9163 7.59574 21.8429 7.53534 21.7422C7.47495 21.6415 7.45595 21.5213 7.48235 21.4069C7.50874 21.2925 7.57847 21.1928 7.67688 21.1287L9.51044 19.9883L7.35753 21.2312C7.25518 21.2875 7.13506 21.3022 7.02219 21.2721C6.90932 21.2421 6.81239 21.1696 6.75159 21.0699C6.69079 20.9702 6.67081 20.8508 6.6958 20.7367C6.72079 20.6226 6.78883 20.5225 6.88575 20.4574L13.4125 16.284L6.34775 20.3648C6.24569 20.4254 6.12393 20.4436 6.0086 20.4155C5.89327 20.3874 5.79356 20.3152 5.73087 20.2144C5.66818 20.1136 5.6475 19.9922 5.67327 19.8763C5.69905 19.7605 5.76921 19.6593 5.86872 19.5946L15.3749 13.2501L5.02497 19.2226C4.92248 19.2774 4.80287 19.2907 4.69082 19.2599C4.57877 19.2291 4.48282 19.1564 4.42277 19.0569C4.36273 18.9574 4.34315 18.8387 4.3681 18.7251C4.39304 18.6116 4.4606 18.512 4.55683 18.4469L4.75098 18.3244L4.2901 18.5902C4.18853 18.6473 4.06888 18.6632 3.95595 18.6345C3.84302 18.6058 3.74547 18.5347 3.68352 18.436C3.62158 18.3373 3.59999 18.2186 3.62322 18.1044C3.64646 17.9902 3.71275 17.8893 3.80834 17.8227L11.8013 12.3792L2.98637 17.4689C2.88351 17.5313 2.76005 17.5503 2.64316 17.5217C2.52627 17.4932 2.42553 17.4193 2.36309 17.3164C2.30065 17.2136 2.28163 17.0901 2.31021 16.9732C2.33879 16.8563 2.41264 16.7556 2.51551 16.6932L2.93919 16.421L2.2397 16.8265C2.13829 16.8855 2.01796 16.903 1.90398 16.8751C1.78999 16.8473 1.69122 16.7764 1.62841 16.6773C1.56559 16.5782 1.54361 16.4586 1.56709 16.3437C1.59057 16.2287 1.65768 16.1273 1.75432 16.0608L9.55671 10.6508L1.15009 15.5028C1.04795 15.5665 0.924704 15.5869 0.807475 15.5597C0.690247 15.5325 0.588634 15.4598 0.52499 15.3577C0.461346 15.2555 0.440885 15.1323 0.468108 15.0151C0.495331 14.8978 0.568008 14.7962 0.670151 14.7326L6.48928 10.8668L0.942327 14.0694C0.840444 14.1284 0.719591 14.1455 0.605317 14.1171C0.491044 14.0887 0.392307 14.0169 0.32998 13.917C0.267653 13.8171 0.246621 13.6969 0.271331 13.5817C0.29604 13.4666 0.364555 13.3656 0.462389 13.3L7.18243 8.77918L3.48264 10.9149C3.38064 10.9738 3.25969 10.9908 3.14539 10.9622C3.0311 10.9336 2.93242 10.8616 2.87024 10.7615C2.80791 10.6612 2.78716 10.5405 2.81241 10.4252C2.83765 10.3098 2.9069 10.2088 3.00542 10.1437L7.50722 7.15519C7.43168 7.12705 7.365 7.07929 7.31405 7.01682C7.2631 6.95435 7.22971 6.87944 7.21733 6.79978C7.20495 6.72012 7.21401 6.63861 7.2436 6.56362C7.27318 6.48863 7.32222 6.42288 7.38565 6.37314L13.0596 1.93666C13.0099 1.8336 13.001 1.71556 13.0346 1.6062C13.0683 1.49684 13.142 1.40424 13.2411 1.34695L15.4666 0.061367C15.5659 0.00526546 15.6826 -0.0113768 15.7937 0.0147556C15.9047 0.0408881 16.0018 0.107878 16.0656 0.202381C16.1294 0.296885 16.1554 0.411969 16.1382 0.524712C16.121 0.637455 16.0619 0.739584 15.9728 0.810759L13.0424 3.10248L17.4108 0.580316C17.5131 0.516913 17.6363 0.496731 17.7535 0.524209C17.8706 0.551687 17.9721 0.624575 18.0355 0.726838C18.0989 0.829101 18.119 0.952363 18.0916 1.06951C18.0641 1.18665 17.9912 1.28808 17.8889 1.35148L15.59 2.87839L18.1647 1.3914C18.2666 1.33235 18.3875 1.31524 18.5018 1.34367C18.616 1.37211 18.7148 1.44387 18.7771 1.54378C18.8394 1.64369 18.8604 1.76393 18.8357 1.87906C18.811 1.9942 18.7425 2.09521 18.6447 2.16075L11.9201 6.68342L18.5603 2.8548C18.6623 2.79681 18.7827 2.78056 18.8964 2.80947C19.0101 2.83839 19.1081 2.91021 19.17 3.00987C19.2319 3.10953 19.2527 3.22927 19.2282 3.34398C19.2037 3.45868 19.1356 3.55943 19.0384 3.62506L13.2175 7.48815L18.5757 4.39441C18.6771 4.3354 18.7975 4.31798 18.9115 4.3458C19.0254 4.37362 19.1242 4.44453 19.187 4.54362C19.2498 4.64272 19.2718 4.7623 19.2483 4.87726C19.2249 4.99222 19.1578 5.09361 19.0611 5.16014L11.2587 10.571L20.0745 5.48584C20.177 5.42854 20.2978 5.41323 20.4114 5.44314C20.525 5.47305 20.6225 5.54585 20.6835 5.64622C20.7445 5.74659 20.7642 5.86671 20.7384 5.9813C20.7127 6.09589 20.6435 6.19603 20.5454 6.26064L20.1262 6.52737L21.9326 5.48584C22.0339 5.43079 22.1524 5.4164 22.264 5.44561C22.3756 5.47482 22.4718 5.54543 22.5332 5.64309C22.5946 5.74074 22.6164 5.8581 22.5943 5.9713C22.5723 6.0845 22.5079 6.18504 22.4143 6.25247L14.4205 11.696L25.1778 5.48584C25.2803 5.43106 25.3999 5.41771 25.512 5.44854C25.624 5.47937 25.72 5.55203 25.78 5.65152C25.8401 5.75102 25.8596 5.86977 25.8347 5.98328C25.8098 6.09679 25.7422 6.19639 25.646 6.26154L25.4382 6.3931L27.0087 5.48584C27.1104 5.43031 27.2295 5.41581 27.3416 5.44532C27.4536 5.47484 27.5502 5.54612 27.6113 5.64455C27.6725 5.74298 27.6937 5.86109 27.6705 5.97464C27.6474 6.0882 27.5816 6.18858 27.4868 6.25519L17.9842 12.5969L30.3065 5.48584C30.4089 5.42955 30.529 5.41491 30.6419 5.44497C30.7547 5.47503 30.8517 5.54747 30.9125 5.6472C30.9733 5.74693 30.9932 5.86628 30.9683 5.98038C30.9433 6.09448 30.8752 6.19454 30.7783 6.25973L24.2588 10.4286L32.8214 5.48584C32.9243 5.4292 33.0451 5.41464 33.1585 5.44523C33.2718 5.47582 33.3689 5.54917 33.4293 5.64987C33.4897 5.75056 33.5087 5.87075 33.4823 5.98517C33.4559 6.09958 33.3862 6.1993 33.2878 6.26336L31.4397 7.41376L34.7829 5.48584C34.8858 5.43003 35.0064 5.41618 35.1193 5.44718C35.2322 5.47818 35.3287 5.55162 35.3887 5.65216C35.4487 5.7527 35.4675 5.87254 35.4412 5.98662C35.4148 6.1007 35.3454 6.20019 35.2474 6.26427L34.8247 6.52556L36.6228 5.48584C36.7247 5.4317 36.8434 5.4184 36.9547 5.44865C37.066 5.47891 37.1616 5.55043 37.2221 5.64869C37.2825 5.74694 37.3033 5.86453 37.2801 5.97754C37.2569 6.09055 37.1916 6.19048 37.0973 6.25701L23.9585 14.8505L40.1847 5.48584C40.2873 5.43175 40.4067 5.41898 40.5184 5.45017C40.6301 5.48137 40.7256 5.55415 40.7852 5.65356C40.8449 5.75297 40.8643 5.87147 40.8393 5.98472C40.8144 6.09796 40.747 6.19734 40.6511 6.26245L33.3522 10.8205L42.5989 5.48584C42.7011 5.43038 42.8207 5.41627 42.933 5.44642C43.0453 5.47657 43.1417 5.54869 43.2023 5.64787C43.263 5.74706 43.2832 5.86575 43.2589 5.97944C43.2346 6.09313 43.1675 6.19314 43.0716 6.25882L28.0411 15.9664L46.1944 5.48584C46.2972 5.43166 46.4169 5.419 46.5287 5.45048C46.6406 5.48196 46.7361 5.55518 46.7956 5.65503C46.8551 5.75488 46.874 5.87375 46.8484 5.98711C46.8227 6.10047 46.7546 6.19968 46.658 6.26427L19.2362 23.0866C19.2223 23.1943 19.1701 23.2935 19.0892 23.366L17.8889 24.4384L18.5594 24.0528C18.6551 23.9968 18.7681 23.9779 18.8769 23.9995C18.9856 24.0212 19.0827 24.0819 19.1497 24.1703C19.2168 24.2587 19.2491 24.3685 19.2406 24.4791C19.2322 24.5897 19.1835 24.6933 19.1038 24.7704L18.4614 25.3955C18.5678 25.3644 18.6818 25.3733 18.7821 25.4205C18.8824 25.4677 18.9619 25.5499 19.0057 25.6518C19.0494 25.7536 19.0544 25.8679 19.0196 25.9731C18.9849 26.0783 18.9128 26.1672 18.8171 26.223L15.8113 27.9576C15.7423 27.9969 15.6639 28.017 15.5845 28.0157Z" fill="#50A8FF"/>
<path d="M48.2937 22.5812C48.9623 22.5812 49.6337 22.5957 50.3023 22.5812C50.762 22.602 51.2213 22.5318 51.6537 22.3745C52.0862 22.2173 52.4833 21.9762 52.8223 21.665C53.1613 21.3538 53.4355 20.9788 53.6291 20.5613C53.8227 20.1439 53.9319 19.6923 53.9504 19.2325C54.062 15.6615 53.9504 12.0706 53.9504 8.49694C53.9504 8.47608 53.9377 8.46428 53.935 8.44614C53.9323 8.42799 53.9495 8.41257 53.9477 8.39352C53.9057 7.58724 53.5521 6.82882 52.9615 6.27834C52.3709 5.72786 51.5895 5.42838 50.7823 5.44312C50.3522 5.42679 49.9186 5.44312 49.4885 5.44312H19.4765C19.5074 3.48799 19.7351 1.20443 17.5858 0.283565C15.8403 -0.46492 14.3143 0.382456 13.0169 1.49747L3.08063 10.0438C2.11078 10.8785 0.69546 11.7785 0.21643 13.016C-0.515725 14.9257 0.739916 16.1642 2.03729 17.2801L12.1604 25.9943C13.4796 27.1301 14.6753 28.3477 16.606 27.9331C17.305 27.8085 17.9499 27.4751 18.4557 26.9767C18.9615 26.4784 19.3044 25.8385 19.4393 25.1414C19.5264 24.2896 19.5404 23.4318 19.4811 22.5775H48.2937V22.5812ZM19.061 21.7728C18.8306 21.7728 18.1538 21.8935 18.1538 22.25C18.1538 23.8531 18.6219 27.2898 16.1088 27.2154C14.9766 27.1819 13.8842 25.899 13.0858 25.2113L4.09585 17.4724C3.30835 16.7938 2.08175 16.0208 1.60362 15.06C0.736287 13.3126 2.00463 12.1568 3.18315 11.1425L12.0107 3.54696C12.8971 2.68622 13.8365 1.88173 14.8232 1.1382C16.41 0.0948557 18.0703 1.73608 18.1519 3.32196C18.1964 4.18295 18.1519 5.05754 18.1519 5.92034C18.1519 6.14625 18.3515 6.25239 18.5647 6.25239H47.6032C49.6437 6.25239 52.4607 5.83234 52.6313 8.72376V18.3071C52.6313 19.7288 52.6648 21.605 50.7632 21.7728C50.0764 21.8327 49.357 21.7728 48.6684 21.7728H19.061Z" fill="#262626"/>
<path d="M13.5604 6.39304C13.3966 6.36405 13.2285 6.37129 13.0679 6.41423C12.9072 6.45718 12.7579 6.5348 12.6305 6.64163L6.47654 11.94L5.58743 12.7048C5.37332 12.8863 5.45679 13.1122 5.71354 13.1766C5.87721 13.2048 6.04507 13.1969 6.20538 13.1535C6.3657 13.1101 6.51459 13.0322 6.64166 12.9253L12.7974 7.62963L13.6865 6.86482C13.9015 6.68246 13.8171 6.45927 13.5604 6.39304Z" fill="#262626"/>
</svg>
