<svg width="179" height="30" viewBox="0 0 179 30" fill="none" xmlns="http://www.w3.org/2000/svg">
<path d="M14.8472 17.8C14.8072 18.48 14.8072 19.08 14.8072 19.6C14.8472 20.2 14.8472 20.88 14.8072 21.6C14.8072 22.32 14.7272 23.08 14.6072 23.8C14.4872 24.56 14.2872 25.24 14.0072 25.92C13.7272 26.56 13.3672 27.12 12.8472 27.56C12.3672 27.96 11.8872 28.24 11.4072 28.44C10.8872 28.64 10.3672 28.76 9.84719 28.84C9.28719 28.92 8.76719 28.96 8.16719 28.96C7.60719 28.96 10.5272 28.96 9.96719 28.96C8.48719 29 7.04719 29 5.56719 29.04C4.12719 29.04 2.72719 28.84 1.28719 28.48C0.887188 28.36 0.607188 28.16 0.447188 27.8C0.327188 27.48 0.327188 27.16 0.407188 26.84C0.487188 26.52 0.687188 26.24 0.967188 26.04C1.24719 25.8 1.60719 25.76 2.00719 25.88C2.72719 26.08 3.48719 26.2 4.24719 26.28C5.00719 26.36 5.76719 26.36 6.52719 26.36C7.28719 26.36 8.04719 26.36 8.84719 26.32C9.60719 26.28 10.3672 26.28 11.0872 26.28C11.4472 26.28 8.32719 26.28 8.72719 26.28C9.12719 26.28 9.48719 26.24 9.84719 26.16C10.2072 26.08 10.5272 25.92 10.8072 25.72C11.0872 25.52 11.2872 25.2 11.4472 24.8C11.7672 23.96 11.9672 23.12 12.0472 22.24C12.1672 21.4 12.2072 20.52 12.1672 19.6C12.1272 18.88 12.0872 18.16 12.0472 17.4C12.0072 16.68 11.9672 15.92 11.8872 15.24C11.8072 14.72 11.6872 14.32 11.4472 14.04C11.2472 13.76 10.9672 13.56 10.6472 13.4C10.2872 13.28 9.92719 13.2 9.48719 13.16C9.08719 13.12 8.64719 13.08 8.20719 13.08C7.52719 13.08 10.3672 13.12 9.64719 13.16C8.92719 13.2 8.16719 13.24 7.44719 13.24C6.72719 13.24 6.00719 13.2 5.28719 13.12C4.60719 13.04 3.92719 12.84 3.32719 12.56C2.48719 12.2 1.84719 11.56 1.40719 10.64C0.927188 9.76 0.687188 8.76 0.607188 7.72C0.527188 6.68 0.647188 5.68 0.967188 4.68C1.32719 3.68 1.84719 2.92 2.60719 2.4C3.16719 2 3.92719 1.68 4.88719 1.48C5.88719 1.32 6.92719 1.2 8.04719 1.12C9.20719 1.04 10.3272 1.04 11.5272 1.04C12.6872 1.08 10.2472 1.08 11.1672 1.12C11.6072 1.12 11.9272 1.24 12.1272 1.52C12.3672 1.84 12.4472 2.16 12.4472 2.48C12.4472 2.8 12.3672 3.12 12.1272 3.4C11.9272 3.68 11.6072 3.8 11.1672 3.8C10.0472 3.76 12.4072 3.8 11.2872 3.84C10.1272 3.88 9.00719 3.88 7.88719 3.88C7.24719 3.88 6.68719 3.92 6.16719 3.96C5.64719 4.04 5.16719 4.16 4.80719 4.36C4.40719 4.56 4.12719 4.84 3.88719 5.24C3.64719 5.64 3.48719 6.2 3.48719 6.88C3.44719 7.24 3.44719 7.56 3.40719 7.92C3.40719 8.32 3.44719 8.64 3.52719 8.96C3.56719 9.24 3.72719 9.52 3.92719 9.76C4.12719 10.04 4.48719 10.2 4.88719 10.24C5.60719 10.4 6.32719 10.48 7.04719 10.48C7.80719 10.48 8.52719 10.48 9.20719 10.44C9.84719 10.44 10.5272 10.4 11.2872 10.4C12.0072 10.36 9.20719 10.4 9.92719 10.48C10.6872 10.56 11.3672 10.76 12.0072 11C12.6472 11.28 13.2072 11.68 13.6472 12.24C14.0072 12.68 14.2472 13.24 14.4072 13.84C14.6072 14.48 14.7272 15.12 14.7672 15.8C14.8072 16.48 14.8472 17.12 14.8472 17.8ZM34.6038 1.6C34.8838 1.88 35.0438 2.2 35.0838 2.52C35.1638 2.84 35.1238 3.12 35.0038 3.4C34.8438 3.64 34.6438 3.84 34.3238 3.96C34.0438 4.12 33.6438 4.2 33.1638 4.2C33.0438 4.2 32.9238 4.2 32.8038 4.2C32.6838 4.16 32.5638 4.16 32.4438 4.16C32.3638 4.16 32.3238 4.16 32.2438 4.16C32.1638 4.16 32.1238 4.16 32.0838 4.16C31.5638 4.12 31.0438 4.12 30.5638 4.2C30.0438 4.28 29.5238 4.32 29.0438 4.32C29.1238 4.68 29.2038 5 29.2438 5.36C29.2838 5.72 29.3238 6.08 29.3638 6.4C29.5238 7.8 29.6038 9.2 29.5638 10.6C29.5638 12 29.5238 13.32 29.4838 14.6C29.4838 14.92 29.4838 15.4 29.5238 15.96C29.5638 16.48 29.6038 17.12 29.6438 17.8C29.6438 18.6 29.7238 19.44 29.8038 20.36C29.8838 21.28 29.9638 22.2 30.0038 23.08C30.0438 24 30.0438 24.84 30.0438 25.68C30.0038 26.52 29.8838 27.24 29.7238 27.88C29.6038 28.24 29.4838 28.48 29.3238 28.68C29.1638 28.88 28.8838 28.96 28.5638 28.96C28.2838 28.96 28.0438 28.96 27.7638 28.96C27.5238 28.96 27.3238 28.88 27.1638 28.68C27.1237 28.6 27.0838 28.4 27.0438 28C26.9638 27.6 26.9238 27.12 26.8838 26.52C26.8838 25.92 26.8438 25.28 26.8038 24.56C26.7638 23.84 26.7238 23.12 26.6838 22.4C26.6438 21.68 26.6438 21 26.6038 20.36C26.6038 19.72 26.6038 19.16 26.6038 18.72C26.6038 18.16 26.5638 17.64 26.5238 17.16C26.4438 16.68 26.4438 16.32 26.4438 16C26.5238 14.68 26.5638 13.4 26.5638 12.2C26.6038 11 26.6038 9.8 26.5238 8.64V8.52C26.4838 8.04 26.4438 7.56 26.4438 7.04C26.4038 6.56 26.3238 6.04 26.2438 5.56L26.2038 5.36C26.1638 5.2 26.1238 5.04 26.0838 4.88C26.0838 4.76 26.0438 4.6 25.9638 4.52C25.9238 4.44 25.8838 4.36 25.8438 4.32L25.8038 4.28C25.7638 4.28 25.7238 4.24 25.6838 4.24C25.6438 4.2 25.6038 4.16 25.5638 4.16C25.3638 4.12 25.0838 4.12 24.8038 4.08C24.5238 4.08 24.2438 4.08 23.9238 4.08C22.5638 4.08 21.4838 4.24 20.6838 4.52C20.2438 4.72 19.8438 4.68 19.5238 4.44C19.1638 4.2 18.9238 3.84 18.8438 3.4C18.8038 3.04 18.8438 2.68 18.9638 2.32C19.1238 1.96 19.4038 1.72 19.8438 1.56C20.3238 1.36 20.8838 1.24 21.5238 1.16C22.1237 1.08 22.8438 1.04 23.6838 1.04C24.0438 1.04 24.4438 0.999998 24.8438 0.999998C25.2038 0.959999 25.6038 0.999998 25.9638 1.04C26.2038 1.04 26.4438 1.04 26.6438 1.04C26.8838 1.04 27.0838 1.08 27.3238 1.08C28.0838 1.12 28.8438 1.08 29.5638 1.04C30.2838 0.999998 30.9638 0.999998 31.5238 1.04H31.8438C32.0438 1.04 32.2038 1.04 32.4038 1.08C32.5638 1.08 32.7638 1.08 32.9238 1.08H33.0038C33.1238 1.08 33.2038 1.08 33.2438 1.08C33.2838 1.04 33.3638 1.04 33.4038 1.04H33.4838C33.5638 1.04 33.6438 1.08 33.6838 1.12C34.0438 1.16 34.3638 1.32 34.6038 1.6ZM56.1163 15.76C56.1163 17.28 56.1163 18.76 56.1563 20.24C56.1963 21.12 56.1563 22.04 56.0763 23C55.9963 23.92 55.7963 24.84 55.4763 25.64C55.1563 26.48 54.6763 27.2 54.0363 27.76C53.3963 28.36 52.5563 28.72 51.4763 28.84C50.2763 29.04 49.0363 29 47.7963 28.84C46.5563 28.68 45.3963 28.28 44.3563 27.72C43.3163 27.16 42.4362 26.44 41.7163 25.48C40.9563 24.56 40.4763 23.4 40.2763 22.08C39.9963 20.56 39.8363 19.04 39.7563 17.52C39.7163 15.96 39.5963 14.44 39.5163 12.92C39.3963 11.2 39.3163 9.48 39.2363 7.8C39.1563 6.08 39.1563 4.36 39.1563 2.64C39.1563 2.2 39.2763 1.88 39.5563 1.64C39.8363 1.44 40.1563 1.32 40.5163 1.32C40.8363 1.32 41.1563 1.44 41.4363 1.64C41.7163 1.88 41.8763 2.2 41.8763 2.64C41.8763 5.4 41.9563 8.08 42.1163 10.76C42.2763 13.48 42.4362 16.16 42.6363 18.92C42.6763 19.56 42.7163 20.24 42.8363 20.92C42.9163 21.64 43.1163 22.28 43.3563 22.92C43.5963 23.52 43.9163 24.08 44.3563 24.56C44.7963 25.04 45.3563 25.4 46.1163 25.64C46.4763 25.72 46.9163 25.88 47.4763 26C47.9963 26.16 48.5563 26.24 49.1163 26.32C49.6763 26.36 50.2363 26.36 50.7563 26.32C51.2763 26.28 51.7163 26.12 52.0763 25.84C52.6763 25.44 53.0763 24.88 53.2763 24.12C53.4763 23.36 53.5563 22.56 53.5563 21.68C53.5563 20.8 53.5163 19.96 53.4363 19.12C53.3563 18.28 53.2763 17.56 53.2763 16.96C53.2363 15.72 53.2363 14.52 53.2363 13.28C53.2363 12.08 53.2763 10.84 53.2763 9.64C53.2763 8.4 53.2363 7.2 53.2363 5.96C53.1963 4.76 53.1163 3.52 52.9963 2.32C52.9563 1.88 53.0763 1.52 53.3563 1.32C53.6363 1.08 53.9563 0.999998 54.2763 0.999998C54.5963 0.999998 54.9563 1.12 55.2363 1.32C55.5563 1.56 55.7163 1.88 55.7563 2.32C55.9163 3.8 55.9963 5.32 56.0363 6.8C56.0763 8.28 56.1163 9.76 56.1163 11.28C56.1163 12.76 56.1163 14.28 56.1163 15.76ZM72.0509 18.44C72.0909 19.56 72.0909 20.72 72.1309 21.92C72.1309 22.36 72.1309 22.8 72.1709 23.24C72.2109 23.68 72.2109 24.12 72.2109 24.56C72.2109 25.04 72.1709 25.48 72.1309 25.92C72.0509 26.36 71.9709 26.76 71.8109 27.2C71.6509 27.6 71.3309 27.96 70.8509 28.2C70.4109 28.48 69.8509 28.64 69.1709 28.8C68.5309 28.92 67.8509 29 67.1309 29C66.4109 29.04 65.6909 29.04 65.0509 29C64.3709 28.96 63.7709 28.92 63.2509 28.84C62.6909 28.8 62.3309 28.76 62.0909 28.72C62.0109 28.72 61.9309 28.68 61.7709 28.6C61.6509 28.56 61.4909 28.48 61.3709 28.36C61.2109 28.24 61.0909 28.12 61.0109 27.92C60.8909 27.76 60.8509 27.56 60.8509 27.32C60.8509 25.24 60.8109 23.2 60.7309 21.12C60.6509 19.04 60.5309 17 60.4509 14.92C60.3709 12.84 60.2909 10.76 60.2509 8.68C60.2109 6.64 60.1709 4.56 60.2109 2.48C60.2109 2.36 60.2109 2.28 60.2109 2.24C60.2509 2.16 60.2509 2.08 60.2909 2.04C60.3309 1.76 60.4909 1.48 60.6909 1.28C60.8909 1.08 61.2109 0.999998 61.5709 1.04C62.2909 1.08 63.0109 1.2 63.6909 1.28C64.4109 1.4 65.0909 1.56 65.7709 1.8C66.4109 2.04 67.0509 2.32 67.6509 2.68C68.2509 3.04 68.8109 3.52 69.3309 4.08C69.8909 4.72 70.3309 5.52 70.6909 6.4C71.0109 7.32 71.2509 8.28 71.4109 9.28C71.5709 10.24 71.6509 11.24 71.7309 12.24C71.7709 13.24 71.8109 14.12 71.8509 14.96C71.9709 16.12 72.0109 17.28 72.0509 18.44ZM64.8509 26.44C65.2509 26.48 65.7309 26.52 66.2109 26.6C66.5709 26.64 66.9309 26.68 67.3309 26.72C67.7309 26.72 68.0909 26.68 68.3709 26.6C68.6909 26.52 68.9709 26.32 69.1709 26.08C69.3709 25.84 69.4509 25.44 69.4109 24.96C69.4109 23.44 69.3709 21.92 69.3309 20.4C69.3309 18.88 69.2509 17.36 69.1709 15.84C69.1309 14.88 69.0509 13.92 68.9709 12.96C68.8509 12.04 68.7309 11.08 68.5709 10.12C68.4509 9.48 68.3709 8.8 68.2509 8.08C68.1309 7.36 67.8509 6.76 67.4909 6.2C66.9309 5.44 66.2909 4.92 65.4909 4.6C64.6509 4.28 63.8109 4.08 62.9309 3.96C62.9709 7.64 63.0509 11.32 63.2509 15C63.4109 18.68 63.5309 22.36 63.5709 26C64.0109 26.28 64.4109 26.4 64.8509 26.44ZM78.5866 1.36C78.8666 1.6 79.0266 1.92 79.0266 2.36C79.0266 4.48 79.0266 6.6 79.1066 8.68C79.1466 10.8 79.1866 12.92 79.1866 15.04C79.2266 17.16 79.2266 19.28 79.2266 21.36C79.1866 23.48 79.1466 25.56 79.0266 27.68C78.9866 28.12 78.8266 28.44 78.5066 28.68C78.2266 28.92 77.9066 29.04 77.5466 29.04C77.1866 29.04 76.8666 28.92 76.5866 28.68C76.3066 28.44 76.1866 28.12 76.2266 27.68C76.3066 25.56 76.3866 23.48 76.4266 21.36C76.4266 19.28 76.4266 17.16 76.3866 15.04C76.3866 12.92 76.3466 10.8 76.2666 8.68C76.2266 6.6 76.2266 4.48 76.2266 2.36C76.2266 1.92 76.3466 1.6 76.6666 1.36C76.9466 1.16 77.2666 1.04 77.6266 1.04C77.9866 1.04 78.3066 1.16 78.5866 1.36ZM95.5778 25.52C95.8578 25.72 96.0978 26 96.1778 26.32C96.3778 26.88 96.2578 27.36 95.7778 27.8C95.4178 28.08 95.0578 28.28 94.5778 28.44C94.1378 28.6 93.6578 28.72 93.1778 28.8C92.6578 28.88 92.1378 28.92 91.6178 28.92C91.0978 28.92 90.6178 28.96 90.1378 28.96C90.0178 28.96 89.8578 28.96 89.6978 28.96C89.5778 28.96 89.4578 28.96 89.2978 28.96C89.2178 28.96 89.1378 28.96 89.0178 28.96C88.8978 28.96 88.8178 28.96 88.6978 29C88.4978 29 88.2978 29 88.0578 29C87.8578 29.04 87.6578 29.04 87.4578 29.04C87.0978 29.04 86.7378 29 86.3378 28.96C85.8978 28.92 85.5378 28.84 85.1778 28.72C84.8178 28.6 84.4578 28.4 84.1778 28.12C83.8978 27.88 83.6978 27.52 83.5778 27.08C83.3378 26.16 83.2178 25.24 83.2578 24.24C83.2978 23.24 83.3378 22.28 83.4578 21.32C83.4978 20.84 83.4978 20.4 83.5378 19.96C83.5778 19.52 83.6178 19.08 83.6178 18.64C83.6178 18.12 83.6578 17.64 83.6578 17.12C83.6578 16.6 83.6578 16.12 83.6578 15.64C83.6978 13.68 83.7378 11.72 83.7378 9.76C83.7378 7.8 83.6578 5.84 83.4978 3.84C83.4978 3.8 83.4978 3.68 83.4578 3.52C83.4178 3.36 83.4178 3.2 83.4178 3C83.3778 2.76 83.4178 2.56 83.4178 2.32C83.4578 2.08 83.5378 1.88 83.6578 1.68C83.7778 1.44 84.0178 1.28 84.3778 1.2C84.7378 1.12 85.1378 1.08 85.5778 1.08C85.9778 1.08 86.3778 1.08 86.7778 1.08C87.2178 1.12 87.4978 1.16 87.7378 1.16C87.9778 1.16 88.3778 1.12 88.9378 1.12C89.4978 1.08 90.0978 1.08 90.7378 1.08C91.4178 1.08 92.0178 1.04 92.6578 1.04C93.2578 1.04 93.6978 1.04 93.9778 1.04C94.4978 1.08 94.8578 1.28 95.0978 1.6C95.3378 1.96 95.4578 2.32 95.4178 2.72C95.4178 3.08 95.2978 3.4 95.0578 3.72C94.8178 4 94.4578 4.16 93.9378 4.12C93.3378 4.08 92.7378 4.08 92.1378 4.12C91.4978 4.16 90.8978 4.2 90.2978 4.24C89.8178 4.28 89.3378 4.32 88.8978 4.36C88.4178 4.4 87.9378 4.4 87.4578 4.4C87.2978 4.4 87.1778 4.4 87.0178 4.4C86.8978 4.4 86.7378 4.4 86.5778 4.36C86.6978 6.04 86.7778 7.64 86.7778 9.2C86.7778 10.76 86.7778 12.16 86.7378 13.4C87.1778 13.32 87.6978 13.28 88.2178 13.24C88.6978 13.24 89.2578 13.2 89.8578 13.2C90.2178 13.2 90.5778 13.2 90.9378 13.2C91.2578 13.2 91.6178 13.24 91.9778 13.24C92.2978 13.28 92.5778 13.28 92.8578 13.28C93.1378 13.28 93.4178 13.28 93.7378 13.32C94.2178 13.32 94.5778 13.48 94.8178 13.8C95.0978 14.12 95.2178 14.48 95.2178 14.84C95.2178 15.2 95.0978 15.56 94.8578 15.88C94.6178 16.2 94.2178 16.36 93.7378 16.36C93.4178 16.36 93.0978 16.36 92.8178 16.36C92.4978 16.32 92.1778 16.32 91.8578 16.32C91.5378 16.28 91.1778 16.28 90.8578 16.28C90.4978 16.24 90.1378 16.24 89.7778 16.24C89.1778 16.24 88.6178 16.28 88.0978 16.32C87.5778 16.36 87.0978 16.44 86.6578 16.56H86.6178L86.5778 18.2C86.5378 19.16 86.4978 20.16 86.4578 21.2C86.4178 22.2 86.4178 23.2 86.3778 24.24V24.6C86.3378 24.8 86.3378 25 86.3378 25.2C86.3378 25.4 86.3778 25.6 86.4178 25.84C86.8178 25.88 87.2978 25.92 87.8978 25.92H88.8578C89.5778 25.88 90.2178 25.84 90.7378 25.8C91.2978 25.8 91.8178 25.76 92.2978 25.68C92.6578 25.68 93.0178 25.6 93.4178 25.52C93.4578 25.52 93.4978 25.52 93.5378 25.48C93.6178 25.48 93.6578 25.44 93.7378 25.44C93.8178 25.36 93.8978 25.36 93.9778 25.36H94.0578C94.2578 25.24 94.4578 25.2 94.6578 25.2C94.9778 25.2 95.2978 25.32 95.5778 25.52ZM114.769 17.8C114.729 18.48 114.729 19.08 114.729 19.6C114.769 20.2 114.769 20.88 114.729 21.6C114.729 22.32 114.649 23.08 114.529 23.8C114.409 24.56 114.209 25.24 113.929 25.92C113.649 26.56 113.289 27.12 112.769 27.56C112.289 27.96 111.809 28.24 111.329 28.44C110.809 28.64 110.289 28.76 109.769 28.84C109.209 28.92 108.689 28.96 108.089 28.96C107.529 28.96 110.449 28.96 109.889 28.96C108.409 29 106.969 29 105.489 29.04C104.049 29.04 102.649 28.84 101.209 28.48C100.809 28.36 100.529 28.16 100.369 27.8C100.249 27.48 100.249 27.16 100.329 26.84C100.409 26.52 100.609 26.24 100.889 26.04C101.169 25.8 101.529 25.76 101.929 25.88C102.649 26.08 103.409 26.2 104.169 26.28C104.929 26.36 105.689 26.36 106.449 26.36C107.209 26.36 107.969 26.36 108.769 26.32C109.529 26.28 110.289 26.28 111.009 26.28C111.369 26.28 108.249 26.28 108.649 26.28C109.049 26.28 109.409 26.24 109.769 26.16C110.129 26.08 110.449 25.92 110.729 25.72C111.009 25.52 111.209 25.2 111.369 24.8C111.689 23.96 111.889 23.12 111.969 22.24C112.089 21.4 112.129 20.52 112.089 19.6C112.049 18.88 112.009 18.16 111.969 17.4C111.929 16.68 111.889 15.92 111.809 15.24C111.729 14.72 111.609 14.32 111.369 14.04C111.169 13.76 110.889 13.56 110.569 13.4C110.209 13.28 109.849 13.2 109.409 13.16C109.009 13.12 108.569 13.08 108.129 13.08C107.449 13.08 110.289 13.12 109.569 13.16C108.849 13.2 108.089 13.24 107.369 13.24C106.649 13.24 105.929 13.2 105.209 13.12C104.529 13.04 103.849 12.84 103.249 12.56C102.409 12.2 101.769 11.56 101.329 10.64C100.849 9.76 100.609 8.76 100.529 7.72C100.449 6.68 100.569 5.68 100.889 4.68C101.249 3.68 101.769 2.92 102.529 2.4C103.089 2 103.849 1.68 104.809 1.48C105.809 1.32 106.849 1.2 107.969 1.12C109.129 1.04 110.249 1.04 111.449 1.04C112.609 1.08 110.169 1.08 111.089 1.12C111.529 1.12 111.849 1.24 112.049 1.52C112.289 1.84 112.369 2.16 112.369 2.48C112.369 2.8 112.289 3.12 112.049 3.4C111.849 3.68 111.529 3.8 111.089 3.8C109.969 3.76 112.329 3.8 111.209 3.84C110.049 3.88 108.929 3.88 107.809 3.88C107.169 3.88 106.609 3.92 106.089 3.96C105.569 4.04 105.089 4.16 104.729 4.36C104.329 4.56 104.049 4.84 103.809 5.24C103.569 5.64 103.409 6.2 103.409 6.88C103.369 7.24 103.369 7.56 103.329 7.92C103.329 8.32 103.369 8.64 103.449 8.96C103.489 9.24 103.649 9.52 103.849 9.76C104.049 10.04 104.409 10.2 104.809 10.24C105.529 10.4 106.249 10.48 106.969 10.48C107.729 10.48 108.449 10.48 109.129 10.44C109.769 10.44 110.449 10.4 111.209 10.4C111.929 10.36 109.129 10.4 109.849 10.48C110.609 10.56 111.289 10.76 111.929 11C112.569 11.28 113.129 11.68 113.569 12.24C113.929 12.68 114.169 13.24 114.329 13.84C114.529 14.48 114.649 15.12 114.689 15.8C114.729 16.48 114.769 17.12 114.769 17.8ZM140.343 25.52C140.623 25.72 140.863 26 140.943 26.32C141.143 26.88 141.023 27.36 140.543 27.8C140.183 28.08 139.823 28.28 139.343 28.44C138.903 28.6 138.423 28.72 137.943 28.8C137.423 28.88 136.903 28.92 136.383 28.92C135.863 28.92 135.383 28.96 134.903 28.96C134.783 28.96 134.623 28.96 134.463 28.96C134.343 28.96 134.223 28.96 134.063 28.96C133.983 28.96 133.903 28.96 133.783 28.96C133.663 28.96 133.583 28.96 133.463 29C133.263 29 133.063 29 132.823 29C132.623 29.04 132.423 29.04 132.223 29.04C131.863 29.04 131.503 29 131.103 28.96C130.663 28.92 130.303 28.84 129.943 28.72C129.583 28.6 129.223 28.4 128.943 28.12C128.663 27.88 128.463 27.52 128.343 27.08C128.103 26.16 127.983 25.24 128.023 24.24C128.063 23.24 128.103 22.28 128.223 21.32C128.263 20.84 128.263 20.4 128.303 19.96C128.343 19.52 128.383 19.08 128.383 18.64C128.383 18.12 128.423 17.64 128.423 17.12C128.423 16.6 128.423 16.12 128.423 15.64C128.463 13.68 128.503 11.72 128.503 9.76C128.503 7.8 128.423 5.84 128.263 3.84C128.263 3.8 128.263 3.68 128.223 3.52C128.183 3.36 128.183 3.2 128.183 3C128.143 2.76 128.183 2.56 128.183 2.32C128.223 2.08 128.303 1.88 128.423 1.68C128.543 1.44 128.783 1.28 129.143 1.2C129.503 1.12 129.903 1.08 130.343 1.08C130.743 1.08 131.143 1.08 131.543 1.08C131.983 1.12 132.263 1.16 132.503 1.16C132.743 1.16 133.143 1.12 133.703 1.12C134.263 1.08 134.863 1.08 135.503 1.08C136.183 1.08 136.783 1.04 137.423 1.04C138.023 1.04 138.463 1.04 138.743 1.04C139.263 1.08 139.623 1.28 139.863 1.6C140.103 1.96 140.223 2.32 140.183 2.72C140.183 3.08 140.063 3.4 139.823 3.72C139.583 4 139.223 4.16 138.703 4.12C138.103 4.08 137.503 4.08 136.903 4.12C136.263 4.16 135.663 4.2 135.063 4.24C134.583 4.28 134.103 4.32 133.663 4.36C133.183 4.4 132.703 4.4 132.223 4.4C132.063 4.4 131.943 4.4 131.783 4.4C131.663 4.4 131.503 4.4 131.343 4.36C131.463 6.04 131.543 7.64 131.543 9.2C131.543 10.76 131.543 12.16 131.503 13.4C131.943 13.32 132.463 13.28 132.983 13.24C133.463 13.24 134.023 13.2 134.623 13.2C134.983 13.2 135.343 13.2 135.703 13.2C136.023 13.2 136.383 13.24 136.743 13.24C137.063 13.28 137.343 13.28 137.623 13.28C137.903 13.28 138.183 13.28 138.503 13.32C138.983 13.32 139.343 13.48 139.583 13.8C139.863 14.12 139.983 14.48 139.983 14.84C139.983 15.2 139.863 15.56 139.623 15.88C139.383 16.2 138.983 16.36 138.503 16.36C138.183 16.36 137.863 16.36 137.583 16.36C137.263 16.32 136.943 16.32 136.623 16.32C136.303 16.28 135.943 16.28 135.623 16.28C135.263 16.24 134.903 16.24 134.543 16.24C133.943 16.24 133.383 16.28 132.863 16.32C132.343 16.36 131.863 16.44 131.423 16.56H131.383L131.343 18.2C131.303 19.16 131.263 20.16 131.223 21.2C131.183 22.2 131.183 23.2 131.143 24.24V24.6C131.103 24.8 131.103 25 131.103 25.2C131.103 25.4 131.143 25.6 131.183 25.84C131.583 25.88 132.063 25.92 132.663 25.92H133.623C134.343 25.88 134.983 25.84 135.503 25.8C136.063 25.8 136.583 25.76 137.063 25.68C137.423 25.68 137.783 25.6 138.183 25.52C138.223 25.52 138.263 25.52 138.303 25.48C138.383 25.48 138.423 25.44 138.503 25.44C138.583 25.36 138.663 25.36 138.743 25.36H138.823C139.023 25.24 139.223 25.2 139.423 25.2C139.743 25.2 140.063 25.32 140.343 25.52ZM159.455 22.16C159.495 22.84 159.495 23.56 159.495 24.24C159.455 24.92 159.375 25.6 159.255 26.28C159.175 26.76 159.055 27.24 158.895 27.68C158.895 27.84 158.855 28 158.775 28.12C158.735 28.16 158.735 28.24 158.735 28.28C158.575 28.64 158.295 28.88 157.815 28.92C157.775 28.92 157.695 28.92 157.615 28.92C157.415 28.96 157.215 28.96 156.975 28.88C156.615 28.8 156.375 28.52 156.255 28.08C155.535 26.12 154.295 22.2 153.495 20.28C152.695 18.32 151.855 16.36 151.015 14.44C150.175 12.48 149.295 10.56 148.455 8.64C148.135 7.92 147.815 7.16 147.495 6.44L147.535 7.92C147.535 8.44 147.535 8.92 147.535 9.44C147.535 9.96 147.535 10.44 147.535 10.88V10.92C147.535 11.52 147.535 12.12 147.535 12.76C147.535 13.4 147.535 14 147.575 14.64C147.575 15.28 147.615 15.88 147.695 16.48C147.735 17.12 147.775 17.72 147.815 18.32C147.855 18.76 147.895 19.24 147.935 19.72C147.975 20.16 148.015 20.64 148.015 21.12C148.095 21.96 148.095 22.8 148.095 23.64C148.055 24.44 148.055 25.28 148.015 26.12V26.28C148.015 26.56 148.015 26.8 147.975 27.04C147.975 27.32 147.975 27.56 147.975 27.84C147.975 28.04 147.895 28.2 147.815 28.32C147.735 28.44 147.655 28.56 147.575 28.6C147.335 28.84 147.055 28.96 146.735 29C146.335 29.04 146.055 29 145.815 28.8C145.615 28.64 145.535 28.44 145.495 28.16C145.535 27.88 145.535 27.64 145.535 27.36C145.535 27.12 145.535 26.88 145.575 26.64C145.575 25.76 145.575 24.92 145.615 24.04C145.615 23.2 145.615 22.32 145.575 21.44C145.535 20.84 145.495 20.28 145.455 19.68C145.415 19.12 145.375 18.56 145.335 18C145.295 17.4 145.255 16.8 145.215 16.2C145.135 15.6 145.135 15 145.095 14.4C145.055 13.76 145.055 13.16 145.055 12.56C145.055 11.92 145.055 11.32 145.055 10.72C145.055 10.24 145.055 9.72 145.055 9.2C145.055 8.68 145.055 8.16 145.055 7.64C145.015 6.68 145.015 5.72 145.095 4.76C145.135 3.76 145.335 2.8 145.695 1.88C145.775 1.64 145.935 1.44 146.135 1.24C146.375 1.08 146.615 0.959999 146.855 0.919999C146.975 0.919999 147.055 0.919999 147.175 0.919999C147.335 0.919999 147.535 0.919999 147.735 0.999998C148.095 1.08 148.335 1.32 148.535 1.76C149.335 3.68 150.175 5.6 151.055 7.56C151.895 9.48 152.775 11.4 153.615 13.36C154.455 15.28 155.255 17.24 156.055 19.16C156.295 19.76 156.615 20.56 156.895 21.4C156.855 20.72 156.815 20.04 156.775 19.36C156.735 18.44 156.655 17.48 156.615 16.52C156.575 15.88 156.575 15.24 156.535 14.6C156.495 13.96 156.455 13.28 156.375 12.6C156.375 10.76 156.375 9 156.335 7.28C156.175 5.52 156.015 3.8 156.135 2.12C156.215 1.6 156.535 1.32 157.095 1.24C157.575 1.2 157.935 1.28 158.255 1.56C158.495 1.76 158.575 2 158.535 2.36C158.415 4 158.575 5.68 158.655 7.4C158.735 9.12 158.775 10.88 158.855 12.64C158.975 13.52 159.015 14.4 159.015 15.24C159.055 16.08 159.095 16.88 159.135 17.72C159.175 18.48 159.215 19.28 159.295 20.12C159.375 20.8 159.415 21.48 159.455 22.16ZM177.732 17.44C178.212 17.84 178.492 18.48 178.532 19.4C178.572 20.28 178.572 21.12 178.612 21.96C178.652 22.76 178.572 23.56 178.452 24.32C178.292 25.08 178.052 25.8 177.652 26.48C177.212 27.16 176.612 27.76 175.812 28.32C175.692 28.4 175.572 28.48 175.532 28.48C175.412 28.56 175.332 28.6 175.212 28.64C175.012 28.72 174.852 28.76 174.652 28.76C174.492 28.8 174.332 28.8 174.212 28.8L173.932 28.76C173.892 28.76 173.852 28.8 173.812 28.8C173.692 28.8 173.532 28.8 173.372 28.84C173.212 28.84 173.092 28.88 172.932 28.88C172.812 28.92 172.692 28.92 172.612 28.92C172.492 28.92 172.412 28.96 172.292 28.96C172.132 29 171.932 29 171.772 29C171.572 29.04 171.412 29.04 171.212 29.04C170.932 29.04 170.652 29 170.372 29C170.092 29 169.772 28.96 169.492 28.92C168.772 28.84 168.092 28.64 167.452 28.36C166.852 28.08 166.212 27.6 165.612 26.92C165.292 26.52 165.012 26.12 164.812 25.68C164.612 25.24 164.452 24.8 164.332 24.36C164.212 23.92 164.132 23.48 164.092 23C164.052 22.56 164.012 22.12 164.012 21.68C163.972 20.88 163.932 20.04 163.852 19.16C163.812 18.28 163.772 17.32 163.652 16.24C163.572 15.28 163.532 14.32 163.492 13.36C163.452 12.36 163.452 11.4 163.532 10.4C163.612 9.44 163.772 8.48 164.012 7.52C164.212 6.6 164.572 5.64 165.052 4.76C165.212 4.44 165.412 4.08 165.652 3.72C165.852 3.4 166.132 3.08 166.412 2.76C166.732 2.48 167.052 2.2 167.412 1.96C167.812 1.72 168.252 1.52 168.732 1.4C169.092 1.28 169.372 1.24 169.652 1.16C169.932 1.12 170.252 1.08 170.532 1.04C170.852 1.04 171.172 1.04 171.532 1.04C171.892 1.08 172.292 1.12 172.772 1.16C173.252 1.2 173.572 1.36 173.812 1.68C174.012 2 174.132 2.36 174.092 2.68C174.052 3.08 173.932 3.4 173.652 3.6C173.372 3.84 173.052 3.92 172.652 3.88C172.492 3.88 172.372 3.84 172.292 3.84C172.212 3.8 172.132 3.8 172.052 3.8C171.972 3.8 171.892 3.76 171.812 3.76C171.732 3.76 171.612 3.76 171.452 3.76C170.692 3.76 170.052 3.84 169.532 4C168.892 4.24 168.372 4.64 168.012 5.2C167.652 5.8 167.372 6.4 167.132 7C166.892 7.76 166.692 8.52 166.532 9.28C166.412 10.04 166.332 10.8 166.292 11.56C166.292 12.36 166.292 13.12 166.332 13.88C166.372 14.64 166.452 15.4 166.492 16.12L166.532 16.76C166.612 17.4 166.652 18.08 166.692 18.72C166.732 19.4 166.772 20.08 166.812 20.76V21.2C166.812 21.84 166.852 22.52 166.932 23.16C167.012 23.8 167.212 24.36 167.532 24.84C167.892 25.32 168.292 25.68 168.652 25.84C169.052 26.04 169.532 26.16 170.092 26.2C170.532 26.24 170.972 26.28 171.372 26.28C171.772 26.28 172.172 26.24 172.612 26.2C172.732 26.16 172.852 26.12 172.972 26.12C173.132 26.12 173.252 26.12 173.372 26.12C173.532 26.12 173.692 26.12 173.812 26.12C173.932 26.12 174.052 26.08 174.132 26.08C174.212 26.04 174.292 25.96 174.372 25.88C174.932 25.52 175.292 25.12 175.492 24.64C175.692 24.16 175.812 23.64 175.852 23.12C175.892 22.56 175.852 22.04 175.812 21.48C175.732 20.92 175.692 20.36 175.692 19.84C175.612 19.6 175.612 19.44 175.652 19.4C175.572 19.4 175.492 19.4 175.452 19.4C175.372 19.4 175.292 19.4 175.212 19.4C175.012 19.36 174.772 19.36 174.572 19.36C174.332 19.36 174.092 19.32 173.892 19.32C173.492 19.36 173.132 19.36 172.772 19.36C172.412 19.4 172.052 19.4 171.652 19.4C171.212 19.4 170.892 19.24 170.652 18.96C170.412 18.68 170.292 18.36 170.292 18C170.292 17.64 170.412 17.32 170.652 17C170.852 16.72 171.212 16.56 171.652 16.56C172.292 16.56 173.012 16.52 173.772 16.48C174.572 16.44 175.292 16.48 175.972 16.6C176.692 16.76 177.252 17 177.732 17.44Z" fill="white"/>
</svg>
